<?xml version="1.0" encoding="UTF-8"?>
<!DOCTYPE svg PUBLIC "-//W3C//DTD SVG 1.1//EN" "http://www.w3.org/Graphics/SVG/1.1/DTD/svg11.dtd">
<!-- Creator: CorelDRAW 2018 (64-Bit) -->
<svg xmlns="http://www.w3.org/2000/svg" xml:space="preserve" width="720px" height="330px" version="1.1" style="shape-rendering:geometricPrecision; text-rendering:geometricPrecision; image-rendering:optimizeQuality; fill-rule:evenodd; clip-rule:evenodd"
viewBox="0 0 720 330"
 xmlns:xlink="http://www.w3.org/1999/xlink">
 <defs>
  <style type="text/css">
   <![CDATA[
    .fil1 {fill:#637480}
    .fil3 {fill:#7E95A3}
    .fil4 {fill:#E7CBA0}
    .fil0 {fill:#E7E2DA}
    .fil2 {fill:#FFE0B1}
   ]]>
  </style>
 </defs>
 <g id="Слой_x0020_1">
  <metadata id="CorelCorpID_0Corel-Layer"/>
  <g id="armRight">
   <g>
    <g>
     <g>
      <path class="fil0" d="M497.894 61.971c0.025,0.047 0.052,0.091 0.08,0.132l11.002 -10.24c-0.152,-1.605 -1.147,-2.535 -2.987,-2.789l-0.556 0.902 -7.539 11.995z"/>
      <path class="fil1" d="M497.6 62.442l1.339 1.754 11.404 -10.556c0.327,-0.854 -0.129,-1.446 -1.367,-1.777l-11.002 10.24 -0.374 0.339z"/>
      <path class="fil2" d="M505.433 49.976c-1.867,-1.876 -3.879,-3.558 -6.036,-5.046 -2.381,0.671 -4.685,2.033 -6.913,4.084 0.952,4.847 2.755,9.167 5.41,12.957l7.539 -11.995z"/>
      <path class="fil3" d="M504.686 68.161c1.797,-0.116 3.477,-0.912 5.041,-2.387l0.031 -0.039c0.292,-0.277 0.555,-0.558 0.789,-0.84 2.199,-2.55 2.131,-6.302 -0.204,-11.255l-11.404 10.556 1.609 2.17c0.944,1.298 2.323,1.896 4.138,1.795z"/>
     </g>
    </g>
   </g>
  </g>
  <g id="handRight">
   <g>
    <g>
     <g>
      <g>
       <path class="fil2" d="M507.282 45.998c-1.233,3.288 -2.672,5.657 -4.32,7.107l-9.624 -2.644c-0.798,-0.208 -1.11,-0.677 -0.936,-1.409l0.155 -0.549c1.879,-8.048 5.112,-11.45 9.7,-10.205 1.629,0.416 3.24,1.049 4.831,1.898 1.062,0.544 1.488,1.214 1.281,2.012l-0.053 0.25c-0.276,0.964 -0.551,1.894 -0.827,2.792l0 -0.05 -0.207 0.798 0 0zm-13.061 1.022c-0.036,0.3 0.327,0.686 1.089,1.161 0.729,0.473 1.658,0.916 2.787,1.327 1.163,0.378 2.144,0.621 2.943,0.729 0.866,0.075 1.317,-0.021 1.353,-0.287 0.07,-0.299 -0.26,-0.686 -0.989,-1.16 -0.728,-0.507 -1.674,-0.966 -2.836,-1.378 -1.129,-0.411 -2.111,-0.654 -2.943,-0.728 -0.866,-0.076 -1.334,0.037 -1.404,0.336z"/>
      </g>
      <g>
       <path class="fil4" d="M495.31 48.181c-0.762,-0.475 -1.125,-0.861 -1.089,-1.161 0.07,-0.299 0.538,-0.412 1.404,-0.336 0.832,0.074 1.814,0.317 2.943,0.728 1.162,0.412 2.108,0.871 2.836,1.378 0.729,0.474 1.059,0.861 0.989,1.16 -0.036,0.266 -0.487,0.362 -1.353,0.287 -0.799,-0.108 -1.78,-0.351 -2.943,-0.729 -1.129,-0.411 -2.058,-0.854 -2.787,-1.327l0 0zm12.179 -2.931c2.038,2.92 0.529,5.538 -4.527,7.855 1.647,-1.45 3.087,-3.819 4.32,-7.107l0.207 -0.798 0 0.05z"/>
      </g>
     </g>
    </g>
   </g>
  </g>
  <g id="armLeft_FL">
   <g>
    <g id="_910485584">
     <g>
      <path class="fil0" d="M16.05 299.2c0.02,-0.067 0.036,-0.134 0.05,-0.2l-14.9 -2.7c-1.143,1.564 -1.226,3.43 -0.25,5.6l1.05 -0.2 14.05 -2.5z"/>
      <path class="fil1" d="M16.6 299.1l0.5 -2.95 -15.4 -2.85c-0.867,0.4 -1.034,1.4 -0.5,3l14.9 2.7 0.5 0.1z"/>
      <path class="fil2" d="M2 301.7c-0.259,3.615 -0.276,7.215 -0.051,10.8 2.034,1.934 4.551,3.183 7.55,3.75 3.134,-5.244 5.317,-10.927 6.551,-17.05l-14.05 2.5z"/>
      <path class="fil3" d="M16.5 286.6c-1.234,-1.8 -2.917,-2.883 -5.05,-3.25l-0.05 0c-0.4,-0.067 -0.784,-0.1 -1.15,-0.1 -3.367,-0.1 -6.217,3.25 -8.55,10.05l15.4 2.85 0.65 -3.6c0.4,-2.133 -0.017,-4.117 -1.25,-5.95z"/>
     </g>
    </g>
   </g>
  </g>
  <g id="handLeft_FL">
   <g>
    <g id="_910484304">
     <g>
      <g>
       <path class="fil2" d="M17.1 315c-1.2,-3.3 -2.617,-5.683 -4.25,-7.15l-9.65 2.55c-0.8,0.2 -1.117,0.667 -0.95,1.4l0.15 0.55c1.8,8.067 5,11.5 9.6,10.3 1.633,-0.4 3.25,-1.016 4.85,-1.85 1.066,-0.533 1.5,-1.2 1.3,-2l-0.05 -0.25c-0.267,-0.967 -0.534,-1.9 -0.8,-2.8l0 0.05 -0.2 -0.8 0 0zm-13.05 -1.15c-0.033,-0.3 0.333,-0.683 1.1,-1.15 0.733,-0.466 1.666,-0.9 2.799,-1.3 1.167,-0.366 2.151,-0.6 2.951,-0.7 0.866,-0.066 1.316,0.033 1.349,0.3 0.067,0.3 -0.266,0.684 -0.999,1.15 -0.734,0.5 -1.684,0.95 -2.85,1.35 -1.134,0.4 -2.117,0.633 -2.95,0.7 -0.867,0.067 -1.334,-0.05 -1.4,-0.35z"/>
      </g>
      <g>
       <path class="fil4" d="M5.15 312.7c-0.767,0.467 -1.134,0.85 -1.1,1.15 0.066,0.3 0.533,0.417 1.4,0.35 0.833,-0.067 1.816,-0.3 2.95,-0.7 1.166,-0.4 2.116,-0.85 2.85,-1.35 0.733,-0.466 1.066,-0.85 0.999,-1.15 -0.033,-0.267 -0.483,-0.366 -1.349,-0.3 -0.8,0.1 -1.784,0.334 -2.951,0.7 -1.133,0.4 -2.066,0.834 -2.799,1.3l0 0zm12.15 3.05c2.066,-2.9 0.583,-5.533 -4.45,-7.9 1.633,1.467 3.05,3.85 4.25,7.15l0.2 0.8 0 -0.05z"/>
      </g>
     </g>
    </g>
   </g>
  </g>
  <g id="armLeft_FL_FL">
   <g>
    <g>
     <g>
      <path class="fil0" d="M26.434 79.484c0.035,-0.053 0.067,-0.107 0.095,-0.161l-13.762 -6.21c-1.468,1.067 -1.985,2.673 -1.549,4.817l1.061 0.097 14.155 1.457z"/>
      <path class="fil1" d="M26.989 79.539l1.172 -2.441 -14.21 -6.471c-0.931,0.125 -1.325,0.954 -1.184,2.486l13.762 6.21 0.46 0.216z"/>
      <path class="fil2" d="M12.279 78.027c-1.095,3.085 -1.951,6.219 -2.571,9.402 1.513,2.211 3.652,3.952 6.417,5.222 4.251,-3.759 7.687,-8.149 10.309,-13.167l-14.155 -1.457z"/>
      <path class="fil3" d="M29.811 68.617c-0.771,-1.888 -2.144,-3.268 -4.119,-4.139l-0.048 -0.014c-0.371,-0.161 -0.733,-0.289 -1.087,-0.384 -3.229,-0.959 -6.764,1.224 -10.606,6.547l14.21 6.471 1.468 -2.97c0.885,-1.756 0.946,-3.593 0.182,-5.511z"/>
     </g>
    </g>
   </g>
  </g>
  <g id="handLeft_FL_FL">
   <g>
    <g>
     <g>
      <g>
       <path class="fil2" d="M23.511 94.531c-0.305,-3.498 -1.056,-6.167 -2.254,-8.006l-9.982 -0.035c-0.824,-0.014 -1.251,0.355 -1.279,1.107l0.002 0.57c-0.349,8.258 1.853,12.402 6.607,12.434 1.682,0.036 3.403,-0.141 5.164,-0.532 1.168,-0.239 1.759,-0.771 1.773,-1.596l0.017 -0.254c-0.008,-1.003 -0.024,-1.973 -0.048,-2.912l-0.013 0.049 0.013 -0.825 0 0zm-12.307 -4.488c0.045,-0.298 0.499,-0.574 1.36,-0.826 0.829,-0.261 1.843,-0.438 3.041,-0.531 1.222,-0.053 2.232,-0.023 3.031,0.087 0.854,0.16 1.263,0.373 1.226,0.639 -0.013,0.307 -0.434,0.591 -1.264,0.852 -0.837,0.294 -1.871,0.482 -3.102,0.566 -1.198,0.093 -2.208,0.065 -3.031,-0.087 -0.854,-0.16 -1.275,-0.393 -1.261,-0.7z"/>
      </g>
      <g>
       <path class="fil4" d="M12.564 89.217c-0.861,0.252 -1.315,0.528 -1.36,0.826 -0.014,0.307 0.407,0.54 1.261,0.7 0.823,0.151 1.833,0.181 3.031,0.087 1.231,-0.084 2.265,-0.273 3.102,-0.566 0.83,-0.261 1.251,-0.545 1.264,-0.852 0.037,-0.266 -0.372,-0.479 -1.226,-0.639 -0.799,-0.11 -1.809,-0.14 -3.031,-0.087 -1.198,0.093 -2.212,0.27 -3.041,0.531l0 0zm10.947 6.09c2.746,-2.266 1.995,-5.194 -2.254,-8.782 1.198,1.839 1.949,4.508 2.254,8.006l-0.013 0.825 0.013 -0.049z"/>
      </g>
     </g>
    </g>
   </g>
  </g>
  <g id="armLeft_FL_FL_FL">
   <g>
    <g>
     <g>
      <path class="fil0" d="M103.162 75.62c0.046,-0.054 0.088,-0.108 0.126,-0.162l-12.412 -8.519c-1.665,0.965 -2.492,2.637 -2.481,5.016l1.031 0.244 13.736 3.421z"/>
      <path class="fil1" d="M103.701 75.752l1.641 -2.493 -12.805 -8.858c-0.946,0.014 -1.5,0.86 -1.661,2.538l12.412 8.519 0.413 0.294z"/>
      <path class="fil2" d="M89.426 72.199c-1.69,3.199 -3.154,6.482 -4.393,9.849 1.064,2.592 2.84,4.757 5.33,6.493 4.95,-3.52 9.216,-7.827 12.799,-12.921l-13.736 -3.421z"/>
      <path class="fil3" d="M108.643 64.289c-0.393,-2.146 -1.482,-3.82 -3.267,-5.021l-0.045 -0.02c-0.336,-0.224 -0.67,-0.41 -1.002,-0.559 -3.01,-1.458 -6.941,0.446 -11.792,5.712l12.805 8.858 2.038 -3.025c1.221,-1.787 1.642,-3.769 1.263,-5.945z"/>
     </g>
    </g>
   </g>
  </g>
  <g id="handLeft_FL_FL_FL">
   <g>
    <g>
     <g>
      <g>
       <path class="fil2" d="M96.911 92.021c0.423,-3.485 0.241,-6.252 -0.543,-8.299l-9.675 -2.1c-0.796,-0.184 -1.286,0.088 -1.468,0.817l-0.114 0.558c-2.034,8.007 -0.748,12.518 3.856,13.533 1.623,0.383 3.329,0.566 5.118,0.548 1.182,0.008 1.864,-0.39 2.047,-1.194l0.068 -0.245c0.199,-0.983 0.383,-1.935 0.551,-2.858l-0.022 0.044 0.182 -0.804 0 0zm-11.016 -6.939c0.105,-0.282 0.601,-0.458 1.489,-0.526 0.857,-0.084 1.877,-0.047 3.058,0.11 1.196,0.201 2.17,0.439 2.922,0.712 0.796,0.334 1.148,0.627 1.058,0.88 -0.076,0.297 -0.543,0.488 -1.4,0.572 -0.873,0.113 -1.915,0.084 -3.125,-0.088 -1.182,-0.157 -2.156,-0.395 -2.922,-0.713 -0.796,-0.334 -1.156,-0.649 -1.08,-0.947z"/>
      </g>
      <g>
       <path class="fil4" d="M87.384 84.556c-0.888,0.068 -1.384,0.244 -1.489,0.526 -0.076,0.298 0.284,0.614 1.08,0.947 0.766,0.318 1.74,0.556 2.922,0.713 1.21,0.172 2.252,0.201 3.125,0.088 0.857,-0.084 1.324,-0.275 1.4,-0.572 0.09,-0.253 -0.262,-0.546 -1.058,-0.88 -0.752,-0.273 -1.726,-0.511 -2.922,-0.712 -1.181,-0.157 -2.201,-0.194 -3.058,-0.11l0 0zm9.367 8.225c3.13,-1.649 3.002,-4.669 -0.383,-9.059 0.784,2.047 0.966,4.814 0.543,8.299l-0.182 0.804 0.022 -0.044z"/>
      </g>
     </g>
    </g>
   </g>
  </g>
  <g id="armLeft_FL_FL_FL_FL">
   <g>
    <g>
     <g>
      <path class="fil0" d="M182.863 74.52c0.062,-0.033 0.121,-0.069 0.177,-0.106l-8.627 -12.445c-1.913,0.298 -3.292,1.559 -4.136,3.783l0.883 0.601 11.703 8.167z"/>
      <path class="fil1" d="M183.322 74.838l2.44 -1.732 -8.874 -12.905c-0.896,-0.33 -1.721,0.259 -2.475,1.768l8.627 12.445 0.282 0.424z"/>
      <path class="fil2" d="M171.16 66.353c-2.739,2.374 -5.296,4.907 -7.671,7.601 0.07,2.805 0.966,5.469 2.686,7.991 5.924,-1.493 11.486,-3.968 16.688,-7.425l-11.703 -8.167z"/>
      <path class="fil3" d="M192.091 65.929c0.4,-2.145 -0.024,-4.102 -1.273,-5.869l-0.036 -0.036c-0.235,-0.33 -0.483,-0.624 -0.742,-0.883 -2.31,-2.452 -6.694,-2.098 -13.152,1.06l8.874 12.905 3.005 -2.086c1.792,-1.226 2.899,-2.923 3.324,-5.091z"/>
     </g>
    </g>
   </g>
  </g>
  <g id="handLeft_FL_FL_FL_FL">
   <g>
    <g>
     <g>
      <g>
       <path class="fil2" d="M175.068 84.398c0.611,-3.458 0.576,-6.23 -0.106,-8.318l-9.632 -2.616c-0.792,-0.227 -1.3,0.019 -1.522,0.738l-0.145 0.551c-2.475,7.886 -1.42,12.459 3.164,13.72 1.614,0.47 3.323,0.744 5.125,0.823 1.19,0.071 1.899,-0.29 2.126,-1.082l0.081 -0.242c0.253,-0.971 0.489,-1.912 0.707,-2.825l-0.024 0.044 0.226 -0.793 0 0zm-10.726 -7.521c0.121,-0.276 0.63,-0.425 1.527,-0.446 0.869,-0.038 1.893,0.054 3.075,0.274 1.194,0.266 2.162,0.555 2.905,0.869 0.784,0.375 1.124,0.687 1.019,0.935 -0.092,0.293 -0.573,0.458 -1.441,0.496 -0.885,0.066 -1.933,-0.019 -3.143,-0.256 -1.181,-0.221 -2.15,-0.51 -2.905,-0.869 -0.784,-0.376 -1.13,-0.71 -1.037,-1.003z"/>
      </g>
      <g>
       <path class="fil4" d="M165.869 76.431c-0.897,0.021 -1.406,0.17 -1.527,0.446 -0.093,0.293 0.253,0.628 1.037,1.003 0.755,0.359 1.723,0.648 2.905,0.869 1.21,0.237 2.258,0.322 3.143,0.256 0.869,-0.038 1.349,-0.203 1.441,-0.496 0.105,-0.248 -0.235,-0.56 -1.019,-0.935 -0.743,-0.314 -1.711,-0.603 -2.905,-0.869 -1.182,-0.22 -2.206,-0.312 -3.075,-0.274l0 0zm8.997 8.716c3.24,-1.478 3.272,-4.5 0.096,-9.067 0.682,2.088 0.717,4.86 0.106,8.318l-0.226 0.793 0.024 -0.044z"/>
      </g>
     </g>
    </g>
   </g>
  </g>
  <g id="armLeft_FL_FL_FL_FL_FL">
   <g>
    <g>
     <g>
      <path class="fil0" d="M266.247 87.194c0.043,-0.056 0.082,-0.113 0.117,-0.17l-12.978 -7.801c-1.622,1.058 -2.361,2.774 -2.217,5.148l1.053 0.185 14.025 2.638z"/>
      <path class="fil1" d="M266.796 87.295l1.513 -2.582 -13.393 -8.119c-0.952,0.067 -1.462,0.943 -1.53,2.629l12.978 7.801 0.432 0.271z"/>
      <path class="fil2" d="M252.222 84.556c-1.522,3.29 -2.813,6.651 -3.871,10.083 1.216,2.528 3.127,4.588 5.732,6.18 4.787,-3.794 8.842,-8.336 12.164,-13.625l-14.025 -2.638z"/>
      <path class="fil3" d="M271.13 75.569c-0.516,-2.119 -1.707,-3.729 -3.572,-4.827l-0.047 -0.018c-0.35,-0.204 -0.697,-0.371 -1.04,-0.501 -3.113,-1.285 -6.965,0.838 -11.555,6.371l13.393 8.119 1.883 -3.136c1.129,-1.854 1.442,-3.856 0.938,-6.008z"/>
     </g>
    </g>
   </g>
  </g>
  <g id="handLeft_FL_FL_FL_FL_FL">
   <g>
    <g>
     <g>
      <g>
       <path class="fil2" d="M261.587 102.605c0.047,-3.511 -0.434,-6.242 -1.442,-8.192l-9.928 -1.032c-0.819,-0.096 -1.28,0.228 -1.384,0.973l-0.054 0.567c-1.174,8.182 0.603,12.525 5.33,13.032 1.669,0.205 3.399,0.2 5.191,-0.012 1.186,-0.121 1.827,-0.591 1.924,-1.41l0.041 -0.252c0.093,-0.998 0.175,-1.966 0.244,-2.902l-0.018 0.047 0.096 -0.819 0 0zm-11.797 -5.697c0.076,-0.292 0.554,-0.521 1.436,-0.686 0.851,-0.177 1.878,-0.251 3.079,-0.224 1.221,0.071 2.224,0.2 3.007,0.39 0.834,0.245 1.22,0.498 1.156,0.759 -0.044,0.304 -0.491,0.544 -1.342,0.721 -0.863,0.208 -1.911,0.292 -3.143,0.253 -1.202,-0.027 -2.204,-0.157 -3.007,-0.39 -0.835,-0.244 -1.229,-0.519 -1.186,-0.823z"/>
      </g>
      <g>
       <path class="fil4" d="M251.226 96.222c-0.882,0.165 -1.36,0.394 -1.436,0.686 -0.043,0.305 0.351,0.579 1.186,0.823 0.803,0.233 1.805,0.363 3.007,0.39 1.232,0.039 2.28,-0.045 3.143,-0.253 0.851,-0.177 1.298,-0.417 1.342,-0.721 0.064,-0.261 -0.322,-0.514 -1.156,-0.759 -0.783,-0.189 -1.786,-0.32 -3.007,-0.39 -1.201,-0.027 -2.228,0.047 -3.079,0.224l0 0zm10.283 7.155c2.96,-1.98 2.505,-4.968 -1.364,-8.964 1.008,1.95 1.489,4.681 1.442,8.192l-0.096 0.819 0.018 -0.047z"/>
      </g>
     </g>
    </g>
   </g>
  </g>
  <g id="armLeft_FL_FL_FL_FL_FL_FL">
   <g>
    <g>
     <g>
      <path class="fil0" d="M344.563 72.67c0.062,-0.033 0.121,-0.069 0.177,-0.106l-8.627 -12.445c-1.913,0.298 -3.292,1.559 -4.137,3.783l0.884 0.601 11.703 8.167z"/>
      <path class="fil1" d="M345.023 72.988l2.439 -1.732 -8.874 -12.905c-0.896,-0.33 -1.721,0.26 -2.475,1.768l8.627 12.445 0.283 0.424z"/>
      <path class="fil2" d="M332.86 64.503c-2.739,2.374 -5.296,4.908 -7.672,7.602 0.071,2.805 0.967,5.468 2.687,7.99 5.924,-1.492 11.486,-3.967 16.688,-7.425l-11.703 -8.167z"/>
      <path class="fil3" d="M353.791 64.079c0.4,-2.145 -0.024,-4.102 -1.273,-5.869l-0.035 -0.036c-0.236,-0.33 -0.484,-0.624 -0.743,-0.883 -2.31,-2.452 -6.694,-2.098 -13.152,1.06l8.874 12.905 3.006 -2.086c1.791,-1.226 2.899,-2.923 3.323,-5.091z"/>
     </g>
    </g>
   </g>
  </g>
  <g id="handLeft_FL_FL_FL_FL_FL_FL">
   <g>
    <g>
     <g>
      <g>
       <path class="fil2" d="M333.423 85.456c1.485,-3.182 2.168,-5.869 2.05,-8.061l-8.626 -5.02c-0.707,-0.424 -1.262,-0.318 -1.662,0.318l-0.283 0.495c-4.431,6.977 -4.596,11.668 -0.495,14.072 1.438,0.872 3.018,1.579 4.738,2.121 1.132,0.377 1.909,0.212 2.334,-0.495l0.141 -0.212c0.495,-0.872 0.966,-1.721 1.414,-2.546l-0.035 0.035 0.424 -0.707 0 0zm-8.415 -10.04c0.189,-0.236 0.719,-0.248 1.591,-0.036 0.849,0.189 1.815,0.542 2.899,1.061 1.085,0.565 1.945,1.096 2.581,1.591 0.66,0.566 0.908,0.955 0.743,1.167 -0.165,0.259 -0.672,0.294 -1.52,0.106 -0.873,-0.165 -1.863,-0.519 -2.97,-1.061 -1.085,-0.518 -1.945,-1.049 -2.581,-1.591 -0.66,-0.566 -0.908,-0.978 -0.743,-1.237z"/>
      </g>
      <g>
       <path class="fil4" d="M326.599 75.38c-0.872,-0.212 -1.402,-0.2 -1.591,0.036 -0.165,0.259 0.083,0.672 0.743,1.237 0.636,0.542 1.496,1.073 2.581,1.591 1.107,0.542 2.097,0.896 2.97,1.061 0.848,0.188 1.355,0.153 1.52,-0.106 0.165,-0.212 -0.083,-0.601 -0.743,-1.167 -0.636,-0.495 -1.496,-1.026 -2.581,-1.591 -1.084,-0.519 -2.05,-0.872 -2.899,-1.061l0 0zm6.435 10.748c3.512,-0.589 4.325,-3.5 2.439,-8.733 0.118,2.192 -0.565,4.879 -2.05,8.061l-0.424 0.707 0.035 -0.035z"/>
      </g>
     </g>
    </g>
   </g>
  </g>
  <g id="armLeft_FL_FL_FL_FL_FL_FL_FL">
   <g>
    <g>
     <g>
      <path class="fil0" d="M22.885 190.076c0.051,-0.048 0.099,-0.098 0.143,-0.148l-11.554 -9.788c-1.771,0.782 -2.776,2.357 -3.016,4.724l1.009 0.352 13.418 4.86z"/>
      <path class="fil1" d="M23.411 190.264l1.908 -2.304 -11.912 -10.169c-0.95,-0.086 -1.595,0.696 -1.933,2.349l11.554 9.788 0.383 0.336z"/>
      <path class="fil2" d="M9.467 185.216c-2.032,3.002 -3.846,6.111 -5.443,9.328 0.794,2.691 2.349,5.032 4.664,7.023 5.335,-2.975 10.067,-6.805 14.197,-11.491l-13.418 -4.86z"/>
      <path class="fil3" d="M29.574 179.389c-0.168,-2.175 -1.084,-3.955 -2.748,-5.34l-0.043 -0.025c-0.313,-0.257 -0.629,-0.478 -0.947,-0.661 -2.865,-1.77 -7.008,-0.294 -12.429,4.428l11.912 10.169 2.363 -2.793c1.413,-1.648 2.044,-3.574 1.892,-5.778z"/>
     </g>
    </g>
   </g>
  </g>
  <g id="handLeft_FL_FL_FL_FL_FL_FL_FL">
   <g>
    <g>
     <g>
      <g>
       <path class="fil2" d="M14.973 203.056c1.485,-3.182 2.168,-5.868 2.05,-8.061l-8.627 -5.019c-0.707,-0.425 -1.261,-0.319 -1.662,0.318l-0.282 0.494c-4.431,6.977 -4.596,11.668 -0.495,14.072 1.438,0.872 3.017,1.579 4.738,2.121 1.131,0.377 1.909,0.212 2.333,-0.495l0.142 -0.212c0.495,-0.872 0.966,-1.721 1.414,-2.546l-0.035 0.036 0.424 -0.708 0 0zm-8.415 -10.04c0.188,-0.236 0.719,-0.247 1.591,-0.035 0.848,0.188 1.815,0.542 2.899,1.06 1.084,0.566 1.945,1.096 2.581,1.591 0.66,0.566 0.907,0.955 0.742,1.167 -0.164,0.259 -0.671,0.294 -1.52,0.106 -0.872,-0.165 -1.862,-0.519 -2.97,-1.061 -1.084,-0.518 -1.944,-1.048 -2.581,-1.59 -0.66,-0.566 -0.907,-0.979 -0.742,-1.238z"/>
      </g>
      <g>
       <path class="fil4" d="M8.149 192.981c-0.872,-0.212 -1.403,-0.201 -1.591,0.035 -0.165,0.259 0.082,0.672 0.742,1.238 0.637,0.542 1.497,1.072 2.581,1.59 1.108,0.542 2.098,0.896 2.97,1.061 0.849,0.188 1.356,0.153 1.52,-0.106 0.165,-0.212 -0.082,-0.601 -0.742,-1.167 -0.636,-0.495 -1.497,-1.025 -2.581,-1.591 -1.084,-0.518 -2.051,-0.872 -2.899,-1.06l0 0zm6.435 10.747c3.512,-0.589 4.325,-3.5 2.439,-8.733 0.118,2.193 -0.565,4.879 -2.05,8.061l-0.424 0.708 0.035 -0.036z"/>
      </g>
     </g>
    </g>
   </g>
  </g>
  <g id="armLeft_FL_FL_FL_FL_FL_FL_FL_FL">
   <g>
    <g>
     <g>
      <path class="fil0" d="M109.693 186.38c0.031,-0.063 0.059,-0.125 0.082,-0.189l-14.245 -5.135c-1.386,1.353 -1.778,3.18 -1.176,5.481l1.069 -0.023 14.27 -0.134z"/>
      <path class="fil1" d="M110.252 186.373l0.983 -2.826 -14.714 -5.366c-0.921,0.251 -1.251,1.209 -0.991,2.875l14.245 5.135 0.477 0.182z"/>
      <path class="fil2" d="M95.423 186.514c-0.855,3.523 -1.469,7.07 -1.842,10.642 1.685,2.244 3.959,3.894 6.823,4.951 3.96,-4.651 7.056,-9.893 9.289,-15.727l-14.27 0.134z"/>
      <path class="fil3" d="M112.228 174.03c-0.918,-1.98 -2.398,-3.327 -4.441,-4.043l-0.049 -0.008c-0.383,-0.133 -0.756,-0.229 -1.117,-0.29 -3.304,-0.657 -6.671,2.173 -10.1,8.492l14.714 5.366 1.238 -3.442c0.749,-2.038 0.667,-4.062 -0.245,-6.075z"/>
     </g>
    </g>
   </g>
  </g>
  <g id="handLeft_FL_FL_FL_FL_FL_FL_FL_FL">
   <g>
    <g>
     <g>
      <g>
       <path class="fil2" d="M107.691 201.404c-0.424,-3.485 -1.266,-6.127 -2.526,-7.925l-9.977 0.306c-0.824,0.014 -1.238,0.397 -1.241,1.149l0.022 0.57c-0.068,8.265 2.275,12.332 7.027,12.201 1.681,-0.021 3.395,-0.257 5.142,-0.707 1.159,-0.279 1.732,-0.831 1.718,-1.655l0.008 -0.255c-0.042,-1.002 -0.091,-1.971 -0.148,-2.908l-0.011 0.049 -0.014 -0.825 0 0zm-12.454 -4.066c0.036,-0.3 0.48,-0.591 1.332,-0.872 0.82,-0.289 1.827,-0.501 3.021,-0.635 1.219,-0.094 2.23,-0.099 3.032,-0.016 0.859,0.131 1.275,0.33 1.247,0.597 -0.003,0.308 -0.414,0.606 -1.234,0.895 -0.827,0.322 -1.854,0.545 -3.081,0.672 -1.194,0.133 -2.205,0.139 -3.032,0.016 -0.859,-0.131 -1.287,-0.35 -1.285,-0.657z"/>
      </g>
      <g>
       <path class="fil4" d="M96.569 196.466c-0.852,0.281 -1.296,0.572 -1.332,0.872 -0.002,0.307 0.426,0.526 1.285,0.657 0.827,0.123 1.838,0.117 3.032,-0.016 1.227,-0.127 2.254,-0.351 3.081,-0.672 0.82,-0.289 1.231,-0.587 1.234,-0.895 0.028,-0.267 -0.388,-0.466 -1.247,-0.597 -0.802,-0.083 -1.813,-0.078 -3.032,0.016 -1.194,0.134 -2.201,0.346 -3.021,0.635l0 0zm11.147 5.714c2.668,-2.358 1.818,-5.259 -2.551,-8.701 1.26,1.798 2.102,4.44 2.526,7.925l0.014 0.825 0.011 -0.049z"/>
      </g>
     </g>
    </g>
   </g>
  </g>
  <g id="armLeft_FL_FL_FL_FL_FL_FL_FL_FL_FL">
   <g>
    <g>
     <g>
      <path class="fil0" d="M176.05 189.2c0.02,-0.067 0.036,-0.134 0.05,-0.2l-14.9 -2.7c-1.143,1.564 -1.226,3.43 -0.25,5.6l1.05 -0.2 14.05 -2.5z"/>
      <path class="fil1" d="M176.6 189.1l0.5 -2.95 -15.4 -2.85c-0.867,0.4 -1.034,1.4 -0.5,3l14.9 2.7 0.5 0.1z"/>
      <path class="fil2" d="M162 191.7c-0.259,3.616 -0.276,7.216 -0.05,10.8 2.033,1.933 4.55,3.183 7.55,3.75 3.133,-5.244 5.316,-10.927 6.55,-17.05l-14.05 2.5z"/>
      <path class="fil3" d="M176.5 176.6c-1.233,-1.8 -2.917,-2.883 -5.05,-3.25l-0.05 0c-0.4,-0.067 -0.784,-0.1 -1.15,-0.1 -3.367,-0.1 -6.217,3.25 -8.55,10.05l15.4 2.85 0.65 -3.6c0.4,-2.133 -0.017,-4.117 -1.25,-5.95z"/>
     </g>
    </g>
   </g>
  </g>
  <g id="handLeft_FL_FL_FL_FL_FL_FL_FL_FL_FL">
   <g>
    <g>
     <g>
      <g>
       <path class="fil2" d="M177 204.75c-1.2,-3.3 -2.617,-5.683 -4.25,-7.15l-9.65 2.55c-0.8,0.2 -1.117,0.667 -0.95,1.4l0.15 0.55c1.8,8.067 5,11.5 9.6,10.3 1.633,-0.4 3.25,-1.016 4.85,-1.85 1.066,-0.533 1.5,-1.2 1.3,-2l-0.05 -0.25c-0.267,-0.967 -0.534,-1.9 -0.8,-2.8l0 0.05 -0.2 -0.8 0 0zm-13.05 -1.15c-0.034,-0.3 0.333,-0.683 1.1,-1.15 0.733,-0.467 1.667,-0.9 2.8,-1.3 1.166,-0.367 2.15,-0.6 2.95,-0.7 0.866,-0.067 1.316,0.033 1.35,0.3 0.067,0.3 -0.267,0.684 -1,1.15 -0.734,0.5 -1.683,0.95 -2.85,1.35 -1.134,0.4 -2.117,0.633 -2.95,0.7 -0.867,0.067 -1.333,-0.05 -1.4,-0.35z"/>
      </g>
      <g>
       <path class="fil4" d="M165.05 202.45c-0.767,0.467 -1.134,0.85 -1.1,1.15 0.067,0.3 0.533,0.417 1.4,0.35 0.833,-0.067 1.816,-0.3 2.95,-0.7 1.167,-0.4 2.116,-0.85 2.85,-1.35 0.733,-0.467 1.067,-0.85 1,-1.15 -0.034,-0.267 -0.484,-0.367 -1.35,-0.3 -0.8,0.1 -1.784,0.333 -2.95,0.7 -1.134,0.4 -2.067,0.833 -2.8,1.3l0 0zm12.15 3.05c2.067,-2.9 0.583,-5.533 -4.45,-7.9 1.633,1.467 3.05,3.85 4.25,7.15l0.2 0.8 0 -0.05z"/>
      </g>
     </g>
    </g>
   </g>
  </g>
  <g id="armLeft_FL_FL_FL_FL_FL_FL_FL_FL_FL_FL">
   <g>
    <g>
     <g>
      <path class="fil0" d="M335.772 188.944c0.014,-0.069 0.025,-0.137 0.033,-0.204l-15.072 -1.46c-1.009,1.653 -0.938,3.52 0.213,5.602l1.03 -0.286 13.796 -3.652z"/>
      <path class="fil1" d="M336.311 188.799l0.255 -2.981 -15.582 -1.568c-0.831,0.47 -0.915,1.48 -0.251,3.03l15.072 1.46 0.506 0.059z"/>
      <path class="fil2" d="M321.976 192.596c0.041,3.624 0.322,7.213 0.842,10.767 2.187,1.759 4.798,2.796 7.834,3.114 2.689,-5.485 4.396,-11.329 5.12,-17.533l-13.796 3.652z"/>
      <path class="fil3" d="M335.179 176.35c-1.378,-1.692 -3.145,-2.633 -5.301,-2.822l-0.05 0.004c-0.404,-0.033 -0.788,-0.034 -1.154,-0.004 -3.363,0.178 -5.927,3.752 -7.69,10.722l15.582 1.568 0.351 -3.642c0.222,-2.159 -0.357,-4.101 -1.738,-5.826z"/>
     </g>
    </g>
   </g>
  </g>
  <g id="handLeft_FL_FL_FL_FL_FL_FL_FL_FL_FL_FL">
   <g>
    <g>
     <g>
      <g>
       <path class="fil2" d="M337.83 203.802c-1.468,-3.19 -3.077,-5.448 -4.826,-6.775l-9.406 3.338c-0.781,0.266 -1.058,0.757 -0.831,1.474l0.195 0.536c2.46,7.89 5.932,11.048 10.418,9.472 1.594,-0.534 3.154,-1.282 4.68,-2.245 1.019,-0.619 1.396,-1.319 1.131,-2.1l-0.071 -0.245c-0.345,-0.941 -0.688,-1.85 -1.028,-2.724l0.004 0.049 -0.266 -0.78 0 0zm-13.1 -0.069c-0.058,-0.296 0.276,-0.708 1.001,-1.236 0.693,-0.526 1.587,-1.035 2.683,-1.527 1.133,-0.462 2.094,-0.776 2.882,-0.941 0.859,-0.138 1.315,-0.076 1.37,0.187 0.092,0.293 -0.209,0.703 -0.901,1.228 -0.689,0.559 -1.599,1.086 -2.729,1.581 -1.096,0.493 -2.057,0.806 -2.882,0.942 -0.858,0.138 -1.333,0.06 -1.424,-0.234z"/>
      </g>
      <g>
       <path class="fil4" d="M325.731 202.497c-0.725,0.528 -1.059,0.94 -1.001,1.236 0.091,0.294 0.566,0.372 1.424,0.234 0.825,-0.136 1.786,-0.449 2.882,-0.942 1.13,-0.495 2.04,-1.022 2.729,-1.581 0.692,-0.525 0.993,-0.935 0.901,-1.228 -0.055,-0.263 -0.511,-0.326 -1.37,-0.187 -0.788,0.165 -1.749,0.479 -2.882,0.941 -1.096,0.492 -1.99,1.001 -2.683,1.527l0 0zm12.361 2.036c1.82,-3.061 0.124,-5.563 -5.088,-7.506 1.749,1.327 3.358,3.585 4.826,6.775l0.266 0.78 -0.004 -0.049z"/>
      </g>
     </g>
    </g>
   </g>
  </g>
  <g id="armLeft_FL_FL_FL_FL_FL_FL_FL_FL_FL_FL_FL">
   <g>
    <g>
     <g>
      <path class="fil0" d="M416.079 186.17c0.027,-0.065 0.05,-0.13 0.07,-0.194l-14.555 -4.177c-1.293,1.442 -1.563,3.291 -0.809,5.547l1.065 -0.094 14.229 -1.082z"/>
      <path class="fil1" d="M416.636 186.126l0.793 -2.886 -15.038 -4.376c-0.902,0.312 -1.168,1.29 -0.797,2.935l14.555 4.177 0.487 0.15z"/>
      <path class="fil2" d="M401.85 187.252c-0.619,3.572 -0.996,7.152 -1.13,10.741 1.829,2.127 4.208,3.622 7.136,4.486 3.642,-4.904 6.383,-10.34 8.223,-16.309l-14.229 1.082z"/>
      <path class="fil3" d="M417.787 173.679c-1.047,-1.915 -2.614,-3.161 -4.7,-3.739l-0.049 -0.005c-0.392,-0.107 -0.77,-0.178 -1.134,-0.215 -3.34,-0.436 -6.511,2.612 -9.513,9.144l15.038 4.376 1.006 -3.516c0.612,-2.083 0.396,-4.098 -0.648,-6.045z"/>
     </g>
    </g>
   </g>
  </g>
  <g id="handLeft_FL_FL_FL_FL_FL_FL_FL_FL_FL_FL_FL">
   <g>
    <g>
     <g>
      <g>
       <path class="fil2" d="M415.36 203.049c-0.863,-3.403 -2.035,-5.916 -3.513,-7.539l-9.856 1.572c-0.816,0.119 -1.178,0.552 -1.086,1.298l0.095 0.562c0.984,8.207 3.824,11.943 8.521,11.209 1.665,-0.235 3.335,-0.687 5.01,-1.356 1.115,-0.424 1.613,-1.044 1.494,-1.86l-0.025 -0.254c-0.168,-0.988 -0.34,-1.943 -0.516,-2.865l-0.005 0.049 -0.119 -0.816 0 0zm-12.869 -2.449c-0.003,-0.302 0.4,-0.647 1.209,-1.034 0.777,-0.391 1.749,-0.729 2.917,-1.014 1.197,-0.248 2.199,-0.382 3.005,-0.401 0.869,0.02 1.306,0.165 1.313,0.434 0.036,0.305 -0.334,0.653 -1.11,1.044 -0.78,0.424 -1.77,0.777 -2.971,1.058 -1.167,0.284 -2.169,0.418 -3.005,0.401 -0.869,-0.02 -1.322,-0.183 -1.358,-0.488z"/>
      </g>
      <g>
       <path class="fil4" d="M403.7 199.566c-0.809,0.387 -1.212,0.732 -1.209,1.034 0.036,0.305 0.489,0.468 1.358,0.488 0.836,0.017 1.838,-0.117 3.005,-0.401 1.201,-0.281 2.191,-0.634 2.971,-1.058 0.776,-0.391 1.146,-0.739 1.11,-1.044 -0.007,-0.269 -0.444,-0.414 -1.313,-0.434 -0.806,0.019 -1.808,0.153 -3.005,0.401 -1.168,0.285 -2.14,0.623 -2.917,1.014l0 0zm11.784 4.25c2.347,-2.679 1.134,-5.447 -3.637,-8.306 1.478,1.623 2.65,4.136 3.513,7.539l0.119 0.816 0.005 -0.049z"/>
      </g>
     </g>
    </g>
   </g>
  </g>
  <g id="armLeft_FL_FL_FL_FL_FL_FL_FL_FL_FL_FL_FL_FL">
   <g>
    <g>
     <g>
      <path class="fil0" d="M499.581 187.38c0.036,-0.06 0.068,-0.121 0.097,-0.182l-13.804 -6.225c-1.487,1.24 -2.019,3.031 -1.597,5.372l1.067 0.06 14.237 0.975z"/>
      <path class="fil1" d="M500.139 187.416l1.199 -2.741 -14.252 -6.492c-0.938,0.178 -1.342,1.108 -1.212,2.79l13.804 6.225 0.461 0.218z"/>
      <path class="fil2" d="M485.344 186.405c-1.126,3.446 -2.014,6.935 -2.663,10.467 1.505,2.368 3.645,4.19 6.418,5.466 4.309,-4.329 7.803,-9.315 10.482,-14.958l-14.237 -0.975z"/>
      <path class="fil3" d="M503.067 175.264c-0.761,-2.045 -2.132,-3.504 -4.113,-4.376l-0.049 -0.012c-0.372,-0.161 -0.736,-0.286 -1.092,-0.375 -3.242,-0.912 -6.818,1.649 -10.727,7.682l14.252 6.492 1.502 -3.336c0.904,-1.973 0.98,-3.998 0.227,-6.075z"/>
     </g>
    </g>
   </g>
  </g>
  <g id="handLeft_FL_FL_FL_FL_FL_FL_FL_FL_FL_FL_FL_FL">
   <g>
    <g>
     <g>
      <g>
       <path class="fil2" d="M497.171 202.698c-0.697,-3.441 -1.744,-6.009 -3.142,-7.702l-9.921 1.089c-0.821,0.079 -1.204,0.493 -1.148,1.244l0.067 0.566c0.582,8.244 3.237,12.115 7.964,11.611 1.675,-0.153 3.365,-0.523 5.071,-1.109 1.134,-0.369 1.661,-0.964 1.582,-1.785l-0.012 -0.255c-0.12,-0.995 -0.245,-1.958 -0.375,-2.887l-0.007 0.049 -0.079 -0.821 0 0zm-12.735 -3.075c0.012,-0.301 0.431,-0.626 1.259,-0.974 0.794,-0.352 1.781,-0.642 2.962,-0.87 1.208,-0.189 2.215,-0.274 3.021,-0.254 0.867,0.063 1.297,0.229 1.29,0.498 0.022,0.306 -0.365,0.636 -1.159,0.988 -0.8,0.386 -1.806,0.69 -3.019,0.912 -1.181,0.227 -2.187,0.312 -3.022,0.254 -0.867,-0.063 -1.311,-0.247 -1.332,-0.554z"/>
      </g>
      <g>
       <path class="fil4" d="M485.695 198.649c-0.828,0.348 -1.247,0.673 -1.259,0.974 0.021,0.307 0.465,0.491 1.332,0.554 0.835,0.058 1.841,-0.027 3.022,-0.254 1.213,-0.222 2.219,-0.526 3.019,-0.912 0.794,-0.352 1.181,-0.682 1.159,-0.988 0.007,-0.269 -0.423,-0.435 -1.29,-0.498 -0.806,-0.02 -1.813,0.065 -3.021,0.254 -1.181,0.228 -2.168,0.518 -2.962,0.87l0 0zm11.562 4.821c2.475,-2.561 1.399,-5.386 -3.228,-8.474 1.398,1.693 2.445,4.261 3.142,7.702l0.079 0.821 0.007 -0.049z"/>
      </g>
     </g>
    </g>
   </g>
  </g>
  <g id="armLeft_FL_FL_FL_FL_FL_FL_FL_FL_FL_FL_FL_FL_FL">
   <g>
    <g>
     <g>
      <path class="fil0" d="M583.316 56.3c0.054,0.045 0.105,0.091 0.153,0.138l-10.844 10.57c-1.821,-0.658 -2.934,-2.159 -3.338,-4.504l0.982 -0.421 13.047 -5.783z"/>
      <path class="fil1" d="M583.828 56.075l2.064 2.167 -11.175 10.973c-0.942,0.153 -1.639,-0.583 -2.092,-2.207l10.844 -10.57 0.359 -0.363z"/>
      <path class="fil2" d="M570.269 62.083c-2.236,-2.852 -4.262,-5.828 -6.079,-8.926 0.604,-2.74 1.992,-5.183 4.162,-7.33 5.53,2.596 10.518,6.087 14.964,10.473l-13.047 5.783z"/>
      <path class="fil3" d="M590.734 66.495c-0.016,2.182 -0.806,4.021 -2.37,5.518l-0.041 0.028c-0.295,0.279 -0.594,0.521 -0.898,0.726 -2.735,1.965 -6.971,0.781 -12.708,-3.552l11.175 -10.973 2.551 2.621c1.525,1.545 2.288,3.422 2.291,5.632z"/>
     </g>
    </g>
   </g>
  </g>
  <g id="handLeft_FL_FL_FL_FL_FL_FL_FL_FL_FL_FL_FL_FL_FL">
   <g>
    <g>
     <g>
      <g>
       <path class="fil2" d="M575.397 42.444c0.85,3.407 1.008,6.175 0.474,8.304l-9.426 3.282c-0.775,0.281 -1.298,0.071 -1.571,-0.63l-0.183 -0.54c-3.017,-7.694 -2.284,-12.33 2.201,-13.907 1.577,-0.582 3.262,-0.974 5.055,-1.178 1.182,-0.154 1.914,0.156 2.196,0.931l0.098 0.236c0.32,0.95 0.62,1.873 0.902,2.768l-0.028 -0.041 0.282 0.775 0 0zm-10.176 8.25c0.14,0.267 0.658,0.38 1.555,0.338 0.868,-0.023 1.885,-0.185 3.048,-0.488 1.172,-0.348 2.118,-0.704 2.837,-1.068 0.756,-0.43 1.073,-0.764 0.952,-1.004 -0.113,-0.286 -0.604,-0.418 -1.472,-0.394 -0.888,-0.005 -1.927,0.153 -3.118,0.474 -1.164,0.302 -2.109,0.658 -2.837,1.069 -0.756,0.429 -1.078,0.787 -0.965,1.073z"/>
      </g>
      <g>
       <path class="fil4" d="M566.776 51.032c-0.897,0.042 -1.415,-0.071 -1.555,-0.338 -0.113,-0.286 0.209,-0.644 0.965,-1.073 0.728,-0.411 1.673,-0.767 2.837,-1.069 1.191,-0.321 2.23,-0.479 3.118,-0.474 0.868,-0.024 1.359,0.108 1.472,0.394 0.121,0.24 -0.196,0.574 -0.952,1.004 -0.719,0.364 -1.665,0.72 -2.837,1.068 -1.163,0.302 -2.18,0.465 -3.048,0.488l0 0zm8.367 -9.322c3.335,1.249 3.578,4.262 0.728,9.038 0.534,-2.129 0.376,-4.897 -0.474,-8.304l-0.282 -0.775 0.028 0.041z"/>
      </g>
     </g>
    </g>
   </g>
  </g>
  <g id="armLeft_FL_FL_FL_FL_FL_FL_FL_FL_FL_FL_FL_FL_FL_FL">
   <g>
    <g>
     <g>
      <path class="fil0" d="M581.857 184.267c0.064,-0.028 0.125,-0.059 0.184,-0.091l-7.579 -13.109c-1.931,0.14 -3.409,1.284 -4.432,3.431l0.831 0.672 10.996 9.097z"/>
      <path class="fil1" d="M582.289 184.622l2.573 -1.528 -7.789 -13.587c-0.866,-0.402 -1.736,0.118 -2.611,1.56l7.579 13.109 0.248 0.446z"/>
      <path class="fil2" d="M570.861 175.17c-2.924,2.141 -5.68,4.457 -8.268,6.948 -0.159,2.801 0.516,5.529 2.024,8.183 6.026,-1.002 11.772,-3.014 17.24,-6.034l-10.996 -9.097z"/>
      <path class="fil3" d="M591.756 176.46c0.575,-2.106 0.312,-4.09 -0.788,-5.954l-0.033 -0.038c-0.207,-0.348 -0.43,-0.662 -0.667,-0.942 -2.102,-2.632 -6.5,-2.638 -13.195,-0.019l7.789 13.587 3.165 -1.833c1.886,-1.074 3.129,-2.675 3.729,-4.801z"/>
     </g>
    </g>
   </g>
  </g>
  <g id="handLeft_FL_FL_FL_FL_FL_FL_FL_FL_FL_FL_FL_FL_FL_FL">
   <g>
    <g>
     <g>
      <g>
       <path class="fil2" d="M570.456 193.854c2.876,-2.013 4.812,-3.999 5.805,-5.956l-4.96 -8.661c-0.4,-0.721 -0.933,-0.906 -1.599,-0.555l-0.492 0.288c-7.326,3.826 -9.814,7.806 -7.464,11.938 0.809,1.474 1.823,2.876 3.043,4.206 0.791,0.892 1.547,1.138 2.268,0.738l0.228 -0.113c0.865,-0.508 1.697,-1.007 2.498,-1.498l-0.048 0.013 0.721 -0.4 0 0zm-2.268 -12.903c0.282,-0.109 0.747,0.146 1.396,0.765 0.64,0.588 1.301,1.377 1.98,2.368 0.656,1.032 1.136,1.921 1.44,2.668 0.289,0.82 0.309,1.281 0.06,1.382 -0.273,0.142 -0.73,-0.081 -1.37,-0.668 -0.673,-0.579 -1.353,-1.38 -2.041,-2.404 -0.68,-0.99 -1.16,-1.88 -1.44,-2.668 -0.289,-0.82 -0.297,-1.3 -0.025,-1.443z"/>
      </g>
      <g>
       <path class="fil4" d="M569.584 181.716c-0.65,-0.619 -1.114,-0.874 -1.396,-0.765 -0.272,0.143 -0.264,0.623 0.025,1.443 0.28,0.788 0.76,1.677 1.44,2.668 0.688,1.024 1.368,1.825 2.041,2.404 0.641,0.587 1.097,0.81 1.37,0.668 0.249,-0.101 0.229,-0.562 -0.06,-1.382 -0.304,-0.747 -0.784,-1.636 -1.44,-2.668 -0.679,-0.991 -1.34,-1.78 -1.98,-2.368l0 0zm0.199 12.525c3.336,1.246 5.495,-0.868 6.478,-6.343 -0.993,1.957 -2.929,3.943 -5.805,5.956l-0.721 0.4 0.048 -0.013z"/>
      </g>
     </g>
    </g>
   </g>
  </g>
  <g id="armLeft_FL_FL_FL_FL_FL_FL_FL_FL_FL_FL_FL_FL_FL_FL_FL">
   <g>
    <g>
     <g>
      <path class="fil0" d="M105.413 308.92c0.062,-0.033 0.121,-0.069 0.177,-0.106l-8.627 -12.445c-1.913,0.298 -3.292,1.559 -4.136,3.783l0.883 0.601 11.703 8.167z"/>
      <path class="fil1" d="M105.872 309.238l2.44 -1.732 -8.874 -12.904c-0.896,-0.33 -1.72,0.259 -2.475,1.767l8.627 12.445 0.282 0.424z"/>
      <path class="fil2" d="M93.71 300.753c-2.739,2.374 -5.296,4.907 -7.672,7.601 0.071,2.805 0.967,5.468 2.687,7.99 5.924,-1.492 11.486,-3.967 16.688,-7.424l-11.703 -8.167z"/>
      <path class="fil3" d="M114.64 300.329c0.401,-2.145 -0.023,-4.101 -1.273,-5.869l-0.035 -0.035c-0.236,-0.33 -0.483,-0.625 -0.742,-0.884 -2.31,-2.451 -6.694,-2.098 -13.152,1.061l8.874 12.904 3.005 -2.086c1.791,-1.226 2.899,-2.923 3.323,-5.091z"/>
     </g>
    </g>
   </g>
  </g>
  <g id="handLeft_FL_FL_FL_FL_FL_FL_FL_FL_FL_FL_FL_FL_FL_FL_FL">
   <g>
    <g>
     <g>
      <g>
       <path class="fil2" d="M97.318 319.098c0.611,-3.458 0.576,-6.23 -0.106,-8.317l-9.631 -2.617c-0.793,-0.226 -1.301,0.019 -1.523,0.738l-0.145 0.551c-2.475,7.886 -1.42,12.459 3.164,13.72 1.614,0.47 3.322,0.745 5.125,0.823 1.19,0.071 1.899,-0.289 2.125,-1.082l0.082 -0.242c0.253,-0.97 0.488,-1.912 0.707,-2.825l-0.025 0.044 0.227 -0.793 0 0zm-10.726 -7.521c0.121,-0.276 0.63,-0.425 1.527,-0.446 0.869,-0.037 1.894,0.054 3.075,0.274 1.194,0.266 2.162,0.556 2.905,0.869 0.783,0.376 1.123,0.687 1.019,0.935 -0.092,0.293 -0.573,0.458 -1.441,0.496 -0.885,0.066 -1.933,-0.019 -3.143,-0.256 -1.182,-0.22 -2.15,-0.51 -2.905,-0.869 -0.784,-0.376 -1.13,-0.71 -1.037,-1.003z"/>
      </g>
      <g>
       <path class="fil4" d="M88.119 311.131c-0.897,0.021 -1.406,0.17 -1.527,0.446 -0.093,0.293 0.253,0.628 1.037,1.003 0.755,0.359 1.723,0.649 2.905,0.869 1.21,0.237 2.258,0.322 3.143,0.256 0.868,-0.038 1.349,-0.203 1.441,-0.496 0.104,-0.248 -0.236,-0.559 -1.019,-0.935 -0.743,-0.313 -1.711,-0.603 -2.905,-0.869 -1.181,-0.22 -2.206,-0.311 -3.075,-0.274l0 0zm8.997 8.716c3.24,-1.477 3.272,-4.5 0.096,-9.066 0.681,2.087 0.717,4.859 0.106,8.317l-0.227 0.793 0.025 -0.044z"/>
      </g>
     </g>
    </g>
   </g>
  </g>
  <g id="armLeft_FL_FL_FL_FL_FL_FL_FL_FL_FL_FL_FL_FL_FL_FL_FL_FL">
   <g>
    <g>
     <g>
      <path class="fil0" d="M663.816 57.3c0.054,0.045 0.105,0.091 0.153,0.138l-10.843 10.569c-1.822,-0.657 -2.934,-2.158 -3.339,-4.503l0.983 -0.421 13.046 -5.783z"/>
      <path class="fil1" d="M664.328 57.075l2.064 2.167 -11.174 10.973c-0.943,0.153 -1.64,-0.583 -2.092,-2.208l10.843 -10.569 0.359 -0.363z"/>
      <path class="fil2" d="M650.77 63.083c-2.236,-2.852 -4.263,-5.828 -6.081,-8.926 0.605,-2.739 1.993,-5.183 4.163,-7.33 5.53,2.596 10.518,6.086 14.964,10.473l-13.046 5.783z"/>
      <path class="fil3" d="M671.234 67.495c-0.016,2.182 -0.806,4.021 -2.37,5.518l-0.041 0.028c-0.295,0.279 -0.594,0.521 -0.898,0.726 -2.735,1.965 -6.971,0.781 -12.707,-3.552l11.174 -10.973 2.551 2.621c1.525,1.545 2.289,3.422 2.291,5.632z"/>
     </g>
    </g>
   </g>
  </g>
  <g id="handLeft_FL_FL_FL_FL_FL_FL_FL_FL_FL_FL_FL_FL_FL_FL_FL_FL">
   <g>
    <g>
     <g>
      <g>
       <path class="fil2" d="M655.897 43.444c0.85,3.407 1.009,6.175 0.474,8.304l-9.426 3.282c-0.775,0.281 -1.299,0.071 -1.57,-0.63l-0.184 -0.54c-3.018,-7.694 -2.284,-12.33 2.2,-13.907 1.578,-0.582 3.263,-0.974 5.056,-1.178 1.183,-0.154 1.915,0.156 2.196,0.931l0.098 0.236c0.32,0.95 0.62,1.873 0.903,2.768l-0.028 -0.041 0.281 0.775 0 0zm-10.176 8.25c0.14,0.267 0.658,0.38 1.555,0.338 0.869,-0.023 1.885,-0.186 3.048,-0.488 1.172,-0.348 2.118,-0.704 2.837,-1.068 0.756,-0.43 1.073,-0.764 0.952,-1.004 -0.113,-0.286 -0.604,-0.417 -1.473,-0.394 -0.887,-0.005 -1.926,0.153 -3.117,0.474 -1.163,0.302 -2.109,0.658 -2.837,1.069 -0.756,0.43 -1.078,0.787 -0.965,1.073z"/>
      </g>
      <g>
       <path class="fil4" d="M647.276 52.032c-0.897,0.042 -1.415,-0.071 -1.555,-0.338 -0.113,-0.286 0.209,-0.643 0.965,-1.073 0.728,-0.411 1.674,-0.767 2.837,-1.069 1.191,-0.321 2.23,-0.479 3.117,-0.474 0.869,-0.023 1.36,0.108 1.473,0.394 0.121,0.24 -0.196,0.574 -0.952,1.004 -0.719,0.364 -1.665,0.72 -2.837,1.068 -1.163,0.302 -2.179,0.465 -3.048,0.488l0 0zm8.368 -9.322c3.334,1.249 3.577,4.262 0.727,9.038 0.534,-2.129 0.376,-4.897 -0.474,-8.304l-0.281 -0.775 0.028 0.041z"/>
      </g>
     </g>
    </g>
   </g>
  </g>
  <g id="armLeft_FL_FL_FL_FL_FL_FL_FL_FL_FL_FL_FL_FL_FL_FL_FL_FL_FL">
   <g>
    <g>
     <g>
      <path class="fil0" d="M663.456 183.3c0.059,-0.038 0.115,-0.077 0.168,-0.119l-9.579 -11.728c-1.884,0.448 -3.159,1.813 -3.826,4.097l0.928 0.529 12.309 7.221z"/>
      <path class="fil1" d="M663.939 183.582l2.296 -1.919 -9.862 -12.167c-0.919,-0.258 -1.695,0.394 -2.328,1.957l9.579 11.728 0.315 0.401z"/>
      <path class="fil2" d="M651.147 176.079c-2.544,2.582 -4.894,5.309 -7.05,8.181 0.291,2.791 1.393,5.376 3.307,7.755 5.787,-1.954 11.138,-4.859 16.052,-8.715l-12.309 -7.221z"/>
      <path class="fil3" d="M671.979 174.01c0.231,-2.17 -0.346,-4.086 -1.73,-5.751l-0.038 -0.032c-0.261,-0.31 -0.531,-0.585 -0.81,-0.823 -2.495,-2.262 -6.838,-1.565 -13.028,2.092l9.862 12.167 2.832 -2.316c1.689,-1.363 2.66,-3.142 2.912,-5.337z"/>
     </g>
    </g>
   </g>
  </g>
  <g id="handLeft_FL_FL_FL_FL_FL_FL_FL_FL_FL_FL_FL_FL_FL_FL_FL_FL_FL">
   <g>
    <g>
     <g>
      <g>
       <path class="fil2" d="M654.631 193.678c1.798,-3.016 2.75,-5.62 2.854,-7.813l-8.076 -5.866c-0.66,-0.493 -1.222,-0.444 -1.685,0.149l-0.331 0.464c-5.113,6.494 -5.751,11.143 -1.913,13.949 1.342,1.013 2.842,1.876 4.499,2.589 1.087,0.489 1.878,0.403 2.371,-0.257l0.162 -0.197c0.581,-0.817 1.135,-1.614 1.664,-2.39l-0.038 0.032 0.493 -0.66 0 0zm-7.358 -10.839c0.212,-0.216 0.741,-0.174 1.587,0.125 0.825,0.273 1.75,0.723 2.777,1.348 1.022,0.672 1.824,1.287 2.407,1.844 0.6,0.629 0.806,1.041 0.621,1.235 -0.19,0.241 -0.698,0.225 -1.523,-0.048 -0.851,-0.252 -1.801,-0.704 -2.848,-1.355 -1.026,-0.625 -1.828,-1.24 -2.407,-1.843 -0.599,-0.629 -0.804,-1.065 -0.614,-1.306z"/>
      </g>
      <g>
       <path class="fil4" d="M648.86 182.964c-0.846,-0.299 -1.375,-0.341 -1.587,-0.125 -0.19,0.241 0.014,0.676 0.614,1.306 0.579,0.603 1.381,1.218 2.407,1.843 1.047,0.651 1.997,1.103 2.848,1.355 0.825,0.273 1.333,0.289 1.523,0.048 0.185,-0.194 -0.021,-0.606 -0.621,-1.235 -0.583,-0.557 -1.385,-1.172 -2.407,-1.844 -1.026,-0.625 -1.952,-1.075 -2.777,-1.348l0 0zm5.316 11.342c3.554,-0.231 4.656,-3.045 3.309,-8.441 -0.104,2.192 -1.056,4.797 -2.854,7.813l-0.493 0.66 0.038 -0.032z"/>
      </g>
     </g>
    </g>
   </g>
  </g>
  <g id="armLeft_FL_FL_FL_FL_FL_FL_FL_FL_FL_FL_FL_FL_FL_FL_FL_FL_FL_FL">
   <g>
    <g>
     <g>
      <path class="fil0" d="M187.727 292.547c0.058,-0.039 0.113,-0.081 0.164,-0.124l-9.888 -11.467c-1.871,0.497 -3.109,1.896 -3.715,4.197l0.942 0.504 12.497 6.89z"/>
      <path class="fil1" d="M188.218 292.815l2.243 -1.979 -10.183 -11.899c-0.925,-0.234 -1.683,0.439 -2.275,2.019l9.888 11.467 0.327 0.392z"/>
      <path class="fil2" d="M175.23 285.657c-2.474,2.649 -4.751,5.438 -6.829,8.367 0.365,2.781 1.536,5.336 3.513,7.663 5.733,-2.108 11.004,-5.154 15.813,-9.14l-12.497 -6.89z"/>
      <path class="fil3" d="M195.999 283.033c0.173,-2.175 -0.455,-4.076 -1.883,-5.702l-0.039 -0.032c-0.269,-0.303 -0.546,-0.57 -0.831,-0.801 -2.555,-2.194 -6.878,-1.381 -12.968,2.439l10.183 11.899 2.769 -2.39c1.652,-1.408 2.575,-3.212 2.769,-5.413z"/>
     </g>
    </g>
   </g>
  </g>
  <g id="handLeft_FL_FL_FL_FL_FL_FL_FL_FL_FL_FL_FL_FL_FL_FL_FL_FL_FL_FL">
   <g>
    <g>
     <g>
      <g>
       <path class="fil2" d="M177.431 306.749c1.313,-3.256 1.853,-5.976 1.618,-8.158l-8.882 -4.554c-0.728,-0.386 -1.276,-0.251 -1.642,0.406l-0.256 0.51c-4.053,7.202 -3.968,11.895 0.255,14.077 1.482,0.794 3.097,1.417 4.844,1.866 1.15,0.317 1.918,0.11 2.304,-0.618l0.13 -0.22c0.447,-0.897 0.873,-1.77 1.276,-2.617l-0.033 0.037 0.386 -0.729 0 0zm-8.938 -9.578c0.176,-0.245 0.705,-0.285 1.587,-0.12 0.858,0.143 1.841,0.445 2.952,0.905 1.113,0.507 2,0.991 2.662,1.451 0.689,0.53 0.957,0.905 0.803,1.125 -0.15,0.268 -0.655,0.33 -1.512,0.188 -0.88,-0.119 -1.887,-0.419 -3.022,-0.901 -1.11,-0.46 -1.998,-0.944 -2.662,-1.452 -0.689,-0.529 -0.958,-0.928 -0.808,-1.196z"/>
      </g>
      <g>
       <path class="fil4" d="M170.08 297.051c-0.882,-0.165 -1.411,-0.125 -1.587,0.12 -0.15,0.268 0.119,0.667 0.808,1.196 0.664,0.508 1.552,0.992 2.662,1.452 1.135,0.482 2.142,0.782 3.022,0.901 0.857,0.142 1.362,0.08 1.512,-0.188 0.154,-0.22 -0.114,-0.595 -0.803,-1.125 -0.662,-0.46 -1.549,-0.944 -2.662,-1.451 -1.111,-0.46 -2.094,-0.762 -2.952,-0.905l0 0zm6.998 10.39c3.476,-0.775 4.133,-3.725 1.971,-8.85 0.235,2.183 -0.305,4.902 -1.618,8.158l-0.386 0.729 0.033 -0.037z"/>
      </g>
     </g>
    </g>
   </g>
  </g>
  <g id="armLeft_FL_FL_FL_FL_FL_FL_FL_FL_FL_FL_FL_FL_FL_FL_FL_FL_FL_FL_FL">
   <g>
    <g>
     <g>
      <path class="fil0" d="M270.52 292.228c-0.043,-0.047 -0.087,-0.092 -0.132,-0.133l-9.56 11.685c0.651,1.695 2.068,2.609 4.251,2.743l0.369 -0.999 5.072 -13.296z"/>
      <path class="fil1" d="M270.717 291.707l-2.056 -1.764 -9.928 12.051c-0.12,0.931 0.578,1.526 2.095,1.786l9.56 -11.685 0.329 -0.388z"/>
      <path class="fil2" d="M265.448 305.524c2.696,1.855 5.501,3.494 8.415,4.917 2.528,-0.889 4.763,-2.504 6.706,-4.847 -2.532,-5.079 -5.881,-9.534 -10.049,-13.366l-5.072 13.296z"/>
      <path class="fil3" d="M260.898 286.154c-2.024,0.255 -3.712,1.225 -5.066,2.906l-0.025 0.044c-0.252,0.316 -0.469,0.633 -0.653,0.95 -1.761,2.871 -0.568,6.851 3.579,11.94l9.928 -12.051 -2.489 -2.187c-1.467,-1.309 -3.225,-1.843 -5.274,-1.602z"/>
     </g>
    </g>
   </g>
  </g>
  <g id="handLeft_FL_FL_FL_FL_FL_FL_FL_FL_FL_FL_FL_FL_FL_FL_FL_FL_FL_FL_FL">
   <g>
    <g>
     <g>
      <g>
       <path class="fil2" d="M281.431 296.638c-3.498,0.305 -6.167,1.057 -8.006,2.255l-0.034 9.981c-0.014,0.825 0.354,1.251 1.106,1.28l0.57 -0.002c8.258,0.349 12.402,-1.854 12.434,-6.608 0.036,-1.681 -0.141,-3.402 -0.532,-5.163 -0.239,-1.168 -0.771,-1.76 -1.595,-1.774l-0.255 -0.016c-1.003,0.007 -1.974,0.024 -2.912,0.048l0.048 0.013 -0.824 -0.014 0 0zm-4.488 12.308c-0.299,-0.045 -0.574,-0.499 -0.826,-1.36 -0.261,-0.829 -0.438,-1.843 -0.531,-3.041 -0.052,-1.222 -0.023,-2.232 0.087,-3.031 0.16,-0.854 0.373,-1.263 0.639,-1.226 0.307,0.013 0.591,0.434 0.852,1.263 0.293,0.838 0.482,1.872 0.567,3.103 0.093,1.198 0.063,2.208 -0.088,3.03 -0.16,0.855 -0.393,1.275 -0.7,1.262z"/>
      </g>
      <g>
       <path class="fil4" d="M276.117 307.586c0.252,0.861 0.527,1.315 0.826,1.36 0.307,0.013 0.54,-0.407 0.7,-1.262 0.151,-0.822 0.181,-1.832 0.088,-3.03 -0.085,-1.231 -0.274,-2.265 -0.567,-3.103 -0.261,-0.829 -0.545,-1.25 -0.852,-1.263 -0.266,-0.037 -0.479,0.372 -0.639,1.226 -0.11,0.799 -0.139,1.809 -0.087,3.031 0.093,1.198 0.27,2.212 0.531,3.041l0 0zm6.09 -10.947c-2.266,-2.746 -5.193,-1.995 -8.782,2.254 1.839,-1.198 4.508,-1.95 8.006,-2.255l0.824 0.014 -0.048 -0.013z"/>
      </g>
     </g>
    </g>
   </g>
  </g>
  <g id="armLeft_FL_FL_FL_FL_FL_FL_FL_FL_FL_FL_FL_FL_FL_FL_FL_FL_FL_FL_FL_FL">
   <g>
    <g>
     <g>
      <path class="fil0" d="M346.434 299.484c0.035,-0.053 0.067,-0.107 0.095,-0.161l-13.762 -6.21c-1.468,1.068 -1.985,2.673 -1.549,4.817l1.061 0.098 14.155 1.456z"/>
      <path class="fil1" d="M346.989 299.54l1.172 -2.442 -14.21 -6.47c-0.93,0.124 -1.325,0.953 -1.184,2.485l13.762 6.21 0.46 0.217z"/>
      <path class="fil2" d="M332.279 298.028c-1.094,3.084 -1.951,6.218 -2.57,9.401 1.512,2.211 3.651,3.952 6.416,5.223 4.251,-3.76 7.688,-8.15 10.309,-13.168l-14.155 -1.456z"/>
      <path class="fil3" d="M349.812 288.618c-0.771,-1.888 -2.144,-3.268 -4.119,-4.14l-0.048 -0.013c-0.371,-0.162 -0.734,-0.29 -1.088,-0.385 -3.229,-0.958 -6.764,1.224 -10.606,6.548l14.21 6.47 1.468 -2.97c0.885,-1.756 0.946,-3.593 0.183,-5.51z"/>
     </g>
    </g>
   </g>
  </g>
  <g id="handLeft_FL_FL_FL_FL_FL_FL_FL_FL_FL_FL_FL_FL_FL_FL_FL_FL_FL_FL_FL_FL">
   <g>
    <g>
     <g>
      <g>
       <path class="fil2" d="M343.712 313.731c-0.305,-3.498 -1.057,-6.167 -2.255,-8.006l-9.981 -0.034c-0.824,-0.014 -1.251,0.355 -1.28,1.106l0.002 0.57c-0.348,8.258 1.854,12.403 6.608,12.434 1.681,0.036 3.402,-0.141 5.163,-0.532 1.169,-0.239 1.76,-0.771 1.774,-1.596l0.016 -0.254c-0.008,-1.003 -0.023,-1.973 -0.048,-2.911l-0.013 0.048 0.014 -0.825 0 0zm-12.308 -4.488c0.045,-0.298 0.499,-0.574 1.36,-0.826 0.83,-0.261 1.843,-0.438 3.041,-0.531 1.222,-0.052 2.232,-0.023 3.031,0.087 0.854,0.16 1.263,0.373 1.226,0.639 -0.013,0.307 -0.434,0.591 -1.263,0.852 -0.838,0.294 -1.872,0.483 -3.103,0.567 -1.198,0.093 -2.208,0.064 -3.03,-0.087 -0.855,-0.16 -1.275,-0.394 -1.262,-0.701z"/>
      </g>
      <g>
       <path class="fil4" d="M332.764 308.417c-0.861,0.252 -1.315,0.528 -1.36,0.826 -0.013,0.307 0.407,0.541 1.262,0.701 0.822,0.151 1.832,0.18 3.03,0.087 1.231,-0.084 2.265,-0.273 3.103,-0.567 0.829,-0.261 1.25,-0.545 1.263,-0.852 0.037,-0.266 -0.372,-0.479 -1.226,-0.639 -0.799,-0.11 -1.809,-0.139 -3.031,-0.087 -1.198,0.093 -2.212,0.27 -3.041,0.531l0 0zm10.947 6.091c2.747,-2.267 1.996,-5.194 -2.254,-8.783 1.198,1.839 1.95,4.508 2.255,8.006l-0.014 0.825 0.013 -0.048z"/>
      </g>
     </g>
    </g>
   </g>
  </g>
  <g id="armLeft_FL_FL_FL_FL_FL_FL_FL_FL_FL_FL_FL_FL_FL_FL_FL_FL_FL_FL_FL_FL_FL">
   <g>
    <g>
     <g>
      <path class="fil0" d="M427.438 298.483c0.035,-0.053 0.067,-0.107 0.095,-0.161l-13.764 -6.204c-1.469,1.067 -1.984,2.673 -1.548,4.817l1.061 0.097 14.156 1.451z"/>
      <path class="fil1" d="M427.992 298.538l1.172 -2.442 -14.213 -6.464c-0.93,0.124 -1.324,0.953 -1.182,2.486l13.764 6.204 0.459 0.216z"/>
      <path class="fil2" d="M413.282 297.032c-1.093,3.085 -1.949,6.219 -2.567,9.402 1.514,2.211 3.653,3.951 6.419,5.22 4.25,-3.762 7.684,-8.152 10.304,-13.171l-14.156 -1.451z"/>
      <path class="fil3" d="M430.811 287.615c-0.772,-1.888 -2.145,-3.267 -4.12,-4.138l-0.049 -0.013c-0.371,-0.161 -0.733,-0.289 -1.087,-0.384 -3.229,-0.958 -6.764,1.227 -10.604,6.552l14.213 6.464 1.467 -2.971c0.884,-1.756 0.944,-3.593 0.18,-5.51z"/>
     </g>
    </g>
   </g>
  </g>
  <g id="handLeft_FL_FL_FL_FL_FL_FL_FL_FL_FL_FL_FL_FL_FL_FL_FL_FL_FL_FL_FL_FL_FL">
   <g>
    <g>
     <g>
      <g>
       <path class="fil2" d="M426.554 307.245c-2.013,-2.877 -3.998,-4.813 -5.956,-5.806l-8.66 4.96c-0.722,0.401 -0.907,0.933 -0.556,1.598l0.288 0.493c3.826,7.326 7.805,9.814 11.938,7.464 1.474,-0.809 2.876,-1.823 4.206,-3.042 0.892,-0.791 1.138,-1.547 0.738,-2.268l-0.113 -0.229c-0.508,-0.865 -1.007,-1.697 -1.497,-2.497l0.012 0.048 -0.4 -0.721 0 0zm-12.902 2.267c-0.11,-0.281 0.144,-0.747 0.764,-1.396 0.588,-0.641 1.377,-1.3 2.368,-1.98 1.032,-0.656 1.922,-1.136 2.669,-1.44 0.82,-0.288 1.28,-0.308 1.381,-0.059 0.142,0.272 -0.08,0.729 -0.668,1.369 -0.579,0.673 -1.38,1.353 -2.403,2.042 -0.992,0.68 -1.881,1.159 -2.669,1.439 -0.82,0.289 -1.301,0.297 -1.442,0.025z"/>
      </g>
      <g>
       <path class="fil4" d="M414.416 308.116c-0.62,0.649 -0.874,1.115 -0.764,1.396 0.142,0.272 0.622,0.264 1.442,-0.025 0.788,-0.28 1.677,-0.759 2.669,-1.439 1.023,-0.689 1.824,-1.369 2.403,-2.042 0.588,-0.64 0.81,-1.097 0.668,-1.369 -0.101,-0.249 -0.561,-0.229 -1.381,0.059 -0.747,0.304 -1.637,0.784 -2.669,1.44 -0.991,0.68 -1.78,1.34 -2.368,1.98l0 0zm12.526 -0.198c1.245,-3.337 -0.869,-5.496 -6.344,-6.479 1.958,0.994 3.943,2.929 5.956,5.806l0.4 0.721 -0.012 -0.048z"/>
      </g>
     </g>
    </g>
   </g>
  </g>
  <g id="armLeft_FL_FL_FL_FL_FL_FL_FL_FL_FL_FL_FL_FL_FL_FL_FL_FL_FL_FL_FL_FL_FL_FL">
   <g>
    <g>
     <g>
      <path class="fil0" d="M271.532 182.893c-0.038,-0.059 -0.077,-0.116 -0.119,-0.169l-11.82 9.464c0.429,1.889 1.782,3.177 4.059,3.866l0.539 -0.923 7.341 -12.238z"/>
      <path class="fil1" d="M271.817 182.413l-1.896 -2.315 -12.262 9.743c-0.268,0.916 0.377,1.699 1.934,2.347l11.82 -9.464 0.404 -0.311z"/>
      <path class="fil2" d="M264.191 195.131c2.557,2.569 5.26,4.946 8.112,7.13 2.793,-0.264 5.389,-1.341 7.786,-3.232 -1.897,-5.806 -4.75,-11.184 -8.557,-16.136l-7.341 12.238z"/>
      <path class="fil3" d="M262.324 174.28c-2.167,-0.252 -4.089,0.306 -5.767,1.674l-0.033 0.038c-0.313,0.258 -0.589,0.525 -0.83,0.802 -2.286,2.473 -1.631,6.822 1.965,13.047l12.262 -9.743 -2.288 -2.854c-1.346,-1.702 -3.116,-2.69 -5.309,-2.964z"/>
     </g>
    </g>
   </g>
  </g>
  <g id="handLeft_FL_FL_FL_FL_FL_FL_FL_FL_FL_FL_FL_FL_FL_FL_FL_FL_FL_FL_FL_FL_FL_FL">
   <g>
    <g>
     <g>
      <g>
       <path class="fil2" d="M283.498 190.632c-3.458,-0.611 -6.23,-0.576 -8.317,0.105l-2.617 9.632c-0.226,0.793 0.019,1.301 0.738,1.523l0.551 0.145c7.886,2.475 12.459,1.42 13.72,-3.164 0.47,-1.614 0.744,-3.323 0.823,-5.125 0.071,-1.19 -0.289,-1.899 -1.082,-2.126l-0.242 -0.081c-0.971,-0.253 -1.912,-0.489 -2.825,-0.708l0.044 0.025 -0.793 -0.226 0 0zm-7.521 10.726c-0.276,-0.121 -0.425,-0.63 -0.446,-1.527 -0.037,-0.869 0.054,-1.894 0.274,-3.075 0.266,-1.194 0.555,-2.162 0.869,-2.905 0.375,-0.784 0.687,-1.124 0.935,-1.019 0.293,0.092 0.458,0.572 0.496,1.441 0.066,0.885 -0.019,1.933 -0.256,3.143 -0.22,1.181 -0.51,2.15 -0.869,2.904 -0.375,0.784 -0.71,1.13 -1.003,1.038z"/>
      </g>
      <g>
       <path class="fil4" d="M275.531 199.831c0.021,0.897 0.17,1.406 0.446,1.527 0.293,0.092 0.628,-0.254 1.003,-1.038 0.359,-0.754 0.649,-1.723 0.869,-2.904 0.237,-1.21 0.322,-2.258 0.256,-3.143 -0.038,-0.869 -0.203,-1.349 -0.496,-1.441 -0.248,-0.105 -0.56,0.235 -0.935,1.019 -0.314,0.743 -0.603,1.711 -0.869,2.905 -0.22,1.181 -0.312,2.206 -0.274,3.075l0 0zm8.716 -8.998c-1.478,-3.239 -4.5,-3.271 -9.066,-0.096 2.087,-0.681 4.859,-0.716 8.317,-0.105l0.793 0.226 -0.044 -0.025z"/>
      </g>
     </g>
    </g>
   </g>
  </g>
  <g id="armLeft_FL_FL_FL_FL_FL_FL_FL_FL_FL_FL_FL_FL_FL_FL_FL_FL_FL_FL_FL_FL_FL_FL_FL">
   <g>
    <g>
     <g>
      <path class="fil0" d="M412.412 49.275c0.01,0.089 0.023,0.175 0.038,0.259l14.014 -4.298c0.346,-2.396 -0.349,-4.617 -2.085,-6.663l-0.827 0.759 -11.14 9.943z"/>
      <path class="fil1" d="M411.976 49.667l0.78 3.694 14.508 -4.372c0.586,-0.9 0.319,-2.151 -0.8,-3.753l-14.014 4.298 -0.474 0.133z"/>
      <path class="fil2" d="M423.552 39.332c-1.262,-4.351 -2.728,-8.562 -4.396,-12.635 -2.556,-1.24 -5.249,-1.441 -8.08,-0.603 -0.558,7.689 -0.113,15.416 1.336,23.181l11.14 -9.943z"/>
      <path class="fil3" d="M417.201 64.211c1.807,1.485 3.71,1.909 5.709,1.27l0.043 -0.025c0.374,-0.122 0.72,-0.275 1.037,-0.458 2.957,-1.567 4.048,-6.903 3.274,-16.009l-14.508 4.372 0.916 4.529c0.531,2.69 1.707,4.797 3.529,6.321z"/>
     </g>
    </g>
   </g>
  </g>
  <g id="handLeft_FL_FL_FL_FL_FL_FL_FL_FL_FL_FL_FL_FL_FL_FL_FL_FL_FL_FL_FL_FL_FL_FL_FL">
   <g>
    <g>
     <g>
      <g>
       <path class="fil2" d="M424.262 24.119c-0.305,3.498 -1.057,6.166 -2.255,8.006l-9.981 0.034c-0.824,0.014 -1.251,-0.355 -1.28,-1.106l0.003 -0.57c-0.349,-8.258 1.853,-12.402 6.607,-12.433 1.681,-0.037 3.402,0.14 5.163,0.531 1.169,0.239 1.76,0.771 1.773,1.596l0.017 0.254c-0.007,1.003 -0.023,1.973 -0.048,2.911l-0.013 -0.048 0.014 0.825 0 0zm-12.308 4.488c0.046,0.298 0.499,0.573 1.36,0.826 0.829,0.261 1.843,0.438 3.041,0.531 1.222,0.052 2.232,0.023 3.031,-0.088 0.854,-0.159 1.263,-0.372 1.226,-0.639 -0.013,-0.307 -0.434,-0.591 -1.263,-0.852 -0.838,-0.293 -1.872,-0.481 -3.102,-0.566 -1.199,-0.093 -2.209,-0.064 -3.031,0.087 -0.854,0.16 -1.275,0.394 -1.262,0.701z"/>
      </g>
      <g>
       <path class="fil4" d="M413.314 29.433c-0.861,-0.253 -1.314,-0.528 -1.36,-0.826 -0.013,-0.307 0.408,-0.541 1.262,-0.701 0.822,-0.151 1.832,-0.18 3.031,-0.087 1.23,0.085 2.264,0.273 3.102,0.566 0.829,0.261 1.25,0.545 1.263,0.852 0.037,0.266 -0.372,0.48 -1.226,0.639 -0.799,0.111 -1.809,0.14 -3.031,0.088 -1.198,-0.093 -2.212,-0.27 -3.041,-0.531l0 0zm10.947 -6.091c2.747,2.267 1.995,5.194 -2.254,8.783 1.198,-1.84 1.95,-4.508 2.255,-8.006l-0.014 -0.825 0.013 0.048z"/>
      </g>
     </g>
    </g>
   </g>
  </g>
 </g>
</svg>
