<?xml version="1.0" encoding="UTF-8"?>
<!DOCTYPE svg PUBLIC "-//W3C//DTD SVG 1.1//EN" "http://www.w3.org/Graphics/SVG/1.1/DTD/svg11.dtd">
<!-- Creator: CorelDRAW 2018 (64-Bit) -->
<svg xmlns="http://www.w3.org/2000/svg" xml:space="preserve" width="720px" height="330px" version="1.1" style="shape-rendering:geometricPrecision; text-rendering:geometricPrecision; image-rendering:optimizeQuality; fill-rule:evenodd; clip-rule:evenodd"
viewBox="0 0 720 330"
 xmlns:xlink="http://www.w3.org/1999/xlink">
 <defs>
  <style type="text/css">
   <![CDATA[
    .fil1 {fill:#25A85C}
    .fil2 {fill:#2ECC71}
    .fil3 {fill:#E7CBA0}
    .fil0 {fill:#FFE0B1}
   ]]>
  </style>
 </defs>
 <g id="Слой_x0020_1">
  <metadata id="CorelCorpID_0Corel-Layer"/>
  <g id="armRight">
   <g>
    <g>
     <g>
      <path class="fil0" d="M499.421 44.917c-2.407,0.688 -4.722,2.052 -6.943,4.095 0.959,4.896 2.794,9.255 5.505,13.077l9.953 -9.239c-2.477,-3.082 -5.316,-5.726 -8.515,-7.933z"/>
      <path class="fil1" d="M497.609 62.427l1.35 1.76 11.388 -10.574c0.324,-0.853 -0.125,-1.44 -1.35,-1.761l-1.061 0.998 -9.953 9.239 -0.374 0.338z"/>
      <path class="fil2" d="M509.723 65.768l0.032 -0.039c0.288,-0.264 0.559,-0.536 0.815,-0.814 2.179,-2.574 2.105,-6.341 -0.223,-11.302l-11.388 10.574 1.594 2.156c0.952,1.303 2.337,1.908 4.157,1.815 1.781,-0.124 3.452,-0.921 5.013,-2.39z"/>
     </g>
    </g>
   </g>
  </g>
  <g id="handRight">
   <g>
    <g>
     <g>
      <g>
       <path class="fil3" d="M502.962 53.105c1.647,-1.45 3.087,-3.819 4.32,-7.107l0.207 -0.798 0 0.05c2.038,2.92 0.529,5.538 -4.527,7.855l0 0zm-7.337 -6.421c0.832,0.074 1.814,0.317 2.943,0.728 1.162,0.412 2.108,0.871 2.836,1.378 0.729,0.474 1.059,0.861 0.989,1.16 -0.036,0.266 -0.487,0.362 -1.353,0.287 -0.799,-0.108 -1.78,-0.351 -2.943,-0.729 -1.129,-0.411 -2.058,-0.854 -2.787,-1.327 -0.762,-0.475 -1.125,-0.861 -1.089,-1.161 0.07,-0.299 0.538,-0.412 1.404,-0.336z"/>
      </g>
      <g>
       <path class="fil0" d="M507.282 45.998c-1.233,3.288 -2.672,5.657 -4.32,7.107l-9.624 -2.644c-0.798,-0.208 -1.11,-0.677 -0.936,-1.409l0.155 -0.549c1.879,-8.048 5.112,-11.45 9.7,-10.205 1.629,0.416 3.24,1.049 4.831,1.898 1.062,0.544 1.488,1.214 1.281,2.012l-0.053 0.25c-0.276,0.964 -0.551,1.894 -0.827,2.792l0 -0.05 -0.207 0.798 0 0zm-8.714 1.414c-1.129,-0.411 -2.111,-0.654 -2.943,-0.728 -0.866,-0.076 -1.334,0.037 -1.404,0.336 -0.036,0.3 0.327,0.686 1.089,1.161 0.729,0.473 1.658,0.916 2.787,1.327 1.163,0.378 2.144,0.621 2.943,0.729 0.866,0.075 1.317,-0.021 1.353,-0.287 0.07,-0.299 -0.26,-0.686 -0.989,-1.16 -0.728,-0.507 -1.674,-0.966 -2.836,-1.378z"/>
      </g>
     </g>
    </g>
   </g>
  </g>
  <g id="armLeft_FL">
   <g>
    <g id="_1061669392">
     <g>
      <path class="fil0" d="M1.925 312.485c2.062,1.949 4.588,3.206 7.577,3.773 3.166,-5.294 5.359,-11.045 6.581,-17.254l-13.46 -2.465c-0.8,5.315 -1.033,10.631 -0.698,15.946z"/>
      <path class="fil1" d="M16.582 299.104l0.498 -2.968 -15.405 -2.817c-0.864,0.402 -1.03,1.392 -0.498,2.968l1.446 0.252 13.46 2.465 0.499 0.1z"/>
      <path class="fil2" d="M11.447 283.359l-0.05 0c-0.387,-0.074 -0.769,-0.124 -1.147,-0.151 -3.372,-0.059 -6.23,3.311 -8.575,10.111l15.405 2.817 0.648 -3.572c0.399,-2.146 -0.016,-4.142 -1.246,-5.986 -1.23,-1.777 -2.908,-2.85 -5.035,-3.219z"/>
     </g>
    </g>
   </g>
  </g>
  <g id="handLeft_FL">
   <g>
    <g id="_1061657936">
     <g>
      <g>
       <path class="fil3" d="M12.85 307.85c1.633,1.467 3.05,3.85 4.25,7.15l0.2 0.8 0 -0.05c2.066,-2.9 0.583,-5.533 -4.45,-7.9l0 0zm-7.4 6.35c0.833,-0.067 1.816,-0.3 2.95,-0.7 1.166,-0.4 2.116,-0.85 2.85,-1.35 0.733,-0.466 1.066,-0.85 0.999,-1.15 -0.033,-0.267 -0.483,-0.366 -1.349,-0.3 -0.8,0.1 -1.784,0.334 -2.951,0.7 -1.133,0.4 -2.066,0.834 -2.799,1.3 -0.767,0.467 -1.134,0.85 -1.1,1.15 0.066,0.3 0.533,0.417 1.4,0.35z"/>
      </g>
      <g>
       <path class="fil0" d="M17.1 315c-1.2,-3.3 -2.617,-5.683 -4.25,-7.15l-9.65 2.55c-0.8,0.2 -1.117,0.667 -0.95,1.4l0.15 0.55c1.8,8.067 5,11.5 9.6,10.3 1.633,-0.4 3.25,-1.016 4.85,-1.85 1.066,-0.533 1.5,-1.2 1.3,-2l-0.05 -0.25c-0.267,-0.967 -0.534,-1.9 -0.8,-2.8l0 0.05 -0.2 -0.8 0 0zm-8.7 -1.5c-1.134,0.4 -2.117,0.633 -2.95,0.7 -0.867,0.067 -1.334,-0.05 -1.4,-0.35 -0.033,-0.3 0.333,-0.683 1.1,-1.15 0.733,-0.466 1.666,-0.9 2.799,-1.3 1.167,-0.366 2.151,-0.6 2.951,-0.7 0.866,-0.066 1.316,0.033 1.349,0.3 0.067,0.3 -0.266,0.684 -0.999,1.15 -0.734,0.5 -1.684,0.95 -2.85,1.35z"/>
      </g>
     </g>
    </g>
   </g>
  </g>
  <g id="armLeft_FL_FL">
   <g>
    <g>
     <g>
      <path class="fil0" d="M9.688 87.409c1.536,2.232 3.683,3.982 6.438,5.25 4.294,-3.795 7.756,-8.241 10.386,-13.337l-12.426 -5.632c-2.014,4.426 -3.48,8.999 -4.398,13.719z"/>
      <path class="fil1" d="M26.97 79.538l1.175 -2.458 -14.222 -6.442c-0.929,0.127 -1.32,0.946 -1.175,2.458l1.338 0.594 12.426 5.632 0.458 0.216z"/>
      <path class="fil2" d="M25.688 64.484l-0.048 -0.013c-0.357,-0.164 -0.715,-0.306 -1.073,-0.428 -3.243,-0.924 -6.791,1.274 -10.644,6.595l14.222 6.442 1.46 -2.945c0.887,-1.768 0.951,-3.615 0.194,-5.541 -0.772,-1.868 -2.143,-3.238 -4.111,-4.11z"/>
     </g>
    </g>
   </g>
  </g>
  <g id="handLeft_FL_FL">
   <g>
    <g>
     <g>
      <g>
       <path class="fil3" d="M21.257 86.525c1.198,1.839 1.949,4.508 2.254,8.006l-0.013 0.825 0.013 -0.049c2.746,-2.266 1.995,-5.194 -2.254,-8.782l0 0zm-8.792 4.218c0.823,0.151 1.833,0.181 3.031,0.087 1.231,-0.084 2.265,-0.273 3.102,-0.566 0.83,-0.261 1.251,-0.545 1.264,-0.852 0.037,-0.266 -0.372,-0.479 -1.226,-0.639 -0.799,-0.11 -1.809,-0.14 -3.031,-0.087 -1.198,0.093 -2.212,0.27 -3.041,0.531 -0.861,0.252 -1.315,0.528 -1.36,0.826 -0.014,0.307 0.407,0.54 1.261,0.7z"/>
      </g>
      <g>
       <path class="fil0" d="M23.511 94.531c-0.305,-3.498 -1.056,-6.167 -2.254,-8.006l-9.982 -0.035c-0.824,-0.014 -1.251,0.355 -1.279,1.107l0.002 0.57c-0.349,8.258 1.853,12.402 6.607,12.434 1.682,0.036 3.403,-0.141 5.164,-0.532 1.168,-0.239 1.759,-0.771 1.773,-1.596l0.017 -0.254c-0.008,-1.003 -0.024,-1.973 -0.048,-2.912l-0.013 0.049 0.013 -0.825 0 0zm-8.015 -3.701c-1.198,0.093 -2.208,0.065 -3.031,-0.087 -0.854,-0.16 -1.275,-0.393 -1.261,-0.7 0.045,-0.298 0.499,-0.574 1.36,-0.826 0.829,-0.261 1.843,-0.438 3.041,-0.531 1.222,-0.053 2.232,-0.023 3.031,0.087 0.854,0.16 1.263,0.373 1.226,0.639 -0.013,0.307 -0.434,0.591 -1.264,0.852 -0.837,0.294 -1.871,0.482 -3.102,0.566z"/>
      </g>
     </g>
    </g>
   </g>
  </g>
  <g id="armLeft_FL_FL_FL">
   <g>
    <g>
     <g>
      <path class="fil0" d="M85.016 82.024c1.084,2.618 2.866,4.793 5.347,6.525 4.999,-3.552 9.302,-7.917 12.909,-13.095l-11.203 -7.719c-2.865,4.533 -5.216,9.296 -7.053,14.289z"/>
      <path class="fil1" d="M103.683 75.748l1.646 -2.509 -12.822 -8.83c-0.945,0.016 -1.494,0.853 -1.646,2.509l1.208 0.817 11.203 7.719 0.411 0.294z"/>
      <path class="fil2" d="M105.37 59.274l-0.045 -0.02c-0.321,-0.224 -0.647,-0.425 -0.978,-0.603 -3.032,-1.423 -6.978,0.496 -11.84,5.758l12.822 8.83 2.026 -3.001c1.225,-1.799 1.652,-3.792 1.281,-5.977 -0.399,-2.123 -1.487,-3.785 -3.266,-4.987z"/>
     </g>
    </g>
   </g>
  </g>
  <g id="handLeft_FL_FL_FL">
   <g>
    <g>
     <g>
      <g>
       <path class="fil3" d="M96.368 83.722c0.784,2.047 0.966,4.814 0.543,8.299l-0.182 0.804 0.022 -0.044c3.13,-1.649 3.002,-4.669 -0.383,-9.059l0 0zm-9.393 2.307c0.766,0.318 1.74,0.556 2.922,0.713 1.21,0.172 2.252,0.201 3.125,0.088 0.857,-0.084 1.324,-0.275 1.4,-0.572 0.09,-0.253 -0.262,-0.546 -1.058,-0.88 -0.752,-0.273 -1.726,-0.511 -2.922,-0.712 -1.181,-0.157 -2.201,-0.194 -3.058,-0.11 -0.888,0.068 -1.384,0.244 -1.489,0.526 -0.076,0.298 0.284,0.614 1.08,0.947z"/>
      </g>
      <g>
       <path class="fil0" d="M96.911 92.021c0.423,-3.485 0.241,-6.252 -0.543,-8.299l-9.675 -2.1c-0.796,-0.184 -1.286,0.088 -1.468,0.817l-0.114 0.558c-2.034,8.007 -0.748,12.518 3.856,13.533 1.623,0.383 3.329,0.566 5.118,0.548 1.182,0.008 1.864,-0.39 2.047,-1.194l0.068 -0.245c0.199,-0.983 0.383,-1.935 0.551,-2.858l-0.022 0.044 0.182 -0.804 0 0zm-7.014 -5.279c-1.182,-0.157 -2.156,-0.395 -2.922,-0.713 -0.796,-0.334 -1.156,-0.649 -1.08,-0.947 0.105,-0.282 0.601,-0.458 1.489,-0.526 0.857,-0.084 1.877,-0.047 3.058,0.11 1.196,0.201 2.17,0.439 2.922,0.712 0.796,0.334 1.148,0.627 1.058,0.88 -0.076,0.297 -0.543,0.488 -1.4,0.572 -0.873,0.113 -1.915,0.084 -3.125,-0.088z"/>
      </g>
     </g>
    </g>
   </g>
  </g>
  <g id="armLeft_FL_FL_FL_FL">
   <g>
    <g>
     <g>
      <path class="fil0" d="M163.481 73.927c0.081,2.835 0.978,5.511 2.691,8.026 5.981,-1.506 11.599,-4.022 16.854,-7.548l-7.775 -11.261c-4.324,3.193 -8.247,6.787 -11.77,10.783z"/>
      <path class="fil1" d="M183.307 74.828l2.451 -1.746 -8.9 -12.884c-0.896,-0.327 -1.713,0.255 -2.452,1.746l0.845 1.2 7.775 11.261 0.281 0.423z"/>
      <path class="fil2" d="M190.81 60.064l-0.036 -0.036c-0.221,-0.325 -0.456,-0.631 -0.704,-0.917 -2.343,-2.426 -6.747,-2.064 -13.212,1.087l8.9 12.884 2.984 -2.067c1.8,-1.236 2.917,-2.94 3.352,-5.114 0.387,-2.127 -0.041,-4.072 -1.284,-5.837z"/>
     </g>
    </g>
   </g>
  </g>
  <g id="handLeft_FL_FL_FL_FL">
   <g>
    <g>
     <g>
      <g>
       <path class="fil3" d="M174.962 76.08c0.682,2.088 0.717,4.86 0.106,8.318l-0.226 0.793 0.024 -0.044c3.24,-1.478 3.272,-4.5 0.096,-9.067l0 0zm-9.583 1.8c0.755,0.359 1.723,0.648 2.905,0.869 1.21,0.237 2.258,0.322 3.143,0.256 0.869,-0.038 1.349,-0.203 1.441,-0.496 0.105,-0.248 -0.235,-0.56 -1.019,-0.935 -0.743,-0.314 -1.711,-0.603 -2.905,-0.869 -1.182,-0.22 -2.206,-0.312 -3.075,-0.274 -0.897,0.021 -1.406,0.17 -1.527,0.446 -0.093,0.293 0.253,0.628 1.037,1.003z"/>
      </g>
      <g>
       <path class="fil0" d="M175.068 84.398c0.611,-3.458 0.576,-6.23 -0.106,-8.318l-9.632 -2.616c-0.792,-0.227 -1.3,0.019 -1.522,0.738l-0.145 0.551c-2.475,7.886 -1.42,12.459 3.164,13.72 1.614,0.47 3.323,0.744 5.125,0.823 1.19,0.071 1.899,-0.29 2.126,-1.082l0.081 -0.242c0.253,-0.971 0.489,-1.912 0.707,-2.825l-0.024 0.044 0.226 -0.793 0 0zm-6.784 -5.649c-1.181,-0.221 -2.15,-0.51 -2.905,-0.869 -0.784,-0.376 -1.13,-0.71 -1.037,-1.003 0.121,-0.276 0.63,-0.425 1.527,-0.446 0.869,-0.038 1.893,0.054 3.075,0.274 1.194,0.266 2.162,0.555 2.905,0.869 0.784,0.375 1.124,0.687 1.019,0.935 -0.092,0.293 -0.573,0.458 -1.441,0.496 -0.885,0.066 -1.933,-0.019 -3.143,-0.256z"/>
      </g>
     </g>
    </g>
   </g>
  </g>
  <g id="armLeft_FL_FL_FL_FL_FL">
   <g>
    <g>
     <g>
      <path class="fil0" d="M248.333 94.616c1.238,2.552 3.155,4.623 5.75,6.212 4.835,-3.83 8.923,-8.432 12.265,-13.806l-11.716 -7.072c-2.63,4.688 -4.73,9.577 -6.299,14.666z"/>
      <path class="fil1" d="M266.778 87.292l1.518 -2.599 -13.409 -8.089c-0.951,0.07 -1.457,0.936 -1.517,2.599l1.262 0.747 11.716 7.072 0.43 0.27z"/>
      <path class="fil2" d="M267.552 70.749l-0.047 -0.018c-0.336,-0.205 -0.675,-0.388 -1.019,-0.547 -3.132,-1.249 -6.999,0.891 -11.599,6.42l13.409 8.089 1.871 -3.111c1.133,-1.866 1.451,-3.879 0.954,-6.039 -0.521,-2.098 -1.71,-3.696 -3.569,-4.794z"/>
     </g>
    </g>
   </g>
  </g>
  <g id="handLeft_FL_FL_FL_FL_FL">
   <g>
    <g>
     <g>
      <g>
       <path class="fil3" d="M260.145 94.413c1.008,1.95 1.489,4.681 1.442,8.192l-0.096 0.819 0.018 -0.047c2.96,-1.98 2.505,-4.968 -1.364,-8.964l0 0zm-9.169 3.318c0.803,0.233 1.805,0.363 3.007,0.39 1.232,0.039 2.28,-0.045 3.143,-0.253 0.851,-0.177 1.298,-0.417 1.342,-0.721 0.064,-0.261 -0.322,-0.514 -1.156,-0.759 -0.783,-0.189 -1.786,-0.32 -3.007,-0.39 -1.201,-0.027 -2.228,0.047 -3.079,0.224 -0.882,0.165 -1.36,0.394 -1.436,0.686 -0.043,0.305 0.351,0.579 1.186,0.823z"/>
      </g>
      <g>
       <path class="fil0" d="M261.587 102.605c0.047,-3.511 -0.434,-6.242 -1.442,-8.192l-9.928 -1.032c-0.819,-0.096 -1.28,0.228 -1.384,0.973l-0.054 0.567c-1.174,8.182 0.603,12.525 5.33,13.032 1.669,0.205 3.399,0.2 5.191,-0.012 1.186,-0.121 1.827,-0.591 1.924,-1.41l0.041 -0.252c0.093,-0.998 0.175,-1.966 0.244,-2.902l-0.018 0.047 0.096 -0.819 0 0zm-7.604 -4.484c-1.202,-0.027 -2.204,-0.157 -3.007,-0.39 -0.835,-0.244 -1.229,-0.519 -1.186,-0.823 0.076,-0.292 0.554,-0.521 1.436,-0.686 0.851,-0.177 1.878,-0.251 3.079,-0.224 1.221,0.071 2.224,0.2 3.007,0.39 0.834,0.245 1.22,0.498 1.156,0.759 -0.044,0.304 -0.491,0.544 -1.342,0.721 -0.863,0.208 -1.911,0.292 -3.143,0.253z"/>
      </g>
     </g>
    </g>
   </g>
  </g>
  <g id="armLeft_FL_FL_FL_FL_FL_FL">
   <g>
    <g>
     <g>
      <path class="fil0" d="M325.181 72.077c0.081,2.836 0.978,5.511 2.691,8.026 5.982,-1.505 11.599,-4.021 16.854,-7.548l-7.775 -11.261c-4.325,3.193 -8.248,6.787 -11.77,10.783z"/>
      <path class="fil1" d="M345.007 72.979l2.451 -1.747 -8.9 -12.884c-0.896,-0.327 -1.713,0.256 -2.452,1.746l0.845 1.2 7.775 11.261 0.281 0.424z"/>
      <path class="fil2" d="M352.51 58.213l-0.035 -0.035c-0.222,-0.325 -0.457,-0.631 -0.705,-0.917 -2.342,-2.426 -6.747,-2.064 -13.212,1.087l8.9 12.884 2.984 -2.067c1.8,-1.236 2.917,-2.94 3.352,-5.114 0.387,-2.127 -0.041,-4.072 -1.284,-5.838z"/>
     </g>
    </g>
   </g>
  </g>
  <g id="handLeft_FL_FL_FL_FL_FL_FL">
   <g>
    <g>
     <g>
      <g>
       <path class="fil3" d="M335.473 77.395c0.118,2.192 -0.565,4.879 -2.05,8.061l-0.424 0.707 0.035 -0.035c3.512,-0.589 4.325,-3.5 2.439,-8.733l0 0zm-9.722 -0.742c0.636,0.542 1.496,1.073 2.581,1.591 1.107,0.542 2.097,0.896 2.97,1.061 0.848,0.188 1.355,0.153 1.52,-0.106 0.165,-0.212 -0.083,-0.601 -0.743,-1.167 -0.636,-0.495 -1.496,-1.026 -2.581,-1.591 -1.084,-0.519 -2.05,-0.872 -2.899,-1.061 -0.872,-0.212 -1.402,-0.2 -1.591,0.036 -0.165,0.259 0.083,0.672 0.743,1.237z"/>
      </g>
      <g>
       <path class="fil0" d="M333.423 85.456c1.485,-3.182 2.168,-5.869 2.05,-8.061l-8.626 -5.02c-0.707,-0.424 -1.262,-0.318 -1.662,0.318l-0.283 0.495c-4.431,6.977 -4.596,11.668 -0.495,14.072 1.438,0.872 3.018,1.579 4.738,2.121 1.132,0.377 1.909,0.212 2.334,-0.495l0.141 -0.212c0.495,-0.872 0.966,-1.721 1.414,-2.546l-0.035 0.035 0.424 -0.707 0 0zm-5.091 -7.212c-1.085,-0.518 -1.945,-1.049 -2.581,-1.591 -0.66,-0.566 -0.908,-0.978 -0.743,-1.237 0.189,-0.236 0.719,-0.248 1.591,-0.036 0.849,0.189 1.815,0.542 2.899,1.061 1.085,0.565 1.945,1.096 2.581,1.591 0.66,0.566 0.908,0.955 0.743,1.167 -0.165,0.259 -0.672,0.294 -1.52,0.106 -0.873,-0.165 -1.863,-0.519 -2.97,-1.061z"/>
      </g>
     </g>
    </g>
   </g>
  </g>
  <g id="armLeft_FL_FL_FL_FL_FL_FL_FL">
   <g>
    <g>
     <g>
      <path class="fil0" d="M4.01 194.519c0.812,2.718 2.371,5.071 4.676,7.056 5.388,-3.002 10.164,-6.886 14.326,-11.652l-10.425 -8.865c-3.35,4.203 -6.209,8.69 -8.577,13.461z"/>
      <path class="fil1" d="M23.394 190.259l1.915 -2.321 -11.932 -10.142c-0.95,-0.084 -1.588,0.69 -1.916,2.321l1.126 0.941 10.425 8.865 0.382 0.336z"/>
      <path class="fil2" d="M26.819 174.055l-0.043 -0.025c-0.298,-0.257 -0.604,-0.491 -0.918,-0.704 -2.891,-1.736 -7.051,-0.247 -12.481,4.47l11.932 10.142 2.347 -2.769c1.419,-1.66 2.057,-3.596 1.914,-5.808 -0.176,-2.154 -1.093,-3.923 -2.751,-5.306z"/>
     </g>
    </g>
   </g>
  </g>
  <g id="handLeft_FL_FL_FL_FL_FL_FL_FL">
   <g>
    <g>
     <g>
      <g>
       <path class="fil3" d="M17.023 194.995c0.118,2.193 -0.565,4.879 -2.05,8.061l-0.424 0.708 0.035 -0.036c3.512,-0.589 4.325,-3.5 2.439,-8.733l0 0zm-9.723 -0.741c0.637,0.542 1.497,1.072 2.581,1.59 1.108,0.542 2.098,0.896 2.97,1.061 0.849,0.188 1.356,0.153 1.52,-0.106 0.165,-0.212 -0.082,-0.601 -0.742,-1.167 -0.636,-0.495 -1.497,-1.025 -2.581,-1.591 -1.084,-0.518 -2.051,-0.872 -2.899,-1.06 -0.872,-0.212 -1.403,-0.201 -1.591,0.035 -0.165,0.259 0.082,0.672 0.742,1.238z"/>
      </g>
      <g>
       <path class="fil0" d="M14.973 203.056c1.485,-3.182 2.168,-5.868 2.05,-8.061l-8.627 -5.019c-0.707,-0.425 -1.261,-0.319 -1.662,0.318l-0.282 0.494c-4.431,6.977 -4.596,11.668 -0.495,14.072 1.438,0.872 3.017,1.579 4.738,2.121 1.131,0.377 1.909,0.212 2.333,-0.495l0.142 -0.212c0.495,-0.872 0.966,-1.721 1.414,-2.546l-0.035 0.036 0.424 -0.708 0 0zm-5.092 -7.212c-1.084,-0.518 -1.944,-1.048 -2.581,-1.59 -0.66,-0.566 -0.907,-0.979 -0.742,-1.238 0.188,-0.236 0.719,-0.247 1.591,-0.035 0.848,0.188 1.815,0.542 2.899,1.06 1.084,0.566 1.945,1.096 2.581,1.591 0.66,0.566 0.907,0.955 0.742,1.167 -0.164,0.259 -0.671,0.294 -1.52,0.106 -0.872,-0.165 -1.862,-0.519 -2.97,-1.061z"/>
      </g>
     </g>
    </g>
   </g>
  </g>
  <g id="armLeft_FL_FL_FL_FL_FL_FL_FL_FL">
   <g>
    <g>
     <g>
      <path class="fil0" d="M93.559 197.137c1.711,2.264 3.993,3.923 6.847,4.978 4,-4.695 7.118,-10.003 9.353,-15.923l-12.865 -4.665c-1.671,5.11 -2.783,10.313 -3.335,15.61z"/>
      <path class="fil1" d="M110.234 186.374l0.984 -2.844 -14.724 -5.335c-0.919,0.254 -1.247,1.202 -0.984,2.845l1.384 0.487 12.865 4.665 0.475 0.182z"/>
      <path class="fil2" d="M107.783 169.995l-0.049 -0.008c-0.37,-0.137 -0.738,-0.25 -1.106,-0.339 -3.316,-0.618 -6.693,2.231 -10.134,8.547l14.724 5.335 1.232 -3.415c0.749,-2.05 0.671,-4.087 -0.236,-6.11 -0.917,-1.957 -2.394,-3.293 -4.431,-4.01z"/>
     </g>
    </g>
   </g>
  </g>
  <g id="handLeft_FL_FL_FL_FL_FL_FL_FL_FL">
   <g>
    <g>
     <g>
      <g>
       <path class="fil3" d="M105.165 193.479c1.26,1.798 2.102,4.44 2.526,7.925l0.014 0.825 0.011 -0.049c2.668,-2.358 1.818,-5.259 -2.551,-8.701l0 0zm-8.643 4.516c0.827,0.123 1.838,0.117 3.032,-0.016 1.227,-0.127 2.254,-0.351 3.081,-0.672 0.82,-0.289 1.231,-0.587 1.234,-0.895 0.028,-0.267 -0.388,-0.466 -1.247,-0.597 -0.802,-0.083 -1.813,-0.078 -3.032,0.016 -1.194,0.134 -2.201,0.346 -3.021,0.635 -0.852,0.281 -1.296,0.572 -1.332,0.872 -0.002,0.307 0.426,0.526 1.285,0.657z"/>
      </g>
      <g>
       <path class="fil0" d="M107.691 201.404c-0.424,-3.485 -1.266,-6.127 -2.526,-7.925l-9.977 0.306c-0.824,0.014 -1.238,0.397 -1.241,1.149l0.022 0.57c-0.068,8.265 2.275,12.332 7.027,12.201 1.681,-0.021 3.395,-0.257 5.142,-0.707 1.159,-0.279 1.732,-0.831 1.718,-1.655l0.008 -0.255c-0.042,-1.002 -0.091,-1.971 -0.148,-2.908l-0.011 0.049 -0.014 -0.825 0 0zm-8.137 -3.425c-1.194,0.133 -2.205,0.139 -3.032,0.016 -0.859,-0.131 -1.287,-0.35 -1.285,-0.657 0.036,-0.3 0.48,-0.591 1.332,-0.872 0.82,-0.289 1.827,-0.501 3.021,-0.635 1.219,-0.094 2.23,-0.099 3.032,-0.016 0.859,0.131 1.275,0.33 1.247,0.597 -0.003,0.308 -0.414,0.606 -1.234,0.895 -0.827,0.322 -1.854,0.545 -3.081,0.672z"/>
      </g>
     </g>
    </g>
   </g>
  </g>
  <g id="armLeft_FL_FL_FL_FL_FL_FL_FL_FL_FL">
   <g>
    <g>
     <g>
      <path class="fil0" d="M161.925 202.485c2.062,1.949 4.588,3.206 7.578,3.773 3.165,-5.294 5.359,-11.046 6.58,-17.255l-13.46 -2.465c-0.8,5.316 -1.033,10.631 -0.698,15.947z"/>
      <path class="fil1" d="M176.582 189.104l0.499 -2.968 -15.405 -2.817c-0.864,0.403 -1.03,1.392 -0.499,2.968l1.446 0.251 13.46 2.465 0.499 0.101z"/>
      <path class="fil2" d="M171.447 173.358l-0.05 0c-0.387,-0.073 -0.769,-0.123 -1.146,-0.15 -3.373,-0.059 -6.231,3.312 -8.575,10.111l15.405 2.817 0.648 -3.572c0.398,-2.146 -0.017,-4.141 -1.247,-5.986 -1.23,-1.777 -2.908,-2.851 -5.035,-3.22z"/>
     </g>
    </g>
   </g>
  </g>
  <g id="handLeft_FL_FL_FL_FL_FL_FL_FL_FL_FL">
   <g>
    <g>
     <g>
      <g>
       <path class="fil3" d="M172.75 197.6c1.633,1.467 3.05,3.85 4.25,7.15l0.2 0.8 0 -0.05c2.067,-2.9 0.583,-5.533 -4.45,-7.9l0 0zm-7.4 6.35c0.833,-0.067 1.816,-0.3 2.95,-0.7 1.167,-0.4 2.116,-0.85 2.85,-1.35 0.733,-0.467 1.067,-0.85 1,-1.15 -0.034,-0.267 -0.484,-0.367 -1.35,-0.3 -0.8,0.1 -1.784,0.333 -2.95,0.7 -1.134,0.4 -2.067,0.833 -2.8,1.3 -0.767,0.467 -1.134,0.85 -1.1,1.15 0.067,0.3 0.533,0.417 1.4,0.35z"/>
      </g>
      <g>
       <path class="fil0" d="M177 204.75c-1.2,-3.3 -2.617,-5.683 -4.25,-7.15l-9.65 2.55c-0.8,0.2 -1.117,0.667 -0.95,1.4l0.15 0.55c1.8,8.067 5,11.5 9.6,10.3 1.633,-0.4 3.25,-1.016 4.85,-1.85 1.066,-0.533 1.5,-1.2 1.3,-2l-0.05 -0.25c-0.267,-0.967 -0.534,-1.9 -0.8,-2.8l0 0.05 -0.2 -0.8 0 0zm-8.7 -1.5c-1.134,0.4 -2.117,0.633 -2.95,0.7 -0.867,0.067 -1.333,-0.05 -1.4,-0.35 -0.034,-0.3 0.333,-0.683 1.1,-1.15 0.733,-0.467 1.667,-0.9 2.8,-1.3 1.166,-0.367 2.15,-0.6 2.95,-0.7 0.866,-0.067 1.316,0.033 1.35,0.3 0.067,0.3 -0.267,0.684 -1,1.15 -0.734,0.5 -1.683,0.95 -2.85,1.35z"/>
      </g>
     </g>
    </g>
   </g>
  </g>
  <g id="armLeft_FL_FL_FL_FL_FL_FL_FL_FL_FL_FL">
   <g>
    <g>
     <g>
      <path class="fil0" d="M322.792 203.35c2.217,1.771 4.838,2.816 7.864,3.134 2.717,-5.537 4.428,-11.45 5.133,-17.739l-13.618 -1.344c-0.358,5.363 -0.151,10.679 0.621,15.949z"/>
      <path class="fil1" d="M336.294 188.804l0.252 -2.999 -15.585 -1.535c-0.828,0.473 -0.912,1.472 -0.251,2.999l1.461 0.132 13.618 1.344 0.505 0.059z"/>
      <path class="fil2" d="M329.876 173.537l-0.05 0.004c-0.391,-0.041 -0.776,-0.059 -1.155,-0.056 -3.365,0.22 -5.935,3.815 -7.71,10.785l15.585 1.535 0.35 -3.613c0.22,-2.171 -0.358,-4.126 -1.736,-5.862 -1.373,-1.67 -3.134,-2.601 -5.284,-2.793z"/>
     </g>
    </g>
   </g>
  </g>
  <g id="handLeft_FL_FL_FL_FL_FL_FL_FL_FL_FL_FL">
   <g>
    <g>
     <g>
      <g>
       <path class="fil3" d="M333.004 197.027c1.749,1.327 3.358,3.585 4.826,6.775l0.266 0.78 -0.004 -0.049c1.82,-3.061 0.124,-5.563 -5.088,-7.506l0 0zm-6.85 6.94c0.825,-0.136 1.786,-0.449 2.882,-0.942 1.13,-0.495 2.04,-1.022 2.729,-1.581 0.692,-0.525 0.993,-0.935 0.901,-1.228 -0.055,-0.263 -0.511,-0.326 -1.37,-0.187 -0.788,0.165 -1.749,0.479 -2.882,0.941 -1.096,0.492 -1.99,1.001 -2.683,1.527 -0.725,0.528 -1.059,0.94 -1.001,1.236 0.091,0.294 0.566,0.372 1.424,0.234z"/>
      </g>
      <g>
       <path class="fil0" d="M337.83 203.802c-1.468,-3.19 -3.077,-5.448 -4.826,-6.775l-9.406 3.338c-0.781,0.266 -1.058,0.757 -0.831,1.474l0.195 0.536c2.46,7.89 5.932,11.048 10.418,9.472 1.594,-0.534 3.154,-1.282 4.68,-2.245 1.019,-0.619 1.396,-1.319 1.131,-2.1l-0.071 -0.245c-0.345,-0.941 -0.688,-1.85 -1.028,-2.724l0.004 0.049 -0.266 -0.78 0 0zm-8.794 -0.777c-1.096,0.493 -2.057,0.806 -2.882,0.942 -0.858,0.138 -1.333,0.06 -1.424,-0.234 -0.058,-0.296 0.276,-0.708 1.001,-1.236 0.693,-0.526 1.587,-1.035 2.683,-1.527 1.133,-0.462 2.094,-0.776 2.882,-0.941 0.859,-0.138 1.315,-0.076 1.37,0.187 0.092,0.293 -0.209,0.703 -0.901,1.228 -0.689,0.559 -1.599,1.086 -2.729,1.581z"/>
      </g>
     </g>
    </g>
   </g>
  </g>
  <g id="armLeft_FL_FL_FL_FL_FL_FL_FL_FL_FL_FL_FL">
   <g>
    <g>
     <g>
      <path class="fil0" d="M400.696 197.976c1.857,2.145 4.245,3.648 7.163,4.511 3.679,-4.951 6.436,-10.454 8.273,-16.509l-13.146 -3.799c-1.328,5.209 -2.091,10.474 -2.29,15.797z"/>
      <path class="fil1" d="M416.618 186.128l0.793 -2.903 -15.045 -4.344c-0.9,0.314 -1.165,1.282 -0.793,2.903l1.413 0.395 13.146 3.799 0.486 0.15z"/>
      <path class="fil2" d="M413.084 169.948l-0.05 -0.005c-0.378,-0.112 -0.753,-0.2 -1.126,-0.265 -3.349,-0.395 -6.53,2.672 -9.542,9.203l15.045 4.344 1.002 -3.489c0.612,-2.096 0.398,-4.123 -0.641,-6.081 -1.046,-1.892 -2.609,-3.127 -4.688,-3.707z"/>
     </g>
    </g>
   </g>
  </g>
  <g id="handLeft_FL_FL_FL_FL_FL_FL_FL_FL_FL_FL_FL">
   <g>
    <g>
     <g>
      <g>
       <path class="fil3" d="M411.847 195.51c1.478,1.623 2.65,4.136 3.513,7.539l0.119 0.816 0.005 -0.049c2.347,-2.679 1.134,-5.447 -3.637,-8.306l0 0zm-7.998 5.578c0.836,0.017 1.838,-0.117 3.005,-0.401 1.201,-0.281 2.191,-0.634 2.971,-1.058 0.776,-0.391 1.146,-0.739 1.11,-1.044 -0.007,-0.269 -0.444,-0.414 -1.313,-0.434 -0.806,0.019 -1.808,0.153 -3.005,0.401 -1.168,0.285 -2.14,0.623 -2.917,1.014 -0.809,0.387 -1.212,0.732 -1.209,1.034 0.036,0.305 0.489,0.468 1.358,0.488z"/>
      </g>
      <g>
       <path class="fil0" d="M415.36 203.049c-0.863,-3.403 -2.035,-5.916 -3.513,-7.539l-9.856 1.572c-0.816,0.119 -1.178,0.552 -1.086,1.298l0.095 0.562c0.984,8.207 3.824,11.943 8.521,11.209 1.665,-0.235 3.335,-0.687 5.01,-1.356 1.115,-0.424 1.613,-1.044 1.494,-1.86l-0.025 -0.254c-0.168,-0.988 -0.34,-1.943 -0.516,-2.865l-0.005 0.049 -0.119 -0.816 0 0zm-8.506 -2.362c-1.167,0.284 -2.169,0.418 -3.005,0.401 -0.869,-0.02 -1.322,-0.183 -1.358,-0.488 -0.003,-0.302 0.4,-0.647 1.209,-1.034 0.777,-0.391 1.749,-0.729 2.917,-1.014 1.197,-0.248 2.199,-0.382 3.005,-0.401 0.869,0.02 1.306,0.165 1.313,0.434 0.036,0.305 -0.334,0.653 -1.11,1.044 -0.78,0.424 -1.77,0.777 -2.971,1.058z"/>
      </g>
     </g>
    </g>
   </g>
  </g>
  <g id="armLeft_FL_FL_FL_FL_FL_FL_FL_FL_FL_FL_FL_FL">
   <g>
    <g>
     <g>
      <path class="fil0" d="M482.661 196.852c1.529,2.389 3.676,4.221 6.439,5.495 4.353,-4.371 7.873,-9.42 10.561,-15.149l-12.464 -5.65c-2.062,4.964 -3.574,10.066 -4.536,15.304z"/>
      <path class="fil1" d="M500.12 187.416l1.202 -2.759 -14.264 -6.462c-0.936,0.182 -1.337,1.101 -1.202,2.759l1.341 0.594 12.464 5.65 0.459 0.218z"/>
      <path class="fil2" d="M498.949 170.896l-0.049 -0.012c-0.357,-0.165 -0.716,-0.306 -1.075,-0.424 -3.258,-0.873 -6.847,1.705 -10.767,7.735l14.264 6.462 1.494 -3.309c0.906,-1.986 0.986,-4.023 0.239,-6.11 -0.763,-2.022 -2.131,-3.469 -4.106,-4.342z"/>
     </g>
    </g>
   </g>
  </g>
  <g id="handLeft_FL_FL_FL_FL_FL_FL_FL_FL_FL_FL_FL_FL">
   <g>
    <g>
     <g>
      <g>
       <path class="fil3" d="M494.029 194.996c1.398,1.693 2.445,4.261 3.142,7.702l0.079 0.821 0.007 -0.049c2.475,-2.561 1.399,-5.386 -3.228,-8.474l0 0zm-8.261 5.181c0.835,0.058 1.841,-0.027 3.022,-0.254 1.213,-0.222 2.219,-0.526 3.019,-0.912 0.794,-0.352 1.181,-0.682 1.159,-0.988 0.007,-0.269 -0.423,-0.435 -1.29,-0.498 -0.806,-0.02 -1.813,0.065 -3.021,0.254 -1.181,0.228 -2.168,0.518 -2.962,0.87 -0.828,0.348 -1.247,0.673 -1.259,0.974 0.021,0.307 0.465,0.491 1.332,0.554z"/>
      </g>
      <g>
       <path class="fil0" d="M497.171 202.698c-0.697,-3.441 -1.744,-6.009 -3.142,-7.702l-9.921 1.089c-0.821,0.079 -1.204,0.493 -1.148,1.244l0.067 0.566c0.582,8.244 3.237,12.115 7.964,11.611 1.675,-0.153 3.365,-0.523 5.071,-1.109 1.134,-0.369 1.661,-0.964 1.582,-1.785l-0.012 -0.255c-0.12,-0.995 -0.245,-1.958 -0.375,-2.887l-0.007 0.049 -0.079 -0.821 0 0zm-8.381 -2.775c-1.181,0.227 -2.187,0.312 -3.022,0.254 -0.867,-0.063 -1.311,-0.247 -1.332,-0.554 0.012,-0.301 0.431,-0.626 1.259,-0.974 0.794,-0.352 1.781,-0.642 2.962,-0.87 1.208,-0.189 2.215,-0.274 3.021,-0.254 0.867,0.063 1.297,0.229 1.29,0.498 0.022,0.306 -0.365,0.636 -1.159,0.988 -0.8,0.386 -1.806,0.69 -3.019,0.912z"/>
      </g>
     </g>
    </g>
   </g>
  </g>
  <g id="armLeft_FL_FL_FL_FL_FL_FL_FL_FL_FL_FL_FL_FL_FL">
   <g>
    <g>
     <g>
      <path class="fil0" d="M564.177 53.183c0.621,-2.768 2.012,-5.223 4.173,-7.364 5.584,2.619 10.619,6.161 15.103,10.625l-9.781 9.57c-3.635,-3.96 -6.8,-8.237 -9.495,-12.831z"/>
      <path class="fil1" d="M583.811 56.082l2.072 2.182 -11.196 10.949c-0.942,0.149 -1.633,-0.578 -2.073,-2.182l1.058 -1.017 9.781 -9.57 0.358 -0.362z"/>
      <path class="fil2" d="M588.357 72.008l-0.041 0.027c-0.28,0.277 -0.569,0.533 -0.866,0.767 -2.763,1.934 -7.018,0.737 -12.763,-3.589l11.196 -10.949 2.535 2.599c1.531,1.556 2.302,3.443 2.314,5.66 -0.026,2.161 -0.817,3.989 -2.375,5.485z"/>
     </g>
    </g>
   </g>
  </g>
  <g id="handLeft_FL_FL_FL_FL_FL_FL_FL_FL_FL_FL_FL_FL_FL">
   <g>
    <g>
     <g>
      <g>
       <path class="fil3" d="M575.871 50.748c0.534,-2.129 0.376,-4.897 -0.474,-8.304l-0.282 -0.775 0.028 0.041c3.335,1.249 3.578,4.262 0.728,9.038l0 0zm-9.685 -1.127c0.728,-0.411 1.673,-0.767 2.837,-1.069 1.191,-0.321 2.23,-0.479 3.118,-0.474 0.868,-0.024 1.359,0.108 1.472,0.394 0.121,0.24 -0.196,0.574 -0.952,1.004 -0.719,0.364 -1.665,0.72 -2.837,1.068 -1.163,0.302 -2.18,0.465 -3.048,0.488 -0.897,0.042 -1.415,-0.071 -1.555,-0.338 -0.113,-0.286 0.209,-0.644 0.965,-1.073z"/>
      </g>
      <g>
       <path class="fil0" d="M575.397 42.444c0.85,3.407 1.008,6.175 0.474,8.304l-9.426 3.282c-0.775,0.281 -1.298,0.071 -1.571,-0.63l-0.183 -0.54c-3.017,-7.694 -2.284,-12.33 2.201,-13.907 1.577,-0.582 3.262,-0.974 5.055,-1.178 1.182,-0.154 1.914,0.156 2.196,0.931l0.098 0.236c0.32,0.95 0.62,1.873 0.902,2.768l-0.028 -0.041 0.282 0.775 0 0zm-6.374 6.108c-1.164,0.302 -2.109,0.658 -2.837,1.069 -0.756,0.429 -1.078,0.787 -0.965,1.073 0.14,0.267 0.658,0.38 1.555,0.338 0.868,-0.023 1.885,-0.185 3.048,-0.488 1.172,-0.348 2.118,-0.704 2.837,-1.068 0.756,-0.43 1.073,-0.764 0.952,-1.004 -0.113,-0.286 -0.604,-0.418 -1.472,-0.394 -0.888,-0.005 -1.927,0.153 -3.118,0.474z"/>
      </g>
     </g>
    </g>
   </g>
  </g>
  <g id="armLeft_FL_FL_FL_FL_FL_FL_FL_FL_FL_FL_FL_FL_FL_FL">
   <g>
    <g>
     <g>
      <path class="fil0" d="M562.588 182.09c-0.151,2.832 0.524,5.572 2.025,8.219 6.085,-1.011 11.89,-3.059 17.415,-6.144l-6.828 -11.859c-4.57,2.829 -8.774,6.09 -12.612,9.784z"/>
      <path class="fil1" d="M582.274 184.61l2.586 -1.539 -7.817 -13.57c-0.866,-0.399 -1.728,0.115 -2.586,1.54l0.743 1.265 6.828 11.859 0.246 0.445z"/>
      <path class="fil2" d="M590.96 170.509l-0.033 -0.038c-0.194,-0.342 -0.403,-0.666 -0.626,-0.972 -2.137,-2.609 -6.556,-2.608 -13.258,0.002l7.817 13.57 3.143 -1.816c1.895,-1.085 3.147,-2.692 3.759,-4.823 0.56,-2.088 0.292,-4.062 -0.802,-5.923z"/>
     </g>
    </g>
   </g>
  </g>
  <g id="handLeft_FL_FL_FL_FL_FL_FL_FL_FL_FL_FL_FL_FL_FL_FL">
   <g>
    <g>
     <g>
      <g>
       <path class="fil3" d="M576.261 187.898c-0.993,1.957 -2.929,3.943 -5.805,5.956l-0.721 0.4 0.048 -0.013c3.336,1.246 5.495,-0.868 6.478,-6.343l0 0zm-8.048 -5.504c0.28,0.788 0.76,1.677 1.44,2.668 0.688,1.024 1.368,1.825 2.041,2.404 0.641,0.587 1.097,0.81 1.37,0.668 0.249,-0.101 0.229,-0.562 -0.06,-1.382 -0.304,-0.747 -0.784,-1.636 -1.44,-2.668 -0.679,-0.991 -1.34,-1.78 -1.98,-2.368 -0.65,-0.619 -1.114,-0.874 -1.396,-0.765 -0.272,0.143 -0.264,0.623 0.025,1.443z"/>
      </g>
      <g>
       <path class="fil0" d="M570.456 193.854c2.876,-2.013 4.812,-3.999 5.805,-5.956l-4.96 -8.661c-0.4,-0.721 -0.933,-0.906 -1.599,-0.555l-0.492 0.288c-7.326,3.826 -9.814,7.806 -7.464,11.938 0.809,1.474 1.823,2.876 3.043,4.206 0.791,0.892 1.547,1.138 2.268,0.738l0.228 -0.113c0.865,-0.508 1.697,-1.007 2.498,-1.498l-0.048 0.013 0.721 -0.4 0 0zm-0.803 -8.792c-0.68,-0.99 -1.16,-1.88 -1.44,-2.668 -0.289,-0.82 -0.297,-1.3 -0.025,-1.443 0.282,-0.109 0.747,0.146 1.396,0.765 0.64,0.588 1.301,1.377 1.98,2.368 0.656,1.032 1.136,1.921 1.44,2.668 0.289,0.82 0.309,1.281 0.06,1.382 -0.273,0.142 -0.73,-0.081 -1.37,-0.668 -0.673,-0.579 -1.353,-1.38 -2.041,-2.404z"/>
      </g>
     </g>
    </g>
   </g>
  </g>
  <g id="armLeft_FL_FL_FL_FL_FL_FL_FL_FL_FL_FL_FL_FL_FL_FL_FL">
   <g>
    <g>
     <g>
      <path class="fil0" d="M86.032 308.326c0.08,2.836 0.977,5.511 2.69,8.026 5.981,-1.505 11.599,-4.021 16.854,-7.547l-7.775 -11.261c-4.324,3.193 -8.247,6.787 -11.769,10.782z"/>
      <path class="fil1" d="M105.857 309.228l2.451 -1.746 -8.9 -12.884c-0.896,-0.327 -1.713,0.255 -2.452,1.746l0.845 1.2 7.775 11.261 0.281 0.423z"/>
      <path class="fil2" d="M113.359 294.464l-0.035 -0.035c-0.222,-0.326 -0.456,-0.631 -0.704,-0.917 -2.343,-2.426 -6.747,-2.064 -13.212,1.086l8.9 12.884 2.984 -2.067c1.8,-1.236 2.917,-2.94 3.351,-5.114 0.388,-2.126 -0.04,-4.072 -1.284,-5.837z"/>
     </g>
    </g>
   </g>
  </g>
  <g id="handLeft_FL_FL_FL_FL_FL_FL_FL_FL_FL_FL_FL_FL_FL_FL_FL">
   <g>
    <g>
     <g>
      <g>
       <path class="fil3" d="M97.212 310.781c0.681,2.087 0.717,4.859 0.106,8.317l-0.227 0.793 0.025 -0.044c3.24,-1.477 3.272,-4.5 0.096,-9.066l0 0zm-9.583 1.799c0.755,0.359 1.723,0.649 2.905,0.869 1.21,0.237 2.258,0.322 3.143,0.256 0.868,-0.038 1.349,-0.203 1.441,-0.496 0.104,-0.248 -0.236,-0.559 -1.019,-0.935 -0.743,-0.313 -1.711,-0.603 -2.905,-0.869 -1.181,-0.22 -2.206,-0.311 -3.075,-0.274 -0.897,0.021 -1.406,0.17 -1.527,0.446 -0.093,0.293 0.253,0.628 1.037,1.003z"/>
      </g>
      <g>
       <path class="fil0" d="M97.318 319.098c0.611,-3.458 0.576,-6.23 -0.106,-8.317l-9.631 -2.617c-0.793,-0.226 -1.301,0.019 -1.523,0.738l-0.145 0.551c-2.475,7.886 -1.42,12.459 3.164,13.72 1.614,0.47 3.322,0.745 5.125,0.823 1.19,0.071 1.899,-0.289 2.125,-1.082l0.082 -0.242c0.253,-0.97 0.488,-1.912 0.707,-2.825l-0.025 0.044 0.227 -0.793 0 0zm-6.784 -5.649c-1.182,-0.22 -2.15,-0.51 -2.905,-0.869 -0.784,-0.376 -1.13,-0.71 -1.037,-1.003 0.121,-0.276 0.63,-0.425 1.527,-0.446 0.869,-0.037 1.894,0.054 3.075,0.274 1.194,0.266 2.162,0.556 2.905,0.869 0.783,0.376 1.123,0.687 1.019,0.935 -0.092,0.293 -0.573,0.458 -1.441,0.496 -0.885,0.066 -1.933,-0.019 -3.143,-0.256z"/>
      </g>
     </g>
    </g>
   </g>
  </g>
  <g id="armLeft_FL_FL_FL_FL_FL_FL_FL_FL_FL_FL_FL_FL_FL_FL_FL_FL">
   <g>
    <g>
     <g>
      <path class="fil0" d="M644.677 54.183c0.621,-2.768 2.012,-5.223 4.173,-7.364 5.585,2.619 10.619,6.161 15.104,10.625l-9.782 9.57c-3.635,-3.96 -6.8,-8.237 -9.495,-12.831z"/>
      <path class="fil1" d="M664.31 57.082l2.074 2.182 -11.197 10.949c-0.941,0.149 -1.632,-0.578 -2.073,-2.182l1.058 -1.017 9.782 -9.57 0.356 -0.362z"/>
      <path class="fil2" d="M668.857 73.007l-0.041 0.028c-0.28,0.277 -0.569,0.533 -0.866,0.766 -2.763,1.934 -7.018,0.739 -12.763,-3.588l11.197 -10.949 2.534 2.599c1.53,1.556 2.302,3.443 2.314,5.66 -0.026,2.161 -0.818,3.989 -2.375,5.484z"/>
     </g>
    </g>
   </g>
  </g>
  <g id="handLeft_FL_FL_FL_FL_FL_FL_FL_FL_FL_FL_FL_FL_FL_FL_FL_FL">
   <g>
    <g>
     <g>
      <g>
       <path class="fil3" d="M656.371 51.748c0.534,-2.129 0.376,-4.897 -0.474,-8.304l-0.281 -0.775 0.028 0.041c3.334,1.249 3.577,4.262 0.727,9.038l0 0zm-9.685 -1.127c0.728,-0.411 1.674,-0.767 2.837,-1.069 1.191,-0.321 2.23,-0.479 3.117,-0.474 0.869,-0.023 1.36,0.108 1.473,0.394 0.121,0.24 -0.196,0.574 -0.952,1.004 -0.719,0.364 -1.665,0.72 -2.837,1.068 -1.163,0.302 -2.179,0.465 -3.048,0.488 -0.897,0.042 -1.415,-0.071 -1.555,-0.338 -0.113,-0.286 0.209,-0.643 0.965,-1.073z"/>
      </g>
      <g>
       <path class="fil0" d="M655.897 43.444c0.85,3.407 1.009,6.175 0.474,8.304l-9.426 3.282c-0.775,0.281 -1.299,0.071 -1.57,-0.63l-0.184 -0.54c-3.018,-7.694 -2.284,-12.33 2.2,-13.907 1.578,-0.582 3.263,-0.974 5.056,-1.178 1.183,-0.154 1.915,0.156 2.196,0.931l0.098 0.236c0.32,0.95 0.62,1.873 0.903,2.768l-0.028 -0.041 0.281 0.775 0 0zm-6.374 6.108c-1.163,0.302 -2.109,0.658 -2.837,1.069 -0.756,0.43 -1.078,0.787 -0.965,1.073 0.14,0.267 0.658,0.38 1.555,0.338 0.869,-0.023 1.885,-0.186 3.048,-0.488 1.172,-0.348 2.118,-0.704 2.837,-1.068 0.756,-0.43 1.073,-0.764 0.952,-1.004 -0.113,-0.286 -0.604,-0.417 -1.473,-0.394 -0.887,-0.005 -1.926,0.153 -3.117,0.474z"/>
      </g>
     </g>
    </g>
   </g>
  </g>
  <g id="armLeft_FL_FL_FL_FL_FL_FL_FL_FL_FL_FL_FL_FL_FL_FL_FL_FL_FL">
   <g>
    <g>
     <g>
      <path class="fil0" d="M644.088 184.233c0.303,2.821 1.408,5.417 3.313,7.79 5.845,-1.971 11.247,-4.921 16.208,-8.85l-8.637 -10.615c-4.059,3.524 -7.688,7.415 -10.884,11.675z"/>
      <path class="fil1" d="M663.923 183.573l2.306 -1.934 -9.887 -12.144c-0.918,-0.255 -1.687,0.389 -2.306,1.934l0.936 1.129 8.637 10.615 0.314 0.4z"/>
      <path class="fil2" d="M670.241 168.264l-0.038 -0.032c-0.247,-0.307 -0.505,-0.594 -0.774,-0.86 -2.527,-2.234 -6.889,-1.526 -13.087,2.123l9.887 12.144 2.812 -2.295c1.697,-1.373 2.677,-3.161 2.939,-5.362 0.219,-2.15 -0.361,-4.056 -1.739,-5.718z"/>
     </g>
    </g>
   </g>
  </g>
  <g id="handLeft_FL_FL_FL_FL_FL_FL_FL_FL_FL_FL_FL_FL_FL_FL_FL_FL_FL">
   <g>
    <g>
     <g>
      <g>
       <path class="fil3" d="M657.485 185.865c-0.104,2.192 -1.056,4.797 -2.854,7.813l-0.493 0.66 0.038 -0.032c3.554,-0.231 4.656,-3.045 3.309,-8.441l0 0zm-9.598 -1.72c0.579,0.603 1.381,1.218 2.407,1.843 1.047,0.651 1.997,1.103 2.848,1.355 0.825,0.273 1.333,0.289 1.523,0.048 0.185,-0.194 -0.021,-0.606 -0.621,-1.235 -0.583,-0.557 -1.385,-1.172 -2.407,-1.844 -1.026,-0.625 -1.952,-1.075 -2.777,-1.348 -0.846,-0.299 -1.375,-0.341 -1.587,-0.125 -0.19,0.241 0.014,0.676 0.614,1.306z"/>
      </g>
      <g>
       <path class="fil0" d="M654.631 193.678c1.798,-3.016 2.75,-5.62 2.854,-7.813l-8.076 -5.866c-0.66,-0.493 -1.222,-0.444 -1.685,0.149l-0.331 0.464c-5.113,6.494 -5.751,11.143 -1.913,13.949 1.342,1.013 2.842,1.876 4.499,2.589 1.087,0.489 1.878,0.403 2.371,-0.257l0.162 -0.197c0.581,-0.817 1.135,-1.614 1.664,-2.39l-0.038 0.032 0.493 -0.66 0 0zm-4.337 -7.69c-1.026,-0.625 -1.828,-1.24 -2.407,-1.843 -0.599,-0.629 -0.804,-1.065 -0.614,-1.306 0.212,-0.216 0.741,-0.174 1.587,0.125 0.825,0.273 1.75,0.723 2.777,1.348 1.022,0.672 1.824,1.287 2.407,1.844 0.6,0.629 0.806,1.041 0.621,1.235 -0.19,0.241 -0.698,0.225 -1.523,-0.048 -0.851,-0.252 -1.801,-0.704 -2.848,-1.355z"/>
      </g>
     </g>
    </g>
   </g>
  </g>
  <g id="armLeft_FL_FL_FL_FL_FL_FL_FL_FL_FL_FL_FL_FL_FL_FL_FL_FL_FL_FL">
   <g>
    <g>
     <g>
      <path class="fil0" d="M168.391 293.997c0.378,2.811 1.552,5.377 3.52,7.698 5.79,-2.126 11.112,-5.219 15.966,-9.279l-8.917 -10.38c-3.964,3.63 -7.487,7.617 -10.569,11.961z"/>
      <path class="fil1" d="M188.201 292.807l2.254 -1.994 -10.207 -11.876c-0.925,-0.231 -1.676,0.434 -2.254,1.994l0.966 1.105 8.917 10.38 0.324 0.391z"/>
      <path class="fil2" d="M194.108 277.336l-0.039 -0.032c-0.254,-0.3 -0.52,-0.58 -0.796,-0.838 -2.585,-2.166 -6.927,-1.342 -13.025,2.471l10.207 11.876 2.749 -2.37c1.66,-1.418 2.592,-3.231 2.795,-5.438 0.162,-2.156 -0.469,-4.045 -1.891,-5.669z"/>
     </g>
    </g>
   </g>
  </g>
  <g id="handLeft_FL_FL_FL_FL_FL_FL_FL_FL_FL_FL_FL_FL_FL_FL_FL_FL_FL_FL">
   <g>
    <g>
     <g>
      <g>
       <path class="fil3" d="M179.049 298.591c0.235,2.183 -0.305,4.902 -1.618,8.158l-0.386 0.729 0.033 -0.037c3.476,-0.775 4.133,-3.725 1.971,-8.85l0 0zm-9.748 -0.224c0.664,0.508 1.552,0.992 2.662,1.452 1.135,0.482 2.142,0.782 3.022,0.901 0.857,0.142 1.362,0.08 1.512,-0.188 0.154,-0.22 -0.114,-0.595 -0.803,-1.125 -0.662,-0.46 -1.549,-0.944 -2.662,-1.451 -1.111,-0.46 -2.094,-0.762 -2.952,-0.905 -0.882,-0.165 -1.411,-0.125 -1.587,0.12 -0.15,0.268 0.119,0.667 0.808,1.196z"/>
      </g>
      <g>
       <path class="fil0" d="M177.431 306.749c1.313,-3.256 1.853,-5.976 1.618,-8.158l-8.882 -4.554c-0.728,-0.386 -1.276,-0.251 -1.642,0.406l-0.256 0.51c-4.053,7.202 -3.968,11.895 0.255,14.077 1.482,0.794 3.097,1.417 4.844,1.866 1.15,0.317 1.918,0.11 2.304,-0.618l0.13 -0.22c0.447,-0.897 0.873,-1.77 1.276,-2.617l-0.033 0.037 0.386 -0.729 0 0zm-5.468 -6.93c-1.11,-0.46 -1.998,-0.944 -2.662,-1.452 -0.689,-0.529 -0.958,-0.928 -0.808,-1.196 0.176,-0.245 0.705,-0.285 1.587,-0.12 0.858,0.143 1.841,0.445 2.952,0.905 1.113,0.507 2,0.991 2.662,1.451 0.689,0.53 0.957,0.905 0.803,1.125 -0.15,0.268 -0.655,0.33 -1.512,0.188 -0.88,-0.119 -1.887,-0.419 -3.022,-0.901z"/>
      </g>
     </g>
    </g>
   </g>
  </g>
  <g id="armLeft_FL_FL_FL_FL_FL_FL_FL_FL_FL_FL_FL_FL_FL_FL_FL_FL_FL_FL_FL">
   <g>
    <g>
     <g>
      <path class="fil0" d="M273.84 310.455c2.553,-0.906 4.799,-2.527 6.737,-4.86 -2.555,-5.13 -5.953,-9.624 -10.194,-13.484l-8.657 10.544c3.754,3.092 7.792,5.691 12.114,7.8z"/>
      <path class="fil1" d="M270.71 291.725l-2.07 -1.771 -9.904 12.069c-0.117,0.93 0.573,1.52 2.07,1.771l0.92 -1.139 8.657 -10.544 0.327 -0.386z"/>
      <path class="fil2" d="M255.838 289.067l-0.025 0.043c-0.251,0.302 -0.481,0.61 -0.692,0.925 -1.731,2.893 -0.526,6.89 3.615,11.988l9.904 -12.069 -2.467 -2.173c-1.478,-1.314 -3.245,-1.855 -5.301,-1.622 -2.004,0.263 -3.682,1.232 -5.034,2.908z"/>
     </g>
    </g>
   </g>
  </g>
  <g id="handLeft_FL_FL_FL_FL_FL_FL_FL_FL_FL_FL_FL_FL_FL_FL_FL_FL_FL_FL_FL">
   <g>
    <g>
     <g>
      <g>
       <path class="fil3" d="M273.425 298.893c1.839,-1.198 4.508,-1.95 8.006,-2.255l0.824 0.014 -0.048 -0.013c-2.266,-2.746 -5.193,-1.995 -8.782,2.254l0 0zm4.218 8.791c0.151,-0.822 0.181,-1.832 0.088,-3.03 -0.085,-1.231 -0.274,-2.265 -0.567,-3.103 -0.261,-0.829 -0.545,-1.25 -0.852,-1.263 -0.266,-0.037 -0.479,0.372 -0.639,1.226 -0.11,0.799 -0.139,1.809 -0.087,3.031 0.093,1.198 0.27,2.212 0.531,3.041 0.252,0.861 0.527,1.315 0.826,1.36 0.307,0.013 0.54,-0.407 0.7,-1.262z"/>
      </g>
      <g>
       <path class="fil0" d="M281.431 296.638c-3.498,0.305 -6.167,1.057 -8.006,2.255l-0.034 9.981c-0.014,0.825 0.354,1.251 1.106,1.28l0.57 -0.002c8.258,0.349 12.402,-1.854 12.434,-6.608 0.036,-1.681 -0.141,-3.402 -0.532,-5.163 -0.239,-1.168 -0.771,-1.76 -1.595,-1.774l-0.255 -0.016c-1.003,0.007 -1.974,0.024 -2.912,0.048l0.048 0.013 -0.824 -0.014 0 0zm-3.7 8.016c0.093,1.198 0.063,2.208 -0.088,3.03 -0.16,0.855 -0.393,1.275 -0.7,1.262 -0.299,-0.045 -0.574,-0.499 -0.826,-1.36 -0.261,-0.829 -0.438,-1.843 -0.531,-3.041 -0.052,-1.222 -0.023,-2.232 0.087,-3.031 0.16,-0.854 0.373,-1.263 0.639,-1.226 0.307,0.013 0.591,0.434 0.852,1.263 0.293,0.838 0.482,1.872 0.567,3.103z"/>
      </g>
     </g>
    </g>
   </g>
  </g>
  <g id="armLeft_FL_FL_FL_FL_FL_FL_FL_FL_FL_FL_FL_FL_FL_FL_FL_FL_FL_FL_FL_FL">
   <g>
    <g>
     <g>
      <path class="fil0" d="M329.688 307.41c1.537,2.232 3.683,3.981 6.438,5.249 4.294,-3.795 7.756,-8.241 10.387,-13.337l-12.427 -5.632c-2.014,4.426 -3.48,8.999 -4.398,13.72z"/>
      <path class="fil1" d="M346.971 299.538l1.174 -2.457 -14.221 -6.443c-0.929,0.127 -1.321,0.946 -1.175,2.458l1.337 0.594 12.427 5.632 0.458 0.216z"/>
      <path class="fil2" d="M345.688 284.485l-0.048 -0.013c-0.357,-0.164 -0.714,-0.307 -1.073,-0.429 -3.243,-0.924 -6.791,1.275 -10.643,6.595l14.221 6.443 1.461 -2.946c0.886,-1.768 0.951,-3.615 0.194,-5.541 -0.773,-1.867 -2.144,-3.237 -4.112,-4.109z"/>
     </g>
    </g>
   </g>
  </g>
  <g id="handLeft_FL_FL_FL_FL_FL_FL_FL_FL_FL_FL_FL_FL_FL_FL_FL_FL_FL_FL_FL_FL">
   <g>
    <g>
     <g>
      <g>
       <path class="fil3" d="M341.457 305.725c1.198,1.839 1.95,4.508 2.255,8.006l-0.014 0.825 0.013 -0.048c2.747,-2.267 1.996,-5.194 -2.254,-8.783l0 0zm-8.791 4.219c0.822,0.151 1.832,0.18 3.03,0.087 1.231,-0.084 2.265,-0.273 3.103,-0.567 0.829,-0.261 1.25,-0.545 1.263,-0.852 0.037,-0.266 -0.372,-0.479 -1.226,-0.639 -0.799,-0.11 -1.809,-0.139 -3.031,-0.087 -1.198,0.093 -2.212,0.27 -3.041,0.531 -0.861,0.252 -1.315,0.528 -1.36,0.826 -0.013,0.307 0.407,0.541 1.262,0.701z"/>
      </g>
      <g>
       <path class="fil0" d="M343.712 313.731c-0.305,-3.498 -1.057,-6.167 -2.255,-8.006l-9.981 -0.034c-0.824,-0.014 -1.251,0.355 -1.28,1.106l0.002 0.57c-0.348,8.258 1.854,12.403 6.608,12.434 1.681,0.036 3.402,-0.141 5.163,-0.532 1.169,-0.239 1.76,-0.771 1.774,-1.596l0.016 -0.254c-0.008,-1.003 -0.023,-1.973 -0.048,-2.911l-0.013 0.048 0.014 -0.825 0 0zm-8.016 -3.7c-1.198,0.093 -2.208,0.064 -3.03,-0.087 -0.855,-0.16 -1.275,-0.394 -1.262,-0.701 0.045,-0.298 0.499,-0.574 1.36,-0.826 0.83,-0.261 1.843,-0.438 3.041,-0.531 1.222,-0.052 2.232,-0.023 3.031,0.087 0.854,0.16 1.263,0.373 1.226,0.639 -0.013,0.307 -0.434,0.591 -1.263,0.852 -0.838,0.294 -1.872,0.483 -3.103,0.567z"/>
      </g>
     </g>
    </g>
   </g>
  </g>
  <g id="armLeft_FL_FL_FL_FL_FL_FL_FL_FL_FL_FL_FL_FL_FL_FL_FL_FL_FL_FL_FL_FL_FL">
   <g>
    <g>
     <g>
      <path class="fil0" d="M410.694 306.415c1.538,2.231 3.685,3.98 6.441,5.247 4.292,-3.797 7.753,-8.244 10.381,-13.341l-12.428 -5.628c-2.012,4.428 -3.477,9.001 -4.394,13.722z"/>
      <path class="fil1" d="M427.974 298.537l1.174 -2.458 -14.224 -6.437c-0.929,0.127 -1.32,0.947 -1.174,2.458l1.338 0.593 12.428 5.628 0.458 0.216z"/>
      <path class="fil2" d="M426.686 283.484l-0.048 -0.013c-0.357,-0.164 -0.715,-0.307 -1.073,-0.428 -3.244,-0.923 -6.791,1.277 -10.641,6.599l14.224 6.437 1.459 -2.946c0.886,-1.769 0.95,-3.616 0.192,-5.541 -0.773,-1.868 -2.144,-3.237 -4.113,-4.108z"/>
     </g>
    </g>
   </g>
  </g>
  <g id="handLeft_FL_FL_FL_FL_FL_FL_FL_FL_FL_FL_FL_FL_FL_FL_FL_FL_FL_FL_FL_FL_FL">
   <g>
    <g>
     <g>
      <g>
       <path class="fil3" d="M420.598 301.439c1.958,0.994 3.943,2.929 5.956,5.806l0.4 0.721 -0.012 -0.048c1.245,-3.337 -0.869,-5.496 -6.344,-6.479l0 0zm-5.504 8.048c0.788,-0.28 1.677,-0.759 2.669,-1.439 1.023,-0.689 1.824,-1.369 2.403,-2.042 0.588,-0.64 0.81,-1.097 0.668,-1.369 -0.101,-0.249 -0.561,-0.229 -1.381,0.059 -0.747,0.304 -1.637,0.784 -2.669,1.44 -0.991,0.68 -1.78,1.34 -2.368,1.98 -0.62,0.649 -0.874,1.115 -0.764,1.396 0.142,0.272 0.622,0.264 1.442,-0.025z"/>
      </g>
      <g>
       <path class="fil0" d="M426.554 307.245c-2.013,-2.877 -3.998,-4.813 -5.956,-5.806l-8.66 4.96c-0.722,0.401 -0.907,0.933 -0.556,1.598l0.288 0.493c3.826,7.326 7.805,9.814 11.938,7.464 1.474,-0.809 2.876,-1.823 4.206,-3.042 0.892,-0.791 1.138,-1.547 0.738,-2.268l-0.113 -0.229c-0.508,-0.865 -1.007,-1.697 -1.497,-2.497l0.012 0.048 -0.4 -0.721 0 0zm-8.791 0.803c-0.992,0.68 -1.881,1.159 -2.669,1.439 -0.82,0.289 -1.301,0.297 -1.442,0.025 -0.11,-0.281 0.144,-0.747 0.764,-1.396 0.588,-0.641 1.377,-1.3 2.368,-1.98 1.032,-0.656 1.922,-1.136 2.669,-1.44 0.82,-0.288 1.28,-0.308 1.381,-0.059 0.142,0.272 -0.08,0.729 -0.668,1.369 -0.579,0.673 -1.38,1.353 -2.403,2.042z"/>
      </g>
     </g>
    </g>
   </g>
  </g>
  <g id="armLeft_FL_FL_FL_FL_FL_FL_FL_FL_FL_FL_FL_FL_FL_FL_FL_FL_FL_FL_FL_FL_FL_FL">
   <g>
    <g>
     <g>
      <path class="fil0" d="M272.276 202.27c2.823,-0.276 5.43,-1.355 7.821,-3.238 -1.914,-5.863 -4.811,-11.294 -8.691,-16.293l-10.699 8.533c3.484,4.093 7.34,7.76 11.569,10.998z"/>
      <path class="fil1" d="M271.809 182.429l-1.912 -2.325 -12.24 9.768c-0.264,0.916 0.373,1.691 1.911,2.325l1.139 -0.925 10.699 -8.533 0.403 -0.31z"/>
      <path class="fil2" d="M256.562 175.962l-0.033 0.038c-0.309,0.243 -0.598,0.498 -0.867,0.765 -2.258,2.505 -1.593,6.874 1.995,13.107l12.24 -9.768 -2.267 -2.834c-1.357,-1.71 -3.135,-2.707 -5.334,-2.991 -2.147,-0.24 -4.059,0.321 -5.734,1.683z"/>
     </g>
    </g>
   </g>
  </g>
  <g id="handLeft_FL_FL_FL_FL_FL_FL_FL_FL_FL_FL_FL_FL_FL_FL_FL_FL_FL_FL_FL_FL_FL_FL">
   <g>
    <g>
     <g>
      <g>
       <path class="fil3" d="M275.181 190.737c2.087,-0.681 4.859,-0.716 8.317,-0.105l0.793 0.226 -0.044 -0.025c-1.478,-3.239 -4.5,-3.271 -9.066,-0.096l0 0zm1.799 9.583c0.359,-0.754 0.649,-1.723 0.869,-2.904 0.237,-1.21 0.322,-2.258 0.256,-3.143 -0.038,-0.869 -0.203,-1.349 -0.496,-1.441 -0.248,-0.105 -0.56,0.235 -0.935,1.019 -0.314,0.743 -0.603,1.711 -0.869,2.905 -0.22,1.181 -0.312,2.206 -0.274,3.075 0.021,0.897 0.17,1.406 0.446,1.527 0.293,0.092 0.628,-0.254 1.003,-1.038z"/>
      </g>
      <g>
       <path class="fil0" d="M283.498 190.632c-3.458,-0.611 -6.23,-0.576 -8.317,0.105l-2.617 9.632c-0.226,0.793 0.019,1.301 0.738,1.523l0.551 0.145c7.886,2.475 12.459,1.42 13.72,-3.164 0.47,-1.614 0.744,-3.323 0.823,-5.125 0.071,-1.19 -0.289,-1.899 -1.082,-2.126l-0.242 -0.081c-0.971,-0.253 -1.912,-0.489 -2.825,-0.708l0.044 0.025 -0.793 -0.226 0 0zm-5.649 6.784c-0.22,1.181 -0.51,2.15 -0.869,2.904 -0.375,0.784 -0.71,1.13 -1.003,1.038 -0.276,-0.121 -0.425,-0.63 -0.446,-1.527 -0.037,-0.869 0.054,-1.894 0.274,-3.075 0.266,-1.194 0.555,-2.162 0.869,-2.905 0.375,-0.784 0.687,-1.124 0.935,-1.019 0.293,0.092 0.458,0.572 0.496,1.441 0.066,0.885 -0.019,1.933 -0.256,3.143z"/>
      </g>
     </g>
    </g>
   </g>
  </g>
  <g id="armLeft_FL_FL_FL_FL_FL_FL_FL_FL_FL_FL_FL_FL_FL_FL_FL_FL_FL_FL_FL_FL_FL_FL_FL">
   <g>
    <g>
     <g>
      <path class="fil0" d="M419.184 26.702c-2.587,-1.243 -5.292,-1.449 -8.113,-0.616 -0.566,7.764 -0.102,15.575 1.392,23.436l12.67 -3.852c-1.492,-6.606 -3.475,-12.929 -5.949,-18.968z"/>
      <path class="fil1" d="M411.99 49.654l0.788 3.714 14.499 -4.413c0.583,-0.902 0.32,-2.14 -0.788,-3.714l-1.356 0.429 -12.67 3.852 -0.473 0.132z"/>
      <path class="fil2" d="M422.909 65.469l0.043 -0.025c0.365,-0.108 0.717,-0.24 1.055,-0.396 2.944,-1.618 4.034,-6.982 3.27,-16.093l-14.499 4.413 0.907 4.494c0.537,2.705 1.717,4.828 3.54,6.366 1.795,1.461 3.69,1.874 5.684,1.241z"/>
     </g>
    </g>
   </g>
  </g>
  <g id="handLeft_FL_FL_FL_FL_FL_FL_FL_FL_FL_FL_FL_FL_FL_FL_FL_FL_FL_FL_FL_FL_FL_FL_FL">
   <g>
    <g>
     <g>
      <g>
       <path class="fil3" d="M422.007 32.125c1.198,-1.84 1.95,-4.508 2.255,-8.006l-0.014 -0.825 0.013 0.048c2.747,2.267 1.995,5.194 -2.254,8.783l0 0zm-8.791 -4.219c0.822,-0.151 1.832,-0.18 3.031,-0.087 1.23,0.085 2.264,0.273 3.102,0.566 0.829,0.261 1.25,0.545 1.263,0.852 0.037,0.266 -0.372,0.48 -1.226,0.639 -0.799,0.111 -1.809,0.14 -3.031,0.088 -1.198,-0.093 -2.212,-0.27 -3.041,-0.531 -0.861,-0.253 -1.314,-0.528 -1.36,-0.826 -0.013,-0.307 0.408,-0.541 1.262,-0.701z"/>
      </g>
      <g>
       <path class="fil0" d="M424.262 24.119c-0.305,3.498 -1.057,6.166 -2.255,8.006l-9.981 0.034c-0.824,0.014 -1.251,-0.355 -1.28,-1.106l0.003 -0.57c-0.349,-8.258 1.853,-12.402 6.607,-12.433 1.681,-0.037 3.402,0.14 5.163,0.531 1.169,0.239 1.76,0.771 1.773,1.596l0.017 0.254c-0.007,1.003 -0.023,1.973 -0.048,2.911l-0.013 -0.048 0.014 0.825 0 0zm-8.015 3.7c-1.199,-0.093 -2.209,-0.064 -3.031,0.087 -0.854,0.16 -1.275,0.394 -1.262,0.701 0.046,0.298 0.499,0.573 1.36,0.826 0.829,0.261 1.843,0.438 3.041,0.531 1.222,0.052 2.232,0.023 3.031,-0.088 0.854,-0.159 1.263,-0.372 1.226,-0.639 -0.013,-0.307 -0.434,-0.591 -1.263,-0.852 -0.838,-0.293 -1.872,-0.481 -3.102,-0.566z"/>
      </g>
     </g>
    </g>
   </g>
  </g>
 </g>
</svg>
