<?xml version="1.0" encoding="UTF-8"?>
<!DOCTYPE svg PUBLIC "-//W3C//DTD SVG 1.1//EN" "http://www.w3.org/Graphics/SVG/1.1/DTD/svg11.dtd">
<!-- Creator: CorelDRAW 2018 (64-Bit) -->
<svg xmlns="http://www.w3.org/2000/svg" xml:space="preserve" width="720px" height="330px" version="1.1" style="shape-rendering:geometricPrecision; text-rendering:geometricPrecision; image-rendering:optimizeQuality; fill-rule:evenodd; clip-rule:evenodd"
viewBox="0 0 720 330"
 xmlns:xlink="http://www.w3.org/1999/xlink">
 <defs>
  <style type="text/css">
   <![CDATA[
    .fil0 {fill:#916B4E}
    .fil1 {fill:#AA7E5C}
    .fil2 {fill:#E0C1A2}
    .fil3 {fill:#ECCFB1}
   ]]>
  </style>
 </defs>
 <g id="Слой_x0020_1">
  <metadata id="CorelCorpID_0Corel-Layer"/>
  <g id="legRight">
   <g>
    <g>
     <g>
      <polygon class="fil0" points="33.595,323.1 33.186,320.2 50.936,320.2 51.184,322.2 "/>
      <path class="fil1" d="M34.431 329.85l-0.836 -6.75 17.589 -0.9 -1.222 2.65 1.55 0c1.274,0.6 2.475,1.55 3.603,2.85l0.266 2.15 -20.95 0z"/>
      <polygon class="fil2" points="33.186,320.2 32.765,316.8 50.515,316.8 50.936,320.2 "/>
      <path class="fil3" d="M34.392 309.35c1.527,-1.667 3.524,-2.5 5.991,-2.5l0.05 0c2.467,0 4.653,0.833 6.559,2.5 1.944,1.7 3.067,3.767 3.368,6.2l0.155 1.25 -17.75 0 -0.155 -1.25c-0.301,-2.433 0.293,-4.5 1.782,-6.2z"/>
     </g>
    </g>
   </g>
  </g>
  <g id="legRight_FL">
   <g>
    <g>
     <g>
      <polygon class="fil0" points="42.95,103.1 42.9,100.2 60.65,100.2 60.65,102.2 "/>
      <path class="fil1" d="M42.95 109.85l0 -6.75 17.7 -0.9 -1.55 2.65 1.55 0c1.2,0.6 2.283,1.55 3.25,2.85l0 2.15 -20.95 0z"/>
      <polygon class="fil2" points="42.9,100.2 42.9,96.8 60.65,96.8 60.65,100.2 "/>
      <path class="fil3" d="M45.45 89.35c1.733,-1.667 3.833,-2.5 6.3,-2.5l0.05 0c2.467,0 4.55,0.833 6.25,2.5 1.733,1.7 2.6,3.767 2.6,6.2l0 1.25 -17.75 0 0 -1.25c0,-2.433 0.85,-4.5 2.55,-6.2z"/>
     </g>
    </g>
   </g>
  </g>
  <g id="legRight_FL_FL">
   <g>
    <g>
     <g>
      <polygon class="fil0" points="124.277,91.167 124.972,88.359 142.522,90.872 142.009,92.805 "/>
      <path class="fil1" d="M122.545 97.687l1.732 -6.52 17.732 1.638 -2.213 2.34 1.533 0.219c1.032,0.749 1.86,1.821 2.482,3.213l-0.552 2.077 -20.714 -2.967z"/>
      <polygon class="fil2" points="124.972,88.359 125.844,85.075 143.394,87.588 142.522,90.872 "/>
      <path class="fil3" d="M130.277 78.24c2.142,-1.365 4.432,-1.872 6.87,-1.523l0.05 0.007c2.439,0.349 4.285,1.45 5.538,3.3 1.278,1.888 1.605,4.007 0.98,6.357l-0.321 1.207 -17.55 -2.513 0.321 -1.208c0.624,-2.35 1.995,-4.226 4.112,-5.627z"/>
     </g>
    </g>
   </g>
  </g>
  <g id="legRight_FL_FL_FL">
   <g>
    <g>
     <g>
      <polygon class="fil0" points="207.621,101.303 206.819,98.506 224.814,97.081 225.332,99.014 "/>
      <path class="fil1" d="M209.368 107.823l-1.747 -6.52 17.711 -2.289 -0.886 2.683 1.571 -0.124c1.372,0.483 2.716,1.314 4.033,2.492l0.556 2.077 -21.238 1.681z"/>
      <polygon class="fil2" points="206.819,98.506 205.939,95.222 223.934,93.797 224.814,97.081 "/>
      <path class="fil3" d="M206.596 87.821c1.326,-1.749 3.239,-2.723 5.74,-2.921l0.051 -0.003c2.501,-0.198 4.828,0.439 6.983,1.913 2.197,1.503 3.611,3.43 4.24,5.78l0.324 1.207 -17.995 1.425 -0.323 -1.208c-0.63,-2.351 -0.303,-4.415 0.98,-6.193z"/>
     </g>
    </g>
   </g>
  </g>
  <g id="legRight_FL_FL_FL_FL">
   <g>
    <g>
     <g>
      <polygon class="fil0" points="282.95,103.1 282.9,100.2 300.65,100.2 300.65,102.2 "/>
      <path class="fil1" d="M282.95 109.85l0 -6.75 17.7 -0.9 -1.55 2.65 1.55 0c1.2,0.6 2.283,1.55 3.25,2.85l0 2.15 -20.95 0z"/>
      <polygon class="fil2" points="282.9,100.2 282.9,96.8 300.65,96.8 300.65,100.2 "/>
      <path class="fil3" d="M285.45 89.35c1.733,-1.667 3.833,-2.5 6.3,-2.5l0.05 0c2.466,0 4.55,0.833 6.25,2.5 1.733,1.7 2.6,3.767 2.6,6.2l0 1.25 -17.75 0 0 -1.25c0,-2.433 0.85,-4.5 2.55,-6.2z"/>
     </g>
    </g>
   </g>
  </g>
  <g id="legRight_FL_FL_FL_FL_FL">
   <g>
    <g>
     <g>
      <polygon class="fil0" points="368.861,98.588 366.776,96.226 382.148,87.352 383.556,88.998 "/>
      <path class="fil1" d="M373.613 104.144l-4.752 -5.556 14.695 -9.59 0.523 2.956 1.343 -0.775c1.461,-0.106 3.068,0.134 4.82,0.721l1.514 1.77 -18.143 10.474z"/>
      <polygon class="fil2" points="366.776,96.226 364.383,93.428 379.754,84.553 382.148,87.352 "/>
      <path class="fil3" d="M361.346 86.021c0.328,-2.239 1.56,-3.975 3.696,-5.208l0.043 -0.025c2.137,-1.233 4.527,-1.589 7.173,-1.067 2.698,0.533 4.903,1.8 6.616,3.803l0.88 1.029 -15.371 8.875 -0.881 -1.029c-1.712,-2.003 -2.431,-4.129 -2.156,-6.378z"/>
     </g>
    </g>
   </g>
  </g>
  <g id="legRight_FL_FL_FL_FL_FL_FL">
   <g>
    <g>
     <g>
      <polygon class="fil0" points="54.112,215.119 52.026,213.104 64.577,200.553 65.991,201.967 "/>
      <path class="fil1" d="M58.885 219.892l-4.773 -4.773 11.879 -13.152 0.778 2.97 1.096 -1.096c1.273,-0.424 2.711,-0.518 4.313,-0.283l1.521 1.521 -14.814 14.813z"/>
      <polygon class="fil2" points="52.026,213.104 49.621,210.7 62.173,198.149 64.577,200.553 "/>
      <path class="fil3" d="M46.157 203.629c0.047,-2.404 0.943,-4.479 2.687,-6.223l0.035 -0.035c1.744,-1.744 3.807,-2.628 6.188,-2.651 2.427,-0.024 4.501,0.824 6.222,2.545l0.884 0.884 -12.552 12.551 -0.883 -0.884c-1.721,-1.721 -2.581,-3.783 -2.581,-6.187z"/>
     </g>
    </g>
   </g>
  </g>
  <g id="legRight_FL_FL_FL_FL_FL_FL_FL">
   <g>
    <g>
     <g>
      <polygon class="fil0" points="116.2,213.1 116.15,210.2 133.9,210.2 133.9,212.2 "/>
      <path class="fil1" d="M116.2 219.85l0 -6.75 17.7 -0.9 -1.55 2.65 1.55 0c1.2,0.6 2.283,1.55 3.25,2.85l0 2.15 -20.95 0z"/>
      <polygon class="fil2" points="116.15,210.2 116.15,206.8 133.9,206.8 133.9,210.2 "/>
      <path class="fil3" d="M118.7 199.35c1.733,-1.667 3.833,-2.5 6.3,-2.5l0.05 0c2.466,0 4.55,0.833 6.25,2.5 1.733,1.7 2.6,3.767 2.6,6.2l0 1.25 -17.75 0 0 -1.25c0,-2.433 0.85,-4.5 2.55,-6.2z"/>
     </g>
    </g>
   </g>
  </g>
  <g id="legRight_FL_FL_FL_FL_FL_FL_FL_FL">
   <g>
    <g>
     <g>
      <polygon class="fil0" points="193.45,213.1 193.4,210.2 211.15,210.2 211.15,212.2 "/>
      <path class="fil1" d="M193.45 219.85l0 -6.75 17.7 -0.9 -1.55 2.65 1.55 0c1.2,0.6 2.283,1.55 3.25,2.85l0 2.15 -20.95 0z"/>
      <polygon class="fil2" points="193.4,210.2 193.4,206.8 211.15,206.8 211.15,210.2 "/>
      <path class="fil3" d="M195.95 199.35c1.733,-1.667 3.833,-2.5 6.3,-2.5l0.05 0c2.466,0 4.55,0.833 6.25,2.5 1.733,1.7 2.6,3.767 2.6,6.2l0 1.25 -17.75 0 0 -1.25c0,-2.433 0.85,-4.5 2.55,-6.2z"/>
     </g>
    </g>
   </g>
  </g>
  <g id="legRight_FL_FL_FL_FL_FL_FL_FL_FL_FL">
   <g>
    <g>
     <g>
      <polygon class="fil0" points="366.683,212.14 364.123,210.709 374.904,196.627 376.648,197.641 "/>
      <path class="fil1" d="M372.571 215.562l-5.888 -3.422 9.965 -14.499 1.371 2.573 0.941 -1.23c1.253,-0.648 2.739,-1.026 4.46,-1.133l1.876 1.089 -12.725 16.622z"/>
      <polygon class="fil2" points="364.123,210.709 361.157,208.986 371.938,194.903 374.904,196.627 "/>
      <path class="fil3" d="M356.207 203.186c-0.401,-2.22 0.147,-4.309 1.645,-6.266l0.031 -0.039c1.498,-1.957 3.49,-3.188 5.977,-3.691 2.536,-0.514 4.865,-0.154 6.988,1.08l1.09 0.633 -10.781 14.083 -1.09 -0.634c-2.123,-1.233 -3.41,-2.955 -3.86,-5.166z"/>
     </g>
    </g>
   </g>
  </g>
  <g id="legRight_FL_FL_FL_FL_FL_FL_FL_FL_FL_FL">
   <g>
    <g>
     <g>
      <polygon class="fil0" points="430.25,213.1 430.2,210.2 447.95,210.2 447.95,212.2 "/>
      <path class="fil1" d="M430.25 219.85l0 -6.75 17.7 -0.9 -1.55 2.65 1.55 0c1.2,0.6 2.283,1.55 3.25,2.85l0 2.15 -20.95 0z"/>
      <polygon class="fil2" points="430.2,210.2 430.2,206.8 447.95,206.8 447.95,210.2 "/>
      <path class="fil3" d="M432.75 199.35c1.733,-1.667 3.834,-2.5 6.3,-2.5l0.05 0c2.467,0 4.55,0.833 6.25,2.5 1.733,1.7 2.6,3.767 2.6,6.2l0 1.25 -17.75 0 0 -1.25c0,-2.433 0.85,-4.5 2.55,-6.2z"/>
     </g>
    </g>
   </g>
  </g>
  <g id="legRight_FL_FL_FL_FL_FL_FL_FL_FL_FL_FL_FL">
   <g>
    <g>
     <g>
      <polygon class="fil0" points="538.75,206.33 535.826,205.583 546.789,190.781 548.785,191.325 "/>
      <path class="fil1" d="M545.484 208.167l-6.734 -1.837 10.035 -15.005 1.686 2.014 0.957 -1.293c1.34,-0.838 2.957,-1.482 4.851,-1.935l2.145 0.585 -12.94 17.471z"/>
      <polygon class="fil2" points="535.826,205.583 532.434,204.658 543.398,189.856 546.789,190.781 "/>
      <path class="fil3" d="M526.577 200.505c-0.592,-1.899 -0.126,-3.878 1.397,-5.934l0.031 -0.042c1.524,-2.057 3.642,-3.568 6.355,-4.532 2.766,-0.983 5.363,-1.143 7.791,-0.481l1.247 0.34 -10.964 14.802 -1.247 -0.34c-2.428,-0.662 -3.964,-1.933 -4.61,-3.813z"/>
     </g>
    </g>
   </g>
  </g>
  <g id="legRight_FL_FL_FL_FL_FL_FL_FL_FL_FL_FL_FL_FL">
   <g>
    <g>
     <g>
      <polygon class="fil0" points="603,103.1 602.95,100.2 620.7,100.2 620.7,102.2 "/>
      <path class="fil1" d="M603 109.85l0 -6.75 17.7 -0.9 -1.55 2.65 1.55 0c1.2,0.6 2.284,1.55 3.25,2.85l0 2.15 -20.95 0z"/>
      <polygon class="fil2" points="602.95,100.2 602.95,96.8 620.7,96.8 620.7,100.2 "/>
      <path class="fil3" d="M605.5 89.35c1.734,-1.667 3.833,-2.5 6.3,-2.5l0.05 0c2.467,0 4.55,0.833 6.25,2.5 1.734,1.7 2.6,3.767 2.6,6.2l0 1.25 -17.75 0 0 -1.25c0,-2.433 0.85,-4.5 2.55,-6.2z"/>
     </g>
    </g>
   </g>
  </g>
  <g id="legRight_FL_FL_FL_FL_FL_FL_FL_FL_FL_FL_FL_FL_FL">
   <g>
    <g>
     <g>
      <polygon class="fil0" points="603.562,207.269 603.085,204.408 620.641,201.79 620.936,203.768 "/>
      <path class="fil1" d="M604.558 213.945l-0.996 -6.676 17.374 -3.501 -1.142 2.85 1.533 -0.229c1.276,0.416 2.487,1.196 3.635,2.339l0.317 2.127 -20.721 3.09z"/>
      <polygon class="fil2" points="603.085,204.408 602.584,201.045 620.14,198.427 620.641,201.79 "/>
      <path class="fil3" d="M604.007 193.301c1.469,-1.904 3.423,-3.038 5.862,-3.402l0.05 -0.008c2.44,-0.363 4.623,0.153 6.55,1.551 1.965,1.426 3.127,3.342 3.486,5.749l0.185 1.236 -17.556 2.618 -0.185 -1.236c-0.359,-2.407 0.177,-4.576 1.608,-6.508z"/>
     </g>
    </g>
   </g>
  </g>
  <g id="legRight_FL_FL_FL_FL_FL_FL_FL_FL_FL_FL_FL_FL_FL_FL">
   <g>
    <g>
     <g>
      <polygon class="fil0" points="139.262,313.619 137.176,311.604 149.727,299.053 151.141,300.467 "/>
      <path class="fil1" d="M144.035 318.392l-4.773 -4.773 11.879 -13.152 0.778 2.97 1.096 -1.096c1.273,-0.424 2.71,-0.518 4.313,-0.282l1.52 1.52 -14.813 14.813z"/>
      <polygon class="fil2" points="137.176,311.604 134.772,309.2 147.323,296.649 149.727,299.053 "/>
      <path class="fil3" d="M131.307 302.129c0.047,-2.404 0.943,-4.478 2.687,-6.223l0.035 -0.035c1.745,-1.744 3.807,-2.628 6.187,-2.652 2.428,-0.023 4.502,0.826 6.223,2.546l0.884 0.884 -12.551 12.551 -0.884 -0.884c-1.72,-1.72 -2.581,-3.783 -2.581,-6.187z"/>
     </g>
    </g>
   </g>
  </g>
  <g id="legRight_FL_FL_FL_FL_FL_FL_FL_FL_FL_FL_FL_FL_FL_FL_FL">
   <g>
    <g>
     <g>
      <polygon class="fil0" points="683.261,204.249 683.145,201.351 700.891,200.952 700.936,202.951 "/>
      <path class="fil1" d="M683.412 210.997l-0.151 -6.748 17.675 -1.298 -1.49 2.684 1.55 -0.035c1.213,0.573 2.317,1.499 3.313,2.777l0.048 2.149 -20.945 0.471z"/>
      <polygon class="fil2" points="683.145,201.351 683.069,197.952 700.815,197.552 700.891,200.952 "/>
      <path class="fil3" d="M685.451 190.446c1.695,-1.705 3.776,-2.586 6.242,-2.641l0.05 -0.001c2.466,-0.055 4.568,0.731 6.305,2.359 1.771,1.66 2.684,3.707 2.738,6.14l0.029 1.249 -17.746 0.4 -0.028 -1.25c-0.055,-2.433 0.748,-4.518 2.41,-6.256z"/>
     </g>
    </g>
   </g>
  </g>
  <g id="legRight_FL_FL_FL_FL_FL_FL_FL_FL_FL_FL_FL_FL_FL_FL_FL_FL">
   <g>
    <g>
     <g>
      <polygon class="fil0" points="274.454,213.1 273.776,210.2 291.526,210.2 291.959,212.2 "/>
      <path class="fil1" d="M275.918 219.85l-1.464 -6.75 17.505 -0.9 -0.975 2.65 1.55 0c1.33,0.6 2.619,1.55 3.867,2.85l0.466 2.15 -20.949 0z"/>
      <polygon class="fil2" points="273.776,210.2 273.039,206.8 290.789,206.8 291.526,210.2 "/>
      <path class="fil3" d="M273.975 199.35c1.372,-1.667 3.291,-2.5 5.758,-2.5l0.05 0c2.466,0 4.73,0.833 6.792,2.5 2.101,1.7 3.416,3.767 3.943,6.2l0.271 1.25 -17.75 0 -0.271 -1.25c-0.527,-2.433 -0.125,-4.5 1.207,-6.2z"/>
     </g>
    </g>
   </g>
  </g>
  <g id="legRight_FL_FL_FL_FL_FL_FL_FL_FL_FL_FL_FL_FL_FL_FL_FL_FL_FL">
   <g>
    <g>
     <g>
      <polygon class="fil0" points="209.707,307.418 210.413,304.603 226.375,309.397 225.858,311.328 "/>
      <path class="fil1" d="M207.96 313.938l1.747 -6.52 16.151 3.91 -2.08 2.141 1.394 0.419c0.924,0.904 1.652,2.114 2.185,3.631l-0.556 2.076 -18.841 -5.657z"/>
      <polygon class="fil2" points="210.413,304.603 211.292,301.319 227.255,306.113 226.375,309.397 "/>
      <path class="fil3" d="M215.514 294.812c1.99,-1.142 4.094,-1.38 6.313,-0.714l0.045 0.014c2.218,0.666 3.876,2.033 4.973,4.102 1.119,2.11 1.363,4.341 0.734,6.691l-0.324 1.208 -15.963 -4.794 0.324 -1.207c0.63,-2.351 1.929,-4.117 3.898,-5.3z"/>
     </g>
    </g>
   </g>
  </g>
  <g id="legLeft_FL_FL_FL_FL_FL_FL_FL_FL_FL_FL_FL_FL_FL_FL_FL_FL_FL_FL">
   <g>
    <g>
     <g>
      <polygon class="fil0" points="285.494,321.205 283.475,318.781 301.491,313.182 302.848,314.865 "/>
      <path class="fil1" d="M290.076 326.883l-4.582 -5.678 17.354 -6.34 0.225 2.718 1.573 -0.489c1.626,0.126 3.37,0.584 5.233,1.372l1.46 1.809 -21.263 6.608z"/>
      <polygon class="fil2" points="283.475,318.781 281.168,315.92 299.183,310.322 301.491,313.182 "/>
      <path class="fil3" d="M278.699 308.849c0.628,-1.949 2.194,-3.312 4.698,-4.09l0.05 -0.016c2.504,-0.778 5.184,-0.734 8.041,0.132 2.913,0.883 5.195,2.348 6.846,4.395l0.849 1.052 -18.015 5.598 -0.849 -1.051c-1.651,-2.047 -2.191,-4.054 -1.62,-6.02z"/>
     </g>
    </g>
   </g>
  </g>
  <g id="legRight_FL_FL_FL_FL_FL_FL_FL_FL_FL_FL_FL_FL_FL_FL_FL_FL_FL_FL_FL_FL">
   <g>
    <g>
     <g>
      <polygon class="fil0" points="362.95,323.1 362.9,320.2 380.65,320.2 380.65,322.2 "/>
      <path class="fil1" d="M362.95 329.85l0 -6.75 17.7 -0.9 -1.55 2.65 1.55 0c1.2,0.6 2.283,1.55 3.25,2.85l0 2.15 -20.95 0z"/>
      <polygon class="fil2" points="362.9,320.2 362.9,316.8 380.65,316.8 380.65,320.2 "/>
      <path class="fil3" d="M365.45 309.35c1.733,-1.667 3.833,-2.5 6.3,-2.5l0.05 0c2.467,0 4.55,0.833 6.25,2.5 1.733,1.7 2.6,3.767 2.6,6.2l0 1.25 -17.75 0 0 -1.25c0,-2.433 0.85,-4.5 2.55,-6.2z"/>
     </g>
    </g>
   </g>
  </g>
  <g id="legRight_FL_FL_FL_FL_FL_FL_FL_FL_FL_FL_FL_FL_FL_FL_FL_FL_FL_FL_FL_FL_FL">
   <g>
    <g>
     <g>
      <polygon class="fil0" points="443.952,323.1 443.588,320.2 461.338,320.2 461.555,322.2 "/>
      <path class="fil1" d="M444.684 329.85l-0.732 -6.75 17.603 -0.9 -1.263 2.65 1.55 0c1.265,0.6 2.451,1.55 3.559,2.85l0.233 2.15 -20.95 0z"/>
      <polygon class="fil2" points="443.588,320.2 443.22,316.8 460.97,316.8 461.338,320.2 "/>
      <path class="fil3" d="M444.962 309.35c1.553,-1.667 3.563,-2.5 6.029,-2.5l0.051 0c2.466,0 4.64,0.833 6.521,2.5 1.917,1.7 3.008,3.767 3.271,6.2l0.136 1.25 -17.75 0 -0.136 -1.25c-0.264,-2.433 0.363,-4.5 1.878,-6.2z"/>
     </g>
    </g>
   </g>
  </g>
  <g id="legLeft_FL_FL_FL_FL_FL_FL_FL_FL_FL_FL_FL_FL_FL_FL_FL_FL_FL_FL_FL_FL_FL">
   <g>
    <g>
     <g>
      <polygon class="fil0" points="524.144,92.428 524.475,89.505 541.522,94.465 541.26,96.471 "/>
      <path class="fil1" d="M523.26 99.199l0.884 -6.771 17.116 4.043 -1.835 2.225 1.488 0.433c1.074,0.937 1.99,2.193 2.748,3.767l-0.281 2.157 -20.12 -5.854z"/>
      <polygon class="fil2" points="524.475,89.505 524.92,86.094 541.967,91.054 541.522,94.465 "/>
      <path class="fil3" d="M528.345 79.334c1.883,-1.188 4.009,-1.437 6.378,-0.748l0.048 0.014c2.369,0.69 4.26,2.107 5.675,4.255 1.442,2.189 2.004,4.504 1.685,6.945l-0.164 1.254 -17.047 -4.96 0.164 -1.254c0.319,-2.441 1.405,-4.276 3.261,-5.506z"/>
     </g>
    </g>
   </g>
  </g>
  <g id="legRight_FL_FL_FL_FL_FL_FL_FL_FL_FL_FL_FL_FL_FL_FL_FL_FL_FL_FL_FL_FL_FL_FL_FL">
   <g>
    <g>
     <g>
      <polygon class="fil0" points="693.021,104.215 691.135,102.044 705.639,91.445 706.911,92.963 "/>
      <path class="fil1" d="M697.314 109.338l-4.293 -5.123 13.89 -11.252 0.419 2.937 1.266 -0.925c1.363,-0.261 2.852,-0.187 4.469,0.222l1.367 1.632 -17.118 12.509z"/>
      <polygon class="fil2" points="691.135,102.044 688.973,99.463 703.476,88.864 705.639,91.445 "/>
      <path class="fil3" d="M686.318 92.286c0.356,-2.3 1.542,-4.187 3.558,-5.66l0.04 -0.03c2.016,-1.473 4.248,-2.084 6.697,-1.834 2.498,0.256 4.52,1.307 6.068,3.154l0.795 0.948 -14.503 10.599 -0.795 -0.949c-1.548,-1.847 -2.168,-3.923 -1.86,-6.228z"/>
     </g>
    </g>
   </g>
  </g>
  <g id="legRight_FL_FL_FL_FL_FL_FL_FL_FL_FL_FL_FL_FL_FL_FL_FL_FL_FL_FL_FL_FL_FL_FL_FL_FL">
   <g>
    <g>
     <g>
      <polygon class="fil0" points="442.45,85.053 443.256,82.272 459.978,88.444 459.39,90.35 "/>
      <path class="fil1" d="M440.467 91.486l1.983 -6.433 16.94 5.297 -2.239 1.987 1.461 0.539c0.954,0.989 1.695,2.271 2.224,3.846l-0.632 2.048 -19.737 -7.284z"/>
      <polygon class="fil2" points="443.256,82.272 444.254,79.032 460.977,85.204 459.978,88.444 "/>
      <path class="fil3" d="M448.845 72.819c2.123,-0.986 4.347,-1.05 6.671,-0.192l0.046 0.017c2.324,0.858 4.042,2.376 5.154,4.556 1.134,2.223 1.343,4.493 0.628,6.813l-0.367 1.191 -16.723 -6.172 0.368 -1.191c0.715,-2.32 2.122,-3.993 4.223,-5.022z"/>
     </g>
    </g>
   </g>
  </g>
 </g>
</svg>
