<?xml version="1.0" encoding="UTF-8"?>
<!DOCTYPE svg PUBLIC "-//W3C//DTD SVG 1.1//EN" "http://www.w3.org/Graphics/SVG/1.1/DTD/svg11.dtd">
<!-- Creator: CorelDRAW 2018 (64-Bit) -->
<svg xmlns="http://www.w3.org/2000/svg" xml:space="preserve" width="720px" height="330px" version="1.1" style="shape-rendering:geometricPrecision; text-rendering:geometricPrecision; image-rendering:optimizeQuality; fill-rule:evenodd; clip-rule:evenodd"
viewBox="0 0 720 330"
 xmlns:xlink="http://www.w3.org/1999/xlink">
 <defs>
  <style type="text/css">
   <![CDATA[
    .fil2 {fill:#484848}
    .fil3 {fill:#545454}
    .fil0 {fill:#AA7847}
    .fil1 {fill:#B8824D}
   ]]>
  </style>
 </defs>
 <g id="Слой_x0020_1">
  <metadata id="CorelCorpID_0Corel-Layer"/>
  <g id="legRight">
   <g>
    <g>
     <g>
      <polygon class="fil0" points="33.347,321.5 33.062,319.2 50.608,317.55 51.097,321.5 "/>
      <path class="fil1" d="M40.383 306.85l0.05 0c2.467,0 4.653,0.833 6.559,2.5 1.944,1.7 3.067,3.767 3.368,6.2l0.248 2 -17.546 1.65 -0.452 -3.65c-0.301,-2.433 0.293,-4.5 1.782,-6.2 1.527,-1.667 3.524,-2.5 5.991,-2.5z"/>
      <polygon class="fil2" points="33.768,324.9 33.347,321.5 51.097,321.5 51.512,324.85 51.518,324.9 33.818,324.9 "/>
      <path class="fil3" d="M34.431 329.85l-0.613 -4.95 17.7 0 -0.006 -0.05c1.274,0.6 2.475,1.55 3.603,2.85l0.266 2.15 -20.95 0z"/>
     </g>
    </g>
   </g>
  </g>
  <g id="legRight_FL">
   <g>
    <g>
     <g>
      <polygon class="fil0" points="42.9,101.5 42.9,99.2 60.65,97.55 60.65,101.5 "/>
      <path class="fil1" d="M51.75 86.85l0.05 0c2.467,0 4.55,0.833 6.25,2.5 1.733,1.7 2.6,3.767 2.6,6.2l0 2 -17.75 1.65 0 -3.65c0,-2.433 0.85,-4.5 2.55,-6.2 1.733,-1.667 3.833,-2.5 6.3,-2.5z"/>
      <polygon class="fil2" points="42.9,104.9 42.9,101.5 60.65,101.5 60.65,104.85 60.65,104.9 42.95,104.9 "/>
      <path class="fil3" d="M42.95 109.85l0 -4.95 17.7 0 0 -0.05c1.2,0.6 2.283,1.55 3.25,2.85l0 2.15 -20.95 0z"/>
     </g>
    </g>
   </g>
  </g>
  <g id="legRight_FL_FL">
   <g>
    <g>
     <g>
      <polygon class="fil0" points="124.638,89.615 125.228,87.393 143.202,88.313 142.189,92.128 "/>
      <path class="fil1" d="M137.147 76.717l0.05 0.007c2.439,0.349 4.285,1.45 5.538,3.3 1.278,1.888 1.605,4.007 0.98,6.357l-0.513 1.932 -17.974 -0.92 0.937 -3.526c0.624,-2.35 1.995,-4.226 4.112,-5.627 2.142,-1.365 4.432,-1.872 6.87,-1.523z"/>
      <polygon class="fil2" points="123.766,92.899 124.638,89.615 142.189,92.128 141.329,95.364 141.316,95.412 123.815,92.906 "/>
      <path class="fil3" d="M122.545 97.687l1.27 -4.781 17.501 2.506 0.013 -0.048c1.032,0.749 1.86,1.821 2.482,3.213l-0.552 2.077 -20.714 -2.967z"/>
     </g>
    </g>
   </g>
  </g>
  <g id="legRight_FL_FL_FL">
   <g>
    <g>
     <g>
      <polygon class="fil0" points="207.156,99.761 206.56,97.54 224.128,94.522 225.15,98.337 "/>
      <path class="fil1" d="M212.336 84.9l0.051 -0.003c2.501,-0.198 4.828,0.439 6.983,1.913 2.197,1.503 3.611,3.43 4.24,5.78l0.518 1.932 -17.568 3.018 -0.944 -3.526c-0.63,-2.351 -0.303,-4.415 0.98,-6.193 1.326,-1.749 3.239,-2.723 5.74,-2.921z"/>
      <polygon class="fil2" points="208.036,103.046 207.156,99.761 225.15,98.337 226.017,101.573 226.03,101.621 208.086,103.041 "/>
      <path class="fil3" d="M209.368 107.823l-1.282 -4.782 17.944 -1.42 -0.013 -0.048c1.372,0.483 2.716,1.314 4.033,2.492l0.556 2.077 -21.238 1.681z"/>
     </g>
    </g>
   </g>
  </g>
  <g id="legRight_FL_FL_FL_FL">
   <g>
    <g>
     <g>
      <polygon class="fil0" points="282.9,101.5 282.9,99.2 300.65,97.55 300.65,101.5 "/>
      <path class="fil1" d="M291.75 86.85l0.05 0c2.466,0 4.55,0.833 6.25,2.5 1.733,1.7 2.6,3.767 2.6,6.2l0 2 -17.75 1.65 0 -3.65c0,-2.433 0.85,-4.5 2.55,-6.2 1.733,-1.667 3.833,-2.5 6.3,-2.5z"/>
      <polygon class="fil2" points="282.9,104.9 282.9,101.5 300.65,101.5 300.65,104.85 300.65,104.9 282.95,104.9 "/>
      <path class="fil3" d="M282.95 109.85l0 -4.95 17.7 0 0 -0.05c1.2,0.6 2.283,1.55 3.25,2.85l0 2.15 -20.95 0z"/>
     </g>
    </g>
   </g>
  </g>
  <g id="legRight_FL_FL_FL_FL_FL">
   <g>
    <g>
     <g>
      <polygon class="fil0" points="367.691,97.296 366.072,95.403 380.282,85.171 383.063,88.422 "/>
      <path class="fil1" d="M365.042 80.813l0.043 -0.025c2.137,-1.233 4.527,-1.589 7.173,-1.067 2.698,0.533 4.903,1.8 6.616,3.803l1.408 1.647 -14.21 10.232 -2.57 -3.004c-1.712,-2.003 -2.431,-4.129 -2.156,-6.378 0.328,-2.239 1.56,-3.975 3.696,-5.208z"/>
      <polygon class="fil2" points="370.085,100.095 367.691,97.296 383.063,88.422 385.422,91.179 385.457,91.22 370.128,100.07 "/>
      <path class="fil3" d="M373.613 104.144l-3.485 -4.074 15.329 -8.85 -0.035 -0.041c1.461,-0.106 3.068,0.134 4.82,0.721l1.514 1.77 -18.143 10.474z"/>
     </g>
    </g>
   </g>
  </g>
  <g id="legRight_FL_FL_FL_FL_FL_FL">
   <g>
    <g>
     <g>
      <polygon class="fil0" points="52.945,214.023 51.318,212.397 62.703,198.679 65.496,201.472 "/>
      <path class="fil1" d="M48.844 197.406l0.035 -0.035c1.744,-1.744 3.807,-2.628 6.188,-2.651 2.427,-0.024 4.501,0.824 6.222,2.545l1.414 1.414 -11.385 13.718 -2.58 -2.581c-1.721,-1.721 -2.581,-3.783 -2.581,-6.187 0.047,-2.404 0.943,-4.479 2.687,-6.223z"/>
      <polygon class="fil2" points="55.349,216.427 52.945,214.023 65.496,201.472 67.865,203.841 67.9,203.877 55.384,216.392 "/>
      <path class="fil3" d="M58.885 219.892l-3.501 -3.5 12.516 -12.515 -0.035 -0.036c1.273,-0.424 2.711,-0.518 4.313,-0.283l1.521 1.521 -14.814 14.813z"/>
     </g>
    </g>
   </g>
  </g>
  <g id="legRight_FL_FL_FL_FL_FL_FL_FL">
   <g>
    <g>
     <g>
      <polygon class="fil0" points="116.15,211.5 116.15,209.2 133.9,207.55 133.9,211.5 "/>
      <path class="fil1" d="M125 196.85l0.05 0c2.466,0 4.55,0.833 6.25,2.5 1.733,1.7 2.6,3.767 2.6,6.2l0 2 -17.75 1.65 0 -3.65c0,-2.433 0.85,-4.5 2.55,-6.2 1.733,-1.667 3.833,-2.5 6.3,-2.5z"/>
      <polygon class="fil2" points="116.15,214.9 116.15,211.5 133.9,211.5 133.9,214.85 133.9,214.9 116.2,214.9 "/>
      <path class="fil3" d="M116.2 219.85l0 -4.95 17.7 0 0 -0.05c1.2,0.6 2.283,1.55 3.25,2.85l0 2.15 -20.95 0z"/>
     </g>
    </g>
   </g>
  </g>
  <g id="legRight_FL_FL_FL_FL_FL_FL_FL_FL">
   <g>
    <g>
     <g>
      <polygon class="fil0" points="193.4,211.5 193.4,209.2 211.15,207.55 211.15,211.5 "/>
      <path class="fil1" d="M202.25 196.85l0.05 0c2.466,0 4.55,0.833 6.25,2.5 1.733,1.7 2.6,3.767 2.6,6.2l0 2 -17.75 1.65 0 -3.65c0,-2.433 0.85,-4.5 2.55,-6.2 1.733,-1.667 3.833,-2.5 6.3,-2.5z"/>
      <polygon class="fil2" points="193.4,214.9 193.4,211.5 211.15,211.5 211.15,214.85 211.15,214.9 193.45,214.9 "/>
      <path class="fil3" d="M193.45 219.85l0 -4.95 17.7 0 0 -0.05c1.2,0.6 2.283,1.55 3.25,2.85l0 2.15 -20.95 0z"/>
     </g>
    </g>
   </g>
  </g>
  <g id="legRight_FL_FL_FL_FL_FL_FL_FL_FL_FL">
   <g>
    <g>
     <g>
      <polygon class="fil0" points="365.257,211.368 363.25,210.202 372.592,195.283 376.038,197.286 "/>
      <path class="fil1" d="M357.852 196.92l0.031 -0.039c1.498,-1.957 3.49,-3.188 5.977,-3.691 2.536,-0.514 4.865,-0.154 6.988,1.08l1.744 1.013 -9.342 14.919 -3.183 -1.85c-2.123,-1.233 -3.41,-2.955 -3.86,-5.166 -0.401,-2.22 0.147,-4.309 1.645,-6.266z"/>
      <polygon class="fil2" points="368.223,213.092 365.257,211.368 376.038,197.286 378.96,198.984 379.004,199.009 368.253,213.052 "/>
      <path class="fil3" d="M372.571 215.562l-4.318 -2.51 10.751 -14.043 -0.044 -0.025c1.253,-0.648 2.739,-1.026 4.46,-1.133l1.876 1.089 -12.725 16.622z"/>
     </g>
    </g>
   </g>
  </g>
  <g id="legRight_FL_FL_FL_FL_FL_FL_FL_FL_FL_FL">
   <g>
    <g>
     <g>
      <polygon class="fil0" points="430.2,211.5 430.2,209.2 447.95,207.55 447.95,211.5 "/>
      <path class="fil1" d="M439.05 196.85l0.05 0c2.467,0 4.55,0.833 6.25,2.5 1.733,1.7 2.6,3.767 2.6,6.2l0 2 -17.75 1.65 0 -3.65c0,-2.433 0.85,-4.5 2.55,-6.2 1.733,-1.667 3.834,-2.5 6.3,-2.5z"/>
      <polygon class="fil2" points="430.2,214.9 430.2,211.5 447.95,211.5 447.95,214.85 447.95,214.9 430.25,214.9 "/>
      <path class="fil3" d="M430.25 219.85l0 -4.95 17.7 0 0 -0.05c1.2,0.6 2.283,1.55 3.25,2.85l0 2.15 -20.95 0z"/>
     </g>
    </g>
   </g>
  </g>
  <g id="legRight_FL_FL_FL_FL_FL_FL_FL_FL_FL_FL_FL">
   <g>
    <g>
     <g>
      <polygon class="fil0" points="537.123,205.936 534.828,205.311 544.146,190.06 548.086,191.134 "/>
      <path class="fil1" d="M527.974 194.571l0.031 -0.042c1.524,-2.057 3.642,-3.568 6.355,-4.532 2.766,-0.983 5.363,-1.143 7.791,-0.481l1.995 0.544 -9.318 15.251 -3.641 -0.993c-2.428,-0.662 -3.964,-1.933 -4.61,-3.813 -0.592,-1.899 -0.126,-3.878 1.397,-5.934z"/>
      <polygon class="fil2" points="540.515,206.862 537.123,205.936 548.086,191.134 551.428,192.046 551.478,192.06 540.546,206.82 "/>
      <path class="fil3" d="M545.484 208.167l-4.938 -1.347 10.932 -14.76 -0.05 -0.014c1.34,-0.838 2.957,-1.482 4.851,-1.935l2.145 0.585 -12.94 17.471z"/>
     </g>
    </g>
   </g>
  </g>
  <g id="legRight_FL_FL_FL_FL_FL_FL_FL_FL_FL_FL_FL_FL">
   <g>
    <g>
     <g>
      <polygon class="fil0" points="602.95,101.5 602.95,99.2 620.7,97.55 620.7,101.5 "/>
      <path class="fil1" d="M611.8 86.85l0.05 0c2.467,0 4.55,0.833 6.25,2.5 1.734,1.7 2.6,3.767 2.6,6.2l0 2 -17.75 1.65 0 -3.65c0,-2.433 0.85,-4.5 2.55,-6.2 1.734,-1.667 3.833,-2.5 6.3,-2.5z"/>
      <polygon class="fil2" points="602.95,104.9 602.95,101.5 620.7,101.5 620.7,104.85 620.7,104.9 603,104.9 "/>
      <path class="fil3" d="M603 109.85l0 -4.95 17.7 0 0 -0.05c1.2,0.6 2.284,1.55 3.25,2.85l0 2.15 -20.95 0z"/>
     </g>
    </g>
   </g>
  </g>
  <g id="legRight_FL_FL_FL_FL_FL_FL_FL_FL_FL_FL_FL_FL_FL">
   <g>
    <g>
     <g>
      <polygon class="fil0" points="603.277,205.694 602.938,203.419 620.25,199.169 620.833,203.076 "/>
      <path class="fil1" d="M609.869 189.899l0.05 -0.008c2.44,-0.363 4.623,0.153 6.55,1.551 1.965,1.426 3.127,3.342 3.486,5.749l0.295 1.978 -17.312 4.25 -0.539 -3.61c-0.359,-2.407 0.177,-4.576 1.608,-6.508 1.469,-1.904 3.423,-3.038 5.862,-3.402z"/>
      <polygon class="fil2" points="603.779,209.057 603.277,205.694 620.833,203.076 621.327,206.389 621.335,206.438 603.828,209.049 "/>
      <path class="fil3" d="M604.558 213.945l-0.73 -4.896 17.507 -2.611 -0.008 -0.049c1.276,0.416 2.487,1.196 3.635,2.339l0.317 2.127 -20.721 3.09z"/>
     </g>
    </g>
   </g>
  </g>
  <g id="legRight_FL_FL_FL_FL_FL_FL_FL_FL_FL_FL_FL_FL_FL_FL">
   <g>
    <g>
     <g>
      <polygon class="fil0" points="138.095,312.523 136.469,310.897 147.853,297.179 150.646,299.972 "/>
      <path class="fil1" d="M133.994 295.906l0.035 -0.035c1.745,-1.744 3.807,-2.628 6.187,-2.652 2.428,-0.023 4.502,0.826 6.223,2.546l1.414 1.414 -11.384 13.718 -2.581 -2.581c-1.72,-1.72 -2.581,-3.783 -2.581,-6.187 0.047,-2.404 0.943,-4.478 2.687,-6.223z"/>
      <polygon class="fil2" points="140.499,314.928 138.095,312.523 150.646,299.972 153.015,302.341 153.05,302.377 140.535,314.892 "/>
      <path class="fil3" d="M144.035 318.392l-3.5 -3.5 12.515 -12.515 -0.035 -0.036c1.273,-0.424 2.71,-0.518 4.313,-0.282l1.52 1.52 -14.813 14.813z"/>
     </g>
    </g>
   </g>
  </g>
  <g id="legRight_FL_FL_FL_FL_FL_FL_FL_FL_FL_FL_FL_FL_FL_FL_FL">
   <g>
    <g>
     <g>
      <polygon class="fil0" points="683.175,202.651 683.123,200.351 700.831,198.302 700.92,202.251 "/>
      <path class="fil1" d="M691.693 187.805l0.05 -0.001c2.466,-0.055 4.568,0.731 6.305,2.359 1.771,1.66 2.684,3.707 2.738,6.14l0.045 1.999 -17.708 2.049 -0.082 -3.649c-0.055,-2.433 0.748,-4.518 2.41,-6.256 1.695,-1.705 3.776,-2.586 6.242,-2.641z"/>
      <polygon class="fil2" points="683.251,206.05 683.175,202.651 700.92,202.251 700.996,205.6 700.997,205.65 683.301,206.049 "/>
      <path class="fil3" d="M683.412 210.997l-0.111 -4.948 17.696 -0.399 -0.001 -0.05c1.213,0.573 2.317,1.499 3.313,2.777l0.048 2.149 -20.945 0.471z"/>
     </g>
    </g>
   </g>
  </g>
  <g id="legRight_FL_FL_FL_FL_FL_FL_FL_FL_FL_FL_FL_FL_FL_FL_FL_FL">
   <g>
    <g>
     <g>
      <polygon class="fil0" points="274.058,211.5 273.559,209.2 290.952,207.55 291.808,211.5 "/>
      <path class="fil1" d="M279.733 196.85l0.05 0c2.466,0 4.73,0.833 6.792,2.5 2.101,1.7 3.416,3.767 3.943,6.2l0.434 2 -17.393 1.65 -0.791 -3.65c-0.527,-2.433 -0.125,-4.5 1.207,-6.2 1.372,-1.667 3.291,-2.5 5.758,-2.5z"/>
      <polygon class="fil2" points="274.795,214.9 274.058,211.5 291.808,211.5 292.534,214.85 292.545,214.9 274.845,214.9 "/>
      <path class="fil3" d="M275.918 219.85l-1.073 -4.95 17.7 0 -0.011 -0.05c1.33,0.6 2.619,1.55 3.867,2.85l0.466 2.15 -20.949 0z"/>
     </g>
    </g>
   </g>
  </g>
  <g id="legRight_FL_FL_FL_FL_FL_FL_FL_FL_FL_FL_FL_FL_FL_FL_FL_FL_FL">
   <g>
    <g>
     <g>
      <polygon class="fil0" points="210.076,305.859 210.671,303.637 227.061,306.837 226.039,310.652 "/>
      <path class="fil1" d="M221.827 294.098l0.045 0.014c2.218,0.666 3.876,2.033 4.973,4.102 1.119,2.11 1.363,4.341 0.734,6.691l-0.518 1.932 -16.39 -3.2 0.945 -3.525c0.63,-2.351 1.929,-4.117 3.898,-5.3 1.99,-1.142 4.094,-1.38 6.313,-0.714z"/>
      <polygon class="fil2" points="209.196,309.143 210.076,305.859 226.039,310.652 225.172,313.888 225.159,313.937 209.241,309.157 "/>
      <path class="fil3" d="M207.96 313.938l1.281 -4.781 15.918 4.78 0.013 -0.049c0.924,0.904 1.652,2.114 2.185,3.631l-0.556 2.076 -18.841 -5.657z"/>
     </g>
    </g>
   </g>
  </g>
  <g id="legLeft_FL_FL_FL_FL_FL_FL_FL_FL_FL_FL_FL_FL_FL_FL_FL_FL_FL_FL">
   <g>
    <g>
     <g>
      <polygon class="fil0" points="284.358,319.875 282.797,317.939 299.692,310.953 302.373,314.276 "/>
      <path class="fil1" d="M283.397 304.759l0.05 -0.016c2.504,-0.778 5.184,-0.734 8.041,0.132 2.913,0.883 5.195,2.348 6.846,4.395l1.358 1.683 -16.895 6.986 -2.478 -3.07c-1.651,-2.047 -2.191,-4.054 -1.62,-6.02 0.628,-1.949 2.194,-3.312 4.698,-4.09z"/>
      <polygon class="fil2" points="286.665,322.735 284.358,319.875 302.373,314.276 304.646,317.094 304.681,317.136 286.716,322.719 "/>
      <path class="fil3" d="M290.076 326.883l-3.36 -4.164 17.965 -5.583 -0.035 -0.042c1.626,0.126 3.37,0.584 5.233,1.372l1.46 1.809 -21.263 6.608z"/>
     </g>
    </g>
   </g>
  </g>
  <g id="legRight_FL_FL_FL_FL_FL_FL_FL_FL_FL_FL_FL_FL_FL_FL_FL_FL_FL_FL_FL_FL">
   <g>
    <g>
     <g>
      <polygon class="fil0" points="362.9,321.5 362.9,319.2 380.65,317.55 380.65,321.5 "/>
      <path class="fil1" d="M371.75 306.85l0.05 0c2.467,0 4.55,0.833 6.25,2.5 1.733,1.7 2.6,3.767 2.6,6.2l0 2 -17.75 1.65 0 -3.65c0,-2.433 0.85,-4.5 2.55,-6.2 1.733,-1.667 3.833,-2.5 6.3,-2.5z"/>
      <polygon class="fil2" points="362.9,324.9 362.9,321.5 380.65,321.5 380.65,324.85 380.65,324.9 362.95,324.9 "/>
      <path class="fil3" d="M362.95 329.85l0 -4.95 17.7 0 0 -0.05c1.2,0.6 2.283,1.55 3.25,2.85l0 2.15 -20.95 0z"/>
     </g>
    </g>
   </g>
  </g>
  <g id="legRight_FL_FL_FL_FL_FL_FL_FL_FL_FL_FL_FL_FL_FL_FL_FL_FL_FL_FL_FL_FL_FL">
   <g>
    <g>
     <g>
      <polygon class="fil0" points="443.729,321.5 443.48,319.2 461.051,317.55 461.479,321.5 "/>
      <path class="fil1" d="M450.991 306.85l0.051 0c2.466,0 4.64,0.833 6.521,2.5 1.917,1.7 3.008,3.767 3.271,6.2l0.217 2 -17.571 1.65 -0.396 -3.65c-0.264,-2.433 0.363,-4.5 1.878,-6.2 1.553,-1.667 3.563,-2.5 6.029,-2.5z"/>
      <polygon class="fil2" points="444.097,324.9 443.729,321.5 461.479,321.5 461.842,324.85 461.847,324.9 444.147,324.9 "/>
      <path class="fil3" d="M444.684 329.85l-0.537 -4.95 17.7 0 -0.005 -0.05c1.265,0.6 2.451,1.55 3.559,2.85l0.233 2.15 -20.95 0z"/>
     </g>
    </g>
   </g>
  </g>
  <g id="legLeft_FL_FL_FL_FL_FL_FL_FL_FL_FL_FL_FL_FL_FL_FL_FL_FL_FL_FL_FL_FL_FL">
   <g>
    <g>
     <g>
      <polygon class="fil0" points="524.305,90.809 524.606,88.502 541.869,91.806 541.352,95.769 "/>
      <path class="fil1" d="M534.723 78.586l0.048 0.014c2.369,0.69 4.26,2.107 5.675,4.255 1.442,2.189 2.004,4.504 1.685,6.945l-0.262 2.006 -17.263 -3.304 0.478 -3.662c0.319,-2.441 1.405,-4.276 3.261,-5.506 1.883,-1.188 4.009,-1.437 6.378,-0.748z"/>
      <polygon class="fil2" points="523.86,94.22 524.305,90.809 541.352,95.769 540.913,99.129 540.907,99.179 523.908,94.234 "/>
      <path class="fil3" d="M523.26 99.199l0.648 -4.965 16.999 4.945 0.006 -0.05c1.074,0.937 1.99,2.193 2.748,3.767l-0.281 2.157 -20.12 -5.854z"/>
     </g>
    </g>
   </g>
  </g>
  <g id="legRight_FL_FL_FL_FL_FL_FL_FL_FL_FL_FL_FL_FL_FL_FL_FL_FL_FL_FL_FL_FL_FL_FL_FL">
   <g>
    <g>
     <g>
      <polygon class="fil0" points="691.962,103.03 690.499,101.285 703.953,89.434 706.465,92.432 "/>
      <path class="fil1" d="M689.876 86.626l0.04 -0.03c2.016,-1.473 4.248,-2.084 6.697,-1.834 2.498,0.256 4.52,1.307 6.068,3.154l1.272 1.518 -13.454 11.851 -2.321 -2.771c-1.548,-1.847 -2.168,-3.923 -1.86,-6.228 0.356,-2.3 1.542,-4.187 3.558,-5.66z"/>
      <polygon class="fil2" points="694.125,105.611 691.962,103.03 706.465,92.432 708.596,94.975 708.628,95.013 694.165,105.581 "/>
      <path class="fil3" d="M697.314 109.338l-3.149 -3.757 14.463 -10.568 -0.032 -0.038c1.363,-0.261 2.852,-0.187 4.469,0.222l1.367 1.632 -17.118 12.509z"/>
     </g>
    </g>
   </g>
  </g>
  <g id="legRight_FL_FL_FL_FL_FL_FL_FL_FL_FL_FL_FL_FL_FL_FL_FL_FL_FL_FL_FL_FL_FL_FL_FL_FL">
   <g>
    <g>
     <g>
      <polygon class="fil0" points="442.873,83.511 443.549,81.319 460.757,85.919 459.596,89.683 "/>
      <path class="fil1" d="M455.516 72.627l0.046 0.017c2.324,0.858 4.042,2.376 5.154,4.556 1.134,2.223 1.343,4.493 0.628,6.813l-0.587 1.906 -17.208 -4.6 1.073 -3.478c0.715,-2.32 2.122,-3.993 4.223,-5.022 2.123,-0.986 4.347,-1.05 6.671,-0.192z"/>
      <polygon class="fil2" points="441.874,86.751 442.873,83.511 459.596,89.683 458.612,92.876 458.597,92.923 441.922,86.769 "/>
      <path class="fil3" d="M440.467 91.486l1.455 -4.717 16.675 6.154 0.015 -0.047c0.954,0.989 1.695,2.271 2.224,3.846l-0.632 2.048 -19.737 -7.284z"/>
     </g>
    </g>
   </g>
  </g>
 </g>
</svg>
