<?xml version="1.0" encoding="UTF-8"?>
<!DOCTYPE svg PUBLIC "-//W3C//DTD SVG 1.1//EN" "http://www.w3.org/Graphics/SVG/1.1/DTD/svg11.dtd">
<!-- Creator: CorelDRAW 2018 (64-Bit) -->
<svg xmlns="http://www.w3.org/2000/svg" xml:space="preserve" width="720px" height="330px" version="1.1" style="shape-rendering:geometricPrecision; text-rendering:geometricPrecision; image-rendering:optimizeQuality; fill-rule:evenodd; clip-rule:evenodd"
viewBox="0 0 720 330"
 xmlns:xlink="http://www.w3.org/1999/xlink">
 <defs>
  <style type="text/css">
   <![CDATA[
    .fil1 {fill:#9F7042}
    .fil0 {fill:#B8824D}
    .fil2 {fill:#D4D0C9}
   ]]>
  </style>
 </defs>
 <g id="Слой_x0020_1">
  <metadata id="CorelCorpID_0Corel-Layer"/>
  <g id="legRight">
   <g>
    <g>
     <g>
      <path class="fil0" d="M34.18 320.15l-0.181 -5.9c-0.045,-2.174 0.599,-3.974 1.931,-5.4 1.283,-1.333 2.884,-2 4.803,-2l0.05 0c1.928,0 3.677,0.667 5.248,2 1.644,1.426 2.683,3.226 3.118,5.4l1.131 5.9 -16.1 0z"/>
      <polygon class="fil1" points="34.238,323.85 34.18,320.15 50.28,320.15 50.982,323.8 50.988,323.85 34.288,323.85 "/>
      <path class="fil2" d="M34.431 329.85l-0.143 -6 16.7 0 -0.006 -0.05c1.262,0.706 2.533,1.823 3.815,3.35l0.584 2.7 -20.95 0z"/>
     </g>
    </g>
   </g>
  </g>
  <g id="legRight_FL">
   <g>
    <g>
     <g>
      <path class="fil0" d="M43.9 100.15l0.55 -5.9c0.224,-2.174 1.09,-3.974 2.599,-5.4 1.448,-1.333 3.132,-2 5.051,-2l0.05 0c1.928,0 3.594,0.667 5,2 1.467,1.426 2.284,3.226 2.45,5.4l0.4 5.9 -16.1 0z"/>
      <polygon class="fil1" points="43.5,103.85 43.9,100.15 60,100.15 60.25,103.8 60.25,103.85 43.55,103.85 "/>
      <path class="fil2" d="M42.95 109.85l0.6 -6 16.7 0 0 -0.05c1.174,0.706 2.307,1.822 3.4,3.35l0.25 2.7 -20.95 0z"/>
     </g>
    </g>
   </g>
  </g>
  <g id="legRight_FL_FL">
   <g>
    <g>
     <g>
      <path class="fil0" d="M125.973 88.452l2.058 -5.621c0.779,-2.068 2.098,-3.684 3.956,-4.848 1.774,-1.082 3.609,-1.488 5.507,-1.216l0.049 0.007c1.907,0.273 3.383,1.153 4.431,2.64 1.085,1.585 1.43,3.439 1.037,5.563l-1.119 5.755 -15.919 -2.28z"/>
      <polygon class="fil1" points="124.628,91.97 125.973,88.452 141.892,90.732 141.203,94.293 141.19,94.342 124.678,91.977 "/>
      <path class="fil2" d="M122.545 97.687l2.133 -5.71 16.512 2.365 0.013 -0.049c0.98,0.848 1.814,2.087 2.502,3.717l-0.446 2.644 -20.714 -2.967z"/>
     </g>
    </g>
   </g>
  </g>
  <g id="legRight_FL_FL_FL">
   <g>
    <g>
     <g>
      <path class="fil0" d="M207.82 98.377l-0.969 -5.743c-0.336,-2.118 0.077,-3.926 1.238,-5.425 1.122,-1.404 2.657,-2.183 4.602,-2.337l0.051 -0.004c1.954,-0.154 3.816,0.356 5.586,1.531 1.857,1.26 3.151,2.933 3.882,5.02l1.932 5.666 -16.322 1.292z"/>
      <polygon class="fil1" points="208.372,101.983 207.82,98.377 224.142,97.085 225.34,100.591 225.353,100.639 208.423,101.979 "/>
      <path class="fil2" d="M209.368 107.823l-0.945 -5.844 16.93 -1.34 -0.013 -0.048c1.373,0.587 2.811,1.575 4.314,2.963l0.952 2.588 -21.238 1.681z"/>
     </g>
    </g>
   </g>
  </g>
  <g id="legRight_FL_FL_FL_FL">
   <g>
    <g>
     <g>
      <path class="fil0" d="M283.9 100.15l0.55 -5.9c0.224,-2.174 1.091,-3.974 2.6,-5.4 1.448,-1.333 3.131,-2 5.05,-2l0.05 0c1.928,0 3.595,0.667 5,2 1.467,1.426 2.284,3.226 2.45,5.4l0.4 5.9 -16.1 0z"/>
      <polygon class="fil1" points="283.5,103.85 283.9,100.15 300,100.15 300.25,103.8 300.25,103.85 283.55,103.85 "/>
      <path class="fil2" d="M282.95 109.85l0.6 -6 16.7 0 0 -0.05c1.174,0.706 2.308,1.822 3.4,3.35l0.25 2.7 -20.95 0z"/>
     </g>
    </g>
   </g>
  </g>
  <g id="legRight_FL_FL_FL_FL_FL">
   <g>
    <g>
     <g>
      <path class="fil0" d="M367.607 95.685l-3.677 -5.131c-1.336,-1.901 -1.853,-3.816 -1.55,-5.745 0.315,-1.821 1.304,-3.211 2.965,-4.171l0.043 -0.025c1.67,-0.964 3.583,-1.249 5.739,-0.854 2.274,0.44 4.249,1.514 5.923,3.22l4.5 4.657 -13.943 8.049z"/>
      <polygon class="fil1" points="369.865,98.931 367.607,95.685 381.55,87.636 384.336,90.515 384.371,90.556 369.908,98.906 "/>
      <path class="fil2" d="M373.613 104.144l-3.705 -5.238 14.463 -8.35 -0.035 -0.041c1.514,-0.007 3.281,0.346 5.303,1.057l2.117 2.098 -18.143 10.474z"/>
     </g>
    </g>
   </g>
  </g>
  <g id="legRight_FL_FL_FL_FL_FL_FL">
   <g>
    <g>
     <g>
      <path class="fil0" d="M52.698 212.362l-3.783 -4.561c-1.379,-1.696 -2.039,-3.582 -1.98,-5.657 0.08,-1.967 0.799,-3.628 2.157,-4.985l0.035 -0.036c1.363,-1.363 3.013,-2.07 4.949,-2.121 2.047,-0.029 3.897,0.666 5.551,2.086l4.455 3.889 -11.384 11.385z"/>
      <polygon class="fil1" points="55.031,215.261 52.698,212.362 64.082,200.977 66.84,203.382 66.875,203.417 55.066,215.225 "/>
      <path class="fil2" d="M58.885 219.892l-3.819 -4.667 11.809 -11.808 -0.035 -0.035c1.329,-0.332 2.92,-0.344 4.773,-0.036l2.086 1.733 -14.814 14.813z"/>
     </g>
    </g>
   </g>
  </g>
  <g id="legRight_FL_FL_FL_FL_FL_FL_FL">
   <g>
    <g>
     <g>
      <path class="fil0" d="M117.15 210.15l0.55 -5.9c0.224,-2.174 1.091,-3.974 2.6,-5.4 1.447,-1.333 3.131,-2 5.05,-2l0.05 0c1.928,0 3.595,0.667 5,2 1.467,1.426 2.284,3.226 2.45,5.4l0.4 5.9 -16.1 0z"/>
      <polygon class="fil1" points="116.75,213.85 117.15,210.15 133.25,210.15 133.499,213.8 133.499,213.85 116.8,213.85 "/>
      <path class="fil2" d="M116.2 219.85l0.6 -6 16.699 0 0 -0.05c1.175,0.705 2.308,1.822 3.401,3.35l0.25 2.7 -20.95 0z"/>
     </g>
    </g>
   </g>
  </g>
  <g id="legRight_FL_FL_FL_FL_FL_FL_FL_FL">
   <g>
    <g>
     <g>
      <path class="fil0" d="M194.4 210.15l0.55 -5.9c0.224,-2.174 1.091,-3.974 2.6,-5.4 1.448,-1.333 3.131,-2 5.05,-2l0.05 0c1.928,0 3.594,0.667 5,2 1.467,1.426 2.284,3.226 2.45,5.4l0.4 5.9 -16.1 0z"/>
      <polygon class="fil1" points="194,213.85 194.4,210.15 210.5,210.15 210.75,213.8 210.75,213.85 194.05,213.85 "/>
      <path class="fil2" d="M193.45 219.85l0.6 -6 16.7 0 0 -0.05c1.174,0.706 2.307,1.822 3.4,3.35l0.25 2.7 -20.95 0z"/>
     </g>
    </g>
   </g>
  </g>
  <g id="legRight_FL_FL_FL_FL_FL_FL_FL_FL_FL">
   <g>
    <g>
     <g>
      <path class="fil0" d="M364.687 209.891l-4.813 -3.428c-1.76,-1.279 -2.804,-2.879 -3.132,-4.8 -0.283,-1.824 0.158,-3.498 1.323,-5.02l0.03 -0.04c1.172,-1.53 2.766,-2.514 4.782,-2.953 2.135,-0.441 4.202,-0.177 6.199,0.794l5.389 2.673 -9.778 12.774z"/>
      <polygon class="fil1" points="367.671,212.084 364.687,209.891 374.465,197.117 377.801,198.769 377.845,198.795 367.702,212.044 "/>
      <path class="fil2" d="M372.571 215.562l-4.869 -3.518 10.143 -13.249 -0.044 -0.026c1.329,-0.574 2.992,-0.907 4.988,-0.999l2.507 1.17 -12.725 16.622z"/>
     </g>
    </g>
   </g>
  </g>
  <g id="legRight_FL_FL_FL_FL_FL_FL_FL_FL_FL_FL">
   <g>
    <g>
     <g>
      <path class="fil0" d="M431.2 210.15l0.55 -5.9c0.224,-2.174 1.091,-3.974 2.6,-5.4 1.448,-1.333 3.131,-2 5.05,-2l0.05 0c1.928,0 3.595,0.667 5,2 1.468,1.426 2.284,3.226 2.45,5.4l0.4 5.9 -16.1 0z"/>
      <polygon class="fil1" points="430.8,213.85 431.2,210.15 447.3,210.15 447.55,213.8 447.55,213.85 430.85,213.85 "/>
      <path class="fil2" d="M430.25 219.85l0.6 -6 16.7 0 0 -0.05c1.175,0.706 2.308,1.822 3.4,3.35l0.25 2.7 -20.95 0z"/>
     </g>
    </g>
   </g>
  </g>
  <g id="legRight_FL_FL_FL_FL_FL_FL_FL_FL_FL_FL_FL">
   <g>
    <g>
     <g>
      <path class="fil0" d="M536.394 204.735l-5.546 -2.063c-2.031,-0.779 -3.291,-1.991 -3.781,-3.638 -0.437,-1.57 -0.062,-3.155 1.124,-4.755l0.031 -0.042c1.191,-1.608 2.885,-2.816 5.083,-3.625 2.329,-0.836 4.629,-1.028 6.9,-0.575l6.133 1.272 -9.944 13.426z"/>
      <polygon class="fil1" points="539.838,206.076 536.394,204.735 546.338,191.309 550.133,192.094 550.183,192.108 539.869,206.034 "/>
      <path class="fil2" d="M545.484 208.167l-5.615 -2.133 10.314 -13.926 -0.05 -0.014c1.43,-0.787 3.244,-1.429 5.443,-1.924l2.848 0.526 -12.94 17.471z"/>
     </g>
    </g>
   </g>
  </g>
  <g id="legRight_FL_FL_FL_FL_FL_FL_FL_FL_FL_FL_FL_FL">
   <g>
    <g>
     <g>
      <path class="fil0" d="M603.95 100.15l0.55 -5.9c0.224,-2.174 1.091,-3.974 2.6,-5.4 1.448,-1.333 3.131,-2 5.05,-2l0.05 0c1.929,0 3.595,0.667 5,2 1.468,1.426 2.284,3.226 2.45,5.4l0.4 5.9 -16.1 0z"/>
      <polygon class="fil1" points="603.55,103.85 603.95,100.15 620.05,100.15 620.3,103.8 620.3,103.85 603.6,103.85 "/>
      <path class="fil2" d="M603 109.85l0.6 -6 16.7 0 0 -0.05c1.174,0.706 2.308,1.822 3.4,3.35l0.25 2.7 -20.95 0z"/>
     </g>
    </g>
   </g>
  </g>
  <g id="legRight_FL_FL_FL_FL_FL_FL_FL_FL_FL_FL_FL_FL_FL">
   <g>
    <g>
     <g>
      <path class="fil0" d="M604.067 204.211l-0.326 -5.916c-0.099,-2.184 0.492,-4.092 1.775,-5.725 1.235,-1.532 2.801,-2.44 4.7,-2.723l0.049 -0.007c1.907,-0.285 3.654,0.129 5.24,1.24 1.662,1.194 2.735,2.854 3.22,4.98l1.266 5.776 -15.924 2.375z"/>
      <polygon class="fil1" points="604.217,207.93 604.067,204.211 619.991,201.836 620.777,205.41 620.784,205.459 604.267,207.922 "/>
      <path class="fil2" d="M604.558 213.945l-0.291 -6.023 16.517 -2.463 -0.007 -0.049c1.265,0.524 2.551,1.462 3.857,2.811l0.645 2.634 -20.721 3.09z"/>
     </g>
    </g>
   </g>
  </g>
  <g id="legRight_FL_FL_FL_FL_FL_FL_FL_FL_FL_FL_FL_FL_FL_FL">
   <g>
    <g>
     <g>
      <path class="fil0" d="M137.848 310.862l-3.783 -4.561c-1.379,-1.696 -2.039,-3.581 -1.98,-5.657 0.081,-1.967 0.8,-3.628 2.156,-4.985l0.036 -0.035c1.363,-1.364 3.013,-2.071 4.95,-2.122 2.045,-0.029 3.896,0.666 5.55,2.086l4.455 3.89 -11.384 11.384z"/>
      <polygon class="fil1" points="140.181,313.761 137.848,310.862 149.232,299.478 151.99,301.882 152.025,301.917 140.216,313.725 "/>
      <path class="fil2" d="M144.035 318.392l-3.819 -4.667 11.809 -11.808 -0.035 -0.035c1.329,-0.332 2.92,-0.343 4.772,-0.036l2.086 1.733 -14.813 14.813z"/>
     </g>
    </g>
   </g>
  </g>
  <g id="legRight_FL_FL_FL_FL_FL_FL_FL_FL_FL_FL_FL_FL_FL_FL_FL">
   <g>
    <g>
     <g>
      <path class="fil0" d="M684.144 201.279l0.417 -5.912c0.175,-2.178 1.001,-3.997 2.478,-5.457 1.417,-1.365 3.085,-2.07 5.004,-2.113l0.05 -0.001c1.928,-0.043 3.609,0.586 5.043,1.887 1.5,1.393 2.357,3.174 2.571,5.344l0.533 5.889 -16.096 0.363z"/>
      <polygon class="fil1" points="683.827,204.987 684.144,201.279 700.24,200.916 700.572,204.56 700.573,204.61 683.877,204.986 "/>
      <path class="fil2" d="M683.412 210.997l0.465 -6.011 16.696 -0.376 -0.001 -0.05c1.19,0.679 2.348,1.77 3.475,3.273l0.31 2.693 -20.945 0.471z"/>
     </g>
    </g>
   </g>
  </g>
  <g id="legRight_FL_FL_FL_FL_FL_FL_FL_FL_FL_FL_FL_FL_FL_FL_FL_FL">
   <g>
    <g>
     <g>
      <path class="fil0" d="M274.765 210.15l-0.729 -5.9c-0.246,-2.174 0.23,-3.974 1.43,-5.4 1.159,-1.333 2.698,-2 4.617,-2l0.05 0c1.928,0 3.739,0.667 5.433,2 1.777,1.426 2.984,3.226 3.621,5.4l1.678 5.9 -16.1 0z"/>
      <polygon class="fil1" points="275.167,213.85 274.765,210.15 290.865,210.15 291.906,213.8 291.917,213.85 275.217,213.85 "/>
      <path class="fil2" d="M275.918 219.85l-0.701 -6 16.7 0 -0.011 -0.05c1.328,0.706 2.703,1.822 4.126,3.35l0.835 2.7 -20.949 0z"/>
     </g>
    </g>
   </g>
  </g>
  <g id="legRight_FL_FL_FL_FL_FL_FL_FL_FL_FL_FL_FL_FL_FL_FL_FL_FL_FL">
   <g>
    <g>
     <g>
      <path class="fil0" d="M211.325 304.825l2.022 -5.55c0.764,-2.04 2.009,-3.544 3.735,-4.514 1.647,-0.897 3.333,-1.086 5.059,-0.568l0.045 0.013c1.734,0.521 3.06,1.615 3.979,3.282 0.951,1.774 1.22,3.733 0.806,5.878l-1.167 5.807 -14.479 -4.348z"/>
      <polygon class="fil1" points="210.008,308.291 211.325,304.825 225.804,309.173 225.084,312.766 225.071,312.814 210.053,308.305 "/>
      <path class="fil2" d="M207.96 313.938l2.093 -5.633 15.018 4.509 0.013 -0.048c0.873,0.999 1.604,2.383 2.191,4.154l-0.474 2.675 -18.841 -5.657z"/>
     </g>
    </g>
   </g>
  </g>
  <g id="legLeft_FL_FL_FL_FL_FL_FL_FL_FL_FL_FL_FL_FL_FL_FL_FL_FL_FL_FL">
   <g>
    <g>
     <g>
      <path class="fil0" d="M284.456 318.423l-3.446 -5.136c-1.248,-1.9 -1.59,-3.688 -1.026,-5.363 0.564,-1.579 1.82,-2.671 3.768,-3.276l0.051 -0.015c1.957,-0.609 4.101,-0.573 6.432,0.105 2.457,0.737 4.508,1.993 6.151,3.77l4.411 4.837 -16.341 5.078z"/>
      <polygon class="fil1" points="286.561,321.662 284.456,318.423 300.797,313.345 303.528,316.337 303.562,316.379 286.612,321.646 "/>
      <path class="fil2" d="M290.076 326.883l-3.464 -5.237 16.95 -5.267 -0.034 -0.042c1.671,0.223 3.579,0.805 5.724,1.746l2.087 2.192 -21.263 6.608z"/>
     </g>
    </g>
   </g>
  </g>
  <g id="legRight_FL_FL_FL_FL_FL_FL_FL_FL_FL_FL_FL_FL_FL_FL_FL_FL_FL_FL_FL_FL">
   <g>
    <g>
     <g>
      <path class="fil0" d="M363.9 320.15l0.55 -5.9c0.224,-2.174 1.091,-3.974 2.6,-5.4 1.448,-1.333 3.131,-2 5.05,-2l0.05 0c1.928,0 3.595,0.667 5,2 1.468,1.426 2.284,3.226 2.45,5.4l0.4 5.9 -16.1 0z"/>
      <polygon class="fil1" points="363.5,323.85 363.9,320.15 380,320.15 380.25,323.8 380.25,323.85 363.55,323.85 "/>
      <path class="fil2" d="M362.95 329.85l0.6 -6 16.7 0 0 -0.05c1.174,0.706 2.308,1.823 3.4,3.35l0.25 2.7 -20.95 0z"/>
     </g>
    </g>
   </g>
  </g>
  <g id="legRight_FL_FL_FL_FL_FL_FL_FL_FL_FL_FL_FL_FL_FL_FL_FL_FL_FL_FL_FL_FL_FL">
   <g>
    <g>
     <g>
      <path class="fil0" d="M444.583 320.15l-0.09 -5.9c-0.011,-2.174 0.661,-3.974 2.015,-5.4 1.303,-1.333 2.915,-2 4.833,-2l0.051 0c1.928,0 3.667,0.667 5.216,2 1.622,1.426 2.634,3.226 3.036,5.4l1.039 5.9 -16.1 0z"/>
      <polygon class="fil1" points="444.584,323.85 444.583,320.15 460.683,320.15 461.328,323.8 461.334,323.85 444.634,323.85 "/>
      <path class="fil2" d="M444.684 329.85l-0.05 -6 16.7 0 -0.006 -0.05c1.251,0.706 2.505,1.823 3.763,3.35l0.543 2.7 -20.95 0z"/>
     </g>
    </g>
   </g>
  </g>
  <g id="legLeft_FL_FL_FL_FL_FL_FL_FL_FL_FL_FL_FL_FL_FL_FL_FL_FL_FL_FL_FL_FL_FL">
   <g>
    <g>
     <g>
      <path class="fil0" d="M525.442 89.734l1.301 -5.765c0.5,-2.118 1.568,-3.681 3.204,-4.69 1.565,-0.933 3.269,-1.131 5.112,-0.595l0.048 0.014c1.852,0.539 3.365,1.673 4.54,3.403 1.223,1.841 1.771,3.875 1.646,6.102l-0.388 6.03 -15.463 -4.499z"/>
      <polygon class="fil1" points="524.573,93.334 525.442,89.734 540.905,94.233 540.667,97.964 540.66,98.014 524.621,93.348 "/>
      <path class="fil2" d="M523.26 99.199l1.361 -5.851 16.039 4.666 0.007 -0.05c1.035,1.036 1.977,2.473 2.827,4.311l-0.114 2.778 -20.12 -5.854z"/>
     </g>
    </g>
   </g>
  </g>
  <g id="legRight_FL_FL_FL_FL_FL_FL_FL_FL_FL_FL_FL_FL_FL_FL_FL_FL_FL_FL_FL_FL_FL_FL_FL">
   <g>
    <g>
     <g>
      <path class="fil0" d="M691.921 101.409l-3.304 -4.807c-1.199,-1.784 -1.636,-3.668 -1.31,-5.651 0.335,-1.877 1.287,-3.388 2.854,-4.534l0.042 -0.03c1.575,-1.151 3.361,-1.64 5.357,-1.467 2.106,0.206 3.918,1.085 5.437,2.636l4.079 4.239 -13.155 9.614z"/>
      <polygon class="fil1" points="693.947,104.456 691.921,101.409 705.076,91.795 707.602,94.416 707.633,94.454 693.988,104.426 "/>
      <path class="fil2" d="M697.314 109.338l-3.326 -4.912 13.645 -9.972 -0.031 -0.038c1.408,-0.165 3.044,0.006 4.908,0.513l1.922 1.9 -17.118 12.509z"/>
     </g>
    </g>
   </g>
  </g>
  <g id="legRight_FL_FL_FL_FL_FL_FL_FL_FL_FL_FL_FL_FL_FL_FL_FL_FL_FL_FL_FL_FL_FL_FL_FL_FL">
   <g>
    <g>
     <g>
      <path class="fil0" d="M444.212 82.572l2.252 -5.431c0.85,-1.994 2.195,-3.408 4.036,-4.243 1.755,-0.767 3.537,-0.817 5.345,-0.15l0.047 0.018c1.817,0.67 3.191,1.885 4.123,3.644 0.964,1.87 1.204,3.869 0.722,5.999l-1.357 5.761 -15.168 -5.598z"/>
      <polygon class="fil1" points="442.748,85.959 444.212,82.572 459.38,88.17 458.543,91.736 458.529,91.783 442.796,85.976 "/>
      <path class="fil2" d="M440.467 91.486l2.329 -5.51 15.733 5.807 0.014 -0.047c0.899,1.081 1.639,2.539 2.219,4.374l-0.558 2.66 -19.737 -7.284z"/>
     </g>
    </g>
   </g>
  </g>
 </g>
</svg>
