<?xml version="1.0" encoding="UTF-8"?>
<!DOCTYPE svg PUBLIC "-//W3C//DTD SVG 1.1//EN" "http://www.w3.org/Graphics/SVG/1.1/DTD/svg11.dtd">
<!-- Creator: CorelDRAW 2018 (64-Bit) -->
<svg xmlns="http://www.w3.org/2000/svg" xml:space="preserve" width="720px" height="330px" version="1.1" style="shape-rendering:geometricPrecision; text-rendering:geometricPrecision; image-rendering:optimizeQuality; fill-rule:evenodd; clip-rule:evenodd"
viewBox="0 0 720 330"
 xmlns:xlink="http://www.w3.org/1999/xlink">
 <defs>
  <style type="text/css">
   <![CDATA[
    .fil1 {fill:#2A7DB4}
    .fil2 {fill:#3498DB}
    .fil0 {fill:#B8824D}
   ]]>
  </style>
 </defs>
 <g id="Слой_x0020_1">
  <metadata id="CorelCorpID_0Corel-Layer"/>
  <g id="legRight">
   <g>
    <g>
     <g>
      <path class="fil0" d="M34.414 329.826l-0.613 -4.946 17.727 0 -0.006 -0.049c1.253,0.626 2.446,1.583 3.578,2.868l0.264 2.127 -20.95 0z"/>
      <polygon class="fil1" points="33.801,324.88 33.751,324.88 33.335,321.517 51.112,321.517 51.522,324.831 51.528,324.88 "/>
      <path class="fil2" d="M34.396 309.349c1.538,-1.682 3.532,-2.522 5.983,-2.522l0.05 0c2.451,0 4.637,0.84 6.557,2.522 1.958,1.715 3.086,3.776 3.385,6.183l0.741 5.985 -17.777 0 -0.741 -5.985c-0.299,-2.407 0.302,-4.468 1.802,-6.183z"/>
     </g>
    </g>
   </g>
  </g>
  <g id="legRight_FL">
   <g>
    <g>
     <g>
      <path class="fil0" d="M42.936 109.826l0 -4.946 17.726 0 0 -0.049c1.175,0.626 2.249,1.582 3.223,2.868l0 2.127 -20.949 0z"/>
      <polygon class="fil1" points="42.936,104.88 42.885,104.88 42.885,101.517 60.662,101.517 60.662,104.831 60.662,104.88 "/>
      <path class="fil2" d="M45.454 89.349c1.746,-1.682 3.844,-2.523 6.295,-2.523l0.05 0c2.451,0 4.532,0.841 6.244,2.523 1.746,1.715 2.619,3.776 2.619,6.182l0 5.986 -17.777 0 0 -5.986c0,-2.407 0.856,-4.467 2.569,-6.182z"/>
     </g>
    </g>
   </g>
  </g>
  <g id="legRight_FL_FL">
   <g>
    <g>
     <g>
      <path class="fil0" d="M122.537 97.662l1.269 -4.777 17.528 2.51 0.012 -0.048c1.001,0.772 1.818,1.847 2.451,3.228l-0.546 2.054 -20.714 -2.967z"/>
      <polygon class="fil1" points="123.806,92.885 123.757,92.878 124.619,89.629 142.197,92.146 141.346,95.347 141.334,95.395 "/>
      <path class="fil2" d="M130.281 78.239c2.158,-1.377 4.448,-1.892 6.872,-1.545l0.049 0.007c2.424,0.347 4.266,1.454 5.527,3.321 1.287,1.904 1.621,4.018 1.003,6.343l-1.535 5.781 -17.578 -2.517 1.536 -5.781c0.618,-2.325 1.993,-4.195 4.126,-5.609z"/>
     </g>
    </g>
   </g>
  </g>
  <g id="legRight_FL_FL_FL">
   <g>
    <g>
     <g>
      <path class="fil0" d="M209.347 107.801l-1.28 -4.778 17.971 -1.422 -0.013 -0.048c1.354,0.511 2.69,1.349 4.01,2.513l0.55 2.054 -21.238 1.681z"/>
      <polygon class="fil1" points="208.067,103.023 208.016,103.027 207.146,99.778 225.167,98.352 226.025,101.553 226.038,101.601 "/>
      <path class="fil2" d="M206.6 87.819c1.335,-1.764 3.245,-2.745 5.729,-2.941l0.051 -0.004c2.484,-0.197 4.812,0.448 6.984,1.935 2.213,1.516 3.631,3.437 4.254,5.762l1.549 5.781 -18.021 1.426 -1.549 -5.78c-0.624,-2.325 -0.289,-4.385 1.003,-6.179z"/>
     </g>
    </g>
   </g>
  </g>
  <g id="legRight_FL_FL_FL_FL">
   <g>
    <g>
     <g>
      <path class="fil0" d="M282.936 109.826l0 -4.946 17.726 0 0 -0.049c1.176,0.626 2.25,1.582 3.223,2.868l0 2.127 -20.949 0z"/>
      <polygon class="fil1" points="282.936,104.88 282.885,104.88 282.885,101.517 300.662,101.517 300.662,104.831 300.662,104.88 "/>
      <path class="fil2" d="M285.454 89.349c1.746,-1.682 3.844,-2.523 6.295,-2.523l0.05 0c2.451,0 4.533,0.841 6.245,2.523 1.745,1.715 2.618,3.776 2.618,6.182l0 5.986 -17.777 0 0 -5.986c0,-2.407 0.857,-4.467 2.569,-6.182z"/>
     </g>
    </g>
   </g>
  </g>
  <g id="legRight_FL_FL_FL_FL_FL">
   <g>
    <g>
     <g>
      <path class="fil0" d="M373.584 104.132l-3.482 -4.072 15.351 -8.863 -0.035 -0.04c1.459,-0.072 3.063,0.178 4.811,0.749l1.498 1.751 -18.143 10.475z"/>
      <polygon class="fil1" points="370.102,100.06 370.058,100.086 367.691,97.317 383.086,88.429 385.418,91.157 385.453,91.197 "/>
      <path class="fil2" d="M361.349 86.018c0.328,-2.257 1.553,-3.998 3.676,-5.224l0.043 -0.025c2.123,-1.225 4.517,-1.574 7.184,-1.046 2.719,0.539 4.926,1.799 6.62,3.78l4.214 4.926 -15.395 8.888 -4.213 -4.926c-1.695,-1.981 -2.405,-4.106 -2.129,-6.373z"/>
     </g>
    </g>
   </g>
  </g>
  <g id="legRight_FL_FL_FL_FL_FL_FL">
   <g>
    <g>
     <g>
      <path class="fil0" d="M58.858 219.885l-3.498 -3.497 12.535 -12.534 -0.035 -0.036c1.274,-0.387 2.71,-0.471 4.308,-0.25l1.503 1.504 -14.813 14.813z"/>
      <polygon class="fil1" points="55.36,216.388 55.325,216.424 52.947,214.045 65.517,201.475 67.86,203.818 67.895,203.854 "/>
      <path class="fil2" d="M46.159 203.625c0.045,-2.424 0.934,-4.502 2.668,-6.234l0.035 -0.036c1.733,-1.733 3.799,-2.61 6.199,-2.632 2.447,-0.022 4.522,0.818 6.224,2.52l4.232 4.232 -12.57 12.57 -4.232 -4.232c-1.703,-1.702 -2.554,-3.765 -2.556,-6.188z"/>
     </g>
    </g>
   </g>
  </g>
  <g id="legRight_FL_FL_FL_FL_FL_FL_FL">
   <g>
    <g>
     <g>
      <path class="fil0" d="M116.186 219.826l0 -4.946 17.726 0 0 -0.05c1.175,0.627 2.249,1.583 3.223,2.869l0 2.127 -20.949 0z"/>
      <polygon class="fil1" points="116.186,214.88 116.136,214.88 116.136,211.517 133.912,211.517 133.912,214.83 133.912,214.88 "/>
      <path class="fil2" d="M118.704 199.349c1.746,-1.682 3.844,-2.522 6.295,-2.522l0.05 0c2.451,0 4.532,0.84 6.244,2.522 1.746,1.715 2.619,3.775 2.619,6.183l0 5.985 -17.776 0 0 -5.985c0,-2.408 0.856,-4.468 2.568,-6.183z"/>
     </g>
    </g>
   </g>
  </g>
  <g id="legRight_FL_FL_FL_FL_FL_FL_FL_FL">
   <g>
    <g>
     <g>
      <path class="fil0" d="M193.436 219.826l0 -4.946 17.726 0 0 -0.05c1.175,0.627 2.25,1.583 3.223,2.87l0 2.126 -20.949 0z"/>
      <polygon class="fil1" points="193.436,214.88 193.385,214.88 193.385,211.517 211.162,211.517 211.162,214.83 211.162,214.88 "/>
      <path class="fil2" d="M195.954 199.349c1.746,-1.682 3.844,-2.523 6.295,-2.523l0.05 0c2.451,0 4.532,0.841 6.245,2.523 1.745,1.715 2.618,3.775 2.618,6.183l0 5.985 -17.777 0 0 -5.985c0,-2.408 0.856,-4.468 2.569,-6.183z"/>
     </g>
    </g>
   </g>
  </g>
  <g id="legRight_FL_FL_FL_FL_FL_FL_FL_FL_FL">
   <g>
    <g>
     <g>
      <path class="fil0" d="M372.542 215.561l-4.315 -2.508 10.767 -14.064 -0.043 -0.025c1.26,-0.614 2.747,-0.982 4.46,-1.103l1.855 1.079 -12.724 16.621z"/>
      <polygon class="fil1" points="368.227,213.053 368.197,213.093 365.263,211.388 376.06,197.284 378.951,198.964 378.994,198.989 "/>
      <path class="fil2" d="M356.208 203.182c-0.406,-2.237 0.135,-4.328 1.623,-6.273l0.031 -0.04c1.488,-1.944 3.486,-3.169 5.993,-3.675 2.556,-0.516 4.884,-0.164 6.984,1.057l5.221 3.033 -10.797 14.104 -5.221 -3.034c-2.1,-1.22 -3.378,-2.944 -3.834,-5.172z"/>
     </g>
    </g>
   </g>
  </g>
  <g id="legRight_FL_FL_FL_FL_FL_FL_FL_FL_FL_FL">
   <g>
    <g>
     <g>
      <path class="fil0" d="M430.236 219.826l0 -4.946 17.727 0 0 -0.05c1.175,0.627 2.249,1.583 3.223,2.87l0 2.126 -20.95 0z"/>
      <polygon class="fil1" points="430.236,214.88 430.186,214.88 430.186,211.517 447.963,211.517 447.963,214.83 447.963,214.88 "/>
      <path class="fil2" d="M432.754 199.349c1.746,-1.682 3.844,-2.523 6.295,-2.523l0.051 0c2.45,0 4.532,0.841 6.244,2.523 1.746,1.715 2.619,3.775 2.619,6.183l0 5.985 -17.777 0 0 -5.985c0,-2.408 0.856,-4.468 2.568,-6.183z"/>
     </g>
    </g>
   </g>
  </g>
  <g id="legRight_FL_FL_FL_FL_FL_FL_FL_FL_FL_FL_FL">
   <g>
    <g>
     <g>
      <path class="fil0" d="M545.451 208.172l-4.934 -1.346 10.949 -14.782 -0.049 -0.014c1.35,-0.809 2.968,-1.445 4.852,-1.907l2.122 0.579 -12.94 17.47z"/>
      <polygon class="fil1" points="540.517,206.826 540.486,206.868 537.13,205.953 548.111,191.129 551.417,192.03 551.466,192.044 "/>
      <path class="fil2" d="M526.579 200.501c-0.6,-1.913 -0.143,-3.892 1.371,-5.936l0.031 -0.042c1.514,-2.044 3.638,-3.551 6.374,-4.521 2.789,-0.99 5.384,-1.157 7.785,-0.502l5.971 1.629 -10.981 14.824 -5.97 -1.628c-2.401,-0.655 -3.929,-1.93 -4.581,-3.824z"/>
     </g>
    </g>
   </g>
  </g>
  <g id="legRight_FL_FL_FL_FL_FL_FL_FL_FL_FL_FL_FL_FL">
   <g>
    <g>
     <g>
      <path class="fil0" d="M602.986 109.826l0 -4.946 17.727 0 0 -0.049c1.175,0.626 2.249,1.582 3.223,2.868l0 2.127 -20.95 0z"/>
      <polygon class="fil1" points="602.986,104.88 602.936,104.88 602.936,101.517 620.713,101.517 620.713,104.831 620.713,104.88 "/>
      <path class="fil2" d="M605.504 89.349c1.746,-1.682 3.845,-2.523 6.295,-2.523l0.05 0c2.451,0 4.533,0.841 6.245,2.523 1.746,1.715 2.619,3.776 2.619,6.182l0 5.986 -17.777 0 0 -5.986c0,-2.407 0.856,-4.467 2.568,-6.182z"/>
     </g>
    </g>
   </g>
  </g>
  <g id="legRight_FL_FL_FL_FL_FL_FL_FL_FL_FL_FL_FL_FL_FL">
   <g>
    <g>
     <g>
      <path class="fil0" d="M604.541 213.924l-0.729 -4.892 17.532 -2.615 -0.008 -0.049c1.255,0.446 2.459,1.234 3.611,2.362l0.314 2.104 -20.72 3.09z"/>
      <polygon class="fil1" points="603.812,209.032 603.762,209.039 603.265,205.712 620.848,203.09 621.336,206.368 621.344,206.417 "/>
      <path class="fil2" d="M604.011 193.299c1.478,-1.921 3.43,-3.062 5.854,-3.424l0.05 -0.007c2.424,-0.362 4.607,0.163 6.548,1.574 1.979,1.438 3.147,3.348 3.502,5.729l0.883 5.919 -17.583 2.622 -0.883 -5.919c-0.354,-2.381 0.188,-4.545 1.629,-6.494z"/>
     </g>
    </g>
   </g>
  </g>
  <g id="legRight_FL_FL_FL_FL_FL_FL_FL_FL_FL_FL_FL_FL_FL_FL">
   <g>
    <g>
     <g>
      <path class="fil0" d="M144.008 318.385l-3.497 -3.497 12.534 -12.534 -0.035 -0.035c1.274,-0.388 2.71,-0.472 4.307,-0.251l1.504 1.504 -14.813 14.813z"/>
      <polygon class="fil1" points="140.511,314.888 140.475,314.923 138.097,312.545 150.667,299.975 153.01,302.319 153.045,302.354 "/>
      <path class="fil2" d="M131.309 302.125c0.046,-2.423 0.935,-4.502 2.667,-6.235l0.036 -0.035c1.733,-1.733 3.8,-2.61 6.2,-2.632 2.446,-0.022 4.521,0.818 6.223,2.52l4.232 4.232 -12.57 12.57 -4.232 -4.232c-1.702,-1.702 -2.554,-3.764 -2.556,-6.188z"/>
     </g>
    </g>
   </g>
  </g>
  <g id="legRight_FL_FL_FL_FL_FL_FL_FL_FL_FL_FL_FL_FL_FL_FL_FL">
   <g>
    <g>
     <g>
      <path class="fil0" d="M683.398 210.974l-0.111 -4.945 17.722 -0.399 -0.001 -0.049c1.189,0.6 2.284,1.532 3.287,2.796l0.047 2.126 -20.944 0.471z"/>
      <polygon class="fil1" points="683.287,206.029 683.236,206.03 683.161,202.668 700.933,202.268 701.008,205.581 701.009,205.63 "/>
      <path class="fil2" d="M685.455 190.445c1.707,-1.721 3.786,-2.608 6.236,-2.664l0.051 -0.001c2.45,-0.055 4.55,0.739 6.299,2.382 1.784,1.675 2.703,3.715 2.757,6.122l0.135 5.984 -17.772 0.4 -0.135 -5.984c-0.054,-2.407 0.756,-4.486 2.429,-6.239z"/>
     </g>
    </g>
   </g>
  </g>
  <g id="legRight_FL_FL_FL_FL_FL_FL_FL_FL_FL_FL_FL_FL_FL_FL_FL_FL">
   <g>
    <g>
     <g>
      <path class="fil0" d="M275.898 219.826l-1.072 -4.946 17.727 0 -0.011 -0.05c1.311,0.627 2.593,1.583 3.845,2.87l0.461 2.126 -20.95 0z"/>
      <polygon class="fil1" points="274.826,214.88 274.776,214.88 274.047,211.517 291.824,211.517 292.542,214.83 292.553,214.88 "/>
      <path class="fil2" d="M273.979 199.349c1.381,-1.682 3.297,-2.523 5.748,-2.523l0.05 0c2.451,0 4.715,0.841 6.791,2.523 2.118,1.715 3.437,3.775 3.959,6.183l1.297 5.985 -17.777 0 -1.297 -5.985c-0.522,-2.408 -0.112,-4.468 1.229,-6.183z"/>
     </g>
    </g>
   </g>
  </g>
  <g id="legRight_FL_FL_FL_FL_FL_FL_FL_FL_FL_FL_FL_FL_FL_FL_FL_FL_FL">
   <g>
    <g>
     <g>
      <path class="fil0" d="M207.954 313.912l1.28 -4.778 15.941 4.787 0.013 -0.048c0.895,0.922 1.613,2.136 2.156,3.641l-0.55 2.054 -18.84 -5.656z"/>
      <polygon class="fil1" points="209.234,309.134 209.189,309.12 210.059,305.871 226.046,310.672 225.188,313.873 225.175,313.921 "/>
      <path class="fil2" d="M215.518 294.812c2.005,-1.153 4.11,-1.399 6.314,-0.737l0.045 0.014c2.204,0.662 3.859,2.036 4.963,4.122 1.126,2.128 1.378,4.354 0.755,6.68l-1.549 5.781 -15.987 -4.801 1.549 -5.781c0.623,-2.325 1.926,-4.084 3.91,-5.278z"/>
     </g>
    </g>
   </g>
  </g>
  <g id="legLeft_FL_FL_FL_FL_FL_FL_FL_FL_FL_FL_FL_FL_FL_FL_FL_FL_FL_FL">
   <g>
    <g>
     <g>
      <path class="fil0" d="M290.045 326.867l-3.357 -4.16 17.992 -5.592 -0.034 -0.041c1.618,0.156 3.357,0.622 5.218,1.397l1.444 1.789 -21.263 6.607z"/>
      <polygon class="fil1" points="286.688,322.707 286.637,322.722 284.354,319.893 302.397,314.286 304.646,317.074 304.68,317.115 "/>
      <path class="fil2" d="M278.703 308.847c0.63,-1.966 2.189,-3.335 4.676,-4.108l0.052 -0.016c2.487,-0.773 5.171,-0.722 8.049,0.153 2.936,0.892 5.221,2.35 6.855,4.375l4.062 5.035 -18.043 5.607 -4.062 -5.035c-1.634,-2.025 -2.163,-4.029 -1.589,-6.011z"/>
     </g>
    </g>
   </g>
  </g>
  <g id="legRight_FL_FL_FL_FL_FL_FL_FL_FL_FL_FL_FL_FL_FL_FL_FL_FL_FL_FL_FL_FL">
   <g>
    <g>
     <g>
      <path class="fil0" d="M362.936 329.826l0 -4.946 17.727 0 0 -0.049c1.175,0.626 2.249,1.583 3.223,2.868l0 2.127 -20.95 0z"/>
      <polygon class="fil1" points="362.936,324.88 362.886,324.88 362.886,321.517 380.663,321.517 380.663,324.831 380.663,324.88 "/>
      <path class="fil2" d="M365.454 309.349c1.746,-1.682 3.844,-2.522 6.295,-2.522l0.05 0c2.451,0 4.533,0.84 6.245,2.522 1.746,1.715 2.619,3.776 2.619,6.183l0 5.985 -17.777 0 0 -5.985c0,-2.407 0.856,-4.468 2.568,-6.183z"/>
     </g>
    </g>
   </g>
  </g>
  <g id="legRight_FL_FL_FL_FL_FL_FL_FL_FL_FL_FL_FL_FL_FL_FL_FL_FL_FL_FL_FL_FL_FL">
   <g>
    <g>
     <g>
      <path class="fil0" d="M444.667 329.826l-0.536 -4.946 17.727 0 -0.006 -0.049c1.243,0.626 2.421,1.583 3.534,2.868l0.231 2.127 -20.95 0z"/>
      <polygon class="fil1" points="444.131,324.88 444.081,324.88 443.717,321.517 461.493,321.517 461.852,324.831 461.858,324.88 "/>
      <path class="fil2" d="M444.967 309.349c1.563,-1.682 3.57,-2.522 6.021,-2.522l0.05 0c2.451,0 4.624,0.84 6.518,2.522 1.932,1.715 3.028,3.776 3.289,6.183l0.648 5.985 -17.776 0 -0.649 -5.985c-0.261,-2.407 0.372,-4.468 1.899,-6.183z"/>
     </g>
    </g>
   </g>
  </g>
  <g id="legLeft_FL_FL_FL_FL_FL_FL_FL_FL_FL_FL_FL_FL_FL_FL_FL_FL_FL_FL_FL_FL_FL">
   <g>
    <g>
     <g>
      <path class="fil0" d="M523.249 99.171l0.648 -4.962 17.025 4.954 0.006 -0.05c1.047,0.957 1.953,2.217 2.72,3.779l-0.279 2.133 -20.12 -5.854z"/>
      <polygon class="fil1" points="523.897,94.209 523.849,94.195 524.289,90.821 541.362,95.789 540.928,99.113 540.922,99.163 "/>
      <path class="fil2" d="M528.349 79.334c1.897,-1.199 4.022,-1.457 6.376,-0.772l0.048 0.014c2.354,0.685 4.243,2.11 5.667,4.275 1.452,2.208 2.021,4.52 1.705,6.934l-0.783 6.004 -17.073 -4.968 0.784 -6.003c0.315,-2.415 1.407,-4.243 3.276,-5.484z"/>
     </g>
    </g>
   </g>
  </g>
  <g id="legRight_FL_FL_FL_FL_FL_FL_FL_FL_FL_FL_FL_FL_FL_FL_FL_FL_FL_FL_FL_FL_FL_FL_FL">
   <g>
    <g>
     <g>
      <path class="fil0" d="M697.287 109.329l-3.145 -3.755 14.483 -10.584 -0.031 -0.038c1.359,-0.226 2.845,-0.141 4.458,0.253l1.353 1.615 -17.118 12.509z"/>
      <polygon class="fil1" points="694.142,105.574 694.1,105.605 691.961,103.052 706.486,92.437 708.594,94.952 708.625,94.99 "/>
      <path class="fil2" d="M686.321 92.283c0.356,-2.32 1.536,-4.21 3.539,-5.674l0.041 -0.03c2.002,-1.464 4.238,-2.068 6.707,-1.814 2.517,0.259 4.541,1.302 6.072,3.129l3.806 4.543 -14.525 10.615 -3.807 -4.543c-1.531,-1.827 -2.142,-3.903 -1.833,-6.226z"/>
     </g>
    </g>
   </g>
  </g>
  <g id="legRight_FL_FL_FL_FL_FL_FL_FL_FL_FL_FL_FL_FL_FL_FL_FL_FL_FL_FL_FL_FL_FL_FL_FL_FL">
   <g>
    <g>
     <g>
      <path class="fil0" d="M440.461 91.458l1.453 -4.713 16.701 6.163 0.014 -0.047c0.923,1.006 1.654,2.291 2.194,3.855l-0.625 2.027 -19.737 -7.285z"/>
      <polygon class="fil1" points="441.914,86.745 441.867,86.727 442.855,83.522 459.603,89.703 458.629,92.861 458.615,92.908 "/>
      <path class="fil2" d="M448.85 72.819c2.138,-0.995 4.362,-1.067 6.671,-0.215l0.048 0.017c2.309,0.853 4.023,2.378 5.142,4.576 1.141,2.241 1.358,4.509 0.65,6.802l-1.758 5.704 -16.748 -6.181 1.759 -5.704c0.707,-2.294 2.119,-3.96 4.236,-4.999z"/>
     </g>
    </g>
   </g>
  </g>
 </g>
</svg>
