<?xml version="1.0" encoding="UTF-8"?>
<!DOCTYPE svg PUBLIC "-//W3C//DTD SVG 1.1//EN" "http://www.w3.org/Graphics/SVG/1.1/DTD/svg11.dtd">
<!-- Creator: CorelDRAW 2018 (64-Bit) -->
<svg xmlns="http://www.w3.org/2000/svg" xml:space="preserve" width="720px" height="330px" version="1.1" style="shape-rendering:geometricPrecision; text-rendering:geometricPrecision; image-rendering:optimizeQuality; fill-rule:evenodd; clip-rule:evenodd"
viewBox="0 0 720 330"
 xmlns:xlink="http://www.w3.org/1999/xlink">
 <defs>
  <style type="text/css">
   <![CDATA[
    .fil1 {fill:#25A85C}
    .fil2 {fill:#2ECC71}
    .fil3 {fill:#E7CBA0}
    .fil0 {fill:#FFE0B1}
   ]]>
  </style>
 </defs>
 <g id="Слой_x0020_1">
  <metadata id="CorelCorpID_0Corel-Layer"/>
  <g id="armLeft">
   <g>
    <g>
     <g>
      <path class="fil0" d="M540.817 26.702c2.586,-1.243 5.291,-1.449 8.113,-0.616 0.565,7.764 0.101,15.575 -1.393,23.436l-12.67 -3.852c1.492,-6.606 3.475,-12.929 5.95,-18.968z"/>
      <path class="fil1" d="M548.01 49.654l-0.788 3.714 -14.499 -4.413c-0.583,-0.902 -0.32,-2.14 0.788,-3.714l1.356 0.429 12.67 3.852 0.473 0.132z"/>
      <path class="fil2" d="M537.091 65.469l-0.043 -0.025c-0.365,-0.108 -0.717,-0.24 -1.054,-0.396 -2.945,-1.618 -4.035,-6.982 -3.271,-16.093l14.499 4.413 -0.907 4.494c-0.536,2.705 -1.716,4.828 -3.54,6.366 -1.795,1.461 -3.69,1.874 -5.684,1.241z"/>
     </g>
    </g>
   </g>
  </g>
  <g id="handLeft">
   <g>
    <g>
     <g>
      <g>
       <path class="fil3" d="M537.993 32.125c-1.198,-1.84 -1.95,-4.508 -2.255,-8.006l0.014 -0.825 -0.012 0.048c-2.747,2.267 -1.996,5.194 2.253,8.783l0 0zm8.791 -4.219c-0.822,-0.151 -1.832,-0.18 -3.03,-0.087 -1.231,0.085 -2.265,0.273 -3.103,0.566 -0.829,0.261 -1.25,0.545 -1.263,0.852 -0.037,0.266 0.372,0.48 1.226,0.639 0.799,0.111 1.809,0.14 3.031,0.088 1.198,-0.093 2.212,-0.27 3.041,-0.531 0.861,-0.253 1.315,-0.528 1.36,-0.826 0.013,-0.307 -0.407,-0.541 -1.262,-0.701z"/>
      </g>
      <g>
       <path class="fil0" d="M535.738 24.119c0.305,3.498 1.057,6.166 2.255,8.006l9.981 0.034c0.825,0.014 1.251,-0.355 1.28,-1.106l-0.002 -0.57c0.349,-8.258 -1.854,-12.402 -6.608,-12.433 -1.681,-0.037 -3.402,0.14 -5.163,0.531 -1.168,0.239 -1.76,0.771 -1.773,1.596l-0.017 0.254c0.008,1.003 0.024,1.973 0.049,2.911l0.012 -0.048 -0.014 0.825 0 0zm8.016 3.7c1.198,-0.093 2.208,-0.064 3.03,0.087 0.855,0.16 1.275,0.394 1.262,0.701 -0.045,0.298 -0.499,0.573 -1.36,0.826 -0.829,0.261 -1.843,0.438 -3.041,0.531 -1.222,0.052 -2.232,0.023 -3.031,-0.088 -0.854,-0.159 -1.263,-0.372 -1.226,-0.639 0.013,-0.307 0.435,-0.591 1.263,-0.852 0.838,-0.293 1.872,-0.481 3.103,-0.566z"/>
      </g>
     </g>
    </g>
   </g>
  </g>
  <g id="armRight_FL">
   <g>
    <g id="_1027905264">
     <g>
      <path class="fil0" d="M469.523 305.91c-1.725,2.232 -4.019,3.982 -6.881,5.249 -3.974,-3.795 -7.061,-8.241 -9.261,-13.337l12.901 -5.632c1.641,4.426 2.721,8.999 3.241,13.72z"/>
      <path class="fil1" d="M452.905 298.039l-0.968 -2.458 14.765 -6.443c0.918,0.127 1.241,0.947 0.968,2.458l-1.388 0.594 -12.901 5.632 -0.476 0.217z"/>
      <path class="fil2" d="M455.457 282.984l0.049 -0.012c0.371,-0.164 0.74,-0.307 1.108,-0.429 3.322,-0.923 6.684,1.275 10.088,6.595l-14.765 6.443 -1.212 -2.946c-0.737,-1.768 -0.646,-3.615 0.273,-5.541 0.93,-1.867 2.417,-3.238 4.459,-4.11z"/>
     </g>
    </g>
   </g>
  </g>
  <g id="handRight_FL">
   <g>
    <g id="_1027903696">
     <g>
      <g>
       <path class="fil3" d="M458.062 305.475c-1.353,1.839 -2.33,4.508 -2.93,8.006l-0.056 0.825 -0.008 -0.049c-2.556,-2.266 -1.558,-5.193 2.994,-8.782l0 0zm8.435 4.219c-0.835,0.151 -1.847,0.18 -3.038,0.087 -1.223,-0.085 -2.241,-0.273 -3.054,-0.567 -0.807,-0.261 -1.204,-0.545 -1.192,-0.851 -0.014,-0.267 0.413,-0.48 1.281,-0.64 0.808,-0.11 1.82,-0.139 3.038,-0.087 1.19,0.093 2.189,0.27 2.996,0.531 0.84,0.252 1.27,0.528 1.29,0.826 -0.013,0.307 -0.453,0.54 -1.321,0.701z"/>
      </g>
      <g>
       <path class="fil0" d="M455.132 313.481c0.6,-3.498 1.577,-6.167 2.93,-8.006l9.984 -0.034c0.826,-0.014 1.221,0.354 1.187,1.106l-0.051 0.57c-0.347,8.258 -2.899,12.402 -7.656,12.434 -1.684,0.036 -3.39,-0.141 -5.118,-0.532 -1.149,-0.239 -1.695,-0.771 -1.639,-1.595l0.005 -0.255c0.092,-1.002 0.19,-1.973 0.294,-2.912l0.008 0.049 0.056 -0.825 0 0zm8.327 -3.7c1.191,0.093 2.203,0.064 3.038,-0.087 0.868,-0.16 1.308,-0.394 1.321,-0.701 -0.02,-0.298 -0.45,-0.574 -1.29,-0.826 -0.807,-0.261 -1.806,-0.438 -2.996,-0.531 -1.218,-0.052 -2.23,-0.023 -3.038,0.087 -0.868,0.16 -1.295,0.373 -1.281,0.64 -0.012,0.306 0.385,0.59 1.192,0.851 0.813,0.294 1.831,0.482 3.054,0.567z"/>
      </g>
     </g>
    </g>
   </g>
  </g>
  <g id="armRight_FL_FL">
   <g>
    <g>
     <g>
      <path class="fil0" d="M59.257 310.363c2.806,-0.414 5.357,-1.619 7.654,-3.616 -2.199,-5.763 -5.358,-11.046 -9.478,-15.849l-10.268 9.045c3.679,3.919 7.71,7.392 12.092,10.42z"/>
      <path class="fil1" d="M57.82 290.568l-2.022 -2.228 -11.748 10.354c-0.219,0.928 0.455,1.671 2.022,2.229l1.093 -0.98 10.268 -9.045 0.387 -0.33z"/>
      <path class="fil2" d="M42.276 284.854l-0.031 0.04c-0.297,0.258 -0.573,0.527 -0.828,0.806 -2.133,2.612 -1.256,6.944 2.633,12.994l11.748 -10.354 -2.403 -2.72c-1.439,-1.642 -3.264,-2.551 -5.474,-2.727 -2.157,-0.135 -4.038,0.519 -5.645,1.961z"/>
     </g>
    </g>
   </g>
  </g>
  <g id="handRight_FL_FL">
   <g>
    <g>
     <g>
      <g>
       <path class="fil3" d="M60.931 298.537c2.086,-0.681 4.859,-0.716 8.316,-0.105l0.793 0.227 -0.043 -0.025c-1.478,-3.24 -4.5,-3.272 -9.066,-0.097l0 0zm1.799 9.584c0.359,-0.755 0.648,-1.723 0.869,-2.905 0.237,-1.21 0.322,-2.258 0.255,-3.143 -0.037,-0.869 -0.203,-1.349 -0.495,-1.441 -0.248,-0.104 -0.56,0.235 -0.935,1.019 -0.313,0.743 -0.603,1.711 -0.869,2.905 -0.22,1.181 -0.311,2.206 -0.274,3.074 0.021,0.898 0.169,1.407 0.446,1.528 0.293,0.092 0.627,-0.253 1.003,-1.037z"/>
      </g>
      <g>
       <path class="fil0" d="M69.247 298.432c-3.457,-0.611 -6.23,-0.576 -8.316,0.105l-2.617 9.632c-0.227,0.793 0.019,1.301 0.737,1.523l0.552 0.145c7.885,2.475 12.459,1.42 13.72,-3.164 0.47,-1.614 0.744,-3.323 0.822,-5.125 0.072,-1.19 -0.289,-1.899 -1.082,-2.126l-0.241 -0.081c-0.971,-0.253 -1.912,-0.489 -2.825,-0.707l0.043 0.025 -0.793 -0.227 0 0zm-5.648 6.784c-0.221,1.182 -0.51,2.15 -0.869,2.905 -0.376,0.784 -0.71,1.129 -1.003,1.037 -0.277,-0.121 -0.425,-0.63 -0.446,-1.528 -0.037,-0.868 0.054,-1.893 0.274,-3.074 0.266,-1.194 0.555,-2.162 0.869,-2.905 0.375,-0.784 0.687,-1.123 0.935,-1.019 0.293,0.092 0.458,0.572 0.495,1.441 0.067,0.885 -0.018,1.933 -0.255,3.143z"/>
      </g>
     </g>
    </g>
   </g>
  </g>
  <g id="armRight_FL_FL_FL">
   <g>
    <g>
     <g>
      <path class="fil0" d="M71.462 86.41c-1.537,2.231 -3.683,3.981 -6.439,5.249 -4.293,-3.795 -7.756,-8.241 -10.386,-13.337l12.426 -5.633c2.014,4.427 3.48,9 4.399,13.721z"/>
      <path class="fil1" d="M54.179 78.538l-1.175 -2.458 14.222 -6.442c0.929,0.127 1.32,0.946 1.175,2.458l-1.338 0.593 -12.426 5.633 -0.458 0.216z"/>
      <path class="fil2" d="M55.462 63.484l0.048 -0.013c0.356,-0.164 0.714,-0.306 1.072,-0.428 3.244,-0.924 6.792,1.274 10.644,6.595l-14.222 6.442 -1.46 -2.945c-0.887,-1.768 -0.951,-3.615 -0.194,-5.541 0.772,-1.868 2.143,-3.238 4.112,-4.11z"/>
     </g>
    </g>
   </g>
  </g>
  <g id="handRight_FL_FL_FL">
   <g>
    <g>
     <g>
      <g>
       <path class="fil3" d="M59.943 85.975c-1.198,1.839 -1.95,4.508 -2.255,8.006l0.014 0.825 -0.013 -0.049c-2.747,-2.266 -1.996,-5.193 2.254,-8.782l0 0zm8.791 4.218c-0.822,0.151 -1.833,0.181 -3.031,0.088 -1.23,-0.085 -2.264,-0.274 -3.102,-0.567 -0.829,-0.261 -1.251,-0.545 -1.264,-0.852 -0.036,-0.266 0.372,-0.479 1.227,-0.639 0.798,-0.11 1.809,-0.14 3.031,-0.087 1.198,0.093 2.211,0.27 3.041,0.531 0.861,0.252 1.314,0.527 1.359,0.826 0.014,0.307 -0.407,0.54 -1.261,0.7z"/>
      </g>
      <g>
       <path class="fil0" d="M57.688 93.981c0.305,-3.498 1.057,-6.167 2.255,-8.006l9.981 -0.035c0.824,-0.013 1.251,0.355 1.28,1.107l-0.003 0.57c0.349,8.258 -1.853,12.402 -6.607,12.434 -1.681,0.036 -3.403,-0.141 -5.164,-0.532 -1.168,-0.239 -1.759,-0.771 -1.773,-1.595l-0.016 -0.255c0.007,-1.003 0.023,-1.974 0.048,-2.912l0.013 0.049 -0.014 -0.825 0 0zm8.015 -3.7c1.198,0.093 2.209,0.063 3.031,-0.088 0.854,-0.16 1.275,-0.393 1.261,-0.7 -0.045,-0.299 -0.498,-0.574 -1.359,-0.826 -0.83,-0.261 -1.843,-0.438 -3.041,-0.531 -1.222,-0.053 -2.233,-0.023 -3.031,0.087 -0.855,0.16 -1.263,0.373 -1.227,0.639 0.013,0.307 0.435,0.591 1.264,0.852 0.838,0.293 1.872,0.482 3.102,0.567z"/>
      </g>
     </g>
    </g>
   </g>
  </g>
  <g id="armRight_FL_FL_FL_FL">
   <g>
    <g>
     <g>
      <path class="fil0" d="M146.041 40.886c2.804,-0.231 5.537,0.368 8.202,1.794 -0.833,6.111 -2.702,11.971 -5.606,17.58l-11.942 -6.493c2.676,-4.648 5.792,-8.942 9.346,-12.881z"/>
      <path class="fil1" d="M149.085 60.494l-1.454 2.628 -13.665 -7.435c-0.419,-0.854 0.066,-1.73 1.454,-2.628l1.275 0.708 11.942 6.493 0.448 0.234z"/>
      <path class="fil2" d="M135.351 69.57l-0.039 -0.031c-0.345,-0.185 -0.671,-0.385 -0.981,-0.6 -2.645,-2.062 -2.767,-6.48 -0.365,-13.252l13.665 7.435 -1.713 3.192c-1.022,1.924 -2.581,3.222 -4.676,3.892 -2.053,0.618 -4.017,0.406 -5.891,-0.636z"/>
     </g>
    </g>
   </g>
  </g>
  <g id="handRight_FL_FL_FL_FL">
   <g>
    <g>
     <g>
      <g>
       <path class="fil3" d="M143.305 42.798c-0.956,-1.972 -1.371,-4.712 -1.246,-8.222l0.113 -0.816 -0.018 0.046c-2.978,1.913 -2.594,4.91 1.151,8.992l0 0zm9.162 -3.11c-0.79,-0.25 -1.781,-0.403 -2.971,-0.457 -1.221,-0.067 -2.261,-0.007 -3.121,0.182 -0.848,0.157 -1.297,0.388 -1.347,0.691 -0.069,0.26 0.308,0.521 1.129,0.784 0.772,0.208 1.763,0.36 2.971,0.458 1.191,0.055 2.21,0.003 3.057,-0.154 0.878,-0.146 1.358,-0.363 1.439,-0.654 0.05,-0.303 -0.335,-0.586 -1.157,-0.85z"/>
      </g>
      <g>
       <path class="fil0" d="M142.059 34.576c-0.125,3.51 0.29,6.25 1.246,8.222l9.817 1.257c0.809,0.115 1.274,-0.199 1.394,-0.941l0.066 -0.566c1.346,-8.153 -0.317,-12.536 -4.991,-13.149 -1.65,-0.242 -3.365,-0.277 -5.145,-0.105 -1.179,0.094 -1.825,0.55 -1.939,1.366l-0.047 0.251c-0.115,0.996 -0.217,1.961 -0.306,2.895l0.018 -0.046 -0.113 0.816 0 0zm7.437 4.655c1.19,0.054 2.181,0.207 2.971,0.457 0.822,0.264 1.207,0.547 1.157,0.85 -0.081,0.291 -0.561,0.508 -1.439,0.654 -0.847,0.157 -1.866,0.209 -3.057,0.154 -1.208,-0.098 -2.199,-0.25 -2.971,-0.458 -0.821,-0.263 -1.198,-0.524 -1.129,-0.784 0.05,-0.303 0.499,-0.534 1.347,-0.691 0.86,-0.188 1.9,-0.249 3.121,-0.182z"/>
      </g>
     </g>
    </g>
   </g>
  </g>
  <g id="armRight_FL_FL_FL_FL_FL">
   <g>
    <g>
     <g>
      <path class="fil0" d="M239.64 81.819c-0.812,2.718 -2.371,5.07 -4.676,7.056 -5.388,-3.002 -10.164,-6.886 -14.327,-11.653l10.425 -8.865c3.351,4.204 6.21,8.691 8.578,13.462z"/>
      <path class="fil1" d="M220.256 77.559l-1.915 -2.321 11.931 -10.142c0.95,-0.084 1.589,0.69 1.916,2.321l-1.126 0.94 -10.425 8.865 -0.381 0.337z"/>
      <path class="fil2" d="M216.83 61.355l0.043 -0.025c0.299,-0.257 0.605,-0.491 0.918,-0.704 2.891,-1.736 7.051,-0.246 12.481,4.47l-11.931 10.142 -2.348 -2.77c-1.418,-1.659 -2.056,-3.595 -1.914,-5.807 0.177,-2.154 1.094,-3.923 2.751,-5.306z"/>
     </g>
    </g>
   </g>
  </g>
  <g id="handRight_FL_FL_FL_FL_FL">
   <g>
    <g>
     <g>
      <g>
       <path class="fil3" d="M228.093 81.175c-1.198,1.839 -1.95,4.508 -2.255,8.006l0.014 0.825 -0.013 -0.049c-2.747,-2.266 -1.995,-5.193 2.254,-8.782l0 0zm8.791 4.218c-0.822,0.151 -1.832,0.181 -3.031,0.088 -1.23,-0.085 -2.264,-0.274 -3.102,-0.567 -0.829,-0.261 -1.25,-0.545 -1.264,-0.852 -0.036,-0.266 0.372,-0.479 1.227,-0.639 0.799,-0.11 1.809,-0.14 3.031,-0.087 1.198,0.093 2.212,0.27 3.041,0.531 0.861,0.252 1.314,0.527 1.36,0.826 0.013,0.307 -0.407,0.54 -1.262,0.7z"/>
      </g>
      <g>
       <path class="fil0" d="M225.838 89.181c0.305,-3.498 1.057,-6.167 2.255,-8.006l9.981 -0.035c0.825,-0.013 1.251,0.355 1.28,1.107l-0.003 0.57c0.35,8.258 -1.853,12.402 -6.607,12.434 -1.681,0.036 -3.402,-0.141 -5.163,-0.532 -1.169,-0.239 -1.76,-0.771 -1.774,-1.596l-0.016 -0.254c0.007,-1.003 0.023,-1.974 0.048,-2.912l0.013 0.049 -0.014 -0.825 0 0zm8.015 -3.7c1.199,0.093 2.209,0.063 3.031,-0.088 0.855,-0.16 1.275,-0.393 1.262,-0.7 -0.046,-0.299 -0.499,-0.574 -1.36,-0.826 -0.829,-0.261 -1.843,-0.438 -3.041,-0.531 -1.222,-0.053 -2.232,-0.023 -3.031,0.087 -0.855,0.16 -1.263,0.373 -1.227,0.639 0.014,0.307 0.435,0.591 1.264,0.852 0.838,0.293 1.872,0.482 3.102,0.567z"/>
      </g>
     </g>
    </g>
   </g>
  </g>
  <g id="armRight_FL_FL_FL_FL_FL_FL">
   <g>
    <g>
     <g>
      <path class="fil0" d="M312.523 92.905c-1.487,2.416 -3.601,4.284 -6.343,5.605 -4.427,-4.294 -8.035,-9.282 -10.822,-14.963l12.364 -5.865c2.149,4.927 3.749,10.002 4.801,15.223z"/>
      <path class="fil1" d="M294.903 83.773l-1.25 -2.738 14.151 -6.708c0.939,0.165 1.355,1.078 1.25,2.738l-1.332 0.617 -12.364 5.865 -0.455 0.226z"/>
      <path class="fil2" d="M295.788 67.235l0.048 -0.013c0.355,-0.171 0.711,-0.319 1.069,-0.443 3.242,-0.929 6.875,1.587 10.899,7.548l-14.151 6.708 -1.55 -3.282c-0.941,-1.97 -1.056,-4.005 -0.345,-6.105 0.727,-2.035 2.071,-3.506 4.03,-4.413z"/>
     </g>
    </g>
   </g>
  </g>
  <g id="handRight_FL_FL_FL_FL_FL_FL">
   <g>
    <g>
     <g>
      <g>
       <path class="fil3" d="M303.901 86.839c-1.957,0.994 -3.942,2.929 -5.955,5.806l-0.4 0.721 0.012 -0.049c-1.245,-3.335 0.869,-5.495 6.343,-6.478l0 0zm5.505 8.048c-0.788,-0.28 -1.677,-0.76 -2.669,-1.44 -1.023,-0.688 -1.824,-1.368 -2.403,-2.041 -0.588,-0.641 -0.81,-1.097 -0.668,-1.37 0.101,-0.249 0.561,-0.229 1.381,0.06 0.747,0.304 1.637,0.784 2.668,1.439 0.992,0.68 1.781,1.34 2.369,1.981 0.62,0.649 0.875,1.114 0.765,1.395 -0.142,0.273 -0.623,0.265 -1.443,-0.024z"/>
      </g>
      <g>
       <path class="fil0" d="M297.946 92.645c2.013,-2.877 3.998,-4.813 5.955,-5.806l8.662 4.96c0.72,0.4 0.906,0.933 0.555,1.598l-0.287 0.493c-3.827,7.325 -7.806,9.814 -11.939,7.464 -1.474,-0.809 -2.876,-1.823 -4.206,-3.042 -0.892,-0.791 -1.138,-1.547 -0.738,-2.268l0.113 -0.229c0.508,-0.865 1.007,-1.697 1.497,-2.498l-0.012 0.049 0.4 -0.721 0 0zm8.791 0.802c0.992,0.68 1.881,1.16 2.669,1.44 0.819,0.289 1.301,0.297 1.443,0.024 0.11,-0.281 -0.145,-0.746 -0.765,-1.395 -0.588,-0.641 -1.377,-1.301 -2.369,-1.981 -1.031,-0.656 -1.921,-1.135 -2.668,-1.439 -0.82,-0.289 -1.28,-0.309 -1.381,-0.06 -0.142,0.273 0.08,0.729 0.668,1.37 0.579,0.673 1.38,1.353 2.403,2.041z"/>
      </g>
     </g>
    </g>
   </g>
  </g>
  <g id="armRight_FL_FL_FL_FL_FL_FL_FL">
   <g>
    <g>
     <g>
      <path class="fil0" d="M397.047 75.329c-0.574,2.778 -1.923,5.257 -4.048,7.434 -5.628,-2.524 -10.722,-5.981 -15.281,-10.369l9.619 -9.734c3.701,3.898 6.938,8.121 9.71,12.669z"/>
      <path class="fil1" d="M377.367 72.762l-2.109 -2.147 11.01 -11.136c0.939,-0.165 1.642,0.55 2.109,2.147l-1.04 1.034 -9.619 9.734 -0.351 0.368z"/>
      <path class="fil2" d="M372.553 56.916l0.04 -0.029c0.276,-0.282 0.56,-0.542 0.853,-0.781 2.73,-1.98 7.004,-0.856 12.822,3.373l-11.01 11.136 -2.578 -2.555c-1.557,-1.531 -2.36,-3.404 -2.409,-5.62 -0.011,-2.162 0.75,-4.003 2.282,-5.524z"/>
     </g>
    </g>
   </g>
  </g>
  <g id="handRight_FL_FL_FL_FL_FL_FL_FL">
   <g>
    <g>
     <g>
      <g>
       <path class="fil3" d="M385.227 78.195c-0.118,2.193 0.565,4.879 2.05,8.061l0.424 0.708 -0.035 -0.036c-3.512,-0.589 -4.325,-3.5 -2.439,-8.733l0 0zm9.722 -0.742c-0.636,0.542 -1.496,1.073 -2.581,1.591 -1.107,0.542 -2.097,0.896 -2.969,1.061 -0.849,0.188 -1.356,0.153 -1.521,-0.106 -0.165,-0.212 0.083,-0.602 0.743,-1.167 0.636,-0.495 1.497,-1.025 2.581,-1.591 1.084,-0.518 2.05,-0.872 2.899,-1.06 0.872,-0.212 1.402,-0.201 1.591,0.035 0.165,0.259 -0.083,0.672 -0.743,1.237z"/>
      </g>
      <g>
       <path class="fil0" d="M387.277 86.256c-1.485,-3.182 -2.168,-5.869 -2.05,-8.061l8.627 -5.02c0.707,-0.424 1.26,-0.318 1.661,0.318l0.283 0.495c4.431,6.978 4.596,11.668 0.495,14.072 -1.438,0.872 -3.018,1.579 -4.738,2.121 -1.132,0.377 -1.909,0.212 -2.334,-0.495l-0.141 -0.212c-0.495,-0.872 -0.966,-1.721 -1.414,-2.546l0.035 0.036 -0.424 -0.708 0 0zm5.091 -7.212c1.085,-0.519 1.945,-1.049 2.581,-1.591 0.66,-0.566 0.908,-0.978 0.743,-1.237 -0.189,-0.236 -0.719,-0.248 -1.591,-0.035 -0.849,0.188 -1.815,0.542 -2.899,1.06 -1.084,0.566 -1.945,1.096 -2.581,1.591 -0.66,0.566 -0.908,0.954 -0.743,1.167 0.165,0.259 0.672,0.294 1.521,0.106 0.872,-0.165 1.862,-0.519 2.969,-1.061z"/>
      </g>
     </g>
    </g>
   </g>
  </g>
  <g id="armRight_FL_FL_FL_FL_FL_FL_FL_FL">
   <g>
    <g>
     <g>
      <path class="fil0" d="M69.574 201.985c-2.062,1.949 -4.588,3.206 -7.577,3.773 -3.166,-5.294 -5.359,-11.046 -6.581,-17.255l13.461 -2.465c0.799,5.316 1.032,10.632 0.697,15.947z"/>
      <path class="fil1" d="M54.918 188.604l-0.499 -2.968 15.405 -2.817c0.864,0.402 1.03,1.392 0.498,2.968l-1.445 0.251 -13.461 2.465 -0.498 0.101z"/>
      <path class="fil2" d="M60.053 172.858l0.049 0c0.388,-0.073 0.77,-0.123 1.147,-0.15 3.372,-0.059 6.23,3.312 8.575,10.111l-15.405 2.817 -0.648 -3.572c-0.399,-2.146 0.017,-4.141 1.246,-5.986 1.23,-1.777 2.908,-2.851 5.036,-3.22z"/>
     </g>
    </g>
   </g>
  </g>
  <g id="handRight_FL_FL_FL_FL_FL_FL_FL_FL">
   <g>
    <g>
     <g>
      <g>
       <path class="fil3" d="M65.948 194.039c1.957,0.994 3.943,2.929 5.956,5.806l0.4 0.721 -0.013 -0.049c1.246,-3.335 -0.868,-5.495 -6.343,-6.478l0 0zm-5.504 8.048c0.787,-0.28 1.677,-0.76 2.668,-1.439 1.024,-0.688 1.825,-1.369 2.404,-2.042 0.587,-0.641 0.81,-1.097 0.668,-1.37 -0.102,-0.248 -0.562,-0.229 -1.382,0.06 -0.746,0.304 -1.636,0.784 -2.668,1.44 -0.991,0.679 -1.781,1.34 -2.368,1.98 -0.62,0.65 -0.875,1.114 -0.765,1.396 0.142,0.272 0.623,0.264 1.443,-0.025z"/>
      </g>
      <g>
       <path class="fil0" d="M71.904 199.845c-2.013,-2.877 -3.999,-4.812 -5.956,-5.806l-8.661 4.96c-0.721,0.4 -0.906,0.933 -0.555,1.599l0.287 0.492c3.827,7.326 7.806,9.814 11.939,7.464 1.474,-0.809 2.876,-1.823 4.205,-3.042 0.893,-0.791 1.139,-1.547 0.739,-2.268l-0.113 -0.229c-0.508,-0.865 -1.007,-1.697 -1.498,-2.498l0.013 0.049 -0.4 -0.721 0 0zm-8.792 0.803c-0.991,0.679 -1.881,1.159 -2.668,1.439 -0.82,0.289 -1.301,0.297 -1.443,0.025 -0.11,-0.282 0.145,-0.746 0.765,-1.396 0.587,-0.64 1.377,-1.3 2.368,-1.98 1.032,-0.656 1.922,-1.136 2.668,-1.44 0.82,-0.289 1.281,-0.308 1.382,-0.06 0.142,0.273 -0.081,0.729 -0.668,1.37 -0.579,0.673 -1.38,1.354 -2.404,2.042z"/>
      </g>
     </g>
    </g>
   </g>
  </g>
  <g id="armRight_FL_FL_FL_FL_FL_FL_FL_FL_FL">
   <g>
    <g>
     <g>
      <path class="fil0" d="M137.42 203.123c-2.618,1.091 -5.426,1.373 -8.423,0.845 -1.086,-6.072 -1.1,-12.227 -0.044,-18.467l13.461 2.461c-1.134,5.254 -2.799,10.308 -4.994,15.161z"/>
      <path class="fil1" d="M128.451 185.419l0.584 -2.953 15.405 2.82c0.665,0.682 0.47,1.667 -0.585,2.952l-1.441 -0.276 -13.461 -2.461 -0.502 -0.082z"/>
      <path class="fil2" d="M138.828 172.511l0.047 0.018c0.388,0.068 0.763,0.157 1.126,0.265 3.174,1.139 4.654,5.303 4.439,12.492l-15.405 -2.82 0.659 -3.569c0.387,-2.149 1.482,-3.868 3.285,-5.158 1.779,-1.226 3.729,-1.636 5.849,-1.228z"/>
     </g>
    </g>
   </g>
  </g>
  <g id="handRight_FL_FL_FL_FL_FL_FL_FL_FL_FL">
   <g>
    <g>
     <g>
      <g>
       <path class="fil3" d="M136.846 194.41c1.479,1.623 2.65,4.136 3.514,7.539l0.119 0.816 0.005 -0.05c2.346,-2.679 1.134,-5.447 -3.638,-8.305l0 0zm-7.998 5.579c0.836,0.017 1.838,-0.117 3.006,-0.402 1.201,-0.281 2.191,-0.634 2.97,-1.058 0.777,-0.391 1.147,-0.739 1.11,-1.045 -0.006,-0.268 -0.444,-0.413 -1.313,-0.433 -0.806,0.019 -1.808,0.153 -3.005,0.402 -1.168,0.284 -2.14,0.622 -2.916,1.013 -0.809,0.388 -1.213,0.733 -1.21,1.034 0.037,0.306 0.489,0.468 1.358,0.489z"/>
      </g>
      <g>
       <path class="fil0" d="M140.36 201.949c-0.864,-3.403 -2.035,-5.916 -3.514,-7.539l-9.856 1.573c-0.816,0.119 -1.178,0.552 -1.085,1.298l0.094 0.562c0.984,8.206 3.825,11.942 8.522,11.208 1.665,-0.235 3.335,-0.687 5.011,-1.356 1.114,-0.424 1.612,-1.044 1.493,-1.86l-0.025 -0.254c-0.169,-0.988 -0.341,-1.944 -0.516,-2.866l-0.005 0.05 -0.119 -0.816 0 0zm-8.506 -2.362c-1.168,0.285 -2.17,0.419 -3.006,0.402 -0.869,-0.021 -1.321,-0.183 -1.358,-0.489 -0.003,-0.301 0.401,-0.646 1.21,-1.034 0.776,-0.391 1.748,-0.729 2.916,-1.013 1.197,-0.249 2.199,-0.383 3.005,-0.402 0.869,0.02 1.307,0.165 1.313,0.433 0.037,0.306 -0.333,0.654 -1.11,1.045 -0.78,0.424 -1.769,0.777 -2.97,1.058z"/>
      </g>
     </g>
    </g>
   </g>
  </g>
  <g id="armRight_FL_FL_FL_FL_FL_FL_FL_FL_FL_FL">
   <g>
    <g>
     <g>
      <path class="fil0" d="M228.767 175.899c1.445,2.441 2.115,5.182 2.009,8.223 -5.862,1.92 -11.955,2.791 -18.281,2.614l0.564 -13.673c5.361,0.392 10.597,1.337 15.708,2.836z"/>
      <path class="fil1" d="M212.483 187.244l-3.005 -0.168 0.649 -15.646c0.583,-0.754 1.585,-0.698 3.005,0.168l-0.073 1.465 -0.564 13.673 -0.012 0.508z"/>
      <path class="fil2" d="M198.257 178.764l0.011 -0.048c0.014,-0.394 0.049,-0.778 0.106,-1.152 0.686,-3.302 4.604,-5.347 11.753,-6.134l-0.649 15.646 -3.627 -0.155c-2.181,-0.084 -4.036,-0.929 -5.564,-2.535 -1.462,-1.592 -2.139,-3.466 -2.03,-5.622z"/>
     </g>
    </g>
   </g>
  </g>
  <g id="handRight_FL_FL_FL_FL_FL_FL_FL_FL_FL_FL">
   <g>
    <g>
     <g>
      <g>
       <path class="fil3" d="M223.725 175.093c1.839,-1.198 4.508,-1.95 8.006,-2.255l0.825 0.014 -0.049 -0.013c-2.266,-2.747 -5.194,-1.995 -8.782,2.254l0 0zm4.218 8.791c0.151,-0.822 0.18,-1.832 0.087,-3.03 -0.084,-1.231 -0.273,-2.265 -0.566,-3.103 -0.261,-0.829 -0.545,-1.25 -0.852,-1.264 -0.266,-0.036 -0.479,0.372 -0.639,1.227 -0.11,0.799 -0.14,1.809 -0.087,3.03 0.093,1.199 0.27,2.213 0.531,3.042 0.252,0.861 0.527,1.314 0.826,1.36 0.307,0.013 0.54,-0.407 0.7,-1.262z"/>
      </g>
      <g>
       <path class="fil0" d="M231.731 172.838c-3.498,0.305 -6.167,1.057 -8.006,2.255l-0.035 9.981c-0.014,0.824 0.355,1.251 1.107,1.28l0.57 -0.003c8.257,0.35 12.402,-1.853 12.434,-6.607 0.036,-1.681 -0.141,-3.402 -0.532,-5.163 -0.239,-1.169 -0.771,-1.76 -1.596,-1.774l-0.254 -0.016c-1.003,0.008 -1.973,0.024 -2.912,0.048l0.049 0.013 -0.825 -0.014 0 0zm-3.701 8.016c0.093,1.198 0.064,2.208 -0.087,3.03 -0.16,0.855 -0.393,1.275 -0.7,1.262 -0.299,-0.046 -0.574,-0.499 -0.826,-1.36 -0.261,-0.829 -0.438,-1.843 -0.531,-3.042 -0.053,-1.221 -0.023,-2.231 0.087,-3.03 0.16,-0.855 0.373,-1.263 0.639,-1.227 0.307,0.014 0.591,0.435 0.852,1.264 0.293,0.838 0.482,1.872 0.566,3.103z"/>
      </g>
     </g>
    </g>
   </g>
  </g>
  <g id="armRight_FL_FL_FL_FL_FL_FL_FL_FL_FL_FL_FL">
   <g>
    <g>
     <g>
      <path class="fil0" d="M373.747 148.225c2.832,0.181 5.473,1.171 7.926,2.972 -1.714,5.925 -4.426,11.45 -8.135,16.577l-10.981 -8.166c3.344,-4.209 7.074,-8.003 11.19,-11.383z"/>
      <path class="fil1" d="M373.951 168.07l-1.832 2.388 -12.563 -9.348c-0.295,-0.907 0.316,-1.703 1.832,-2.388l1.169 0.886 10.981 8.166 0.413 0.296z"/>
      <path class="fil2" d="M358.932 175.049l-0.034 -0.037c-0.318,-0.233 -0.615,-0.478 -0.892,-0.736 -2.342,-2.427 -1.825,-6.816 1.55,-13.166l12.563 9.348 -2.171 2.909c-1.298,1.756 -3.041,2.812 -5.228,3.17 -2.139,0.312 -4.068,-0.184 -5.788,-1.488z"/>
     </g>
    </g>
   </g>
  </g>
  <g id="handRight_FL_FL_FL_FL_FL_FL_FL_FL_FL_FL_FL">
   <g>
    <g>
     <g>
      <g>
       <path class="fil3" d="M379.197 158.766c2.103,-0.629 4.401,-2.18 6.895,-4.652l0.522 -0.638 -0.021 0.045c0.631,3.505 -1.834,5.253 -7.396,5.245l0 0zm-3.982 -8.9c0.725,0.416 1.515,1.047 2.369,1.892 0.884,0.859 1.551,1.672 2.001,2.437 0.464,0.735 0.602,1.224 0.414,1.467 -0.144,0.227 -0.594,0.125 -1.349,-0.305 -0.681,-0.432 -1.471,-1.063 -2.369,-1.892 -0.854,-0.846 -1.514,-1.636 -1.977,-2.371 -0.495,-0.749 -0.663,-1.252 -0.505,-1.509 0.189,-0.243 0.661,-0.149 1.416,0.281z"/>
      </g>
      <g>
       <path class="fil0" d="M386.092 154.114c-2.494,2.472 -4.792,4.023 -6.895,4.652l-7.638 -6.424c-0.638,-0.522 -0.726,-1.079 -0.262,-1.671l0.37 -0.433c5.071,-6.527 9.43,-8.267 13.077,-5.219 1.307,1.059 2.506,2.307 3.597,3.743 0.737,0.938 0.844,1.726 0.322,2.364l-0.152 0.205c-0.654,0.76 -1.293,1.49 -1.918,2.19l0.021 -0.045 -0.522 0.638 0 0zm-8.508 -2.356c-0.854,-0.845 -1.644,-1.476 -2.369,-1.892 -0.755,-0.43 -1.227,-0.524 -1.416,-0.281 -0.158,0.257 0.01,0.76 0.505,1.509 0.464,0.735 1.123,1.525 1.977,2.371 0.898,0.829 1.688,1.46 2.369,1.892 0.755,0.43 1.205,0.532 1.349,0.305 0.188,-0.243 0.05,-0.732 -0.414,-1.467 -0.45,-0.765 -1.117,-1.578 -2.001,-2.437z"/>
      </g>
     </g>
    </g>
   </g>
  </g>
  <g id="armRight_FL_FL_FL_FL_FL_FL_FL_FL_FL_FL_FL_FL">
   <g>
    <g>
     <g>
      <path class="fil0" d="M469.066 178.134c0.953,2.672 1.088,5.491 0.404,8.455 -6.121,0.767 -12.268,0.46 -18.444,-0.921l3.162 -13.313c5.188,1.407 10.147,3.333 14.878,5.779z"/>
      <path class="fil1" d="M450.918 186.165l-2.918 -0.738 3.622 -15.235c0.716,-0.629 1.689,-0.383 2.917,0.738l-0.351 1.425 -3.162 13.313 -0.108 0.497z"/>
      <path class="fil2" d="M438.572 175.127l0.02 -0.045c0.088,-0.384 0.196,-0.755 0.323,-1.111 1.304,-3.11 5.539,-4.37 12.707,-3.779l-3.622 15.235 -3.53 -0.845c-2.125,-0.498 -3.785,-1.682 -4.978,-3.55 -1.132,-1.841 -1.439,-3.809 -0.92,-5.905z"/>
     </g>
    </g>
   </g>
  </g>
  <g id="handRight_FL_FL_FL_FL_FL_FL_FL_FL_FL_FL_FL_FL">
   <g>
    <g>
     <g>
      <g>
       <path class="fil3" d="M464.196 187.814c1.959,0.991 4.693,1.449 8.203,1.373l0.818 -0.103 -0.046 0.018c-1.955,2.976 -4.947,2.547 -8.975,-1.288l0 0zm3.241 -9.196c0.239,0.801 0.378,1.801 0.415,3.002 0.049,1.233 -0.026,2.281 -0.227,3.146 -0.169,0.852 -0.406,1.302 -0.71,1.348 -0.26,0.065 -0.516,-0.318 -0.768,-1.15 -0.196,-0.781 -0.335,-1.783 -0.415,-3.003 -0.038,-1.201 0.028,-2.228 0.198,-3.08 0.157,-0.884 0.382,-1.364 0.674,-1.442 0.303,-0.046 0.581,0.346 0.833,1.179z"/>
      </g>
      <g>
       <path class="fil0" d="M472.399 189.187c-3.51,0.076 -6.244,-0.382 -8.203,-1.373l-1.116 -9.918c-0.103,-0.819 0.218,-1.283 0.961,-1.393l0.567 -0.059c8.171,-1.242 12.53,0.498 13.076,5.22 0.218,1.667 0.229,3.397 0.031,5.19 -0.111,1.188 -0.576,1.833 -1.393,1.936l-0.252 0.044c-0.997,0.101 -1.964,0.191 -2.899,0.268l0.046 -0.018 -0.818 0.103 0 0zm-4.547 -7.567c-0.037,-1.201 -0.176,-2.201 -0.415,-3.002 -0.252,-0.833 -0.53,-1.225 -0.833,-1.179 -0.292,0.078 -0.517,0.558 -0.674,1.442 -0.17,0.852 -0.236,1.879 -0.198,3.08 0.08,1.22 0.219,2.222 0.415,3.003 0.252,0.832 0.508,1.216 0.768,1.15 0.304,-0.047 0.541,-0.496 0.71,-1.348 0.201,-0.865 0.276,-1.913 0.227,-3.146z"/>
      </g>
     </g>
    </g>
   </g>
  </g>
  <g id="armRight_FL_FL_FL_FL_FL_FL_FL_FL_FL_FL_FL_FL_FL">
   <g>
    <g>
     <g>
      <path class="fil0" d="M541.967 190.537c-1.337,2.502 -3.333,4.496 -5.988,5.983 -4.682,-4.016 -8.587,-8.774 -11.716,-14.274l11.982 -6.61c2.445,4.787 4.353,9.754 5.722,14.901z"/>
      <path class="fil1" d="M523.822 182.5l-1.415 -2.657 13.714 -7.56c0.947,0.107 1.419,0.993 1.415,2.656l-1.291 0.697 -11.982 6.61 -0.441 0.254z"/>
      <path class="fil2" d="M523.694 165.938l0.047 -0.015c0.344,-0.192 0.691,-0.362 1.04,-0.507 3.179,-1.126 6.959,1.163 11.34,6.867l-13.714 7.56 -1.748 -3.181c-1.059,-1.909 -1.299,-3.933 -0.718,-6.072 0.602,-2.076 1.853,-3.627 3.753,-4.652z"/>
     </g>
    </g>
   </g>
  </g>
  <g id="handRight_FL_FL_FL_FL_FL_FL_FL_FL_FL_FL_FL_FL_FL">
   <g>
    <g>
     <g>
      <g>
       <path class="fil3" d="M529.927 188.672c-1.083,1.909 -1.67,4.619 -1.761,8.129l0.065 0.822 -0.016 -0.048c-2.881,-2.094 -2.309,-5.062 1.712,-8.903l0 0zm9.033 3.673c-0.811,0.201 -1.818,0.292 -3.019,0.272 -1.234,-0.009 -2.278,-0.134 -3.132,-0.375 -0.843,-0.21 -1.281,-0.468 -1.313,-0.774 -0.053,-0.263 0.342,-0.501 1.185,-0.712 0.79,-0.16 1.797,-0.25 3.02,-0.273 1.201,0.02 2.224,0.134 3.067,0.344 0.876,0.199 1.345,0.446 1.409,0.742 0.032,0.305 -0.374,0.564 -1.217,0.776z"/>
      </g>
      <g>
       <path class="fil0" d="M528.166 196.801c0.091,-3.51 0.678,-6.22 1.761,-8.129l9.961 -0.645c0.822,-0.064 1.27,0.278 1.345,1.026l0.032 0.569c0.853,8.221 -1.091,12.493 -5.834,12.815 -1.676,0.139 -3.405,0.067 -5.187,-0.215 -1.181,-0.168 -1.803,-0.662 -1.867,-1.485l-0.032 -0.253c-0.054,-1.001 -0.097,-1.971 -0.13,-2.909l0.016 0.048 -0.065 -0.822 0 0zm7.775 -4.184c1.201,0.02 2.208,-0.071 3.019,-0.272 0.843,-0.212 1.248,-0.471 1.217,-0.776 -0.064,-0.296 -0.533,-0.543 -1.409,-0.742 -0.843,-0.21 -1.866,-0.324 -3.067,-0.344 -1.223,0.023 -2.23,0.113 -3.02,0.273 -0.843,0.211 -1.238,0.449 -1.185,0.712 0.032,0.306 0.47,0.564 1.313,0.774 0.854,0.241 1.898,0.366 3.132,0.375z"/>
      </g>
     </g>
    </g>
   </g>
  </g>
  <g id="armRight_FL_FL_FL_FL_FL_FL_FL_FL_FL_FL_FL_FL_FL_FL">
   <g>
    <g>
     <g>
      <path class="fil0" d="M636.481 52.23c-0.841,-2.709 -2.425,-5.044 -4.751,-7.006 -5.356,3.06 -10.089,6.995 -14.201,11.805l10.519 8.753c3.305,-4.239 6.116,-8.756 8.433,-13.552z"/>
      <path class="fil1" d="M617.144 56.697l-1.891 2.342 12.04 10.013c0.951,0.074 1.581,-0.707 1.891,-2.341l-1.136 -0.929 -10.519 -8.753 -0.385 -0.332z"/>
      <path class="fil2" d="M613.892 72.936l0.043 0.024c0.302,0.254 0.61,0.485 0.925,0.695 2.91,1.705 7.054,0.171 12.433,-4.603l-12.04 -10.013 -2.317 2.793c-1.401,1.675 -2.018,3.617 -1.852,5.828 0.2,2.152 1.135,3.911 2.808,5.276z"/>
     </g>
    </g>
   </g>
  </g>
  <g id="handRight_FL_FL_FL_FL_FL_FL_FL_FL_FL_FL_FL_FL_FL_FL">
   <g>
    <g>
     <g>
      <g>
       <path class="fil3" d="M624.718 50.723c-0.704,-2.08 -0.769,-4.852 -0.195,-8.316l0.218 -0.795 -0.024 0.044c-3.224,1.512 -3.224,4.535 0.001,9.067l0 0zm9.563 -1.902c-0.759,-0.351 -1.73,-0.63 -2.914,-0.838 -1.213,-0.224 -2.261,-0.298 -3.145,-0.222 -0.868,0.047 -1.347,0.218 -1.436,0.512 -0.102,0.248 0.241,0.556 1.029,0.923 0.746,0.306 1.717,0.585 2.914,0.838 1.184,0.208 2.209,0.288 3.078,0.241 0.897,-0.03 1.404,-0.184 1.522,-0.462 0.09,-0.294 -0.26,-0.625 -1.048,-0.992z"/>
      </g>
      <g>
       <path class="fil0" d="M624.523 42.407c-0.574,3.464 -0.509,6.236 0.195,8.316l9.659 2.513c0.795,0.219 1.3,-0.033 1.515,-0.753l0.139 -0.553c2.39,-7.912 1.286,-12.474 -3.31,-13.686 -1.62,-0.452 -3.331,-0.709 -5.134,-0.768 -1.191,-0.058 -1.896,0.31 -2.114,1.105l-0.079 0.242c-0.242,0.974 -0.468,1.918 -0.677,2.833l0.024 -0.044 -0.218 0.795 0 0zm6.844 5.576c1.184,0.208 2.155,0.487 2.914,0.838 0.788,0.367 1.138,0.698 1.048,0.992 -0.118,0.278 -0.625,0.432 -1.522,0.462 -0.869,0.047 -1.894,-0.033 -3.078,-0.241 -1.197,-0.253 -2.168,-0.532 -2.914,-0.838 -0.788,-0.367 -1.131,-0.675 -1.029,-0.923 0.089,-0.294 0.568,-0.465 1.436,-0.512 0.884,-0.076 1.932,-0.002 3.145,0.222z"/>
      </g>
     </g>
    </g>
   </g>
  </g>
  <g id="armRight_FL_FL_FL_FL_FL_FL_FL_FL_FL_FL_FL_FL_FL_FL_FL">
   <g>
    <g>
     <g>
      <path class="fil0" d="M636.604 180.234c0.227,2.828 -0.375,5.585 -1.806,8.27 -6.11,-0.849 -11.967,-2.742 -17.572,-5.68l6.511 -12.036c4.644,2.706 8.933,5.855 12.867,9.446z"/>
      <path class="fil1" d="M616.992 183.276l-2.626 -1.471 7.455 -13.772c0.855,-0.422 1.73,0.069 2.626,1.471l-0.71 1.284 -6.511 12.036 -0.234 0.452z"/>
      <path class="fil2" d="M607.936 169.409l0.031 -0.039c0.185,-0.347 0.386,-0.677 0.601,-0.988 2.067,-2.665 6.484,-2.781 13.253,-0.349l-7.455 13.772 -3.19 -1.733c-1.923,-1.033 -3.218,-2.607 -3.885,-4.721 -0.615,-2.072 -0.4,-4.053 0.645,-5.942z"/>
     </g>
    </g>
   </g>
  </g>
  <g id="handRight_FL_FL_FL_FL_FL_FL_FL_FL_FL_FL_FL_FL_FL_FL_FL">
   <g>
    <g>
     <g>
      <g>
       <path class="fil3" d="M623.62 184.534c0.638,2.1 2.199,4.392 4.682,6.874l0.64 0.52 -0.045 -0.022c-3.502,0.647 -5.261,-1.81 -5.277,-7.372l0 0zm8.883 -4.021c-0.413,0.727 -1.04,1.519 -1.882,2.377 -0.855,0.888 -1.665,1.559 -2.428,2.012 -0.733,0.467 -1.222,0.607 -1.465,0.42 -0.228,-0.143 -0.128,-0.593 0.299,-1.35 0.429,-0.683 1.056,-1.475 1.881,-2.378 0.842,-0.858 1.629,-1.52 2.362,-1.987 0.747,-0.498 1.25,-0.668 1.507,-0.511 0.244,0.187 0.152,0.66 -0.274,1.417z"/>
      </g>
      <g>
       <path class="fil0" d="M628.302 191.408c-2.483,-2.482 -4.044,-4.774 -4.682,-6.874l6.39 -7.667c0.52,-0.64 1.077,-0.73 1.671,-0.269l0.435 0.369c6.549,5.041 8.307,9.393 5.275,13.054 -1.053,1.311 -2.296,2.515 -3.727,3.613 -0.935,0.741 -1.722,0.852 -2.362,0.332l-0.206 -0.15c-0.763,-0.651 -1.496,-1.287 -2.199,-1.91l0.045 0.022 -0.64 -0.52 0 0zm2.319 -8.518c0.842,-0.858 1.469,-1.65 1.882,-2.377 0.426,-0.757 0.518,-1.23 0.274,-1.417 -0.257,-0.157 -0.76,0.013 -1.507,0.511 -0.733,0.467 -1.52,1.129 -2.362,1.987 -0.825,0.903 -1.452,1.695 -1.881,2.378 -0.427,0.757 -0.527,1.207 -0.299,1.35 0.244,0.187 0.732,0.047 1.465,-0.42 0.763,-0.453 1.572,-1.124 2.428,-2.012z"/>
      </g>
     </g>
    </g>
   </g>
  </g>
  <g id="armRight_FL_FL_FL_FL_FL_FL_FL_FL_FL_FL_FL_FL_FL_FL_FL_FL">
   <g>
    <g>
     <g>
      <path class="fil0" d="M145.953 271.754c2.268,1.704 3.933,3.981 4.997,6.832 -4.685,4.013 -9.984,7.145 -15.898,9.397l-4.7 -12.852c5.105,-1.685 10.305,-2.811 15.601,-3.377z"/>
      <path class="fil1" d="M135.235 288.457l-2.841 0.992 -5.375 -14.708c0.251,-0.92 1.198,-1.251 2.841,-0.993l0.492 1.383 4.7 12.852 0.183 0.474z"/>
      <path class="fil2" d="M118.849 286.052l-0.008 -0.049c-0.138,-0.369 -0.252,-0.738 -0.342,-1.105 -0.627,-3.314 2.213,-6.7 8.52,-10.157l5.375 14.708 -3.411 1.242c-2.049,0.755 -4.085,0.682 -6.111,-0.219 -1.959,-0.912 -3.3,-2.386 -4.023,-4.42z"/>
     </g>
    </g>
   </g>
  </g>
  <g id="handRight_FL_FL_FL_FL_FL_FL_FL_FL_FL_FL_FL_FL_FL_FL_FL_FL">
   <g>
    <g>
     <g>
      <g>
       <path class="fil3" d="M142.038 283.459c1.721,1.362 4.31,2.357 7.765,2.983l0.822 0.062 -0.049 0.009c-2.51,2.526 -5.356,1.508 -8.538,-3.054l0 0zm5.011 -8.365c0.075,0.833 0.011,1.841 -0.192,3.025 -0.198,1.218 -0.481,2.23 -0.85,3.037 -0.336,0.802 -0.658,1.195 -0.965,1.18 -0.269,0.012 -0.443,-0.414 -0.523,-1.28 -0.037,-0.805 0.027,-1.814 0.192,-3.026 0.203,-1.184 0.473,-2.177 0.809,-2.979 0.331,-0.834 0.647,-1.26 0.948,-1.278 0.307,0.015 0.501,0.455 0.581,1.321z"/>
      </g>
      <g>
       <path class="fil0" d="M149.803 286.442c-3.455,-0.626 -6.044,-1.621 -7.765,-2.983l0.886 -9.942c0.062,-0.822 0.469,-1.213 1.22,-1.173l0.567 0.056c8.255,0.413 12.179,2.988 11.772,7.725 -0.119,1.677 -0.454,3.375 -1.006,5.092 -0.345,1.141 -0.929,1.681 -1.752,1.619l-0.254 -0.007c-0.998,-0.1 -1.963,-0.205 -2.895,-0.316l0.049 -0.009 -0.822 -0.062 0 0zm-2.946 -8.323c0.203,-1.184 0.267,-2.192 0.192,-3.025 -0.08,-0.866 -0.274,-1.306 -0.581,-1.321 -0.301,0.018 -0.617,0.444 -0.948,1.278 -0.336,0.802 -0.606,1.795 -0.809,2.979 -0.165,1.212 -0.229,2.221 -0.192,3.026 0.08,0.866 0.254,1.292 0.523,1.28 0.307,0.015 0.629,-0.378 0.965,-1.18 0.369,-0.807 0.652,-1.819 0.85,-3.037z"/>
      </g>
     </g>
    </g>
   </g>
  </g>
  <g id="armRight_FL_FL_FL_FL_FL_FL_FL_FL_FL_FL_FL_FL_FL_FL_FL_FL_FL">
   <g>
    <g>
     <g>
      <path class="fil0" d="M716.981 53.23c-0.841,-2.709 -2.424,-5.045 -4.751,-7.006 -5.356,3.06 -10.089,6.995 -14.201,11.805l10.519 8.753c3.305,-4.239 6.116,-8.756 8.433,-13.552z"/>
      <path class="fil1" d="M697.644 57.697l-1.89 2.342 12.039 10.013c0.951,0.073 1.581,-0.707 1.891,-2.341l-1.136 -0.929 -10.519 -8.753 -0.385 -0.332z"/>
      <path class="fil2" d="M694.392 73.936l0.043 0.025c0.301,0.253 0.61,0.484 0.925,0.693 2.91,1.706 7.054,0.172 12.433,-4.602l-12.039 -10.013 -2.318 2.793c-1.401,1.675 -2.018,3.617 -1.852,5.828 0.2,2.152 1.135,3.911 2.808,5.276z"/>
     </g>
    </g>
   </g>
  </g>
  <g id="handRight_FL_FL_FL_FL_FL_FL_FL_FL_FL_FL_FL_FL_FL_FL_FL_FL_FL">
   <g>
    <g>
     <g>
      <g>
       <path class="fil3" d="M705.168 52.173c-0.704,-2.08 -0.769,-4.851 -0.195,-8.316l0.218 -0.795 -0.024 0.044c-3.224,1.512 -3.224,4.535 0.001,9.067l0 0zm9.563 -1.902c-0.759,-0.351 -1.73,-0.63 -2.914,-0.838 -1.213,-0.223 -2.261,-0.298 -3.145,-0.222 -0.868,0.047 -1.347,0.217 -1.436,0.511 -0.102,0.249 0.241,0.557 1.029,0.924 0.746,0.306 1.718,0.585 2.914,0.838 1.184,0.208 2.21,0.288 3.078,0.241 0.897,-0.03 1.404,-0.184 1.522,-0.462 0.09,-0.294 -0.26,-0.625 -1.048,-0.992z"/>
      </g>
      <g>
       <path class="fil0" d="M704.973 43.857c-0.574,3.465 -0.509,6.236 0.195,8.316l9.659 2.513c0.795,0.218 1.3,-0.033 1.515,-0.754l0.139 -0.552c2.39,-7.912 1.286,-12.474 -3.31,-13.685 -1.62,-0.454 -3.331,-0.71 -5.134,-0.768 -1.191,-0.059 -1.896,0.309 -2.114,1.104l-0.079 0.243c-0.242,0.973 -0.468,1.917 -0.677,2.832l0.024 -0.044 -0.218 0.795 0 0zm6.844 5.576c1.184,0.208 2.155,0.487 2.914,0.838 0.788,0.367 1.138,0.698 1.048,0.992 -0.118,0.278 -0.625,0.432 -1.522,0.462 -0.868,0.047 -1.894,-0.033 -3.078,-0.241 -1.196,-0.253 -2.168,-0.532 -2.914,-0.838 -0.788,-0.367 -1.131,-0.675 -1.029,-0.924 0.089,-0.294 0.568,-0.464 1.436,-0.511 0.884,-0.076 1.933,-0.001 3.145,0.222z"/>
      </g>
     </g>
    </g>
   </g>
  </g>
  <g id="armRight_FL_FL_FL_FL_FL_FL_FL_FL_FL_FL_FL_FL_FL_FL_FL_FL_FL_FL">
   <g>
    <g>
     <g>
      <path class="fil0" d="M717.17 182.102c-0.168,2.832 -1.146,5.478 -2.936,7.94 -5.933,-1.689 -11.471,-4.377 -16.614,-8.064l8.118 -11.016c4.224,3.325 8.035,7.038 11.432,11.14z"/>
      <path class="fil1" d="M697.325 182.393l-2.396 -1.821 9.294 -12.605c0.905,-0.298 1.704,0.309 2.396,1.821l-0.881 1.174 -8.118 11.016 -0.295 0.415z"/>
      <path class="fil2" d="M690.281 167.404l0.036 -0.034c0.232,-0.319 0.476,-0.617 0.732,-0.896 2.417,-2.352 6.808,-1.855 13.174,1.493l-9.294 12.605 -2.918 -2.158c-1.761,-1.291 -2.826,-3.029 -3.193,-5.215 -0.322,-2.138 0.166,-4.069 1.463,-5.795z"/>
     </g>
    </g>
   </g>
  </g>
  <g id="handRight_FL_FL_FL_FL_FL_FL_FL_FL_FL_FL_FL_FL_FL_FL_FL_FL_FL_FL">
   <g>
    <g>
     <g>
      <g>
       <path class="fil3" d="M703.229 184.4c0.301,2.174 1.483,4.682 3.545,7.524l0.551 0.614 -0.041 -0.028c-3.56,0.089 -4.911,-2.615 -4.055,-8.11l0 0zm9.405 -2.576c-0.522,0.653 -1.266,1.337 -2.232,2.052 -0.984,0.743 -1.889,1.278 -2.714,1.606 -0.797,0.346 -1.301,0.407 -1.512,0.184 -0.203,-0.177 -0.034,-0.605 0.507,-1.286 0.53,-0.607 1.274,-1.291 2.231,-2.052 0.966,-0.715 1.848,-1.246 2.645,-1.593 0.816,-0.373 1.339,-0.463 1.569,-0.267 0.211,0.223 0.046,0.675 -0.494,1.356z"/>
      </g>
      <g>
       <path class="fil0" d="M706.774 191.924c-2.062,-2.842 -3.244,-5.35 -3.545,-7.524l7.516 -6.568c0.613,-0.551 1.178,-0.552 1.692,-0.003l0.372 0.432c5.675,6.007 6.728,10.581 3.159,13.721 -1.246,1.129 -2.662,2.123 -4.248,2.982 -1.039,0.585 -1.834,0.571 -2.385,-0.043l-0.179 -0.181c-0.652,-0.762 -1.276,-1.505 -1.872,-2.23l0.041 0.028 -0.551 -0.614 0 0zm3.628 -8.048c0.966,-0.715 1.71,-1.399 2.232,-2.052 0.54,-0.681 0.705,-1.133 0.494,-1.356 -0.23,-0.196 -0.753,-0.106 -1.569,0.267 -0.797,0.347 -1.679,0.878 -2.645,1.593 -0.957,0.761 -1.701,1.445 -2.231,2.052 -0.541,0.681 -0.71,1.109 -0.507,1.286 0.211,0.223 0.715,0.162 1.512,-0.184 0.825,-0.328 1.73,-0.863 2.714,-1.606z"/>
      </g>
     </g>
    </g>
   </g>
  </g>
  <g id="armRight_FL_FL_FL_FL_FL_FL_FL_FL_FL_FL_FL_FL_FL_FL_FL_FL_FL_FL_FL">
   <g>
    <g>
     <g>
      <path class="fil0" d="M300.348 196.225c-1.179,3.064 -2.946,5.686 -5.303,7.864 -4.187,-3.606 -7.687,-8.196 -10.5,-13.767l10.636 -9.719c2.2,4.902 3.922,10.109 5.167,15.622z"/>
      <path class="fil1" d="M284.154 190.691l-1.272 -2.708 12.172 -11.12c0.844,-0.062 1.268,0.841 1.273,2.709l-1.146 1.031 -10.636 9.719 -0.391 0.369z"/>
      <path class="fil2" d="M283.96 172.131l0.042 -0.027c0.305,-0.282 0.613,-0.538 0.923,-0.768 2.825,-1.875 6.201,-0.033 10.129,5.527l-12.172 11.12 -1.572 -3.235c-0.953,-1.938 -1.175,-4.164 -0.669,-6.676 0.526,-2.445 1.633,-4.426 3.319,-5.941z"/>
     </g>
    </g>
   </g>
  </g>
  <g id="armRight_FL_FL_FL_FL_FL_FL_FL_FL_FL_FL_FL_FL_FL_FL_FL_FL_FL_FL_FL_FL">
   <g>
    <g>
     <g>
      <path class="fil0" d="M223.179 247.283c2.672,-0.954 5.49,-1.089 8.455,-0.405 0.768,6.12 0.462,12.268 -0.917,18.444l-13.315 -3.159c1.407,-5.188 3.332,-10.148 5.777,-14.88z"/>
      <path class="fil1" d="M231.214 265.43l-0.738 2.918 -15.236 -3.619c-0.63,-0.715 -0.383,-1.688 0.738,-2.917l1.424 0.351 13.315 3.159 0.497 0.108z"/>
      <path class="fil2" d="M220.178 277.779l-0.045 -0.02c-0.384,-0.088 -0.754,-0.196 -1.111,-0.323 -3.111,-1.303 -4.371,-5.538 -3.782,-12.707l15.236 3.619 -0.843 3.531c-0.499,2.125 -1.682,3.785 -3.55,4.978 -1.841,1.133 -3.809,1.44 -5.905,0.922z"/>
     </g>
    </g>
   </g>
  </g>
  <g id="handRight_FL_FL_FL_FL_FL_FL_FL_FL_FL_FL_FL_FL_FL_FL_FL_FL_FL_FL_FL">
   <g>
    <g>
     <g>
      <g>
       <path class="fil3" d="M226.907 258.089c2.155,0.421 4.911,0.116 8.268,-0.913l0.758 -0.322 -0.04 0.029c-1.07,3.397 -4.065,3.799 -8.986,1.206l0 0zm0.612 -9.731c0.449,0.705 0.855,1.631 1.218,2.776 0.383,1.173 0.596,2.202 0.639,3.089 0.069,0.866 -0.036,1.363 -0.316,1.49 -0.232,0.134 -0.584,-0.165 -1.052,-0.897 -0.402,-0.698 -0.808,-1.624 -1.218,-2.776 -0.364,-1.146 -0.58,-2.151 -0.649,-3.018 -0.089,-0.893 -0.004,-1.417 0.256,-1.571 0.279,-0.127 0.653,0.175 1.122,0.907z"/>
      </g>
      <g>
       <path class="fil0" d="M235.175 257.176c-3.357,1.029 -6.113,1.334 -8.268,0.913l-3.776 -9.238c-0.323,-0.759 -0.141,-1.293 0.545,-1.602l0.529 -0.211c7.523,-3.422 12.191,-2.935 14.004,1.459 0.665,1.545 1.146,3.207 1.445,4.986 0.216,1.172 -0.055,1.92 -0.814,2.242l-0.229 0.111c-0.933,0.369 -1.838,0.718 -2.718,1.047l0.04 -0.029 -0.758 0.322 0 0zm-6.438 -6.042c-0.363,-1.145 -0.769,-2.07 -1.218,-2.776 -0.469,-0.732 -0.843,-1.034 -1.122,-0.907 -0.26,0.154 -0.345,0.678 -0.256,1.571 0.069,0.867 0.285,1.872 0.649,3.018 0.41,1.152 0.816,2.078 1.218,2.776 0.468,0.732 0.819,1.031 1.052,0.897 0.28,-0.127 0.385,-0.624 0.316,-1.49 -0.043,-0.887 -0.256,-1.916 -0.639,-3.089z"/>
      </g>
     </g>
    </g>
   </g>
  </g>
  <g id="armRight_FL_FL_FL_FL_FL_FL_FL_FL_FL_FL_FL_FL_FL_FL_FL_FL_FL_FL_FL_FL_FL">
   <g>
    <g>
     <g>
      <path class="fil0" d="M302.112 268.656c2.669,0.471 5.152,1.697 7.45,3.676 -1.67,5.482 -4.276,10.478 -7.82,14.988l-10.284 -8.966c3.19,-3.67 6.742,-6.903 10.654,-9.698z"/>
      <path class="fil1" d="M302.129 287.646l-1.748 2.09 -11.767 -10.263c-0.27,-0.897 0.313,-1.594 1.749,-2.089l1.095 0.97 10.284 8.966 0.387 0.326z"/>
      <path class="fil2" d="M287.902 292.731l-0.032 -0.038c-0.297,-0.257 -0.575,-0.523 -0.835,-0.798 -2.187,-2.567 -1.661,-6.708 1.579,-12.422l11.767 10.263 -2.074 2.551c-1.24,1.541 -2.893,2.367 -4.959,2.478 -2.02,0.072 -3.836,-0.606 -5.446,-2.034z"/>
     </g>
    </g>
   </g>
  </g>
  <g id="handRight_FL_FL_FL_FL_FL_FL_FL_FL_FL_FL_FL_FL_FL_FL_FL_FL_FL_FL_FL_FL">
   <g>
    <g>
     <g>
      <g>
       <path class="fil3" d="M301.231 279.563c0.453,2.148 1.809,4.566 4.067,7.255l0.593 0.574 -0.044 -0.025c-3.545,0.339 -5.083,-2.262 -4.616,-7.804l0 0zm9.199 -3.234c-0.474,0.689 -1.168,1.424 -2.081,2.205 -0.93,0.81 -1.795,1.408 -2.594,1.793 -0.771,0.402 -1.27,0.499 -1.496,0.291 -0.215,-0.162 -0.076,-0.602 0.415,-1.319 0.487,-0.642 1.18,-1.378 2.081,-2.205 0.914,-0.781 1.755,-1.373 2.526,-1.774 0.788,-0.431 1.303,-0.557 1.546,-0.378 0.227,0.208 0.094,0.671 -0.397,1.387z"/>
      </g>
      <g>
       <path class="fil0" d="M305.298 286.818c-2.258,-2.689 -3.614,-5.107 -4.067,-7.255l7.033 -7.082c0.574,-0.593 1.136,-0.634 1.688,-0.123l0.401 0.405c6.086,5.592 7.459,10.081 4.12,13.464 -1.163,1.214 -2.506,2.306 -4.028,3.275 -0.995,0.657 -1.789,0.699 -2.381,0.126l-0.192 -0.168c-0.704,-0.715 -1.379,-1.412 -2.025,-2.093l0.044 0.025 -0.593 -0.574 0 0zm3.051 -8.284c0.913,-0.781 1.607,-1.516 2.081,-2.205 0.491,-0.716 0.624,-1.179 0.397,-1.387 -0.243,-0.179 -0.758,-0.053 -1.546,0.378 -0.771,0.401 -1.613,0.993 -2.526,1.774 -0.901,0.827 -1.594,1.563 -2.081,2.205 -0.491,0.717 -0.63,1.157 -0.415,1.319 0.226,0.208 0.725,0.111 1.496,-0.291 0.799,-0.385 1.664,-0.983 2.594,-1.793z"/>
      </g>
     </g>
    </g>
   </g>
  </g>
  <g id="armRight_FL_FL_FL_FL_FL_FL_FL_FL_FL_FL_FL_FL_FL_FL_FL_FL_FL_FL_FL_FL_FL_FL_FL">
   <g>
    <g>
     <g>
      <path class="fil0" d="M391.462 306.41c-1.537,2.231 -3.683,3.982 -6.438,5.249 -4.294,-3.795 -7.756,-8.241 -10.387,-13.337l12.427 -5.632c2.014,4.426 3.48,8.999 4.398,13.72z"/>
      <path class="fil1" d="M374.179 298.539l-1.174 -2.458 14.222 -6.443c0.928,0.127 1.32,0.947 1.174,2.458l-1.337 0.594 -12.427 5.632 -0.458 0.217z"/>
      <path class="fil2" d="M375.462 283.485l0.048 -0.013c0.357,-0.164 0.714,-0.307 1.072,-0.429 3.244,-0.923 6.792,1.275 10.645,6.595l-14.222 6.443 -1.46 -2.946c-0.887,-1.768 -0.952,-3.615 -0.195,-5.541 0.773,-1.867 2.143,-3.238 4.112,-4.109z"/>
     </g>
    </g>
   </g>
  </g>
  <g id="handRight_FL_FL_FL_FL_FL_FL_FL_FL_FL_FL_FL_FL_FL_FL_FL_FL_FL_FL_FL_FL_FL_FL">
   <g>
    <g>
     <g>
      <g>
       <path class="fil3" d="M379.943 305.975c-1.198,1.839 -1.95,4.508 -2.255,8.006l0.014 0.825 -0.013 -0.049c-2.747,-2.266 -1.995,-5.193 2.254,-8.782l0 0zm8.791 4.218c-0.822,0.152 -1.832,0.181 -3.031,0.088 -1.23,-0.085 -2.264,-0.273 -3.102,-0.567 -0.829,-0.261 -1.25,-0.545 -1.263,-0.851 -0.037,-0.267 0.372,-0.48 1.226,-0.64 0.799,-0.11 1.809,-0.139 3.031,-0.087 1.198,0.093 2.212,0.27 3.041,0.531 0.861,0.252 1.315,0.528 1.36,0.826 0.013,0.307 -0.408,0.54 -1.262,0.7z"/>
      </g>
      <g>
       <path class="fil0" d="M377.688 313.981c0.305,-3.498 1.057,-6.167 2.255,-8.006l9.981 -0.034c0.825,-0.014 1.251,0.355 1.28,1.106l-0.002 0.57c0.348,8.258 -1.854,12.402 -6.608,12.434 -1.681,0.036 -3.402,-0.141 -5.163,-0.532 -1.169,-0.239 -1.76,-0.771 -1.773,-1.595l-0.017 -0.255c0.008,-1.002 0.023,-1.973 0.048,-2.912l0.013 0.049 -0.014 -0.825 0 0zm8.015 -3.7c1.199,0.093 2.209,0.064 3.031,-0.088 0.854,-0.16 1.275,-0.393 1.262,-0.7 -0.045,-0.298 -0.499,-0.574 -1.36,-0.826 -0.829,-0.261 -1.843,-0.438 -3.041,-0.531 -1.222,-0.052 -2.232,-0.023 -3.031,0.087 -0.854,0.16 -1.263,0.373 -1.226,0.64 0.013,0.306 0.434,0.59 1.263,0.851 0.838,0.294 1.872,0.482 3.102,0.567z"/>
      </g>
     </g>
    </g>
   </g>
  </g>
  <g id="handRight_FL_FL_FL_FL_FL_FL_FL_FL_FL_FL_FL_FL_FL_FL_FL_FL_FL_FL_FL_FL_FL_FL_FL">
   <g>
    <g>
     <g>
      <g>
       <path class="fil3" d="M300.232 193.066c-1.836,-1.203 -4.502,-1.962 -7.999,-2.276l-0.825 0.012 0.049 -0.013c2.273,-2.741 5.199,-1.981 8.775,2.277l0 0zm-4.241 8.78c-0.15,-0.823 -0.176,-1.833 -0.08,-3.031 0.088,-1.23 0.28,-2.264 0.575,-3.101 0.264,-0.828 0.549,-1.248 0.855,-1.261 0.267,-0.036 0.479,0.374 0.637,1.228 0.108,0.799 0.134,1.809 0.079,3.031 -0.097,1.198 -0.277,2.211 -0.54,3.039 -0.255,0.861 -0.531,1.313 -0.829,1.358 -0.308,0.012 -0.54,-0.409 -0.697,-1.263z"/>
      </g>
      <g>
       <path class="fil0" d="M292.233 190.79c3.497,0.314 6.164,1.073 7.999,2.276l0.008 9.981c0.011,0.824 -0.358,1.25 -1.11,1.277l-0.57 -0.004c-8.258,0.326 -12.397,-1.887 -12.415,-6.641 -0.032,-1.681 0.15,-3.402 0.546,-5.162 0.242,-1.167 0.776,-1.757 1.6,-1.769l0.254 -0.015c1.003,0.01 1.974,0.029 2.912,0.056l-0.049 0.013 0.825 -0.012 0 0zm3.678 8.025c-0.096,1.198 -0.07,2.208 0.08,3.031 0.157,0.854 0.389,1.275 0.697,1.263 0.298,-0.045 0.574,-0.497 0.829,-1.358 0.263,-0.828 0.443,-1.841 0.54,-3.039 0.055,-1.222 0.029,-2.232 -0.079,-3.031 -0.158,-0.854 -0.37,-1.264 -0.637,-1.228 -0.306,0.013 -0.591,0.433 -0.855,1.261 -0.295,0.837 -0.487,1.871 -0.575,3.101z"/>
      </g>
     </g>
    </g>
   </g>
  </g>
  <g id="armRight_FL_FL_FL_FL_FL_FL_FL_FL_FL_FL_FL_FL_FL_FL_FL_FL_FL_FL_FL_FL_FL_FL_FL_FL">
   <g>
    <g>
     <g>
      <path class="fil0" d="M460.579 44.917c2.408,0.688 4.722,2.052 6.943,4.095 -0.959,4.896 -2.794,9.255 -5.505,13.077l-9.953 -9.239c2.478,-3.082 5.316,-5.726 8.515,-7.933z"/>
      <path class="fil1" d="M462.391 62.427l-1.35 1.76 -11.388 -10.574c-0.324,-0.853 0.126,-1.44 1.35,-1.761l1.061 0.998 9.953 9.239 0.374 0.338z"/>
      <path class="fil2" d="M450.277 65.768l-0.032 -0.039c-0.288,-0.264 -0.559,-0.536 -0.815,-0.814 -2.179,-2.574 -2.105,-6.341 0.223,-11.302l11.388 10.574 -1.594 2.156c-0.952,1.303 -2.337,1.908 -4.156,1.815 -1.782,-0.124 -3.453,-0.921 -5.014,-2.39z"/>
     </g>
    </g>
   </g>
  </g>
  <g id="handRight_FL_FL_FL_FL_FL_FL_FL_FL_FL_FL_FL_FL_FL_FL_FL_FL_FL_FL_FL_FL_FL_FL_FL_FL">
   <g>
    <g>
     <g>
      <g>
       <path class="fil3" d="M457.038 53.105c-1.647,-1.45 -3.087,-3.819 -4.319,-7.107l-0.208 -0.798 0 0.05c-2.038,2.92 -0.529,5.538 4.527,7.855l0 0zm7.338 -6.421c-0.833,0.074 -1.814,0.317 -2.944,0.728 -1.162,0.412 -2.107,0.871 -2.836,1.378 -0.729,0.474 -1.058,0.861 -0.989,1.16 0.036,0.266 0.487,0.362 1.353,0.287 0.799,-0.108 1.78,-0.351 2.943,-0.729 1.129,-0.411 2.058,-0.854 2.787,-1.327 0.762,-0.475 1.125,-0.861 1.089,-1.161 -0.07,-0.299 -0.538,-0.412 -1.403,-0.336z"/>
      </g>
      <g>
       <path class="fil0" d="M452.719 45.998c1.232,3.288 2.671,5.657 4.319,7.107l9.625 -2.644c0.797,-0.208 1.11,-0.677 0.936,-1.409l-0.156 -0.549c-1.878,-8.048 -5.112,-11.45 -9.7,-10.205 -1.629,0.416 -3.24,1.049 -4.831,1.898 -1.061,0.544 -1.488,1.214 -1.281,2.012l0.053 0.25c0.276,0.964 0.552,1.894 0.827,2.792l0 -0.05 0.208 0.798 0 0zm8.713 1.414c1.13,-0.411 2.111,-0.654 2.944,-0.728 0.865,-0.076 1.333,0.037 1.403,0.336 0.036,0.3 -0.327,0.686 -1.089,1.161 -0.729,0.473 -1.658,0.916 -2.787,1.327 -1.163,0.378 -2.144,0.621 -2.943,0.729 -0.866,0.075 -1.317,-0.021 -1.353,-0.287 -0.069,-0.299 0.26,-0.686 0.989,-1.16 0.728,-0.507 1.674,-0.966 2.836,-1.378z"/>
      </g>
     </g>
    </g>
   </g>
  </g>
 </g>
</svg>
