<?xml version="1.0" encoding="UTF-8"?>
<!DOCTYPE svg PUBLIC "-//W3C//DTD SVG 1.1//EN" "http://www.w3.org/Graphics/SVG/1.1/DTD/svg11.dtd">
<!-- Creator: CorelDRAW 2018 (64-Bit) -->
<svg xmlns="http://www.w3.org/2000/svg" xml:space="preserve" width="720px" height="330px" version="1.1" style="shape-rendering:geometricPrecision; text-rendering:geometricPrecision; image-rendering:optimizeQuality; fill-rule:evenodd; clip-rule:evenodd"
viewBox="0 0 720 330"
 xmlns:xlink="http://www.w3.org/1999/xlink">
 <defs>
  <style type="text/css">
   <![CDATA[
    .fil2 {fill:#29B665}
    .fil1 {fill:#2ECC71}
    .fil0 {fill:#AF7B48}
   ]]>
  </style>
 </defs>
 <g id="Слой_x0020_1">
  <metadata id="CorelCorpID_0Corel-Layer"/>
  <g id="armLeft">
   <g>
    <g>
     <g>
      <path class="fil0" d="M537.091 65.481l-0.044 -0.025c-0.374,-0.122 -0.719,-0.275 -1.037,-0.458 -2.957,-1.567 -4.048,-6.903 -3.274,-16.009l0.207 -6.062 2.324 1.834 3.193 2.475 3.439 -2.37 2.394 3.56 3.67 0.082 1.523 -0.034c-0.939,0.928 -1.686,2.557 -2.242,4.887l-0.916 4.529c-0.531,2.69 -1.707,4.797 -3.528,6.321 -1.808,1.485 -3.711,1.909 -5.709,1.27z"/>
      <path class="fil1" d="M547.963 48.508l-3.67 -0.082 -2.394 -3.56 -3.439 2.37 -3.193 -2.475c1.793,-7.344 3.652,-13.365 5.577,-18.064 2.556,-1.24 5.249,-1.441 8.08,-0.603 0.474,6.526 0.153,13.997 -0.961,22.414z"/>
     </g>
    </g>
   </g>
  </g>
  <g id="handLeft">
   <g>
    <g>
     <g>
      <g>
       <path class="fil1" d="M535.738 24.119c0.305,3.498 1.057,6.166 2.255,8.006l9.981 0.034c0.825,0.014 1.251,-0.355 1.28,-1.106l-0.002 -0.57c0.349,-8.258 -1.854,-12.402 -6.608,-12.433 -1.681,-0.037 -3.402,0.14 -5.163,0.531 -1.168,0.239 -1.76,0.771 -1.773,1.596l-0.017 0.254c0.008,1.003 0.024,1.973 0.049,2.911l0.012 -0.048 -0.014 0.825 0 0zm12.308 4.488c-0.045,0.298 -0.499,0.573 -1.36,0.826 -0.829,0.261 -1.843,0.438 -3.041,0.531 -1.222,0.052 -2.232,0.023 -3.031,-0.088 -0.854,-0.159 -1.263,-0.372 -1.226,-0.639 0.013,-0.307 0.435,-0.591 1.263,-0.852 0.838,-0.293 1.872,-0.481 3.103,-0.566 1.198,-0.093 2.208,-0.064 3.03,0.087 0.855,0.16 1.275,0.394 1.262,0.701z"/>
      </g>
      <g>
       <path class="fil2" d="M546.686 29.433c0.861,-0.253 1.315,-0.528 1.36,-0.826 0.013,-0.307 -0.407,-0.541 -1.262,-0.701 -0.822,-0.151 -1.832,-0.18 -3.03,-0.087 -1.231,0.085 -2.265,0.273 -3.103,0.566 -0.829,0.261 -1.25,0.545 -1.263,0.852 -0.037,0.266 0.372,0.48 1.226,0.639 0.799,0.111 1.809,0.14 3.031,0.088 1.198,-0.093 2.212,-0.27 3.041,-0.531l0 0zm-10.946 -6.091c-2.747,2.267 -1.996,5.194 2.253,8.783 -1.198,-1.84 -1.95,-4.508 -2.255,-8.006l0.014 -0.825 -0.012 0.048z"/>
      </g>
     </g>
    </g>
   </g>
  </g>
  <g id="armRight_FL">
   <g>
    <g id="_829716400">
     <g>
      <path class="fil0" d="M455.452 282.978l0.05 -0.013c0.384,-0.162 0.758,-0.29 1.12,-0.385 3.309,-0.958 6.661,1.224 10.053,6.548l2.532 3.356 -2.871 0.433 -3.924 0.617 -1.974 3.349 -3.705 -0.445 -3.274 2.183 -1.328 0.942c0.412,-1.064 0.342,-2.386 -0.211,-3.965l-1.218 -2.97c-0.736,-1.756 -0.642,-3.593 0.283,-5.51 0.93,-1.888 2.419,-3.268 4.467,-4.14z"/>
      <path class="fil1" d="M453.459 298.621l3.274 -2.183 3.705 0.445 1.974 -3.349 3.924 -0.617c1.705,5.002 2.76,9.34 3.165,13.012 -1.699,2.211 -3.984,3.953 -6.857,5.223 -3.339,-3.192 -6.401,-7.369 -9.185,-12.531z"/>
     </g>
    </g>
   </g>
  </g>
  <g id="handRight_FL">
   <g>
    <g id="_864991648">
     <g>
      <g>
       <path class="fil1" d="M455.132 313.481c0.6,-3.498 1.577,-6.167 2.93,-8.006l9.984 -0.034c0.826,-0.014 1.221,0.354 1.187,1.106l-0.051 0.57c-0.347,8.258 -2.899,12.402 -7.656,12.434 -1.684,0.036 -3.39,-0.141 -5.118,-0.532 -1.149,-0.239 -1.695,-0.771 -1.639,-1.595l0.005 -0.255c0.092,-1.002 0.19,-1.973 0.294,-2.912l0.008 0.049 0.056 -0.825 0 0zm12.686 -4.488c-0.02,-0.298 -0.45,-0.574 -1.29,-0.826 -0.807,-0.261 -1.806,-0.438 -2.996,-0.531 -1.218,-0.052 -2.23,-0.023 -3.038,0.087 -0.868,0.16 -1.295,0.373 -1.281,0.64 -0.012,0.306 0.385,0.59 1.192,0.851 0.813,0.294 1.831,0.482 3.054,0.567 1.191,0.093 2.203,0.064 3.038,-0.087 0.868,-0.16 1.308,-0.394 1.321,-0.701z"/>
      </g>
      <g>
       <path class="fil2" d="M466.528 308.167c0.84,0.252 1.27,0.528 1.29,0.826 -0.013,0.307 -0.453,0.54 -1.321,0.701 -0.835,0.151 -1.847,0.18 -3.038,0.087 -1.223,-0.085 -2.241,-0.273 -3.054,-0.567 -0.807,-0.261 -1.204,-0.545 -1.192,-0.851 -0.014,-0.267 0.413,-0.48 1.281,-0.64 0.808,-0.11 1.82,-0.139 3.038,-0.087 1.19,0.093 2.189,0.27 2.996,0.531l0 0zm-11.46 6.09c-2.556,-2.266 -1.558,-5.193 2.994,-8.782 -1.353,1.839 -2.33,4.508 -2.93,8.006l-0.056 0.825 -0.008 -0.049z"/>
      </g>
     </g>
    </g>
   </g>
  </g>
  <g id="armRight_FL_FL">
   <g>
    <g>
     <g>
      <path class="fil0" d="M42.271 284.847l-0.031 0.039c-0.3,0.273 -0.563,0.554 -0.79,0.841 -2.163,2.582 -1.296,6.895 2.6,12.936l2.31 4.177 1.49 -2.455 2.061 -3.341 3.982 -0.045 0.949 -3.708 3.336 -1.891 1.408 -0.736c-1.185,-0.186 -2.44,-0.963 -3.765,-2.331l-2.425 -2.739c-1.427,-1.634 -3.243,-2.535 -5.446,-2.701 -2.177,-0.146 -4.07,0.505 -5.679,1.954z"/>
      <path class="fil1" d="M58.178 291.4l-3.336 1.891 -0.949 3.708 -3.982 0.045 -2.061 3.341c4.213,4.289 8.025,7.611 11.433,9.967 2.778,-0.4 5.317,-1.602 7.619,-3.608 -1.849,-4.843 -4.757,-9.958 -8.724,-15.344z"/>
     </g>
    </g>
   </g>
  </g>
  <g id="handRight_FL_FL">
   <g>
    <g>
     <g>
      <g>
       <path class="fil1" d="M69.247 298.432c-3.457,-0.611 -6.23,-0.576 -8.316,0.105l-2.617 9.632c-0.227,0.793 0.019,1.301 0.737,1.523l0.552 0.145c7.885,2.475 12.459,1.42 13.72,-3.164 0.47,-1.614 0.744,-3.323 0.822,-5.125 0.072,-1.19 -0.289,-1.899 -1.082,-2.126l-0.241 -0.081c-0.971,-0.253 -1.912,-0.489 -2.825,-0.707l0.043 0.025 -0.793 -0.227 0 0zm-7.52 10.726c-0.277,-0.121 -0.425,-0.63 -0.446,-1.528 -0.037,-0.868 0.054,-1.893 0.274,-3.074 0.266,-1.194 0.555,-2.162 0.869,-2.905 0.375,-0.784 0.687,-1.123 0.935,-1.019 0.293,0.092 0.458,0.572 0.495,1.441 0.067,0.885 -0.018,1.933 -0.255,3.143 -0.221,1.182 -0.51,2.15 -0.869,2.905 -0.376,0.784 -0.71,1.129 -1.003,1.037z"/>
      </g>
      <g>
       <path class="fil2" d="M61.281 307.63c0.021,0.898 0.169,1.407 0.446,1.528 0.293,0.092 0.627,-0.253 1.003,-1.037 0.359,-0.755 0.648,-1.723 0.869,-2.905 0.237,-1.21 0.322,-2.258 0.255,-3.143 -0.037,-0.869 -0.203,-1.349 -0.495,-1.441 -0.248,-0.104 -0.56,0.235 -0.935,1.019 -0.313,0.743 -0.603,1.711 -0.869,2.905 -0.22,1.181 -0.311,2.206 -0.274,3.074l0 0zm8.716 -8.996c-1.478,-3.24 -4.5,-3.272 -9.066,-0.097 2.086,-0.681 4.859,-0.716 8.316,-0.105l0.793 0.227 -0.043 -0.025z"/>
      </g>
     </g>
    </g>
   </g>
  </g>
  <g id="armRight_FL_FL_FL">
   <g>
    <g>
     <g>
      <path class="fil0" d="M55.457 63.478l0.048 -0.013c0.371,-0.162 0.734,-0.29 1.088,-0.385 3.228,-0.958 6.764,1.224 10.606,6.548l2.814 3.356 -2.834 0.433 -3.873 0.617 -1.691 3.349 -3.742 -0.445 -3.091 2.182 -1.248 0.942c0.323,-1.063 0.141,-2.385 -0.545,-3.965l-1.469 -2.969c-0.884,-1.756 -0.945,-3.593 -0.182,-5.51 0.771,-1.889 2.144,-3.269 4.119,-4.14z"/>
      <path class="fil1" d="M54.782 79.12l3.091 -2.182 3.742 0.445 1.691 -3.349 3.873 -0.617c2.127,5.002 3.547,9.34 4.262,13.012 -1.512,2.211 -3.651,3.952 -6.417,5.222 -3.608,-3.191 -7.022,-7.368 -10.242,-12.531z"/>
     </g>
    </g>
   </g>
  </g>
  <g id="handRight_FL_FL_FL">
   <g>
    <g>
     <g>
      <g>
       <path class="fil1" d="M57.688 93.981c0.305,-3.498 1.057,-6.167 2.255,-8.006l9.981 -0.035c0.824,-0.013 1.251,0.355 1.28,1.107l-0.003 0.57c0.349,8.258 -1.853,12.402 -6.607,12.434 -1.681,0.036 -3.403,-0.141 -5.164,-0.532 -1.168,-0.239 -1.759,-0.771 -1.773,-1.595l-0.016 -0.255c0.007,-1.003 0.023,-1.974 0.048,-2.912l0.013 0.049 -0.014 -0.825 0 0zm12.307 -4.488c-0.045,-0.299 -0.498,-0.574 -1.359,-0.826 -0.83,-0.261 -1.843,-0.438 -3.041,-0.531 -1.222,-0.053 -2.233,-0.023 -3.031,0.087 -0.855,0.16 -1.263,0.373 -1.227,0.639 0.013,0.307 0.435,0.591 1.264,0.852 0.838,0.293 1.872,0.482 3.102,0.567 1.198,0.093 2.209,0.063 3.031,-0.088 0.854,-0.16 1.275,-0.393 1.261,-0.7z"/>
      </g>
      <g>
       <path class="fil2" d="M68.636 88.667c0.861,0.252 1.314,0.527 1.359,0.826 0.014,0.307 -0.407,0.54 -1.261,0.7 -0.822,0.151 -1.833,0.181 -3.031,0.088 -1.23,-0.085 -2.264,-0.274 -3.102,-0.567 -0.829,-0.261 -1.251,-0.545 -1.264,-0.852 -0.036,-0.266 0.372,-0.479 1.227,-0.639 0.798,-0.11 1.809,-0.14 3.031,-0.087 1.198,0.093 2.211,0.27 3.041,0.531l0 0zm-10.947 6.09c-2.747,-2.266 -1.996,-5.193 2.254,-8.782 -1.198,1.839 -1.95,4.508 -2.255,8.006l0.014 0.825 -0.013 -0.049z"/>
      </g>
     </g>
    </g>
   </g>
  </g>
  <g id="armRight_FL_FL_FL_FL">
   <g>
    <g>
     <g>
      <path class="fil0" d="M135.348 69.578l-0.039 -0.031c-0.351,-0.198 -0.668,-0.412 -0.952,-0.641 -2.667,-2.027 -2.795,-6.424 -0.384,-13.189l1.296 -4.591 1.988 2.056 2.739 2.789 3.856 -0.855 1.747 3.398 3.645 1.088 1.525 0.4c-1.103,0.449 -2.141,1.489 -3.114,3.121l-1.73 3.215c-1.013,1.915 -2.565,3.203 -4.656,3.862 -2.07,0.633 -4.044,0.426 -5.921,-0.622z"/>
      <path class="fil1" d="M149.244 59.602l-3.645 -1.088 -1.747 -3.398 -3.856 0.855 -2.739 -2.789c3.11,-5.13 6.047,-9.227 8.812,-12.292 2.772,-0.237 5.494,0.361 8.167,1.795 -0.702,5.136 -2.366,10.775 -4.992,16.917z"/>
     </g>
    </g>
   </g>
  </g>
  <g id="handRight_FL_FL_FL_FL">
   <g>
    <g>
     <g>
      <g>
       <path class="fil1" d="M142.059 34.576c-0.125,3.51 0.29,6.25 1.246,8.222l9.817 1.257c0.809,0.115 1.274,-0.199 1.394,-0.941l0.066 -0.566c1.346,-8.153 -0.317,-12.536 -4.991,-13.149 -1.65,-0.242 -3.365,-0.277 -5.145,-0.105 -1.179,0.094 -1.825,0.55 -1.939,1.366l-0.047 0.251c-0.115,0.996 -0.217,1.961 -0.306,2.895l0.018 -0.046 -0.113 0.816 0 0zm11.565 5.962c-0.081,0.291 -0.561,0.508 -1.439,0.654 -0.847,0.157 -1.866,0.209 -3.057,0.154 -1.208,-0.098 -2.199,-0.25 -2.971,-0.458 -0.821,-0.263 -1.198,-0.524 -1.129,-0.784 0.05,-0.303 0.499,-0.534 1.347,-0.691 0.86,-0.188 1.9,-0.249 3.121,-0.182 1.19,0.054 2.181,0.207 2.971,0.457 0.822,0.264 1.207,0.547 1.157,0.85z"/>
      </g>
      <g>
       <path class="fil2" d="M152.185 41.192c0.878,-0.146 1.358,-0.363 1.439,-0.654 0.05,-0.303 -0.335,-0.586 -1.157,-0.85 -0.79,-0.25 -1.781,-0.403 -2.971,-0.457 -1.221,-0.067 -2.261,-0.007 -3.121,0.182 -0.848,0.157 -1.297,0.388 -1.347,0.691 -0.069,0.26 0.308,0.521 1.129,0.784 0.772,0.208 1.763,0.36 2.971,0.458 1.191,0.055 2.21,0.003 3.057,-0.154l0 0zm-10.031 -7.386c-2.978,1.913 -2.594,4.91 1.151,8.992 -0.956,-1.972 -1.371,-4.712 -1.246,-8.222l0.113 -0.816 -0.018 0.046z"/>
      </g>
     </g>
    </g>
   </g>
  </g>
  <g id="armRight_FL_FL_FL_FL_FL">
   <g>
    <g>
     <g>
      <path class="fil0" d="M216.823 61.349l0.044 -0.025c0.313,-0.257 0.628,-0.478 0.946,-0.661 2.866,-1.77 7.009,-0.294 12.429,4.428l3.802 2.886 -2.643 1.122 -3.602 1.56 -0.615 3.935 -3.807 0.407 -2.349 3.031 -0.93 1.288c-0.015,-1.2 -0.604,-2.553 -1.767,-4.06l-2.363 -2.793c-1.413,-1.648 -2.044,-3.574 -1.893,-5.778 0.168,-2.175 1.084,-3.956 2.748,-5.34z"/>
      <path class="fil1" d="M221.028 78.032l2.349 -3.031 3.807 -0.407 0.615 -3.935 3.602 -1.56c3.641,4.785 6.382,9.033 8.225,12.745 -0.794,2.691 -2.349,5.032 -4.664,7.022 -4.528,-2.524 -9.173,-6.136 -13.934,-10.834z"/>
     </g>
    </g>
   </g>
  </g>
  <g id="handRight_FL_FL_FL_FL_FL">
   <g>
    <g>
     <g>
      <g>
       <path class="fil1" d="M225.838 89.181c0.305,-3.498 1.057,-6.167 2.255,-8.006l9.981 -0.035c0.825,-0.013 1.251,0.355 1.28,1.107l-0.003 0.57c0.35,8.258 -1.853,12.402 -6.607,12.434 -1.681,0.036 -3.402,-0.141 -5.163,-0.532 -1.169,-0.239 -1.76,-0.771 -1.774,-1.596l-0.016 -0.254c0.007,-1.003 0.023,-1.974 0.048,-2.912l0.013 0.049 -0.014 -0.825 0 0zm12.308 -4.488c-0.046,-0.299 -0.499,-0.574 -1.36,-0.826 -0.829,-0.261 -1.843,-0.438 -3.041,-0.531 -1.222,-0.053 -2.232,-0.023 -3.031,0.087 -0.855,0.16 -1.263,0.373 -1.227,0.639 0.014,0.307 0.435,0.591 1.264,0.852 0.838,0.293 1.872,0.482 3.102,0.567 1.199,0.093 2.209,0.063 3.031,-0.088 0.855,-0.16 1.275,-0.393 1.262,-0.7z"/>
      </g>
      <g>
       <path class="fil2" d="M236.786 83.867c0.861,0.252 1.314,0.527 1.36,0.826 0.013,0.307 -0.407,0.54 -1.262,0.7 -0.822,0.151 -1.832,0.181 -3.031,0.088 -1.23,-0.085 -2.264,-0.274 -3.102,-0.567 -0.829,-0.261 -1.25,-0.545 -1.264,-0.852 -0.036,-0.266 0.372,-0.479 1.227,-0.639 0.799,-0.11 1.809,-0.14 3.031,-0.087 1.198,0.093 2.212,0.27 3.041,0.531l0 0zm-10.947 6.09c-2.747,-2.266 -1.995,-5.193 2.254,-8.782 -1.198,1.839 -1.95,4.508 -2.255,8.006l0.014 0.825 -0.013 -0.049z"/>
      </g>
     </g>
    </g>
   </g>
  </g>
  <g id="armRight_FL_FL_FL_FL_FL_FL">
   <g>
    <g>
     <g>
      <path class="fil0" d="M295.783 67.227l0.048 -0.013c0.369,-0.167 0.731,-0.299 1.085,-0.394 3.226,-0.968 6.846,1.531 10.86,7.495l2.926 3.771 -2.844 0.4 -3.884 0.575 -1.612 3.641 -3.782 -0.592 -3.054 2.32 -1.232 1.003c0.297,-1.162 0.078,-2.622 -0.656,-4.379l-1.56 -3.31c-0.938,-1.957 -1.049,-3.98 -0.332,-6.07 0.725,-2.058 2.071,-3.54 4.037,-4.447z"/>
      <path class="fil1" d="M295.526 84.43l3.054 -2.32 3.782 0.592 1.612 -3.641 3.884 -0.575c2.278,5.564 3.826,10.378 4.645,14.439 -1.463,2.394 -3.571,4.253 -6.322,5.577 -3.72,-3.611 -7.272,-8.302 -10.655,-14.072z"/>
     </g>
    </g>
   </g>
  </g>
  <g id="handRight_FL_FL_FL_FL_FL_FL">
   <g>
    <g>
     <g>
      <g>
       <path class="fil1" d="M297.946 92.645c2.013,-2.877 3.998,-4.813 5.955,-5.806l8.662 4.96c0.72,0.4 0.906,0.933 0.555,1.598l-0.287 0.493c-3.827,7.325 -7.806,9.814 -11.939,7.464 -1.474,-0.809 -2.876,-1.823 -4.206,-3.042 -0.892,-0.791 -1.138,-1.547 -0.738,-2.268l0.113 -0.229c0.508,-0.865 1.007,-1.697 1.497,-2.498l-0.012 0.049 0.4 -0.721 0 0zm12.903 2.266c0.11,-0.281 -0.145,-0.746 -0.765,-1.395 -0.588,-0.641 -1.377,-1.301 -2.369,-1.981 -1.031,-0.656 -1.921,-1.135 -2.668,-1.439 -0.82,-0.289 -1.28,-0.309 -1.381,-0.06 -0.142,0.273 0.08,0.729 0.668,1.37 0.579,0.673 1.38,1.353 2.403,2.041 0.992,0.68 1.881,1.16 2.669,1.44 0.819,0.289 1.301,0.297 1.443,0.024z"/>
      </g>
      <g>
       <path class="fil2" d="M310.084 93.516c0.62,0.649 0.875,1.114 0.765,1.395 -0.142,0.273 -0.623,0.265 -1.443,-0.024 -0.788,-0.28 -1.677,-0.76 -2.669,-1.44 -1.023,-0.688 -1.824,-1.368 -2.403,-2.041 -0.588,-0.641 -0.81,-1.097 -0.668,-1.37 0.101,-0.249 0.561,-0.229 1.381,0.06 0.747,0.304 1.637,0.784 2.668,1.439 0.992,0.68 1.781,1.34 2.369,1.981l0 0zm-12.526 -0.199c-1.245,-3.335 0.869,-5.495 6.343,-6.478 -1.957,0.994 -3.942,2.929 -5.955,5.806l-0.4 0.721 0.012 -0.049z"/>
      </g>
     </g>
    </g>
   </g>
  </g>
  <g id="armRight_FL_FL_FL_FL_FL_FL_FL">
   <g>
    <g>
     <g>
      <path class="fil0" d="M372.545 56.91l0.041 -0.028c0.29,-0.284 0.585,-0.531 0.885,-0.741 2.702,-2.011 6.957,-0.899 12.767,3.336l4.037 2.546 -2.536 1.347 -3.454 1.865 -0.273 3.974 -3.756 0.735 -2.079 3.223 -0.815 1.363c-0.118,-1.193 -0.822,-2.491 -2.112,-3.892l-2.596 -2.578c-1.55,-1.519 -2.345,-3.383 -2.385,-5.592 -0.021,-2.182 0.738,-4.035 2.276,-5.558z"/>
      <path class="fil1" d="M378.177 73.167l2.079 -3.223 3.756 -0.735 0.273 -3.974 3.454 -1.865c4.04,4.452 7.139,8.447 9.296,11.986 -0.558,2.749 -1.905,5.216 -4.039,7.399 -4.729,-2.123 -9.669,-5.32 -14.819,-9.588z"/>
     </g>
    </g>
   </g>
  </g>
  <g id="handRight_FL_FL_FL_FL_FL_FL_FL">
   <g>
    <g>
     <g>
      <g>
       <path class="fil1" d="M387.277 86.256c-1.485,-3.182 -2.168,-5.869 -2.05,-8.061l8.627 -5.02c0.707,-0.424 1.26,-0.318 1.661,0.318l0.283 0.495c4.431,6.978 4.596,11.668 0.495,14.072 -1.438,0.872 -3.018,1.579 -4.738,2.121 -1.132,0.377 -1.909,0.212 -2.334,-0.495l-0.141 -0.212c-0.495,-0.872 -0.966,-1.721 -1.414,-2.546l0.035 0.036 -0.424 -0.708 0 0zm8.415 -10.04c-0.189,-0.236 -0.719,-0.248 -1.591,-0.035 -0.849,0.188 -1.815,0.542 -2.899,1.06 -1.084,0.566 -1.945,1.096 -2.581,1.591 -0.66,0.566 -0.908,0.954 -0.743,1.167 0.165,0.259 0.672,0.294 1.521,0.106 0.872,-0.165 1.862,-0.519 2.969,-1.061 1.085,-0.519 1.945,-1.049 2.581,-1.591 0.66,-0.566 0.908,-0.978 0.743,-1.237z"/>
      </g>
      <g>
       <path class="fil2" d="M394.101 76.181c0.872,-0.212 1.402,-0.201 1.591,0.035 0.165,0.259 -0.083,0.672 -0.743,1.237 -0.636,0.542 -1.496,1.073 -2.581,1.591 -1.107,0.542 -2.097,0.896 -2.969,1.061 -0.849,0.188 -1.356,0.153 -1.521,-0.106 -0.165,-0.212 0.083,-0.602 0.743,-1.167 0.636,-0.495 1.497,-1.025 2.581,-1.591 1.084,-0.518 2.05,-0.872 2.899,-1.06l0 0zm-6.435 10.747c-3.512,-0.589 -4.325,-3.5 -2.439,-8.733 -0.118,2.193 0.565,4.879 2.05,8.061l0.424 0.708 -0.035 -0.036z"/>
      </g>
     </g>
    </g>
   </g>
  </g>
  <g id="armRight_FL_FL_FL_FL_FL_FL_FL_FL">
   <g>
    <g>
     <g>
      <path class="fil0" d="M60.05 172.85l0.05 0c0.4,-0.067 0.783,-0.1 1.15,-0.1 3.366,-0.1 6.217,3.25 8.55,10.05l1.85 4.4 -2.85 -0.35 -3.9 -0.45 -2.5 3.1 -3.5 -1.55 -3.55 1.45 -1.45 0.65c0.587,-1.046 0.754,-2.513 0.5,-4.4l-0.65 -3.6c-0.4,-2.133 0.016,-4.117 1.25,-5.95 1.233,-1.8 2.916,-2.883 5.05,-3.25z"/>
      <path class="fil1" d="M55.35 189.4l3.55 -1.45 3.5 1.55 2.5 -3.1 3.9 0.45c0.76,5.964 1.01,11.015 0.75,15.15 -2.034,1.933 -4.55,3.183 -7.55,3.75 -2.659,-4.451 -4.876,-9.901 -6.65,-16.35z"/>
     </g>
    </g>
   </g>
  </g>
  <g id="handRight_FL_FL_FL_FL_FL_FL_FL_FL">
   <g>
    <g>
     <g>
      <g>
       <path class="fil1" d="M71.904 199.845c-2.013,-2.877 -3.999,-4.812 -5.956,-5.806l-8.661 4.96c-0.721,0.4 -0.906,0.933 -0.555,1.599l0.287 0.492c3.827,7.326 7.806,9.814 11.939,7.464 1.474,-0.809 2.876,-1.823 4.205,-3.042 0.893,-0.791 1.139,-1.547 0.739,-2.268l-0.113 -0.229c-0.508,-0.865 -1.007,-1.697 -1.498,-2.498l0.013 0.049 -0.4 -0.721 0 0zm-12.903 2.267c-0.11,-0.282 0.145,-0.746 0.765,-1.396 0.587,-0.64 1.377,-1.3 2.368,-1.98 1.032,-0.656 1.922,-1.136 2.668,-1.44 0.82,-0.289 1.281,-0.308 1.382,-0.06 0.142,0.273 -0.081,0.729 -0.668,1.37 -0.579,0.673 -1.38,1.354 -2.404,2.042 -0.991,0.679 -1.881,1.159 -2.668,1.439 -0.82,0.289 -1.301,0.297 -1.443,0.025z"/>
      </g>
      <g>
       <path class="fil2" d="M59.766 200.716c-0.62,0.65 -0.875,1.114 -0.765,1.396 0.142,0.272 0.623,0.264 1.443,-0.025 0.787,-0.28 1.677,-0.76 2.668,-1.439 1.024,-0.688 1.825,-1.369 2.404,-2.042 0.587,-0.641 0.81,-1.097 0.668,-1.37 -0.102,-0.248 -0.562,-0.229 -1.382,0.06 -0.746,0.304 -1.636,0.784 -2.668,1.44 -0.991,0.679 -1.781,1.34 -2.368,1.98l0 0zm12.525 -0.199c1.246,-3.335 -0.868,-5.495 -6.343,-6.478 1.957,0.994 3.943,2.929 5.956,5.806l0.4 0.721 -0.013 -0.049z"/>
      </g>
     </g>
    </g>
   </g>
  </g>
  <g id="armRight_FL_FL_FL_FL_FL_FL_FL_FL_FL">
   <g>
    <g>
     <g>
      <path class="fil0" d="M138.829 172.502l0.046 0.018c0.398,0.079 0.768,0.184 1.111,0.314 3.184,1.098 4.663,5.24 4.438,12.426l0.172 4.77 -2.542 -1.337 -3.487 -1.801 -3.436 2.014 -2.725 -2.689 -3.833 0.099 -1.586 0.094c0.92,-0.77 1.595,-2.083 2.025,-3.938l0.667 -3.597c0.381,-2.136 1.473,-3.843 3.276,-5.121 1.791,-1.247 3.749,-1.664 5.874,-1.252z"/>
      <path class="fil1" d="M128.573 186.316l3.833 -0.099 2.725 2.689 3.436 -2.014 3.487 1.801c-1.401,5.847 -2.955,10.659 -4.662,14.435 -2.587,1.088 -5.383,1.365 -8.389,0.833 -0.911,-5.104 -1.055,-10.985 -0.43,-17.645z"/>
     </g>
    </g>
   </g>
  </g>
  <g id="handRight_FL_FL_FL_FL_FL_FL_FL_FL_FL">
   <g>
    <g>
     <g>
      <g>
       <path class="fil1" d="M140.36 201.949c-0.864,-3.403 -2.035,-5.916 -3.514,-7.539l-9.856 1.573c-0.816,0.119 -1.178,0.552 -1.085,1.298l0.094 0.562c0.984,8.206 3.825,11.942 8.522,11.208 1.665,-0.235 3.335,-0.687 5.011,-1.356 1.114,-0.424 1.612,-1.044 1.493,-1.86l-0.025 -0.254c-0.169,-0.988 -0.341,-1.944 -0.516,-2.866l-0.005 0.05 -0.119 -0.816 0 0zm-12.87 -2.449c-0.003,-0.301 0.401,-0.646 1.21,-1.034 0.776,-0.391 1.748,-0.729 2.916,-1.013 1.197,-0.249 2.199,-0.383 3.005,-0.402 0.869,0.02 1.307,0.165 1.313,0.433 0.037,0.306 -0.333,0.654 -1.11,1.045 -0.78,0.424 -1.769,0.777 -2.97,1.058 -1.168,0.285 -2.17,0.419 -3.006,0.402 -0.869,-0.021 -1.321,-0.183 -1.358,-0.489z"/>
      </g>
      <g>
       <path class="fil2" d="M128.7 198.466c-0.809,0.388 -1.213,0.733 -1.21,1.034 0.037,0.306 0.489,0.468 1.358,0.489 0.836,0.017 1.838,-0.117 3.006,-0.402 1.201,-0.281 2.191,-0.634 2.97,-1.058 0.777,-0.391 1.147,-0.739 1.11,-1.045 -0.006,-0.268 -0.444,-0.413 -1.313,-0.433 -0.806,0.019 -1.808,0.153 -3.005,0.402 -1.168,0.284 -2.14,0.622 -2.916,1.013l0 0zm11.784 4.249c2.346,-2.679 1.134,-5.447 -3.638,-8.305 1.479,1.623 2.65,4.136 3.514,7.539l0.119 0.816 0.005 -0.05z"/>
      </g>
     </g>
    </g>
   </g>
  </g>
  <g id="armRight_FL_FL_FL_FL_FL_FL_FL_FL_FL_FL">
   <g>
    <g>
     <g>
      <path class="fil0" d="M198.249 178.765l0.01 -0.049c0.024,-0.405 0.076,-0.786 0.157,-1.143 0.644,-3.306 4.54,-5.348 11.687,-6.124l4.7 -0.835 -0.97 2.703 -1.299 3.705 2.473 3.122 -2.284 3.072 0.632 3.782 0.314 1.558c-0.891,-0.804 -2.284,-1.289 -4.181,-1.458l-3.655 -0.159c-2.169,-0.08 -4.012,-0.924 -5.528,-2.531 -1.484,-1.6 -2.169,-3.481 -2.056,-5.643z"/>
      <path class="fil1" d="M213.355 186.998l-0.632 -3.782 2.284 -3.072 -2.473 -3.122 1.299 -3.705c5.985,0.574 10.966,1.444 14.943,2.609 1.437,2.41 2.101,5.14 1.993,8.191 -4.928,1.613 -10.733,2.573 -17.414,2.881z"/>
     </g>
    </g>
   </g>
  </g>
  <g id="handRight_FL_FL_FL_FL_FL_FL_FL_FL_FL_FL">
   <g>
    <g>
     <g>
      <g>
       <path class="fil1" d="M231.731 172.838c-3.498,0.305 -6.167,1.057 -8.006,2.255l-0.035 9.981c-0.014,0.824 0.355,1.251 1.107,1.28l0.57 -0.003c8.257,0.35 12.402,-1.853 12.434,-6.607 0.036,-1.681 -0.141,-3.402 -0.532,-5.163 -0.239,-1.169 -0.771,-1.76 -1.596,-1.774l-0.254 -0.016c-1.003,0.008 -1.973,0.024 -2.912,0.048l0.049 0.013 -0.825 -0.014 0 0zm-4.488 12.308c-0.299,-0.046 -0.574,-0.499 -0.826,-1.36 -0.261,-0.829 -0.438,-1.843 -0.531,-3.042 -0.053,-1.221 -0.023,-2.231 0.087,-3.03 0.16,-0.855 0.373,-1.263 0.639,-1.227 0.307,0.014 0.591,0.435 0.852,1.264 0.293,0.838 0.482,1.872 0.566,3.103 0.093,1.198 0.064,2.208 -0.087,3.03 -0.16,0.855 -0.393,1.275 -0.7,1.262z"/>
      </g>
      <g>
       <path class="fil2" d="M226.417 183.786c0.252,0.861 0.527,1.314 0.826,1.36 0.307,0.013 0.54,-0.407 0.7,-1.262 0.151,-0.822 0.18,-1.832 0.087,-3.03 -0.084,-1.231 -0.273,-2.265 -0.566,-3.103 -0.261,-0.829 -0.545,-1.25 -0.852,-1.264 -0.266,-0.036 -0.479,0.372 -0.639,1.227 -0.11,0.799 -0.14,1.809 -0.087,3.03 0.093,1.199 0.27,2.213 0.531,3.042l0 0zm6.09 -10.947c-2.266,-2.747 -5.194,-1.995 -8.782,2.254 1.839,-1.198 4.508,-1.95 8.006,-2.255l0.825 0.014 -0.049 -0.013z"/>
      </g>
     </g>
    </g>
   </g>
  </g>
  <g id="armRight_FL_FL_FL_FL_FL_FL_FL_FL_FL_FL_FL">
   <g>
    <g>
     <g>
      <path class="fil0" d="M358.927 175.057l-0.034 -0.037c-0.321,-0.247 -0.607,-0.505 -0.857,-0.773 -2.368,-2.395 -1.861,-6.763 1.523,-13.107l1.957 -4.353 1.688 2.324 2.329 3.16 3.972 -0.285 1.253 3.617 3.481 1.608 1.464 0.618c-1.166,0.283 -2.353,1.161 -3.56,2.634l-2.19 2.93c-1.288,1.747 -3.023,2.794 -5.205,3.142 -2.158,0.325 -4.098,-0.168 -5.821,-1.478z"/>
      <path class="fil1" d="M374.239 167.211l-3.481 -1.608 -1.253 -3.617 -3.972 0.285 -2.329 -3.16c3.844,-4.623 7.368,-8.248 10.571,-10.877 2.801,0.169 5.431,1.158 7.89,2.966 -1.442,4.98 -3.918,10.317 -7.426,16.011z"/>
     </g>
    </g>
   </g>
  </g>
  <g id="handRight_FL_FL_FL_FL_FL_FL_FL_FL_FL_FL_FL">
   <g>
    <g>
     <g>
      <g>
       <path class="fil1" d="M386.092 154.114c-2.494,2.472 -4.792,4.023 -6.895,4.652l-7.638 -6.424c-0.638,-0.522 -0.726,-1.079 -0.262,-1.671l0.37 -0.433c5.071,-6.527 9.43,-8.267 13.077,-5.219 1.307,1.059 2.506,2.307 3.597,3.743 0.737,0.938 0.844,1.726 0.322,2.364l-0.152 0.205c-0.654,0.76 -1.293,1.49 -1.918,2.19l0.021 -0.045 -0.522 0.638 0 0zm-12.293 -4.529c-0.158,0.257 0.01,0.76 0.505,1.509 0.464,0.735 1.123,1.525 1.977,2.371 0.898,0.829 1.688,1.46 2.369,1.892 0.755,0.43 1.205,0.532 1.349,0.305 0.188,-0.243 0.05,-0.732 -0.414,-1.467 -0.45,-0.765 -1.117,-1.578 -2.001,-2.437 -0.854,-0.845 -1.644,-1.476 -2.369,-1.892 -0.755,-0.43 -1.227,-0.524 -1.416,-0.281z"/>
      </g>
      <g>
       <path class="fil2" d="M374.304 151.094c-0.495,-0.749 -0.663,-1.252 -0.505,-1.509 0.189,-0.243 0.661,-0.149 1.416,0.281 0.725,0.416 1.515,1.047 2.369,1.892 0.884,0.859 1.551,1.672 2.001,2.437 0.464,0.735 0.602,1.224 0.414,1.467 -0.144,0.227 -0.594,0.125 -1.349,-0.305 -0.681,-0.432 -1.471,-1.063 -2.369,-1.892 -0.854,-0.846 -1.514,-1.636 -1.977,-2.371l0 0zm12.289 2.427c0.631,3.505 -1.834,5.253 -7.396,5.245 2.103,-0.629 4.401,-2.18 6.895,-4.652l0.522 -0.638 -0.021 0.045z"/>
      </g>
     </g>
    </g>
   </g>
  </g>
  <g id="armRight_FL_FL_FL_FL_FL_FL_FL_FL_FL_FL_FL_FL">
   <g>
    <g>
     <g>
      <path class="fil0" d="M438.562 175.126l0.021 -0.046c0.1,-0.393 0.224,-0.757 0.371,-1.092 1.264,-3.123 5.477,-4.383 12.641,-3.782l4.772 0.078 -1.467 2.468 -1.982 3.389 1.831 3.536 -2.827 2.58 -0.102 3.833 0.012 1.589c-0.721,-0.959 -1.997,-1.702 -3.827,-2.229l-3.557 -0.854c-2.114,-0.492 -3.761,-1.672 -4.943,-3.539 -1.151,-1.854 -1.465,-3.83 -0.943,-5.931z"/>
      <path class="fil1" d="M451.82 186.09l0.102 -3.833 2.827 -2.58 -1.831 -3.536 1.982 -3.389c5.766,1.705 10.488,3.508 14.17,5.411 0.951,2.639 1.082,5.446 0.393,8.42 -5.144,0.643 -11.025,0.479 -17.643,-0.493z"/>
     </g>
    </g>
   </g>
  </g>
  <g id="handRight_FL_FL_FL_FL_FL_FL_FL_FL_FL_FL_FL_FL">
   <g>
    <g>
     <g>
      <g>
       <path class="fil1" d="M472.399 189.187c-3.51,0.076 -6.244,-0.382 -8.203,-1.373l-1.116 -9.918c-0.103,-0.819 0.218,-1.283 0.961,-1.393l0.567 -0.059c8.171,-1.242 12.53,0.498 13.076,5.22 0.218,1.667 0.229,3.397 0.031,5.19 -0.111,1.188 -0.576,1.833 -1.393,1.936l-0.252 0.044c-0.997,0.101 -1.964,0.191 -2.899,0.268l0.046 -0.018 -0.818 0.103 0 0zm-5.795 -11.748c-0.292,0.078 -0.517,0.558 -0.674,1.442 -0.17,0.852 -0.236,1.879 -0.198,3.08 0.08,1.22 0.219,2.222 0.415,3.003 0.252,0.832 0.508,1.216 0.768,1.15 0.304,-0.047 0.541,-0.496 0.71,-1.348 0.201,-0.865 0.276,-1.913 0.227,-3.146 -0.037,-1.201 -0.176,-2.201 -0.415,-3.002 -0.252,-0.833 -0.53,-1.225 -0.833,-1.179z"/>
      </g>
      <g>
       <path class="fil2" d="M465.93 178.881c0.157,-0.884 0.382,-1.364 0.674,-1.442 0.303,-0.046 0.581,0.346 0.833,1.179 0.239,0.801 0.378,1.801 0.415,3.002 0.049,1.233 -0.026,2.281 -0.227,3.146 -0.169,0.852 -0.406,1.302 -0.71,1.348 -0.26,0.065 -0.516,-0.318 -0.768,-1.15 -0.196,-0.781 -0.335,-1.783 -0.415,-3.003 -0.038,-1.201 0.028,-2.228 0.198,-3.08l0 0zm7.241 10.221c-1.955,2.976 -4.947,2.547 -8.975,-1.288 1.959,0.991 4.693,1.449 8.203,1.373l0.818 -0.103 -0.046 0.018z"/>
      </g>
     </g>
    </g>
   </g>
  </g>
  <g id="armRight_FL_FL_FL_FL_FL_FL_FL_FL_FL_FL_FL_FL_FL">
   <g>
    <g>
     <g>
      <path class="fil0" d="M523.689 165.931l0.047 -0.016c0.358,-0.19 0.711,-0.343 1.059,-0.459 3.161,-1.164 6.927,1.109 11.298,6.817l3.15 3.585 -2.814 0.572 -3.841 0.812 -1.387 3.733 -3.81 -0.36 -2.907 2.502 -1.169 1.077c0.226,-1.179 -0.082,-2.622 -0.922,-4.331l-1.759 -3.208c-1.056,-1.896 -1.29,-3.909 -0.703,-6.039 0.599,-2.098 1.851,-3.66 3.758,-4.685z"/>
      <path class="fil1" d="M524.484 183.117l2.907 -2.502 3.81 0.36 1.387 -3.733 3.841 -0.812c2.614,5.415 4.454,10.125 5.52,14.129 -1.315,2.479 -3.305,4.463 -5.969,5.952 -3.935,-3.377 -7.767,-7.841 -11.496,-13.394z"/>
     </g>
    </g>
   </g>
  </g>
  <g id="handRight_FL_FL_FL_FL_FL_FL_FL_FL_FL_FL_FL_FL_FL">
   <g>
    <g>
     <g>
      <g>
       <path class="fil1" d="M528.166 196.801c0.091,-3.51 0.678,-6.22 1.761,-8.129l9.961 -0.645c0.822,-0.064 1.27,0.278 1.345,1.026l0.032 0.569c0.853,8.221 -1.091,12.493 -5.834,12.815 -1.676,0.139 -3.405,0.067 -5.187,-0.215 -1.181,-0.168 -1.803,-0.662 -1.867,-1.485l-0.032 -0.253c-0.054,-1.001 -0.097,-1.971 -0.13,-2.909l0.016 0.048 -0.065 -0.822 0 0zm12.011 -5.232c-0.064,-0.296 -0.533,-0.543 -1.409,-0.742 -0.843,-0.21 -1.866,-0.324 -3.067,-0.344 -1.223,0.023 -2.23,0.113 -3.02,0.273 -0.843,0.211 -1.238,0.449 -1.185,0.712 0.032,0.306 0.47,0.564 1.313,0.774 0.854,0.241 1.898,0.366 3.132,0.375 1.201,0.02 2.208,-0.071 3.019,-0.272 0.843,-0.212 1.248,-0.471 1.217,-0.776z"/>
      </g>
      <g>
       <path class="fil2" d="M538.768 190.827c0.876,0.199 1.345,0.446 1.409,0.742 0.032,0.305 -0.374,0.564 -1.217,0.776 -0.811,0.201 -1.818,0.292 -3.019,0.272 -1.234,-0.009 -2.278,-0.134 -3.132,-0.375 -0.843,-0.21 -1.281,-0.468 -1.313,-0.774 -0.053,-0.263 0.342,-0.501 1.185,-0.712 0.79,-0.16 1.797,-0.25 3.02,-0.273 1.201,0.02 2.224,0.134 3.067,0.344l0 0zm-10.553 6.748c-2.881,-2.094 -2.309,-5.062 1.712,-8.903 -1.083,1.909 -1.67,4.619 -1.761,8.129l0.065 0.822 -0.016 -0.048z"/>
      </g>
     </g>
    </g>
   </g>
  </g>
  <g id="armRight_FL_FL_FL_FL_FL_FL_FL_FL_FL_FL_FL_FL_FL_FL">
   <g>
    <g>
     <g>
      <path class="fil0" d="M613.885 72.942l0.044 0.025c0.316,0.254 0.633,0.471 0.953,0.651 2.884,1.739 7.011,0.219 12.381,-4.561l3.771 -2.926 -2.655 -1.094 -3.619 -1.521 -0.657 -3.928 -3.81 -0.367 -2.382 -3.005 -0.944 -1.278c-0.002,1.199 -0.576,2.559 -1.724,4.079l-2.333 2.818c-1.395,1.662 -2.005,3.595 -1.83,5.797 0.191,2.174 1.126,3.944 2.805,5.31z"/>
      <path class="fil1" d="M617.911 56.216l2.382 3.005 3.81 0.367 0.657 3.928 3.619 1.521c3.589,-4.823 6.285,-9.101 8.088,-12.832 -0.823,-2.682 -2.403,-5.006 -4.738,-6.972 -4.501,2.573 -9.107,6.234 -13.818,10.983z"/>
     </g>
    </g>
   </g>
  </g>
  <g id="handRight_FL_FL_FL_FL_FL_FL_FL_FL_FL_FL_FL_FL_FL_FL">
   <g>
    <g>
     <g>
      <g>
       <path class="fil1" d="M624.523 42.407c-0.574,3.464 -0.509,6.236 0.195,8.316l9.659 2.513c0.795,0.219 1.3,-0.033 1.515,-0.753l0.139 -0.553c2.39,-7.912 1.286,-12.474 -3.31,-13.686 -1.62,-0.452 -3.331,-0.709 -5.134,-0.768 -1.191,-0.058 -1.896,0.31 -2.114,1.105l-0.079 0.242c-0.242,0.974 -0.468,1.918 -0.677,2.833l0.024 -0.044 -0.218 0.795 0 0zm10.806 7.406c-0.118,0.278 -0.625,0.432 -1.522,0.462 -0.869,0.047 -1.894,-0.033 -3.078,-0.241 -1.197,-0.253 -2.168,-0.532 -2.914,-0.838 -0.788,-0.367 -1.131,-0.675 -1.029,-0.923 0.089,-0.294 0.568,-0.465 1.436,-0.512 0.884,-0.076 1.932,-0.002 3.145,0.222 1.184,0.208 2.155,0.487 2.914,0.838 0.788,0.367 1.138,0.698 1.048,0.992z"/>
      </g>
      <g>
       <path class="fil2" d="M633.807 50.275c0.897,-0.03 1.404,-0.184 1.522,-0.462 0.09,-0.294 -0.26,-0.625 -1.048,-0.992 -0.759,-0.351 -1.73,-0.63 -2.914,-0.838 -1.213,-0.224 -2.261,-0.298 -3.145,-0.222 -0.868,0.047 -1.347,0.218 -1.436,0.512 -0.102,0.248 0.241,0.556 1.029,0.923 0.746,0.306 1.717,0.585 2.914,0.838 1.184,0.208 2.209,0.288 3.078,0.241l0 0zm-9.09 -8.619c-3.224,1.512 -3.224,4.535 0.001,9.067 -0.704,-2.08 -0.769,-4.852 -0.195,-8.316l0.218 -0.795 -0.024 0.044z"/>
      </g>
     </g>
    </g>
   </g>
  </g>
  <g id="armRight_FL_FL_FL_FL_FL_FL_FL_FL_FL_FL_FL_FL_FL_FL_FL">
   <g>
    <g>
     <g>
      <path class="fil0" d="M607.927 169.406l0.032 -0.039c0.199,-0.354 0.413,-0.673 0.642,-0.959 2.031,-2.687 6.428,-2.809 13.19,-0.368l4.588 1.314 -2.057 2.002 -2.795 2.758 0.851 3.891 -3.401 1.757 -1.094 3.676 -0.402 1.537c-0.447,-1.113 -1.486,-2.162 -3.116,-3.146l-3.213 -1.749c-1.914,-1.025 -3.198,-2.592 -3.855,-4.702 -0.63,-2.089 -0.42,-4.079 0.63,-5.972z"/>
      <path class="fil1" d="M617.883 183.438l1.094 -3.676 3.401 -1.757 -0.851 -3.891 2.795 -2.758c5.125,3.145 9.217,6.113 12.278,8.907 0.233,2.796 -0.369,5.541 -1.807,8.234 -5.135,-0.716 -10.772,-2.402 -16.91,-5.059z"/>
     </g>
    </g>
   </g>
  </g>
  <g id="handRight_FL_FL_FL_FL_FL_FL_FL_FL_FL_FL_FL_FL_FL_FL_FL">
   <g>
    <g>
     <g>
      <g>
       <path class="fil1" d="M628.302 191.408c-2.483,-2.482 -4.044,-4.774 -4.682,-6.874l6.39 -7.667c0.52,-0.64 1.077,-0.73 1.671,-0.269l0.435 0.369c6.549,5.041 8.307,9.393 5.275,13.054 -1.053,1.311 -2.296,2.515 -3.727,3.613 -0.935,0.741 -1.722,0.852 -2.362,0.332l-0.206 -0.15c-0.763,-0.651 -1.496,-1.287 -2.199,-1.91l0.045 0.022 -0.64 -0.52 0 0zm4.475 -12.312c-0.257,-0.157 -0.76,0.013 -1.507,0.511 -0.733,0.467 -1.52,1.129 -2.362,1.987 -0.825,0.903 -1.452,1.695 -1.881,2.378 -0.427,0.757 -0.527,1.207 -0.299,1.35 0.244,0.187 0.732,0.047 1.465,-0.42 0.763,-0.453 1.572,-1.124 2.428,-2.012 0.842,-0.858 1.469,-1.65 1.882,-2.377 0.426,-0.757 0.518,-1.23 0.274,-1.417z"/>
      </g>
      <g>
       <path class="fil2" d="M631.27 179.607c0.747,-0.498 1.25,-0.668 1.507,-0.511 0.244,0.187 0.152,0.66 -0.274,1.417 -0.413,0.727 -1.04,1.519 -1.882,2.377 -0.855,0.888 -1.665,1.559 -2.428,2.012 -0.733,0.467 -1.222,0.607 -1.465,0.42 -0.228,-0.143 -0.128,-0.593 0.299,-1.35 0.429,-0.683 1.056,-1.475 1.881,-2.378 0.842,-0.858 1.629,-1.52 2.362,-1.987l0 0zm-2.373 12.299c-3.502,0.647 -5.261,-1.81 -5.277,-7.372 0.638,2.1 2.199,4.392 4.682,6.874l0.64 0.52 -0.045 -0.022z"/>
      </g>
     </g>
    </g>
   </g>
  </g>
  <g id="armRight_FL_FL_FL_FL_FL_FL_FL_FL_FL_FL_FL_FL_FL_FL_FL_FL">
   <g>
    <g>
     <g>
      <path class="fil0" d="M118.841 286.056l-0.008 -0.049c-0.133,-0.383 -0.231,-0.756 -0.293,-1.117 -0.666,-3.301 2.155,-6.676 8.464,-10.123l4.025 -2.565 0.136 2.868 0.214 3.92 3.477 1.941 -0.937 3.712 2.028 3.254 0.885 1.32c-1.13,-0.403 -2.603,-0.32 -4.421,0.249l-3.439 1.248c-2.035,0.754 -4.06,0.678 -6.075,-0.229 -1.983,-0.912 -3.335,-2.388 -4.056,-4.429z"/>
      <path class="fil1" d="M135.947 287.897l-2.028 -3.254 0.937 -3.712 -3.477 -1.941 -0.214 -3.92c5.751,-1.755 10.686,-2.853 14.807,-3.294 2.248,1.678 3.905,3.947 4.969,6.809 -3.938,3.371 -8.936,6.476 -14.994,9.312z"/>
     </g>
    </g>
   </g>
  </g>
  <g id="handRight_FL_FL_FL_FL_FL_FL_FL_FL_FL_FL_FL_FL_FL_FL_FL_FL">
   <g>
    <g>
     <g>
      <g>
       <path class="fil1" d="M149.803 286.442c-3.455,-0.626 -6.044,-1.621 -7.765,-2.983l0.886 -9.942c0.062,-0.822 0.469,-1.213 1.22,-1.173l0.567 0.056c8.255,0.413 12.179,2.988 11.772,7.725 -0.119,1.677 -0.454,3.375 -1.006,5.092 -0.345,1.141 -0.929,1.681 -1.752,1.619l-0.254 -0.007c-0.998,-0.1 -1.963,-0.205 -2.895,-0.316l0.049 -0.009 -0.822 -0.062 0 0zm-3.335 -12.669c-0.301,0.018 -0.617,0.444 -0.948,1.278 -0.336,0.802 -0.606,1.795 -0.809,2.979 -0.165,1.212 -0.229,2.221 -0.192,3.026 0.08,0.866 0.254,1.292 0.523,1.28 0.307,0.015 0.629,-0.378 0.965,-1.18 0.369,-0.807 0.652,-1.819 0.85,-3.037 0.203,-1.184 0.267,-2.192 0.192,-3.025 -0.08,-0.866 -0.274,-1.306 -0.581,-1.321z"/>
      </g>
      <g>
       <path class="fil2" d="M145.52 275.051c0.331,-0.834 0.647,-1.26 0.948,-1.278 0.307,0.015 0.501,0.455 0.581,1.321 0.075,0.833 0.011,1.841 -0.192,3.025 -0.198,1.218 -0.481,2.23 -0.85,3.037 -0.336,0.802 -0.658,1.195 -0.965,1.18 -0.269,0.012 -0.443,-0.414 -0.523,-1.28 -0.037,-0.805 0.027,-1.814 0.192,-3.026 0.203,-1.184 0.473,-2.177 0.809,-2.979l0 0zm5.056 11.462c-2.51,2.526 -5.356,1.508 -8.538,-3.054 1.721,1.362 4.31,2.357 7.765,2.983l0.822 0.062 -0.049 0.009z"/>
      </g>
     </g>
    </g>
   </g>
  </g>
  <g id="armRight_FL_FL_FL_FL_FL_FL_FL_FL_FL_FL_FL_FL_FL_FL_FL_FL_FL">
   <g>
    <g>
     <g>
      <path class="fil0" d="M694.385 73.942l0.044 0.025c0.316,0.254 0.633,0.471 0.953,0.651 2.884,1.739 7.011,0.219 12.381,-4.561l3.771 -2.926 -2.655 -1.094 -3.619 -1.521 -0.657 -3.928 -3.81 -0.367 -2.382 -3.005 -0.944 -1.278c-0.001,1.199 -0.576,2.559 -1.724,4.079l-2.332 2.818c-1.396,1.662 -2.006,3.594 -1.831,5.797 0.191,2.174 1.126,3.944 2.805,5.31z"/>
      <path class="fil1" d="M698.411 57.216l2.382 3.005 3.81 0.367 0.657 3.928 3.619 1.521c3.589,-4.823 6.285,-9.101 8.088,-12.832 -0.823,-2.682 -2.403,-5.006 -4.738,-6.972 -4.502,2.573 -9.107,6.234 -13.818,10.983z"/>
     </g>
    </g>
   </g>
  </g>
  <g id="handRight_FL_FL_FL_FL_FL_FL_FL_FL_FL_FL_FL_FL_FL_FL_FL_FL_FL">
   <g>
    <g>
     <g>
      <g>
       <path class="fil1" d="M704.973 43.857c-0.574,3.465 -0.509,6.236 0.195,8.316l9.659 2.513c0.795,0.218 1.3,-0.033 1.515,-0.754l0.139 -0.552c2.39,-7.912 1.286,-12.474 -3.31,-13.685 -1.62,-0.454 -3.331,-0.71 -5.134,-0.768 -1.191,-0.059 -1.896,0.309 -2.114,1.104l-0.079 0.243c-0.242,0.973 -0.468,1.917 -0.677,2.832l0.024 -0.044 -0.218 0.795 0 0zm10.806 7.406c-0.118,0.278 -0.625,0.432 -1.522,0.462 -0.868,0.047 -1.894,-0.033 -3.078,-0.241 -1.196,-0.253 -2.168,-0.532 -2.914,-0.838 -0.788,-0.367 -1.131,-0.675 -1.029,-0.924 0.089,-0.294 0.568,-0.464 1.436,-0.511 0.884,-0.076 1.933,-0.001 3.145,0.222 1.184,0.208 2.155,0.487 2.914,0.838 0.788,0.367 1.138,0.698 1.048,0.992z"/>
      </g>
      <g>
       <path class="fil2" d="M714.257 51.725c0.897,-0.03 1.404,-0.184 1.522,-0.462 0.09,-0.294 -0.26,-0.625 -1.048,-0.992 -0.759,-0.351 -1.73,-0.63 -2.914,-0.838 -1.213,-0.223 -2.261,-0.298 -3.145,-0.222 -0.868,0.047 -1.347,0.217 -1.436,0.511 -0.102,0.249 0.241,0.557 1.029,0.924 0.746,0.306 1.718,0.585 2.914,0.838 1.184,0.208 2.21,0.288 3.078,0.241l0 0zm-9.09 -8.619c-3.224,1.512 -3.224,4.535 0.001,9.067 -0.704,-2.08 -0.769,-4.851 -0.195,-8.316l0.218 -0.795 -0.024 0.044z"/>
      </g>
     </g>
    </g>
   </g>
  </g>
  <g id="armRight_FL_FL_FL_FL_FL_FL_FL_FL_FL_FL_FL_FL_FL_FL_FL_FL_FL_FL">
   <g>
    <g>
     <g>
      <path class="fil0" d="M690.273 167.4l0.037 -0.034c0.245,-0.323 0.502,-0.61 0.769,-0.861 2.384,-2.379 6.756,-1.891 13.113,1.465l4.362 1.938 -2.316 1.698 -3.15 2.344 0.302 3.97 -3.611 1.269 -1.593 3.488 -0.611 1.467c-0.289,-1.165 -1.172,-2.347 -2.65,-3.549l-2.94 -2.177c-1.753,-1.28 -2.807,-3.011 -3.165,-5.191 -0.334,-2.156 0.15,-4.099 1.453,-5.827z"/>
      <path class="fil1" d="M698.186 182.677l1.593 -3.488 3.611 -1.269 -0.302 -3.97 3.15 -2.344c4.639,3.825 8.281,7.333 10.924,10.524 -0.157,2.801 -1.134,5.436 -2.932,7.904 -4.986,-1.421 -10.334,-3.874 -16.044,-7.357z"/>
     </g>
    </g>
   </g>
  </g>
  <g id="handRight_FL_FL_FL_FL_FL_FL_FL_FL_FL_FL_FL_FL_FL_FL_FL_FL_FL_FL">
   <g>
    <g>
     <g>
      <g>
       <path class="fil1" d="M706.774 191.924c-2.062,-2.842 -3.244,-5.35 -3.545,-7.524l7.516 -6.568c0.613,-0.551 1.178,-0.552 1.692,-0.003l0.372 0.432c5.675,6.007 6.728,10.581 3.159,13.721 -1.246,1.129 -2.662,2.123 -4.248,2.982 -1.039,0.585 -1.834,0.571 -2.385,-0.043l-0.179 -0.181c-0.652,-0.762 -1.276,-1.505 -1.872,-2.23l0.041 0.028 -0.551 -0.614 0 0zm6.354 -11.456c-0.23,-0.196 -0.753,-0.106 -1.569,0.267 -0.797,0.347 -1.679,0.878 -2.645,1.593 -0.957,0.761 -1.701,1.445 -2.231,2.052 -0.541,0.681 -0.71,1.109 -0.507,1.286 0.211,0.223 0.715,0.162 1.512,-0.184 0.825,-0.328 1.73,-0.863 2.714,-1.606 0.966,-0.715 1.71,-1.399 2.232,-2.052 0.54,-0.681 0.705,-1.133 0.494,-1.356z"/>
      </g>
      <g>
       <path class="fil2" d="M711.559 180.735c0.816,-0.373 1.339,-0.463 1.569,-0.267 0.211,0.223 0.046,0.675 -0.494,1.356 -0.522,0.653 -1.266,1.337 -2.232,2.052 -0.984,0.743 -1.889,1.278 -2.714,1.606 -0.797,0.346 -1.301,0.407 -1.512,0.184 -0.203,-0.177 -0.034,-0.605 0.507,-1.286 0.53,-0.607 1.274,-1.291 2.231,-2.052 0.966,-0.715 1.848,-1.246 2.645,-1.593l0 0zm-4.275 11.775c-3.56,0.089 -4.911,-2.615 -4.055,-8.11 0.301,2.174 1.483,4.682 3.545,7.524l0.551 0.614 -0.041 -0.028z"/>
      </g>
     </g>
    </g>
   </g>
  </g>
  <g id="armRight_FL_FL_FL_FL_FL_FL_FL_FL_FL_FL_FL_FL_FL_FL_FL_FL_FL_FL_FL">
   <g>
    <g>
     <g>
      <path class="fil0" d="M283.955 172.124l0.042 -0.027c0.318,-0.282 0.632,-0.522 0.941,-0.719 2.808,-1.913 6.172,-0.087 10.09,5.479l2.823 3.418 -2.502 1.183 -3.416 1.648 -1.217 4.456 -3.394 0.329 -2.575 3.367 -1.036 1.432c0.195,-1.366 -0.086,-2.927 -0.842,-4.683l-1.581 -3.262c-0.95,-1.925 -1.168,-4.139 -0.655,-6.642 0.522,-2.47 1.63,-4.463 3.322,-5.979z"/>
      <path class="fil1" d="M284.747 191.258l2.575 -3.367 3.394 -0.329 1.217 -4.456 3.416 -1.648c2.353,5.574 4.014,10.506 4.982,14.795 -1.158,3.034 -2.92,5.643 -5.286,7.827 -3.518,-3.033 -6.951,-7.308 -10.298,-12.822z"/>
     </g>
    </g>
   </g>
  </g>
  <g id="armRight_FL_FL_FL_FL_FL_FL_FL_FL_FL_FL_FL_FL_FL_FL_FL_FL_FL_FL_FL_FL">
   <g>
    <g>
     <g>
      <path class="fil0" d="M220.177 277.788l-0.045 -0.02c-0.393,-0.1 -0.758,-0.223 -1.093,-0.371 -3.123,-1.263 -4.384,-5.476 -3.785,-12.64l0.077 -4.773 2.468 1.467 3.39 1.981 3.536 -1.832 2.58 2.827 3.833 0.101 1.59 -0.012c-0.959,0.721 -1.702,1.997 -2.228,3.827l-0.854 3.557c-0.492,2.114 -1.671,3.762 -3.538,4.945 -1.853,1.151 -3.83,1.466 -5.931,0.943z"/>
      <path class="fil1" d="M231.138 264.528l-3.833 -0.101 -2.58 -2.827 -3.536 1.832 -3.39 -1.981c1.704,-5.766 3.507,-10.49 5.409,-14.171 2.639,-0.952 5.446,-1.084 8.42,-0.396 0.644,5.144 0.481,11.026 -0.49,17.644z"/>
     </g>
    </g>
   </g>
  </g>
  <g id="handRight_FL_FL_FL_FL_FL_FL_FL_FL_FL_FL_FL_FL_FL_FL_FL_FL_FL_FL_FL">
   <g>
    <g>
     <g>
      <g>
       <path class="fil1" d="M235.175 257.176c-3.357,1.029 -6.113,1.334 -8.268,0.913l-3.776 -9.238c-0.323,-0.759 -0.141,-1.293 0.545,-1.602l0.529 -0.211c7.523,-3.422 12.191,-2.935 14.004,1.459 0.665,1.545 1.146,3.207 1.445,4.986 0.216,1.172 -0.055,1.92 -0.814,2.242l-0.229 0.111c-0.933,0.369 -1.838,0.718 -2.718,1.047l0.04 -0.029 -0.758 0.322 0 0zm-8.778 -9.725c-0.26,0.154 -0.345,0.678 -0.256,1.571 0.069,0.867 0.285,1.872 0.649,3.018 0.41,1.152 0.816,2.078 1.218,2.776 0.468,0.732 0.819,1.031 1.052,0.897 0.28,-0.127 0.385,-0.624 0.316,-1.49 -0.043,-0.887 -0.256,-1.916 -0.639,-3.089 -0.363,-1.145 -0.769,-2.07 -1.218,-2.776 -0.469,-0.732 -0.843,-1.034 -1.122,-0.907z"/>
      </g>
      <g>
       <path class="fil2" d="M226.141 249.022c-0.089,-0.893 -0.004,-1.417 0.256,-1.571 0.279,-0.127 0.653,0.175 1.122,0.907 0.449,0.705 0.855,1.631 1.218,2.776 0.383,1.173 0.596,2.202 0.639,3.089 0.069,0.866 -0.036,1.363 -0.316,1.49 -0.232,0.134 -0.584,-0.165 -1.052,-0.897 -0.402,-0.698 -0.808,-1.624 -1.218,-2.776 -0.364,-1.146 -0.58,-2.151 -0.649,-3.018l0 0zm9.752 7.861c-1.07,3.397 -4.065,3.799 -8.986,1.206 2.155,0.421 4.911,0.116 8.268,-0.913l0.758 -0.322 -0.04 0.029z"/>
      </g>
     </g>
    </g>
   </g>
  </g>
  <g id="armRight_FL_FL_FL_FL_FL_FL_FL_FL_FL_FL_FL_FL_FL_FL_FL_FL_FL_FL_FL_FL_FL">
   <g>
    <g>
     <g>
      <path class="fil0" d="M287.898 292.738l-0.032 -0.039c-0.301,-0.27 -0.568,-0.546 -0.802,-0.829 -2.212,-2.539 -1.695,-6.662 1.552,-12.367l1.885 -3.955 1.571 2.4 2.169 3.266 3.749 0.147 1.149 3.59 3.269 1.905 1.376 0.744c-1.102,0.148 -2.229,0.862 -3.381,2.143l-2.092 2.569c-1.23,1.534 -2.876,2.352 -4.937,2.454 -2.038,0.082 -3.863,-0.593 -5.476,-2.028z"/>
      <path class="fil1" d="M302.408 286.856l-3.269 -1.905 -1.149 -3.59 -3.749 -0.147 -2.169 -3.266c3.667,-4.013 7.023,-7.107 10.066,-9.282 2.64,0.458 5.112,1.68 7.416,3.669 -1.405,4.608 -3.786,9.448 -7.146,14.521z"/>
     </g>
    </g>
   </g>
  </g>
  <g id="handRight_FL_FL_FL_FL_FL_FL_FL_FL_FL_FL_FL_FL_FL_FL_FL_FL_FL_FL_FL_FL">
   <g>
    <g>
     <g>
      <g>
       <path class="fil1" d="M305.298 286.818c-2.258,-2.689 -3.614,-5.107 -4.067,-7.255l7.033 -7.082c0.574,-0.593 1.136,-0.634 1.688,-0.123l0.401 0.405c6.086,5.592 7.459,10.081 4.12,13.464 -1.163,1.214 -2.506,2.306 -4.028,3.275 -0.995,0.657 -1.789,0.699 -2.381,0.126l-0.192 -0.168c-0.704,-0.715 -1.379,-1.412 -2.025,-2.093l0.044 0.025 -0.593 -0.574 0 0zm5.529 -11.876c-0.243,-0.179 -0.758,-0.053 -1.546,0.378 -0.771,0.401 -1.613,0.993 -2.526,1.774 -0.901,0.827 -1.594,1.563 -2.081,2.205 -0.491,0.717 -0.63,1.157 -0.415,1.319 0.226,0.208 0.725,0.111 1.496,-0.291 0.799,-0.385 1.664,-0.983 2.594,-1.793 0.913,-0.781 1.607,-1.516 2.081,-2.205 0.491,-0.716 0.624,-1.179 0.397,-1.387z"/>
      </g>
      <g>
       <path class="fil2" d="M309.281 275.32c0.788,-0.431 1.303,-0.557 1.546,-0.378 0.227,0.208 0.094,0.671 -0.397,1.387 -0.474,0.689 -1.168,1.424 -2.081,2.205 -0.93,0.81 -1.795,1.408 -2.594,1.793 -0.771,0.402 -1.27,0.499 -1.496,0.291 -0.215,-0.162 -0.076,-0.602 0.415,-1.319 0.487,-0.642 1.18,-1.378 2.081,-2.205 0.914,-0.781 1.755,-1.373 2.526,-1.774l0 0zm-3.434 12.047c-3.545,0.339 -5.083,-2.262 -4.616,-7.804 0.453,2.148 1.809,4.566 4.067,7.255l0.593 0.574 -0.044 -0.025z"/>
      </g>
     </g>
    </g>
   </g>
  </g>
  <g id="armRight_FL_FL_FL_FL_FL_FL_FL_FL_FL_FL_FL_FL_FL_FL_FL_FL_FL_FL_FL_FL_FL_FL_FL">
   <g>
    <g>
     <g>
      <path class="fil0" d="M375.457 283.478l0.049 -0.013c0.37,-0.162 0.733,-0.29 1.087,-0.385 3.229,-0.958 6.764,1.224 10.606,6.548l2.815 3.356 -2.835 0.433 -3.873 0.617 -1.69 3.349 -3.743 -0.445 -3.09 2.183 -1.249 0.942c0.323,-1.064 0.141,-2.386 -0.545,-3.965l-1.469 -2.97c-0.884,-1.756 -0.945,-3.593 -0.182,-5.51 0.771,-1.888 2.144,-3.268 4.119,-4.14z"/>
      <path class="fil1" d="M374.783 299.121l3.09 -2.183 3.743 0.445 1.69 -3.349 3.873 -0.617c2.127,5.002 3.548,9.34 4.263,13.012 -1.513,2.211 -3.652,3.952 -6.417,5.223 -3.608,-3.192 -7.022,-7.369 -10.242,-12.531z"/>
     </g>
    </g>
   </g>
  </g>
  <g id="handRight_FL_FL_FL_FL_FL_FL_FL_FL_FL_FL_FL_FL_FL_FL_FL_FL_FL_FL_FL_FL_FL_FL">
   <g>
    <g>
     <g>
      <g>
       <path class="fil1" d="M377.688 313.981c0.305,-3.498 1.057,-6.167 2.255,-8.006l9.981 -0.034c0.825,-0.014 1.251,0.355 1.28,1.106l-0.002 0.57c0.348,8.258 -1.854,12.402 -6.608,12.434 -1.681,0.036 -3.402,-0.141 -5.163,-0.532 -1.169,-0.239 -1.76,-0.771 -1.773,-1.595l-0.017 -0.255c0.008,-1.002 0.023,-1.973 0.048,-2.912l0.013 0.049 -0.014 -0.825 0 0zm12.308 -4.488c-0.045,-0.298 -0.499,-0.574 -1.36,-0.826 -0.829,-0.261 -1.843,-0.438 -3.041,-0.531 -1.222,-0.052 -2.232,-0.023 -3.031,0.087 -0.854,0.16 -1.263,0.373 -1.226,0.64 0.013,0.306 0.434,0.59 1.263,0.851 0.838,0.294 1.872,0.482 3.102,0.567 1.199,0.093 2.209,0.064 3.031,-0.088 0.854,-0.16 1.275,-0.393 1.262,-0.7z"/>
      </g>
      <g>
       <path class="fil2" d="M388.636 308.667c0.861,0.252 1.315,0.528 1.36,0.826 0.013,0.307 -0.408,0.54 -1.262,0.7 -0.822,0.152 -1.832,0.181 -3.031,0.088 -1.23,-0.085 -2.264,-0.273 -3.102,-0.567 -0.829,-0.261 -1.25,-0.545 -1.263,-0.851 -0.037,-0.267 0.372,-0.48 1.226,-0.64 0.799,-0.11 1.809,-0.139 3.031,-0.087 1.198,0.093 2.212,0.27 3.041,0.531l0 0zm-10.947 6.09c-2.747,-2.266 -1.995,-5.193 2.254,-8.782 -1.198,1.839 -1.95,4.508 -2.255,8.006l0.014 0.825 -0.013 -0.049z"/>
      </g>
     </g>
    </g>
   </g>
  </g>
  <g id="handRight_FL_FL_FL_FL_FL_FL_FL_FL_FL_FL_FL_FL_FL_FL_FL_FL_FL_FL_FL_FL_FL_FL_FL">
   <g>
    <g>
     <g>
      <g>
       <path class="fil1" d="M292.233 190.79c3.497,0.314 6.164,1.073 7.999,2.276l0.008 9.981c0.011,0.824 -0.358,1.25 -1.11,1.277l-0.57 -0.004c-8.258,0.326 -12.397,-1.887 -12.415,-6.641 -0.032,-1.681 0.15,-3.402 0.546,-5.162 0.242,-1.167 0.776,-1.757 1.6,-1.769l0.254 -0.015c1.003,0.01 1.974,0.029 2.912,0.056l-0.049 0.013 0.825 -0.012 0 0zm4.455 12.319c0.298,-0.045 0.574,-0.497 0.829,-1.358 0.263,-0.828 0.443,-1.841 0.54,-3.039 0.055,-1.222 0.029,-2.232 -0.079,-3.031 -0.158,-0.854 -0.37,-1.264 -0.637,-1.228 -0.306,0.013 -0.591,0.433 -0.855,1.261 -0.295,0.837 -0.487,1.871 -0.575,3.101 -0.096,1.198 -0.07,2.208 0.08,3.031 0.157,0.854 0.389,1.275 0.697,1.263z"/>
      </g>
      <g>
       <path class="fil2" d="M297.517 201.751c-0.255,0.861 -0.531,1.313 -0.829,1.358 -0.308,0.012 -0.54,-0.409 -0.697,-1.263 -0.15,-0.823 -0.176,-1.833 -0.08,-3.031 0.088,-1.23 0.28,-2.264 0.575,-3.101 0.264,-0.828 0.549,-1.248 0.855,-1.261 0.267,-0.036 0.479,0.374 0.637,1.228 0.108,0.799 0.134,1.809 0.079,3.031 -0.097,1.198 -0.277,2.211 -0.54,3.039l0 0zm-6.06 -10.962c2.273,-2.741 5.199,-1.981 8.775,2.277 -1.836,-1.203 -4.502,-1.962 -7.999,-2.276l-0.825 0.012 0.049 -0.013z"/>
      </g>
     </g>
    </g>
   </g>
  </g>
  <g id="armRight_FL_FL_FL_FL_FL_FL_FL_FL_FL_FL_FL_FL_FL_FL_FL_FL_FL_FL_FL_FL_FL_FL_FL_FL">
   <g>
    <g>
     <g>
      <path class="fil0" d="M450.274 65.774l-0.032 -0.039c-0.292,-0.277 -0.555,-0.558 -0.788,-0.84 -2.2,-2.55 -2.132,-6.302 0.203,-11.255l1.295 -3.467 1.617 2.361 2.23 3.216 3.333 0.491 1.357 3.417 3.075 2.066 1.288 0.817c-0.962,0.032 -1.892,0.583 -2.791,1.655l-1.608 2.17c-0.944,1.298 -2.324,1.896 -4.139,1.795 -1.796,-0.116 -3.476,-0.912 -5.04,-2.387z"/>
      <path class="fil1" d="M462.564 61.724l-3.075 -2.066 -1.357 -3.417 -3.333 -0.491 -2.23 -3.216c2.868,-3.352 5.545,-5.887 8.034,-7.604 2.381,0.671 4.685,2.033 6.913,4.084 -0.808,4.114 -2.459,8.351 -4.952,12.71z"/>
     </g>
    </g>
   </g>
  </g>
  <g id="handRight_FL_FL_FL_FL_FL_FL_FL_FL_FL_FL_FL_FL_FL_FL_FL_FL_FL_FL_FL_FL_FL_FL_FL_FL">
   <g>
    <g>
     <g>
      <g>
       <path class="fil1" d="M452.719 45.998c1.232,3.288 2.671,5.657 4.319,7.107l9.625 -2.644c0.797,-0.208 1.11,-0.677 0.936,-1.409l-0.156 -0.549c-1.878,-8.048 -5.112,-11.45 -9.7,-10.205 -1.629,0.416 -3.24,1.049 -4.831,1.898 -1.061,0.544 -1.488,1.214 -1.281,2.012l0.053 0.25c0.276,0.964 0.552,1.894 0.827,2.792l0 -0.05 0.208 0.798 0 0zm13.06 1.022c0.036,0.3 -0.327,0.686 -1.089,1.161 -0.729,0.473 -1.658,0.916 -2.787,1.327 -1.163,0.378 -2.144,0.621 -2.943,0.729 -0.866,0.075 -1.317,-0.021 -1.353,-0.287 -0.069,-0.299 0.26,-0.686 0.989,-1.16 0.728,-0.507 1.674,-0.966 2.836,-1.378 1.13,-0.411 2.111,-0.654 2.944,-0.728 0.865,-0.076 1.333,0.037 1.403,0.336z"/>
      </g>
      <g>
       <path class="fil2" d="M464.69 48.181c0.762,-0.475 1.125,-0.861 1.089,-1.161 -0.07,-0.299 -0.538,-0.412 -1.403,-0.336 -0.833,0.074 -1.814,0.317 -2.944,0.728 -1.162,0.412 -2.107,0.871 -2.836,1.378 -0.729,0.474 -1.058,0.861 -0.989,1.16 0.036,0.266 0.487,0.362 1.353,0.287 0.799,-0.108 1.78,-0.351 2.943,-0.729 1.129,-0.411 2.058,-0.854 2.787,-1.327l0 0zm-12.179 -2.931c-2.038,2.92 -0.529,5.538 4.527,7.855 -1.647,-1.45 -3.087,-3.819 -4.319,-7.107l-0.208 -0.798 0 0.05z"/>
      </g>
     </g>
    </g>
   </g>
  </g>
 </g>
</svg>
