<?xml version="1.0" encoding="UTF-8"?>
<!DOCTYPE svg PUBLIC "-//W3C//DTD SVG 1.1//EN" "http://www.w3.org/Graphics/SVG/1.1/DTD/svg11.dtd">
<!-- Creator: CorelDRAW 2018 (64-Bit) -->
<svg xmlns="http://www.w3.org/2000/svg" xml:space="preserve" width="720px" height="330px" version="1.1" style="shape-rendering:geometricPrecision; text-rendering:geometricPrecision; image-rendering:optimizeQuality; fill-rule:evenodd; clip-rule:evenodd"
viewBox="0 0 720 330"
 xmlns:xlink="http://www.w3.org/1999/xlink">
 <defs>
  <style type="text/css">
   <![CDATA[
    .fil2 {fill:#2E88C4}
    .fil3 {fill:#3498DB}
    .fil4 {fill:#E7CBA0}
    .fil1 {fill:#FCF7EE}
    .fil0 {fill:#FFE0B1}
   ]]>
  </style>
 </defs>
 <g id="Слой_x0020_1">
  <metadata id="CorelCorpID_0Corel-Layer"/>
  <g id="armRight">
   <g>
    <g>
     <g>
      <path class="fil0" d="M50.293 302.374l10.036 7.783c2.383,-0.534 4.574,-1.672 6.573,-3.413 -3.666,-4.137 -6.578,-8.788 -8.737,-13.954l-7.872 9.584z"/>
      <path class="fil1" d="M58.165 292.79c-0.244,-0.627 -0.486,-1.263 -0.724,-1.907l-10.282 9.086 3.134 2.405 7.872 -9.584z"/>
      <path class="fil2" d="M57.441 290.883l0.387 -0.331 -2.007 -2.219 -11.771 10.33c-0.222,0.929 0.46,1.679 2.047,2.25l1.062 -0.944 10.282 -9.086z"/>
      <path class="fil3" d="M47.95 282.893c-2.177,-0.146 -4.07,0.505 -5.679,1.954l-0.031 0.039c-0.3,0.273 -0.563,0.554 -0.79,0.841 -2.163,2.582 -1.296,6.895 2.6,12.936l11.771 -10.33 -2.425 -2.739c-1.427,-1.634 -3.243,-2.535 -5.446,-2.701z"/>
     </g>
    </g>
   </g>
  </g>
  <g id="armRight_FL">
   <g>
    <g>
     <g>
      <path class="fil0" d="M216.917 173.963l12.365 2.898c1.085,2.188 1.581,4.607 1.487,7.256 -5.523,-0.244 -10.971,0.422 -16.343,1.996l2.491 -12.15z"/>
      <path class="fil1" d="M214.426 186.113c-0.641,0.205 -1.287,0.418 -1.938,0.638l0.587 -13.708 3.842 0.92 -2.491 12.15z"/>
      <path class="fil2" d="M212.488 186.751l-0.013 0.51 -2.987 -0.163 0.615 -15.649c0.582,-0.757 1.593,-0.699 3.037,0.174l-0.065 1.42 -0.587 13.708z"/>
      <path class="fil3" d="M200.305 184.408c-1.484,-1.6 -2.169,-3.481 -2.056,-5.643l0.01 -0.049c0.024,-0.405 0.076,-0.786 0.157,-1.143 0.644,-3.306 4.54,-5.348 11.687,-6.124l-0.615 15.649 -3.655 -0.159c-2.169,-0.08 -4.012,-0.924 -5.528,-2.531z"/>
     </g>
    </g>
   </g>
  </g>
  <g id="armRight_FL_FL">
   <g>
    <g>
     <g>
      <path class="fil0" d="M457.803 173.974l11.585 5.203c0.649,2.355 0.673,4.823 0.075,7.406 -5.374,-1.293 -10.848,-1.678 -16.422,-1.158l4.762 -11.451z"/>
      <path class="fil1" d="M453.041 185.425c-0.668,0.079 -1.343,0.164 -2.024,0.257l3.191 -13.344 3.595 1.636 -4.762 11.451z"/>
      <path class="fil2" d="M451.017 185.682l-0.11 0.498 -2.902 -0.73 3.59 -15.244c0.715,-0.632 1.697,-0.382 2.947,0.75l-0.334 1.382 -3.191 13.344z"/>
      <path class="fil3" d="M439.505 181.057c-1.151,-1.854 -1.465,-3.83 -0.943,-5.931l0.021 -0.046c0.1,-0.393 0.224,-0.757 0.371,-1.092 1.264,-3.123 5.477,-4.383 12.641,-3.782l-3.59 15.244 -3.557 -0.854c-2.114,-0.492 -3.761,-1.672 -4.943,-3.539z"/>
     </g>
    </g>
   </g>
  </g>
  <g id="armRight_FL_FL_FL">
   <g>
    <g>
     <g>
      <path class="fil0" d="M626.808 173.291l9.836 8.034c0.015,2.442 -0.603,4.833 -1.851,7.172 -4.855,-2.645 -10.041,-4.439 -15.558,-5.384l7.573 -9.822z"/>
      <path class="fil1" d="M619.235 183.113c-0.666,-0.098 -1.34,-0.19 -2.022,-0.278l6.548 -12.058 3.047 2.514 -7.573 9.822z"/>
      <path class="fil2" d="M617.213 182.835l-0.235 0.452 -2.613 -1.458 7.426 -13.789c0.855,-0.425 1.739,0.071 2.651,1.489l-0.681 1.248 -6.548 12.058z"/>
      <path class="fil3" d="M607.297 175.378c-0.63,-2.089 -0.42,-4.079 0.63,-5.972l0.032 -0.039c0.199,-0.354 0.413,-0.673 0.642,-0.959 2.031,-2.687 6.428,-2.809 13.19,-0.368l-7.426 13.789 -3.213 -1.749c-1.914,-1.025 -3.198,-2.592 -3.855,-4.702z"/>
     </g>
    </g>
   </g>
  </g>
  <g id="handRight">
   <g>
    <g>
     <g>
      <g>
       <path class="fil4" d="M628.693 192.178l-0.046 -0.021c-3.502,0.646 -5.261,-1.811 -5.278,-7.373 0.639,2.1 2.2,4.392 4.683,6.874l0.641 0.52 0 0zm3.834 -12.832c0.244,0.187 0.153,0.659 -0.274,1.417 -0.413,0.727 -1.04,1.519 -1.882,2.377 -0.856,0.888 -1.665,1.559 -2.428,2.012 -0.733,0.467 -1.221,0.607 -1.465,0.42 -0.228,-0.143 -0.128,-0.593 0.299,-1.35 0.429,-0.683 1.056,-1.475 1.881,-2.377 0.842,-0.858 1.629,-1.521 2.362,-1.988 0.747,-0.498 1.25,-0.668 1.507,-0.511z"/>
      </g>
      <g>
       <path class="fil0" d="M628.647 192.157l0.046 0.021 -0.641 -0.52c-2.483,-2.483 -4.044,-4.774 -4.683,-6.874l6.391 -7.667c0.52,-0.64 1.077,-0.73 1.671,-0.269l0.435 0.369c6.549,5.041 8.307,9.393 5.275,13.054 -1.053,1.311 -2.295,2.515 -3.727,3.613 -0.934,0.741 -1.722,0.852 -2.362,0.333l-0.205 -0.152c-0.764,-0.65 -1.497,-1.286 -2.2,-1.908l0 0zm3.606 -11.394c0.427,-0.758 0.518,-1.23 0.274,-1.417 -0.257,-0.157 -0.76,0.013 -1.507,0.511 -0.733,0.467 -1.52,1.13 -2.362,1.988 -0.825,0.902 -1.452,1.694 -1.881,2.377 -0.427,0.757 -0.527,1.207 -0.299,1.35 0.244,0.187 0.732,0.047 1.465,-0.42 0.763,-0.453 1.572,-1.124 2.428,-2.012 0.842,-0.858 1.469,-1.65 1.882,-2.377z"/>
      </g>
     </g>
    </g>
   </g>
  </g>
  <g id="armRight_FL_FL_FL_FL">
   <g>
    <g id="_1021917904">
     <g>
      <path class="fil0" d="M708.432 173.866l8.627 9.322c-0.325,2.421 -1.268,4.703 -2.829,6.846 -4.44,-3.293 -9.327,-5.79 -14.661,-7.491l8.863 -8.677z"/>
      <path class="fil1" d="M699.569 182.543c-0.646,-0.189 -1.3,-0.374 -1.963,-0.556l8.157 -11.032 2.669 2.911 -8.863 8.677z"/>
      <path class="fil2" d="M697.606 181.987l-0.296 0.415 -2.385 -1.807 9.267 -12.625c0.906,-0.302 1.712,0.312 2.42,1.843l-0.849 1.142 -8.157 11.032z"/>
      <path class="fil3" d="M688.82 173.227c-0.334,-2.156 0.15,-4.099 1.453,-5.827l0.037 -0.034c0.245,-0.323 0.502,-0.61 0.769,-0.861 2.384,-2.379 6.756,-1.891 13.113,1.465l-9.267 12.625 -2.94 -2.177c-1.753,-1.28 -2.807,-3.011 -3.165,-5.191z"/>
     </g>
    </g>
   </g>
  </g>
  <g id="handRight_FL">
   <g>
    <g id="_1021956048">
     <g>
      <g>
       <path class="fil4" d="M707.325 192.538l-0.041 -0.028c-3.56,0.089 -4.911,-2.615 -4.055,-8.11 0.301,2.174 1.483,4.682 3.545,7.524l0.551 0.614 0 0zm5.803 -12.07c0.211,0.223 0.046,0.675 -0.494,1.356 -0.522,0.653 -1.266,1.337 -2.232,2.052 -0.984,0.743 -1.889,1.278 -2.714,1.606 -0.797,0.346 -1.301,0.407 -1.512,0.184 -0.203,-0.177 -0.034,-0.605 0.507,-1.286 0.53,-0.607 1.274,-1.291 2.231,-2.052 0.966,-0.715 1.848,-1.246 2.645,-1.593 0.816,-0.373 1.339,-0.463 1.569,-0.267z"/>
      </g>
      <g>
       <path class="fil0" d="M707.284 192.51l0.041 0.028 -0.551 -0.614c-2.062,-2.842 -3.244,-5.35 -3.545,-7.524l7.516 -6.568c0.613,-0.551 1.178,-0.552 1.692,-0.003l0.372 0.432c5.675,6.007 6.728,10.581 3.159,13.721 -1.246,1.129 -2.662,2.123 -4.248,2.982 -1.039,0.585 -1.834,0.571 -2.385,-0.043l-0.179 -0.181c-0.652,-0.762 -1.276,-1.505 -1.872,-2.23l0 0zm5.35 -10.686c0.54,-0.681 0.705,-1.133 0.494,-1.356 -0.23,-0.196 -0.753,-0.106 -1.569,0.267 -0.797,0.347 -1.679,0.878 -2.645,1.593 -0.957,0.761 -1.701,1.445 -2.231,2.052 -0.541,0.681 -0.71,1.109 -0.507,1.286 0.211,0.223 0.715,0.162 1.512,-0.184 0.825,-0.328 1.73,-0.863 2.714,-1.606 0.966,-0.715 1.71,-1.399 2.232,-2.052z"/>
      </g>
     </g>
    </g>
   </g>
  </g>
  <g id="armRight_FL_FL_FL_FL_FL">
   <g>
    <g>
     <g>
      <path class="fil0" d="M629.968 62.317l6.145 -11.115c-0.894,-2.272 -2.356,-4.262 -4.384,-5.969 -3.524,4.259 -7.671,7.854 -12.442,10.782l10.681 6.302z"/>
      <path class="fil1" d="M619.287 56.015c-0.582,0.338 -1.173,0.674 -1.774,1.009l10.56 8.76 1.895 -3.467 -10.681 -6.302z"/>
      <path class="fil2" d="M617.513 57.024l-0.387 -0.332 -1.883 2.325 12.02 10.04c0.951,0.077 1.587,-0.713 1.908,-2.369l-1.098 -0.904 -10.56 -8.76z"/>
      <path class="fil3" d="M611.08 67.632c0.191,2.174 1.126,3.944 2.805,5.31l0.044 0.025c0.316,0.254 0.633,0.471 0.953,0.651 2.884,1.739 7.011,0.219 12.381,-4.561l-12.02 -10.04 -2.333 2.818c-1.395,1.662 -2.005,3.595 -1.83,5.797z"/>
     </g>
    </g>
   </g>
  </g>
  <g id="handRight_FL_FL">
   <g>
    <g>
     <g>
      <g>
       <path class="fil4" d="M624.741 41.612l-0.024 0.044c-3.224,1.512 -3.224,4.535 0.001,9.067 -0.704,-2.08 -0.769,-4.852 -0.195,-8.316l0.218 -0.795 0 0zm10.588 8.201c0.09,-0.294 -0.26,-0.625 -1.048,-0.992 -0.759,-0.351 -1.73,-0.63 -2.914,-0.838 -1.213,-0.224 -2.261,-0.298 -3.145,-0.222 -0.868,0.047 -1.347,0.218 -1.436,0.512 -0.102,0.248 0.241,0.556 1.029,0.923 0.746,0.306 1.717,0.585 2.914,0.838 1.184,0.208 2.209,0.288 3.078,0.241 0.897,-0.03 1.404,-0.184 1.522,-0.462z"/>
      </g>
      <g>
       <path class="fil0" d="M624.717 41.656l0.024 -0.044 -0.218 0.795c-0.574,3.464 -0.509,6.236 0.195,8.316l9.659 2.513c0.795,0.219 1.3,-0.033 1.515,-0.753l0.139 -0.553c2.39,-7.912 1.286,-12.474 -3.31,-13.686 -1.62,-0.452 -3.331,-0.709 -5.134,-0.768 -1.191,-0.058 -1.896,0.31 -2.114,1.105l-0.079 0.242c-0.242,0.974 -0.468,1.918 -0.677,2.833l0 0zm9.564 7.165c0.788,0.367 1.138,0.698 1.048,0.992 -0.118,0.278 -0.625,0.432 -1.522,0.462 -0.869,0.047 -1.894,-0.033 -3.078,-0.241 -1.197,-0.253 -2.168,-0.532 -2.914,-0.838 -0.788,-0.367 -1.131,-0.675 -1.029,-0.923 0.089,-0.294 0.568,-0.465 1.436,-0.512 0.884,-0.076 1.932,-0.002 3.145,0.222 1.184,0.208 2.155,0.487 2.914,0.838z"/>
      </g>
     </g>
    </g>
   </g>
  </g>
  <g id="armRight_FL_FL_FL_FL_FL_FL">
   <g>
    <g>
     <g>
      <path class="fil0" d="M710.468 63.317l6.145 -11.114c-0.894,-2.273 -2.356,-4.263 -4.384,-5.97 -3.524,4.259 -7.671,7.853 -12.442,10.782l10.681 6.302z"/>
      <path class="fil1" d="M699.787 57.015c-0.582,0.338 -1.173,0.674 -1.774,1.009l10.561 8.76 1.894 -3.467 -10.681 -6.302z"/>
      <path class="fil2" d="M698.013 58.024l-0.386 -0.332 -1.884 2.325 12.02 10.04c0.951,0.077 1.587,-0.713 1.908,-2.369l-1.097 -0.904 -10.561 -8.76z"/>
      <path class="fil3" d="M691.58 68.632c0.191,2.174 1.126,3.944 2.805,5.31l0.044 0.025c0.316,0.254 0.633,0.471 0.953,0.651 2.884,1.739 7.011,0.219 12.381,-4.561l-12.02 -10.04 -2.332 2.818c-1.396,1.662 -2.006,3.594 -1.831,5.797z"/>
     </g>
    </g>
   </g>
  </g>
  <g id="handRight_FL_FL_FL">
   <g>
    <g>
     <g>
      <g>
       <path class="fil4" d="M705.191 43.062l-0.024 0.044c-3.224,1.512 -3.224,4.535 0.001,9.067 -0.704,-2.08 -0.769,-4.851 -0.195,-8.316l0.218 -0.795 0 0zm10.588 8.201c0.09,-0.294 -0.26,-0.625 -1.048,-0.992 -0.759,-0.351 -1.73,-0.63 -2.914,-0.838 -1.213,-0.223 -2.261,-0.298 -3.145,-0.222 -0.868,0.047 -1.347,0.217 -1.436,0.511 -0.102,0.249 0.241,0.557 1.029,0.924 0.746,0.306 1.718,0.585 2.914,0.838 1.184,0.208 2.21,0.288 3.078,0.241 0.897,-0.03 1.404,-0.184 1.522,-0.462z"/>
      </g>
      <g>
       <path class="fil0" d="M705.167 43.106l0.024 -0.044 -0.218 0.795c-0.574,3.465 -0.509,6.236 0.195,8.316l9.659 2.513c0.795,0.218 1.3,-0.033 1.515,-0.754l0.139 -0.552c2.39,-7.912 1.286,-12.474 -3.31,-13.685 -1.62,-0.454 -3.331,-0.71 -5.134,-0.768 -1.191,-0.059 -1.896,0.309 -2.114,1.104l-0.079 0.243c-0.242,0.973 -0.468,1.917 -0.677,2.832l0 0zm9.564 7.165c0.788,0.367 1.138,0.698 1.048,0.992 -0.118,0.278 -0.625,0.432 -1.522,0.462 -0.868,0.047 -1.894,-0.033 -3.078,-0.241 -1.196,-0.253 -2.168,-0.532 -2.914,-0.838 -0.788,-0.367 -1.131,-0.675 -1.029,-0.924 0.089,-0.294 0.568,-0.464 1.436,-0.511 0.884,-0.076 1.933,-0.001 3.145,0.222 1.184,0.208 2.155,0.487 2.914,0.838z"/>
      </g>
     </g>
    </g>
   </g>
  </g>
  <g id="armRight_FL_FL_FL_FL_FL_FL_FL">
   <g>
    <g>
     <g>
      <path class="fil0" d="M389.585 65.922l7.196 10.466c-0.67,2.348 -1.931,4.471 -3.785,6.367 -3.92,-3.897 -8.397,-7.071 -13.43,-9.522l10.019 -7.311z"/>
      <path class="fil1" d="M379.566 73.233c-0.612,-0.28 -1.233,-0.558 -1.863,-0.833l9.659 -9.743 2.223 3.265 -10.019 7.311z"/>
      <path class="fil2" d="M377.703 72.4l-0.353 0.369 -2.1 -2.131 10.988 -11.161c0.939,-0.169 1.649,0.556 2.128,2.172l-1.004 1.008 -9.659 9.743z"/>
      <path class="fil3" d="M370.269 62.468c-0.021,-2.182 0.738,-4.035 2.276,-5.558l0.041 -0.028c0.29,-0.284 0.585,-0.531 0.885,-0.741 2.702,-2.011 6.957,-0.899 12.767,3.336l-10.988 11.161 -2.596 -2.578c-1.55,-1.519 -2.345,-3.383 -2.385,-5.592z"/>
     </g>
    </g>
   </g>
  </g>
  <g id="handRight_FL_FL_FL_FL">
   <g>
    <g>
     <g>
      <g>
       <path class="fil4" d="M387.701 86.964l-0.035 -0.036c-3.512,-0.589 -4.325,-3.5 -2.439,-8.733 -0.118,2.193 0.565,4.879 2.05,8.061l0.424 0.708 0 0zm7.991 -10.748c0.165,0.259 -0.083,0.672 -0.743,1.237 -0.636,0.542 -1.496,1.073 -2.581,1.591 -1.107,0.542 -2.097,0.896 -2.969,1.061 -0.849,0.188 -1.356,0.153 -1.521,-0.106 -0.165,-0.212 0.083,-0.602 0.743,-1.167 0.636,-0.495 1.497,-1.025 2.581,-1.591 1.084,-0.518 2.05,-0.872 2.899,-1.06 0.872,-0.212 1.402,-0.201 1.591,0.035z"/>
      </g>
      <g>
       <path class="fil0" d="M387.666 86.928l0.035 0.036 -0.424 -0.708c-1.485,-3.182 -2.168,-5.869 -2.05,-8.061l8.627 -5.02c0.707,-0.424 1.26,-0.318 1.661,0.318l0.283 0.495c4.431,6.978 4.596,11.668 0.495,14.072 -1.438,0.872 -3.018,1.579 -4.738,2.121 -1.132,0.377 -1.909,0.212 -2.334,-0.495l-0.141 -0.212c-0.495,-0.872 -0.966,-1.721 -1.414,-2.546l0 0zm7.283 -9.475c0.66,-0.566 0.908,-0.978 0.743,-1.237 -0.189,-0.236 -0.719,-0.248 -1.591,-0.035 -0.849,0.188 -1.815,0.542 -2.899,1.06 -1.084,0.566 -1.945,1.096 -2.581,1.591 -0.66,0.566 -0.908,0.954 -0.743,1.167 0.165,0.259 0.672,0.294 1.521,0.106 0.872,-0.165 1.862,-0.519 2.969,-1.061 1.085,-0.519 1.945,-1.049 2.581,-1.591z"/>
      </g>
     </g>
    </g>
   </g>
  </g>
  <g id="armRight_FL_FL_FL_FL_FL_FL_FL_FL">
   <g>
    <g>
     <g>
      <path class="fil0" d="M233.019 71.802l6.264 11.048c-0.871,2.282 -2.311,4.287 -4.321,6.016 -3.569,-4.222 -7.754,-7.771 -12.556,-10.648l10.613 -6.416z"/>
      <path class="fil1" d="M222.406 78.218c-0.586,-0.332 -1.181,-0.662 -1.785,-0.99l10.467 -8.872 1.931 3.446 -10.613 6.416z"/>
      <path class="fil2" d="M220.621 77.228l-0.382 0.336 -1.908 -2.304 11.911 -10.169c0.951,-0.087 1.595,0.696 1.933,2.348l-1.087 0.917 -10.467 8.872z"/>
      <path class="fil3" d="M214.075 66.689c0.168,-2.175 1.084,-3.956 2.748,-5.34l0.044 -0.025c0.313,-0.257 0.628,-0.478 0.946,-0.661 2.866,-1.77 7.009,-0.294 12.429,4.428l-11.911 10.169 -2.363 -2.793c-1.413,-1.648 -2.044,-3.574 -1.893,-5.778z"/>
     </g>
    </g>
   </g>
  </g>
  <g id="handRight_FL_FL_FL_FL_FL">
   <g>
    <g>
     <g>
      <g>
       <path class="fil4" d="M225.852 90.006l-0.013 -0.049c-2.747,-2.266 -1.995,-5.193 2.254,-8.782 -1.198,1.839 -1.95,4.508 -2.255,8.006l0.014 0.825 0 0zm12.294 -5.313c0.013,0.307 -0.407,0.54 -1.262,0.7 -0.822,0.151 -1.832,0.181 -3.031,0.088 -1.23,-0.085 -2.264,-0.274 -3.102,-0.567 -0.829,-0.261 -1.25,-0.545 -1.264,-0.852 -0.036,-0.266 0.372,-0.479 1.227,-0.639 0.799,-0.11 1.809,-0.14 3.031,-0.087 1.198,0.093 2.212,0.27 3.041,0.531 0.861,0.252 1.314,0.527 1.36,0.826z"/>
      </g>
      <g>
       <path class="fil0" d="M225.839 89.957l0.013 0.049 -0.014 -0.825c0.305,-3.498 1.057,-6.167 2.255,-8.006l9.981 -0.035c0.825,-0.013 1.251,0.355 1.28,1.107l-0.003 0.57c0.35,8.258 -1.853,12.402 -6.607,12.434 -1.681,0.036 -3.402,-0.141 -5.163,-0.532 -1.169,-0.239 -1.76,-0.771 -1.774,-1.596l-0.016 -0.254c0.007,-1.003 0.023,-1.974 0.048,-2.912l0 0zm11.045 -4.564c0.855,-0.16 1.275,-0.393 1.262,-0.7 -0.046,-0.299 -0.499,-0.574 -1.36,-0.826 -0.829,-0.261 -1.843,-0.438 -3.041,-0.531 -1.222,-0.053 -2.232,-0.023 -3.031,0.087 -0.855,0.16 -1.263,0.373 -1.227,0.639 0.014,0.307 0.435,0.591 1.264,0.852 0.838,0.293 1.872,0.482 3.102,0.567 1.199,0.093 2.209,0.063 3.031,-0.088z"/>
      </g>
     </g>
    </g>
   </g>
  </g>
  <g id="armLeft_FL_FL_FL_FL_FL_FL">
   <g>
    <g>
     <g>
      <path class="fil0" d="M536.518 41.058l5.307 -14.778c2.274,-0.852 4.64,-0.914 7.099,-0.186 -1.387,6.842 -1.909,13.799 -1.564,20.872l-10.842 -5.908z"/>
      <path class="fil1" d="M547.36 46.966c0.057,0.848 0.12,1.704 0.19,2.568l-12.699 -3.889 1.667 -4.587 10.842 5.908z"/>
      <path class="fil2" d="M547.55 49.534l0.474 0.133 -0.78 3.694 -14.508 -4.372c-0.586,-0.9 -0.319,-2.151 0.8,-3.753l1.315 0.409 12.699 3.889z"/>
      <path class="fil3" d="M542.8 64.211c-1.808,1.485 -3.711,1.909 -5.709,1.27l-0.044 -0.025c-0.374,-0.122 -0.719,-0.275 -1.037,-0.458 -2.957,-1.567 -4.048,-6.903 -3.274,-16.009l14.508 4.372 -0.916 4.529c-0.531,2.69 -1.707,4.797 -3.528,6.321z"/>
     </g>
    </g>
   </g>
  </g>
  <g id="handLeft_FL_FL_FL_FL_FL_FL">
   <g>
    <g>
     <g>
      <g>
       <path class="fil4" d="M535.752 23.294l-0.012 0.048c-2.747,2.267 -1.996,5.194 2.253,8.783 -1.198,-1.84 -1.95,-4.508 -2.255,-8.006l0.014 -0.825 0 0zm12.294 5.313c0.013,-0.307 -0.407,-0.541 -1.262,-0.701 -0.822,-0.151 -1.832,-0.18 -3.03,-0.087 -1.231,0.085 -2.265,0.273 -3.103,0.566 -0.829,0.261 -1.25,0.545 -1.263,0.852 -0.037,0.266 0.372,0.48 1.226,0.639 0.799,0.111 1.809,0.14 3.031,0.088 1.198,-0.093 2.212,-0.27 3.041,-0.531 0.861,-0.253 1.315,-0.528 1.36,-0.826z"/>
      </g>
      <g>
       <path class="fil0" d="M535.74 23.342l0.012 -0.048 -0.014 0.825c0.305,3.498 1.057,6.166 2.255,8.006l9.981 0.034c0.825,0.014 1.251,-0.355 1.28,-1.106l-0.002 -0.57c0.349,-8.258 -1.854,-12.402 -6.608,-12.433 -1.681,-0.037 -3.402,0.14 -5.163,0.531 -1.168,0.239 -1.76,0.771 -1.773,1.596l-0.017 0.254c0.008,1.003 0.024,1.973 0.049,2.911l0 0zm11.044 4.564c0.855,0.16 1.275,0.394 1.262,0.701 -0.045,0.298 -0.499,0.573 -1.36,0.826 -0.829,0.261 -1.843,0.438 -3.041,0.531 -1.222,0.052 -2.232,0.023 -3.031,-0.088 -0.854,-0.159 -1.263,-0.372 -1.226,-0.639 0.013,-0.307 0.435,-0.591 1.263,-0.852 0.838,-0.293 1.872,-0.481 3.103,-0.566 1.198,-0.093 2.208,-0.064 3.03,0.087z"/>
      </g>
     </g>
    </g>
   </g>
  </g>
  <g id="armRight_FL_FL_FL_FL_FL_FL_FL_FL_FL_FL">
   <g>
    <g>
     <g>
      <path class="fil0" d="M465.731 293.939l3.542 10.692c-1.338,2.053 -3.16,3.808 -5.466,5.265 -2.477,-4.17 -5.693,-7.762 -9.648,-10.775l11.572 -5.182z"/>
      <path class="fil1" d="M454.159 299.121c-0.487,-0.35 -0.983,-0.699 -1.487,-1.047l11.976 -7.468 1.083 3.333 -11.572 5.182z"/>
      <path class="fil2" d="M452.672 298.074l-0.441 0.284 -1.314 -2.273 13.646 -8.566c0.928,-0.012 1.37,0.76 1.328,2.316l-1.243 0.771 -11.976 7.468z"/>
      <path class="fil3" d="M448.746 287.834c0.643,-2.004 1.914,-3.588 3.812,-4.751l0.047 -0.02c0.357,-0.216 0.707,-0.398 1.052,-0.545 3.133,-1.433 6.768,0.233 10.906,5.001l-13.646 8.566 -1.641 -2.759c-0.987,-1.629 -1.163,-3.459 -0.53,-5.492z"/>
     </g>
    </g>
   </g>
  </g>
  <g id="handRight_FL_FL_FL_FL_FL_FL_FL">
   <g>
    <g>
     <g>
      <g>
       <path class="fil4" d="M455.076 313.306l-0.008 -0.049c-2.556,-2.266 -1.558,-5.193 2.994,-8.782 -1.353,1.839 -2.33,4.508 -2.93,8.006l-0.056 0.825 0 0zm12.742 -5.313c-0.013,0.307 -0.453,0.541 -1.321,0.701 -0.835,0.151 -1.847,0.18 -3.038,0.087 -1.223,-0.085 -2.241,-0.273 -3.054,-0.567 -0.807,-0.26 -1.204,-0.545 -1.192,-0.852 -0.014,-0.266 0.413,-0.479 1.281,-0.639 0.808,-0.11 1.82,-0.139 3.038,-0.087 1.19,0.093 2.189,0.27 2.996,0.531 0.84,0.253 1.27,0.528 1.29,0.826z"/>
      </g>
      <g>
       <path class="fil0" d="M455.068 313.257l0.008 0.049 0.056 -0.825c0.6,-3.498 1.577,-6.167 2.93,-8.006l9.984 -0.034c0.826,-0.014 1.221,0.355 1.187,1.106l-0.051 0.57c-0.347,8.258 -2.899,12.402 -7.656,12.434 -1.684,0.036 -3.39,-0.141 -5.118,-0.532 -1.149,-0.239 -1.695,-0.771 -1.639,-1.595l0.005 -0.255c0.092,-1.003 0.19,-1.973 0.294,-2.912l0 0zm11.429 -4.563c0.868,-0.16 1.308,-0.394 1.321,-0.701 -0.02,-0.298 -0.45,-0.574 -1.29,-0.826 -0.807,-0.261 -1.806,-0.438 -2.996,-0.531 -1.218,-0.052 -2.23,-0.023 -3.038,0.087 -0.868,0.16 -1.295,0.373 -1.281,0.639 -0.012,0.307 0.385,0.592 1.192,0.852 0.813,0.294 1.831,0.482 3.054,0.567 1.191,0.093 2.203,0.064 3.038,-0.087z"/>
      </g>
     </g>
    </g>
   </g>
  </g>
  <g id="handRight_FL_FL_FL_FL_FL_FL_FL_FL">
   <g>
    <g>
     <g>
      <g>
       <path class="fil4" d="M70.04 298.659l-0.043 -0.025c-1.478,-3.24 -4.5,-3.272 -9.066,-0.097 2.086,-0.681 4.859,-0.716 8.316,-0.105l0.793 0.227 0 0zm-8.313 10.499c0.293,0.092 0.627,-0.253 1.003,-1.037 0.359,-0.755 0.648,-1.723 0.869,-2.905 0.237,-1.21 0.322,-2.258 0.255,-3.143 -0.037,-0.869 -0.203,-1.349 -0.495,-1.441 -0.248,-0.104 -0.56,0.235 -0.935,1.019 -0.313,0.743 -0.603,1.711 -0.869,2.905 -0.22,1.181 -0.311,2.206 -0.274,3.074 0.021,0.898 0.169,1.407 0.446,1.528z"/>
      </g>
      <g>
       <path class="fil0" d="M69.997 298.634l0.043 0.025 -0.793 -0.227c-3.457,-0.611 -6.23,-0.576 -8.316,0.105l-2.617 9.632c-0.227,0.793 0.019,1.301 0.737,1.523l0.552 0.145c7.885,2.475 12.459,1.42 13.72,-3.164 0.47,-1.614 0.744,-3.323 0.822,-5.125 0.072,-1.19 -0.289,-1.899 -1.082,-2.126l-0.241 -0.081c-0.971,-0.253 -1.912,-0.489 -2.825,-0.707l0 0zm-7.267 9.487c-0.376,0.784 -0.71,1.129 -1.003,1.037 -0.277,-0.121 -0.425,-0.63 -0.446,-1.528 -0.037,-0.868 0.054,-1.893 0.274,-3.074 0.266,-1.194 0.555,-2.162 0.869,-2.905 0.375,-0.784 0.687,-1.123 0.935,-1.019 0.293,0.092 0.458,0.572 0.495,1.441 0.067,0.885 -0.018,1.933 -0.255,3.143 -0.221,1.182 -0.51,2.15 -0.869,2.905z"/>
      </g>
     </g>
    </g>
   </g>
  </g>
  <g id="armRight_FL_FL_FL_FL_FL_FL_FL_FL_FL_FL_FL">
   <g>
    <g>
     <g>
      <path class="fil0" d="M67.962 76.15l2.87 11.096c-1.47,1.834 -3.406,3.303 -5.808,4.405 -2.217,-4.489 -5.211,-8.513 -8.981,-12.074l11.919 -3.427z"/>
      <path class="fil1" d="M56.043 79.577c-0.465,-0.418 -0.939,-0.836 -1.423,-1.254l12.468 -5.629 0.874 3.456 -11.919 3.427z"/>
      <path class="fil2" d="M54.62 78.323l-0.459 0.216 -1.172 -2.442 14.21 -6.469c0.93,0.124 1.325,0.952 1.183,2.485l-1.294 0.581 -12.468 5.629z"/>
      <path class="fil3" d="M51.338 67.618c0.771,-1.889 2.144,-3.269 4.119,-4.14l0.048 -0.013c0.371,-0.162 0.734,-0.29 1.088,-0.385 3.228,-0.958 6.764,1.224 10.606,6.548l-14.21 6.469 -1.469 -2.969c-0.884,-1.756 -0.945,-3.593 -0.182,-5.51z"/>
     </g>
    </g>
   </g>
  </g>
  <g id="handRight_FL_FL_FL_FL_FL_FL_FL_FL_FL">
   <g>
    <g>
     <g>
      <g>
       <path class="fil4" d="M57.702 94.806l-0.013 -0.049c-2.747,-2.266 -1.996,-5.193 2.254,-8.782 -1.198,1.839 -1.95,4.508 -2.255,8.006l0.014 0.825 0 0zm12.293 -5.313c0.014,0.307 -0.407,0.54 -1.261,0.7 -0.822,0.151 -1.833,0.181 -3.031,0.088 -1.23,-0.085 -2.264,-0.274 -3.102,-0.567 -0.829,-0.261 -1.251,-0.545 -1.264,-0.852 -0.036,-0.266 0.372,-0.479 1.227,-0.639 0.798,-0.11 1.809,-0.14 3.031,-0.087 1.198,0.093 2.211,0.27 3.041,0.531 0.861,0.252 1.314,0.527 1.359,0.826z"/>
      </g>
      <g>
       <path class="fil0" d="M57.689 94.757l0.013 0.049 -0.014 -0.825c0.305,-3.498 1.057,-6.167 2.255,-8.006l9.981 -0.035c0.824,-0.013 1.251,0.355 1.28,1.107l-0.003 0.57c0.349,8.258 -1.853,12.402 -6.607,12.434 -1.681,0.036 -3.403,-0.141 -5.164,-0.532 -1.168,-0.239 -1.759,-0.771 -1.773,-1.595l-0.016 -0.255c0.007,-1.003 0.023,-1.974 0.048,-2.912l0 0zm11.045 -4.564c0.854,-0.16 1.275,-0.393 1.261,-0.7 -0.045,-0.299 -0.498,-0.574 -1.359,-0.826 -0.83,-0.261 -1.843,-0.438 -3.041,-0.531 -1.222,-0.053 -2.233,-0.023 -3.031,0.087 -0.855,0.16 -1.263,0.373 -1.227,0.639 0.013,0.307 0.435,0.591 1.264,0.852 0.838,0.293 1.872,0.482 3.102,0.567 1.198,0.093 2.209,0.063 3.031,-0.088z"/>
      </g>
     </g>
    </g>
   </g>
  </g>
  <g id="armRight_FL_FL_FL_FL_FL_FL_FL_FL_FL_FL_FL_FL">
   <g>
    <g>
     <g>
      <path class="fil0" d="M139.171 50.692l7.951 -9.848c2.422,-0.018 4.793,0.596 7.114,1.841 -2.615,4.858 -4.387,10.047 -5.316,15.566l-9.749 -7.559z"/>
      <path class="fil1" d="M148.92 58.251c-0.095,0.666 -0.186,1.34 -0.273,2.022l-11.963 -6.53 2.487 -3.051 9.749 7.559z"/>
      <path class="fil2" d="M148.647 60.273l0.449 0.235 -1.441 2.615 -13.682 -7.406c-0.423,-0.854 0.068,-1.739 1.473,-2.654l1.238 0.68 11.963 6.53z"/>
      <path class="fil3" d="M141.269 70.2c-2.07,0.633 -4.044,0.426 -5.921,-0.622l-0.039 -0.031c-0.351,-0.198 -0.668,-0.412 -0.952,-0.641 -2.667,-2.027 -2.795,-6.424 -0.384,-13.189l13.682 7.406 -1.73 3.215c-1.013,1.915 -2.565,3.203 -4.656,3.862z"/>
     </g>
    </g>
   </g>
  </g>
  <g id="handRight_FL_FL_FL_FL_FL_FL_FL_FL_FL_FL">
   <g>
    <g>
     <g>
      <g>
       <path class="fil4" d="M142.172 33.76l-0.018 0.046c-2.978,1.913 -2.594,4.91 1.151,8.992 -0.956,-1.972 -1.371,-4.712 -1.246,-8.222l0.113 -0.816 0 0zm11.452 6.778c0.05,-0.303 -0.335,-0.586 -1.157,-0.85 -0.79,-0.25 -1.781,-0.403 -2.971,-0.457 -1.221,-0.067 -2.261,-0.007 -3.121,0.182 -0.848,0.157 -1.297,0.388 -1.347,0.691 -0.069,0.26 0.308,0.521 1.129,0.784 0.772,0.208 1.763,0.36 2.971,0.458 1.191,0.055 2.21,0.003 3.057,-0.154 0.878,-0.146 1.358,-0.363 1.439,-0.654z"/>
      </g>
      <g>
       <path class="fil0" d="M142.154 33.806l0.018 -0.046 -0.113 0.816c-0.125,3.51 0.29,6.25 1.246,8.222l9.817 1.257c0.809,0.115 1.274,-0.199 1.394,-0.941l0.066 -0.566c1.346,-8.153 -0.317,-12.536 -4.991,-13.149 -1.65,-0.242 -3.365,-0.277 -5.145,-0.105 -1.179,0.094 -1.825,0.55 -1.939,1.366l-0.047 0.251c-0.115,0.996 -0.217,1.961 -0.306,2.895l0 0zm10.313 5.882c0.822,0.264 1.207,0.547 1.157,0.85 -0.081,0.291 -0.561,0.508 -1.439,0.654 -0.847,0.157 -1.866,0.209 -3.057,0.154 -1.208,-0.098 -2.199,-0.25 -2.971,-0.458 -0.821,-0.263 -1.198,-0.524 -1.129,-0.784 0.05,-0.303 0.499,-0.534 1.347,-0.691 0.86,-0.188 1.9,-0.249 3.121,-0.182 1.19,0.054 2.181,0.207 2.971,0.457z"/>
      </g>
     </g>
    </g>
   </g>
  </g>
  <g id="armRight_FL_FL_FL_FL_FL_FL_FL_FL_FL_FL_FL_FL_FL">
   <g>
    <g>
     <g>
      <path class="fil0" d="M308.722 81.515l3.19 12.294c-1.431,1.979 -3.342,3.543 -5.731,4.693 -2.355,-5.002 -5.478,-9.514 -9.372,-13.536l11.913 -3.451z"/>
      <path class="fil1" d="M296.809 84.966c-0.48,-0.472 -0.969,-0.945 -1.467,-1.418l12.406 -5.861 0.974 3.828 -11.913 3.451z"/>
      <path class="fil2" d="M295.342 83.548l-0.457 0.226 -1.247 -2.72 14.138 -6.739c0.941,0.162 1.36,1.085 1.259,2.768l-1.287 0.604 -12.406 5.861z"/>
      <path class="fil3" d="M291.746 71.674c0.725,-2.058 2.071,-3.54 4.037,-4.447l0.048 -0.013c0.369,-0.167 0.731,-0.299 1.085,-0.394 3.226,-0.968 6.846,1.531 10.86,7.495l-14.138 6.739 -1.56 -3.31c-0.938,-1.957 -1.049,-3.98 -0.332,-6.07z"/>
     </g>
    </g>
   </g>
  </g>
  <g id="handRight_FL_FL_FL_FL_FL_FL_FL_FL_FL_FL_FL">
   <g>
    <g>
     <g>
      <g>
       <path class="fil4" d="M297.546 93.366l0.012 -0.049c-1.245,-3.335 0.869,-5.495 6.343,-6.478 -1.957,0.994 -3.942,2.929 -5.955,5.806l-0.4 0.721 0 0zm13.303 1.545c-0.142,0.273 -0.623,0.265 -1.443,-0.024 -0.788,-0.28 -1.677,-0.76 -2.669,-1.44 -1.023,-0.688 -1.824,-1.368 -2.403,-2.041 -0.588,-0.641 -0.81,-1.097 -0.668,-1.37 0.101,-0.249 0.561,-0.229 1.381,0.06 0.747,0.304 1.637,0.784 2.668,1.439 0.992,0.68 1.781,1.34 2.369,1.981 0.62,0.649 0.875,1.114 0.765,1.395z"/>
      </g>
      <g>
       <path class="fil0" d="M297.558 93.317l-0.012 0.049 0.4 -0.721c2.013,-2.877 3.998,-4.813 5.955,-5.806l8.662 4.96c0.72,0.4 0.906,0.933 0.555,1.598l-0.287 0.493c-3.827,7.325 -7.806,9.814 -11.939,7.464 -1.474,-0.809 -2.876,-1.823 -4.206,-3.042 -0.892,-0.791 -1.138,-1.547 -0.738,-2.268l0.113 -0.229c0.508,-0.865 1.007,-1.697 1.497,-2.498l0 0zm11.848 1.57c0.819,0.289 1.301,0.297 1.443,0.024 0.11,-0.281 -0.145,-0.746 -0.765,-1.395 -0.588,-0.641 -1.377,-1.301 -2.369,-1.981 -1.031,-0.656 -1.921,-1.135 -2.668,-1.439 -0.82,-0.289 -1.28,-0.309 -1.381,-0.06 -0.142,0.273 0.08,0.729 0.668,1.37 0.579,0.673 1.38,1.353 2.403,2.041 0.992,0.68 1.881,1.16 2.669,1.44z"/>
      </g>
     </g>
    </g>
   </g>
  </g>
  <g id="armRight_FL_FL_FL_FL_FL_FL_FL_FL_FL_FL_FL_FL_FL_FL">
   <g>
    <g>
     <g>
      <path class="fil0" d="M67.85 188.5l-0.1 12.7c-1.895,1.541 -4.145,2.558 -6.75,3.05 -0.98,-5.441 -2.83,-10.607 -5.55,-15.5l12.4 -0.25z"/>
      <path class="fil1" d="M55.45 188.75c-0.342,-0.58 -0.692,-1.164 -1.05,-1.75l13.5 -2.45 -0.05 3.95 -12.4 0.25z"/>
      <path class="fil2" d="M54.4 187l-0.5 0.1 -0.5 -2.95 15.4 -2.85c0.866,0.4 1.033,1.4 0.5,3l-1.4 0.25 -13.5 2.45z"/>
      <path class="fil3" d="M54 174.6c1.233,-1.8 2.916,-2.883 5.05,-3.25l0.05 0c0.4,-0.067 0.783,-0.1 1.15,-0.1 3.366,-0.1 6.216,3.25 8.55,10.05l-15.4 2.85 -0.65 -3.6c-0.4,-2.133 0.016,-4.117 1.25,-5.95z"/>
     </g>
    </g>
   </g>
  </g>
  <g id="handRight_FL_FL_FL_FL_FL_FL_FL_FL_FL_FL_FL_FL">
   <g>
    <g>
     <g>
      <g>
       <path class="fil4" d="M71.304 199.066l-0.013 -0.048c1.246,-3.337 -0.869,-5.496 -6.343,-6.48 1.957,0.994 3.943,2.93 5.956,5.807l0.4 0.721 0 0zm-13.303 1.545c0.142,0.273 0.623,0.265 1.443,-0.024 0.788,-0.28 1.677,-0.759 2.668,-1.439 1.024,-0.689 1.825,-1.369 2.403,-2.042 0.588,-0.641 0.811,-1.097 0.669,-1.369 -0.101,-0.249 -0.562,-0.229 -1.382,0.059 -0.747,0.304 -1.636,0.783 -2.668,1.44 -0.991,0.68 -1.781,1.339 -2.368,1.98 -0.62,0.649 -0.875,1.115 -0.765,1.395z"/>
      </g>
      <g>
       <path class="fil0" d="M71.291 199.018l0.013 0.048 -0.4 -0.721c-2.013,-2.877 -3.999,-4.813 -5.956,-5.807l-8.661 4.961c-0.721,0.401 -0.906,0.933 -0.555,1.598l0.287 0.493c3.826,7.326 7.806,9.814 11.938,7.464 1.475,-0.809 2.877,-1.823 4.206,-3.042 0.893,-0.792 1.139,-1.547 0.738,-2.269l-0.113 -0.228c-0.507,-0.865 -1.006,-1.697 -1.497,-2.497l0 0zm-11.847 1.569c-0.82,0.289 -1.301,0.297 -1.443,0.024 -0.11,-0.281 0.145,-0.746 0.765,-1.395 0.587,-0.641 1.377,-1.3 2.368,-1.98 1.032,-0.657 1.921,-1.136 2.668,-1.44 0.82,-0.289 1.281,-0.308 1.382,-0.059 0.142,0.272 -0.081,0.729 -0.669,1.369 -0.578,0.673 -1.379,1.353 -2.403,2.042 -0.991,0.679 -1.88,1.159 -2.668,1.439z"/>
      </g>
     </g>
    </g>
   </g>
  </g>
  <g id="armRight_FL_FL_FL_FL_FL_FL_FL_FL_FL_FL_FL_FL_FL_FL_FL">
   <g>
    <g>
     <g>
      <path class="fil0" d="M141.986 190.657l-4.591 11.842c-2.317,0.77 -4.781,0.924 -7.392,0.462 1.01,-5.435 1.109,-10.922 0.298,-16.461l11.685 4.157z"/>
      <path class="fil1" d="M130.301 186.5c-0.114,-0.663 -0.235,-1.333 -0.363,-2.008l13.493 2.489 -1.445 3.676 -11.685 -4.157z"/>
      <path class="fil2" d="M129.938 184.492l-0.503 -0.084 0.577 -2.936 15.412 2.788c0.669,0.681 0.47,1.675 -0.595,2.983l-1.398 -0.262 -13.493 -2.489z"/>
      <path class="fil3" d="M133.955 172.754c1.791,-1.247 3.748,-1.664 5.874,-1.252l0.046 0.018c0.398,0.079 0.768,0.184 1.111,0.314 3.184,1.098 4.664,5.24 4.438,12.426l-15.412 -2.788 0.667 -3.596c0.382,-2.137 1.473,-3.844 3.276,-5.122z"/>
     </g>
    </g>
   </g>
  </g>
  <g id="handRight_FL_FL_FL_FL_FL_FL_FL_FL_FL_FL_FL_FL_FL">
   <g>
    <g>
     <g>
      <g>
       <path class="fil4" d="M140.479 202.765l0.005 -0.05c2.346,-2.679 1.134,-5.447 -3.638,-8.305 1.479,1.623 2.65,4.136 3.514,7.539l0.119 0.816 0 0zm-12.989 -3.265c0.037,0.306 0.489,0.468 1.358,0.489 0.836,0.017 1.838,-0.117 3.006,-0.402 1.201,-0.281 2.191,-0.634 2.97,-1.058 0.777,-0.391 1.147,-0.739 1.11,-1.045 -0.006,-0.268 -0.444,-0.413 -1.313,-0.433 -0.806,0.019 -1.808,0.153 -3.005,0.402 -1.168,0.284 -2.14,0.622 -2.916,1.013 -0.809,0.388 -1.213,0.733 -1.21,1.034z"/>
      </g>
      <g>
       <path class="fil0" d="M140.484 202.715l-0.005 0.05 -0.119 -0.816c-0.864,-3.403 -2.035,-5.916 -3.514,-7.539l-9.856 1.573c-0.816,0.119 -1.178,0.552 -1.085,1.298l0.094 0.562c0.984,8.206 3.825,11.942 8.522,11.208 1.665,-0.235 3.335,-0.687 5.011,-1.356 1.114,-0.424 1.612,-1.044 1.493,-1.86l-0.025 -0.254c-0.169,-0.988 -0.341,-1.944 -0.516,-2.866l0 0zm-11.636 -2.726c-0.869,-0.021 -1.321,-0.183 -1.358,-0.489 -0.003,-0.301 0.401,-0.646 1.21,-1.034 0.776,-0.391 1.748,-0.729 2.916,-1.013 1.197,-0.249 2.199,-0.383 3.005,-0.402 0.869,0.02 1.307,0.165 1.313,0.433 0.037,0.306 -0.333,0.654 -1.11,1.045 -0.78,0.424 -1.769,0.777 -2.97,1.058 -1.168,0.285 -2.17,0.419 -3.006,0.402z"/>
      </g>
     </g>
    </g>
   </g>
  </g>
  <g id="handRight_FL_FL_FL_FL_FL_FL_FL_FL_FL_FL_FL_FL_FL_FL">
   <g>
    <g>
     <g>
      <g>
       <path class="fil4" d="M231.306 171.602l-0.049 -0.013c-2.266,-2.747 -5.193,-1.995 -8.782,2.254 1.839,-1.198 4.508,-1.95 8.006,-2.255l0.825 0.014 0 0zm-5.313 12.294c0.307,0.013 0.54,-0.408 0.7,-1.262 0.151,-0.822 0.181,-1.832 0.088,-3.031 -0.085,-1.23 -0.274,-2.264 -0.567,-3.102 -0.261,-0.829 -0.545,-1.25 -0.852,-1.263 -0.266,-0.037 -0.479,0.372 -0.639,1.226 -0.11,0.799 -0.139,1.809 -0.087,3.03 0.093,1.199 0.27,2.213 0.531,3.041 0.252,0.862 0.527,1.315 0.826,1.361z"/>
      </g>
      <g>
       <path class="fil0" d="M231.257 171.589l0.049 0.013 -0.825 -0.014c-3.498,0.305 -6.167,1.057 -8.006,2.255l-0.035 9.981c-0.013,0.824 0.355,1.251 1.107,1.28l0.57 -0.003c8.257,0.35 12.402,-1.853 12.433,-6.607 0.037,-1.681 -0.14,-3.402 -0.531,-5.163 -0.239,-1.168 -0.771,-1.76 -1.595,-1.774l-0.255 -0.016c-1.003,0.007 -1.973,0.024 -2.912,0.048l0 0zm-4.564 11.045c-0.16,0.854 -0.393,1.275 -0.7,1.262 -0.299,-0.046 -0.574,-0.499 -0.826,-1.361 -0.261,-0.829 -0.438,-1.842 -0.531,-3.041 -0.052,-1.221 -0.023,-2.231 0.087,-3.03 0.16,-0.854 0.373,-1.263 0.639,-1.226 0.307,0.013 0.591,0.434 0.852,1.263 0.293,0.838 0.482,1.872 0.567,3.102 0.093,1.198 0.063,2.209 -0.088,3.031z"/>
      </g>
     </g>
    </g>
   </g>
  </g>
  <g id="armRight_FL_FL_FL_FL_FL_FL_FL_FL_FL_FL_FL_FL_FL_FL_FL_FL">
   <g>
    <g>
     <g>
      <path class="fil0" d="M365.474 156.927l9.358 -8.586c2.42,0.336 4.698,1.289 6.833,2.859 -3.312,4.426 -5.83,9.302 -7.554,14.627l-8.637 -8.9z"/>
      <path class="fil1" d="M374.111 165.827c-0.192,0.645 -0.38,1.299 -0.565,1.962l-10.996 -8.206 2.924 -2.656 8.637 8.9z"/>
      <path class="fil2" d="M373.546 167.789l0.414 0.297 -1.817 2.377 -12.584 -9.323c-0.298,-0.906 0.32,-1.71 1.854,-2.411l1.137 0.854 10.996 8.206z"/>
      <path class="fil3" d="M364.748 176.535c-2.158,0.325 -4.098,-0.168 -5.821,-1.478l-0.034 -0.037c-0.321,-0.247 -0.607,-0.505 -0.857,-0.773 -2.368,-2.395 -1.861,-6.763 1.523,-13.107l12.584 9.323 -2.19 2.93c-1.288,1.747 -3.023,2.794 -5.205,3.142z"/>
     </g>
    </g>
   </g>
  </g>
  <g id="handRight_FL_FL_FL_FL_FL_FL_FL_FL_FL_FL_FL_FL_FL_FL_FL">
   <g>
    <g>
     <g>
      <g>
       <path class="fil4" d="M386.614 153.476l-0.021 0.045c0.631,3.505 -1.834,5.253 -7.396,5.245 2.103,-0.629 4.401,-2.18 6.895,-4.652l0.522 -0.638 0 0zm-12.815 -3.891c0.189,-0.243 0.661,-0.149 1.416,0.281 0.725,0.416 1.515,1.047 2.369,1.892 0.884,0.859 1.551,1.672 2.001,2.437 0.464,0.735 0.602,1.224 0.414,1.467 -0.144,0.227 -0.594,0.125 -1.349,-0.305 -0.681,-0.432 -1.471,-1.063 -2.369,-1.892 -0.854,-0.846 -1.514,-1.636 -1.977,-2.371 -0.495,-0.749 -0.663,-1.252 -0.505,-1.509z"/>
      </g>
      <g>
       <path class="fil0" d="M386.593 153.521l0.021 -0.045 -0.522 0.638c-2.494,2.472 -4.792,4.023 -6.895,4.652l-7.638 -6.424c-0.638,-0.522 -0.726,-1.079 -0.262,-1.671l0.37 -0.433c5.071,-6.527 9.43,-8.267 13.077,-5.219 1.307,1.059 2.506,2.307 3.597,3.743 0.737,0.938 0.844,1.726 0.322,2.364l-0.152 0.205c-0.654,0.76 -1.293,1.49 -1.918,2.19l0 0zm-11.378 -3.655c-0.755,-0.43 -1.227,-0.524 -1.416,-0.281 -0.158,0.257 0.01,0.76 0.505,1.509 0.464,0.735 1.123,1.525 1.977,2.371 0.898,0.829 1.688,1.46 2.369,1.892 0.755,0.43 1.205,0.532 1.349,0.305 0.188,-0.243 0.05,-0.732 -0.414,-1.467 -0.45,-0.765 -1.117,-1.578 -2.001,-2.437 -0.854,-0.845 -1.644,-1.476 -2.369,-1.892z"/>
      </g>
     </g>
    </g>
   </g>
  </g>
  <g id="handRight_FL_FL_FL_FL_FL_FL_FL_FL_FL_FL_FL_FL_FL_FL_FL_FL">
   <g>
    <g>
     <g>
      <g>
       <path class="fil4" d="M472.717 188.584l-0.046 0.018c-1.955,2.976 -4.947,2.547 -8.975,-1.288 1.959,0.991 4.693,1.449 8.203,1.373l0.818 -0.103 0 0zm-6.613 -11.645c0.303,-0.046 0.581,0.346 0.833,1.179 0.239,0.8 0.378,1.801 0.415,3.002 0.049,1.233 -0.026,2.281 -0.227,3.146 -0.169,0.852 -0.406,1.302 -0.71,1.348 -0.26,0.066 -0.516,-0.318 -0.768,-1.15 -0.196,-0.781 -0.335,-1.783 -0.415,-3.003 -0.038,-1.201 0.028,-2.228 0.198,-3.08 0.158,-0.884 0.382,-1.364 0.674,-1.442z"/>
      </g>
      <g>
       <path class="fil0" d="M472.671 188.602l0.046 -0.018 -0.818 0.103c-3.51,0.076 -6.244,-0.382 -8.203,-1.373l-1.116 -9.918c-0.103,-0.819 0.218,-1.283 0.961,-1.393l0.567 -0.059c8.171,-1.242 12.529,0.498 13.076,5.22 0.218,1.667 0.229,3.398 0.031,5.191 -0.111,1.187 -0.576,1.832 -1.394,1.935l-0.25 0.044c-0.998,0.101 -1.965,0.191 -2.9,0.268l0 0zm-5.734 -10.484c-0.252,-0.833 -0.53,-1.225 -0.833,-1.179 -0.292,0.078 -0.517,0.558 -0.674,1.442 -0.17,0.852 -0.236,1.879 -0.198,3.08 0.08,1.22 0.219,2.222 0.415,3.003 0.252,0.832 0.508,1.216 0.768,1.15 0.304,-0.046 0.541,-0.496 0.71,-1.348 0.201,-0.865 0.276,-1.913 0.227,-3.146 -0.037,-1.201 -0.176,-2.202 -0.415,-3.002z"/>
      </g>
     </g>
    </g>
   </g>
  </g>
  <g id="armRight_FL_FL_FL_FL_FL_FL_FL_FL_FL_FL_FL_FL_FL_FL_FL_FL_FL">
   <g>
    <g>
     <g>
      <path class="fil0" d="M537.477 179.402l3.935 12.075c-1.307,2.063 -3.118,3.741 -5.432,5.034 -2.657,-4.848 -6.051,-9.16 -10.183,-12.937l11.68 -4.172z"/>
      <path class="fil1" d="M525.797 183.574c-0.508,-0.442 -1.025,-0.884 -1.551,-1.326l12.025 -6.608 1.206 3.762 -11.68 4.172z"/>
      <path class="fil2" d="M524.246 182.248l-0.442 0.253 -1.411 -2.638 13.7 -7.59c0.948,0.104 1.424,0.999 1.426,2.686l-1.248 0.681 -12.025 6.608z"/>
      <path class="fil3" d="M519.931 170.616c0.599,-2.098 1.851,-3.66 3.758,-4.685l0.047 -0.016c0.358,-0.19 0.711,-0.343 1.059,-0.459 3.161,-1.164 6.927,1.109 11.298,6.817l-13.7 7.59 -1.759 -3.208c-1.056,-1.896 -1.29,-3.909 -0.703,-6.039z"/>
     </g>
    </g>
   </g>
  </g>
  <g id="handRight_FL_FL_FL_FL_FL_FL_FL_FL_FL_FL_FL_FL_FL_FL_FL_FL_FL">
   <g>
    <g>
     <g>
      <g>
       <path class="fil4" d="M528.231 197.623l-0.016 -0.048c-2.881,-2.094 -2.309,-5.062 1.712,-8.903 -1.083,1.909 -1.67,4.619 -1.761,8.129l0.065 0.822 0 0zm11.946 -6.054c0.032,0.305 -0.374,0.564 -1.217,0.776 -0.811,0.201 -1.818,0.292 -3.019,0.272 -1.234,-0.009 -2.278,-0.134 -3.132,-0.375 -0.843,-0.21 -1.281,-0.468 -1.313,-0.774 -0.053,-0.263 0.342,-0.501 1.185,-0.712 0.79,-0.16 1.797,-0.25 3.02,-0.273 1.201,0.02 2.224,0.134 3.067,0.344 0.876,0.199 1.345,0.446 1.409,0.742z"/>
      </g>
      <g>
       <path class="fil0" d="M528.215 197.575l0.016 0.048 -0.065 -0.822c0.091,-3.51 0.678,-6.22 1.761,-8.129l9.961 -0.645c0.822,-0.064 1.27,0.278 1.345,1.026l0.032 0.569c0.853,8.221 -1.091,12.493 -5.834,12.815 -1.676,0.139 -3.405,0.067 -5.187,-0.215 -1.181,-0.168 -1.803,-0.662 -1.867,-1.485l-0.032 -0.253c-0.054,-1.001 -0.097,-1.971 -0.13,-2.909l0 0zm10.745 -5.23c0.843,-0.212 1.248,-0.471 1.217,-0.776 -0.064,-0.296 -0.533,-0.543 -1.409,-0.742 -0.843,-0.21 -1.866,-0.324 -3.067,-0.344 -1.223,0.023 -2.23,0.113 -3.02,0.273 -0.843,0.211 -1.238,0.449 -1.185,0.712 0.032,0.306 0.47,0.564 1.313,0.774 0.854,0.241 1.898,0.366 3.132,0.375 1.201,0.02 2.208,-0.071 3.019,-0.272z"/>
      </g>
     </g>
    </g>
   </g>
  </g>
  <g id="armRight_FL_FL_FL_FL_FL_FL_FL_FL_FL_FL_FL_FL_FL_FL_FL_FL_FL_FL">
   <g>
    <g>
     <g>
      <path class="fil0" d="M134.261 274.49l12.535 -2.044c1.839,1.607 3.221,3.654 4.145,6.139 -5.197,1.883 -9.978,4.578 -14.342,8.085l-2.338 -12.18z"/>
      <path class="fil1" d="M136.599 286.67c-0.514,0.434 -1.03,0.877 -1.548,1.33l-4.692 -12.894 3.902 -0.616 2.338 12.18z"/>
      <path class="fil2" d="M135.051 288l0.183 0.476 -2.823 0.99 -5.407 -14.699c0.248,-0.921 1.206,-1.254 2.873,-0.999l0.482 1.338 4.692 12.894z"/>
      <path class="fil3" d="M122.897 290.485c-1.983,-0.912 -3.335,-2.388 -4.056,-4.429l-0.008 -0.049c-0.133,-0.383 -0.231,-0.756 -0.293,-1.117 -0.666,-3.301 2.155,-6.676 8.464,-10.123l5.407 14.699 -3.439 1.248c-2.035,0.754 -4.06,0.678 -6.075,-0.229z"/>
     </g>
    </g>
   </g>
  </g>
  <g id="handRight_FL_FL_FL_FL_FL_FL_FL_FL_FL_FL_FL_FL_FL_FL_FL_FL_FL_FL">
   <g>
    <g>
     <g>
      <g>
       <path class="fil4" d="M150.625 286.254l-0.049 0.008c-2.51,2.527 -5.356,1.509 -8.538,-3.053 1.721,1.363 4.31,2.357 7.765,2.983l0.822 0.062 0 0zm-4.157 -12.731c0.307,0.015 0.501,0.455 0.581,1.321 0.075,0.832 0.011,1.841 -0.192,3.026 -0.198,1.217 -0.481,2.229 -0.85,3.036 -0.336,0.802 -0.658,1.195 -0.965,1.18 -0.269,0.012 -0.443,-0.415 -0.523,-1.28 -0.037,-0.805 0.027,-1.814 0.192,-3.026 0.203,-1.184 0.473,-2.177 0.809,-2.979 0.331,-0.834 0.647,-1.26 0.948,-1.278z"/>
      </g>
      <g>
       <path class="fil0" d="M150.576 286.262l0.049 -0.008 -0.822 -0.062c-3.455,-0.626 -6.044,-1.62 -7.765,-2.983l0.886 -9.942c0.062,-0.822 0.469,-1.213 1.22,-1.172l0.567 0.055c8.255,0.413 12.179,2.988 11.772,7.725 -0.119,1.677 -0.454,3.374 -1.006,5.092 -0.345,1.142 -0.929,1.681 -1.752,1.619l-0.254 -0.007c-0.998,-0.1 -1.963,-0.205 -2.895,-0.317l0 0zm-3.527 -11.418c-0.08,-0.866 -0.274,-1.306 -0.581,-1.321 -0.301,0.018 -0.617,0.444 -0.948,1.278 -0.336,0.802 -0.606,1.795 -0.809,2.979 -0.165,1.212 -0.229,2.221 -0.192,3.026 0.08,0.865 0.254,1.292 0.523,1.28 0.307,0.015 0.629,-0.378 0.965,-1.18 0.369,-0.807 0.652,-1.819 0.85,-3.036 0.203,-1.185 0.267,-2.194 0.192,-3.026z"/>
      </g>
     </g>
    </g>
   </g>
  </g>
  <g id="armRight_FL_FL_FL_FL_FL_FL_FL_FL_FL_FL_FL_FL_FL_FL_FL_FL_FL_FL_FL">
   <g>
    <g>
     <g>
      <path class="fil0" d="M296.295 184.591l3.563 12.795c-1.154,2.566 -2.758,4.797 -4.813,6.694 -2.388,-4.931 -5.43,-9.118 -9.127,-12.562l10.377 -6.927z"/>
      <path class="fil1" d="M285.918 191.518c-0.455,-0.398 -0.917,-0.795 -1.388,-1.19l10.673 -9.726 1.092 3.989 -10.377 6.927z"/>
      <path class="fil2" d="M284.53 190.328l-0.392 0.369 -1.269 -2.69 12.159 -11.15c0.846,-0.066 1.273,0.848 1.283,2.74l-1.108 1.005 -10.673 9.726z"/>
      <path class="fil3" d="M280.633 178.103c0.522,-2.47 1.63,-4.463 3.322,-5.979l0.042 -0.027c0.318,-0.282 0.632,-0.522 0.941,-0.719 2.808,-1.913 6.172,-0.087 10.09,5.479l-12.159 11.15 -1.581 -3.262c-0.95,-1.925 -1.168,-4.139 -0.655,-6.642z"/>
     </g>
    </g>
   </g>
  </g>
  <g id="armRight_FL_FL_FL_FL_FL_FL_FL_FL_FL_FL_FL_FL_FL_FL_FL_FL_FL_FL_FL_FL">
   <g>
    <g>
     <g>
      <path class="fil0" d="M219.021 258.547l5.2 -11.586c2.355,-0.649 4.824,-0.675 7.407,-0.077 -1.291,5.375 -1.676,10.849 -1.154,16.423l-11.453 -4.76z"/>
      <path class="fil1" d="M230.474 263.307c0.079,0.668 0.164,1.343 0.257,2.024l-13.345 -3.188 1.635 -3.596 11.453 4.76z"/>
      <path class="fil2" d="M230.731 265.331l0.498 0.11 -0.729 2.902 -15.246 -3.586c-0.632,-0.715 -0.382,-1.698 0.75,-2.948l1.382 0.334 13.345 3.188z"/>
      <path class="fil3" d="M226.108 276.845c-1.853,1.151 -3.83,1.466 -5.931,0.943l-0.045 -0.02c-0.393,-0.1 -0.758,-0.223 -1.093,-0.371 -3.123,-1.263 -4.384,-5.476 -3.785,-12.64l15.246 3.586 -0.854 3.557c-0.492,2.114 -1.671,3.762 -3.538,4.945z"/>
     </g>
    </g>
   </g>
  </g>
  <g id="handRight_FL_FL_FL_FL_FL_FL_FL_FL_FL_FL_FL_FL_FL_FL_FL_FL_FL_FL_FL">
   <g>
    <g>
     <g>
      <g>
       <path class="fil4" d="M236.183 256.603l-0.039 0.031c-1.071,3.396 -4.066,3.798 -8.987,1.206 2.155,0.42 4.91,0.115 8.267,-0.914l0.759 -0.323 0 0zm-9.537 -9.402c0.28,-0.127 0.654,0.175 1.123,0.907 0.449,0.705 0.855,1.631 1.218,2.777 0.383,1.172 0.596,2.201 0.639,3.087 0.069,0.867 -0.036,1.364 -0.316,1.491 -0.233,0.134 -0.583,-0.165 -1.052,-0.896 -0.402,-0.699 -0.808,-1.625 -1.218,-2.777 -0.363,-1.145 -0.58,-2.152 -0.649,-3.018 -0.089,-0.893 -0.004,-1.416 0.255,-1.571z"/>
      </g>
      <g>
       <path class="fil0" d="M236.144 256.634l0.039 -0.031 -0.759 0.323c-3.357,1.029 -6.112,1.334 -8.267,0.914l-3.776 -9.239c-0.322,-0.759 -0.141,-1.293 0.545,-1.602l0.529 -0.211c7.524,-3.422 12.192,-2.936 14.004,1.459 0.665,1.545 1.146,3.207 1.444,4.986 0.217,1.173 -0.054,1.92 -0.813,2.242l-0.23 0.111c-0.932,0.369 -1.838,0.718 -2.716,1.048l0 0zm-8.375 -8.526c-0.469,-0.732 -0.843,-1.034 -1.123,-0.907 -0.259,0.155 -0.344,0.678 -0.255,1.571 0.069,0.866 0.285,1.873 0.649,3.018 0.41,1.152 0.816,2.078 1.218,2.777 0.469,0.731 0.819,1.03 1.052,0.896 0.28,-0.127 0.385,-0.624 0.316,-1.491 -0.043,-0.886 -0.256,-1.915 -0.639,-3.087 -0.363,-1.146 -0.769,-2.072 -1.218,-2.777z"/>
      </g>
     </g>
    </g>
   </g>
  </g>
  <g id="armRight_FL_FL_FL_FL_FL_FL_FL_FL_FL_FL_FL_FL_FL_FL_FL_FL_FL_FL_FL_FL_FL">
   <g>
    <g>
     <g>
      <path class="fil0" d="M294.232 276.099l8.903 -7.218c2.279,0.576 4.419,1.727 6.419,3.454 -3.162,3.881 -5.581,8.276 -7.255,13.184l-8.067 -9.42z"/>
      <path class="fil1" d="M302.299 285.519c-0.186,0.596 -0.369,1.202 -0.549,1.815l-10.299 -9.004 2.781 -2.231 8.067 9.42z"/>
      <path class="fil2" d="M301.75 287.334l0.388 0.328 -1.735 2.081 -11.787 -10.24c-0.273,-0.899 0.317,-1.602 1.77,-2.109l1.065 0.936 10.299 9.004z"/>
      <path class="fil3" d="M293.374 294.766c-2.038,0.082 -3.863,-0.593 -5.476,-2.028l-0.032 -0.039c-0.301,-0.27 -0.568,-0.546 -0.802,-0.829 -2.212,-2.539 -1.695,-6.662 1.552,-12.367l11.787 10.24 -2.092 2.569c-1.23,1.534 -2.876,2.352 -4.937,2.454z"/>
     </g>
    </g>
   </g>
  </g>
  <g id="handRight_FL_FL_FL_FL_FL_FL_FL_FL_FL_FL_FL_FL_FL_FL_FL_FL_FL_FL_FL_FL">
   <g>
    <g>
     <g>
      <g>
       <path class="fil4" d="M305.891 287.392l-0.044 -0.025c-3.545,0.339 -5.083,-2.262 -4.616,-7.804 0.453,2.148 1.809,4.566 4.067,7.255l0.593 0.574 0 0zm4.936 -12.45c0.227,0.208 0.094,0.671 -0.397,1.387 -0.474,0.689 -1.168,1.424 -2.081,2.205 -0.93,0.81 -1.795,1.408 -2.594,1.793 -0.771,0.402 -1.27,0.499 -1.496,0.291 -0.215,-0.162 -0.076,-0.602 0.415,-1.319 0.487,-0.642 1.18,-1.378 2.081,-2.205 0.914,-0.781 1.755,-1.373 2.526,-1.774 0.788,-0.431 1.303,-0.557 1.546,-0.378z"/>
      </g>
      <g>
       <path class="fil0" d="M305.847 287.367l0.044 0.025 -0.593 -0.574c-2.258,-2.689 -3.614,-5.107 -4.067,-7.255l7.033 -7.082c0.574,-0.593 1.136,-0.634 1.688,-0.123l0.401 0.405c6.086,5.592 7.459,10.081 4.12,13.464 -1.163,1.214 -2.506,2.306 -4.028,3.275 -0.995,0.657 -1.789,0.699 -2.381,0.126l-0.192 -0.168c-0.704,-0.715 -1.379,-1.412 -2.025,-2.093l0 0zm4.583 -11.038c0.491,-0.716 0.624,-1.179 0.397,-1.387 -0.243,-0.179 -0.758,-0.053 -1.546,0.378 -0.771,0.401 -1.613,0.993 -2.526,1.774 -0.901,0.827 -1.594,1.563 -2.081,2.205 -0.491,0.717 -0.63,1.157 -0.415,1.319 0.226,0.208 0.725,0.111 1.496,-0.291 0.799,-0.385 1.664,-0.983 2.594,-1.793 0.913,-0.781 1.607,-1.516 2.081,-2.205z"/>
      </g>
     </g>
    </g>
   </g>
  </g>
  <g id="armRight_FL_FL_FL_FL_FL_FL_FL_FL_FL_FL_FL_FL_FL_FL_FL_FL_FL_FL_FL_FL_FL_FL_FL">
   <g>
    <g>
     <g>
      <path class="fil0" d="M387.963 296.15l2.869 11.096c-1.47,1.834 -3.406,3.303 -5.807,4.406 -2.217,-4.489 -5.211,-8.514 -8.981,-12.075l11.919 -3.427z"/>
      <path class="fil1" d="M376.044 299.577c-0.466,-0.418 -0.94,-0.835 -1.423,-1.254l12.468 -5.629 0.874 3.456 -11.919 3.427z"/>
      <path class="fil2" d="M374.621 298.323l-0.46 0.217 -1.172 -2.442 14.21 -6.47c0.931,0.124 1.325,0.953 1.183,2.486l-1.293 0.58 -12.468 5.629z"/>
      <path class="fil3" d="M371.338 287.618c0.771,-1.888 2.144,-3.268 4.119,-4.14l0.049 -0.013c0.37,-0.162 0.733,-0.29 1.087,-0.385 3.229,-0.958 6.764,1.224 10.606,6.548l-14.21 6.47 -1.469 -2.97c-0.884,-1.756 -0.945,-3.593 -0.182,-5.51z"/>
     </g>
    </g>
   </g>
  </g>
  <g id="handRight_FL_FL_FL_FL_FL_FL_FL_FL_FL_FL_FL_FL_FL_FL_FL_FL_FL_FL_FL_FL_FL_FL">
   <g>
    <g>
     <g>
      <g>
       <path class="fil4" d="M377.702 314.806l-0.013 -0.049c-2.747,-2.266 -1.995,-5.193 2.254,-8.782 -1.198,1.839 -1.95,4.508 -2.255,8.006l0.014 0.825 0 0zm12.294 -5.313c0.013,0.307 -0.408,0.54 -1.262,0.7 -0.822,0.152 -1.832,0.181 -3.031,0.088 -1.23,-0.085 -2.264,-0.273 -3.102,-0.567 -0.829,-0.261 -1.25,-0.545 -1.263,-0.851 -0.037,-0.267 0.372,-0.48 1.226,-0.64 0.799,-0.11 1.809,-0.139 3.031,-0.087 1.198,0.093 2.212,0.27 3.041,0.531 0.861,0.252 1.315,0.528 1.36,0.826z"/>
      </g>
      <g>
       <path class="fil0" d="M377.689 314.757l0.013 0.049 -0.014 -0.825c0.305,-3.498 1.057,-6.167 2.255,-8.006l9.981 -0.034c0.825,-0.014 1.251,0.355 1.28,1.106l-0.002 0.57c0.348,8.258 -1.854,12.402 -6.608,12.434 -1.681,0.036 -3.402,-0.141 -5.163,-0.532 -1.169,-0.239 -1.76,-0.771 -1.773,-1.595l-0.017 -0.255c0.008,-1.002 0.023,-1.973 0.048,-2.912l0 0zm11.045 -4.564c0.854,-0.16 1.275,-0.393 1.262,-0.7 -0.045,-0.298 -0.499,-0.574 -1.36,-0.826 -0.829,-0.261 -1.843,-0.438 -3.041,-0.531 -1.222,-0.052 -2.232,-0.023 -3.031,0.087 -0.854,0.16 -1.263,0.373 -1.226,0.64 0.013,0.306 0.434,0.59 1.263,0.851 0.838,0.294 1.872,0.482 3.102,0.567 1.199,0.093 2.209,0.064 3.031,-0.088z"/>
      </g>
     </g>
    </g>
   </g>
  </g>
  <g id="handRight_FL_FL_FL_FL_FL_FL_FL_FL_FL_FL_FL_FL_FL_FL_FL_FL_FL_FL_FL_FL_FL_FL_FL">
   <g>
    <g>
     <g>
      <g>
       <path class="fil4" d="M291.408 190.802l0.049 -0.013c2.273,-2.741 5.199,-1.981 8.775,2.277 -1.836,-1.203 -4.502,-1.962 -7.999,-2.276l-0.825 0.012 0 0zm5.28 12.307c-0.308,0.012 -0.54,-0.409 -0.697,-1.263 -0.15,-0.823 -0.176,-1.833 -0.08,-3.031 0.088,-1.23 0.28,-2.264 0.575,-3.101 0.264,-0.828 0.549,-1.248 0.855,-1.261 0.267,-0.036 0.479,0.374 0.637,1.228 0.108,0.799 0.134,1.809 0.079,3.031 -0.097,1.198 -0.277,2.211 -0.54,3.039 -0.255,0.861 -0.531,1.313 -0.829,1.358z"/>
      </g>
      <g>
       <path class="fil0" d="M291.457 190.789l-0.049 0.013 0.825 -0.012c3.497,0.314 6.164,1.073 7.999,2.276l0.008 9.981c0.011,0.824 -0.358,1.25 -1.11,1.277l-0.57 -0.004c-8.258,0.326 -12.397,-1.887 -12.415,-6.641 -0.032,-1.681 0.15,-3.402 0.546,-5.162 0.242,-1.167 0.776,-1.757 1.6,-1.769l0.254 -0.015c1.003,0.01 1.974,0.029 2.912,0.056l0 0zm4.534 11.057c0.157,0.854 0.389,1.275 0.697,1.263 0.298,-0.045 0.574,-0.497 0.829,-1.358 0.263,-0.828 0.443,-1.841 0.54,-3.039 0.055,-1.222 0.029,-2.232 -0.079,-3.031 -0.158,-0.854 -0.37,-1.264 -0.637,-1.228 -0.306,0.013 -0.591,0.433 -0.855,1.261 -0.295,0.837 -0.487,1.871 -0.575,3.101 -0.096,1.198 -0.07,2.208 0.08,3.031z"/>
      </g>
     </g>
    </g>
   </g>
  </g>
  <g id="armRight_FL_FL_FL_FL_FL_FL_FL_FL_FL_FL_FL_FL_FL_FL_FL_FL_FL_FL_FL_FL_FL_FL_FL_FL">
   <g>
    <g>
     <g>
      <path class="fil0" d="M454.307 51.034l7.199 -5.812c2.072,0.747 4.075,2.01 6.01,3.792 -2.433,3.278 -4.158,7.101 -5.175,11.468l-8.034 -9.448z"/>
      <path class="fil1" d="M462.341 60.482c-0.109,0.532 -0.214,1.072 -0.315,1.621l-9.97 -9.276 2.251 -1.793 8.034 9.448z"/>
      <path class="fil2" d="M462.026 62.103l0.374 0.339 -1.339 1.754 -11.404 -10.556c-0.327,-0.854 0.129,-1.446 1.367,-1.777l1.032 0.964 9.97 9.276z"/>
      <path class="fil3" d="M455.314 68.161c-1.796,-0.116 -3.476,-0.912 -5.04,-2.387l-0.032 -0.039c-0.292,-0.277 -0.555,-0.558 -0.788,-0.84 -2.2,-2.55 -2.132,-6.302 0.203,-11.255l11.404 10.556 -1.608 2.17c-0.944,1.298 -2.324,1.896 -4.139,1.795z"/>
     </g>
    </g>
   </g>
  </g>
  <g id="handRight_FL_FL_FL_FL_FL_FL_FL_FL_FL_FL_FL_FL_FL_FL_FL_FL_FL_FL_FL_FL_FL_FL_FL_FL">
   <g>
    <g>
     <g>
      <g>
       <path class="fil4" d="M452.511 45.2l0 0.05c-2.038,2.92 -0.529,5.538 4.527,7.855 -1.647,-1.45 -3.087,-3.819 -4.319,-7.107l-0.208 -0.798 0 0zm13.268 1.82c-0.07,-0.299 -0.538,-0.412 -1.403,-0.336 -0.833,0.074 -1.814,0.317 -2.944,0.728 -1.162,0.412 -2.107,0.871 -2.836,1.378 -0.729,0.474 -1.058,0.861 -0.989,1.16 0.036,0.266 0.487,0.362 1.353,0.287 0.799,-0.108 1.78,-0.351 2.943,-0.729 1.129,-0.411 2.058,-0.854 2.787,-1.327 0.762,-0.475 1.125,-0.861 1.089,-1.161z"/>
      </g>
      <g>
       <path class="fil0" d="M452.511 45.25l0 -0.05 0.208 0.798c1.232,3.288 2.671,5.657 4.319,7.107l9.625 -2.644c0.797,-0.208 1.11,-0.677 0.936,-1.409l-0.156 -0.549c-1.878,-8.048 -5.112,-11.45 -9.7,-10.205 -1.629,0.416 -3.24,1.049 -4.831,1.898 -1.061,0.544 -1.488,1.214 -1.281,2.012l0.053 0.25c0.276,0.964 0.552,1.894 0.827,2.792l0 0zm11.865 1.434c0.865,-0.076 1.333,0.037 1.403,0.336 0.036,0.3 -0.327,0.686 -1.089,1.161 -0.729,0.473 -1.658,0.916 -2.787,1.327 -1.163,0.378 -2.144,0.621 -2.943,0.729 -0.866,0.075 -1.317,-0.021 -1.353,-0.287 -0.069,-0.299 0.26,-0.686 0.989,-1.16 0.728,-0.507 1.674,-0.966 2.836,-1.378 1.13,-0.411 2.111,-0.654 2.944,-0.728z"/>
      </g>
     </g>
    </g>
   </g>
  </g>
 </g>
</svg>
