<?xml version="1.0" encoding="UTF-8"?>
<!DOCTYPE svg PUBLIC "-//W3C//DTD SVG 1.1//EN" "http://www.w3.org/Graphics/SVG/1.1/DTD/svg11.dtd">
<!-- Creator: CorelDRAW 2018 (64-Bit) -->
<svg xmlns="http://www.w3.org/2000/svg" xml:space="preserve" width="720px" height="330px" version="1.1" style="shape-rendering:geometricPrecision; text-rendering:geometricPrecision; image-rendering:optimizeQuality; fill-rule:evenodd; clip-rule:evenodd"
viewBox="0 0 720 330"
 xmlns:xlink="http://www.w3.org/1999/xlink">
 <defs>
  <style type="text/css">
   <![CDATA[
    .fil5 {fill:#637480}
    .fil6 {fill:#738895}
    .fil1 {fill:#7E95A3}
    .fil3 {fill:#9C6E41}
    .fil0 {fill:#B8824D}
    .fil4 {fill:#E0C79A}
    .fil7 {fill:#E7E2DA}
    .fil2 {fill:black;fill-opacity:0.101961}
   ]]>
  </style>
 </defs>
 <g id="Слой_x0020_1">
  <metadata id="CorelCorpID_0Corel-Layer"/>
  <g id="_864223472">
   <g>
    <g>
     <g>
      <g>
       <path class="fil0" d="M502.597 81.28l0 4.05 38.494 6.199 0 -4.05 -38.494 -6.199 0 0zm0 -12.5c4.409,-0.423 6.218,-2.749 5.428,-6.976 -0.526,-2.384 -0.328,-4.553 0.593,-6.505l-6.021 -0.969 0 14.45 0 0zm32.473 -9.221c0.921,2.248 1.118,4.48 0.592,6.695 -0.79,3.973 1.02,6.881 5.429,8.725l0 -14.451 -6.021 -0.969z"/>
      </g>
      <path class="fil1" d="M535.662 66.254c0.527,-2.215 0.329,-4.447 -0.592,-6.695l-26.452 -4.26c-0.921,1.952 -1.119,4.121 -0.593,6.505 0.79,4.227 -1.019,6.553 -5.428,6.976l0 12.5 38.494 6.199 0 -12.5c-4.409,-1.844 -6.219,-4.752 -5.429,-8.725z"/>
     </g>
    </g>
   </g>
   <g id="_864223632">
    <g>
     <g>
      <path class="fil2" d="M527.717 83.162l-2.521 -0.406 -7.775 -1.252 -2.486 -0.4c4.261,1.789 8.521,2.475 12.782,2.058z"/>
      <g>
       <path class="fil3" d="M523.989 77.274l-5.326 -0.858 -1.811 1.399 0.569 3.689 7.775 1.252 0.604 -3.5 -1.811 -1.982 0 0zm-3.408 -7.132c0,0.215 0.071,0.407 0.212,0.574 0.142,0.191 0.32,0.303 0.533,0.337 0.213,0.035 0.391,-0.021 0.533,-0.166 0.142,-0.121 0.213,-0.289 0.213,-0.505 0,-0.192 -0.071,-0.383 -0.213,-0.574 -0.142,-0.167 -0.32,-0.267 -0.533,-0.302 -0.213,-0.034 -0.391,0.009 -0.533,0.131 -0.142,0.144 -0.212,0.313 -0.212,0.505l0 0zm-7.102 -0.856l0 1.439 7.847 2.415 7.847 0.112 0 -1.439 -7.847 -0.112 -7.847 -2.415z"/>
      </g>
      <g>
       <path class="fil0" d="M518.663 76.416l5.326 0.858 1.811 1.982 -0.604 3.5 2.521 0.406 0.71 0.114c0.497,0.08 0.746,-0.132 0.746,-0.635l0 -9.389 -7.847 -0.112 -7.847 -2.415 0 9.389c0,0.503 0.249,0.795 0.746,0.875l0.71 0.115 2.486 0.4 -0.569 -3.689 1.811 -1.399 0 0zm-5.184 -12.058l0 4.928 7.847 2.415 7.847 0.112 0 -4.928c0,-0.504 -0.249,-0.795 -0.746,-0.875l-14.202 -2.287c-0.497,-0.081 -0.746,0.131 -0.746,0.635l0 0zm7.314 6.358c-0.142,-0.167 -0.212,-0.359 -0.212,-0.574 0,-0.192 0.071,-0.361 0.212,-0.505 0.142,-0.122 0.32,-0.165 0.533,-0.131 0.213,0.035 0.391,0.135 0.533,0.302 0.142,0.191 0.213,0.382 0.213,0.574 0,0.216 -0.071,0.384 -0.213,0.505 -0.142,0.145 -0.32,0.201 -0.533,0.166 -0.213,-0.034 -0.391,-0.146 -0.533,-0.337z"/>
      </g>
     </g>
    </g>
   </g>
  </g>
  <g id="body">
   <g>
    <g>
     <g id="_864235184">
      <g>
       <path class="fil0" d="M51.26 315.15l-0.434 -4.05 -23.472 0 -10.04 0 -2.247 0 0.435 4.05 35.758 0 0 0zm-31.583 -28.6c-0.48,-0.766 -1.024,-1.567 -1.634,-2.4l-5.868 0 1.873 17.45c7.728,-1.467 10.215,-5.35 7.46,-11.65l-2.237 -1.2c0.009,-0.767 0.144,-1.5 0.406,-2.2l0 0zm28.257 -2.4l-5.593 0c1.081,2.1 1.5,4.3 1.259,6.6 -0.294,4.1 1.667,6.717 5.885,7.85l-1.551 -14.45z"/>
      </g>
      <polygon class="fil4" points="33.257,296.05 42.341,284.15 21.069,284.15 "/>
      <g>
       <path class="fil5" d="M43.6 290.75c0.242,-2.3 -0.178,-4.5 -1.259,-6.6l-9.084 11.9 10.343 -5.3 0 0zm-23.923 -4.2c-0.262,0.7 -0.397,1.433 -0.406,2.2l2.237 1.2 11.749 6.1 -12.188 -11.9c-0.624,0.733 -1.088,1.533 -1.392,2.4z"/>
      </g>
      <g>
       <path class="fil1" d="M21.508 289.95c2.754,6.3 0.268,10.183 -7.46,11.65l1.019 9.5 2.247 0 6.105 -5.05 3.935 5.05 23.472 0 -1.341 -12.5c-4.218,-1.133 -6.179,-3.75 -5.885,-7.85l-10.343 5.3 -11.749 -6.1 0 0zm13.19 9.7c-0.338,-0.3 -0.528,-0.65 -0.571,-1.05 -0.043,-0.4 0.07,-0.766 0.34,-1.1 0.243,-0.3 0.548,-0.45 0.915,-0.45 0.366,0 0.703,0.15 1.011,0.45 0.31,0.334 0.487,0.7 0.53,1.1 0.043,0.4 -0.057,0.75 -0.3,1.05 -0.243,0.3 -0.547,0.45 -0.914,0.45 -0.367,0 -0.704,-0.15 -1.011,-0.45l0 0zm-0.777 4.3c2.201,0 4.104,0.217 5.709,0.65 1.452,0.434 2.283,0.917 2.494,1.45l-15.908 0c0.065,-0.533 0.777,-1.016 2.136,-1.45 1.512,-0.433 3.369,-0.65 5.569,-0.65l0 0zm-15.878 -19.8c0.609,0.833 1.154,1.634 1.634,2.4 0.304,-0.867 0.768,-1.667 1.392,-2.4l-3.026 0z"/>
      </g>
      <path class="fil6" d="M39.63 304.6c-1.605,-0.433 -3.508,-0.65 -5.709,-0.65 -2.2,0 -4.057,0.217 -5.569,0.65 -1.359,0.434 -2.071,0.917 -2.136,1.45l15.908 0c-0.211,-0.533 -1.042,-1.016 -2.494,-1.45z"/>
      <g>
       <path class="fil7" d="M34.127 298.6c0.043,0.4 0.233,0.75 0.571,1.05 0.307,0.3 0.644,0.45 1.011,0.45 0.367,0 0.671,-0.15 0.914,-0.45 0.243,-0.3 0.343,-0.65 0.3,-1.05 -0.043,-0.4 -0.22,-0.766 -0.53,-1.1 -0.308,-0.3 -0.645,-0.45 -1.011,-0.45 -0.367,0 -0.672,0.15 -0.915,0.45 -0.27,0.334 -0.383,0.7 -0.34,1.1l0 0zm-10.708 7.45l-6.105 5.05 10.04 0 -3.935 -5.05z"/>
      </g>
     </g>
    </g>
   </g>
  </g>
  <g id="body_FL">
   <g>
    <g>
     <g>
      <g>
       <path class="fil0" d="M61.35 95.15l0 -4.05 -25.6 0 -10.95 0 -2.45 0 0 4.05 39 0 0 0zm-31.101 -28.6c-0.433,-0.767 -0.933,-1.567 -1.499,-2.4l-6.4 0 0 17.45c8.599,-1.467 11.766,-5.35 9.5,-11.65l-2.3 -1.2c0.1,-0.767 0.333,-1.5 0.699,-2.2l0 0zm31.101 -2.4l-6.1 0c0.933,2.1 1.133,4.3 0.6,6.6 -0.8,4.1 1.033,6.716 5.5,7.85l0 -14.45z"/>
      </g>
      <polygon class="fil4" points="43.95,76.05 55.25,64.15 32.05,64.15 "/>
      <g>
       <path class="fil5" d="M55.85 70.75c0.533,-2.3 0.333,-4.5 -0.6,-6.6l-11.3 11.9 11.9 -5.3 0 0zm-25.601 -4.2c-0.366,0.7 -0.599,1.433 -0.699,2.2l2.3 1.2 12.1 6.1 -11.9 -11.9c-0.767,0.733 -1.367,1.533 -1.801,2.4z"/>
      </g>
      <g>
       <path class="fil1" d="M31.85 69.95c2.266,6.3 -0.9,10.183 -9.5,11.65l0 9.5 2.45 0 7.25 -5.05 3.7 5.05 25.6 0 0 -12.5c-4.467,-1.134 -6.3,-3.75 -5.5,-7.85l-11.9 5.3 -12.1 -6.1 0 0zm13.25 9.7c-0.334,-0.3 -0.5,-0.65 -0.5,-1.05 0,-0.4 0.166,-0.767 0.5,-1.1 0.3,-0.3 0.65,-0.45 1.05,-0.45 0.399,0 0.75,0.15 1.05,0.45 0.3,0.333 0.45,0.7 0.45,1.1 0,0.4 -0.15,0.75 -0.45,1.05 -0.301,0.3 -0.65,0.45 -1.05,0.45 -0.4,0 -0.75,-0.15 -1.05,-0.45l0 0zm-1.35 4.3c2.4,0 4.45,0.216 6.15,0.65 1.533,0.433 2.383,0.916 2.55,1.45l-17.35 0c0.133,-0.534 0.966,-1.017 2.5,-1.45 1.7,-0.434 3.75,-0.65 6.15,-0.65l0 0zm-15 -19.8c0.566,0.833 1.066,1.633 1.499,2.4 0.434,-0.867 1.034,-1.667 1.801,-2.4l-3.3 0z"/>
      </g>
      <path class="fil6" d="M49.9 84.6c-1.7,-0.434 -3.75,-0.65 -6.15,-0.65 -2.4,0 -4.45,0.216 -6.15,0.65 -1.534,0.433 -2.367,0.916 -2.5,1.45l17.35 0c-0.167,-0.534 -1.017,-1.017 -2.55,-1.45z"/>
      <g>
       <path class="fil7" d="M44.6 78.6c0,0.4 0.166,0.75 0.5,1.05 0.3,0.3 0.65,0.45 1.05,0.45 0.399,0 0.75,-0.15 1.05,-0.45 0.3,-0.3 0.45,-0.65 0.45,-1.05 0,-0.4 -0.15,-0.767 -0.45,-1.1 -0.301,-0.3 -0.65,-0.45 -1.05,-0.45 -0.4,0 -0.75,0.15 -1.05,0.45 -0.334,0.333 -0.5,0.7 -0.5,1.1l0 0zm-12.55 7.45l-7.25 5.05 10.95 0 -3.7 -5.05z"/>
      </g>
     </g>
    </g>
   </g>
  </g>
  <g id="body_FL_FL">
   <g>
    <g>
     <g>
      <g>
       <path class="fil0" d="M142.678 90.25l0 -4.05 -25.38 0 -10.856 0 -2.429 0 0 4.05 38.665 0 0 0zm-30.833 -28.6c-0.43,-0.767 -0.926,-1.567 -1.487,-2.4l-6.345 0 0 17.45c8.526,-1.467 11.666,-5.35 9.418,-11.65l-2.28 -1.2c0.099,-0.767 0.33,-1.5 0.694,-2.2l0 0zm30.833 -2.4l-6.048 0c0.926,2.1 1.124,4.3 0.595,6.6 -0.793,4.1 1.025,6.717 5.453,7.85l0 -14.45z"/>
      </g>
      <polygon class="fil4" points="125.428,71.15 136.63,59.25 113.629,59.25 "/>
      <g>
       <path class="fil5" d="M137.225 65.85c0.529,-2.3 0.331,-4.5 -0.595,-6.6l-11.202 11.9 11.797 -5.3 0 0zm-25.38 -4.2c-0.364,0.7 -0.595,1.433 -0.694,2.2l2.28 1.2 11.997 6.1 -11.799 -11.9c-0.76,0.733 -1.355,1.533 -1.784,2.4z"/>
      </g>
      <g>
       <path class="fil1" d="M113.431 65.05c2.248,6.3 -0.892,10.183 -9.418,11.65l0 9.5 2.429 0 7.187 -5.05 3.669 5.05 25.38 0 0 -12.5c-4.428,-1.133 -6.246,-3.75 -5.453,-7.85l-11.797 5.3 -11.997 -6.1 0 0zm13.136 9.7c-0.33,-0.3 -0.495,-0.65 -0.495,-1.05 0,-0.4 0.165,-0.767 0.495,-1.1 0.298,-0.3 0.645,-0.45 1.042,-0.45 0.396,0 0.743,0.15 1.041,0.45 0.297,0.333 0.446,0.7 0.446,1.1 0,0.4 -0.149,0.75 -0.446,1.05 -0.298,0.3 -0.645,0.45 -1.041,0.45 -0.397,0 -0.744,-0.15 -1.042,-0.45l0 0zm-1.338 4.3c2.38,0 4.412,0.217 6.098,0.65 1.52,0.433 2.362,0.917 2.528,1.45l-17.202 0c0.133,-0.533 0.959,-1.017 2.479,-1.45 1.685,-0.433 3.718,-0.65 6.097,-0.65l0 0zm-14.871 -19.8c0.561,0.833 1.057,1.633 1.487,2.4 0.43,-0.867 1.024,-1.667 1.784,-2.4l-3.271 0z"/>
      </g>
      <path class="fil6" d="M131.327 79.7c-1.686,-0.433 -3.718,-0.65 -6.098,-0.65 -2.379,0 -4.412,0.217 -6.097,0.65 -1.52,0.433 -2.346,0.917 -2.479,1.45l17.202 0c-0.166,-0.533 -1.008,-1.017 -2.528,-1.45z"/>
      <g>
       <path class="fil7" d="M126.072 73.7c0,0.4 0.165,0.75 0.495,1.05 0.298,0.3 0.645,0.45 1.042,0.45 0.396,0 0.743,-0.15 1.041,-0.45 0.297,-0.3 0.446,-0.65 0.446,-1.05 0,-0.4 -0.149,-0.767 -0.446,-1.1 -0.298,-0.3 -0.645,-0.45 -1.041,-0.45 -0.397,0 -0.744,0.15 -1.042,0.45 -0.33,0.333 -0.495,0.7 -0.495,1.1l0 0zm-12.443 7.45l-7.187 5.05 10.856 0 -3.669 -5.05z"/>
      </g>
     </g>
    </g>
   </g>
  </g>
  <g id="body_FL_FL_FL">
   <g>
    <g>
     <g>
      <g>
       <path class="fil0" d="M220.161 90.454l0.351 -4.035 -25.636 -0.693 -10.966 -0.296 -2.453 -0.067 -0.351 4.035 39.055 1.056 0 0zm-28.663 -29.334c-0.368,-0.776 -0.799,-1.586 -1.295,-2.432l-6.409 -0.173 -1.513 17.384c8.739,-1.228 12.247,-5.011 10.524,-11.349l-2.199 -1.258c0.166,-0.761 0.464,-1.485 0.892,-2.172l0 0zm31.351 -1.55l-6.108 -0.165c0.752,2.117 0.762,4.315 0.028,6.592 -1.157,4.063 0.452,6.719 4.827,7.969l1.253 -14.396z"/>
      </g>
      <polygon class="fil4" points="204.393,70.955 216.741,59.405 193.508,58.777 "/>
      <g>
       <path class="fil5" d="M216.769 65.997c0.734,-2.277 0.724,-4.475 -0.028,-6.592l-12.348 11.55 12.376 -4.958 0 0zm-25.271 -4.877c-0.428,0.687 -0.726,1.411 -0.892,2.172l2.199 1.258 11.588 6.405 -10.885 -12.178c-0.831,0.71 -1.501,1.491 -2.01,2.343z"/>
      </g>
      <g>
       <path class="fil1" d="M192.805 64.55c1.723,6.338 -1.785,10.121 -10.524,11.349l-0.824 9.464 2.453 0.067 7.699 -4.835 3.267 5.131 25.636 0.693 1.084 -12.453c-4.375,-1.25 -5.984,-3.906 -4.827,-7.969l-12.376 4.958 -11.588 -6.405 0 0zm12.427 10.022c-0.308,-0.308 -0.444,-0.661 -0.409,-1.059 0.034,-0.399 0.233,-0.76 0.596,-1.083 0.326,-0.29 0.689,-0.43 1.09,-0.42 0.401,0.011 0.738,0.17 1.013,0.477 0.271,0.34 0.39,0.71 0.355,1.108 -0.035,0.398 -0.216,0.743 -0.542,1.034 -0.326,0.291 -0.69,0.431 -1.091,0.42 -0.4,-0.011 -0.738,-0.17 -1.012,-0.477l0 0zm-1.725 4.247c2.404,0.065 4.438,0.337 6.102,0.815 1.498,0.473 2.308,0.977 2.428,1.513l-17.374 -0.469c0.18,-0.528 1.056,-0.987 2.629,-1.377 1.74,-0.386 3.812,-0.547 6.215,-0.482l0 0zm-13.304 -20.131c0.496,0.845 0.927,1.656 1.295,2.432 0.509,-0.852 1.179,-1.633 2.01,-2.343l-3.305 -0.089z"/>
      </g>
      <path class="fil6" d="M209.609 79.634c-1.664,-0.478 -3.698,-0.75 -6.102,-0.815 -2.403,-0.065 -4.475,0.096 -6.215,0.482 -1.573,0.39 -2.449,0.849 -2.629,1.377l17.374 0.469c-0.12,-0.536 -0.929,-1.04 -2.428,-1.513z"/>
      <g>
       <path class="fil7" d="M204.823 73.513c-0.035,0.398 0.101,0.751 0.409,1.059 0.274,0.307 0.612,0.466 1.012,0.477 0.401,0.011 0.765,-0.129 1.091,-0.42 0.326,-0.291 0.507,-0.635 0.542,-1.034 0.035,-0.398 -0.084,-0.768 -0.355,-1.108 -0.275,-0.307 -0.612,-0.466 -1.013,-0.477 -0.401,-0.011 -0.764,0.13 -1.09,0.42 -0.363,0.323 -0.562,0.684 -0.596,1.083l0 0zm-13.214 7.082l-7.699 4.835 10.966 0.296 -3.267 -5.131z"/>
      </g>
     </g>
    </g>
   </g>
  </g>
  <g id="body_FL_FL_FL_FL">
   <g>
    <g>
     <g>
      <g>
       <path class="fil0" d="M302.107 100.913l-0.334 -4.035 -25.512 2.114 -10.913 0.904 -2.442 0.203 0.335 4.036 38.866 -3.222 0 0zm-33.355 -25.932c-0.495,-0.729 -1.06,-1.485 -1.693,-2.268l-6.378 0.528 1.441 17.39c8.449,-2.171 11.284,-6.303 8.505,-12.394l-2.391 -1.006c0.036,-0.773 0.208,-1.522 0.516,-2.25l0 0zm30.795 -4.961l-6.079 0.504c1.103,2.015 1.484,4.192 1.143,6.528 -0.459,4.152 1.584,6.608 6.129,7.368l-1.193 -14.4z"/>
      </g>
      <polygon class="fil4" points="283.189,83.316 293.468,70.524 270.347,72.44 "/>
      <g>
       <path class="fil5" d="M294.611 77.052c0.341,-2.336 -0.04,-4.512 -1.143,-6.528l-10.279 12.792 11.422 -6.264 0 0zm-25.859 -2.071c-0.308,0.728 -0.48,1.477 -0.516,2.25l2.391 1.006 12.562 5.079 -12.842 -10.876c-0.703,0.794 -1.235,1.641 -1.595,2.541z"/>
      </g>
      <g>
       <path class="fil1" d="M270.627 78.237c2.779,6.091 -0.056,10.223 -8.505,12.394l0.784 9.468 2.442 -0.203 6.808 -5.631 4.105 4.727 25.512 -2.114 -1.033 -12.458c-4.545,-0.76 -6.588,-3.216 -6.129,-7.368l-11.422 6.264 -12.562 -5.079 0 0zm14.006 8.572c-0.357,-0.271 -0.552,-0.607 -0.585,-1.005 -0.033,-0.399 0.102,-0.778 0.407,-1.138 0.274,-0.323 0.611,-0.502 1.009,-0.535 0.399,-0.033 0.76,0.088 1.084,0.362 0.326,0.307 0.506,0.66 0.539,1.059 0.033,0.399 -0.087,0.76 -0.362,1.084 -0.274,0.323 -0.61,0.502 -1.009,0.535 -0.398,0.033 -0.759,-0.088 -1.083,-0.362l0 0zm-0.99 4.397c2.391,-0.198 4.452,-0.152 6.182,0.14 1.564,0.305 2.451,0.716 2.661,1.234l-17.29 1.433c0.088,-0.543 0.879,-1.093 2.371,-1.651 1.659,-0.573 3.684,-0.958 6.076,-1.156l0 0zm-16.584 -18.493c0.633,0.783 1.197,1.539 1.693,2.268 0.36,-0.9 0.892,-1.747 1.595,-2.541l-3.288 0.273z"/>
      </g>
      <path class="fil6" d="M289.825 91.346c-1.73,-0.292 -3.791,-0.338 -6.182,-0.14 -2.392,0.198 -4.417,0.583 -6.076,1.156 -1.492,0.558 -2.283,1.108 -2.371,1.651l17.29 -1.433c-0.21,-0.518 -1.097,-0.929 -2.661,-1.234z"/>
      <g>
       <path class="fil7" d="M284.048 85.804c0.033,0.399 0.228,0.734 0.585,1.005 0.324,0.274 0.685,0.395 1.083,0.362 0.399,-0.033 0.735,-0.212 1.009,-0.535 0.275,-0.324 0.395,-0.685 0.362,-1.084 -0.033,-0.399 -0.213,-0.752 -0.539,-1.059 -0.324,-0.274 -0.685,-0.395 -1.084,-0.362 -0.398,0.033 -0.735,0.212 -1.009,0.535 -0.305,0.36 -0.44,0.739 -0.407,1.138l0 0zm-11.892 8.461l-6.808 5.631 10.913 -0.904 -4.105 -4.727z"/>
      </g>
     </g>
    </g>
   </g>
  </g>
  <g id="body_FL_FL_FL_FL_FL">
   <g>
    <g>
     <g>
      <g>
       <path class="fil0" d="M378.173 86.504l0 -4.05 -21.278 1.659 -9.101 0.709 -2.036 0.158 0 4.051 32.415 -2.527 0 0zm-25.849 -26.585c-0.36,-0.739 -0.776,-1.506 -1.247,-2.303l-5.319 0.415 0 17.45c7.148,-2.024 9.78,-6.113 7.896,-12.266l-1.912 -1.051c0.083,-0.773 0.278,-1.521 0.582,-2.245l0 0zm25.849 -4.415l-5.07 0.396c0.776,2.039 0.942,4.226 0.499,6.561 -0.665,4.151 0.859,6.649 4.571,7.494l0 -14.451z"/>
      </g>
      <polygon class="fil4" points="363.711,68.532 373.103,55.9 353.82,57.402 "/>
      <g>
       <path class="fil5" d="M373.602 62.461c0.443,-2.335 0.277,-4.522 -0.499,-6.561l-9.392 12.632 9.891 -6.071 0 0zm-21.278 -2.542c-0.304,0.724 -0.499,1.472 -0.582,2.245l1.912 1.051 10.057 5.317 -9.891 -11.13c-0.637,0.783 -1.136,1.622 -1.496,2.517z"/>
      </g>
      <g>
       <path class="fil1" d="M353.654 63.215c1.884,6.153 -0.748,10.242 -7.896,12.266l0 9.499 2.036 -0.158 6.026 -5.52 3.075 4.811 21.278 -1.659 0 -12.499c-3.712,-0.844 -5.236,-3.343 -4.571,-7.494l-9.891 6.071 -10.057 -5.317 0 0zm11.013 8.842c-0.277,-0.278 -0.416,-0.618 -0.416,-1.018 0,-0.4 0.139,-0.777 0.416,-1.132 0.249,-0.319 0.54,-0.492 0.873,-0.518 0.332,-0.026 0.623,0.101 0.872,0.382 0.25,0.314 0.374,0.671 0.374,1.071 0,0.4 -0.124,0.76 -0.374,1.079 -0.249,0.319 -0.54,0.492 -0.872,0.518 -0.333,0.026 -0.624,-0.101 -0.873,-0.382l0 0zm-1.122 4.387c1.995,-0.155 3.698,-0.071 5.111,0.252 1.275,0.334 1.981,0.762 2.12,1.285l-14.421 1.124c0.111,-0.542 0.804,-1.08 2.078,-1.612 1.413,-0.544 3.117,-0.893 5.112,-1.049l0 0zm-12.468 -18.828c0.471,0.797 0.887,1.564 1.247,2.303 0.36,-0.895 0.859,-1.734 1.496,-2.517l-2.743 0.214z"/>
      </g>
      <path class="fil6" d="M368.656 76.696c-1.413,-0.323 -3.116,-0.407 -5.111,-0.252 -1.995,0.156 -3.699,0.505 -5.112,1.049 -1.274,0.532 -1.967,1.07 -2.078,1.612l14.421 -1.124c-0.139,-0.523 -0.845,-0.951 -2.12,-1.285z"/>
      <g>
       <path class="fil7" d="M364.251 71.039c0,0.4 0.139,0.74 0.416,1.018 0.249,0.281 0.54,0.408 0.873,0.382 0.332,-0.026 0.623,-0.199 0.872,-0.518 0.25,-0.319 0.374,-0.679 0.374,-1.079 0,-0.4 -0.124,-0.757 -0.374,-1.071 -0.249,-0.281 -0.54,-0.408 -0.872,-0.382 -0.333,0.026 -0.624,0.199 -0.873,0.518 -0.277,0.355 -0.416,0.732 -0.416,1.132l0 0zm-10.431 8.263l-6.026 5.52 9.101 -0.709 -3.075 -4.811z"/>
      </g>
     </g>
    </g>
   </g>
  </g>
  <g id="body_FL_FL_FL_FL_FL_FL">
   <g>
    <g>
     <g>
      <g>
       <path class="fil0" d="M61.991 201.997l-0.279 -4.04 -25.539 1.765 -10.924 0.755 -2.444 0.169 0.279 4.04 38.907 -2.689 0 0zm-32.997 -26.387c-0.486,-0.735 -1.039,-1.499 -1.662,-2.291l-6.385 0.441 1.203 17.409c8.479,-2.057 11.37,-6.149 8.674,-12.278l-2.377 -1.038c0.047,-0.772 0.229,-1.52 0.547,-2.243l0 0zm30.86 -4.539l-6.086 0.42c1.076,2.031 1.428,4.212 1.054,6.543 -0.515,4.146 1.494,6.63 6.028,7.453l-0.996 -14.416z"/>
      </g>
      <polygon class="fil4" points="43.316,184.143 53.768,171.491 30.624,173.091 "/>
      <g>
       <path class="fil5" d="M54.822 178.034c0.374,-2.331 0.022,-4.512 -1.054,-6.543l-10.452 12.652 11.506 -6.109 0 0zm-25.828 -2.424c-0.318,0.723 -0.5,1.471 -0.547,2.243l2.377 1.038 12.492 5.252 -12.692 -11.052c-0.715,0.785 -1.258,1.624 -1.63,2.519z"/>
      </g>
      <g>
       <path class="fil1" d="M30.824 178.891c2.696,6.129 -0.195,10.221 -8.674,12.278l0.655 9.477 2.444 -0.169 6.885 -5.538 4.039 4.783 25.539 -1.765 -0.862 -12.47c-4.534,-0.823 -6.543,-3.307 -6.028,-7.453l-11.506 6.109 -12.492 -5.252 0 0zm13.887 8.763c-0.353,-0.276 -0.543,-0.613 -0.571,-1.012 -0.027,-0.4 0.114,-0.777 0.423,-1.132 0.279,-0.321 0.618,-0.494 1.017,-0.522 0.399,-0.027 0.758,0.098 1.078,0.377 0.323,0.312 0.497,0.667 0.525,1.066 0.028,0.399 -0.098,0.759 -0.377,1.079 -0.278,0.32 -0.617,0.493 -1.016,0.521 -0.399,0.028 -0.758,-0.098 -1.079,-0.377l0 0zm-1.05 4.383c2.394,-0.165 4.455,-0.09 6.18,0.225 1.56,0.326 2.441,0.75 2.644,1.27l-17.309 1.197c0.097,-0.541 0.895,-1.081 2.395,-1.619 1.666,-0.55 3.696,-0.907 6.09,-1.073l0 0zm-16.329 -18.718c0.623,0.792 1.176,1.556 1.662,2.291 0.372,-0.895 0.915,-1.734 1.63,-2.519l-3.292 0.228z"/>
      </g>
      <path class="fil6" d="M49.841 192.262c-1.725,-0.315 -3.786,-0.39 -6.18,-0.225 -2.394,0.166 -4.424,0.523 -6.09,1.073 -1.5,0.538 -2.298,1.077 -2.395,1.619l17.309 -1.197c-0.203,-0.52 -1.084,-0.944 -2.644,-1.27z"/>
      <g>
       <path class="fil7" d="M44.14 186.642c0.028,0.399 0.218,0.736 0.571,1.012 0.321,0.279 0.68,0.405 1.079,0.377 0.399,-0.028 0.738,-0.201 1.016,-0.521 0.279,-0.32 0.405,-0.68 0.377,-1.079 -0.028,-0.399 -0.203,-0.754 -0.525,-1.066 -0.32,-0.279 -0.679,-0.404 -1.078,-0.377 -0.399,0.028 -0.738,0.201 -1.017,0.522 -0.309,0.355 -0.45,0.732 -0.423,1.132l0 0zm-12.006 8.297l-6.885 5.538 10.924 -0.755 -4.039 -4.783z"/>
      </g>
     </g>
    </g>
   </g>
  </g>
  <g id="body_FL_FL_FL_FL_FL_FL_FL">
   <g>
    <g>
     <g>
      <g>
       <path class="fil0" d="M140.69 203.281l0.16 -4.047 -25.58 -1.009 -10.942 -0.432 -2.448 -0.097 -0.16 4.047 38.97 1.538 0 0zm-29.948 -29.804c-0.403,-0.783 -0.871,-1.602 -1.404,-2.457l-6.396 -0.253 -0.688 17.437c8.651,-1.127 11.969,-4.882 9.952,-11.267l-2.25 -1.289c0.13,-0.763 0.392,-1.486 0.786,-2.171l0 0zm31.17 -1.172l-6.095 -0.241c0.85,2.135 0.963,4.342 0.339,6.619 -0.961,4.065 0.768,6.752 5.186,8.061l0.57 -14.439z"/>
      </g>
      <polygon class="fil4" points="124.057,183.509 135.817,172.064 112.635,171.15 "/>
      <g>
       <path class="fil5" d="M136.156 178.683c0.624,-2.277 0.511,-4.483 -0.339,-6.619l-11.76 11.445 12.099 -4.826 0 0zm-25.414 -5.206c-0.394,0.685 -0.656,1.408 -0.786,2.171l2.25 1.289 11.851 6.572 -11.422 -12.359c-0.795,0.702 -1.426,1.478 -1.893,2.327z"/>
      </g>
      <g>
       <path class="fil1" d="M112.206 176.937c2.017,6.385 -1.3,10.14 -9.952,11.267l-0.374 9.492 2.448 0.097 7.443 -4.76 3.499 5.192 25.58 1.009 0.492 -12.49c-4.418,-1.309 -6.147,-3.996 -5.186,-8.061l-12.099 4.826 -11.851 -6.572 0 0zm12.858 10.215c-0.322,-0.313 -0.474,-0.669 -0.459,-1.069 0.016,-0.4 0.197,-0.759 0.544,-1.079 0.311,-0.288 0.667,-0.424 1.067,-0.408 0.399,0.015 0.743,0.179 1.031,0.491 0.286,0.344 0.422,0.717 0.406,1.117 -0.016,0.399 -0.179,0.743 -0.491,1.031 -0.311,0.288 -0.667,0.424 -1.067,0.408 -0.399,-0.016 -0.743,-0.179 -1.031,-0.491l0 0zm-1.519 4.243c2.398,0.095 4.438,0.392 6.12,0.892 1.515,0.494 2.345,1.01 2.49,1.55l-17.336 -0.684c0.154,-0.528 1.006,-0.978 2.555,-1.35 1.716,-0.366 3.773,-0.502 6.171,-0.408l0 0zm-14.207 -20.375c0.533,0.855 1.001,1.674 1.404,2.457 0.467,-0.849 1.098,-1.625 1.893,-2.327l-3.297 -0.13z"/>
      </g>
      <path class="fil6" d="M129.665 192.287c-1.682,-0.5 -3.722,-0.797 -6.12,-0.892 -2.398,-0.094 -4.455,0.042 -6.171,0.408 -1.549,0.372 -2.401,0.822 -2.555,1.35l17.336 0.684c-0.145,-0.54 -0.975,-1.056 -2.49,-1.55z"/>
      <g>
       <path class="fil7" d="M124.605 186.083c-0.015,0.4 0.137,0.756 0.459,1.069 0.288,0.312 0.632,0.475 1.031,0.491 0.4,0.016 0.756,-0.12 1.067,-0.408 0.312,-0.288 0.475,-0.632 0.491,-1.031 0.016,-0.4 -0.12,-0.773 -0.406,-1.117 -0.288,-0.312 -0.632,-0.476 -1.031,-0.491 -0.4,-0.016 -0.756,0.12 -1.067,0.408 -0.347,0.32 -0.528,0.679 -0.544,1.079l0 0zm-12.834 6.95l-7.443 4.76 10.942 0.432 -3.499 -5.192z"/>
      </g>
     </g>
    </g>
   </g>
  </g>
  <g id="body_FL_FL_FL_FL_FL_FL_FL_FL">
   <g>
    <g>
     <g>
      <g>
       <path class="fil0" d="M211.85 205.15l0 -4.05 -25.6 0 -10.95 0 -2.45 0 0 4.05 39 0 0 0zm-31.1 -28.6c-0.433,-0.767 -0.933,-1.567 -1.5,-2.4l-6.4 0 0 17.45c8.6,-1.467 11.767,-5.35 9.5,-11.65l-2.3 -1.2c0.1,-0.767 0.333,-1.5 0.7,-2.2l0 0zm31.1 -2.4l-6.1 0c0.933,2.1 1.133,4.3 0.6,6.6 -0.8,4.1 1.033,6.717 5.5,7.85l0 -14.45z"/>
      </g>
      <polygon class="fil4" points="194.45,186.05 205.75,174.15 182.55,174.15 "/>
      <g>
       <path class="fil5" d="M206.35 180.75c0.533,-2.3 0.333,-4.5 -0.6,-6.6l-11.3 11.9 11.9 -5.3 0 0zm-25.6 -4.2c-0.367,0.7 -0.6,1.433 -0.7,2.2l2.3 1.2 12.1 6.1 -11.9 -11.9c-0.767,0.733 -1.367,1.533 -1.8,2.4z"/>
      </g>
      <g>
       <path class="fil1" d="M182.35 179.95c2.267,6.3 -0.9,10.183 -9.5,11.65l0 9.5 2.45 0 7.25 -5.05 3.7 5.05 25.6 0 0 -12.5c-4.467,-1.133 -6.3,-3.75 -5.5,-7.85l-11.9 5.3 -12.1 -6.1 0 0zm13.25 9.7c-0.334,-0.3 -0.5,-0.65 -0.5,-1.05 0,-0.4 0.166,-0.767 0.5,-1.1 0.3,-0.3 0.65,-0.45 1.05,-0.45 0.4,0 0.75,0.15 1.05,0.45 0.3,0.333 0.45,0.7 0.45,1.1 0,0.4 -0.15,0.75 -0.45,1.05 -0.3,0.3 -0.65,0.45 -1.05,0.45 -0.4,0 -0.75,-0.15 -1.05,-0.45l0 0zm-1.35 4.3c2.4,0 4.45,0.217 6.15,0.65 1.533,0.433 2.383,0.917 2.55,1.45l-17.35 0c0.133,-0.533 0.966,-1.017 2.5,-1.45 1.7,-0.433 3.75,-0.65 6.15,-0.65l0 0zm-15 -19.8c0.567,0.833 1.067,1.633 1.5,2.4 0.433,-0.867 1.033,-1.667 1.8,-2.4l-3.3 0z"/>
      </g>
      <path class="fil6" d="M200.4 194.6c-1.7,-0.433 -3.75,-0.65 -6.15,-0.65 -2.4,0 -4.45,0.217 -6.15,0.65 -1.534,0.433 -2.367,0.917 -2.5,1.45l17.35 0c-0.167,-0.533 -1.017,-1.017 -2.55,-1.45z"/>
      <g>
       <path class="fil7" d="M195.1 188.6c0,0.4 0.166,0.75 0.5,1.05 0.3,0.3 0.65,0.45 1.05,0.45 0.4,0 0.75,-0.15 1.05,-0.45 0.3,-0.3 0.45,-0.65 0.45,-1.05 0,-0.4 -0.15,-0.767 -0.45,-1.1 -0.3,-0.3 -0.65,-0.45 -1.05,-0.45 -0.4,0 -0.75,0.15 -1.05,0.45 -0.334,0.333 -0.5,0.7 -0.5,1.1l0 0zm-12.55 7.45l-7.25 5.05 10.95 0 -3.7 -5.05z"/>
      </g>
     </g>
    </g>
   </g>
  </g>
  <g id="body_FL_FL_FL_FL_FL_FL_FL_FL_FL">
   <g>
    <g>
     <g>
      <g>
       <path class="fil0" d="M369.612 201.063l-0.335 -4.036 -22.765 3.139 -9.738 1.343 -2.179 0.301 0.335 4.036 34.682 -4.783 0 0zm-30.019 -24.688c-0.449,-0.711 -0.96,-1.447 -1.532,-2.208l-5.692 0.785 1.441 17.39c7.527,-2.516 10.022,-6.775 7.486,-12.775l-2.144 -0.913c0.025,-0.777 0.172,-1.536 0.441,-2.279l0 0zm27.458 -6.206l-5.425 0.749c1.004,1.978 1.364,4.146 1.079,6.503 -0.373,4.184 1.474,6.567 5.54,7.149l-1.194 -14.401z"/>
      </g>
      <polygon class="fil4" points="352.56,184.162 361.626,170.918 340.995,173.762 "/>
      <g>
       <path class="fil5" d="M362.705 177.421c0.285,-2.357 -0.075,-4.525 -1.079,-6.503l-9.066 13.244 10.145 -6.741 0 0zm-23.112 -1.046c-0.269,0.743 -0.416,1.502 -0.441,2.279l2.144 0.913 11.264 4.595 -11.565 -10.4c-0.621,0.826 -1.089,1.696 -1.402,2.613z"/>
      </g>
      <g>
       <path class="fil1" d="M341.296 179.567c2.536,6 0.041,10.259 -7.486,12.775l0.785 9.468 2.179 -0.301 6.03 -5.922 3.708 4.579 22.765 -3.139 -1.032 -12.457c-4.066,-0.582 -5.913,-2.965 -5.54,-7.149l-10.145 6.741 -11.264 -4.595 0 0zm12.585 8.042c-0.322,-0.258 -0.499,-0.586 -0.532,-0.985 -0.033,-0.399 0.085,-0.784 0.354,-1.157 0.242,-0.336 0.541,-0.529 0.896,-0.578 0.356,-0.049 0.68,0.058 0.971,0.32 0.295,0.295 0.458,0.642 0.491,1.041 0.034,0.398 -0.071,0.766 -0.313,1.101 -0.242,0.336 -0.541,0.529 -0.896,0.578 -0.356,0.049 -0.68,-0.058 -0.971,-0.32l0 0zm-0.846 4.451c2.134,-0.295 3.975,-0.33 5.523,-0.107 1.399,0.244 2.195,0.622 2.387,1.133l-15.429 2.128c0.075,-0.548 0.776,-1.132 2.104,-1.752 1.476,-0.641 3.281,-1.108 5.415,-1.402l0 0zm-14.974 -17.893c0.572,0.761 1.083,1.497 1.532,2.208 0.313,-0.917 0.781,-1.787 1.402,-2.613l-2.934 0.405z"/>
      </g>
      <path class="fil6" d="M358.558 191.953c-1.548,-0.223 -3.389,-0.188 -5.523,0.107 -2.134,0.294 -3.939,0.761 -5.415,1.402 -1.328,0.62 -2.029,1.204 -2.104,1.752l15.429 -2.128c-0.192,-0.511 -0.988,-0.889 -2.387,-1.133z"/>
      <g>
       <path class="fil7" d="M353.349 186.624c0.033,0.399 0.21,0.727 0.532,0.985 0.291,0.262 0.615,0.369 0.971,0.32 0.355,-0.049 0.654,-0.242 0.896,-0.578 0.242,-0.335 0.347,-0.703 0.313,-1.101 -0.033,-0.399 -0.196,-0.746 -0.491,-1.041 -0.291,-0.263 -0.615,-0.369 -0.971,-0.32 -0.355,0.049 -0.654,0.242 -0.896,0.578 -0.269,0.373 -0.387,0.758 -0.354,1.157l0 0zm-10.545 8.963l-6.03 5.922 9.738 -1.343 -3.708 -4.579z"/>
      </g>
     </g>
    </g>
   </g>
  </g>
  <g id="body_FL_FL_FL_FL_FL_FL_FL_FL_FL_FL">
   <g>
    <g>
     <g>
      <g>
       <path class="fil0" d="M448.47 207.314l0.405 -4.03 -23.386 -4.69 -10.003 -2.006 -2.238 -0.449 -0.405 4.03 35.627 7.145 0 0zm-25.549 -34.154c-0.32,-0.842 -0.696,-1.73 -1.131,-2.663l-5.846 -1.172 -1.746 17.362c8.003,0.116 11.285,-3.167 9.844,-9.851l-1.981 -1.615c0.168,-0.745 0.454,-1.432 0.86,-2.061l0 0zm28.65 3.31l-5.573 -1.118c0.643,2.261 0.605,4.486 -0.112,6.677 -1.141,3.933 0.273,6.872 4.24,8.818l1.445 -14.377z"/>
      </g>
      <polygon class="fil4" points="434.485,185.122 445.998,175.352 424.805,171.102 "/>
      <g>
       <path class="fil5" d="M445.886 182.029c0.718,-2.191 0.755,-4.416 0.112,-6.677l-11.513 9.77 11.401 -3.093 0 0zm-22.965 -8.869c-0.406,0.629 -0.692,1.316 -0.86,2.061l1.981 1.615 10.443 8.286 -9.68 -14.02c-0.774,0.589 -1.402,1.275 -1.884,2.058z"/>
      </g>
      <g>
       <path class="fil1" d="M424.042 176.836c1.441,6.684 -1.841,9.967 -9.844,9.851l-0.95 9.452 2.238 0.449 7.128 -3.696 2.875 5.702 23.386 4.69 1.251 -12.437c-3.967,-1.946 -5.381,-4.885 -4.24,-8.818l-11.401 3.093 -10.443 -8.286 0 0zm11.134 12.079c-0.275,-0.36 -0.392,-0.739 -0.352,-1.137 0.04,-0.398 0.229,-0.732 0.567,-1.003 0.304,-0.243 0.639,-0.328 1.004,-0.255 0.365,0.074 0.67,0.287 0.914,0.64 0.241,0.387 0.341,0.779 0.301,1.177 -0.04,0.398 -0.212,0.719 -0.516,0.962 -0.304,0.244 -0.639,0.329 -1.004,0.256 -0.366,-0.073 -0.67,-0.287 -0.914,-0.64l0 0zm-1.663 4.031c2.192,0.439 4.043,1.031 5.553,1.773 1.357,0.712 2.085,1.349 2.184,1.91l-15.849 -3.179c0.175,-0.506 0.984,-0.834 2.428,-0.984 1.597,-0.12 3.491,0.04 5.684,0.48l0 0zm-11.723 -22.449c0.435,0.933 0.811,1.821 1.131,2.663 0.482,-0.783 1.11,-1.469 1.884,-2.058l-3.015 -0.605z"/>
      </g>
      <path class="fil6" d="M439.066 194.719c-1.51,-0.742 -3.361,-1.334 -5.553,-1.773 -2.193,-0.44 -4.087,-0.6 -5.684,-0.48 -1.444,0.15 -2.253,0.478 -2.428,0.984l15.849 3.179c-0.099,-0.561 -0.827,-1.198 -2.184,-1.91z"/>
      <g>
       <path class="fil7" d="M434.824 187.778c-0.04,0.398 0.077,0.777 0.352,1.137 0.244,0.353 0.549,0.567 0.914,0.64 0.365,0.073 0.7,-0.012 1.004,-0.256 0.304,-0.243 0.476,-0.564 0.516,-0.962 0.04,-0.398 -0.06,-0.79 -0.301,-1.177 -0.244,-0.353 -0.549,-0.566 -0.914,-0.64 -0.365,-0.073 -0.7,0.012 -1.004,0.255 -0.338,0.271 -0.527,0.605 -0.567,1.003l0 0zm-12.21 5.114l-7.128 3.696 10.003 2.006 -2.875 -5.702z"/>
      </g>
     </g>
    </g>
   </g>
  </g>
  <g id="body_FL_FL_FL_FL_FL_FL_FL_FL_FL_FL_FL">
   <g>
    <g>
     <g>
      <g>
       <path class="fil0" d="M534.918 198.673l-0.455 -4.025 -23.032 4.626 -9.851 1.978 -2.204 0.443 0.456 4.025 35.086 -7.047 0 0zm-31.196 -22.799c-0.477,-0.683 -1.016,-1.388 -1.62,-2.114l-5.758 1.157 1.963 17.339c7.572,-3.011 9.984,-7.442 7.237,-13.293l-2.205 -0.777c0.004,-0.779 0.132,-1.55 0.383,-2.312l0 0zm27.709 -8.004l-5.488 1.102c1.076,1.918 1.503,4.068 1.282,6.45 -0.258,4.218 1.686,6.487 5.831,6.806l-1.625 -14.358z"/>
      </g>
      <polygon class="fil4" points="517.116,182.838 525.943,168.972 505.071,173.164 "/>
      <g>
       <path class="fil5" d="M527.225 175.422c0.221,-2.382 -0.206,-4.532 -1.282,-6.45l-8.827 13.866 10.109 -7.416 0 0zm-23.503 0.452c-0.251,0.762 -0.379,1.533 -0.383,2.312l2.205 0.777 11.572 3.875 -12.045 -9.674c-0.607,0.867 -1.057,1.77 -1.349,2.71z"/>
      </g>
      <g>
       <path class="fil1" d="M505.544 178.963c2.747,5.851 0.335,10.282 -7.237,13.293l1.069 9.439 2.204 -0.443 5.954 -6.327 3.897 4.349 23.032 -4.626 -1.407 -12.42c-4.145,-0.319 -6.089,-2.588 -5.831,-6.806l-10.109 7.416 -11.572 -3.875 0 0zm13.011 7.244c-0.334,-0.237 -0.523,-0.555 -0.568,-0.953 -0.045,-0.397 0.064,-0.791 0.326,-1.183 0.236,-0.352 0.535,-0.565 0.894,-0.637 0.36,-0.072 0.692,0.014 0.996,0.258 0.307,0.277 0.483,0.614 0.528,1.011 0.045,0.398 -0.05,0.773 -0.286,1.125 -0.237,0.352 -0.535,0.565 -0.895,0.637 -0.36,0.072 -0.691,-0.014 -0.995,-0.258l0 0zm-0.73 4.517c2.159,-0.434 4.027,-0.589 5.605,-0.465 1.429,0.153 2.248,0.48 2.458,0.98l-15.609 3.135c0.059,-0.554 0.755,-1.185 2.086,-1.893 1.48,-0.738 3.3,-1.323 5.46,-1.757l0 0zm-15.723 -16.964c0.604,0.726 1.144,1.431 1.62,2.114 0.292,-0.94 0.742,-1.843 1.349,-2.71l-2.969 0.596z"/>
      </g>
      <path class="fil6" d="M523.43 190.259c-1.578,-0.124 -3.447,0.031 -5.605,0.465 -2.16,0.434 -3.98,1.019 -5.46,1.757 -1.331,0.708 -2.027,1.339 -2.086,1.893l15.609 -3.135c-0.21,-0.5 -1.029,-0.827 -2.458,-0.98z"/>
      <g>
       <path class="fil7" d="M517.987 185.254c0.045,0.398 0.234,0.716 0.568,0.953 0.304,0.244 0.635,0.33 0.995,0.258 0.36,-0.072 0.658,-0.285 0.895,-0.637 0.236,-0.352 0.331,-0.727 0.286,-1.125 -0.045,-0.397 -0.221,-0.734 -0.528,-1.011 -0.304,-0.244 -0.636,-0.33 -0.996,-0.258 -0.359,0.072 -0.658,0.285 -0.894,0.637 -0.262,0.392 -0.371,0.786 -0.326,1.183l0 0zm-10.453 9.671l-5.954 6.327 9.851 -1.978 -3.897 -4.349z"/>
      </g>
     </g>
    </g>
   </g>
  </g>
  <g id="body_FL_FL_FL_FL_FL_FL_FL_FL_FL_FL_FL_FL">
   <g>
    <g>
     <g>
      <g>
       <path class="fil0" d="M621.4 95.15l0 -4.05 -25.6 0 -10.95 0 -2.45 0 0 4.05 39 0 0 0zm-31.1 -28.6c-0.433,-0.767 -0.933,-1.567 -1.5,-2.4l-6.4 0 0 17.45c8.6,-1.467 11.767,-5.35 9.5,-11.65l-2.3 -1.2c0.1,-0.767 0.333,-1.5 0.7,-2.2l0 0zm31.1 -2.4l-6.1 0c0.934,2.1 1.134,4.3 0.6,6.6 -0.8,4.1 1.034,6.716 5.5,7.85l0 -14.45z"/>
      </g>
      <polygon class="fil4" points="604,76.05 615.3,64.15 592.1,64.15 "/>
      <g>
       <path class="fil5" d="M615.9 70.75c0.534,-2.3 0.334,-4.5 -0.6,-6.6l-11.3 11.9 11.9 -5.3 0 0zm-25.6 -4.2c-0.367,0.7 -0.6,1.433 -0.7,2.2l2.3 1.2 12.1 6.1 -11.9 -11.9c-0.767,0.733 -1.366,1.533 -1.8,2.4z"/>
      </g>
      <g>
       <path class="fil1" d="M591.9 69.95c2.267,6.3 -0.9,10.183 -9.5,11.65l0 9.5 2.45 0 7.25 -5.05 3.7 5.05 25.6 0 0 -12.5c-4.466,-1.134 -6.3,-3.75 -5.5,-7.85l-11.9 5.3 -12.1 -6.1 0 0zm13.25 9.7c-0.333,-0.3 -0.5,-0.65 -0.5,-1.05 0,-0.4 0.167,-0.767 0.5,-1.1 0.3,-0.3 0.65,-0.45 1.05,-0.45 0.4,0 0.75,0.15 1.05,0.45 0.3,0.333 0.45,0.7 0.45,1.1 0,0.4 -0.15,0.75 -0.45,1.05 -0.3,0.3 -0.65,0.45 -1.05,0.45 -0.4,0 -0.75,-0.15 -1.05,-0.45l0 0zm-1.35 4.3c2.4,0 4.45,0.216 6.15,0.65 1.534,0.433 2.384,0.916 2.55,1.45l-17.35 0c0.134,-0.534 0.967,-1.017 2.5,-1.45 1.7,-0.434 3.75,-0.65 6.15,-0.65l0 0zm-15 -19.8c0.567,0.833 1.067,1.633 1.5,2.4 0.434,-0.867 1.033,-1.667 1.8,-2.4l-3.3 0z"/>
      </g>
      <path class="fil6" d="M609.95 84.6c-1.7,-0.434 -3.75,-0.65 -6.15,-0.65 -2.4,0 -4.45,0.216 -6.15,0.65 -1.533,0.433 -2.367,0.916 -2.5,1.45l17.35 0c-0.166,-0.534 -1.016,-1.017 -2.55,-1.45z"/>
      <g>
       <path class="fil7" d="M604.65 78.6c0,0.4 0.167,0.75 0.5,1.05 0.3,0.3 0.65,0.45 1.05,0.45 0.4,0 0.75,-0.15 1.05,-0.45 0.3,-0.3 0.45,-0.65 0.45,-1.05 0,-0.4 -0.15,-0.767 -0.45,-1.1 -0.3,-0.3 -0.65,-0.45 -1.05,-0.45 -0.4,0 -0.75,0.15 -1.05,0.45 -0.333,0.333 -0.5,0.7 -0.5,1.1l0 0zm-12.55 7.45l-7.25 5.05 10.95 0 -3.7 -5.05z"/>
      </g>
     </g>
    </g>
   </g>
  </g>
  <g id="body_FL_FL_FL_FL_FL_FL_FL_FL_FL_FL_FL_FL_FL">
   <g>
    <g>
     <g>
      <g>
       <path class="fil0" d="M618.572 199.15l0 -4.05 -22.94 0 -9.812 0 -2.196 0 0 4.05 34.948 0 0 0zm-27.869 -28.6c-0.388,-0.767 -0.836,-1.567 -1.344,-2.4l-5.735 0 0 17.45c7.707,-1.467 10.544,-5.35 8.513,-11.65l-2.061 -1.2c0.09,-0.767 0.299,-1.5 0.627,-2.2l0 0zm27.869 -2.4l-5.466 0c0.837,2.1 1.016,4.3 0.538,6.6 -0.717,4.1 0.926,6.717 4.928,7.85l0 -14.45z"/>
      </g>
      <polygon class="fil4" points="602.98,180.05 613.106,168.15 592.316,168.15 "/>
      <g>
       <path class="fil5" d="M613.644 174.75c0.478,-2.3 0.299,-4.5 -0.538,-6.6l-10.126 11.9 10.664 -5.3 0 0zm-22.941 -4.2c-0.328,0.7 -0.537,1.433 -0.627,2.2l2.061 1.2 10.843 6.1 -10.664 -11.9c-0.687,0.733 -1.224,1.533 -1.613,2.4z"/>
      </g>
      <g>
       <path class="fil1" d="M592.137 173.95c2.031,6.3 -0.806,10.183 -8.513,11.65l0 9.5 2.196 0 6.496 -5.05 3.316 5.05 22.94 0 0 -12.5c-4.002,-1.133 -5.645,-3.75 -4.928,-7.85l-10.664 5.3 -10.843 -6.1 0 0zm11.874 9.7c-0.299,-0.3 -0.449,-0.65 -0.449,-1.05 0,-0.4 0.15,-0.767 0.449,-1.1 0.268,-0.3 0.582,-0.45 0.94,-0.45 0.359,0 0.673,0.15 0.942,0.45 0.268,0.333 0.403,0.7 0.403,1.1 0,0.4 -0.135,0.75 -0.403,1.05 -0.269,0.3 -0.583,0.45 -0.942,0.45 -0.358,0 -0.672,-0.15 -0.94,-0.45l0 0zm-1.21 4.3c2.15,0 3.988,0.217 5.511,0.65 1.374,0.433 2.136,0.917 2.285,1.45l-15.548 0c0.12,-0.533 0.867,-1.017 2.241,-1.45 1.523,-0.433 3.36,-0.65 5.511,-0.65l0 0zm-13.442 -19.8c0.508,0.833 0.956,1.633 1.344,2.4 0.389,-0.867 0.926,-1.667 1.613,-2.4l-2.957 0z"/>
      </g>
      <path class="fil6" d="M608.312 188.6c-1.523,-0.433 -3.361,-0.65 -5.511,-0.65 -2.151,0 -3.988,0.217 -5.511,0.65 -1.374,0.433 -2.121,0.917 -2.241,1.45l15.548 0c-0.149,-0.533 -0.911,-1.017 -2.285,-1.45z"/>
      <g>
       <path class="fil7" d="M603.562 182.6c0,0.4 0.15,0.75 0.449,1.05 0.268,0.3 0.582,0.45 0.94,0.45 0.359,0 0.673,-0.15 0.942,-0.45 0.268,-0.3 0.403,-0.65 0.403,-1.05 0,-0.4 -0.135,-0.767 -0.403,-1.1 -0.269,-0.3 -0.583,-0.45 -0.942,-0.45 -0.358,0 -0.672,0.15 -0.94,0.45 -0.299,0.333 -0.449,0.7 -0.449,1.1l0 0zm-11.246 7.45l-6.496 5.05 9.812 0 -3.316 -5.05z"/>
      </g>
     </g>
    </g>
   </g>
  </g>
  <g id="body_FL_FL_FL_FL_FL_FL_FL_FL_FL_FL_FL_FL_FL_FL">
   <g>
    <g>
     <g>
      <g>
       <path class="fil0" d="M146.03 291.469l-3.839 -1.543 -11.522 16.757 -4.928 7.167 -1.103 1.603 3.839 1.543 17.553 -25.527 0 0zm-41.106 9.46c-0.922,-0.008 -1.905,0.014 -2.95,0.068l-2.88 4.189 16.54 6.648c2.48,-6.188 0.225,-9.74 -6.767,-10.657l-2.173 1.049c-0.682,-0.358 -1.272,-0.79 -1.77,-1.297l0 0zm11.723 -21.271l-2.746 3.993c2.411,0.19 4.586,0.897 6.526,2.122 3.526,2.086 6.831,1.883 9.916,-0.609l-13.696 -5.506z"/>
      </g>
      <polygon class="fil4" points="120.095,295.581 113.901,283.651 103.459,298.837 "/>
      <g>
       <path class="fil5" d="M120.427 285.773c-1.94,-1.225 -4.115,-1.932 -6.526,-2.122l6.194 11.93 0.332 -9.808 0 0zm-15.503 15.156c0.498,0.507 1.088,0.939 1.77,1.297l2.173 -1.049 11.228 -5.596 -16.636 3.256c0.35,0.781 0.839,1.479 1.465,2.092z"/>
      </g>
      <g>
       <path class="fil1" d="M108.867 301.177c6.992,0.917 9.247,4.469 6.767,10.657l9.004 3.619 1.103 -1.603 -1.524 -6.67 6.452 -0.497 11.522 -16.757 -11.848 -4.762c-3.085,2.492 -6.39,2.695 -9.916,0.609l-0.332 9.808 -11.228 5.596 0 0zm15.157 -4.977c-0.434,0.104 -0.841,0.08 -1.22,-0.073 -0.379,-0.152 -0.651,-0.401 -0.817,-0.746 -0.15,-0.311 -0.135,-0.597 0.045,-0.859 0.181,-0.262 0.48,-0.433 0.9,-0.515 0.45,-0.07 0.866,-0.028 1.245,0.124 0.379,0.152 0.643,0.384 0.792,0.695 0.15,0.31 0.135,0.597 -0.046,0.858 -0.18,0.262 -0.479,0.434 -0.899,0.516l0 0zm3.469 2.522c1.08,-1.571 2.208,-2.83 3.383,-3.778 1.101,-0.838 1.942,-1.211 2.523,-1.116l-7.809 11.356c-0.446,-0.291 -0.529,-1.02 -0.249,-2.189 0.354,-1.278 1.071,-2.702 2.152,-4.273l0 0zm-25.519 2.275c1.045,-0.054 2.028,-0.076 2.95,-0.068 -0.626,-0.613 -1.115,-1.311 -1.465,-2.092l-1.485 2.16z"/>
      </g>
      <path class="fil6" d="M130.876 294.944c-1.175,0.948 -2.303,2.207 -3.383,3.778 -1.081,1.571 -1.798,2.995 -2.152,4.273 -0.28,1.169 -0.197,1.898 0.249,2.189l7.809 -11.356c-0.581,-0.095 -1.422,0.278 -2.523,1.116z"/>
      <g>
       <path class="fil7" d="M122.804 296.127c0.379,0.153 0.786,0.177 1.22,0.073 0.42,-0.082 0.719,-0.254 0.899,-0.516 0.181,-0.261 0.196,-0.548 0.046,-0.858 -0.149,-0.311 -0.413,-0.543 -0.792,-0.695 -0.379,-0.152 -0.794,-0.194 -1.245,-0.124 -0.42,0.082 -0.719,0.254 -0.9,0.515 -0.18,0.262 -0.195,0.548 -0.045,0.859 0.166,0.345 0.438,0.594 0.817,0.746l0 0zm1.413 11.053l1.524 6.67 4.928 -7.167 -6.452 0.497z"/>
      </g>
     </g>
    </g>
   </g>
  </g>
  <g id="body_FL_FL_FL_FL_FL_FL_FL_FL_FL_FL_FL_FL_FL_FL_FL">
   <g>
    <g>
     <g>
      <g>
       <path class="fil0" d="M701.9 94.15l0 -4.05 -25.6 0 -10.95 0 -2.45 0 0 4.05 39 0 0 0zm-31.1 -28.6c-0.433,-0.767 -0.933,-1.567 -1.5,-2.4l-6.4 0 0 17.45c8.6,-1.467 11.767,-5.35 9.5,-11.65l-2.3 -1.2c0.101,-0.767 0.334,-1.5 0.7,-2.2l0 0zm31.1 -2.4l-6.1 0c0.934,2.1 1.134,4.3 0.6,6.6 -0.8,4.1 1.034,6.717 5.5,7.85l0 -14.45z"/>
      </g>
      <polygon class="fil4" points="684.5,75.05 695.8,63.15 672.6,63.15 "/>
      <g>
       <path class="fil5" d="M696.4 69.75c0.534,-2.3 0.334,-4.5 -0.6,-6.6l-11.3 11.9 11.9 -5.3 0 0zm-25.6 -4.2c-0.366,0.7 -0.6,1.433 -0.7,2.2l2.3 1.2 12.1 6.1 -11.9 -11.9c-0.766,0.733 -1.366,1.533 -1.8,2.4z"/>
      </g>
      <g>
       <path class="fil1" d="M672.4 68.95c2.267,6.3 -0.9,10.183 -9.5,11.65l0 9.5 2.45 0 7.25 -5.05 3.7 5.05 25.6 0 0 -12.5c-4.466,-1.133 -6.3,-3.75 -5.5,-7.85l-11.9 5.3 -12.1 -6.1 0 0zm13.25 9.7c-0.333,-0.3 -0.5,-0.65 -0.5,-1.05 0,-0.4 0.167,-0.767 0.5,-1.1 0.3,-0.3 0.65,-0.45 1.05,-0.45 0.4,0 0.75,0.15 1.05,0.45 0.3,0.333 0.45,0.7 0.45,1.1 0,0.4 -0.15,0.75 -0.45,1.05 -0.3,0.3 -0.65,0.45 -1.05,0.45 -0.4,0 -0.75,-0.15 -1.05,-0.45l0 0zm-1.35 4.3c2.4,0 4.45,0.217 6.15,0.65 1.534,0.433 2.384,0.917 2.55,1.45l-17.35 0c0.134,-0.533 0.967,-1.017 2.5,-1.45 1.7,-0.433 3.75,-0.65 6.15,-0.65l0 0zm-15 -19.8c0.567,0.833 1.067,1.633 1.5,2.4 0.434,-0.867 1.034,-1.667 1.8,-2.4l-3.3 0z"/>
      </g>
      <path class="fil6" d="M690.45 83.6c-1.7,-0.433 -3.75,-0.65 -6.15,-0.65 -2.4,0 -4.45,0.217 -6.15,0.65 -1.533,0.433 -2.366,0.917 -2.5,1.45l17.35 0c-0.167,-0.533 -1.016,-1.017 -2.55,-1.45z"/>
      <g>
       <path class="fil7" d="M685.15 77.6c0,0.4 0.167,0.75 0.5,1.05 0.3,0.3 0.65,0.45 1.05,0.45 0.4,0 0.75,-0.15 1.05,-0.45 0.3,-0.3 0.45,-0.65 0.45,-1.05 0,-0.4 -0.15,-0.767 -0.45,-1.1 -0.3,-0.3 -0.65,-0.45 -1.05,-0.45 -0.4,0 -0.75,0.15 -1.05,0.45 -0.333,0.333 -0.5,0.7 -0.5,1.1l0 0zm-12.55 7.45l-7.25 5.05 10.95 0 -3.7 -5.05z"/>
      </g>
     </g>
    </g>
   </g>
  </g>
  <g id="body_FL_FL_FL_FL_FL_FL_FL_FL_FL_FL_FL_FL_FL_FL_FL_FL">
   <g>
    <g>
     <g>
      <g>
       <path class="fil0" d="M699.522 199.15l0 -4.05 -22.94 0 -9.812 0 -2.196 0 0 4.05 34.948 0 0 0zm-27.868 -28.6c-0.389,-0.767 -0.837,-1.567 -1.345,-2.4l-5.735 0 0 17.45c7.707,-1.467 10.544,-5.35 8.513,-11.65l-2.061 -1.2c0.09,-0.767 0.299,-1.5 0.628,-2.2l0 0zm27.868 -2.4l-5.466 0c0.837,2.1 1.016,4.3 0.538,6.6 -0.717,4.1 0.926,6.717 4.928,7.85l0 -14.45z"/>
      </g>
      <polygon class="fil4" points="683.93,180.05 694.056,168.15 673.266,168.15 "/>
      <g>
       <path class="fil5" d="M694.594 174.75c0.478,-2.3 0.299,-4.5 -0.538,-6.6l-10.126 11.9 10.664 -5.3 0 0zm-22.94 -4.2c-0.329,0.7 -0.538,1.433 -0.628,2.2l2.061 1.2 10.843 6.1 -10.664 -11.9c-0.687,0.733 -1.224,1.533 -1.612,2.4z"/>
      </g>
      <g>
       <path class="fil1" d="M673.087 173.95c2.031,6.3 -0.806,10.183 -8.513,11.65l0 9.5 2.196 0 6.496 -5.05 3.316 5.05 22.94 0 0 -12.5c-4.002,-1.133 -5.645,-3.75 -4.928,-7.85l-10.664 5.3 -10.843 -6.1 0 0zm11.874 9.7c-0.299,-0.3 -0.448,-0.65 -0.448,-1.05 0,-0.4 0.149,-0.767 0.448,-1.1 0.268,-0.3 0.582,-0.45 0.941,-0.45 0.358,0 0.672,0.15 0.941,0.45 0.268,0.333 0.403,0.7 0.403,1.1 0,0.4 -0.135,0.75 -0.403,1.05 -0.269,0.3 -0.583,0.45 -0.941,0.45 -0.359,0 -0.673,-0.15 -0.941,-0.45l0 0zm-1.21 4.3c2.15,0 3.988,0.217 5.511,0.65 1.374,0.433 2.136,0.917 2.285,1.45l-15.547 0c0.119,-0.533 0.866,-1.017 2.24,-1.45 1.523,-0.433 3.36,-0.65 5.511,-0.65l0 0zm-13.442 -19.8c0.508,0.833 0.956,1.633 1.345,2.4 0.388,-0.867 0.926,-1.667 1.612,-2.4l-2.957 0z"/>
      </g>
      <path class="fil6" d="M689.262 188.6c-1.523,-0.433 -3.36,-0.65 -5.511,-0.65 -2.151,0 -3.988,0.217 -5.511,0.65 -1.374,0.433 -2.121,0.917 -2.24,1.45l15.547 0c-0.149,-0.533 -0.911,-1.017 -2.285,-1.45z"/>
      <g>
       <path class="fil7" d="M684.513 182.6c0,0.4 0.149,0.75 0.448,1.05 0.268,0.3 0.582,0.45 0.941,0.45 0.358,0 0.672,-0.15 0.941,-0.45 0.268,-0.3 0.403,-0.65 0.403,-1.05 0,-0.4 -0.135,-0.767 -0.403,-1.1 -0.269,-0.3 -0.583,-0.45 -0.941,-0.45 -0.359,0 -0.673,0.15 -0.941,0.45 -0.299,0.333 -0.448,0.7 -0.448,1.1l0 0zm-11.247 7.45l-6.496 5.05 9.812 0 -3.316 -5.05z"/>
      </g>
     </g>
    </g>
   </g>
  </g>
  <g id="body_FL_FL_FL_FL_FL_FL_FL_FL_FL_FL_FL_FL_FL_FL_FL_FL_FL">
   <g>
    <g>
     <g>
      <g>
       <path class="fil0" d="M288.082 205.15l0.49 -4.05 -23.605 0 -10.097 0 -2.259 0 -0.49 4.05 35.961 0 0 0zm-25.218 -28.6c-0.307,-0.767 -0.671,-1.567 -1.093,-2.4l-5.901 0 -2.11 17.45c8.107,-1.467 11.497,-5.35 10.168,-11.65l-1.975 -1.2c0.184,-0.767 0.488,-1.5 0.911,-2.2l0 0zm28.967 -2.4l-5.625 0c0.607,2.1 0.525,4.3 -0.245,6.6 -1.233,4.1 0.141,6.717 4.123,7.85l1.747 -14.45z"/>
      </g>
      <polygon class="fil4" points="274.348,186.05 286.206,174.15 264.814,174.15 "/>
      <g>
       <path class="fil5" d="M285.961 180.75c0.77,-2.3 0.852,-4.5 0.245,-6.6l-11.858 11.9 11.613 -5.3 0 0zm-23.097 -4.2c-0.423,0.7 -0.727,1.433 -0.911,2.2l1.975 1.2 10.42 6.1 -9.534 -11.9c-0.796,0.733 -1.446,1.533 -1.95,2.4z"/>
      </g>
      <g>
       <path class="fil1" d="M263.928 179.95c1.329,6.3 -2.061,10.183 -10.168,11.65l-1.149 9.5 2.259 0 7.296 -5.05 2.801 5.05 23.605 0 1.512 -12.5c-3.982,-1.133 -5.356,-3.75 -4.123,-7.85l-11.613 5.3 -10.42 -6.1 0 0zm11.045 9.7c-0.271,-0.3 -0.382,-0.65 -0.334,-1.05 0.048,-0.4 0.246,-0.767 0.594,-1.1 0.313,-0.3 0.654,-0.45 1.022,-0.45 0.369,0 0.674,0.15 0.914,0.45 0.237,0.333 0.33,0.7 0.282,1.1 -0.049,0.4 -0.229,0.75 -0.542,1.05 -0.313,0.3 -0.654,0.45 -1.022,0.45 -0.369,0 -0.674,-0.15 -0.914,-0.45l0 0zm-1.765 4.3c2.213,0 4.077,0.217 5.592,0.65 1.362,0.433 2.087,0.917 2.176,1.45l-15.998 0c0.188,-0.533 1.014,-1.017 2.481,-1.45 1.619,-0.433 3.536,-0.65 5.749,-0.65l0 0zm-11.437 -19.8c0.422,0.833 0.786,1.633 1.093,2.4 0.504,-0.867 1.154,-1.667 1.95,-2.4l-3.043 0z"/>
      </g>
      <path class="fil6" d="M278.8 194.6c-1.515,-0.433 -3.379,-0.65 -5.592,-0.65 -2.213,0 -4.13,0.217 -5.749,0.65 -1.467,0.433 -2.293,0.917 -2.481,1.45l15.998 0c-0.089,-0.533 -0.814,-1.017 -2.176,-1.45z"/>
      <g>
       <path class="fil7" d="M274.639 188.6c-0.049,0.4 0.063,0.75 0.334,1.05 0.24,0.3 0.545,0.45 0.914,0.45 0.368,0 0.709,-0.15 1.022,-0.45 0.313,-0.3 0.493,-0.65 0.542,-1.05 0.048,-0.4 -0.045,-0.767 -0.282,-1.1 -0.24,-0.3 -0.545,-0.45 -0.914,-0.45 -0.368,0 -0.709,0.15 -1.022,0.45 -0.348,0.333 -0.546,0.7 -0.594,1.1l0 0zm-12.473 7.45l-7.296 5.05 10.097 0 -2.801 -5.05z"/>
      </g>
     </g>
    </g>
   </g>
  </g>
  <g id="body_FL_FL_FL_FL_FL_FL_FL_FL_FL_FL_FL_FL_FL_FL_FL_FL_FL_FL">
   <g>
    <g>
     <g>
      <g>
       <path class="fil0" d="M225.272 302.124l0 -4.05 -22.94 3.874 -9.812 1.656 -2.196 0.37 0 4.051 34.948 -5.901 0 0zm-27.869 -23.895c-0.388,-0.701 -0.836,-1.425 -1.344,-2.173l-5.735 0.969 0 17.45c7.706,-2.768 10.544,-7.13 8.513,-13.088l-2.061 -0.852c0.089,-0.782 0.299,-1.55 0.627,-2.306l0 0zm27.869 -7.105l-5.466 0.923c0.836,1.959 1.015,4.129 0.537,6.509 -0.717,4.221 0.926,6.561 4.929,7.018l0 -14.45z"/>
      </g>
      <polygon class="fil4" points="209.68,285.657 219.806,272.047 199.016,275.557 "/>
      <g>
       <path class="fil5" d="M220.343 278.556c0.478,-2.38 0.299,-4.55 -0.537,-6.509l-10.126 13.61 10.663 -7.101 0 0zm-22.94 -0.327c-0.328,0.756 -0.537,1.524 -0.627,2.306l2.061 0.852 10.843 4.27 -10.664 -10.1c-0.687,0.849 -1.224,1.74 -1.613,2.672z"/>
      </g>
      <g>
       <path class="fil1" d="M198.837 281.387c2.031,5.958 -0.807,10.32 -8.513,13.088l0 9.499 2.196 -0.37 6.496 -6.147 3.316 4.491 22.94 -3.874 0 -12.5c-4.003,-0.457 -5.646,-2.797 -4.929,-7.018l-10.663 7.101 -10.843 -4.27 0 0zm11.873 7.696c-0.299,-0.25 -0.448,-0.575 -0.448,-0.975 0,-0.399 0.149,-0.791 0.448,-1.175 0.269,-0.346 0.583,-0.548 0.941,-0.609 0.358,-0.06 0.672,0.036 0.941,0.291 0.269,0.288 0.403,0.632 0.403,1.032 0,0.4 -0.134,0.773 -0.403,1.118 -0.269,0.345 -0.583,0.548 -0.941,0.609 -0.358,0.06 -0.672,-0.036 -0.941,-0.291l0 0zm-1.209 4.504c2.15,-0.363 3.987,-0.457 5.511,-0.28 1.373,0.201 2.135,0.556 2.285,1.064l-15.548 2.625c0.12,-0.554 0.866,-1.163 2.241,-1.829 1.523,-0.69 3.36,-1.217 5.511,-1.58l0 0zm-13.442 -17.531c0.508,0.748 0.956,1.472 1.344,2.173 0.388,-0.932 0.926,-1.822 1.613,-2.672l-2.957 0.499z"/>
      </g>
      <path class="fil6" d="M215.012 293.307c-1.524,-0.176 -3.361,-0.083 -5.511,0.28 -2.151,0.363 -3.988,0.89 -5.511,1.58 -1.375,0.666 -2.121,1.275 -2.241,1.829l15.548 -2.625c-0.15,-0.508 -0.911,-0.863 -2.285,-1.064z"/>
      <g>
       <path class="fil7" d="M210.262 288.108c0,0.4 0.149,0.725 0.448,0.975 0.269,0.255 0.583,0.351 0.941,0.291 0.358,-0.061 0.672,-0.264 0.941,-0.609 0.269,-0.346 0.403,-0.718 0.403,-1.118 0,-0.4 -0.134,-0.744 -0.403,-1.032 -0.269,-0.255 -0.583,-0.352 -0.941,-0.291 -0.358,0.061 -0.672,0.264 -0.941,0.609 -0.299,0.384 -0.448,0.776 -0.448,1.175l0 0zm-11.246 9.349l-6.496 6.147 9.812 -1.656 -3.316 -4.491z"/>
      </g>
     </g>
    </g>
   </g>
  </g>
  <g id="body_FL_FL_FL_FL_FL_FL_FL_FL_FL_FL_FL_FL_FL_FL_FL_FL_FL_FL_FL">
   <g>
    <g>
     <g>
      <g>
       <path class="fil0" d="M299.544 311.233l0 -4.05 -23.608 0.534 -10.099 0.228 -2.259 0.051 0 4.05 35.966 -0.813 0 0zm-28.68 -27.951c-0.4,-0.758 -0.861,-1.547 -1.384,-2.369l-5.902 0.133 0 17.45c7.931,-1.646 10.851,-5.595 8.761,-11.848l-2.121 -1.152c0.092,-0.768 0.307,-1.507 0.646,-2.214l0 0zm28.68 -3.049l-5.625 0.127c0.86,2.081 1.045,4.277 0.553,6.588 -0.738,4.116 0.953,6.695 5.072,7.735l0 -14.45z"/>
      </g>
      <polygon class="fil4" points="283.498,292.496 293.919,280.36 272.523,280.844 "/>
      <g>
       <path class="fil5" d="M294.472 286.948c0.492,-2.311 0.307,-4.507 -0.553,-6.588l-10.421 12.136 10.974 -5.548 0 0zm-23.608 -3.666c-0.339,0.707 -0.554,1.446 -0.646,2.214l2.121 1.152 11.159 5.848 -10.975 -11.652c-0.707,0.75 -1.26,1.562 -1.659,2.438z"/>
      </g>
      <g>
       <path class="fil1" d="M272.339 286.648c2.09,6.253 -0.83,10.202 -8.761,11.848l0 9.5 2.259 -0.051 6.686 -5.201 3.413 4.973 23.608 -0.534 0 -12.5c-4.119,-1.04 -5.81,-3.619 -5.072,-7.735l-10.974 5.548 -11.159 -5.848 0 0zm12.219 9.424c-0.307,-0.293 -0.461,-0.64 -0.461,-1.04 0,-0.4 0.154,-0.77 0.461,-1.11 0.277,-0.306 0.6,-0.464 0.969,-0.472 0.368,-0.008 0.691,0.134 0.968,0.428 0.277,0.327 0.415,0.691 0.415,1.091 0,0.399 -0.138,0.753 -0.415,1.059 -0.277,0.306 -0.6,0.464 -0.968,0.472 -0.369,0.008 -0.692,-0.134 -0.969,-0.428l0 0zm-1.245 4.328c2.214,-0.05 4.104,0.124 5.672,0.522 1.414,0.401 2.198,0.867 2.351,1.397l-16 0.361c0.123,-0.536 0.891,-1.036 2.306,-1.502 1.567,-0.468 3.458,-0.728 5.671,-0.778l0 0zm-13.833 -19.487c0.523,0.822 0.984,1.611 1.384,2.369 0.399,-0.876 0.952,-1.689 1.659,-2.438l-3.043 0.069z"/>
      </g>
      <path class="fil6" d="M288.985 300.922c-1.568,-0.398 -3.458,-0.572 -5.672,-0.522 -2.213,0.05 -4.104,0.31 -5.671,0.778 -1.415,0.466 -2.183,0.966 -2.306,1.502l16 -0.361c-0.153,-0.53 -0.937,-0.996 -2.351,-1.397z"/>
      <g>
       <path class="fil7" d="M284.097 295.032c0,0.4 0.154,0.747 0.461,1.04 0.277,0.294 0.6,0.436 0.969,0.428 0.368,-0.008 0.691,-0.166 0.968,-0.472 0.277,-0.306 0.415,-0.659 0.415,-1.059 0,-0.4 -0.138,-0.764 -0.415,-1.091 -0.277,-0.293 -0.6,-0.436 -0.968,-0.428 -0.369,0.008 -0.692,0.166 -0.969,0.472 -0.307,0.34 -0.461,0.71 -0.461,1.11l0 0zm-11.574 7.712l-6.686 5.201 10.099 -0.228 -3.413 -4.973z"/>
      </g>
     </g>
    </g>
   </g>
  </g>
  <g>
   <g>
    <g>
     <g>
      <g>
       <path class="fil0" d="M342.35 310.1l0 4.05 39 0 0 -4.05 -39 0 0 0zm0 -12.5c4.467,-1.133 6.3,-3.75 5.5,-7.85 -0.533,-2.3 -0.333,-4.5 0.6,-6.6l-6.1 0 0 14.45 0 0zm32.9 -14.45c0.933,2.1 1.134,4.3 0.6,6.6 -0.8,4.1 1.033,6.717 5.5,7.85l0 -14.45 -6.1 0z"/>
      </g>
      <path class="fil1" d="M375.85 289.75c0.533,-2.3 0.333,-4.5 -0.6,-6.6l-26.8 0c-0.933,2.1 -1.133,4.3 -0.6,6.6 0.8,4.1 -1.033,6.717 -5.5,7.85l0 12.5 39 0 0 -12.5c-4.466,-1.133 -6.3,-3.75 -5.5,-7.85z"/>
     </g>
    </g>
   </g>
   <g>
    <g>
     <g>
      <path class="fil2" d="M367.801 307.937l-2.554 0 -7.878 0 -2.519 0c4.317,1.103 8.634,1.103 12.951,0z"/>
      <g>
       <path class="fil3" d="M364.024 302.649l-5.396 0 -1.835 1.691 0.576 3.597 7.878 0 0.611 -3.597 -1.834 -1.691 0 0zm-3.454 -6.583c0,0.216 0.072,0.396 0.216,0.54 0.144,0.167 0.324,0.251 0.539,0.251 0.216,0 0.396,-0.084 0.54,-0.251 0.144,-0.144 0.216,-0.324 0.216,-0.54 0,-0.192 -0.072,-0.372 -0.216,-0.54 -0.144,-0.144 -0.324,-0.215 -0.54,-0.215 -0.215,0 -0.395,0.071 -0.539,0.215 -0.144,0.168 -0.216,0.348 -0.216,0.54l0 0zm-7.194 0.288l0 1.439 7.949 1.151 7.951 -1.151 0 -1.439 -7.951 1.151 -7.949 -1.151z"/>
      </g>
      <g>
       <path class="fil0" d="M358.628 302.649l5.396 0 1.834 1.691 -0.611 3.597 2.554 0 0.719 0c0.504,0 0.756,-0.252 0.756,-0.756l0 -9.388 -7.951 1.151 -7.949 -1.151 0 9.388c0,0.504 0.251,0.756 0.755,0.756l0.719 0 2.519 0 -0.576 -3.597 1.835 -1.691 0 0zm-5.252 -11.223l0 4.928 7.949 1.151 7.951 -1.151 0 -4.928c0,-0.504 -0.252,-0.756 -0.756,-0.756l-14.389 0c-0.504,0 -0.755,0.252 -0.755,0.756l0 0zm7.41 5.18c-0.144,-0.144 -0.216,-0.324 -0.216,-0.54 0,-0.192 0.072,-0.372 0.216,-0.54 0.144,-0.144 0.324,-0.215 0.539,-0.215 0.216,0 0.396,0.071 0.54,0.215 0.144,0.168 0.216,0.348 0.216,0.54 0,0.216 -0.072,0.396 -0.216,0.54 -0.144,0.167 -0.324,0.251 -0.54,0.251 -0.215,0 -0.395,-0.084 -0.539,-0.251z"/>
      </g>
     </g>
    </g>
   </g>
  </g>
  <g id="body_FL_FL_FL_FL_FL_FL_FL_FL_FL_FL_FL_FL_FL_FL_FL_FL_FL_FL_FL_FL_FL">
   <g>
    <g>
     <g>
      <g>
       <path class="fil0" d="M461.35 315.15l0 -4.05 -25.6 0 -10.95 0 -2.45 0 0 4.05 39 0 0 0zm-31.1 -28.6c-0.433,-0.766 -0.933,-1.567 -1.5,-2.4l-6.4 0 0 17.45c8.6,-1.467 11.767,-5.35 9.5,-11.65l-2.3 -1.2c0.1,-0.767 0.334,-1.5 0.7,-2.2l0 0zm31.1 -2.4l-6.1 0c0.933,2.1 1.133,4.3 0.6,6.6 -0.8,4.1 1.033,6.717 5.5,7.85l0 -14.45z"/>
      </g>
      <polygon class="fil4" points="443.95,296.05 455.25,284.15 432.05,284.15 "/>
      <g>
       <path class="fil5" d="M455.85 290.75c0.533,-2.3 0.333,-4.5 -0.6,-6.6l-11.3 11.9 11.9 -5.3 0 0zm-25.6 -4.2c-0.366,0.7 -0.6,1.433 -0.7,2.2l2.3 1.2 12.1 6.1 -11.9 -11.9c-0.767,0.733 -1.367,1.533 -1.8,2.4z"/>
      </g>
      <g>
       <path class="fil1" d="M431.85 289.95c2.267,6.3 -0.9,10.183 -9.5,11.65l0 9.5 2.45 0 7.25 -5.05 3.7 5.05 25.6 0 0 -12.5c-4.467,-1.133 -6.3,-3.75 -5.5,-7.85l-11.9 5.3 -12.1 -6.1 0 0zm13.25 9.7c-0.333,-0.3 -0.5,-0.65 -0.5,-1.05 0,-0.4 0.167,-0.766 0.5,-1.1 0.3,-0.3 0.65,-0.45 1.05,-0.45 0.4,0 0.75,0.15 1.05,0.45 0.3,0.334 0.45,0.7 0.45,1.1 0,0.4 -0.15,0.75 -0.45,1.05 -0.3,0.3 -0.65,0.45 -1.05,0.45 -0.4,0 -0.75,-0.15 -1.05,-0.45l0 0zm-1.35 4.3c2.4,0 4.45,0.217 6.15,0.65 1.533,0.434 2.383,0.917 2.55,1.45l-17.35 0c0.133,-0.533 0.967,-1.016 2.5,-1.45 1.7,-0.433 3.75,-0.65 6.15,-0.65l0 0zm-15 -19.8c0.567,0.833 1.067,1.634 1.5,2.4 0.433,-0.867 1.033,-1.667 1.8,-2.4l-3.3 0z"/>
      </g>
      <path class="fil6" d="M449.9 304.6c-1.7,-0.433 -3.75,-0.65 -6.15,-0.65 -2.4,0 -4.45,0.217 -6.15,0.65 -1.533,0.434 -2.367,0.917 -2.5,1.45l17.35 0c-0.167,-0.533 -1.017,-1.016 -2.55,-1.45z"/>
      <g>
       <path class="fil7" d="M444.6 298.6c0,0.4 0.167,0.75 0.5,1.05 0.3,0.3 0.65,0.45 1.05,0.45 0.4,0 0.75,-0.15 1.05,-0.45 0.3,-0.3 0.45,-0.65 0.45,-1.05 0,-0.4 -0.15,-0.766 -0.45,-1.1 -0.3,-0.3 -0.65,-0.45 -1.05,-0.45 -0.4,0 -0.75,0.15 -1.05,0.45 -0.333,0.334 -0.5,0.7 -0.5,1.1l0 0zm-12.55 7.45l-7.25 5.05 10.95 0 -3.7 -5.05z"/>
      </g>
     </g>
    </g>
   </g>
  </g>
  <g>
   <g>
    <g>
     <g>
      <g>
       <path class="fil0" d="M457.403 81.28l0 4.05 -38.493 6.199 0 -4.05 38.493 -6.199 0 0zm0 -12.5c-4.408,-0.423 -6.218,-2.749 -5.428,-6.976 0.526,-2.384 0.329,-4.553 -0.592,-6.505l6.02 -0.969 0 14.45 0 0zm-32.473 -9.221c-0.921,2.248 -1.118,4.48 -0.592,6.695 0.79,3.973 -1.02,6.881 -5.428,8.725l0 -14.451 6.02 -0.969z"/>
      </g>
      <path class="fil1" d="M424.338 66.254c-0.526,-2.215 -0.329,-4.447 0.592,-6.695l26.453 -4.26c0.921,1.952 1.118,4.121 0.592,6.505 -0.79,4.227 1.02,6.553 5.428,6.976l0 12.5 -38.493 6.199 0 -12.5c4.408,-1.844 6.218,-4.752 5.428,-8.725z"/>
     </g>
    </g>
   </g>
   <g>
    <g>
     <g>
      <path class="fil2" d="M432.283 83.162l2.521 -0.406 7.776 -1.252 2.485 -0.4c-4.261,1.789 -8.521,2.475 -12.782,2.058z"/>
      <g>
       <path class="fil3" d="M436.011 77.274l5.326 -0.858 1.811 1.399 -0.568 3.689 -7.776 1.252 -0.603 -3.5 1.81 -1.982 0 0zm3.409 -7.132c0,0.215 -0.071,0.407 -0.213,0.574 -0.142,0.191 -0.32,0.303 -0.533,0.337 -0.213,0.035 -0.39,-0.021 -0.533,-0.166 -0.142,-0.121 -0.212,-0.289 -0.212,-0.505 0,-0.192 0.071,-0.383 0.212,-0.574 0.143,-0.167 0.32,-0.267 0.533,-0.302 0.213,-0.034 0.391,0.009 0.533,0.131 0.142,0.144 0.213,0.313 0.213,0.505l0 0zm7.101 -0.856l0 1.439 -7.847 2.415 -7.847 0.112 0 -1.439 7.847 -0.112 7.847 -2.415z"/>
      </g>
      <g>
       <path class="fil0" d="M441.337 76.416l-5.326 0.858 -1.81 1.982 0.603 3.5 -2.521 0.406 -0.71 0.114c-0.497,0.08 -0.746,-0.132 -0.746,-0.635l0 -9.389 7.847 -0.112 7.847 -2.415 0 9.389c0,0.503 -0.249,0.795 -0.746,0.875l-0.71 0.115 -2.485 0.4 0.568 -3.689 -1.811 -1.399 0 0zm5.184 -12.058l0 4.928 -7.847 2.415 -7.847 0.112 0 -4.928c0,-0.504 0.249,-0.795 0.746,-0.875l14.202 -2.287c0.497,-0.081 0.746,0.131 0.746,0.635l0 0zm-7.314 6.358c0.142,-0.167 0.213,-0.359 0.213,-0.574 0,-0.192 -0.071,-0.361 -0.213,-0.505 -0.142,-0.122 -0.32,-0.165 -0.533,-0.131 -0.213,0.035 -0.39,0.135 -0.533,0.302 -0.142,0.191 -0.212,0.382 -0.212,0.574 0,0.216 0.071,0.384 0.212,0.505 0.143,0.145 0.32,0.201 0.533,0.166 0.213,-0.034 0.391,-0.146 0.533,-0.337z"/>
      </g>
     </g>
    </g>
   </g>
  </g>
 </g>
</svg>
