<?xml version="1.0" encoding="UTF-8"?>
<!DOCTYPE svg PUBLIC "-//W3C//DTD SVG 1.1//EN" "http://www.w3.org/Graphics/SVG/1.1/DTD/svg11.dtd">
<!-- Creator: CorelDRAW 2018 (64-Bit) -->
<svg xmlns="http://www.w3.org/2000/svg" xml:space="preserve" width="720px" height="330px" version="1.1" style="shape-rendering:geometricPrecision; text-rendering:geometricPrecision; image-rendering:optimizeQuality; fill-rule:evenodd; clip-rule:evenodd"
viewBox="0 0 720 330"
 xmlns:xlink="http://www.w3.org/1999/xlink">
 <defs>
  <style type="text/css">
   <![CDATA[
    .fil1 {fill:#747B64}
    .fil2 {fill:#889176}
    .fil3 {fill:#91663C}
    .fil0 {fill:#B8824D}
    .fil4 {fill:#C3DAE2}
    .fil5 {fill:#D9C195}
   ]]>
  </style>
 </defs>
 <g id="Слой_x0020_1">
  <metadata id="CorelCorpID_0Corel-Layer"/>
  <g id="_1143231008">
   <g>
    <g>
     <g>
      <polygon class="fil0" points="502.597,81.23 502.597,85.33 541.091,91.529 541.091,87.429 514.935,83.217 "/>
      <g>
       <path class="fil1" d="M520.116 79.601l-1.974 1.332 0.691 1.511 2.221 -0.792 -0.938 -2.051 0 0zm-4.737 -10.663c-0.691,-0.511 -1.448,-0.25 -2.271,0.785l1.432 3.18 1.974 -1.382 -1.135 -2.583 0 0zm3.257 1.125l2.32 -1.627 -2.567 -3.413c-0.921,-0.382 -1.678,0.18 -2.27,1.685l2.517 3.355 0 0zm7.55 5.316l-2.319 1.576 2.418 3.19 2.221 -1.643 -2.32 -3.123z"/>
      </g>
      <g>
       <path class="fil2" d="M513.108 69.723c0.823,-1.035 1.58,-1.296 2.271,-0.785l1.135 2.583 2.122 -1.458 -2.517 -3.355c0.592,-1.505 1.349,-2.067 2.27,-1.685l2.567 3.413 13.077 -9.044 -31.436 -5.062 0 26.9 11.943 -8.327 -1.432 -3.18 0 0zm13.078 5.656l2.32 3.123 -2.221 1.643 -2.418 -3.19 -3.751 2.646 0.938 2.051 -2.221 0.792 -0.691 -1.511 -3.207 2.284 26.156 4.212 0 -22.35 -14.905 10.3z"/>
      </g>
      <polygon class="fil3" points="541.091,60.528 534.033,59.392 520.956,68.436 518.636,70.063 516.514,71.521 514.54,72.903 502.597,81.23 514.935,83.217 518.142,80.933 520.116,79.601 523.867,76.955 526.186,75.379 541.091,65.079 "/>
     </g>
    </g>
   </g>
  </g>
  <g id="body">
   <g>
    <g id="_1143275392">
     <g>
      <g>
       <path class="fil0" d="M39.359 311.05l-3.576 0 0.44 4.1 15.037 0 -0.44 -4.1 -11.461 0 0 0zm-10.177 0l-14.12 0 0.44 4.1 14.12 0 -0.44 -4.1z"/>
      </g>
      <polygon class="fil4" points="29.021,309.55 29.182,311.05 29.622,315.15 36.223,315.15 35.783,311.05 35.622,309.55 "/>
      <g>
       <path class="fil5" d="M23.241 297.55l0.005 0.05c-0.232,0.967 -0.115,1.917 0.352,2.85 0.47,0.967 1.168,1.634 2.094,2 0.929,0.4 1.798,0.383 2.608,-0.05 0.156,-0.071 0.3,-0.155 0.431,-0.25l-5.49 -4.6 0 0zm8.134 -2.8l0.206 -0.65c0.263,-0.967 0.144,-1.933 -0.357,-2.9 -0.467,-0.933 -1.165,-1.6 -2.094,-2 -0.926,-0.367 -1.795,-0.35 -2.608,0.05 -0.353,0.182 -0.666,0.399 -0.939,0.65l5.792 4.85 0 0zm7.237 3.35c0.042,0.4 0.247,0.6 0.614,0.6l5.593 0c0.367,0 0.529,-0.2 0.486,-0.6l-0.215 -2c-0.043,-0.4 -0.247,-0.6 -0.614,-0.6l-5.593 0c-0.367,0 -0.529,0.2 -0.486,0.6l0.215 2z"/>
      </g>
      <g>
       <path class="fil2" d="M23.246 297.6l-0.005 -0.05 -10.577 -8.85 2.398 22.35 14.12 0 -0.161 -1.5 6.601 0 0.161 1.5 3.576 0 -10.628 -8.9c-0.131,0.095 -0.275,0.179 -0.431,0.25 -0.81,0.433 -1.679,0.45 -2.608,0.05 -0.926,-0.366 -1.624,-1.033 -2.094,-2 -0.467,-0.933 -0.584,-1.883 -0.352,-2.85l0 0zm8.335 -3.5l-0.206 0.65 19.445 16.3 -2.886 -26.9 -29.249 0 6.898 5.75c0.273,-0.251 0.586,-0.468 0.939,-0.65 0.813,-0.4 1.682,-0.417 2.608,-0.05 0.929,0.4 1.627,1.067 2.094,2 0.501,0.967 0.62,1.933 0.357,2.9l0 0zm12.506 -2.65c0.103,0.1 0.159,0.2 0.17,0.3l0.177 1.65c0.011,0.1 -0.011,0.183 -0.065,0.25 -0.023,0.067 -0.079,0.117 -0.167,0.15l-2.614 0.85c-0.057,0.033 -0.119,0.033 -0.183,0l-2.842 -0.85c-0.065,-0.033 -0.131,-0.083 -0.2,-0.15 -0.068,-0.067 -0.107,-0.15 -0.118,-0.25l-0.177 -1.65c-0.011,-0.1 0.024,-0.2 0.105,-0.3 0.054,-0.067 0.127,-0.1 0.219,-0.1l5.455 0c0.092,0 0.172,0.033 0.24,0.1l0 0zm-4.861 7.25c-0.367,0 -0.572,-0.2 -0.614,-0.6l-0.215 -2c-0.043,-0.4 0.119,-0.6 0.486,-0.6l5.593 0c0.367,0 0.571,0.2 0.614,0.6l0.215 2c0.043,0.4 -0.119,0.6 -0.486,0.6l-5.593 0 0 0zm2.748 -5.15c-0.017,-0.167 -0.095,-0.317 -0.231,-0.45 -0.137,-0.133 -0.282,-0.2 -0.434,-0.2 -0.153,0 -0.284,0.067 -0.391,0.2 -0.109,0.133 -0.153,0.283 -0.136,0.45 0.018,0.167 0.096,0.317 0.232,0.45 0.137,0.133 0.281,0.2 0.434,0.2 0.153,0 0.283,-0.067 0.391,-0.2 0.108,-0.133 0.153,-0.283 0.135,-0.45z"/>
      </g>
      <polygon class="fil3" points="12.175,284.15 12.664,288.7 23.241,297.55 28.731,302.15 39.359,311.05 50.82,311.05 31.375,294.75 25.583,289.9 18.685,284.15 "/>
      <g>
       <path class="fil1" d="M44.257 291.75c-0.011,-0.1 -0.067,-0.2 -0.17,-0.3 -0.068,-0.067 -0.148,-0.1 -0.24,-0.1l-5.455 0c-0.092,0 -0.165,0.033 -0.219,0.1 -0.081,0.1 -0.116,0.2 -0.105,0.3l0.177 1.65c0.011,0.1 0.05,0.183 0.118,0.25 0.069,0.067 0.135,0.117 0.2,0.15l2.842 0.85c0.064,0.033 0.126,0.033 0.183,0l2.614 -0.85c0.088,-0.033 0.144,-0.083 0.167,-0.15 0.054,-0.067 0.076,-0.15 0.065,-0.25l-0.177 -1.65 0 0zm-2.514 1.35c0.136,0.133 0.214,0.283 0.231,0.45 0.018,0.167 -0.027,0.317 -0.135,0.45 -0.108,0.133 -0.238,0.2 -0.391,0.2 -0.152,0 -0.297,-0.067 -0.434,-0.2 -0.136,-0.133 -0.214,-0.283 -0.232,-0.45 -0.017,-0.167 0.027,-0.317 0.136,-0.45 0.107,-0.133 0.238,-0.2 0.391,-0.2 0.152,0 0.297,0.067 0.434,0.2z"/>
      </g>
     </g>
    </g>
   </g>
  </g>
  <g id="body_FL">
   <g>
    <g>
     <g>
      <g>
       <path class="fil0" d="M48.85 91.05l-3.9 0 0 4.1 16.4 0 0 -4.1 -12.5 0 0 0zm-11.1 0l-15.4 0 0 4.1 15.4 0 0 -4.1z"/>
      </g>
      <polygon class="fil4" points="37.75,89.55 37.75,91.05 37.75,95.15 44.95,95.15 44.95,91.05 44.95,89.55 "/>
      <g>
       <path class="fil5" d="M32.85 77.55l0 0.05c-0.367,0.967 -0.35,1.916 0.05,2.85 0.4,0.967 1.083,1.633 2.05,2 0.967,0.4 1.916,0.383 2.85,-0.05 0.179,-0.072 0.346,-0.155 0.5,-0.25l-5.45 -4.6 0 0zm9.2 -2.8l0.3 -0.65c0.4,-0.967 0.383,-1.934 -0.05,-2.9 -0.4,-0.934 -1.084,-1.6 -2.05,-2 -0.967,-0.367 -1.917,-0.35 -2.85,0.05 -0.406,0.182 -0.773,0.398 -1.1,0.65l5.75 4.85 0 0zm7.5 3.35c0,0.4 0.2,0.6 0.6,0.6l6.1 0c0.4,0 0.6,-0.2 0.6,-0.6l0 -2c0,-0.4 -0.2,-0.6 -0.6,-0.6l-6.1 0c-0.4,0 -0.6,0.2 -0.6,0.6l0 2z"/>
      </g>
      <g>
       <path class="fil2" d="M32.85 77.6l0 -0.05 -10.5 -8.85 0 22.35 15.4 0 0 -1.5 7.2 0 0 1.5 3.9 0 -10.55 -8.9c-0.154,0.095 -0.321,0.178 -0.5,0.25 -0.934,0.433 -1.883,0.45 -2.85,0.05 -0.967,-0.367 -1.65,-1.034 -2.05,-2 -0.4,-0.934 -0.417,-1.883 -0.05,-2.85l0 0zm9.5 -3.5l-0.3 0.65 19.3 16.3 0 -26.9 -31.9 0 6.85 5.75c0.327,-0.252 0.694,-0.468 1.1,-0.65 0.933,-0.4 1.883,-0.417 2.85,-0.05 0.967,0.4 1.65,1.066 2.05,2 0.433,0.967 0.45,1.933 0.05,2.9l0 0zm13.95 -2.65c0.1,0.1 0.15,0.2 0.15,0.3l0 1.65c0,0.1 -0.034,0.183 -0.1,0.25 -0.033,0.066 -0.1,0.117 -0.2,0.15l-2.95 0.85c-0.067,0.033 -0.133,0.033 -0.2,0l-3 -0.85c-0.067,-0.033 -0.134,-0.083 -0.2,-0.15 -0.067,-0.067 -0.1,-0.15 -0.1,-0.25l0 -1.65c0,-0.1 0.05,-0.2 0.15,-0.3 0.066,-0.067 0.15,-0.1 0.25,-0.1l5.95 0c0.1,0 0.183,0.033 0.25,0.1l0 0zm-6.15 7.25c-0.4,0 -0.6,-0.2 -0.6,-0.6l0 -2c0,-0.4 0.2,-0.6 0.6,-0.6l6.1 0c0.4,0 0.6,0.2 0.6,0.6l0 2c0,0.4 -0.2,0.6 -0.6,0.6l-6.1 0 0 0zm3.6 -5.15c0,-0.167 -0.067,-0.317 -0.2,-0.45 -0.134,-0.133 -0.284,-0.2 -0.45,-0.2 -0.167,0 -0.317,0.067 -0.45,0.2 -0.134,0.133 -0.2,0.283 -0.2,0.45 0,0.167 0.066,0.316 0.2,0.45 0.133,0.133 0.283,0.2 0.45,0.2 0.166,0 0.316,-0.067 0.45,-0.2 0.133,-0.134 0.2,-0.283 0.2,-0.45z"/>
      </g>
      <polygon class="fil3" points="22.35,64.15 22.35,68.7 32.85,77.55 38.3,82.15 48.85,91.05 61.35,91.05 42.05,74.75 36.3,69.9 29.45,64.15 "/>
      <g>
       <path class="fil1" d="M56.45 71.75c0,-0.1 -0.05,-0.2 -0.15,-0.3 -0.067,-0.067 -0.15,-0.1 -0.25,-0.1l-5.95 0c-0.1,0 -0.184,0.033 -0.25,0.1 -0.1,0.1 -0.15,0.2 -0.15,0.3l0 1.65c0,0.1 0.033,0.183 0.1,0.25 0.066,0.066 0.133,0.117 0.2,0.15l3 0.85c0.067,0.033 0.133,0.033 0.2,0l2.95 -0.85c0.1,-0.033 0.167,-0.083 0.2,-0.15 0.066,-0.067 0.1,-0.15 0.1,-0.25l0 -1.65 0 0zm-2.9 1.35c0.133,0.133 0.2,0.283 0.2,0.45 0,0.167 -0.067,0.316 -0.2,0.45 -0.134,0.133 -0.284,0.2 -0.45,0.2 -0.167,0 -0.317,-0.067 -0.45,-0.2 -0.134,-0.134 -0.2,-0.283 -0.2,-0.45 0,-0.167 0.066,-0.317 0.2,-0.45 0.133,-0.133 0.283,-0.2 0.45,-0.2 0.166,0 0.316,0.067 0.45,0.2z"/>
      </g>
     </g>
    </g>
   </g>
  </g>
  <g id="body_FL_FL">
   <g>
    <g>
     <g>
      <g>
       <path class="fil0" d="M130.285 86.15l-3.866 0 0 4.1 16.259 0 0 -4.1 -12.393 0 0 0zm-11.004 0l-15.268 0 0 4.1 15.268 0 0 -4.1z"/>
      </g>
      <polygon class="fil4" points="119.281,84.65 119.281,86.15 119.281,90.25 126.419,90.25 126.419,86.15 126.419,84.65 "/>
      <g>
       <path class="fil5" d="M114.423 72.65l0 0.05c-0.364,0.966 -0.347,1.917 0.049,2.85 0.397,0.967 1.074,1.633 2.033,2 0.958,0.4 1.9,0.383 2.825,-0.05 0.178,-0.072 0.343,-0.155 0.496,-0.25l-5.403 -4.6 0 0zm9.121 -2.8l0.297 -0.65c0.397,-0.967 0.38,-1.933 -0.049,-2.9 -0.397,-0.933 -1.074,-1.6 -2.033,-2 -0.958,-0.367 -1.9,-0.35 -2.825,0.05 -0.403,0.182 -0.766,0.398 -1.091,0.65l5.701 4.85 0 0zm7.435 3.35c0,0.4 0.199,0.6 0.595,0.6l6.048 0c0.397,0 0.595,-0.2 0.595,-0.6l0 -2c0,-0.4 -0.198,-0.6 -0.595,-0.6l-6.048 0c-0.396,0 -0.595,0.2 -0.595,0.6l0 2z"/>
      </g>
      <g>
       <path class="fil2" d="M114.423 72.7l0 -0.05 -10.41 -8.85 0 22.35 15.268 0 0 -1.5 7.138 0 0 1.5 3.866 0 -10.459 -8.9c-0.153,0.095 -0.318,0.178 -0.496,0.25 -0.925,0.433 -1.867,0.45 -2.825,0.05 -0.959,-0.367 -1.636,-1.033 -2.033,-2 -0.396,-0.933 -0.413,-1.884 -0.049,-2.85l0 0zm9.418 -3.5l-0.297 0.65 19.134 16.3 0 -26.9 -31.626 0 6.791 5.75c0.325,-0.251 0.688,-0.468 1.091,-0.65 0.925,-0.4 1.867,-0.417 2.825,-0.05 0.959,0.4 1.636,1.067 2.033,2 0.429,0.967 0.446,1.933 0.049,2.9l0 0zm13.831 -2.65c0.099,0.1 0.148,0.2 0.148,0.3l0 1.65c0,0.1 -0.033,0.183 -0.099,0.25 -0.033,0.067 -0.099,0.116 -0.198,0.15l-2.925 0.85c-0.066,0.033 -0.132,0.033 -0.198,0l-2.974 -0.85c-0.066,-0.034 -0.133,-0.083 -0.199,-0.15 -0.066,-0.067 -0.099,-0.15 -0.099,-0.25l0 -1.65c0,-0.1 0.05,-0.2 0.149,-0.3 0.066,-0.067 0.149,-0.1 0.248,-0.1l5.899 0c0.099,0 0.182,0.033 0.248,0.1l0 0zm-6.098 7.25c-0.396,0 -0.595,-0.2 -0.595,-0.6l0 -2c0,-0.4 0.199,-0.6 0.595,-0.6l6.048 0c0.397,0 0.595,0.2 0.595,0.6l0 2c0,0.4 -0.198,0.6 -0.595,0.6l-6.048 0 0 0zm3.57 -5.15c0,-0.167 -0.067,-0.317 -0.199,-0.45 -0.132,-0.134 -0.281,-0.2 -0.446,-0.2 -0.165,0 -0.314,0.067 -0.446,0.2 -0.132,0.133 -0.198,0.283 -0.198,0.45 0,0.167 0.066,0.317 0.198,0.45 0.132,0.133 0.281,0.2 0.446,0.2 0.165,0 0.314,-0.067 0.446,-0.2 0.132,-0.133 0.199,-0.283 0.199,-0.45z"/>
      </g>
      <polygon class="fil3" points="104.013,59.25 104.013,63.8 114.423,72.65 119.826,77.25 130.285,86.15 142.678,86.15 123.544,69.85 117.843,65 111.052,59.25 "/>
      <g>
       <path class="fil1" d="M137.82 66.85c0,-0.1 -0.049,-0.2 -0.148,-0.3 -0.066,-0.067 -0.149,-0.1 -0.248,-0.1l-5.899 0c-0.099,0 -0.182,0.033 -0.248,0.1 -0.099,0.1 -0.149,0.2 -0.149,0.3l0 1.65c0,0.1 0.033,0.183 0.099,0.25 0.066,0.067 0.133,0.116 0.199,0.15l2.974 0.85c0.066,0.033 0.132,0.033 0.198,0l2.925 -0.85c0.099,-0.034 0.165,-0.083 0.198,-0.15 0.066,-0.067 0.099,-0.15 0.099,-0.25l0 -1.65 0 0zm-2.875 1.35c0.132,0.133 0.199,0.283 0.199,0.45 0,0.167 -0.067,0.317 -0.199,0.45 -0.132,0.133 -0.281,0.2 -0.446,0.2 -0.165,0 -0.314,-0.067 -0.446,-0.2 -0.132,-0.133 -0.198,-0.283 -0.198,-0.45 0,-0.167 0.066,-0.317 0.198,-0.45 0.132,-0.134 0.281,-0.2 0.446,-0.2 0.165,0 0.314,0.067 0.446,0.2z"/>
      </g>
     </g>
    </g>
   </g>
  </g>
  <g id="body_FL_FL_FL">
   <g>
    <g>
     <g>
      <g>
       <path class="fil0" d="M207.999 86.031l-3.906 -0.106 -0.355 4.085 16.423 0.444 0.355 -4.085 -12.517 -0.338 0 0zm-11.116 -0.301l-15.422 -0.417 -0.355 4.085 15.421 0.417 0.356 -4.085z"/>
      </g>
      <polygon class="fil4" points="197.013,84.236 196.883,85.73 196.527,89.815 203.738,90.01 204.093,85.925 204.223,84.431 "/>
      <g>
       <path class="fil5" d="M193.147 72.149l-0.004 0.049c-0.451,0.953 -0.517,1.9 -0.198,2.841 0.317,0.974 0.944,1.656 1.88,2.048 0.933,0.424 1.886,0.433 2.858,0.027 0.186,-0.066 0.36,-0.145 0.523,-0.235l-5.059 -4.73 0 0zm9.456 -2.541l0.357 -0.639c0.484,-0.953 0.551,-1.916 0.201,-2.891 -0.32,-0.94 -0.946,-1.623 -1.879,-2.048 -0.937,-0.391 -1.889,-0.4 -2.859,-0.027 -0.422,0.17 -0.808,0.376 -1.158,0.618l5.338 4.987 0 0zm7.22 3.54c-0.035,0.399 0.148,0.604 0.549,0.614l6.108 0.166c0.401,0.01 0.619,-0.183 0.653,-0.582l0.173 -1.993c0.035,-0.398 -0.148,-0.602 -0.548,-0.613l-6.109 -0.166c-0.4,-0.011 -0.618,0.183 -0.653,0.582l-0.173 1.992z"/>
      </g>
      <g>
       <path class="fil2" d="M193.143 72.198l0.004 -0.049 -9.747 -9.102 -1.939 22.266 15.422 0.417 0.13 -1.494 7.21 0.195 -0.13 1.494 3.906 0.106 -9.793 -9.152c-0.163,0.09 -0.337,0.169 -0.523,0.235 -0.972,0.406 -1.925,0.397 -2.858,-0.027 -0.936,-0.392 -1.563,-1.074 -1.88,-2.048 -0.319,-0.941 -0.253,-1.888 0.198,-2.841l0 0zm9.817 -3.229l-0.357 0.639 17.913 16.761 2.333 -26.799 -31.944 -0.863 6.36 5.914c0.35,-0.242 0.736,-0.448 1.158,-0.618 0.97,-0.373 1.922,-0.364 2.859,0.027 0.933,0.425 1.559,1.108 1.879,2.048 0.35,0.975 0.283,1.938 -0.201,2.891l0 0zm14.199 -2.263c0.091,0.103 0.133,0.203 0.124,0.303l-0.143 1.644c-0.009,0.1 -0.049,0.182 -0.122,0.246 -0.039,0.066 -0.11,0.114 -0.213,0.144l-3.028 0.767c-0.069,0.032 -0.136,0.03 -0.2,-0.005l-2.93 -0.928c-0.064,-0.035 -0.127,-0.087 -0.188,-0.155 -0.061,-0.068 -0.087,-0.152 -0.078,-0.252l0.143 -1.644c0.008,-0.099 0.067,-0.197 0.176,-0.295 0.072,-0.064 0.159,-0.095 0.259,-0.092l5.959 0.161c0.1,0.003 0.18,0.038 0.241,0.106l0 0zm-6.787 7.056c-0.401,-0.01 -0.584,-0.215 -0.549,-0.614l0.173 -1.992c0.035,-0.399 0.253,-0.593 0.653,-0.582l6.109 0.166c0.4,0.011 0.583,0.215 0.548,0.613l-0.173 1.993c-0.035,0.398 -0.252,0.592 -0.653,0.582l-6.108 -0.166 0 0zm4.051 -5.033c0.015,-0.166 -0.039,-0.317 -0.161,-0.453 -0.122,-0.137 -0.266,-0.207 -0.433,-0.212 -0.167,-0.004 -0.323,0.058 -0.468,0.187 -0.145,0.129 -0.225,0.277 -0.24,0.443 -0.014,0.166 0.04,0.317 0.162,0.454 0.122,0.136 0.266,0.207 0.433,0.211 0.167,0.005 0.323,-0.058 0.468,-0.187 0.145,-0.129 0.225,-0.277 0.239,-0.443z"/>
      </g>
      <polygon class="fil3" points="183.794,58.515 183.4,63.047 193.147,72.149 198.206,76.879 207.999,86.031 220.516,86.369 202.603,69.608 197.265,64.621 190.905,58.707 "/>
      <g>
       <path class="fil1" d="M217.283 67.009c0.009,-0.1 -0.033,-0.2 -0.124,-0.303 -0.061,-0.068 -0.141,-0.103 -0.241,-0.106l-5.959 -0.161c-0.1,-0.003 -0.187,0.028 -0.259,0.092 -0.109,0.098 -0.168,0.196 -0.176,0.295l-0.143 1.644c-0.009,0.1 0.017,0.184 0.078,0.252 0.061,0.068 0.124,0.12 0.188,0.155l2.93 0.928c0.064,0.035 0.131,0.037 0.2,0.005l3.028 -0.767c0.103,-0.03 0.174,-0.078 0.213,-0.144 0.073,-0.064 0.113,-0.146 0.122,-0.246l0.143 -1.644 0 0zm-3.021 1.267c0.122,0.136 0.176,0.287 0.161,0.453 -0.014,0.166 -0.094,0.314 -0.239,0.443 -0.145,0.129 -0.301,0.192 -0.468,0.187 -0.167,-0.004 -0.311,-0.075 -0.433,-0.211 -0.122,-0.137 -0.176,-0.288 -0.162,-0.454 0.015,-0.166 0.095,-0.314 0.24,-0.443 0.145,-0.129 0.301,-0.191 0.468,-0.187 0.167,0.005 0.311,0.075 0.433,0.212z"/>
      </g>
     </g>
    </g>
   </g>
  </g>
  <g id="body_FL_FL_FL_FL">
   <g>
    <g>
     <g>
      <g>
       <path class="fil0" d="M289.311 97.86l-3.886 0.322 0.339 4.086 16.343 -1.355 -0.338 -4.085 -12.458 1.032 0 0zm-11.062 0.917l-15.347 1.272 0.339 4.086 15.347 -1.272 -0.339 -4.086z"/>
      </g>
      <polygon class="fil4" points="278.126,97.282 278.249,98.777 278.588,102.863 285.764,102.268 285.425,98.182 285.301,96.688 "/>
      <g>
       <path class="fil5" d="M272.251 85.728l0.005 0.05c-0.286,0.994 -0.191,1.939 0.285,2.836 0.478,0.93 1.214,1.538 2.208,1.824 0.996,0.318 1.942,0.224 2.836,-0.286 0.173,-0.086 0.332,-0.183 0.478,-0.29l-5.812 -4.134 0 0zm8.937 -3.55l0.246 -0.673c0.319,-0.996 0.222,-1.958 -0.289,-2.886 -0.476,-0.897 -1.212,-1.505 -2.209,-1.823 -0.993,-0.286 -1.939,-0.191 -2.836,0.285 -0.389,0.215 -0.737,0.461 -1.042,0.738l6.13 4.359 0 0zm7.752 2.719c0.032,0.398 0.248,0.581 0.647,0.548l6.079 -0.504c0.399,-0.033 0.582,-0.249 0.548,-0.647l-0.165 -1.993c-0.033,-0.399 -0.249,-0.582 -0.647,-0.549l-6.079 0.504c-0.399,0.033 -0.582,0.249 -0.549,0.648l0.166 1.993z"/>
      </g>
      <g>
       <path class="fil2" d="M272.256 85.778l-0.005 -0.05 -11.195 -7.952 1.846 22.273 15.347 -1.272 -0.123 -1.495 7.175 -0.594 0.124 1.494 3.886 -0.322 -11.248 -7.998c-0.146,0.107 -0.305,0.204 -0.478,0.29 -0.894,0.51 -1.84,0.605 -2.836,0.286 -0.994,-0.286 -1.73,-0.894 -2.208,-1.824 -0.476,-0.897 -0.571,-1.842 -0.285,-2.836l0 0zm9.178 -4.273l-0.246 0.673 20.581 14.65 -2.222 -26.808 -31.791 2.635 7.302 5.164c0.305,-0.277 0.653,-0.523 1.042,-0.738 0.897,-0.476 1.843,-0.571 2.836,-0.285 0.997,0.318 1.733,0.926 2.209,1.823 0.511,0.928 0.608,1.89 0.289,2.886l0 0zm13.683 -3.793c0.108,0.092 0.166,0.187 0.174,0.287l0.136 1.644c0.009,0.1 -0.017,0.186 -0.079,0.257 -0.027,0.07 -0.089,0.125 -0.186,0.166l-2.87 1.091c-0.064,0.039 -0.13,0.044 -0.199,0.017l-3.06 -0.6c-0.069,-0.027 -0.14,-0.071 -0.212,-0.133 -0.072,-0.061 -0.112,-0.141 -0.12,-0.24l-0.136 -1.645c-0.009,-0.099 0.033,-0.203 0.124,-0.311 0.061,-0.072 0.141,-0.112 0.241,-0.121l5.93 -0.491c0.099,-0.008 0.185,0.018 0.257,0.079l0 0zm-5.53 7.733c-0.399,0.033 -0.615,-0.15 -0.647,-0.548l-0.166 -1.993c-0.033,-0.399 0.15,-0.615 0.549,-0.648l6.079 -0.504c0.398,-0.033 0.614,0.15 0.647,0.549l0.165 1.993c0.034,0.398 -0.149,0.614 -0.548,0.647l-6.079 0.504 0 0zm3.162 -5.429c-0.013,-0.167 -0.092,-0.311 -0.236,-0.432 -0.144,-0.122 -0.299,-0.176 -0.465,-0.162 -0.166,0.013 -0.31,0.092 -0.432,0.236 -0.122,0.144 -0.176,0.299 -0.162,0.465 0.014,0.166 0.092,0.31 0.236,0.432 0.144,0.122 0.299,0.176 0.465,0.162 0.166,-0.014 0.31,-0.093 0.432,-0.236 0.122,-0.144 0.176,-0.299 0.162,-0.465z"/>
      </g>
      <polygon class="fil3" points="260.681,73.241 261.056,77.776 272.251,85.728 278.063,89.862 289.311,97.86 301.769,96.828 281.188,82.178 275.058,77.819 267.756,72.655 "/>
      <g>
       <path class="fil1" d="M295.291 77.999c-0.008,-0.1 -0.066,-0.195 -0.174,-0.287 -0.072,-0.061 -0.158,-0.087 -0.257,-0.079l-5.93 0.491c-0.1,0.009 -0.18,0.049 -0.241,0.121 -0.091,0.108 -0.133,0.212 -0.124,0.311l0.136 1.645c0.008,0.099 0.048,0.179 0.12,0.24 0.072,0.061 0.143,0.106 0.212,0.133l3.06 0.6c0.069,0.027 0.135,0.022 0.199,-0.017l2.87 -1.091c0.097,-0.041 0.159,-0.096 0.186,-0.166 0.061,-0.071 0.088,-0.157 0.079,-0.257l-0.136 -1.644 0 0zm-2.778 1.585c0.144,0.121 0.222,0.265 0.236,0.432 0.014,0.166 -0.04,0.321 -0.162,0.465 -0.122,0.144 -0.266,0.222 -0.432,0.236 -0.166,0.014 -0.321,-0.04 -0.465,-0.162 -0.144,-0.122 -0.222,-0.266 -0.236,-0.432 -0.014,-0.166 0.04,-0.321 0.162,-0.465 0.122,-0.144 0.266,-0.223 0.432,-0.236 0.166,-0.014 0.321,0.04 0.465,0.162z"/>
      </g>
     </g>
    </g>
   </g>
  </g>
  <g id="body_FL_FL_FL_FL_FL">
   <g>
    <g>
     <g>
      <g>
       <path class="fil0" d="M367.784 83.214l-3.242 0.253 0 4.1 13.631 -1.063 0 -4.1 -10.389 0.81 0 0zm-9.226 0.719l-12.8 0.998 0 4.1 12.8 -0.998 0 -4.1z"/>
      </g>
      <polygon class="fil4" points="358.558,82.433 358.558,83.933 358.558,88.033 364.542,87.567 364.542,83.467 364.542,81.967 "/>
      <g>
       <path class="fil5" d="M354.485 70.751l0 0.049c-0.305,0.991 -0.291,1.94 0.042,2.847 0.332,0.941 0.9,1.563 1.704,1.867 0.803,0.338 1.593,0.26 2.368,-0.234 0.15,-0.084 0.288,-0.178 0.416,-0.282l-4.53 -4.247 0 0zm7.647 -3.396l0.249 -0.67c0.333,-0.993 0.319,-1.958 -0.041,-2.897 -0.333,-0.907 -0.901,-1.53 -1.704,-1.867 -0.804,-0.304 -1.593,-0.226 -2.369,0.235 -0.337,0.208 -0.642,0.448 -0.914,0.721l4.779 4.478 0 0zm6.234 2.864c0,0.4 0.166,0.587 0.498,0.561l5.07 -0.395c0.333,-0.026 0.499,-0.239 0.499,-0.639l0 -2c0,-0.4 -0.166,-0.587 -0.499,-0.561l-5.07 0.395c-0.332,0.026 -0.498,0.239 -0.498,0.639l0 2z"/>
      </g>
      <g>
       <path class="fil2" d="M354.485 70.8l0 -0.049 -8.727 -8.17 0 22.35 12.8 -0.998 0 -1.5 5.984 -0.466 0 1.5 3.242 -0.253 -8.769 -8.216c-0.128,0.104 -0.266,0.198 -0.416,0.282 -0.775,0.494 -1.565,0.572 -2.368,0.234 -0.804,-0.304 -1.372,-0.926 -1.704,-1.867 -0.333,-0.907 -0.347,-1.856 -0.042,-2.847l0 0zm7.896 -4.115l-0.249 0.67 16.041 15.049 0 -26.9 -26.514 2.067 5.694 5.306c0.272,-0.272 0.577,-0.513 0.914,-0.721 0.776,-0.461 1.565,-0.539 2.369,-0.235 0.803,0.338 1.371,0.96 1.704,1.867 0.36,0.939 0.374,1.904 0.041,2.897l0 0zm11.595 -3.554c0.083,0.094 0.125,0.191 0.125,0.291l0 1.65c0,0.1 -0.028,0.185 -0.083,0.256 -0.028,0.069 -0.084,0.123 -0.167,0.163l-2.452 1.041c-0.055,0.038 -0.111,0.042 -0.166,0.013l-2.494 -0.655c-0.055,-0.029 -0.11,-0.075 -0.166,-0.137 -0.055,-0.063 -0.083,-0.144 -0.083,-0.244l0 -1.65c0,-0.1 0.042,-0.203 0.125,-0.31 0.055,-0.071 0.124,-0.11 0.208,-0.116l4.945 -0.385c0.083,-0.007 0.152,0.021 0.208,0.083l0 0zm-5.112 7.649c-0.332,0.026 -0.498,-0.161 -0.498,-0.561l0 -2c0,-0.4 0.166,-0.613 0.498,-0.639l5.07 -0.395c0.333,-0.026 0.499,0.161 0.499,0.561l0 2c0,0.4 -0.166,0.613 -0.499,0.639l-5.07 0.395 0 0zm2.992 -5.383c0,-0.167 -0.055,-0.313 -0.166,-0.437 -0.111,-0.125 -0.235,-0.182 -0.374,-0.171 -0.138,0.011 -0.263,0.087 -0.374,0.229 -0.111,0.142 -0.166,0.296 -0.166,0.463 0,0.166 0.055,0.312 0.166,0.437 0.111,0.125 0.236,0.181 0.374,0.171 0.139,-0.011 0.263,-0.087 0.374,-0.23 0.111,-0.141 0.166,-0.295 0.166,-0.462z"/>
      </g>
      <polygon class="fil3" points="345.758,58.031 345.758,62.581 354.485,70.751 359.015,74.998 367.784,83.214 378.173,82.404 362.132,67.355 357.353,62.877 351.659,57.571 "/>
      <g>
       <path class="fil1" d="M374.101 63.422c0,-0.1 -0.042,-0.197 -0.125,-0.291 -0.056,-0.062 -0.125,-0.09 -0.208,-0.083l-4.945 0.385c-0.084,0.006 -0.153,0.045 -0.208,0.116 -0.083,0.107 -0.125,0.21 -0.125,0.31l0 1.65c0,0.1 0.028,0.181 0.083,0.244 0.056,0.062 0.111,0.108 0.166,0.137l2.494 0.655c0.055,0.029 0.111,0.025 0.166,-0.013l2.452 -1.041c0.083,-0.04 0.139,-0.094 0.167,-0.163 0.055,-0.071 0.083,-0.156 0.083,-0.256l0 -1.65 0 0zm-2.411 1.538c0.111,0.124 0.166,0.27 0.166,0.437 0,0.167 -0.055,0.321 -0.166,0.462 -0.111,0.143 -0.235,0.219 -0.374,0.23 -0.138,0.01 -0.263,-0.046 -0.374,-0.171 -0.111,-0.125 -0.166,-0.271 -0.166,-0.437 0,-0.167 0.055,-0.321 0.166,-0.463 0.111,-0.142 0.236,-0.218 0.374,-0.229 0.139,-0.011 0.263,0.046 0.374,0.171z"/>
      </g>
     </g>
    </g>
   </g>
  </g>
  <g id="body_FL_FL_FL_FL_FL_FL">
   <g>
    <g>
     <g>
      <g>
       <path class="fil0" d="M49.239 198.769l-3.891 0.269 0.283 4.09 16.36 -1.131 -0.282 -4.09 -12.47 0.862 0 0zm-11.074 0.765l-15.363 1.062 0.282 4.09 15.364 -1.061 -0.283 -4.091z"/>
      </g>
      <polygon class="fil4" points="38.062,198.038 38.165,199.534 38.448,203.625 45.631,203.128 45.348,199.038 45.244,197.541 "/>
      <g>
       <path class="fil5" d="M32.346 186.404l0.003 0.05c-0.299,0.99 -0.217,1.936 0.247,2.84 0.465,0.937 1.193,1.555 2.183,1.854 0.992,0.332 1.938,0.25 2.839,-0.247 0.175,-0.083 0.335,-0.178 0.482,-0.283l-5.754 -4.214 0 0zm8.985 -3.427l0.254 -0.67c0.333,-0.992 0.25,-1.955 -0.249,-2.889 -0.464,-0.904 -1.192,-1.522 -2.183,-1.854 -0.99,-0.299 -1.937,-0.217 -2.84,0.246 -0.393,0.21 -0.743,0.451 -1.053,0.724l6.071 4.443 0 0zm7.713 2.824c0.028,0.4 0.241,0.585 0.64,0.557l6.086 -0.42c0.399,-0.028 0.584,-0.241 0.557,-0.64l-0.138 -1.995c-0.028,-0.399 -0.241,-0.585 -0.64,-0.557l-6.086 0.42c-0.399,0.028 -0.585,0.241 -0.557,0.64l0.138 1.995z"/>
      </g>
      <g>
       <path class="fil2" d="M32.349 186.454l-0.003 -0.05 -11.085 -8.105 1.541 22.297 15.363 -1.062 -0.103 -1.496 7.182 -0.497 0.104 1.497 3.891 -0.269 -11.139 -8.151c-0.147,0.105 -0.307,0.2 -0.482,0.283 -0.901,0.497 -1.847,0.579 -2.839,0.247 -0.99,-0.299 -1.718,-0.917 -2.183,-1.854 -0.464,-0.904 -0.546,-1.85 -0.247,-2.84l0 0zm9.236 -4.147l-0.254 0.67 20.378 14.93 -1.855 -26.836 -31.824 2.199 7.23 5.264c0.31,-0.273 0.66,-0.514 1.053,-0.724 0.903,-0.463 1.85,-0.545 2.84,-0.246 0.991,0.332 1.719,0.95 2.183,1.854 0.499,0.934 0.582,1.897 0.249,2.889l0 0zm13.734 -3.605c0.107,0.093 0.164,0.189 0.171,0.289l0.113 1.646c0.008,0.099 -0.02,0.185 -0.082,0.256 -0.029,0.069 -0.092,0.124 -0.189,0.164l-2.885 1.051c-0.064,0.038 -0.13,0.042 -0.199,0.014l-3.052 -0.641c-0.069,-0.029 -0.138,-0.074 -0.209,-0.136 -0.072,-0.062 -0.11,-0.143 -0.117,-0.243l-0.114 -1.646c-0.007,-0.099 0.036,-0.203 0.129,-0.31 0.062,-0.071 0.142,-0.11 0.242,-0.116l5.936 -0.411c0.1,-0.007 0.185,0.021 0.256,0.083l0 0zm-5.635 7.656c-0.399,0.028 -0.612,-0.157 -0.64,-0.557l-0.138 -1.995c-0.028,-0.399 0.158,-0.612 0.557,-0.64l6.086 -0.42c0.399,-0.028 0.612,0.158 0.64,0.557l0.138 1.995c0.027,0.399 -0.159,0.612 -0.557,0.64l-6.086 0.42 0 0zm3.236 -5.385c-0.011,-0.167 -0.088,-0.312 -0.23,-0.436 -0.142,-0.123 -0.297,-0.18 -0.463,-0.168 -0.166,0.011 -0.311,0.088 -0.435,0.231 -0.124,0.142 -0.18,0.296 -0.169,0.462 0.012,0.167 0.089,0.312 0.231,0.435 0.142,0.124 0.296,0.18 0.463,0.169 0.166,-0.012 0.311,-0.089 0.435,-0.231 0.124,-0.142 0.18,-0.296 0.168,-0.462z"/>
      </g>
      <polygon class="fil3" points="20.947,173.76 21.261,178.299 32.346,186.404 38.1,190.618 49.239,198.769 61.709,197.907 41.331,182.977 35.26,178.534 28.03,173.27 "/>
      <g>
       <path class="fil1" d="M55.49 178.991c-0.007,-0.1 -0.064,-0.196 -0.171,-0.289 -0.071,-0.062 -0.156,-0.09 -0.256,-0.083l-5.936 0.411c-0.1,0.006 -0.18,0.045 -0.242,0.116 -0.093,0.107 -0.136,0.211 -0.129,0.31l0.114 1.646c0.007,0.1 0.045,0.181 0.117,0.243 0.071,0.062 0.14,0.107 0.209,0.136l3.052 0.641c0.069,0.028 0.135,0.024 0.199,-0.014l2.885 -1.051c0.097,-0.04 0.16,-0.095 0.189,-0.164 0.062,-0.071 0.09,-0.157 0.082,-0.256l-0.113 -1.646 0 0zm-2.8 1.546c0.142,0.124 0.219,0.269 0.23,0.436 0.012,0.166 -0.044,0.32 -0.168,0.462 -0.124,0.142 -0.269,0.219 -0.435,0.231 -0.167,0.011 -0.321,-0.045 -0.463,-0.169 -0.142,-0.123 -0.219,-0.268 -0.231,-0.435 -0.011,-0.166 0.045,-0.32 0.169,-0.462 0.124,-0.142 0.269,-0.22 0.435,-0.231 0.166,-0.012 0.321,0.045 0.463,0.168z"/>
      </g>
     </g>
    </g>
   </g>
  </g>
  <g id="body_FL_FL_FL_FL_FL_FL_FL">
   <g>
    <g>
     <g>
      <g>
       <path class="fil0" d="M128.361 198.691l-3.896 -0.154 -0.162 4.097 16.387 0.647 0.161 -4.097 -12.49 -0.493 0 0zm-11.091 -0.438l-15.388 -0.607 -0.162 4.097 15.388 0.607 0.162 -4.097z"/>
      </g>
      <polygon class="fil4" points="117.329,196.754 117.27,198.253 117.108,202.35 124.303,202.634 124.465,198.537 124.523,197.039 "/>
      <g>
       <path class="fil5" d="M112.906 184.571l-0.002 0.05c-0.404,0.951 -0.425,1.901 -0.062,2.849 0.361,0.982 1.018,1.675 1.969,2.08 0.95,0.438 1.9,0.458 2.85,0.062 0.182,-0.064 0.352,-0.141 0.509,-0.23l-5.264 -4.811 0 0zm9.303 -2.435l0.326 -0.638c0.437,-0.95 0.459,-1.917 0.064,-2.9 -0.363,-0.948 -1.019,-1.641 -1.97,-2.079 -0.951,-0.405 -1.901,-0.425 -2.849,-0.062 -0.413,0.165 -0.788,0.367 -1.125,0.606l5.554 5.073 0 0zm7.362 3.643c-0.015,0.4 0.177,0.607 0.576,0.623l6.096 0.24c0.399,0.016 0.607,-0.176 0.623,-0.575l0.079 -1.999c0.015,-0.399 -0.177,-0.607 -0.576,-0.623l-6.096 -0.241c-0.399,-0.015 -0.607,0.177 -0.623,0.576l-0.079 1.999z"/>
      </g>
      <g>
       <path class="fil2" d="M112.904 184.621l0.002 -0.05 -10.143 -9.257 -0.881 22.332 15.388 0.607 0.059 -1.499 7.194 0.285 -0.058 1.498 3.896 0.154 -10.191 -9.309c-0.157,0.089 -0.327,0.166 -0.509,0.23 -0.95,0.396 -1.9,0.376 -2.85,-0.062 -0.951,-0.405 -1.608,-1.098 -1.969,-2.08 -0.363,-0.948 -0.342,-1.898 0.062,-2.849l0 0zm9.631 -3.123l-0.326 0.638 18.642 17.048 1.061 -26.879 -31.875 -1.258 6.618 6.016c0.337,-0.239 0.712,-0.441 1.125,-0.606 0.948,-0.363 1.898,-0.343 2.849,0.062 0.951,0.438 1.607,1.131 1.97,2.079 0.395,0.983 0.373,1.95 -0.064,2.9l0 0zm14.043 -2.098c0.096,0.104 0.142,0.206 0.138,0.306l-0.065 1.648c-0.004,0.101 -0.04,0.183 -0.109,0.246 -0.036,0.066 -0.105,0.113 -0.206,0.143l-2.981 0.732c-0.068,0.031 -0.135,0.028 -0.2,-0.008l-2.965 -0.967c-0.065,-0.036 -0.13,-0.089 -0.193,-0.158 -0.064,-0.069 -0.095,-0.154 -0.09,-0.254l0.065 -1.648c0.003,-0.1 0.057,-0.198 0.161,-0.294 0.07,-0.064 0.154,-0.094 0.254,-0.09l5.946 0.234c0.099,0.004 0.181,0.041 0.245,0.11l0 0zm-6.431 7.002c-0.399,-0.016 -0.591,-0.223 -0.576,-0.623l0.079 -1.999c0.016,-0.399 0.224,-0.591 0.623,-0.576l6.096 0.241c0.399,0.016 0.591,0.224 0.576,0.623l-0.079 1.999c-0.016,0.399 -0.224,0.591 -0.623,0.575l-6.096 -0.24 0 0zm3.8 -5.004c0.007,-0.166 -0.054,-0.319 -0.181,-0.457 -0.129,-0.139 -0.276,-0.212 -0.442,-0.218 -0.167,-0.007 -0.319,0.054 -0.458,0.182 -0.138,0.128 -0.211,0.275 -0.218,0.442 -0.006,0.166 0.055,0.319 0.183,0.457 0.128,0.139 0.275,0.211 0.441,0.218 0.167,0.006 0.319,-0.054 0.458,-0.182 0.138,-0.128 0.211,-0.275 0.217,-0.442z"/>
      </g>
      <polygon class="fil3" points="102.942,170.767 102.763,175.314 112.906,184.571 118.17,189.382 128.361,198.691 140.851,199.184 122.209,182.136 116.655,177.063 110.037,171.047 "/>
      <g>
       <path class="fil1" d="M136.716 179.706c0.004,-0.1 -0.042,-0.202 -0.138,-0.306 -0.064,-0.069 -0.146,-0.106 -0.245,-0.11l-5.946 -0.234c-0.1,-0.004 -0.184,0.026 -0.254,0.09 -0.104,0.096 -0.158,0.194 -0.161,0.294l-0.065 1.648c-0.005,0.1 0.026,0.185 0.09,0.254 0.063,0.069 0.128,0.122 0.193,0.158l2.965 0.967c0.065,0.036 0.132,0.039 0.2,0.008l2.981 -0.732c0.101,-0.03 0.17,-0.077 0.206,-0.143 0.069,-0.063 0.105,-0.145 0.109,-0.246l0.065 -1.648 0 0zm-2.95 1.235c0.127,0.138 0.188,0.291 0.181,0.457 -0.006,0.167 -0.079,0.314 -0.217,0.442 -0.139,0.128 -0.291,0.188 -0.458,0.182 -0.166,-0.007 -0.313,-0.079 -0.441,-0.218 -0.128,-0.138 -0.189,-0.291 -0.183,-0.457 0.007,-0.167 0.08,-0.314 0.218,-0.442 0.139,-0.128 0.291,-0.189 0.458,-0.182 0.166,0.006 0.313,0.079 0.442,0.218z"/>
      </g>
     </g>
    </g>
   </g>
  </g>
  <g id="body_FL_FL_FL_FL_FL_FL_FL_FL">
   <g>
    <g>
     <g>
      <g>
       <path class="fil0" d="M199.35 201.05l-3.9 0 0 4.1 16.4 0 0 -4.1 -12.5 0 0 0zm-11.1 0l-15.4 0 0 4.1 15.4 0 0 -4.1z"/>
      </g>
      <polygon class="fil4" points="188.25,199.55 188.25,201.05 188.25,205.15 195.45,205.15 195.45,201.05 195.45,199.55 "/>
      <g>
       <path class="fil5" d="M183.35 187.55l0 0.05c-0.367,0.967 -0.35,1.917 0.05,2.85 0.4,0.967 1.083,1.633 2.05,2 0.967,0.4 1.916,0.383 2.85,-0.05 0.179,-0.072 0.346,-0.155 0.5,-0.25l-5.45 -4.6 0 0zm9.2 -2.8l0.3 -0.65c0.4,-0.967 0.383,-1.933 -0.05,-2.9 -0.4,-0.933 -1.084,-1.6 -2.05,-2 -0.967,-0.367 -1.917,-0.35 -2.85,0.05 -0.406,0.182 -0.773,0.399 -1.1,0.65l5.75 4.85 0 0zm7.5 3.35c0,0.4 0.2,0.6 0.6,0.6l6.1 0c0.4,0 0.6,-0.2 0.6,-0.6l0 -2c0,-0.4 -0.2,-0.6 -0.6,-0.6l-6.1 0c-0.4,0 -0.6,0.2 -0.6,0.6l0 2z"/>
      </g>
      <g>
       <path class="fil2" d="M183.35 187.6l0 -0.05 -10.5 -8.85 0 22.35 15.4 0 0 -1.5 7.2 0 0 1.5 3.9 0 -10.55 -8.9c-0.154,0.095 -0.321,0.178 -0.5,0.25 -0.934,0.433 -1.884,0.45 -2.85,0.05 -0.967,-0.367 -1.65,-1.033 -2.05,-2 -0.4,-0.933 -0.417,-1.884 -0.05,-2.85l0 0zm9.5 -3.5l-0.3 0.65 19.3 16.3 0 -26.9 -31.9 0 6.85 5.75c0.327,-0.251 0.694,-0.468 1.1,-0.65 0.933,-0.4 1.883,-0.417 2.85,-0.05 0.966,0.4 1.65,1.067 2.05,2 0.433,0.967 0.45,1.933 0.05,2.9l0 0zm13.95 -2.65c0.1,0.1 0.15,0.2 0.15,0.3l0 1.65c0,0.1 -0.033,0.183 -0.1,0.25 -0.033,0.067 -0.1,0.116 -0.2,0.15l-2.95 0.85c-0.067,0.033 -0.134,0.033 -0.2,0l-3 -0.85c-0.067,-0.033 -0.133,-0.083 -0.2,-0.15 -0.067,-0.067 -0.1,-0.15 -0.1,-0.25l0 -1.65c0,-0.1 0.05,-0.2 0.15,-0.3 0.066,-0.067 0.15,-0.1 0.25,-0.1l5.95 0c0.1,0 0.183,0.033 0.25,0.1l0 0zm-6.15 7.25c-0.4,0 -0.6,-0.2 -0.6,-0.6l0 -2c0,-0.4 0.2,-0.6 0.6,-0.6l6.1 0c0.4,0 0.6,0.2 0.6,0.6l0 2c0,0.4 -0.2,0.6 -0.6,0.6l-6.1 0 0 0zm3.6 -5.15c0,-0.167 -0.067,-0.317 -0.2,-0.45 -0.134,-0.133 -0.283,-0.2 -0.45,-0.2 -0.167,0 -0.317,0.067 -0.45,0.2 -0.134,0.134 -0.2,0.283 -0.2,0.45 0,0.167 0.066,0.317 0.2,0.45 0.133,0.133 0.283,0.2 0.45,0.2 0.167,0 0.317,-0.067 0.45,-0.2 0.133,-0.133 0.2,-0.283 0.2,-0.45z"/>
      </g>
      <polygon class="fil3" points="172.85,174.15 172.85,178.7 183.35,187.55 188.8,192.15 199.35,201.05 211.85,201.05 192.55,184.75 186.8,179.9 179.95,174.15 "/>
      <g>
       <path class="fil1" d="M206.95 181.75c0,-0.1 -0.05,-0.2 -0.15,-0.3 -0.067,-0.067 -0.15,-0.1 -0.25,-0.1l-5.95 0c-0.1,0 -0.184,0.033 -0.25,0.1 -0.1,0.1 -0.15,0.2 -0.15,0.3l0 1.65c0,0.1 0.033,0.183 0.1,0.25 0.067,0.067 0.133,0.116 0.2,0.15l3 0.85c0.066,0.033 0.133,0.033 0.2,0l2.95 -0.85c0.1,-0.033 0.166,-0.083 0.2,-0.15 0.067,-0.067 0.1,-0.15 0.1,-0.25l0 -1.65 0 0zm-2.9 1.35c0.133,0.134 0.2,0.283 0.2,0.45 0,0.167 -0.067,0.317 -0.2,0.45 -0.134,0.133 -0.283,0.2 -0.45,0.2 -0.167,0 -0.317,-0.067 -0.45,-0.2 -0.134,-0.133 -0.2,-0.283 -0.2,-0.45 0,-0.167 0.066,-0.317 0.2,-0.45 0.133,-0.133 0.283,-0.2 0.45,-0.2 0.167,0 0.317,0.067 0.45,0.2z"/>
      </g>
     </g>
    </g>
   </g>
  </g>
  <g id="body_FL_FL_FL_FL_FL_FL_FL_FL_FL">
   <g>
    <g>
     <g>
      <g>
       <path class="fil0" d="M358.157 198.51l-3.468 0.478 0.338 4.086 14.585 -2.011 -0.339 -4.086 -11.116 1.533 0 0zm-9.871 1.361l-13.695 1.889 0.339 4.086 13.694 -1.889 -0.338 -4.086z"/>
      </g>
      <polygon class="fil4" points="348.162,198.376 348.286,199.871 348.624,203.957 355.027,203.074 354.689,198.988 354.565,197.493 "/>
      <g>
       <path class="fil5" d="M342.813 187.018l0.004 0.05c-0.246,1.009 -0.153,1.953 0.28,2.835 0.436,0.914 1.099,1.494 1.989,1.741 0.892,0.28 1.736,0.147 2.53,-0.399 0.153,-0.094 0.295,-0.197 0.424,-0.311l-5.227 -3.916 0 0zm7.951 -3.918l0.213 -0.685c0.276,-1.012 0.181,-1.973 -0.284,-2.883 -0.433,-0.881 -1.096,-1.462 -1.989,-1.742 -0.89,-0.247 -1.733,-0.114 -2.53,0.399 -0.346,0.231 -0.654,0.492 -0.924,0.783l5.514 4.128 0 0zm6.946 2.419c0.033,0.398 0.227,0.573 0.583,0.524l5.425 -0.748c0.355,-0.049 0.517,-0.273 0.484,-0.672l-0.165 -1.993c-0.034,-0.398 -0.228,-0.573 -0.584,-0.524l-5.424 0.748c-0.356,0.049 -0.517,0.273 -0.485,0.671l0.166 1.994z"/>
      </g>
      <g>
       <path class="fil2" d="M342.817 187.068l-0.004 -0.05 -10.068 -7.531 1.846 22.273 13.695 -1.889 -0.124 -1.495 6.403 -0.883 0.124 1.495 3.468 -0.478 -10.117 -7.576c-0.129,0.114 -0.271,0.217 -0.424,0.311 -0.794,0.546 -1.638,0.679 -2.53,0.399 -0.89,-0.247 -1.553,-0.827 -1.989,-1.741 -0.433,-0.881 -0.526,-1.826 -0.28,-2.835l0 0zm8.16 -4.653l-0.213 0.685 18.509 13.877 -2.222 -26.808 -28.368 3.912 6.567 4.891c0.27,-0.291 0.578,-0.552 0.924,-0.783 0.797,-0.513 1.64,-0.646 2.53,-0.399 0.893,0.28 1.556,0.86 1.989,1.742 0.465,0.91 0.559,1.871 0.284,2.883l0 0zm12.186 -4.351c0.097,0.087 0.15,0.181 0.158,0.28l0.137 1.644c0.008,0.1 -0.015,0.187 -0.069,0.262 -0.024,0.07 -0.079,0.129 -0.165,0.174l-2.553 1.209c-0.057,0.041 -0.116,0.049 -0.178,0.025l-2.738 -0.48c-0.062,-0.025 -0.126,-0.067 -0.191,-0.125 -0.064,-0.058 -0.101,-0.137 -0.109,-0.237l-0.136 -1.644c-0.009,-0.1 0.028,-0.206 0.108,-0.317 0.054,-0.075 0.125,-0.118 0.215,-0.131l5.291 -0.729c0.088,-0.013 0.165,0.01 0.23,0.069l0 0zm-4.87 7.979c-0.356,0.049 -0.55,-0.126 -0.583,-0.524l-0.166 -1.994c-0.032,-0.398 0.129,-0.622 0.485,-0.671l5.424 -0.748c0.356,-0.049 0.55,0.126 0.584,0.524l0.165 1.993c0.033,0.399 -0.129,0.623 -0.484,0.672l-5.425 0.748 0 0zm2.776 -5.574c-0.014,-0.166 -0.086,-0.307 -0.215,-0.424 -0.13,-0.116 -0.269,-0.164 -0.417,-0.144 -0.148,0.021 -0.276,0.105 -0.383,0.255 -0.108,0.149 -0.155,0.306 -0.141,0.473 0.014,0.166 0.085,0.307 0.215,0.423 0.13,0.117 0.268,0.165 0.417,0.145 0.148,-0.021 0.276,-0.106 0.383,-0.255 0.108,-0.149 0.155,-0.307 0.141,-0.473z"/>
      </g>
      <polygon class="fil3" points="332.369,174.952 332.745,179.487 342.813,187.018 348.04,190.934 358.157,198.51 369.273,196.977 350.764,183.1 345.25,178.972 338.683,174.081 "/>
      <g>
       <path class="fil1" d="M363.321 178.344c-0.008,-0.099 -0.061,-0.193 -0.158,-0.28 -0.065,-0.059 -0.141,-0.082 -0.23,-0.069l-5.291 0.729c-0.09,0.013 -0.161,0.056 -0.215,0.131 -0.08,0.111 -0.117,0.217 -0.108,0.317l0.136 1.644c0.008,0.1 0.045,0.179 0.109,0.237 0.065,0.058 0.129,0.1 0.191,0.125l2.738 0.48c0.062,0.024 0.121,0.016 0.178,-0.025l2.553 -1.209c0.086,-0.045 0.141,-0.104 0.165,-0.174 0.054,-0.075 0.077,-0.162 0.069,-0.262l-0.137 -1.644 0 0zm-2.467 1.701c0.129,0.117 0.201,0.258 0.215,0.424 0.014,0.166 -0.033,0.324 -0.141,0.473 -0.107,0.149 -0.235,0.234 -0.383,0.255 -0.149,0.02 -0.288,-0.028 -0.417,-0.145 -0.13,-0.116 -0.201,-0.257 -0.215,-0.423 -0.014,-0.167 0.033,-0.324 0.141,-0.473 0.107,-0.15 0.235,-0.234 0.383,-0.255 0.148,-0.02 0.288,0.028 0.417,0.144z"/>
      </g>
     </g>
    </g>
   </g>
  </g>
  <g id="body_FL_FL_FL_FL_FL_FL_FL_FL_FL_FL">
   <g>
    <g>
     <g>
      <g>
       <path class="fil0" d="M437.461 200.944l-3.562 -0.714 -0.411 4.079 14.982 3.005 0.41 -4.08 -11.419 -2.29 0 0zm-10.14 -2.033l-14.068 -2.821 -0.41 4.079 14.068 2.821 0.41 -4.079z"/>
      </g>
      <polygon class="fil4" points="427.471,197.419 427.321,198.911 426.911,202.99 433.488,204.309 433.899,200.23 434.049,198.737 "/>
      <g>
       <path class="fil5" d="M424.195 184.581l-0.005 0.05c-0.431,0.894 -0.511,1.843 -0.239,2.845 0.269,1.035 0.826,1.823 1.673,2.365 0.843,0.575 1.712,0.733 2.608,0.472 0.171,-0.038 0.332,-0.09 0.482,-0.156l-4.519 -5.576 0 0zm8.685 -1.1l0.339 -0.592c0.462,-0.889 0.543,-1.854 0.244,-2.895 -0.272,-1.002 -0.829,-1.79 -1.672,-2.365 -0.847,-0.542 -1.716,-0.7 -2.609,-0.473 -0.389,0.107 -0.746,0.256 -1.07,0.446l4.768 5.879 0 0zm6.516 4.707c-0.04,0.398 0.123,0.633 0.488,0.707l5.573 1.117c0.365,0.073 0.568,-0.089 0.608,-0.487l0.2 -1.99c0.04,-0.398 -0.123,-0.633 -0.489,-0.707l-5.572 -1.117c-0.365,-0.074 -0.568,0.089 -0.608,0.487l-0.2 1.99z"/>
      </g>
      <g>
       <path class="fil2" d="M424.19 184.631l0.005 -0.05 -8.706 -10.729 -2.236 22.238 14.068 2.821 0.15 -1.492 6.578 1.318 -0.15 1.493 3.562 0.714 -8.747 -10.787c-0.15,0.066 -0.311,0.118 -0.482,0.156 -0.896,0.261 -1.765,0.103 -2.608,-0.472 -0.847,-0.542 -1.404,-1.33 -1.673,-2.365 -0.272,-1.002 -0.192,-1.951 0.239,-2.845l0 0zm9.029 -1.742l-0.339 0.592 16 19.753 2.691 -26.764 -29.141 -5.844 5.682 6.976c0.324,-0.19 0.681,-0.339 1.07,-0.446 0.893,-0.227 1.762,-0.069 2.609,0.473 0.843,0.575 1.4,1.363 1.672,2.365 0.299,1.041 0.218,2.006 -0.244,2.895l0 0zm13.008 -0.081c0.082,0.118 0.118,0.226 0.107,0.326l-0.164 1.642c-0.011,0.099 -0.049,0.176 -0.117,0.23 -0.037,0.06 -0.103,0.098 -0.198,0.112l-2.779 0.306c-0.065,0.021 -0.126,0.009 -0.183,-0.037l-2.656 -1.395c-0.057,-0.046 -0.113,-0.108 -0.168,-0.186 -0.054,-0.079 -0.076,-0.168 -0.066,-0.267l0.165 -1.642c0.01,-0.099 0.066,-0.19 0.167,-0.271 0.068,-0.054 0.147,-0.072 0.239,-0.054l5.435 1.09c0.091,0.019 0.164,0.067 0.218,0.146l0 0zm-6.343 6.087c-0.365,-0.074 -0.528,-0.309 -0.488,-0.707l0.2 -1.99c0.04,-0.398 0.243,-0.561 0.608,-0.487l5.572 1.117c0.366,0.074 0.529,0.309 0.489,0.707l-0.2 1.99c-0.04,0.398 -0.243,0.56 -0.608,0.487l-5.573 -1.117 0 0zm3.804 -4.465c0.017,-0.166 -0.029,-0.327 -0.138,-0.484 -0.108,-0.158 -0.239,-0.251 -0.391,-0.282 -0.152,-0.03 -0.296,0.009 -0.431,0.117 -0.135,0.108 -0.211,0.245 -0.228,0.411 -0.016,0.166 0.029,0.327 0.138,0.484 0.108,0.157 0.239,0.251 0.391,0.282 0.152,0.03 0.296,-0.009 0.431,-0.117 0.135,-0.108 0.211,-0.245 0.228,-0.411z"/>
      </g>
      <polygon class="fil3" points="415.944,169.325 415.489,173.852 424.195,184.581 428.714,190.157 437.461,200.944 448.88,203.234 432.88,183.481 428.112,177.602 422.43,170.626 "/>
      <g>
       <path class="fil1" d="M446.334 183.134c0.011,-0.1 -0.025,-0.208 -0.107,-0.326 -0.054,-0.079 -0.127,-0.127 -0.218,-0.146l-5.435 -1.09c-0.092,-0.018 -0.171,0 -0.239,0.054 -0.101,0.081 -0.157,0.172 -0.167,0.271l-0.165 1.642c-0.01,0.099 0.012,0.189 0.066,0.267 0.055,0.078 0.111,0.14 0.168,0.186l2.656 1.395c0.057,0.046 0.118,0.058 0.183,0.037l2.779 -0.306c0.095,-0.014 0.161,-0.052 0.198,-0.112 0.068,-0.054 0.106,-0.131 0.117,-0.23l0.164 -1.642 0 0zm-2.784 0.812c0.109,0.157 0.155,0.318 0.138,0.484 -0.017,0.166 -0.093,0.303 -0.228,0.411 -0.135,0.108 -0.279,0.147 -0.431,0.117 -0.152,-0.031 -0.283,-0.125 -0.391,-0.282 -0.109,-0.157 -0.154,-0.318 -0.138,-0.484 0.017,-0.166 0.093,-0.303 0.228,-0.411 0.135,-0.108 0.279,-0.147 0.431,-0.117 0.152,0.031 0.283,0.124 0.391,0.282z"/>
      </g>
     </g>
    </g>
   </g>
  </g>
  <g id="body_FL_FL_FL_FL_FL_FL_FL_FL_FL_FL_FL">
   <g>
    <g>
     <g>
      <g>
       <path class="fil0" d="M523.211 196.857l-3.508 0.705 0.461 4.074 14.754 -2.963 -0.461 -4.074 -11.246 2.258 0 0zm-9.986 2.006l-13.855 2.783 0.462 4.074 13.854 -2.783 -0.461 -4.074z"/>
      </g>
      <polygon class="fil4" points="513.056,197.372 513.225,198.863 513.686,202.937 520.164,201.636 519.703,197.562 519.534,196.072 "/>
      <g>
       <path class="fil5" d="M507.298 186.334l0.006 0.05c-0.221,1.027 -0.1,1.968 0.365,2.823 0.469,0.888 1.159,1.427 2.07,1.617 0.914,0.222 1.767,0.034 2.558,-0.565 0.153,-0.104 0.294,-0.217 0.422,-0.339l-5.421 -3.586 0 0zm7.962 -4.444l0.197 -0.7c0.251,-1.033 0.127,-1.991 -0.371,-2.873 -0.465,-0.855 -1.155,-1.394 -2.07,-1.617 -0.911,-0.189 -1.763,-0.001 -2.558,0.565 -0.345,0.254 -0.65,0.536 -0.917,0.845l5.719 3.78 0 0zm7.124 1.973c0.045,0.397 0.248,0.56 0.608,0.488l5.487 -1.102c0.36,-0.072 0.518,-0.308 0.473,-0.705l-0.225 -1.987c-0.045,-0.398 -0.248,-0.56 -0.607,-0.488l-5.488 1.102c-0.36,0.073 -0.518,0.307 -0.473,0.705l0.225 1.987z"/>
      </g>
      <g>
       <path class="fil2" d="M507.304 186.384l-0.006 -0.05 -10.442 -6.896 2.514 22.208 13.855 -2.783 -0.169 -1.491 6.478 -1.3 0.169 1.49 3.508 -0.705 -10.492 -6.937c-0.128,0.122 -0.269,0.235 -0.422,0.339 -0.791,0.599 -1.644,0.787 -2.558,0.565 -0.911,-0.19 -1.601,-0.729 -2.07,-1.617 -0.465,-0.855 -0.586,-1.796 -0.365,-2.823l0 0zm8.153 -5.194l-0.197 0.7 19.197 12.709 -3.026 -26.729 -28.699 5.764 6.809 4.476c0.267,-0.309 0.572,-0.591 0.917,-0.845 0.795,-0.566 1.647,-0.754 2.558,-0.565 0.915,0.223 1.605,0.762 2.07,1.617 0.498,0.882 0.622,1.84 0.371,2.873l0 0zm12.252 -5.154c0.101,0.081 0.157,0.171 0.169,0.271l0.185 1.639c0.012,0.1 -0.009,0.189 -0.062,0.267 -0.022,0.072 -0.076,0.134 -0.163,0.185l-2.558 1.378c-0.056,0.045 -0.116,0.057 -0.18,0.036l-2.794 -0.303c-0.064,-0.021 -0.13,-0.058 -0.197,-0.113 -0.068,-0.054 -0.107,-0.131 -0.118,-0.23l-0.186 -1.64c-0.011,-0.099 0.022,-0.207 0.101,-0.325 0.053,-0.078 0.124,-0.126 0.214,-0.144l5.353 -1.076c0.09,-0.017 0.168,0 0.236,0.055l0 0zm-4.717 8.315c-0.36,0.072 -0.563,-0.091 -0.608,-0.488l-0.225 -1.987c-0.045,-0.398 0.113,-0.632 0.473,-0.705l5.488 -1.102c0.359,-0.072 0.562,0.09 0.607,0.488l0.225 1.987c0.045,0.397 -0.113,0.633 -0.473,0.705l-5.487 1.102 0 0zm2.659 -5.768c-0.019,-0.165 -0.095,-0.302 -0.23,-0.411 -0.135,-0.108 -0.278,-0.147 -0.428,-0.117 -0.15,0.03 -0.277,0.123 -0.382,0.28 -0.105,0.156 -0.148,0.317 -0.13,0.483 0.019,0.165 0.096,0.303 0.231,0.411 0.135,0.109 0.277,0.148 0.427,0.117 0.15,-0.03 0.278,-0.123 0.383,-0.279 0.105,-0.157 0.148,-0.318 0.129,-0.484z"/>
      </g>
      <polygon class="fil3" points="496.344,174.917 496.856,179.438 507.298,186.334 512.719,189.92 523.211,196.857 534.457,194.599 515.26,181.89 509.541,178.11 502.732,173.634 "/>
      <g>
       <path class="fil1" d="M527.878 176.307c-0.012,-0.1 -0.068,-0.19 -0.169,-0.271 -0.068,-0.054 -0.146,-0.072 -0.236,-0.055l-5.353 1.076c-0.09,0.018 -0.161,0.066 -0.214,0.144 -0.079,0.118 -0.112,0.226 -0.101,0.325l0.186 1.64c0.011,0.099 0.05,0.176 0.118,0.23 0.067,0.055 0.133,0.092 0.197,0.113l2.794 0.303c0.064,0.021 0.124,0.009 0.18,-0.036l2.558 -1.378c0.087,-0.051 0.141,-0.113 0.163,-0.185 0.053,-0.078 0.074,-0.167 0.062,-0.267l-0.185 -1.639 0 0zm-2.457 1.865c0.135,0.109 0.211,0.246 0.23,0.411 0.019,0.166 -0.024,0.327 -0.129,0.484 -0.105,0.156 -0.233,0.249 -0.383,0.279 -0.15,0.031 -0.292,-0.008 -0.427,-0.117 -0.135,-0.108 -0.212,-0.245 -0.231,-0.411 -0.018,-0.166 0.025,-0.327 0.13,-0.483 0.105,-0.157 0.232,-0.25 0.382,-0.28 0.15,-0.03 0.293,0.009 0.428,0.117z"/>
      </g>
     </g>
    </g>
   </g>
  </g>
  <g id="body_FL_FL_FL_FL_FL_FL_FL_FL_FL_FL_FL_FL">
   <g>
    <g>
     <g>
      <g>
       <path class="fil0" d="M608.9 91.05l-3.9 0 0 4.1 16.4 0 0 -4.1 -12.5 0 0 0zm-11.1 0l-15.4 0 0 4.1 15.4 0 0 -4.1z"/>
      </g>
      <polygon class="fil4" points="597.8,89.55 597.8,91.05 597.8,95.15 605,95.15 605,91.05 605,89.55 "/>
      <g>
       <path class="fil5" d="M592.9 77.55l0 0.05c-0.366,0.967 -0.35,1.916 0.05,2.85 0.4,0.967 1.084,1.633 2.05,2 0.967,0.4 1.917,0.383 2.85,-0.05 0.18,-0.072 0.346,-0.155 0.5,-0.25l-5.45 -4.6 0 0zm9.2 -2.8l0.3 -0.65c0.4,-0.967 0.383,-1.934 -0.05,-2.9 -0.4,-0.934 -1.083,-1.6 -2.05,-2 -0.966,-0.367 -1.916,-0.35 -2.85,0.05 -0.406,0.182 -0.772,0.398 -1.1,0.65l5.75 4.85 0 0zm7.5 3.35c0,0.4 0.2,0.6 0.6,0.6l6.1 0c0.4,0 0.6,-0.2 0.6,-0.6l0 -2c0,-0.4 -0.2,-0.6 -0.6,-0.6l-6.1 0c-0.4,0 -0.6,0.2 -0.6,0.6l0 2z"/>
      </g>
      <g>
       <path class="fil2" d="M592.9 77.6l0 -0.05 -10.5 -8.85 0 22.35 15.4 0 0 -1.5 7.2 0 0 1.5 3.9 0 -10.55 -8.9c-0.154,0.095 -0.32,0.178 -0.5,0.25 -0.933,0.433 -1.883,0.45 -2.85,0.05 -0.966,-0.367 -1.65,-1.034 -2.05,-2 -0.4,-0.934 -0.417,-1.883 -0.05,-2.85l0 0zm9.5 -3.5l-0.3 0.65 19.3 16.3 0 -26.9 -31.9 0 6.85 5.75c0.328,-0.252 0.694,-0.468 1.1,-0.65 0.934,-0.4 1.884,-0.417 2.85,-0.05 0.967,0.4 1.65,1.066 2.05,2 0.433,0.967 0.45,1.933 0.05,2.9l0 0zm13.95 -2.65c0.1,0.1 0.15,0.2 0.15,0.3l0 1.65c0,0.1 -0.033,0.183 -0.1,0.25 -0.033,0.066 -0.1,0.117 -0.2,0.15l-2.95 0.85c-0.066,0.033 -0.133,0.033 -0.2,0l-3 -0.85c-0.066,-0.033 -0.133,-0.083 -0.2,-0.15 -0.066,-0.067 -0.1,-0.15 -0.1,-0.25l0 -1.65c0,-0.1 0.05,-0.2 0.15,-0.3 0.067,-0.067 0.15,-0.1 0.25,-0.1l5.95 0c0.1,0 0.184,0.033 0.25,0.1l0 0zm-6.15 7.25c-0.4,0 -0.6,-0.2 -0.6,-0.6l0 -2c0,-0.4 0.2,-0.6 0.6,-0.6l6.1 0c0.4,0 0.6,0.2 0.6,0.6l0 2c0,0.4 -0.2,0.6 -0.6,0.6l-6.1 0 0 0zm3.6 -5.15c0,-0.167 -0.066,-0.317 -0.2,-0.45 -0.133,-0.133 -0.283,-0.2 -0.45,-0.2 -0.166,0 -0.316,0.067 -0.45,0.2 -0.133,0.133 -0.2,0.283 -0.2,0.45 0,0.167 0.067,0.316 0.2,0.45 0.134,0.133 0.284,0.2 0.45,0.2 0.167,0 0.317,-0.067 0.45,-0.2 0.134,-0.134 0.2,-0.283 0.2,-0.45z"/>
      </g>
      <polygon class="fil3" points="582.4,64.15 582.4,68.7 592.9,77.55 598.35,82.15 608.9,91.05 621.4,91.05 602.1,74.75 596.35,69.9 589.5,64.15 "/>
      <g>
       <path class="fil1" d="M616.5 71.75c0,-0.1 -0.05,-0.2 -0.15,-0.3 -0.066,-0.067 -0.15,-0.1 -0.25,-0.1l-5.95 0c-0.1,0 -0.183,0.033 -0.25,0.1 -0.1,0.1 -0.15,0.2 -0.15,0.3l0 1.65c0,0.1 0.034,0.183 0.1,0.25 0.067,0.066 0.134,0.117 0.2,0.15l3 0.85c0.067,0.033 0.134,0.033 0.2,0l2.95 -0.85c0.1,-0.033 0.167,-0.083 0.2,-0.15 0.067,-0.067 0.1,-0.15 0.1,-0.25l0 -1.65 0 0zm-2.9 1.35c0.134,0.133 0.2,0.283 0.2,0.45 0,0.167 -0.066,0.316 -0.2,0.45 -0.133,0.133 -0.283,0.2 -0.45,0.2 -0.166,0 -0.316,-0.067 -0.45,-0.2 -0.133,-0.134 -0.2,-0.283 -0.2,-0.45 0,-0.167 0.067,-0.317 0.2,-0.45 0.134,-0.133 0.284,-0.2 0.45,-0.2 0.167,0 0.317,0.067 0.45,0.2z"/>
      </g>
     </g>
    </g>
   </g>
  </g>
  <g id="body_FL_FL_FL_FL_FL_FL_FL_FL_FL_FL_FL_FL_FL">
   <g>
    <g>
     <g>
      <g>
       <path class="fil0" d="M607.371 195.05l-3.495 0 0 4.1 14.696 0 0 -4.1 -11.201 0 0 0zm-9.947 0l-13.8 0 0 4.1 13.8 0 0 -4.1z"/>
      </g>
      <polygon class="fil4" points="597.424,193.55 597.424,195.05 597.424,199.15 603.876,199.15 603.876,195.05 603.876,193.55 "/>
      <g>
       <path class="fil5" d="M593.033 181.55l0 0.05c-0.328,0.967 -0.313,1.917 0.045,2.85 0.359,0.967 0.971,1.633 1.837,2 0.867,0.4 1.718,0.383 2.554,-0.05 0.161,-0.072 0.31,-0.155 0.448,-0.25l-4.884 -4.6 0 0zm8.244 -2.8l0.269 -0.65c0.359,-0.967 0.344,-1.933 -0.045,-2.9 -0.358,-0.933 -0.97,-1.6 -1.836,-2 -0.867,-0.367 -1.718,-0.35 -2.554,0.05 -0.364,0.182 -0.693,0.399 -0.986,0.65l5.152 4.85 0 0zm6.721 3.35c0,0.4 0.18,0.6 0.538,0.6l5.466 0c0.359,0 0.538,-0.2 0.538,-0.6l0 -2c0,-0.4 -0.179,-0.6 -0.538,-0.6l-5.466 0c-0.358,0 -0.538,0.2 -0.538,0.6l0 2z"/>
      </g>
      <g>
       <path class="fil2" d="M593.033 181.6l0 -0.05 -9.409 -8.85 0 22.35 13.8 0 0 -1.5 6.452 0 0 1.5 3.495 0 -9.454 -8.9c-0.138,0.095 -0.287,0.178 -0.448,0.25 -0.836,0.433 -1.687,0.45 -2.554,0.05 -0.866,-0.367 -1.478,-1.033 -1.837,-2 -0.358,-0.933 -0.373,-1.884 -0.045,-2.85l0 0zm8.513 -3.5l-0.269 0.65 17.295 16.3 0 -26.9 -28.585 0 6.138 5.75c0.293,-0.251 0.622,-0.468 0.986,-0.65 0.836,-0.4 1.687,-0.417 2.554,-0.05 0.866,0.4 1.478,1.067 1.836,2 0.389,0.967 0.404,1.933 0.045,2.9l0 0zm12.501 -2.65c0.089,0.1 0.134,0.2 0.134,0.3l0 1.65c0,0.1 -0.029,0.183 -0.089,0.25 -0.03,0.067 -0.09,0.116 -0.179,0.15l-2.644 0.85c-0.06,0.033 -0.12,0.033 -0.179,0l-2.689 -0.85c-0.059,-0.033 -0.119,-0.083 -0.179,-0.15 -0.059,-0.067 -0.089,-0.15 -0.089,-0.25l0 -1.65c0,-0.1 0.045,-0.2 0.134,-0.3 0.06,-0.067 0.134,-0.1 0.224,-0.1l5.332 0c0.09,0 0.164,0.033 0.224,0.1l0 0zm-5.511 7.25c-0.358,0 -0.538,-0.2 -0.538,-0.6l0 -2c0,-0.4 0.18,-0.6 0.538,-0.6l5.466 0c0.359,0 0.538,0.2 0.538,0.6l0 2c0,0.4 -0.179,0.6 -0.538,0.6l-5.466 0 0 0zm3.226 -5.15c0,-0.167 -0.06,-0.317 -0.179,-0.45 -0.12,-0.133 -0.254,-0.2 -0.404,-0.2 -0.149,0 -0.283,0.067 -0.403,0.2 -0.119,0.134 -0.179,0.283 -0.179,0.45 0,0.167 0.06,0.317 0.179,0.45 0.12,0.133 0.254,0.2 0.403,0.2 0.15,0 0.284,-0.067 0.404,-0.2 0.119,-0.133 0.179,-0.283 0.179,-0.45z"/>
      </g>
      <polygon class="fil3" points="583.624,168.15 583.624,172.7 593.033,181.55 597.917,186.15 607.371,195.05 618.572,195.05 601.277,178.75 596.125,173.9 589.987,168.15 "/>
      <g>
       <path class="fil1" d="M614.181 175.75c0,-0.1 -0.045,-0.2 -0.134,-0.3 -0.06,-0.067 -0.134,-0.1 -0.224,-0.1l-5.332 0c-0.089,0 -0.164,0.033 -0.224,0.1 -0.089,0.1 -0.134,0.2 -0.134,0.3l0 1.65c0,0.1 0.03,0.183 0.089,0.25 0.06,0.067 0.12,0.116 0.179,0.15l2.689 0.85c0.059,0.033 0.119,0.033 0.179,0l2.644 -0.85c0.089,-0.033 0.149,-0.083 0.179,-0.15 0.06,-0.067 0.089,-0.15 0.089,-0.25l0 -1.65 0 0zm-2.598 1.35c0.119,0.134 0.179,0.283 0.179,0.45 0,0.167 -0.06,0.317 -0.179,0.45 -0.12,0.133 -0.254,0.2 -0.404,0.2 -0.149,0 -0.283,-0.067 -0.403,-0.2 -0.119,-0.133 -0.179,-0.283 -0.179,-0.45 0,-0.167 0.06,-0.317 0.179,-0.45 0.12,-0.133 0.254,-0.2 0.403,-0.2 0.15,0 0.284,0.067 0.404,0.2z"/>
      </g>
     </g>
    </g>
   </g>
  </g>
  <g id="body_FL_FL_FL_FL_FL_FL_FL_FL_FL_FL_FL_FL_FL_FL">
   <g>
    <g>
     <g>
      <g>
       <path class="fil0" d="M136.517 298.089l-1.755 2.553 3.886 1.562 7.382 -10.735 -3.886 -1.562 -5.627 8.182 0 0zm-4.995 7.265l-6.931 10.08 3.886 1.562 6.931 -10.08 -3.886 -1.562z"/>
      </g>
      <polygon class="fil4" points="130.1,304.783 131.522,305.354 135.408,306.916 138.648,302.204 134.762,300.642 133.34,300.07 "/>
      <g>
       <path class="fil5" d="M116.52 303.418l0.048 0.019c0.751,0.609 1.659,0.96 2.724,1.053 1.096,0.107 2.035,-0.087 2.818,-0.579 0.814,-0.481 1.226,-1.109 1.235,-1.885 0.013,-0.145 0.009,-0.286 -0.011,-0.422l-6.814 1.814 0 0zm1.487 -7.088l-0.481 -0.444c-0.736,-0.63 -1.66,-0.988 -2.771,-1.072 -1.065,-0.094 -2.004,0.099 -2.819,0.579 -0.782,0.494 -1.194,1.122 -1.235,1.885 -0.01,0.335 0.03,0.658 0.121,0.967l7.185 -1.915 0 0zm6.551 -3.633c0.379,0.152 0.659,0.098 0.839,-0.164l2.745 -3.993c0.18,-0.262 0.081,-0.469 -0.299,-0.621l-1.895 -0.762c-0.379,-0.153 -0.659,-0.098 -0.839,0.164l-2.745 3.993c-0.18,0.261 -0.081,0.468 0.298,0.621l1.896 0.762z"/>
      </g>
      <g>
       <path class="fil2" d="M116.568 303.437l-0.048 -0.019 -13.114 3.501 21.185 8.515 6.931 -10.08 -1.422 -0.571 3.24 -4.713 1.422 0.572 1.755 -2.553 -13.183 3.515c0.02,0.136 0.024,0.277 0.011,0.422 -0.009,0.776 -0.421,1.404 -1.235,1.885 -0.783,0.492 -1.722,0.686 -2.818,0.579 -1.065,-0.093 -1.973,-0.444 -2.724,-1.053l0 0zm0.958 -7.551l0.481 0.444 24.137 -6.423 -25.497 -10.249 -14.358 20.881 8.533 -2.294c-0.091,-0.309 -0.131,-0.632 -0.121,-0.967 0.041,-0.763 0.453,-1.391 1.235,-1.885 0.815,-0.48 1.754,-0.673 2.819,-0.579 1.111,0.084 2.035,0.441 2.771,1.072l0 0zm3.767 -10.141c0.14,-0.027 0.257,-0.022 0.352,0.016l1.564 0.629c0.094,0.038 0.158,0.092 0.192,0.161 0.048,0.047 0.065,0.109 0.052,0.188l-0.522 2.255c0.001,0.056 -0.029,0.099 -0.09,0.13l-2.156 1.64c-0.062,0.031 -0.139,0.056 -0.232,0.074 -0.093,0.018 -0.188,0.008 -0.282,-0.03l-1.564 -0.628c-0.095,-0.039 -0.167,-0.109 -0.217,-0.213 -0.033,-0.069 -0.028,-0.136 0.017,-0.202l2.679 -3.894c0.045,-0.065 0.114,-0.107 0.207,-0.126l0 0zm4.104 6.788c-0.18,0.262 -0.46,0.316 -0.839,0.164l-1.896 -0.762c-0.379,-0.153 -0.478,-0.36 -0.298,-0.621l2.745 -3.993c0.18,-0.262 0.46,-0.317 0.839,-0.164l1.895 0.762c0.379,0.152 0.479,0.359 0.299,0.621l-2.745 3.993 0 0zm-3.261 -4.318c-0.158,-0.064 -0.33,-0.078 -0.517,-0.041 -0.186,0.036 -0.317,0.109 -0.392,0.218 -0.075,0.109 -0.079,0.233 -0.013,0.371 0.066,0.138 0.179,0.239 0.336,0.302 0.158,0.064 0.331,0.077 0.517,0.041 0.186,-0.036 0.317,-0.109 0.392,-0.219 0.075,-0.108 0.079,-0.232 0.013,-0.37 -0.066,-0.138 -0.178,-0.239 -0.336,-0.302z"/>
      </g>
      <polygon class="fil3" points="99.094,305.186 103.406,306.919 116.52,303.418 123.334,301.604 136.517,298.089 142.144,289.907 118.007,296.33 110.822,298.245 102.289,300.539 "/>
      <g>
       <path class="fil1" d="M121.645 285.761c-0.095,-0.038 -0.212,-0.043 -0.352,-0.016 -0.093,0.019 -0.162,0.061 -0.207,0.126l-2.679 3.894c-0.045,0.066 -0.05,0.133 -0.017,0.202 0.05,0.104 0.122,0.174 0.217,0.213l1.564 0.628c0.094,0.038 0.189,0.048 0.282,0.03 0.093,-0.018 0.17,-0.043 0.232,-0.074l2.156 -1.64c0.061,-0.031 0.091,-0.074 0.09,-0.13l0.522 -2.255c0.013,-0.079 -0.004,-0.141 -0.052,-0.188 -0.034,-0.069 -0.098,-0.123 -0.192,-0.161l-1.564 -0.629 0 0zm-0.026 2.413c0.187,-0.037 0.359,-0.023 0.517,0.041 0.158,0.063 0.27,0.164 0.336,0.302 0.066,0.138 0.062,0.262 -0.013,0.37 -0.075,0.11 -0.206,0.183 -0.392,0.219 -0.186,0.036 -0.359,0.023 -0.517,-0.041 -0.157,-0.063 -0.27,-0.164 -0.336,-0.302 -0.066,-0.138 -0.062,-0.262 0.013,-0.371 0.075,-0.109 0.206,-0.182 0.392,-0.218z"/>
      </g>
     </g>
    </g>
   </g>
  </g>
  <g id="body_FL_FL_FL_FL_FL_FL_FL_FL_FL_FL_FL_FL_FL_FL_FL">
   <g>
    <g>
     <g>
      <g>
       <path class="fil0" d="M689.4 90.05l-3.9 0 0 4.1 16.4 0 0 -4.1 -12.5 0 0 0zm-11.1 0l-15.4 0 0 4.1 15.4 0 0 -4.1z"/>
      </g>
      <polygon class="fil4" points="678.3,88.55 678.3,90.05 678.3,94.15 685.5,94.15 685.5,90.05 685.5,88.55 "/>
      <g>
       <path class="fil5" d="M673.4 76.55l0 0.05c-0.366,0.967 -0.35,1.917 0.05,2.85 0.4,0.967 1.084,1.633 2.05,2 0.967,0.4 1.917,0.383 2.85,-0.05 0.18,-0.072 0.347,-0.155 0.5,-0.25l-5.45 -4.6 0 0zm9.2 -2.8l0.3 -0.65c0.4,-0.967 0.384,-1.933 -0.05,-2.9 -0.4,-0.933 -1.083,-1.6 -2.05,-2 -0.966,-0.367 -1.916,-0.35 -2.85,0.05 -0.405,0.182 -0.772,0.398 -1.1,0.65l5.75 4.85 0 0zm7.501 3.35c0,0.4 0.199,0.6 0.599,0.6l6.1 0c0.4,0 0.6,-0.2 0.6,-0.6l0 -2c0,-0.4 -0.2,-0.6 -0.6,-0.6l-6.1 0c-0.4,0 -0.599,0.2 -0.599,0.6l0 2z"/>
      </g>
      <g>
       <path class="fil2" d="M673.4 76.6l0 -0.05 -10.5 -8.85 0 22.35 15.4 0 0 -1.5 7.2 0 0 1.5 3.9 0 -10.55 -8.9c-0.153,0.095 -0.32,0.178 -0.5,0.25 -0.933,0.433 -1.883,0.45 -2.85,0.05 -0.966,-0.367 -1.65,-1.033 -2.05,-2 -0.4,-0.933 -0.416,-1.883 -0.05,-2.85l0 0zm9.5 -3.5l-0.3 0.65 19.3 16.3 0 -26.9 -31.9 0 6.85 5.75c0.328,-0.252 0.695,-0.468 1.1,-0.65 0.934,-0.4 1.884,-0.417 2.85,-0.05 0.967,0.4 1.65,1.067 2.05,2 0.434,0.967 0.45,1.933 0.05,2.9l0 0zm13.95 -2.65c0.101,0.1 0.15,0.2 0.15,0.3l0 1.65c0,0.1 -0.033,0.183 -0.1,0.25 -0.033,0.067 -0.1,0.117 -0.2,0.15l-2.95 0.85c-0.066,0.033 -0.133,0.033 -0.2,0l-3 -0.85c-0.066,-0.033 -0.133,-0.083 -0.2,-0.15 -0.066,-0.067 -0.1,-0.15 -0.1,-0.25l0 -1.65c0,-0.1 0.05,-0.2 0.15,-0.3 0.067,-0.067 0.15,-0.1 0.25,-0.1l5.95 0c0.1,0 0.184,0.033 0.25,0.1l0 0zm-6.15 7.25c-0.4,0 -0.599,-0.2 -0.599,-0.6l0 -2c0,-0.4 0.199,-0.6 0.599,-0.6l6.1 0c0.4,0 0.6,0.2 0.6,0.6l0 2c0,0.4 -0.2,0.6 -0.6,0.6l-6.1 0 0 0zm3.6 -5.15c0,-0.167 -0.066,-0.317 -0.2,-0.45 -0.133,-0.134 -0.283,-0.2 -0.45,-0.2 -0.166,0 -0.316,0.066 -0.45,0.2 -0.133,0.133 -0.2,0.283 -0.2,0.45 0,0.167 0.067,0.317 0.2,0.45 0.134,0.133 0.284,0.2 0.45,0.2 0.167,0 0.317,-0.067 0.45,-0.2 0.134,-0.134 0.2,-0.283 0.2,-0.45z"/>
      </g>
      <polygon class="fil3" points="662.9,63.15 662.9,67.7 673.4,76.55 678.85,81.15 689.4,90.05 701.9,90.05 682.6,73.75 676.85,68.9 670,63.15 "/>
      <g>
       <path class="fil1" d="M697 70.75c0,-0.1 -0.049,-0.2 -0.15,-0.3 -0.066,-0.067 -0.15,-0.1 -0.25,-0.1l-5.95 0c-0.1,0 -0.183,0.033 -0.25,0.1 -0.1,0.1 -0.15,0.2 -0.15,0.3l0 1.65c0,0.1 0.034,0.183 0.1,0.25 0.067,0.067 0.134,0.117 0.2,0.15l3 0.85c0.067,0.033 0.133,0.033 0.2,0l2.95 -0.85c0.1,-0.033 0.167,-0.083 0.2,-0.15 0.067,-0.067 0.1,-0.15 0.1,-0.25l0 -1.65 0 0zm-2.9 1.35c0.134,0.133 0.2,0.283 0.2,0.45 0,0.167 -0.066,0.317 -0.2,0.45 -0.133,0.133 -0.283,0.2 -0.45,0.2 -0.166,0 -0.316,-0.067 -0.45,-0.2 -0.133,-0.134 -0.2,-0.283 -0.2,-0.45 0,-0.167 0.067,-0.317 0.2,-0.45 0.134,-0.134 0.284,-0.2 0.45,-0.2 0.167,0 0.317,0.066 0.45,0.2z"/>
      </g>
     </g>
    </g>
   </g>
  </g>
  <g id="body_FL_FL_FL_FL_FL_FL_FL_FL_FL_FL_FL_FL_FL_FL_FL_FL">
   <g>
    <g>
     <g>
      <g>
       <path class="fil0" d="M688.321 195.05l-3.495 0 0 4.1 14.696 0 0 -4.1 -11.201 0 0 0zm-9.946 0l-13.801 0 0 4.1 13.801 0 0 -4.1z"/>
      </g>
      <polygon class="fil4" points="678.375,193.55 678.375,195.05 678.375,199.15 684.826,199.15 684.826,195.05 684.826,193.55 "/>
      <g>
       <path class="fil5" d="M673.983 181.55l0 0.05c-0.328,0.967 -0.313,1.917 0.045,2.85 0.359,0.967 0.971,1.633 1.837,2 0.867,0.4 1.718,0.383 2.554,-0.05 0.161,-0.072 0.31,-0.155 0.448,-0.25l-4.884 -4.6 0 0zm8.245 -2.8l0.268 -0.65c0.359,-0.967 0.344,-1.933 -0.045,-2.9 -0.358,-0.933 -0.97,-1.6 -1.836,-2 -0.867,-0.367 -1.718,-0.35 -2.554,0.05 -0.364,0.182 -0.693,0.399 -0.986,0.65l5.153 4.85 0 0zm6.721 3.35c0,0.4 0.179,0.6 0.537,0.6l5.466 0c0.359,0 0.538,-0.2 0.538,-0.6l0 -2c0,-0.4 -0.179,-0.6 -0.538,-0.6l-5.466 0c-0.358,0 -0.537,0.2 -0.537,0.6l0 2z"/>
      </g>
      <g>
       <path class="fil2" d="M673.983 181.6l0 -0.05 -9.409 -8.85 0 22.35 13.801 0 0 -1.5 6.451 0 0 1.5 3.495 0 -9.454 -8.9c-0.138,0.095 -0.287,0.178 -0.448,0.25 -0.836,0.433 -1.687,0.45 -2.554,0.05 -0.866,-0.367 -1.478,-1.033 -1.837,-2 -0.358,-0.933 -0.373,-1.884 -0.045,-2.85l0 0zm8.513 -3.5l-0.268 0.65 17.294 16.3 0 -26.9 -28.585 0 6.138 5.75c0.293,-0.251 0.622,-0.468 0.986,-0.65 0.836,-0.4 1.687,-0.417 2.554,-0.05 0.866,0.4 1.478,1.067 1.836,2 0.389,0.967 0.404,1.933 0.045,2.9l0 0zm12.501 -2.65c0.09,0.1 0.134,0.2 0.134,0.3l0 1.65c0,0.1 -0.029,0.183 -0.089,0.25 -0.03,0.067 -0.09,0.116 -0.179,0.15l-2.644 0.85c-0.059,0.033 -0.119,0.033 -0.179,0l-2.688 -0.85c-0.06,-0.033 -0.12,-0.083 -0.18,-0.15 -0.059,-0.067 -0.089,-0.15 -0.089,-0.25l0 -1.65c0,-0.1 0.045,-0.2 0.134,-0.3 0.06,-0.067 0.135,-0.1 0.224,-0.1l5.332 0c0.09,0 0.164,0.033 0.224,0.1l0 0zm-5.511 7.25c-0.358,0 -0.537,-0.2 -0.537,-0.6l0 -2c0,-0.4 0.179,-0.6 0.537,-0.6l5.466 0c0.359,0 0.538,0.2 0.538,0.6l0 2c0,0.4 -0.179,0.6 -0.538,0.6l-5.466 0 0 0zm3.226 -5.15c0,-0.167 -0.06,-0.317 -0.179,-0.45 -0.12,-0.133 -0.254,-0.2 -0.403,-0.2 -0.15,0 -0.284,0.067 -0.404,0.2 -0.119,0.134 -0.179,0.283 -0.179,0.45 0,0.167 0.06,0.317 0.179,0.45 0.12,0.133 0.254,0.2 0.404,0.2 0.149,0 0.283,-0.067 0.403,-0.2 0.119,-0.133 0.179,-0.283 0.179,-0.45z"/>
      </g>
      <polygon class="fil3" points="664.574,168.15 664.574,172.7 673.983,181.55 678.867,186.15 688.321,195.05 699.522,195.05 682.228,178.75 677.075,173.9 670.937,168.15 "/>
      <g>
       <path class="fil1" d="M695.131 175.75c0,-0.1 -0.044,-0.2 -0.134,-0.3 -0.059,-0.067 -0.134,-0.1 -0.224,-0.1l-5.332 0c-0.089,0 -0.164,0.033 -0.224,0.1 -0.089,0.1 -0.134,0.2 -0.134,0.3l0 1.65c0,0.1 0.03,0.183 0.089,0.25 0.06,0.067 0.12,0.116 0.18,0.15l2.688 0.85c0.059,0.033 0.12,0.033 0.179,0l2.644 -0.85c0.089,-0.033 0.149,-0.083 0.179,-0.15 0.06,-0.067 0.089,-0.15 0.089,-0.25l0 -1.65 0 0zm-2.598 1.35c0.119,0.134 0.179,0.283 0.179,0.45 0,0.167 -0.06,0.317 -0.179,0.45 -0.12,0.133 -0.254,0.2 -0.403,0.2 -0.15,0 -0.284,-0.067 -0.404,-0.2 -0.119,-0.133 -0.179,-0.283 -0.179,-0.45 0,-0.167 0.06,-0.317 0.179,-0.45 0.12,-0.133 0.254,-0.2 0.404,-0.2 0.149,0 0.283,0.067 0.403,0.2z"/>
      </g>
     </g>
    </g>
   </g>
  </g>
  <g id="body_FL_FL_FL_FL_FL_FL_FL_FL_FL_FL_FL_FL_FL_FL_FL_FL_FL">
   <g>
    <g>
     <g>
      <g>
       <path class="fil0" d="M277.052 201.05l-3.596 0 -0.496 4.1 15.122 0 0.496 -4.1 -11.526 0 0 0zm-10.235 0l-14.2 0 -0.496 4.1 14.2 0 0.496 -4.1z"/>
      </g>
      <polygon class="fil4" points="266.998,199.55 266.817,201.05 266.321,205.15 272.96,205.15 273.456,201.05 273.637,199.55 "/>
      <g>
       <path class="fil5" d="M263.931 187.55l-0.006 0.05c-0.455,0.967 -0.554,1.917 -0.298,2.85 0.252,0.967 0.801,1.633 1.648,2 0.843,0.4 1.721,0.383 2.634,-0.05 0.174,-0.072 0.338,-0.155 0.491,-0.25l-4.469 -4.6 0 0zm8.822 -2.8l0.355 -0.65c0.486,-0.967 0.588,-1.933 0.305,-2.9 -0.256,-0.933 -0.806,-1.6 -1.648,-2 -0.847,-0.367 -1.725,-0.35 -2.634,0.05 -0.397,0.182 -0.761,0.399 -1.093,0.65l4.715 4.85 0 0zm6.511 3.35c-0.049,0.4 0.111,0.6 0.48,0.6l5.625 0c0.368,0 0.577,-0.2 0.626,-0.6l0.241 -2c0.049,-0.4 -0.111,-0.6 -0.48,-0.6l-5.625 0c-0.369,0 -0.577,0.2 -0.626,0.6l-0.241 2z"/>
      </g>
      <g>
       <path class="fil2" d="M263.925 187.6l0.006 -0.05 -8.611 -8.85 -2.703 22.35 14.2 0 0.181 -1.5 6.639 0 -0.181 1.5 3.596 0 -8.652 -8.9c-0.153,0.095 -0.317,0.178 -0.491,0.25 -0.913,0.433 -1.791,0.45 -2.634,0.05 -0.847,-0.367 -1.396,-1.033 -1.648,-2 -0.256,-0.933 -0.157,-1.884 0.298,-2.85l0 0zm9.183 -3.5l-0.355 0.65 15.825 16.3 3.253 -26.9 -29.414 0 5.621 5.75c0.332,-0.251 0.696,-0.468 1.093,-0.65 0.909,-0.4 1.787,-0.417 2.634,-0.05 0.842,0.4 1.392,1.067 1.648,2 0.283,0.967 0.181,1.933 -0.305,2.9l0 0zm13.184 -2.65c0.08,0.1 0.114,0.2 0.102,0.3l-0.2 1.65c-0.012,0.1 -0.053,0.183 -0.122,0.25 -0.039,0.067 -0.107,0.116 -0.203,0.15l-2.823 0.85c-0.065,0.033 -0.127,0.033 -0.184,0l-2.664 -0.85c-0.057,-0.033 -0.112,-0.083 -0.166,-0.15 -0.053,-0.067 -0.074,-0.15 -0.062,-0.25l0.199 -1.65c0.013,-0.1 0.071,-0.2 0.175,-0.3 0.07,-0.067 0.151,-0.1 0.243,-0.1l5.486 0c0.092,0 0.165,0.033 0.219,0.1l0 0zm-6.548 7.25c-0.369,0 -0.529,-0.2 -0.48,-0.6l0.241 -2c0.049,-0.4 0.257,-0.6 0.626,-0.6l5.625 0c0.369,0 0.529,0.2 0.48,0.6l-0.241 2c-0.049,0.4 -0.258,0.6 -0.626,0.6l-5.625 0 0 0zm3.942 -5.15c0.02,-0.167 -0.023,-0.317 -0.13,-0.45 -0.107,-0.133 -0.237,-0.2 -0.39,-0.2 -0.154,0 -0.301,0.067 -0.44,0.2 -0.139,0.134 -0.218,0.283 -0.238,0.45 -0.021,0.167 0.023,0.317 0.129,0.45 0.107,0.133 0.238,0.2 0.391,0.2 0.154,0 0.3,-0.067 0.439,-0.2 0.14,-0.133 0.219,-0.283 0.239,-0.45z"/>
      </g>
      <polygon class="fil3" points="255.87,174.15 255.32,178.7 263.931,187.55 268.4,192.15 277.052,201.05 288.578,201.05 272.753,184.75 268.038,179.9 262.417,174.15 "/>
      <g>
       <path class="fil1" d="M286.394 181.75c0.012,-0.1 -0.022,-0.2 -0.102,-0.3 -0.054,-0.067 -0.127,-0.1 -0.219,-0.1l-5.486 0c-0.092,0 -0.173,0.033 -0.243,0.1 -0.104,0.1 -0.162,0.2 -0.175,0.3l-0.199 1.65c-0.012,0.1 0.009,0.183 0.062,0.25 0.054,0.067 0.109,0.116 0.166,0.15l2.664 0.85c0.057,0.033 0.119,0.033 0.184,0l2.823 -0.85c0.096,-0.033 0.164,-0.083 0.203,-0.15 0.069,-0.067 0.11,-0.15 0.122,-0.25l0.2 -1.65 0 0zm-2.838 1.35c0.107,0.134 0.15,0.283 0.13,0.45 -0.02,0.167 -0.099,0.317 -0.239,0.45 -0.139,0.133 -0.285,0.2 -0.439,0.2 -0.153,0 -0.284,-0.067 -0.391,-0.2 -0.106,-0.133 -0.15,-0.283 -0.129,-0.45 0.02,-0.167 0.099,-0.317 0.238,-0.45 0.139,-0.133 0.286,-0.2 0.44,-0.2 0.153,0 0.283,0.067 0.39,0.2z"/>
      </g>
     </g>
    </g>
   </g>
  </g>
  <g id="body_FL_FL_FL_FL_FL_FL_FL_FL_FL_FL_FL_FL_FL_FL_FL_FL_FL_FL">
   <g>
    <g>
     <g>
      <g>
       <path class="fil0" d="M214.071 299.915l-3.495 0.591 0 4.099 14.696 -2.481 0 -4.1 -11.201 1.891 0 0zm-9.947 1.68l-13.8 2.33 0 4.1 13.8 -2.33 0 -4.1z"/>
      </g>
      <polygon class="fil4" points="204.124,300.095 204.124,301.595 204.124,305.695 210.576,304.605 210.576,300.506 210.576,299.006 "/>
      <g>
       <path class="fil5" d="M199.733 288.836l0 0.05c-0.329,1.022 -0.314,1.97 0.045,2.842 0.358,0.907 0.971,1.47 1.837,1.69 0.866,0.254 1.717,0.094 2.554,-0.481 0.16,-0.099 0.31,-0.207 0.448,-0.325l-4.884 -3.776 0 0zm8.244 -4.192l0.269 -0.695c0.358,-1.027 0.343,-1.991 -0.045,-2.892 -0.358,-0.874 -0.971,-1.437 -1.837,-1.691 -0.866,-0.22 -1.717,-0.059 -2.554,0.482 -0.363,0.243 -0.692,0.515 -0.986,0.816l5.153 3.98 0 0zm6.721 2.216c0,0.4 0.179,0.569 0.538,0.509l5.466 -0.923c0.358,-0.061 0.537,-0.291 0.537,-0.691l0 -2c0,-0.4 -0.179,-0.57 -0.537,-0.509l-5.466 0.923c-0.359,0.06 -0.538,0.291 -0.538,0.691l0 2z"/>
      </g>
      <g>
       <path class="fil2" d="M199.733 288.886l0 -0.05 -9.409 -7.261 0 22.35 13.8 -2.33 0 -1.5 6.452 -1.089 0 1.5 3.495 -0.591 -9.454 -7.303c-0.138,0.118 -0.288,0.226 -0.448,0.325 -0.837,0.575 -1.688,0.735 -2.554,0.481 -0.866,-0.22 -1.479,-0.783 -1.837,-1.69 -0.359,-0.872 -0.374,-1.82 -0.045,-2.842l0 0zm8.513 -4.937l-0.269 0.695 17.295 13.38 0 -26.9 -28.586 4.826 6.138 4.714c0.294,-0.301 0.623,-0.573 0.986,-0.816 0.837,-0.541 1.688,-0.702 2.554,-0.482 0.867,0.254 1.479,0.817 1.837,1.691 0.388,0.901 0.403,1.865 0.045,2.892l0 0zm12.501 -4.761c0.089,0.085 0.134,0.178 0.134,0.278l0 1.65c0,0.1 -0.03,0.188 -0.089,0.265 -0.03,0.072 -0.09,0.131 -0.18,0.18l-2.643 1.296c-0.06,0.044 -0.12,0.054 -0.18,0.031l-2.688 -0.397c-0.06,-0.023 -0.119,-0.063 -0.179,-0.119 -0.06,-0.057 -0.09,-0.135 -0.09,-0.235l0 -1.65c0,-0.1 0.045,-0.208 0.135,-0.323 0.06,-0.077 0.134,-0.123 0.224,-0.138l5.331 -0.9c0.09,-0.015 0.165,0.006 0.225,0.062l0 0zm-5.511 8.181c-0.359,0.06 -0.538,-0.109 -0.538,-0.509l0 -2c0,-0.4 0.179,-0.631 0.538,-0.691l5.466 -0.923c0.358,-0.06 0.537,0.109 0.537,0.509l0 2c0,0.4 -0.179,0.63 -0.537,0.691l-5.466 0.923 0 0zm3.225 -5.695c0,-0.167 -0.059,-0.306 -0.179,-0.42 -0.119,-0.113 -0.254,-0.157 -0.403,-0.132 -0.149,0.026 -0.284,0.115 -0.403,0.269 -0.12,0.153 -0.179,0.313 -0.179,0.48 0,0.166 0.059,0.306 0.179,0.42 0.119,0.113 0.254,0.157 0.403,0.131 0.149,-0.025 0.284,-0.114 0.403,-0.267 0.12,-0.154 0.179,-0.314 0.179,-0.481z"/>
      </g>
      <polygon class="fil3" points="190.324,277.025 190.324,281.575 199.733,288.836 204.617,292.612 214.071,299.915 225.272,298.024 207.977,284.644 202.824,280.664 196.686,275.95 "/>
      <g>
       <path class="fil1" d="M220.881 279.466c0,-0.1 -0.045,-0.193 -0.134,-0.278 -0.06,-0.056 -0.135,-0.077 -0.225,-0.062l-5.331 0.9c-0.09,0.015 -0.164,0.061 -0.224,0.138 -0.09,0.115 -0.135,0.223 -0.135,0.323l0 1.65c0,0.1 0.03,0.178 0.09,0.235 0.06,0.056 0.119,0.096 0.179,0.119l2.688 0.397c0.06,0.023 0.12,0.013 0.18,-0.031l2.643 -1.296c0.09,-0.048 0.15,-0.109 0.18,-0.18 0.059,-0.077 0.089,-0.165 0.089,-0.265l0 -1.65 0 0zm-2.599 1.788c0.12,0.114 0.179,0.253 0.179,0.42 0,0.167 -0.059,0.327 -0.179,0.481 -0.119,0.153 -0.254,0.242 -0.403,0.267 -0.149,0.026 -0.284,-0.018 -0.403,-0.131 -0.12,-0.113 -0.179,-0.254 -0.179,-0.42 0,-0.167 0.059,-0.327 0.179,-0.48 0.119,-0.154 0.254,-0.243 0.403,-0.269 0.149,-0.025 0.284,0.019 0.403,0.132z"/>
      </g>
     </g>
    </g>
   </g>
  </g>
  <g id="body_FL_FL_FL_FL_FL_FL_FL_FL_FL_FL_FL_FL_FL_FL_FL_FL_FL_FL_FL">
   <g>
    <g>
     <g>
      <g>
       <path class="fil0" d="M288.017 307.394l-3.597 0.081 0 4.1 15.124 -0.342 0 -4.1 -11.527 0.261 0 0zm-10.237 0.231l-14.202 0.321 0 4.1 14.202 -0.321 0 -4.1z"/>
      </g>
      <polygon class="fil4" points="277.78,306.125 277.78,307.625 277.78,311.725 284.42,311.575 284.42,307.475 284.42,305.975 "/>
      <g>
       <path class="fil5" d="M273.261 294.227l0 0.05c-0.338,0.975 -0.323,1.925 0.046,2.849 0.369,0.959 0.999,1.611 1.891,1.958 0.891,0.38 1.767,0.343 2.628,-0.11 0.166,-0.075 0.319,-0.162 0.461,-0.26l-5.026 -4.487 0 0zm8.485 -2.991l0.276 -0.657c0.369,-0.975 0.354,-1.941 -0.046,-2.899 -0.369,-0.925 -0.999,-1.577 -1.89,-1.957 -0.892,-0.346 -1.768,-0.31 -2.629,0.109 -0.374,0.191 -0.712,0.415 -1.014,0.673l5.303 4.731 0 0zm6.916 3.193c0,0.4 0.185,0.596 0.553,0.588l5.626 -0.128c0.369,-0.008 0.553,-0.212 0.553,-0.612l0 -2c0,-0.4 -0.184,-0.596 -0.553,-0.587l-5.626 0.126c-0.368,0.009 -0.553,0.213 -0.553,0.613l0 2z"/>
      </g>
      <g>
       <path class="fil2" d="M273.261 294.277l0 -0.05 -9.683 -8.63 0 22.349 14.202 -0.321 0 -1.5 6.64 -0.15 0 1.5 3.597 -0.081 -9.73 -8.68c-0.142,0.098 -0.296,0.185 -0.461,0.26 -0.861,0.453 -1.737,0.49 -2.628,0.11 -0.892,-0.347 -1.522,-0.999 -1.891,-1.958 -0.369,-0.924 -0.384,-1.874 -0.046,-2.849l0 0zm8.761 -3.698l-0.276 0.657 17.798 15.897 0 -26.9 -29.418 0.665 6.317 5.607c0.302,-0.258 0.64,-0.482 1.014,-0.673 0.861,-0.419 1.737,-0.455 2.629,-0.109 0.891,0.38 1.521,1.032 1.89,1.957 0.4,0.958 0.415,1.924 0.046,2.899l0 0zm12.865 -2.941c0.092,0.098 0.138,0.197 0.138,0.297l0 1.65c0,0.1 -0.03,0.184 -0.092,0.252 -0.031,0.067 -0.092,0.119 -0.184,0.154l-2.721 0.912c-0.061,0.035 -0.123,0.036 -0.184,0.004l-2.767 -0.787c-0.062,-0.032 -0.123,-0.081 -0.184,-0.146 -0.062,-0.065 -0.093,-0.148 -0.093,-0.248l0 -1.65c0,-0.1 0.047,-0.201 0.139,-0.303 0.061,-0.068 0.138,-0.103 0.23,-0.105l5.487 -0.125c0.093,-0.002 0.169,0.03 0.231,0.095l0 0zm-5.672 7.379c-0.368,0.008 -0.553,-0.188 -0.553,-0.588l0 -2c0,-0.4 0.185,-0.604 0.553,-0.613l5.626 -0.126c0.369,-0.009 0.553,0.187 0.553,0.587l0 2c0,0.4 -0.184,0.604 -0.553,0.612l-5.626 0.128 0 0zm3.32 -5.226c0,-0.166 -0.061,-0.315 -0.184,-0.445 -0.123,-0.131 -0.261,-0.194 -0.415,-0.191 -0.154,0.003 -0.292,0.073 -0.415,0.209 -0.123,0.136 -0.185,0.288 -0.185,0.455 0,0.166 0.062,0.315 0.185,0.445 0.123,0.131 0.261,0.195 0.415,0.191 0.154,-0.003 0.292,-0.073 0.415,-0.209 0.123,-0.136 0.184,-0.288 0.184,-0.455z"/>
      </g>
      <polygon class="fil3" points="263.578,281.046 263.578,285.597 273.261,294.227 278.287,298.714 288.017,307.394 299.544,307.133 281.746,291.236 276.443,286.505 270.126,280.898 "/>
      <g>
       <path class="fil1" d="M295.025 287.935c0,-0.1 -0.046,-0.199 -0.138,-0.297 -0.062,-0.065 -0.138,-0.097 -0.231,-0.095l-5.487 0.125c-0.092,0.002 -0.169,0.037 -0.23,0.105 -0.092,0.102 -0.139,0.203 -0.139,0.303l0 1.65c0,0.1 0.031,0.183 0.093,0.248 0.061,0.065 0.122,0.114 0.184,0.146l2.767 0.787c0.061,0.032 0.123,0.031 0.184,-0.004l2.721 -0.912c0.092,-0.035 0.153,-0.087 0.184,-0.154 0.062,-0.068 0.092,-0.152 0.092,-0.252l0 -1.65 0 0zm-2.674 1.411c0.123,0.13 0.184,0.279 0.184,0.445 0,0.167 -0.061,0.319 -0.184,0.455 -0.123,0.136 -0.261,0.206 -0.415,0.209 -0.154,0.004 -0.292,-0.06 -0.415,-0.191 -0.123,-0.13 -0.185,-0.279 -0.185,-0.445 0,-0.167 0.062,-0.319 0.185,-0.455 0.123,-0.136 0.261,-0.206 0.415,-0.209 0.154,-0.003 0.292,0.06 0.415,0.191z"/>
      </g>
     </g>
    </g>
   </g>
  </g>
  <g>
   <g>
    <g>
     <g>
      <polygon class="fil0" points="342.35,310.05 342.35,314.15 381.35,314.15 381.35,310.05 354.85,310.05 "/>
      <g>
       <path class="fil1" d="M360.1 305.6l-2 1.65 0.7 1.4 2.25 -1.15 -0.95 -1.9 0 0zm-4.8 -9.9c-0.7,-0.4 -1.467,-0.017 -2.3,1.15l1.45 2.95 2 -1.7 -1.15 -2.4 0 0zm3.3 0.6l2.35 -2 -2.6 -3c-0.933,-0.233 -1.7,0.45 -2.3,2.05l2.55 2.95 0 0zm7.65 4.1l-2.35 1.95 2.45 2.8 2.25 -2 -2.35 -2.75z"/>
      </g>
      <g>
       <path class="fil2" d="M353 296.85c0.833,-1.167 1.6,-1.55 2.3,-1.15l1.15 2.4 2.15 -1.8 -2.55 -2.95c0.6,-1.6 1.367,-2.283 2.3,-2.05l2.6 3 13.25 -11.15 -31.85 0 0 26.9 12.1 -10.25 -1.45 -2.95 0 0zm13.25 3.55l2.35 2.75 -2.25 2 -2.45 -2.8 -3.8 3.25 0.95 1.9 -2.25 1.15 -0.7 -1.4 -3.25 2.8 26.5 0 0 -22.35 -15.1 12.7z"/>
      </g>
      <polygon class="fil3" points="381.35,283.15 374.2,283.15 360.95,294.3 358.6,296.3 356.45,298.1 354.45,299.8 342.35,310.05 354.85,310.05 358.1,307.25 360.1,305.6 363.9,302.35 366.25,300.4 381.35,287.7 "/>
     </g>
    </g>
   </g>
  </g>
  <g id="body_FL_FL_FL_FL_FL_FL_FL_FL_FL_FL_FL_FL_FL_FL_FL_FL_FL_FL_FL_FL_FL">
   <g>
    <g>
     <g>
      <g>
       <path class="fil0" d="M448.85 311.05l-3.9 0 0 4.1 16.4 0 0 -4.1 -12.5 0 0 0zm-11.1 0l-15.4 0 0 4.1 15.4 0 0 -4.1z"/>
      </g>
      <polygon class="fil4" points="437.75,309.55 437.75,311.05 437.75,315.15 444.95,315.15 444.95,311.05 444.95,309.55 "/>
      <g>
       <path class="fil5" d="M432.85 297.55l0 0.05c-0.367,0.967 -0.35,1.917 0.05,2.85 0.4,0.967 1.084,1.634 2.05,2 0.967,0.4 1.917,0.383 2.85,-0.05 0.18,-0.071 0.346,-0.155 0.5,-0.25l-5.45 -4.6 0 0zm9.2 -2.8l0.3 -0.65c0.4,-0.967 0.384,-1.933 -0.05,-2.9 -0.4,-0.933 -1.083,-1.6 -2.05,-2 -0.967,-0.367 -1.917,-0.35 -2.85,0.05 -0.406,0.182 -0.772,0.399 -1.1,0.65l5.75 4.85 0 0zm7.5 3.35c0,0.4 0.2,0.6 0.6,0.6l6.1 0c0.4,0 0.6,-0.2 0.6,-0.6l0 -2c0,-0.4 -0.2,-0.6 -0.6,-0.6l-6.1 0c-0.4,0 -0.6,0.2 -0.6,0.6l0 2z"/>
      </g>
      <g>
       <path class="fil2" d="M432.85 297.6l0 -0.05 -10.5 -8.85 0 22.35 15.4 0 0 -1.5 7.2 0 0 1.5 3.9 0 -10.55 -8.9c-0.154,0.095 -0.32,0.179 -0.5,0.25 -0.933,0.433 -1.883,0.45 -2.85,0.05 -0.967,-0.366 -1.65,-1.033 -2.05,-2 -0.4,-0.933 -0.417,-1.883 -0.05,-2.85l0 0zm9.5 -3.5l-0.3 0.65 19.3 16.3 0 -26.9 -31.9 0 6.85 5.75c0.327,-0.251 0.694,-0.468 1.1,-0.65 0.933,-0.4 1.883,-0.417 2.85,-0.05 0.967,0.4 1.65,1.067 2.05,2 0.434,0.967 0.45,1.933 0.05,2.9l0 0zm13.95 -2.65c0.1,0.1 0.15,0.2 0.15,0.3l0 1.65c0,0.1 -0.033,0.183 -0.1,0.25 -0.033,0.067 -0.1,0.117 -0.2,0.15l-2.95 0.85c-0.067,0.033 -0.133,0.033 -0.2,0l-3 -0.85c-0.066,-0.033 -0.133,-0.083 -0.2,-0.15 -0.067,-0.067 -0.1,-0.15 -0.1,-0.25l0 -1.65c0,-0.1 0.05,-0.2 0.15,-0.3 0.067,-0.067 0.15,-0.1 0.25,-0.1l5.95 0c0.1,0 0.183,0.033 0.25,0.1l0 0zm-6.15 7.25c-0.4,0 -0.6,-0.2 -0.6,-0.6l0 -2c0,-0.4 0.2,-0.6 0.6,-0.6l6.1 0c0.4,0 0.6,0.2 0.6,0.6l0 2c0,0.4 -0.2,0.6 -0.6,0.6l-6.1 0 0 0zm3.6 -5.15c0,-0.167 -0.067,-0.317 -0.2,-0.45 -0.133,-0.133 -0.283,-0.2 -0.45,-0.2 -0.167,0 -0.317,0.067 -0.45,0.2 -0.133,0.133 -0.2,0.283 -0.2,0.45 0,0.167 0.067,0.317 0.2,0.45 0.133,0.133 0.283,0.2 0.45,0.2 0.167,0 0.317,-0.067 0.45,-0.2 0.134,-0.133 0.2,-0.283 0.2,-0.45z"/>
      </g>
      <polygon class="fil3" points="422.35,284.15 422.35,288.7 432.85,297.55 438.3,302.15 448.85,311.05 461.35,311.05 442.05,294.75 436.3,289.9 429.45,284.15 "/>
      <g>
       <path class="fil1" d="M456.45 291.75c0,-0.1 -0.05,-0.2 -0.15,-0.3 -0.067,-0.067 -0.15,-0.1 -0.25,-0.1l-5.95 0c-0.1,0 -0.183,0.033 -0.25,0.1 -0.1,0.1 -0.15,0.2 -0.15,0.3l0 1.65c0,0.1 0.033,0.183 0.1,0.25 0.067,0.067 0.134,0.117 0.2,0.15l3 0.85c0.067,0.033 0.133,0.033 0.2,0l2.95 -0.85c0.1,-0.033 0.167,-0.083 0.2,-0.15 0.067,-0.067 0.1,-0.15 0.1,-0.25l0 -1.65 0 0zm-2.9 1.35c0.134,0.133 0.2,0.283 0.2,0.45 0,0.167 -0.067,0.317 -0.2,0.45 -0.133,0.133 -0.283,0.2 -0.45,0.2 -0.167,0 -0.317,-0.067 -0.45,-0.2 -0.133,-0.133 -0.2,-0.283 -0.2,-0.45 0,-0.167 0.067,-0.317 0.2,-0.45 0.133,-0.133 0.283,-0.2 0.45,-0.2 0.167,0 0.317,0.067 0.45,0.2z"/>
      </g>
     </g>
    </g>
   </g>
  </g>
  <g>
   <g>
    <g>
     <g>
      <polygon class="fil0" points="457.403,81.23 457.403,85.33 418.91,91.529 418.91,87.429 445.066,83.217 "/>
      <g>
       <path class="fil1" d="M439.884 79.601l1.974 1.332 -0.691 1.511 -2.221 -0.792 0.938 -2.051 0 0zm4.737 -10.663c0.691,-0.511 1.448,-0.25 2.271,0.785l-1.432 3.18 -1.974 -1.382 1.135 -2.583 0 0zm-3.257 1.125l-2.319 -1.627 2.566 -3.413c0.921,-0.382 1.678,0.18 2.27,1.685l-2.517 3.355 0 0zm-7.55 5.316l2.319 1.576 -2.418 3.19 -2.221 -1.643 2.32 -3.123z"/>
      </g>
      <g>
       <path class="fil2" d="M446.892 69.723c-0.823,-1.035 -1.58,-1.296 -2.271,-0.785l-1.135 2.583 -2.122 -1.458 2.517 -3.355c-0.592,-1.505 -1.349,-2.067 -2.27,-1.685l-2.566 3.413 -13.078 -9.044 31.436 -5.062 0 26.9 -11.943 -8.327 1.432 -3.18 0 0zm-13.078 5.656l-2.32 3.123 2.221 1.643 2.418 -3.19 3.751 2.646 -0.938 2.051 2.221 0.792 0.691 -1.511 3.208 2.284 -26.156 4.212 0 -22.35 14.904 10.3z"/>
      </g>
      <polygon class="fil3" points="418.91,60.528 425.967,59.392 439.045,68.436 441.364,70.063 443.486,71.521 445.46,72.903 457.403,81.23 445.066,83.217 441.858,80.933 439.884,79.601 436.133,76.955 433.814,75.379 418.91,65.079 "/>
     </g>
    </g>
   </g>
  </g>
 </g>
</svg>
