<?xml version="1.0" encoding="UTF-8"?>
<!DOCTYPE svg PUBLIC "-//W3C//DTD SVG 1.1//EN" "http://www.w3.org/Graphics/SVG/1.1/DTD/svg11.dtd">
<!-- Creator: CorelDRAW 2018 (64-Bit) -->
<svg xmlns="http://www.w3.org/2000/svg" xml:space="preserve" width="720px" height="330px" version="1.1" style="shape-rendering:geometricPrecision; text-rendering:geometricPrecision; image-rendering:optimizeQuality; fill-rule:evenodd; clip-rule:evenodd"
viewBox="0 0 720 330"
 xmlns:xlink="http://www.w3.org/1999/xlink">
 <defs>
  <style type="text/css">
   <![CDATA[
    .fil1 {fill:#2ECC71}
    .fil0 {fill:#B8824D}
   ]]>
  </style>
 </defs>
 <g id="Слой_x0020_1">
  <metadata id="CorelCorpID_0Corel-Layer"/>
  <g id="_1024663584">
   <g>
    <g>
     <g>
      <polygon class="fil0" points="541.091,91.529 541.091,87.429 502.597,81.23 502.597,85.33 "/>
      <polygon class="fil1" points="541.091,60.528 502.597,54.33 502.597,81.23 541.091,87.429 "/>
     </g>
    </g>
   </g>
  </g>
  <g id="body">
   <g>
    <g>
     <g>
      <polygon class="fil0" points="51.258,315.127 50.82,311.044 15.061,311.044 15.499,315.127 "/>
      <polygon class="fil1" points="47.932,284.126 12.173,284.126 15.061,311.044 50.82,311.044 "/>
     </g>
    </g>
   </g>
  </g>
  <g id="body_FL">
   <g>
    <g>
     <g>
      <polygon class="fil0" points="61.35,95.126 61.35,91.043 22.35,91.043 22.35,95.126 "/>
      <polygon class="fil1" points="61.35,64.126 22.35,64.126 22.35,91.043 61.35,91.043 "/>
     </g>
    </g>
   </g>
  </g>
  <g id="body_FL_FL">
   <g>
    <g>
     <g>
      <polygon class="fil0" points="142.678,90.226 142.678,86.143 104.013,86.143 104.013,90.226 "/>
      <polygon class="fil1" points="142.678,59.226 104.013,59.226 104.013,86.143 142.678,86.143 "/>
     </g>
    </g>
   </g>
  </g>
  <g id="body_FL_FL_FL">
   <g>
    <g>
     <g>
      <polygon class="fil0" points="220.163,90.43 220.517,86.363 181.462,85.307 181.108,89.375 "/>
      <polygon class="fil1" points="222.852,59.547 183.796,58.491 181.462,85.307 220.517,86.363 "/>
     </g>
    </g>
   </g>
  </g>
  <g id="body_FL_FL_FL_FL">
   <g>
    <g>
     <g>
      <polygon class="fil0" points="302.105,100.89 301.768,96.821 262.902,100.043 263.239,104.111 "/>
      <polygon class="fil1" points="299.545,69.997 260.679,73.218 262.902,100.043 301.768,96.821 "/>
     </g>
    </g>
   </g>
  </g>
  <g id="body_FL_FL_FL_FL_FL">
   <g>
    <g>
     <g>
      <polygon class="fil0" points="378.173,86.481 378.173,82.398 345.758,84.924 345.758,89.007 "/>
      <polygon class="fil1" points="378.173,55.481 345.758,58.007 345.758,84.924 378.173,82.398 "/>
     </g>
    </g>
   </g>
  </g>
  <g id="body_FL_FL_FL_FL_FL_FL">
   <g>
    <g>
     <g>
      <polygon class="fil0" points="61.99,201.974 61.708,197.9 22.801,200.59 23.083,204.663 "/>
      <polygon class="fil1" points="59.852,171.047 20.945,173.736 22.801,200.59 61.708,197.9 "/>
     </g>
    </g>
   </g>
  </g>
  <g id="body_FL_FL_FL_FL_FL_FL_FL">
   <g>
    <g>
     <g>
      <polygon class="fil0" points="140.691,203.257 140.852,199.178 101.882,197.64 101.721,201.72 "/>
      <polygon class="fil1" points="141.913,172.281 102.943,170.744 101.882,197.64 140.852,199.178 "/>
     </g>
    </g>
   </g>
  </g>
  <g id="body_FL_FL_FL_FL_FL_FL_FL_FL">
   <g>
    <g>
     <g>
      <polygon class="fil0" points="211.85,205.127 211.85,201.043 172.85,201.043 172.85,205.127 "/>
      <polygon class="fil1" points="211.85,174.126 172.85,174.126 172.85,201.043 211.85,201.043 "/>
     </g>
    </g>
   </g>
  </g>
  <g id="body_FL_FL_FL_FL_FL_FL_FL_FL_FL">
   <g>
    <g>
     <g>
      <polygon class="fil0" points="369.609,201.04 369.272,196.971 334.591,201.753 334.928,205.822 "/>
      <polygon class="fil1" points="367.049,170.146 332.367,174.928 334.591,201.753 369.272,196.971 "/>
     </g>
    </g>
   </g>
  </g>
  <g id="body_FL_FL_FL_FL_FL_FL_FL_FL_FL_FL">
   <g>
    <g>
     <g>
      <polygon class="fil0" points="448.472,207.29 448.881,203.228 413.254,196.083 412.845,200.145 "/>
      <polygon class="fil1" points="451.573,176.446 415.946,169.301 413.254,196.083 448.881,203.228 "/>
     </g>
    </g>
   </g>
  </g>
  <g id="body_FL_FL_FL_FL_FL_FL_FL_FL_FL_FL_FL">
   <g>
    <g>
     <g>
      <polygon class="fil0" points="534.916,198.649 534.456,194.592 499.369,201.639 499.829,205.696 "/>
      <polygon class="fil1" points="531.429,167.846 496.342,174.893 499.369,201.639 534.456,194.592 "/>
     </g>
    </g>
   </g>
  </g>
  <g id="body_FL_FL_FL_FL_FL_FL_FL_FL_FL_FL_FL_FL">
   <g>
    <g>
     <g>
      <polygon class="fil0" points="621.4,95.126 621.4,91.043 582.4,91.043 582.4,95.126 "/>
      <polygon class="fil1" points="621.4,64.126 582.4,64.126 582.4,91.043 621.4,91.043 "/>
     </g>
    </g>
   </g>
  </g>
  <g id="body_FL_FL_FL_FL_FL_FL_FL_FL_FL_FL_FL_FL_FL">
   <g>
    <g>
     <g>
      <polygon class="fil0" points="618.572,199.127 618.572,195.043 583.624,195.043 583.624,199.127 "/>
      <polygon class="fil1" points="618.572,168.126 583.624,168.126 583.624,195.043 618.572,195.043 "/>
     </g>
    </g>
   </g>
  </g>
  <g id="body_FL_FL_FL_FL_FL_FL_FL_FL_FL_FL_FL_FL_FL_FL">
   <g>
    <g>
     <g>
      <polygon class="fil0" points="146.007,291.46 142.137,289.905 124.585,315.432 128.455,316.987 "/>
      <polygon class="fil1" points="116.624,279.65 99.071,305.177 124.585,315.432 142.137,289.905 "/>
     </g>
    </g>
   </g>
  </g>
  <g id="body_FL_FL_FL_FL_FL_FL_FL_FL_FL_FL_FL_FL_FL_FL_FL">
   <g>
    <g>
     <g>
      <polygon class="fil0" points="701.9,94.126 701.9,90.044 662.9,90.044 662.9,94.126 "/>
      <polygon class="fil1" points="701.9,63.126 662.9,63.126 662.9,90.044 701.9,90.044 "/>
     </g>
    </g>
   </g>
  </g>
  <g id="body_FL_FL_FL_FL_FL_FL_FL_FL_FL_FL_FL_FL_FL_FL_FL_FL">
   <g>
    <g>
     <g>
      <polygon class="fil0" points="699.522,199.127 699.522,195.043 664.574,195.043 664.574,199.127 "/>
      <polygon class="fil1" points="699.522,168.126 664.574,168.126 664.574,195.043 699.522,195.043 "/>
     </g>
    </g>
   </g>
  </g>
  <g id="body_FL_FL_FL_FL_FL_FL_FL_FL_FL_FL_FL_FL_FL_FL_FL_FL_FL">
   <g>
    <g>
     <g>
      <polygon class="fil0" points="288.085,205.127 288.579,201.043 252.618,201.043 252.124,205.127 "/>
      <polygon class="fil1" points="291.834,174.126 255.873,174.126 252.618,201.043 288.579,201.043 "/>
     </g>
    </g>
   </g>
  </g>
  <g id="body_FL_FL_FL_FL_FL_FL_FL_FL_FL_FL_FL_FL_FL_FL_FL_FL_FL_FL">
   <g>
    <g>
     <g>
      <polygon class="fil0" points="225.272,302.101 225.272,298.018 190.324,303.918 190.324,308.001 "/>
      <polygon class="fil1" points="225.272,271.101 190.324,277.001 190.324,303.918 225.272,298.018 "/>
     </g>
    </g>
   </g>
  </g>
  <g id="body_FL_FL_FL_FL_FL_FL_FL_FL_FL_FL_FL_FL_FL_FL_FL_FL_FL_FL_FL">
   <g>
    <g>
     <g>
      <polygon class="fil0" points="299.544,311.209 299.544,307.127 263.578,307.94 263.578,312.023 "/>
      <polygon class="fil1" points="299.544,280.209 263.578,281.023 263.578,307.94 299.544,307.127 "/>
     </g>
    </g>
   </g>
  </g>
  <g id="_1024660224">
   <g>
    <g>
     <g>
      <polygon class="fil0" points="381.35,314.15 381.35,310.05 342.35,310.05 342.35,314.15 "/>
      <polygon class="fil1" points="381.35,283.15 342.35,283.15 342.35,310.05 381.35,310.05 "/>
     </g>
    </g>
   </g>
  </g>
  <g id="body_FL_FL_FL_FL_FL_FL_FL_FL_FL_FL_FL_FL_FL_FL_FL_FL_FL_FL_FL_FL_FL">
   <g>
    <g>
     <g>
      <polygon class="fil0" points="461.35,315.127 461.35,311.044 422.35,311.044 422.35,315.127 "/>
      <polygon class="fil1" points="461.35,284.126 422.35,284.126 422.35,311.044 461.35,311.044 "/>
     </g>
    </g>
   </g>
  </g>
  <g id="_1024647584">
   <g>
    <g>
     <g>
      <polygon class="fil0" points="418.91,91.529 418.91,87.429 457.403,81.23 457.403,85.33 "/>
      <polygon class="fil1" points="418.91,60.528 457.403,54.33 457.403,81.23 418.91,87.429 "/>
     </g>
    </g>
   </g>
  </g>
 </g>
</svg>
