<?xml version="1.0" encoding="UTF-8"?>
<!DOCTYPE svg PUBLIC "-//W3C//DTD SVG 1.1//EN" "http://www.w3.org/Graphics/SVG/1.1/DTD/svg11.dtd">
<!-- Creator: CorelDRAW 2018 (64-Bit) -->
<svg xmlns="http://www.w3.org/2000/svg" xml:space="preserve" width="720px" height="330px" version="1.1" style="shape-rendering:geometricPrecision; text-rendering:geometricPrecision; image-rendering:optimizeQuality; fill-rule:evenodd; clip-rule:evenodd"
viewBox="0 0 720 330"
 xmlns:xlink="http://www.w3.org/1999/xlink">
 <defs>
  <style type="text/css">
   <![CDATA[
    .fil5 {fill:#25A65B}
    .fil1 {fill:#8E643A}
    .fil2 {fill:#B17D49}
    .fil0 {fill:#C48A51}
    .fil3 {fill:#E05848}
    .fil4 {fill:#FAFAFA}
   ]]>
  </style>
 </defs>
 <g id="Слой_x0020_1">
  <metadata id="CorelCorpID_0Corel-Layer"/>
  <g id="_754635808">
   <g>
    <g>
     <g>
      <polygon class="fil0" points="541.091,60.528 502.597,54.33 502.597,81.23 541.091,87.429 "/>
      <polygon class="fil1" points="502.597,81.23 502.597,85.33 541.091,91.529 541.091,87.429 "/>
     </g>
    </g>
   </g>
   <g>
    <g>
     <g>
      <path class="fil2" d="M533.343 65.131l-2.665 -3.529c-0.033,-0.072 -0.116,-0.119 -0.247,-0.14 -0.099,-0.049 -0.198,-0.048 -0.297,0.002l-0.641 0.347c-0.066,0.023 -0.115,0.081 -0.148,0.176 0,0.1 0.017,0.203 0.049,0.308l1.777 4.136c0.033,0.039 0.049,0.075 0.049,0.108l2.567 3.363c0.065,0.078 0.164,0.127 0.296,0.148 0.098,0.049 0.197,0.049 0.296,-0.002l0.543 -0.313c0.065,-0.056 0.115,-0.131 0.148,-0.226 0.033,-0.095 0.033,-0.195 0,-0.3l-1.678 -3.97c0,-0.033 -0.017,-0.069 -0.049,-0.108z"/>
     </g>
    </g>
   </g>
   <g>
    <g>
     <g>
      <path class="fil2" d="M514.856 75.034c-0.016,0.096 -0.048,0.187 -0.096,0.272l-2.361 3.133c-0.038,0.021 -0.06,0.048 -0.065,0.08l-2.999 2.013c-0.075,0.043 -0.178,0.044 -0.308,0.002 -0.102,0 -0.197,-0.048 -0.284,-0.143l-0.473 -0.559c-0.054,-0.086 -0.09,-0.182 -0.107,-0.288 -0.016,-0.107 0,-0.203 0.048,-0.289l2.24 -3.02c0.005,-0.032 0.027,-0.059 0.064,-0.08l3.12 -2.126c0.043,-0.054 0.13,-0.059 0.26,-0.017 0.102,0 0.197,0.047 0.284,0.143l0.562 0.639c0.06,0.053 0.098,0.133 0.115,0.24z"/>
     </g>
    </g>
   </g>
   <g>
    <g>
     <g>
      <path class="fil3" d="M528.08 79.939c0.252,0.265 0.83,0.177 1.734,-0.264 0.324,-0.182 0.686,-0.393 1.087,-0.633 0.302,0.186 0.636,0.321 1.003,0.402 0.384,0.055 0.757,0.026 1.121,-0.087 0.35,0.376 0.696,0.692 1.038,0.947 0.964,0.796 1.557,1.084 1.778,0.864 0.25,-0.198 0.057,-0.823 -0.58,-1.875 -0.231,-0.365 -0.482,-0.765 -0.754,-1.198 0.079,-0.326 0.122,-0.66 0.127,-1.002 -0.006,-0.39 -0.052,-0.751 -0.136,-1.083 0.275,-0.373 0.548,-0.708 0.819,-1.006 0.588,-0.87 0.756,-1.438 0.504,-1.703 -0.207,-0.269 -0.771,-0.171 -1.692,0.297 -0.397,0.166 -0.796,0.369 -1.197,0.608 -0.302,-0.186 -0.644,-0.307 -1.028,-0.362 -0.367,-0.082 -0.687,-0.071 -0.961,0.033 -0.423,-0.393 -0.812,-0.74 -1.166,-1.043 -0.924,-0.727 -1.511,-0.992 -1.761,-0.793 -0.221,0.219 -0.034,0.821 0.562,1.804 0.215,0.391 0.495,0.812 0.84,1.261 -0.169,0.336 -0.25,0.699 -0.244,1.089 0.007,0.39 0.089,0.759 0.247,1.107 -0.333,0.33 -0.598,0.652 -0.795,0.967 -0.571,0.844 -0.754,1.401 -0.546,1.67z"/>
     </g>
    </g>
   </g>
  </g>
  <g id="body">
   <g>
    <g>
     <g>
      <polygon class="fil4" points="32.862,303.9 35.709,290.7 27.362,291.1 "/>
      <g>
       <path class="fil1" d="M37.115 284.15l-1.406 6.55 -2.847 13.2 5.727 -8.15 1.824 -2.65 1.951 -2.75 -5.249 -6.2 0 0zm-9.753 6.95l-2.992 -6.95 -3.919 6.2 12.411 13.55 -5.5 -12.8 0 0zm-12.3 19.95l0.44 4.1 35.758 0 -0.44 -4.1 -35.758 0z"/>
      </g>
      <polygon class="fil5" points="35.709,290.7 37.115,284.15 24.37,284.15 27.362,291.1 "/>
      <polygon class="fil0" points="38.589,295.75 32.862,303.9 20.451,290.35 24.37,284.15 12.175,284.15 15.062,311.05 50.82,311.05 47.934,284.15 37.115,284.15 42.364,290.35 40.413,293.1 45.41,293.1 45.695,295.75 "/>
      <polygon class="fil2" points="45.41,293.1 40.413,293.1 38.589,295.75 45.695,295.75 "/>
     </g>
    </g>
   </g>
   <g id="_830208560">
    <g>
     <g>
      <path class="fil3" d="M42.166 303.208c-0.138,0.39 -0.262,0.81 -0.372,1.257 -0.332,0.053 -0.647,0.173 -0.942,0.363 -0.281,0.199 -0.512,0.437 -0.693,0.712 -0.431,-0.056 -0.845,-0.091 -1.241,-0.107 -1.006,-0.053 -1.531,0.078 -1.574,0.392 -0.047,0.336 0.402,0.755 1.346,1.255 0.372,0.194 0.776,0.378 1.212,0.553 0.074,0.349 0.215,0.68 0.424,0.994 0.221,0.347 0.469,0.627 0.743,0.84 0.001,0.487 0.017,0.934 0.046,1.34 0.063,1.136 0.254,1.749 0.572,1.839 0.296,0.085 0.625,-0.381 0.986,-1.397 0.146,-0.365 0.281,-0.781 0.404,-1.249 0.296,-0.047 0.576,-0.166 0.842,-0.355 0.285,-0.172 0.514,-0.398 0.689,-0.679 0.458,0.084 0.881,0.134 1.268,0.15 1.048,0.064 1.596,-0.072 1.642,-0.408 0.044,-0.314 -0.428,-0.727 -1.414,-1.239 -0.36,-0.205 -0.763,-0.401 -1.208,-0.587 -0.086,-0.354 -0.236,-0.699 -0.451,-1.037 -0.197,-0.31 -0.426,-0.572 -0.684,-0.787 0.009,-0.492 -0.003,-0.961 -0.036,-1.408 -0.07,-1.091 -0.253,-1.679 -0.55,-1.763 -0.317,-0.09 -0.654,0.35 -1.009,1.321z"/>
     </g>
    </g>
   </g>
   <g id="_830228816">
    <g>
     <g>
      <path class="fil3" d="M18.969 294.297c-0.261,0.251 -0.447,0.553 -0.561,0.905 -0.113,0.352 -0.15,0.708 -0.11,1.069 -0.41,0.196 -0.756,0.406 -1.036,0.629 -0.791,0.587 -1.131,1.032 -1.021,1.337 0.153,0.313 0.719,0.408 1.697,0.283 0.358,-0.066 0.759,-0.147 1.207,-0.242 0.224,0.259 0.494,0.479 0.811,0.663 0.34,0.164 0.698,0.25 1.071,0.258 0.211,0.443 0.436,0.83 0.677,1.162 0.654,1.006 1.118,1.443 1.392,1.312 0.293,-0.103 0.305,-0.723 0.034,-1.859 -0.104,-0.398 -0.215,-0.832 -0.336,-1.303 0.174,-0.269 0.316,-0.557 0.426,-0.862 0.113,-0.353 0.181,-0.69 0.205,-1.014 0.37,-0.252 0.727,-0.471 1.071,-0.658 0.814,-0.605 1.144,-1.064 0.991,-1.378 -0.11,-0.304 -0.666,-0.385 -1.667,-0.242 -0.421,0.03 -0.855,0.092 -1.302,0.187 -0.224,-0.258 -0.506,-0.469 -0.846,-0.634 -0.317,-0.184 -0.619,-0.27 -0.906,-0.26 -0.274,-0.479 -0.529,-0.908 -0.767,-1.286 -0.637,-0.932 -1.103,-1.345 -1.397,-1.242 -0.273,0.131 -0.283,0.727 -0.029,1.79 0.08,0.416 0.212,0.877 0.396,1.385z"/>
     </g>
    </g>
   </g>
   <g id="_830250032">
    <g>
     <g>
      <path class="fil2" d="M31.654 308.45c0.02,-0.1 0.009,-0.2 -0.033,-0.3l-1.955 -3.7c-0.004,-0.033 -0.023,-0.067 -0.057,-0.1l-2.808 -3.1c-0.038,-0.067 -0.118,-0.1 -0.24,-0.1 -0.095,-0.033 -0.185,-0.017 -0.27,0.05l-0.547 0.45c-0.058,0.033 -0.097,0.1 -0.117,0.2 0.011,0.1 0.037,0.2 0.078,0.3l2.064 3.85c0.034,0.034 0.053,0.067 0.057,0.1l2.7 2.95c0.068,0.067 0.163,0.1 0.286,0.1 0.095,0.033 0.185,0.017 0.269,-0.05l0.462 -0.4c0.054,-0.066 0.091,-0.15 0.111,-0.25z"/>
     </g>
    </g>
   </g>
  </g>
  <g id="body_FL">
   <g id="_830200976">
    <g>
     <g>
      <polygon class="fil4" points="42.6,83.9 47.25,70.7 38.1,71.1 "/>
      <g>
       <path class="fil1" d="M49.55 64.15l-2.3 6.55 -4.65 13.2 7.2 -8.15 2.3 -2.65 2.45 -2.75 -5 -6.2 0 0zm-11.45 6.95l-2.45 -6.95 -5 6.2 11.95 13.55 -4.5 -12.8 0 0zm-15.75 19.95l0 4.1 39 0 0 -4.1 -39 0z"/>
      </g>
      <polygon class="fil5" points="47.25,70.7 49.55,64.15 35.65,64.15 38.1,71.1 "/>
      <polygon class="fil0" points="49.8,75.75 42.6,83.9 30.65,70.35 35.65,64.15 22.35,64.15 22.35,91.05 61.35,91.05 61.35,64.15 49.55,64.15 54.55,70.35 52.1,73.1 57.55,73.1 57.55,75.75 "/>
      <polygon class="fil2" points="57.55,73.1 52.1,73.1 49.8,75.75 57.55,75.75 "/>
     </g>
    </g>
   </g>
   <g>
    <g id="_830203408">
     <g>
      <path class="fil3" d="M52.829 83.208c-0.197,0.39 -0.381,0.809 -0.553,1.257 -0.369,0.053 -0.726,0.173 -1.07,0.362 -0.33,0.2 -0.61,0.438 -0.84,0.712 -0.463,-0.055 -0.91,-0.091 -1.34,-0.106 -1.091,-0.053 -1.679,0.078 -1.763,0.392 -0.09,0.336 0.35,0.755 1.321,1.255 0.384,0.194 0.803,0.378 1.257,0.553 0.041,0.348 0.156,0.68 0.347,0.994 0.2,0.347 0.438,0.627 0.712,0.839 -0.056,0.488 -0.091,0.935 -0.107,1.341 -0.064,1.136 0.072,1.749 0.408,1.839 0.314,0.084 0.727,-0.382 1.24,-1.398 0.202,-0.364 0.398,-0.78 0.586,-1.248 0.328,-0.048 0.648,-0.166 0.96,-0.355 0.33,-0.172 0.607,-0.398 0.831,-0.679 0.49,0.084 0.945,0.134 1.365,0.15 1.136,0.064 1.749,-0.072 1.839,-0.408 0.085,-0.314 -0.381,-0.727 -1.397,-1.239 -0.369,-0.205 -0.785,-0.401 -1.249,-0.587 -0.052,-0.354 -0.176,-0.699 -0.371,-1.037 -0.179,-0.31 -0.397,-0.572 -0.653,-0.787 0.066,-0.492 0.108,-0.961 0.125,-1.409 0.052,-1.091 -0.079,-1.678 -0.393,-1.762 -0.336,-0.09 -0.755,0.35 -1.255,1.321z"/>
     </g>
    </g>
   </g>
   <g>
    <g id="_830205488">
     <g>
      <path class="fil3" d="M28.571 74.297c-0.313,0.251 -0.552,0.552 -0.717,0.905 -0.165,0.352 -0.247,0.708 -0.245,1.069 -0.47,0.196 -0.872,0.405 -1.204,0.629 -0.931,0.586 -1.354,1.032 -1.27,1.337 0.131,0.313 0.737,0.408 1.818,0.283 0.397,-0.067 0.845,-0.147 1.344,-0.242 0.214,0.258 0.483,0.479 0.807,0.662 0.353,0.165 0.732,0.251 1.139,0.259 0.177,0.443 0.378,0.83 0.601,1.162 0.596,1.005 1.051,1.442 1.365,1.312 0.332,-0.104 0.417,-0.723 0.255,-1.86 -0.066,-0.397 -0.138,-0.831 -0.214,-1.302 0.221,-0.269 0.409,-0.557 0.565,-0.863 0.165,-0.352 0.279,-0.69 0.342,-1.013 0.434,-0.252 0.849,-0.471 1.246,-0.658 0.959,-0.605 1.373,-1.064 1.242,-1.378 -0.085,-0.305 -0.681,-0.385 -1.79,-0.242 -0.462,0.03 -0.943,0.092 -1.441,0.187 -0.214,-0.258 -0.497,-0.47 -0.849,-0.635 -0.325,-0.183 -0.644,-0.269 -0.958,-0.259 -0.243,-0.479 -0.471,-0.908 -0.685,-1.286 -0.587,-0.932 -1.046,-1.346 -1.379,-1.243 -0.313,0.131 -0.394,0.728 -0.241,1.79 0.038,0.416 0.128,0.878 0.269,1.386z"/>
     </g>
    </g>
   </g>
   <g>
    <g id="_830208528">
     <g>
      <path class="fil2" d="M40.75 88.45c0.033,-0.1 0.033,-0.2 0,-0.3l-1.7 -3.7c0,-0.033 -0.017,-0.067 -0.05,-0.1l-2.7 -3.1c-0.034,-0.067 -0.117,-0.1 -0.25,-0.1 -0.1,-0.033 -0.2,-0.017 -0.3,0.05l-0.65 0.45c-0.067,0.033 -0.117,0.1 -0.15,0.2 0,0.1 0.016,0.2 0.05,0.3l1.8 3.85c0.033,0.033 0.05,0.067 0.05,0.1l2.6 2.95c0.066,0.066 0.166,0.1 0.3,0.1 0.1,0.033 0.2,0.017 0.3,-0.05l0.55 -0.4c0.066,-0.067 0.117,-0.15 0.15,-0.25z"/>
     </g>
    </g>
   </g>
  </g>
  <g id="body_FL_FL">
   <g>
    <g id="_830216496">
     <g>
      <polygon class="fil4" points="124.089,79 128.699,65.8 119.627,66.2 "/>
      <g>
       <path class="fil1" d="M130.979 59.25l-2.28 6.55 -4.61 13.2 7.138 -8.15 2.28 -2.65 2.43 -2.75 -4.958 -6.2 0 0zm-11.352 6.95l-2.428 -6.95 -4.957 6.2 11.847 13.55 -4.462 -12.8 0 0zm-15.614 19.95l0 4.1 38.665 0 0 -4.1 -38.665 0z"/>
      </g>
      <polygon class="fil5" points="128.699,65.8 130.979,59.25 117.199,59.25 119.627,66.2 "/>
      <polygon class="fil0" points="131.227,70.85 124.089,79 112.242,65.45 117.199,59.25 104.013,59.25 104.013,86.15 142.678,86.15 142.678,59.25 130.979,59.25 135.937,65.45 133.507,68.2 138.911,68.2 138.911,70.85 "/>
      <polygon class="fil2" points="138.911,68.2 133.507,68.2 131.227,70.85 138.911,70.85 "/>
     </g>
    </g>
   </g>
   <g>
    <g>
     <g id="_830218224">
      <path class="fil3" d="M134.23 78.308c-0.195,0.39 -0.377,0.809 -0.548,1.257 -0.365,0.052 -0.719,0.173 -1.061,0.362 -0.327,0.2 -0.604,0.438 -0.832,0.712 -0.459,-0.055 -0.902,-0.091 -1.329,-0.107 -1.082,-0.052 -1.665,0.079 -1.748,0.393 -0.089,0.336 0.348,0.754 1.31,1.255 0.381,0.193 0.796,0.378 1.247,0.553 0.039,0.348 0.154,0.68 0.343,0.994 0.199,0.347 0.434,0.626 0.706,0.839 -0.055,0.488 -0.09,0.935 -0.106,1.341 -0.063,1.136 0.071,1.749 0.405,1.839 0.311,0.084 0.72,-0.382 1.228,-1.398 0.201,-0.364 0.395,-0.781 0.582,-1.248 0.325,-0.048 0.642,-0.166 0.952,-0.355 0.327,-0.172 0.602,-0.398 0.823,-0.679 0.487,0.084 0.938,0.134 1.354,0.15 1.126,0.064 1.734,-0.072 1.823,-0.408 0.084,-0.314 -0.378,-0.727 -1.385,-1.24 -0.366,-0.204 -0.778,-0.4 -1.238,-0.586 -0.052,-0.354 -0.175,-0.699 -0.368,-1.037 -0.177,-0.31 -0.393,-0.573 -0.648,-0.788 0.067,-0.491 0.108,-0.96 0.124,-1.407 0.052,-1.092 -0.078,-1.679 -0.389,-1.764 -0.334,-0.09 -0.748,0.351 -1.245,1.322z"/>
     </g>
    </g>
   </g>
   <g>
    <g>
     <g id="_830221232">
      <path class="fil3" d="M110.181 69.397c-0.311,0.251 -0.548,0.553 -0.711,0.905 -0.164,0.351 -0.245,0.708 -0.243,1.068 -0.467,0.197 -0.864,0.406 -1.194,0.63 -0.923,0.586 -1.342,1.032 -1.259,1.337 0.13,0.313 0.731,0.408 1.802,0.283 0.394,-0.067 0.839,-0.147 1.333,-0.242 0.212,0.258 0.479,0.479 0.801,0.662 0.349,0.165 0.725,0.251 1.128,0.259 0.176,0.443 0.375,0.83 0.596,1.162 0.591,1.005 1.042,1.442 1.353,1.311 0.33,-0.103 0.414,-0.722 0.254,-1.859 -0.066,-0.397 -0.137,-0.831 -0.212,-1.302 0.218,-0.27 0.405,-0.557 0.56,-0.863 0.163,-0.352 0.276,-0.69 0.339,-1.014 0.43,-0.251 0.841,-0.47 1.234,-0.657 0.951,-0.605 1.361,-1.064 1.232,-1.378 -0.084,-0.305 -0.676,-0.385 -1.775,-0.242 -0.458,0.03 -0.934,0.092 -1.429,0.187 -0.212,-0.258 -0.492,-0.47 -0.841,-0.634 -0.322,-0.184 -0.638,-0.271 -0.95,-0.26 -0.24,-0.479 -0.467,-0.908 -0.679,-1.286 -0.582,-0.932 -1.037,-1.346 -1.367,-1.242 -0.311,0.13 -0.391,0.727 -0.239,1.79 0.038,0.415 0.127,0.877 0.267,1.385z"/>
     </g>
    </g>
   </g>
   <g>
    <g>
     <g id="_830224080">
      <path class="fil2" d="M122.255 83.55c0.033,-0.1 0.033,-0.2 0,-0.3l-1.686 -3.7c0,-0.033 -0.016,-0.067 -0.049,-0.1l-2.677 -3.1c-0.033,-0.067 -0.116,-0.1 -0.248,-0.1 -0.099,-0.033 -0.198,-0.017 -0.297,0.05l-0.645 0.45c-0.066,0.033 -0.115,0.1 -0.148,0.2 0,0.1 0.016,0.2 0.049,0.3l1.785 3.85c0.033,0.033 0.049,0.067 0.049,0.1l2.578 2.95c0.066,0.067 0.165,0.1 0.298,0.1 0.099,0.033 0.198,0.017 0.297,-0.05l0.545 -0.4c0.066,-0.067 0.116,-0.15 0.149,-0.25z"/>
     </g>
    </g>
   </g>
  </g>
  <g id="body_FL_FL_FL">
   <g>
    <g>
     <g id="_830231376">
      <polygon class="fil4" points="202.36,78.739 208.161,65.714 198.964,65.865 "/>
      <g>
       <path class="fil1" d="M211.033 59.251l-2.872 6.463 -5.801 13.025 7.917 -7.925 2.533 -2.578 2.692 -2.673 -4.469 -6.312 0 0zm-12.069 6.614l-1.851 -6.99 -5.544 6.041 10.791 13.823 -3.396 -12.874 0 0zm-17.503 19.448l-0.355 4.085 39.055 1.056 0.355 -4.085 -39.055 -1.056z"/>
      </g>
      <polygon class="fil5" points="208.161,65.714 211.033,59.251 197.113,58.875 198.964,65.865 "/>
      <polygon class="fil0" points="210.277,70.814 202.36,78.739 191.569,64.916 197.113,58.875 183.794,58.515 181.461,85.313 220.516,86.369 222.849,59.57 211.033,59.251 215.502,65.563 212.81,68.236 218.268,68.384 218.038,71.024 "/>
      <polygon class="fil2" points="218.268,68.384 212.81,68.236 210.277,70.814 218.038,71.024 "/>
     </g>
    </g>
   </g>
   <g>
    <g>
     <g>
      <path class="fil3" d="M212.664 78.326c-0.231,0.383 -0.452,0.796 -0.663,1.238 -0.374,0.042 -0.742,0.152 -1.103,0.331 -0.348,0.191 -0.649,0.42 -0.903,0.687 -0.459,-0.068 -0.903,-0.115 -1.333,-0.143 -1.088,-0.081 -1.688,0.033 -1.799,0.344 -0.12,0.332 0.285,0.761 1.214,1.285 0.368,0.203 0.771,0.399 1.211,0.585 0.01,0.349 0.097,0.682 0.261,1 0.17,0.351 0.384,0.636 0.64,0.855 -0.098,0.485 -0.173,0.929 -0.223,1.333 -0.163,1.13 -0.08,1.745 0.249,1.843 0.307,0.093 0.761,-0.36 1.362,-1.358 0.235,-0.358 0.467,-0.768 0.696,-1.228 0.333,-0.039 0.664,-0.148 0.992,-0.328 0.346,-0.163 0.643,-0.38 0.891,-0.654 0.484,0.097 0.935,0.159 1.354,0.186 1.132,0.095 1.758,-0.024 1.877,-0.356 0.112,-0.311 -0.319,-0.735 -1.292,-1.273 -0.351,-0.214 -0.751,-0.42 -1.199,-0.618 -0.022,-0.354 -0.116,-0.701 -0.282,-1.043 -0.152,-0.313 -0.347,-0.581 -0.586,-0.802 0.11,-0.488 0.192,-0.954 0.247,-1.4 0.147,-1.085 0.067,-1.674 -0.24,-1.767 -0.329,-0.098 -0.786,0.329 -1.371,1.283z"/>
     </g>
    </g>
   </g>
   <g>
    <g>
     <g>
      <path class="fil3" d="M189.145 68.792c-0.336,0.242 -0.602,0.536 -0.797,0.882 -0.196,0.346 -0.308,0.699 -0.338,1.058 -0.488,0.183 -0.908,0.381 -1.26,0.594 -0.983,0.559 -1.446,0.992 -1.388,1.298 0.104,0.316 0.702,0.426 1.796,0.331 0.404,-0.055 0.859,-0.123 1.367,-0.204 0.192,0.262 0.442,0.49 0.751,0.681 0.338,0.174 0.711,0.27 1.118,0.289 0.139,0.446 0.306,0.837 0.501,1.174 0.51,1.017 0.927,1.465 1.253,1.343 0.342,-0.093 0.48,-0.709 0.417,-1.845 -0.032,-0.398 -0.066,-0.832 -0.101,-1.304 0.244,-0.262 0.458,-0.543 0.64,-0.843 0.196,-0.346 0.339,-0.68 0.431,-1.001 0.456,-0.239 0.89,-0.446 1.304,-0.621 1.013,-0.577 1.467,-1.024 1.363,-1.34 -0.058,-0.305 -0.649,-0.402 -1.772,-0.289 -0.465,0.017 -0.951,0.066 -1.459,0.147 -0.191,-0.263 -0.457,-0.481 -0.795,-0.655 -0.309,-0.192 -0.621,-0.286 -0.937,-0.284 -0.201,-0.485 -0.392,-0.918 -0.574,-1.301 -0.507,-0.943 -0.931,-1.368 -1.273,-1.274 -0.325,0.121 -0.458,0.714 -0.397,1.777 0.003,0.415 0.053,0.877 0.15,1.387z"/>
     </g>
    </g>
   </g>
   <g>
    <g>
     <g>
      <path class="fil2" d="M200.113 83.221c0.042,-0.099 0.051,-0.198 0.026,-0.299l-1.382 -3.732c0.003,-0.033 -0.011,-0.067 -0.041,-0.101l-2.435 -3.161c-0.028,-0.068 -0.108,-0.103 -0.242,-0.106 -0.097,-0.036 -0.198,-0.022 -0.305,0.041l-0.689 0.431c-0.07,0.031 -0.126,0.096 -0.168,0.195 -0.009,0.1 -0.001,0.2 0.024,0.3l1.469 3.884c0.03,0.035 0.044,0.068 0.041,0.102l2.348 3.009c0.061,0.068 0.158,0.104 0.292,0.108 0.097,0.036 0.198,0.022 0.305,-0.042l0.585 -0.384c0.073,-0.065 0.13,-0.146 0.172,-0.245z"/>
     </g>
    </g>
   </g>
  </g>
  <g id="body_FL_FL_FL_FL">
   <g>
    <g>
     <g>
      <polygon class="fil4" points="282.492,91.251 286.036,77.712 276.95,78.867 "/>
      <g>
       <path class="fil1" d="M287.787 70.995l-1.751 6.717 -3.544 13.539 6.503 -8.717 2.073 -2.83 2.214 -2.944 -5.495 -5.765 0 0zm-10.837 7.872l-3.015 -6.724 -4.471 6.591 13.028 12.517 -5.542 -12.384 0 0zm-14.048 21.182l0.339 4.086 38.866 -3.222 -0.338 -4.085 -38.867 3.221z"/>
      </g>
      <polygon class="fil5" points="286.036,77.712 287.787,70.995 273.935,72.143 276.95,78.867 "/>
      <polygon class="fil0" points="288.995,82.534 282.492,91.251 269.464,78.734 273.935,72.143 260.681,73.241 262.902,100.049 301.769,96.828 299.547,70.02 287.787,70.995 293.282,76.76 291.068,79.704 296.499,79.253 296.718,81.894 "/>
      <polygon class="fil2" points="296.499,79.253 291.068,79.704 288.995,82.534 296.718,81.894 "/>
     </g>
    </g>
   </g>
   <g>
    <g>
     <g>
      <path class="fil3" d="M292.629 89.717c-0.164,0.405 -0.312,0.838 -0.447,1.298 -0.363,0.083 -0.709,0.232 -1.036,0.449 -0.313,0.227 -0.572,0.487 -0.778,0.779 -0.467,-0.017 -0.915,-0.015 -1.345,0.004 -1.092,0.039 -1.667,0.218 -1.725,0.537 -0.062,0.343 0.412,0.723 1.421,1.142 0.398,0.161 0.831,0.31 1.299,0.447 0.068,0.344 0.211,0.664 0.427,0.962 0.228,0.329 0.488,0.588 0.779,0.778 -0.015,0.49 -0.014,0.939 0.004,1.344 0.03,1.138 0.216,1.738 0.559,1.8 0.319,0.057 0.693,-0.441 1.12,-1.496 0.171,-0.38 0.332,-0.811 0.481,-1.292 0.323,-0.075 0.632,-0.219 0.928,-0.433 0.314,-0.199 0.571,-0.447 0.771,-0.745 0.495,0.043 0.953,0.055 1.373,0.036 1.137,-0.03 1.737,-0.216 1.799,-0.559 0.058,-0.319 -0.44,-0.692 -1.495,-1.119 -0.384,-0.174 -0.815,-0.334 -1.293,-0.482 -0.081,-0.348 -0.233,-0.682 -0.455,-1.002 -0.204,-0.294 -0.443,-0.538 -0.716,-0.731 0.026,-0.495 0.028,-0.966 0.008,-1.413 -0.039,-1.092 -0.217,-1.667 -0.537,-1.725 -0.343,-0.062 -0.723,0.411 -1.142,1.421z"/>
     </g>
    </g>
   </g>
   <g>
    <g>
     <g>
      <path class="fil3" d="M267.719 82.84c-0.291,0.276 -0.505,0.596 -0.64,0.961 -0.136,0.364 -0.187,0.726 -0.156,1.085 -0.453,0.234 -0.835,0.477 -1.147,0.726 -0.88,0.662 -1.265,1.141 -1.156,1.437 0.156,0.302 0.768,0.347 1.835,0.133 0.391,-0.099 0.83,-0.216 1.32,-0.352 0.234,0.239 0.52,0.437 0.859,0.593 0.364,0.136 0.749,0.19 1.155,0.164 0.214,0.427 0.446,0.796 0.696,1.108 0.677,0.953 1.166,1.351 1.468,1.195 0.323,-0.131 0.357,-0.755 0.101,-1.875 -0.099,-0.39 -0.206,-0.817 -0.32,-1.28 0.197,-0.287 0.361,-0.589 0.491,-0.906 0.136,-0.364 0.221,-0.711 0.258,-1.039 0.411,-0.286 0.806,-0.539 1.186,-0.757 0.906,-0.683 1.281,-1.175 1.124,-1.477 -0.109,-0.296 -0.71,-0.327 -1.803,-0.093 -0.459,0.068 -0.932,0.17 -1.422,0.305 -0.234,-0.239 -0.533,-0.426 -0.898,-0.562 -0.338,-0.156 -0.664,-0.215 -0.976,-0.179 -0.281,-0.458 -0.544,-0.866 -0.789,-1.226 -0.661,-0.879 -1.154,-1.254 -1.476,-1.124 -0.302,0.157 -0.333,0.758 -0.093,1.804 0.073,0.411 0.2,0.864 0.383,1.359z"/>
     </g>
    </g>
   </g>
   <g>
    <g>
     <g>
      <path class="fil2" d="M281.024 95.938c0.025,-0.102 0.017,-0.202 -0.024,-0.299l-2 -3.547c-0.003,-0.033 -0.022,-0.065 -0.058,-0.095l-2.947 -2.867c-0.039,-0.063 -0.124,-0.09 -0.257,-0.079 -0.103,-0.025 -0.201,0 -0.295,0.075l-0.611 0.502c-0.063,0.039 -0.108,0.109 -0.133,0.212 0.009,0.1 0.033,0.198 0.075,0.295l2.112 3.688c0.036,0.03 0.055,0.062 0.058,0.095l2.835 2.725c0.071,0.061 0.174,0.086 0.307,0.075 0.102,0.025 0.201,0.001 0.295,-0.074l0.515 -0.444c0.061,-0.072 0.103,-0.159 0.128,-0.262z"/>
     </g>
    </g>
   </g>
  </g>
  <g id="body_FL_FL_FL_FL_FL">
   <g>
    <g>
     <g>
      <polygon class="fil4" points="362.589,76.469 366.454,62.968 358.849,63.96 "/>
      <g>
       <path class="fil1" d="M368.366 56.269l-1.912 6.699 -3.865 13.501 5.984 -8.617 1.912 -2.798 2.036 -2.909 -4.155 -5.876 0 0zm-9.517 7.691l-2.037 -6.791 -4.155 6.524 9.932 12.776 -3.74 -12.509 0 0zm-13.091 20.971l0 4.1 32.415 -2.527 0 -4.1 -32.415 2.527z"/>
      </g>
      <polygon class="fil5" points="366.454,62.968 368.366,56.269 356.812,57.169 358.849,63.96 "/>
      <polygon class="fil0" points="368.573,67.852 362.589,76.469 352.657,63.693 356.812,57.169 345.758,58.031 345.758,84.931 378.173,82.404 378.173,55.504 368.366,56.269 372.521,62.145 370.485,65.054 375.015,64.701 375.015,67.35 "/>
      <polygon class="fil2" points="375.015,64.701 370.485,65.054 368.573,67.852 375.015,67.35 "/>
     </g>
    </g>
   </g>
   <g>
    <g>
     <g>
      <path class="fil3" d="M371.091 75.114c-0.164,0.403 -0.317,0.835 -0.46,1.294 -0.306,0.076 -0.603,0.219 -0.889,0.431 -0.274,0.221 -0.507,0.477 -0.698,0.766 -0.385,-0.025 -0.756,-0.032 -1.114,-0.02 -0.907,0.019 -1.395,0.188 -1.465,0.507 -0.075,0.342 0.291,0.732 1.098,1.169 0.319,0.169 0.667,0.326 1.045,0.472 0.034,0.346 0.129,0.669 0.288,0.971 0.167,0.334 0.364,0.599 0.592,0.794 -0.046,0.491 -0.076,0.94 -0.089,1.347 -0.053,1.14 0.06,1.745 0.339,1.813 0.261,0.064 0.604,-0.429 1.03,-1.478 0.168,-0.378 0.331,-0.807 0.488,-1.286 0.272,-0.069 0.538,-0.208 0.798,-0.418 0.274,-0.193 0.504,-0.437 0.69,-0.732 0.408,0.052 0.786,0.072 1.135,0.061 0.944,-0.009 1.454,-0.185 1.529,-0.527 0.07,-0.319 -0.318,-0.702 -1.162,-1.149 -0.307,-0.181 -0.653,-0.35 -1.038,-0.506 -0.043,-0.35 -0.146,-0.688 -0.308,-1.012 -0.149,-0.299 -0.33,-0.547 -0.543,-0.746 0.055,-0.495 0.09,-0.967 0.103,-1.416 0.044,-1.094 -0.065,-1.674 -0.326,-1.737 -0.279,-0.069 -0.627,0.399 -1.043,1.402z"/>
     </g>
    </g>
   </g>
   <g>
    <g>
     <g>
      <path class="fil3" d="M350.929 67.775c-0.26,0.271 -0.459,0.588 -0.596,0.951 -0.137,0.362 -0.205,0.724 -0.204,1.085 -0.391,0.226 -0.725,0.462 -1,0.707 -0.774,0.646 -1.126,1.12 -1.056,1.419 0.109,0.305 0.613,0.36 1.511,0.166 0.33,-0.093 0.703,-0.202 1.117,-0.329 0.178,0.244 0.402,0.447 0.671,0.61 0.293,0.142 0.608,0.203 0.946,0.184 0.148,0.432 0.315,0.806 0.5,1.124 0.496,0.966 0.874,1.374 1.134,1.223 0.277,-0.125 0.347,-0.75 0.213,-1.876 -0.055,-0.393 -0.115,-0.823 -0.178,-1.289 0.183,-0.284 0.34,-0.583 0.47,-0.899 0.137,-0.363 0.232,-0.708 0.284,-1.036 0.36,-0.28 0.705,-0.525 1.035,-0.738 0.797,-0.667 1.141,-1.153 1.033,-1.459 -0.071,-0.299 -0.567,-0.341 -1.488,-0.125 -0.384,0.059 -0.784,0.153 -1.199,0.28 -0.177,-0.244 -0.412,-0.438 -0.705,-0.58 -0.269,-0.162 -0.535,-0.228 -0.796,-0.197 -0.202,-0.464 -0.391,-0.878 -0.569,-1.242 -0.488,-0.893 -0.87,-1.278 -1.146,-1.153 -0.261,0.151 -0.328,0.753 -0.201,1.806 0.032,0.413 0.107,0.869 0.224,1.368z"/>
     </g>
    </g>
   </g>
   <g>
    <g>
     <g>
      <path class="fil2" d="M361.051 81.139c0.028,-0.102 0.028,-0.202 0,-0.3l-1.413 -3.59c0,-0.034 -0.014,-0.066 -0.041,-0.097l-2.244 -2.925c-0.028,-0.065 -0.097,-0.093 -0.208,-0.084 -0.083,-0.027 -0.166,-0.004 -0.25,0.07l-0.54 0.492c-0.055,0.038 -0.097,0.107 -0.124,0.209 0,0.101 0.013,0.199 0.041,0.297l1.496 3.734c0.028,0.031 0.042,0.063 0.042,0.096l2.161 2.782c0.055,0.062 0.138,0.089 0.249,0.081 0.083,0.026 0.166,0.003 0.249,-0.07l0.458 -0.435c0.055,-0.071 0.096,-0.158 0.124,-0.26z"/>
     </g>
    </g>
   </g>
  </g>
  <g id="body_FL_FL_FL_FL_FL_FL">
   <g>
    <g>
     <g>
      <polygon class="fil4" points="42.511,192.067 46.239,178.578 37.138,179.607 "/>
      <g>
       <path class="fil1" d="M48.082 171.884l-1.843 6.694 -3.728 13.489 6.62 -8.627 2.112 -2.803 2.255 -2.912 -5.416 -5.841 0 0zm-10.944 7.723l-2.923 -6.764 -4.56 6.53 12.856 12.694 -5.373 -12.46 0 0zm-14.336 20.989l0.282 4.09 38.907 -2.689 -0.282 -4.09 -38.907 2.689z"/>
      </g>
      <polygon class="fil5" points="46.239,178.578 48.082,171.884 34.215,172.843 37.138,179.607 "/>
      <polygon class="fil0" points="49.131,183.44 42.511,192.067 29.655,179.373 34.215,172.843 20.947,173.76 22.802,200.596 61.709,197.907 59.854,171.071 48.082,171.884 53.498,177.725 51.243,180.637 56.68,180.262 56.863,182.905 "/>
      <polygon class="fil2" points="56.68,180.262 51.243,180.637 49.131,183.44 56.863,182.905 "/>
     </g>
    </g>
   </g>
   <g>
    <g>
     <g>
      <path class="fil3" d="M52.668 190.671c-0.17,0.403 -0.325,0.834 -0.465,1.293 -0.365,0.077 -0.712,0.222 -1.043,0.435 -0.315,0.222 -0.578,0.478 -0.788,0.768 -0.466,-0.023 -0.915,-0.028 -1.345,-0.014 -1.092,0.023 -1.669,0.194 -1.732,0.513 -0.066,0.342 0.402,0.728 1.405,1.161 0.396,0.166 0.827,0.321 1.293,0.465 0.063,0.344 0.201,0.667 0.413,0.967 0.224,0.333 0.48,0.595 0.769,0.788 -0.022,0.491 -0.027,0.939 -0.015,1.346 0.015,1.137 0.193,1.739 0.535,1.806 0.319,0.063 0.698,-0.431 1.139,-1.48 0.177,-0.378 0.344,-0.806 0.5,-1.285 0.324,-0.071 0.635,-0.211 0.933,-0.421 0.318,-0.195 0.578,-0.439 0.782,-0.734 0.495,0.049 0.952,0.068 1.372,0.055 1.138,-0.015 1.74,-0.193 1.807,-0.534 0.062,-0.319 -0.431,-0.699 -1.48,-1.14 -0.382,-0.179 -0.811,-0.346 -1.286,-0.499 -0.076,-0.35 -0.224,-0.686 -0.441,-1.009 -0.2,-0.297 -0.436,-0.544 -0.707,-0.741 0.033,-0.495 0.042,-0.966 0.028,-1.413 -0.023,-1.092 -0.195,-1.67 -0.514,-1.732 -0.341,-0.066 -0.728,0.402 -1.16,1.405z"/>
     </g>
    </g>
   </g>
   <g>
    <g>
     <g>
      <path class="fil3" d="M27.853 183.454c-0.295,0.272 -0.513,0.59 -0.653,0.952 -0.14,0.362 -0.197,0.724 -0.171,1.083 -0.455,0.228 -0.841,0.465 -1.157,0.711 -0.889,0.649 -1.28,1.123 -1.175,1.421 0.152,0.304 0.763,0.357 1.833,0.157 0.392,-0.093 0.833,-0.204 1.324,-0.333 0.231,0.242 0.515,0.444 0.852,0.604 0.362,0.141 0.746,0.201 1.153,0.18 0.208,0.43 0.434,0.802 0.68,1.118 0.664,0.961 1.148,1.366 1.452,1.214 0.324,-0.126 0.366,-0.75 0.126,-1.872 -0.093,-0.392 -0.194,-0.82 -0.303,-1.285 0.202,-0.284 0.37,-0.583 0.504,-0.899 0.141,-0.363 0.231,-0.708 0.272,-1.035 0.415,-0.281 0.814,-0.528 1.197,-0.742 0.915,-0.669 1.296,-1.157 1.144,-1.46 -0.106,-0.299 -0.706,-0.338 -1.803,-0.118 -0.458,0.061 -0.934,0.157 -1.425,0.285 -0.23,-0.242 -0.528,-0.433 -0.89,-0.574 -0.336,-0.16 -0.661,-0.225 -0.974,-0.192 -0.274,-0.462 -0.532,-0.874 -0.772,-1.237 -0.649,-0.888 -1.136,-1.27 -1.461,-1.144 -0.303,0.152 -0.343,0.753 -0.117,1.802 0.067,0.413 0.189,0.867 0.364,1.364z"/>
     </g>
    </g>
   </g>
   <g>
    <g>
     <g>
      <path class="fil2" d="M40.979 196.734c0.026,-0.102 0.019,-0.202 -0.021,-0.3l-1.951 -3.574c-0.002,-0.033 -0.022,-0.065 -0.057,-0.096l-2.907 -2.906c-0.038,-0.065 -0.123,-0.092 -0.257,-0.083 -0.102,-0.026 -0.2,-0.003 -0.295,0.07l-0.618 0.494c-0.064,0.038 -0.109,0.108 -0.136,0.21 0.007,0.1 0.031,0.199 0.071,0.296l2.061 3.717c0.035,0.031 0.055,0.063 0.057,0.096l2.797 2.764c0.071,0.062 0.173,0.088 0.306,0.079 0.102,0.026 0.201,0.003 0.296,-0.071l0.521 -0.437c0.062,-0.071 0.106,-0.157 0.133,-0.259z"/>
     </g>
    </g>
   </g>
  </g>
  <g id="body_FL_FL_FL_FL_FL_FL_FL">
   <g>
    <g>
     <g>
      <polygon class="fil4" points="122.398,191.3 127.565,178.294 118.406,178.333 "/>
      <g>
       <path class="fil1" d="M130.121 171.84l-2.556 6.454 -5.167 13.006 7.516 -7.86 2.402 -2.557 2.557 -2.651 -4.752 -6.392 0 0zm-11.715 6.493l-2.174 -7.041 -5.24 5.998 11.406 14.01 -3.992 -12.967 0 0zm-16.524 19.313l-0.162 4.097 38.97 1.538 0.161 -4.097 -38.969 -1.538z"/>
      </g>
      <polygon class="fil5" points="127.565,178.294 130.121,171.84 116.232,171.292 118.406,178.333 "/>
      <polygon class="fil0" points="129.914,183.44 122.398,191.3 110.992,177.29 116.232,171.292 102.942,170.767 101.882,197.646 140.851,199.184 141.912,172.305 130.121,171.84 134.873,178.232 132.316,180.883 137.762,181.098 137.658,183.746 "/>
      <polygon class="fil2" points="137.762,181.098 132.316,180.883 129.914,183.44 137.658,183.746 "/>
     </g>
    </g>
   </g>
   <g>
    <g>
     <g>
      <path class="fil3" d="M132.647 191.012c-0.212,0.382 -0.413,0.794 -0.603,1.235 -0.37,0.037 -0.731,0.144 -1.083,0.319 -0.338,0.187 -0.627,0.413 -0.867,0.679 -0.461,-0.074 -0.906,-0.127 -1.335,-0.16 -1.089,-0.095 -1.681,0.012 -1.777,0.323 -0.104,0.332 0.32,0.767 1.271,1.306 0.375,0.208 0.787,0.409 1.234,0.602 0.026,0.35 0.129,0.685 0.307,1.006 0.186,0.355 0.413,0.644 0.678,0.867 -0.074,0.485 -0.128,0.931 -0.159,1.336 -0.109,1.133 0.003,1.75 0.335,1.854 0.31,0.096 0.741,-0.353 1.294,-1.348 0.216,-0.357 0.428,-0.764 0.635,-1.224 0.329,-0.035 0.654,-0.141 0.974,-0.317 0.336,-0.159 0.622,-0.374 0.856,-0.646 0.487,0.103 0.94,0.171 1.358,0.204 1.133,0.109 1.751,-0.003 1.854,-0.335 0.097,-0.311 -0.353,-0.742 -1.348,-1.294 -0.36,-0.219 -0.768,-0.431 -1.224,-0.636 -0.038,-0.355 -0.148,-0.705 -0.33,-1.05 -0.166,-0.317 -0.374,-0.588 -0.622,-0.813 0.086,-0.488 0.147,-0.955 0.18,-1.402 0.096,-1.088 -0.012,-1.68 -0.322,-1.777 -0.333,-0.103 -0.768,0.321 -1.306,1.271z"/>
     </g>
    </g>
   </g>
   <g>
    <g>
     <g>
      <path class="fil3" d="M108.759 181.152c-0.323,0.238 -0.574,0.53 -0.752,0.875 -0.179,0.346 -0.274,0.698 -0.287,1.059 -0.478,0.177 -0.887,0.371 -1.228,0.581 -0.953,0.549 -1.394,0.978 -1.322,1.286 0.119,0.319 0.721,0.437 1.806,0.354 0.399,-0.05 0.85,-0.113 1.353,-0.188 0.203,0.266 0.463,0.497 0.78,0.693 0.345,0.179 0.721,0.28 1.127,0.304 0.16,0.449 0.345,0.844 0.555,1.185 0.556,1.028 0.994,1.482 1.312,1.364 0.336,-0.09 0.446,-0.706 0.329,-1.848 -0.051,-0.399 -0.105,-0.836 -0.163,-1.31 0.232,-0.26 0.431,-0.54 0.599,-0.839 0.179,-0.346 0.306,-0.679 0.382,-1 0.443,-0.234 0.866,-0.436 1.27,-0.607 0.982,-0.567 1.414,-1.01 1.295,-1.329 -0.072,-0.307 -0.665,-0.412 -1.779,-0.312 -0.463,0.012 -0.945,0.055 -1.447,0.13 -0.203,-0.266 -0.478,-0.489 -0.823,-0.667 -0.317,-0.196 -0.633,-0.295 -0.947,-0.297 -0.224,-0.489 -0.435,-0.927 -0.634,-1.313 -0.549,-0.954 -0.992,-1.385 -1.328,-1.295 -0.319,0.118 -0.423,0.711 -0.313,1.779 0.023,0.417 0.094,0.882 0.215,1.395z"/>
     </g>
    </g>
   </g>
   <g>
    <g>
     <g>
      <path class="fil2" d="M120.37 195.774c0.037,-0.099 0.041,-0.199 0.012,-0.3l-1.553 -3.764c0.001,-0.033 -0.014,-0.067 -0.046,-0.102l-2.576 -3.204c-0.03,-0.068 -0.112,-0.105 -0.245,-0.11 -0.099,-0.037 -0.199,-0.025 -0.302,0.038l-0.667 0.424c-0.068,0.031 -0.121,0.095 -0.158,0.194 -0.004,0.1 0.009,0.201 0.038,0.302l1.647 3.918c0.032,0.035 0.047,0.068 0.046,0.102l2.481 3.05c0.065,0.069 0.163,0.107 0.296,0.112 0.099,0.037 0.199,0.025 0.302,-0.038l0.565 -0.378c0.069,-0.064 0.123,-0.146 0.16,-0.244z"/>
     </g>
    </g>
   </g>
  </g>
  <g id="body_FL_FL_FL_FL_FL_FL_FL_FL">
   <g>
    <g>
     <g>
      <polygon class="fil4" points="193.1,193.9 197.75,180.7 188.6,181.1 "/>
      <g>
       <path class="fil1" d="M200.05 174.15l-2.3 6.55 -4.65 13.2 7.2 -8.15 2.3 -2.65 2.45 -2.75 -5 -6.2 0 0zm-11.45 6.95l-2.45 -6.95 -5 6.2 11.95 13.55 -4.5 -12.8 0 0zm-15.75 19.95l0 4.1 39 0 0 -4.1 -39 0z"/>
      </g>
      <polygon class="fil5" points="197.75,180.7 200.05,174.15 186.15,174.15 188.6,181.1 "/>
      <polygon class="fil0" points="200.3,185.75 193.1,193.9 181.15,180.35 186.15,174.15 172.85,174.15 172.85,201.05 211.85,201.05 211.85,174.15 200.05,174.15 205.05,180.35 202.6,183.1 208.05,183.1 208.05,185.75 "/>
      <polygon class="fil2" points="208.05,183.1 202.6,183.1 200.3,185.75 208.05,185.75 "/>
     </g>
    </g>
   </g>
   <g>
    <g>
     <g>
      <path class="fil3" d="M203.329 193.208c-0.197,0.391 -0.381,0.809 -0.553,1.258 -0.369,0.052 -0.726,0.172 -1.07,0.361 -0.33,0.201 -0.61,0.438 -0.839,0.712 -0.464,-0.055 -0.911,-0.091 -1.341,-0.107 -1.091,-0.052 -1.679,0.079 -1.763,0.393 -0.09,0.336 0.35,0.754 1.322,1.255 0.383,0.193 0.802,0.378 1.257,0.553 0.04,0.348 0.155,0.68 0.346,0.994 0.201,0.347 0.438,0.627 0.712,0.839 -0.056,0.488 -0.091,0.935 -0.107,1.341 -0.064,1.136 0.072,1.749 0.408,1.839 0.314,0.084 0.727,-0.382 1.24,-1.397 0.202,-0.365 0.398,-0.782 0.586,-1.249 0.328,-0.047 0.648,-0.166 0.96,-0.355 0.33,-0.172 0.607,-0.398 0.831,-0.678 0.49,0.083 0.945,0.133 1.365,0.149 1.136,0.064 1.749,-0.072 1.839,-0.408 0.085,-0.314 -0.381,-0.727 -1.397,-1.24 -0.369,-0.204 -0.785,-0.4 -1.249,-0.586 -0.052,-0.354 -0.176,-0.699 -0.37,-1.037 -0.18,-0.31 -0.398,-0.572 -0.654,-0.788 0.067,-0.491 0.108,-0.96 0.125,-1.407 0.052,-1.092 -0.079,-1.679 -0.393,-1.763 -0.336,-0.091 -0.755,0.35 -1.255,1.321z"/>
     </g>
    </g>
   </g>
   <g>
    <g>
     <g>
      <path class="fil3" d="M179.071 184.297c-0.313,0.251 -0.552,0.553 -0.717,0.905 -0.165,0.352 -0.247,0.708 -0.245,1.068 -0.471,0.197 -0.872,0.406 -1.203,0.63 -0.932,0.586 -1.355,1.032 -1.271,1.337 0.131,0.313 0.737,0.408 1.818,0.283 0.397,-0.067 0.846,-0.147 1.345,-0.242 0.213,0.258 0.482,0.479 0.806,0.662 0.353,0.165 0.732,0.252 1.139,0.259 0.178,0.443 0.378,0.831 0.601,1.162 0.596,1.005 1.051,1.443 1.365,1.312 0.332,-0.103 0.418,-0.723 0.255,-1.86 -0.066,-0.397 -0.137,-0.831 -0.213,-1.302 0.22,-0.27 0.408,-0.557 0.565,-0.863 0.164,-0.351 0.279,-0.689 0.342,-1.013 0.433,-0.252 0.848,-0.471 1.245,-0.657 0.959,-0.606 1.373,-1.065 1.242,-1.379 -0.085,-0.305 -0.681,-0.385 -1.79,-0.242 -0.462,0.03 -0.943,0.092 -1.441,0.187 -0.214,-0.258 -0.497,-0.469 -0.849,-0.634 -0.324,-0.184 -0.644,-0.27 -0.958,-0.26 -0.242,-0.479 -0.471,-0.908 -0.685,-1.286 -0.587,-0.932 -1.046,-1.346 -1.378,-1.242 -0.314,0.13 -0.395,0.727 -0.242,1.79 0.039,0.415 0.128,0.877 0.269,1.385z"/>
     </g>
    </g>
   </g>
   <g>
    <g>
     <g>
      <path class="fil2" d="M191.25 198.45c0.033,-0.1 0.033,-0.2 0,-0.3l-1.7 -3.7c0,-0.033 -0.017,-0.067 -0.05,-0.1l-2.7 -3.1c-0.033,-0.067 -0.117,-0.1 -0.25,-0.1 -0.1,-0.033 -0.2,-0.017 -0.3,0.05l-0.65 0.45c-0.067,0.033 -0.117,0.1 -0.15,0.2 0,0.1 0.017,0.2 0.05,0.3l1.8 3.85c0.033,0.033 0.05,0.067 0.05,0.1l2.6 2.95c0.066,0.067 0.166,0.1 0.3,0.1 0.1,0.033 0.2,0.017 0.3,-0.05l0.55 -0.4c0.066,-0.067 0.116,-0.15 0.15,-0.25z"/>
     </g>
    </g>
   </g>
  </g>
  <g id="body_FL_FL_FL_FL_FL_FL_FL_FL_FL">
   <g>
    <g>
     <g>
      <polygon class="fil4" points="352.008,192.151 355.053,178.426 346.949,179.947 "/>
      <g>
       <path class="fil1" d="M356.558 171.616l-1.505 6.81 -3.045 13.725 5.73 -9.005 1.827 -2.923 1.951 -3.041 -4.958 -5.566 0 0zm-9.609 8.331l-2.752 -6.626 -3.935 6.792 11.746 12.038 -5.059 -12.204 0 0zm-12.358 21.813l0.339 4.086 34.682 -4.783 -0.339 -4.086 -34.682 4.783z"/>
      </g>
      <polygon class="fil5" points="355.053,178.426 356.558,171.616 344.197,173.321 346.949,179.947 "/>
      <polygon class="fil0" points="357.738,183.146 352.008,192.151 340.262,180.113 344.197,173.321 332.369,174.952 334.591,201.76 369.273,196.977 367.051,170.169 356.558,171.616 361.516,177.182 359.565,180.223 364.411,179.555 364.63,182.196 "/>
      <polygon class="fil2" points="364.411,179.555 359.565,180.223 357.738,183.146 364.63,182.196 "/>
     </g>
    </g>
   </g>
   <g>
    <g>
     <g>
      <path class="fil3" d="M361.048 190.207c-0.143,0.413 -0.272,0.853 -0.388,1.321 -0.324,0.097 -0.631,0.261 -0.922,0.492 -0.277,0.24 -0.506,0.51 -0.687,0.812 -0.417,0.002 -0.818,0.021 -1.202,0.058 -0.974,0.082 -1.486,0.285 -1.535,0.608 -0.052,0.346 0.374,0.709 1.279,1.088 0.357,0.146 0.745,0.278 1.164,0.397 0.064,0.342 0.194,0.658 0.39,0.948 0.207,0.321 0.441,0.571 0.702,0.749 -0.009,0.493 -0.004,0.943 0.016,1.35 0.037,1.14 0.208,1.734 0.515,1.782 0.286,0.046 0.615,-0.469 0.987,-1.545 0.15,-0.388 0.289,-0.827 0.418,-1.316 0.288,-0.087 0.563,-0.245 0.825,-0.471 0.279,-0.212 0.507,-0.472 0.682,-0.778 0.443,0.023 0.852,0.017 1.227,-0.019 1.015,-0.075 1.549,-0.286 1.602,-0.632 0.048,-0.323 -0.4,-0.678 -1.346,-1.064 -0.345,-0.159 -0.731,-0.302 -1.158,-0.431 -0.076,-0.346 -0.215,-0.675 -0.416,-0.988 -0.185,-0.287 -0.4,-0.522 -0.646,-0.705 0.018,-0.497 0.017,-0.97 -0.005,-1.418 -0.044,-1.094 -0.209,-1.663 -0.495,-1.709 -0.307,-0.048 -0.642,0.442 -1.007,1.471z"/>
     </g>
    </g>
   </g>
   <g>
    <g>
     <g>
      <path class="fil3" d="M338.74 184.302c-0.258,0.288 -0.446,0.618 -0.563,0.989 -0.118,0.371 -0.161,0.736 -0.13,1.095 -0.402,0.253 -0.742,0.511 -1.018,0.775 -0.78,0.699 -1.12,1.195 -1.019,1.488 0.142,0.297 0.689,0.316 1.64,0.059 0.347,-0.115 0.739,-0.25 1.175,-0.405 0.211,0.231 0.469,0.417 0.773,0.561 0.326,0.121 0.671,0.16 1.033,0.117 0.195,0.42 0.405,0.782 0.631,1.085 0.613,0.929 1.054,1.308 1.322,1.14 0.287,-0.144 0.312,-0.772 0.074,-1.885 -0.092,-0.388 -0.192,-0.811 -0.298,-1.272 0.174,-0.295 0.318,-0.604 0.431,-0.928 0.118,-0.371 0.191,-0.722 0.221,-1.052 0.364,-0.304 0.715,-0.573 1.053,-0.808 0.803,-0.721 1.132,-1.23 0.99,-1.526 -0.1,-0.293 -0.637,-0.3 -1.611,-0.021 -0.409,0.086 -0.831,0.207 -1.267,0.362 -0.211,-0.231 -0.48,-0.407 -0.807,-0.528 -0.304,-0.143 -0.595,-0.19 -0.873,-0.141 -0.256,-0.448 -0.494,-0.847 -0.716,-1.198 -0.598,-0.856 -1.041,-1.212 -1.328,-1.069 -0.268,0.169 -0.291,0.774 -0.067,1.814 0.068,0.41 0.187,0.859 0.354,1.348z"/>
     </g>
    </g>
   </g>
   <g>
    <g>
     <g>
      <path class="fil2" d="M350.739 196.912c0.022,-0.103 0.013,-0.203 -0.025,-0.299l-1.817 -3.479c-0.003,-0.033 -0.021,-0.064 -0.053,-0.093l-2.657 -2.758c-0.035,-0.063 -0.112,-0.086 -0.231,-0.069 -0.091,-0.021 -0.179,0.008 -0.262,0.086l-0.541 0.529c-0.057,0.041 -0.096,0.113 -0.117,0.217 0.008,0.1 0.031,0.198 0.069,0.293l1.919 3.616c0.032,0.029 0.05,0.061 0.053,0.094l2.555 2.62c0.065,0.059 0.157,0.08 0.276,0.064 0.091,0.02 0.179,-0.008 0.262,-0.087l0.456 -0.466c0.054,-0.075 0.091,-0.164 0.113,-0.268z"/>
     </g>
    </g>
   </g>
  </g>
  <g id="body_FL_FL_FL_FL_FL_FL_FL_FL_FL_FL">
   <g>
    <g>
     <g>
      <polygon class="fil4" points="432.467,192.685 438.035,180.403 429.636,179.125 "/>
      <g>
       <path class="fil1" d="M440.791 174.308l-2.756 6.095 -5.568 12.282 7.393 -6.789 2.366 -2.216 2.513 -2.287 -3.948 -7.085 0 0zm-11.155 4.817l-1.542 -7.363 -5.188 5.252 9.561 15.671 -2.831 -13.56 0 0zm-16.383 16.965l-0.41 4.079 35.627 7.145 0.41 -4.08 -35.627 -7.144z"/>
      </g>
      <polygon class="fil5" points="438.035,180.403 440.791,174.308 428.094,171.762 429.636,179.125 "/>
      <polygon class="fil0" points="439.86,185.896 432.467,192.685 422.906,177.014 428.094,171.762 415.944,169.325 413.253,196.09 448.88,203.234 451.571,176.47 440.791,174.308 444.739,181.393 442.226,183.68 447.204,184.678 446.939,187.315 "/>
      <polygon class="fil2" points="447.204,184.678 442.226,183.68 439.86,185.896 446.939,187.315 "/>
     </g>
    </g>
   </g>
   <g>
    <g>
     <g>
      <path class="fil3" d="M441.881 193.871c-0.219,0.352 -0.429,0.735 -0.631,1.149 -0.342,-0.015 -0.68,0.039 -1.014,0.165 -0.322,0.138 -0.601,0.323 -0.838,0.554 -0.418,-0.14 -0.822,-0.257 -1.214,-0.352 -0.992,-0.251 -1.542,-0.229 -1.65,0.068 -0.116,0.318 0.245,0.815 1.082,1.491 0.331,0.262 0.695,0.522 1.093,0.78 0.002,0.354 0.074,0.705 0.217,1.052 0.148,0.383 0.337,0.704 0.567,0.966 -0.1,0.475 -0.177,0.913 -0.232,1.315 -0.172,1.118 -0.109,1.753 0.189,1.904 0.278,0.141 0.702,-0.246 1.272,-1.163 0.221,-0.326 0.442,-0.704 0.66,-1.135 0.305,0.013 0.609,-0.047 0.913,-0.177 0.319,-0.111 0.594,-0.285 0.827,-0.524 0.439,0.174 0.85,0.307 1.232,0.4 1.031,0.271 1.605,0.248 1.721,-0.07 0.108,-0.296 -0.276,-0.793 -1.153,-1.489 -0.316,-0.271 -0.677,-0.542 -1.082,-0.812 -0.012,-0.362 -0.09,-0.728 -0.235,-1.099 -0.133,-0.342 -0.305,-0.643 -0.518,-0.904 0.11,-0.477 0.195,-0.936 0.255,-1.378 0.157,-1.076 0.096,-1.685 -0.182,-1.826 -0.299,-0.151 -0.725,0.21 -1.279,1.085z"/>
     </g>
    </g>
   </g>
   <g>
    <g>
     <g>
      <path class="fil3" d="M420.612 180.561c-0.311,0.192 -0.56,0.448 -0.745,0.768 -0.186,0.321 -0.296,0.66 -0.331,1.019 -0.45,0.109 -0.837,0.244 -1.163,0.406 -0.909,0.413 -1.34,0.779 -1.293,1.097 0.088,0.336 0.632,0.541 1.632,0.615 0.369,0.007 0.787,0.008 1.252,0.006 0.169,0.296 0.393,0.564 0.671,0.806 0.305,0.229 0.643,0.384 1.014,0.466 0.118,0.474 0.262,0.896 0.433,1.267 0.444,1.109 0.816,1.627 1.116,1.555 0.314,-0.042 0.453,-0.643 0.419,-1.803 -0.021,-0.408 -0.043,-0.853 -0.065,-1.336 0.228,-0.227 0.429,-0.479 0.602,-0.754 0.186,-0.32 0.324,-0.636 0.414,-0.946 0.421,-0.171 0.822,-0.313 1.203,-0.426 0.937,-0.426 1.361,-0.808 1.273,-1.144 -0.047,-0.318 -0.584,-0.508 -1.611,-0.568 -0.425,-0.055 -0.87,-0.082 -1.336,-0.079 -0.169,-0.295 -0.406,-0.558 -0.711,-0.786 -0.278,-0.242 -0.561,-0.387 -0.849,-0.434 -0.174,-0.521 -0.34,-0.99 -0.498,-1.406 -0.442,-1.034 -0.82,-1.529 -1.134,-1.488 -0.3,0.073 -0.434,0.652 -0.4,1.737 -0.006,0.421 0.029,0.897 0.107,1.428z"/>
     </g>
    </g>
   </g>
   <g>
    <g>
     <g>
      <path class="fil2" d="M430.322 196.874c0.04,-0.094 0.05,-0.193 0.03,-0.299l-1.183 -3.993c0.003,-0.033 -0.008,-0.069 -0.036,-0.109l-2.156 -3.578c-0.024,-0.073 -0.097,-0.121 -0.218,-0.146 -0.088,-0.051 -0.181,-0.053 -0.28,-0.005l-0.638 0.329c-0.065,0.021 -0.117,0.078 -0.157,0.171 -0.01,0.1 -0.005,0.202 0.015,0.308l1.26 4.16c0.027,0.04 0.038,0.076 0.035,0.109l2.08 3.411c0.054,0.079 0.142,0.13 0.265,0.155 0.088,0.051 0.181,0.053 0.278,0.005l0.543 -0.297c0.067,-0.054 0.122,-0.128 0.162,-0.221z"/>
     </g>
    </g>
   </g>
  </g>
  <g id="body_FL_FL_FL_FL_FL_FL_FL_FL_FL_FL_FL">
   <g>
    <g>
     <g>
      <polygon class="fil4" points="516.784,190.882 519.483,176.926 511.296,178.977 "/>
      <g>
       <path class="fil1" d="M520.815 170.002l-1.332 6.924 -2.699 13.956 5.561 -9.399 1.771 -3.049 1.895 -3.175 -5.196 -5.257 0 0zm-9.519 8.975l-2.986 -6.463 -3.801 7.064 12.275 11.304 -5.488 -11.905 0 0zm-11.926 22.669l0.462 4.074 35.086 -7.047 -0.461 -4.074 -35.087 7.047z"/>
      </g>
      <polygon class="fil5" points="519.483,176.926 520.815,170.002 508.31,172.514 511.296,178.977 "/>
      <polygon class="fil0" points="522.345,181.483 516.784,190.882 504.509,179.578 508.31,172.514 496.344,174.917 499.37,201.646 534.457,194.599 531.431,167.87 520.815,170.002 526.011,175.259 524.116,178.434 529.019,177.449 529.317,180.083 "/>
      <polygon class="fil2" points="529.019,177.449 524.116,178.434 522.345,181.483 529.317,180.083 "/>
     </g>
    </g>
   </g>
   <g>
    <g>
     <g>
      <path class="fil3" d="M525.909 188.346c-0.133,0.423 -0.252,0.873 -0.356,1.349 -0.326,0.119 -0.633,0.303 -0.922,0.553 -0.274,0.259 -0.5,0.545 -0.675,0.86 -0.423,0.028 -0.829,0.074 -1.218,0.136 -0.988,0.145 -1.502,0.381 -1.542,0.708 -0.043,0.351 0.4,0.687 1.33,1.009 0.367,0.122 0.765,0.23 1.193,0.322 0.075,0.339 0.217,0.647 0.424,0.925 0.219,0.308 0.464,0.543 0.735,0.705 0.004,0.495 0.023,0.945 0.054,1.352 0.07,1.14 0.262,1.725 0.574,1.753 0.292,0.027 0.611,-0.51 0.958,-1.612 0.141,-0.399 0.27,-0.848 0.388,-1.347 0.289,-0.106 0.564,-0.282 0.824,-0.526 0.277,-0.231 0.501,-0.505 0.67,-0.824 0.451,-0.006 0.866,-0.039 1.245,-0.098 1.03,-0.142 1.566,-0.388 1.609,-0.738 0.04,-0.327 -0.425,-0.654 -1.397,-0.979 -0.355,-0.137 -0.751,-0.256 -1.189,-0.358 -0.087,-0.342 -0.237,-0.662 -0.45,-0.963 -0.196,-0.275 -0.422,-0.497 -0.677,-0.664 0.005,-0.5 -0.01,-0.974 -0.046,-1.422 -0.076,-1.093 -0.259,-1.654 -0.551,-1.681 -0.313,-0.028 -0.64,0.485 -0.981,1.54z"/>
     </g>
    </g>
   </g>
   <g>
    <g>
     <g>
      <path class="fil3" d="M503.083 183.875c-0.254,0.306 -0.435,0.649 -0.544,1.029 -0.108,0.379 -0.142,0.748 -0.1,1.106 -0.401,0.28 -0.738,0.561 -1.012,0.843 -0.772,0.751 -1.102,1.27 -0.992,1.557 0.153,0.289 0.709,0.273 1.667,-0.046 0.35,-0.138 0.744,-0.299 1.182,-0.483 0.222,0.217 0.489,0.388 0.801,0.512 0.335,0.1 0.687,0.117 1.053,0.051 0.21,0.408 0.434,0.757 0.672,1.046 0.649,0.891 1.108,1.243 1.376,1.057 0.287,-0.163 0.294,-0.794 0.02,-1.894 -0.104,-0.383 -0.217,-0.802 -0.339,-1.256 0.168,-0.307 0.306,-0.627 0.412,-0.959 0.108,-0.379 0.173,-0.736 0.193,-1.069 0.362,-0.328 0.711,-0.621 1.047,-0.878 0.794,-0.774 1.115,-1.306 0.962,-1.594 -0.111,-0.287 -0.656,-0.26 -1.637,0.083 -0.413,0.113 -0.838,0.262 -1.276,0.446 -0.222,-0.218 -0.5,-0.376 -0.835,-0.477 -0.313,-0.123 -0.61,-0.152 -0.891,-0.084 -0.272,-0.433 -0.526,-0.818 -0.761,-1.155 -0.633,-0.819 -1.093,-1.148 -1.38,-0.985 -0.268,0.186 -0.273,0.794 -0.017,1.822 0.082,0.407 0.215,0.849 0.399,1.328z"/>
     </g>
    </g>
   </g>
   <g>
    <g>
     <g>
      <path class="fil2" d="M515.632 195.737c0.018,-0.105 0.007,-0.204 -0.034,-0.298l-1.946 -3.369c-0.003,-0.033 -0.022,-0.063 -0.056,-0.09l-2.778 -2.593c-0.037,-0.06 -0.116,-0.078 -0.236,-0.054 -0.094,-0.015 -0.182,0.02 -0.264,0.104l-0.534 0.565c-0.057,0.045 -0.094,0.12 -0.113,0.226 0.011,0.099 0.038,0.195 0.079,0.288l2.052 3.501c0.034,0.027 0.053,0.057 0.057,0.09l2.671 2.462c0.067,0.054 0.161,0.069 0.281,0.044 0.093,0.016 0.182,-0.019 0.264,-0.103l0.45 -0.497c0.052,-0.078 0.088,-0.17 0.107,-0.276z"/>
     </g>
    </g>
   </g>
  </g>
  <g id="body_FL_FL_FL_FL_FL_FL_FL_FL_FL_FL_FL_FL">
   <g>
    <g>
     <g>
      <polygon class="fil4" points="602.65,83.9 607.3,70.7 598.15,71.1 "/>
      <g>
       <path class="fil1" d="M609.6 64.15l-2.3 6.55 -4.65 13.2 7.2 -8.15 2.3 -2.65 2.45 -2.75 -5 -6.2 0 0zm-11.45 6.95l-2.45 -6.95 -5 6.2 11.95 13.55 -4.5 -12.8 0 0zm-15.75 19.95l0 4.1 39 0 0 -4.1 -39 0z"/>
      </g>
      <polygon class="fil5" points="607.3,70.7 609.6,64.15 595.7,64.15 598.15,71.1 "/>
      <polygon class="fil0" points="609.85,75.75 602.65,83.9 590.7,70.35 595.7,64.15 582.4,64.15 582.4,91.05 621.4,91.05 621.4,64.15 609.6,64.15 614.6,70.35 612.15,73.1 617.6,73.1 617.6,75.75 "/>
      <polygon class="fil2" points="617.6,73.1 612.15,73.1 609.85,75.75 617.6,75.75 "/>
     </g>
    </g>
   </g>
   <g>
    <g>
     <g>
      <path class="fil3" d="M612.879 83.208c-0.196,0.39 -0.381,0.809 -0.553,1.257 -0.368,0.053 -0.725,0.173 -1.07,0.362 -0.33,0.2 -0.61,0.438 -0.839,0.712 -0.463,-0.055 -0.91,-0.091 -1.341,-0.106 -1.091,-0.053 -1.678,0.078 -1.763,0.392 -0.09,0.336 0.351,0.755 1.322,1.255 0.383,0.194 0.802,0.378 1.257,0.553 0.04,0.348 0.156,0.68 0.347,0.994 0.2,0.347 0.437,0.627 0.712,0.839 -0.056,0.488 -0.092,0.935 -0.107,1.341 -0.065,1.136 0.072,1.749 0.408,1.839 0.314,0.084 0.727,-0.382 1.239,-1.398 0.202,-0.364 0.398,-0.78 0.587,-1.248 0.328,-0.048 0.648,-0.166 0.96,-0.355 0.33,-0.172 0.607,-0.398 0.831,-0.679 0.49,0.084 0.945,0.134 1.365,0.15 1.136,0.064 1.749,-0.072 1.839,-0.408 0.084,-0.314 -0.382,-0.727 -1.398,-1.239 -0.369,-0.205 -0.785,-0.401 -1.248,-0.587 -0.053,-0.354 -0.176,-0.699 -0.371,-1.037 -0.179,-0.31 -0.397,-0.572 -0.654,-0.787 0.067,-0.492 0.109,-0.961 0.125,-1.409 0.052,-1.091 -0.079,-1.678 -0.392,-1.762 -0.337,-0.09 -0.755,0.35 -1.256,1.321z"/>
     </g>
    </g>
   </g>
   <g>
    <g>
     <g>
      <path class="fil3" d="M588.622 74.297c-0.314,0.251 -0.553,0.552 -0.717,0.905 -0.165,0.352 -0.247,0.708 -0.245,1.069 -0.471,0.196 -0.872,0.405 -1.204,0.629 -0.931,0.586 -1.355,1.032 -1.27,1.337 0.131,0.313 0.737,0.408 1.818,0.283 0.397,-0.067 0.845,-0.147 1.344,-0.242 0.213,0.258 0.483,0.479 0.807,0.662 0.352,0.165 0.732,0.251 1.138,0.259 0.178,0.443 0.378,0.83 0.602,1.162 0.596,1.005 1.051,1.442 1.364,1.312 0.333,-0.104 0.418,-0.723 0.256,-1.86 -0.067,-0.397 -0.138,-0.831 -0.214,-1.302 0.221,-0.269 0.409,-0.557 0.565,-0.863 0.165,-0.352 0.279,-0.69 0.342,-1.013 0.434,-0.252 0.849,-0.471 1.245,-0.658 0.959,-0.605 1.373,-1.064 1.242,-1.378 -0.084,-0.305 -0.681,-0.385 -1.79,-0.242 -0.462,0.03 -0.942,0.092 -1.441,0.187 -0.214,-0.258 -0.497,-0.47 -0.849,-0.635 -0.324,-0.183 -0.643,-0.269 -0.958,-0.259 -0.242,-0.479 -0.47,-0.908 -0.685,-1.286 -0.586,-0.932 -1.046,-1.346 -1.378,-1.243 -0.314,0.131 -0.395,0.728 -0.242,1.79 0.039,0.416 0.129,0.878 0.27,1.386z"/>
     </g>
    </g>
   </g>
   <g>
    <g>
     <g>
      <path class="fil2" d="M600.8 88.45c0.034,-0.1 0.034,-0.2 0,-0.3l-1.7 -3.7c0,-0.033 -0.016,-0.067 -0.05,-0.1l-2.7 -3.1c-0.033,-0.067 -0.116,-0.1 -0.25,-0.1 -0.1,-0.033 -0.2,-0.017 -0.3,0.05l-0.65 0.45c-0.067,0.033 -0.116,0.1 -0.15,0.2 0,0.1 0.017,0.2 0.05,0.3l1.8 3.85c0.034,0.033 0.05,0.067 0.05,0.1l2.6 2.95c0.067,0.066 0.167,0.1 0.3,0.1 0.1,0.033 0.2,0.017 0.3,-0.05l0.55 -0.4c0.067,-0.067 0.117,-0.15 0.15,-0.25z"/>
     </g>
    </g>
   </g>
  </g>
  <g id="body_FL_FL_FL_FL_FL_FL_FL_FL_FL_FL_FL_FL_FL">
   <g>
    <g>
     <g>
      <polygon class="fil4" points="601.77,187.9 605.937,174.7 597.738,175.1 "/>
      <g>
       <path class="fil1" d="M607.998 168.15l-2.061 6.55 -4.167 13.2 6.452 -8.15 2.061 -2.65 2.196 -2.75 -4.481 -6.2 0 0zm-10.26 6.95l-2.196 -6.95 -4.48 6.2 10.708 13.55 -4.032 -12.8 0 0zm-14.114 19.95l0 4.1 34.948 0 0 -4.1 -34.948 0z"/>
      </g>
      <polygon class="fil5" points="605.937,174.7 607.998,168.15 595.542,168.15 597.738,175.1 "/>
      <polygon class="fil0" points="608.222,179.75 601.77,187.9 591.062,174.35 595.542,168.15 583.624,168.15 583.624,195.05 618.572,195.05 618.572,168.15 607.998,168.15 612.479,174.35 610.283,177.1 615.167,177.1 615.167,179.75 "/>
      <polygon class="fil2" points="615.167,177.1 610.283,177.1 608.222,179.75 615.167,179.75 "/>
     </g>
    </g>
   </g>
   <g>
    <g>
     <g>
      <path class="fil3" d="M610.937 187.208c-0.176,0.391 -0.342,0.809 -0.496,1.258 -0.331,0.052 -0.65,0.172 -0.959,0.361 -0.295,0.201 -0.546,0.438 -0.752,0.712 -0.415,-0.055 -0.815,-0.091 -1.201,-0.107 -0.978,-0.052 -1.505,0.079 -1.58,0.393 -0.081,0.336 0.314,0.754 1.184,1.255 0.344,0.193 0.719,0.378 1.127,0.553 0.036,0.348 0.139,0.68 0.31,0.994 0.18,0.347 0.392,0.626 0.638,0.839 -0.05,0.488 -0.082,0.935 -0.096,1.341 -0.057,1.136 0.065,1.749 0.366,1.839 0.281,0.084 0.652,-0.382 1.111,-1.397 0.181,-0.365 0.356,-0.782 0.526,-1.249 0.293,-0.047 0.58,-0.166 0.86,-0.355 0.296,-0.172 0.544,-0.398 0.744,-0.678 0.44,0.083 0.848,0.133 1.224,0.149 1.017,0.064 1.567,-0.072 1.648,-0.408 0.075,-0.314 -0.343,-0.727 -1.253,-1.24 -0.33,-0.204 -0.703,-0.4 -1.118,-0.586 -0.047,-0.354 -0.158,-0.699 -0.333,-1.037 -0.16,-0.31 -0.356,-0.572 -0.586,-0.788 0.06,-0.491 0.098,-0.96 0.112,-1.407 0.047,-1.092 -0.07,-1.679 -0.352,-1.763 -0.301,-0.091 -0.676,0.35 -1.124,1.321z"/>
     </g>
    </g>
   </g>
   <g>
    <g>
     <g>
      <path class="fil3" d="M589.199 178.297c-0.28,0.251 -0.495,0.553 -0.642,0.905 -0.148,0.352 -0.221,0.708 -0.22,1.068 -0.422,0.197 -0.781,0.406 -1.079,0.63 -0.834,0.586 -1.213,1.032 -1.138,1.337 0.117,0.313 0.661,0.408 1.629,0.283 0.356,-0.067 0.758,-0.147 1.205,-0.242 0.191,0.258 0.433,0.479 0.723,0.662 0.316,0.165 0.656,0.252 1.02,0.259 0.159,0.443 0.339,0.831 0.539,1.162 0.534,1.005 0.942,1.443 1.223,1.312 0.298,-0.103 0.374,-0.723 0.229,-1.86 -0.06,-0.397 -0.124,-0.831 -0.192,-1.302 0.198,-0.27 0.367,-0.557 0.506,-0.863 0.148,-0.351 0.251,-0.689 0.307,-1.013 0.389,-0.252 0.761,-0.471 1.116,-0.657 0.86,-0.606 1.23,-1.065 1.113,-1.379 -0.075,-0.305 -0.61,-0.385 -1.604,-0.242 -0.414,0.03 -0.845,0.092 -1.291,0.187 -0.192,-0.258 -0.446,-0.469 -0.761,-0.634 -0.291,-0.184 -0.577,-0.27 -0.859,-0.26 -0.217,-0.479 -0.421,-0.908 -0.613,-1.286 -0.526,-0.932 -0.938,-1.346 -1.235,-1.242 -0.282,0.13 -0.354,0.727 -0.217,1.79 0.035,0.415 0.115,0.877 0.241,1.385z"/>
     </g>
    </g>
   </g>
   <g>
    <g>
     <g>
      <path class="fil2" d="M600.113 192.45c0.029,-0.1 0.029,-0.2 0,-0.3l-1.524 -3.7c0,-0.033 -0.015,-0.067 -0.045,-0.1l-2.419 -3.1c-0.03,-0.067 -0.105,-0.1 -0.224,-0.1 -0.09,-0.033 -0.179,-0.017 -0.269,0.05l-0.583 0.45c-0.059,0.033 -0.104,0.1 -0.134,0.2 0,0.1 0.015,0.2 0.045,0.3l1.613 3.85c0.03,0.033 0.045,0.067 0.045,0.1l2.33 2.95c0.059,0.067 0.149,0.1 0.268,0.1 0.09,0.033 0.18,0.017 0.269,-0.05l0.493 -0.4c0.06,-0.067 0.105,-0.15 0.135,-0.25z"/>
     </g>
    </g>
   </g>
  </g>
  <g id="body_FL_FL_FL_FL_FL_FL_FL_FL_FL_FL_FL_FL_FL_FL">
   <g>
    <g>
     <g>
      <polygon class="fil4" points="126.928,299.456 116.509,291.383 112.77,297.525 "/>
      <g>
       <path class="fil1" d="M111.336 287.382l5.173 4.001 10.419 8.073 -4.485 -7.818 -1.476 -2.515 -1.504 -2.652 -8.127 0.911 0 0zm1.434 10.143l-7.69 -1.045 3.626 5.635 18.222 -2.659 -14.158 -1.931 0 0zm11.821 17.909l3.886 1.562 17.553 -25.527 -3.886 -1.562 -17.553 25.527z"/>
      </g>
      <polygon class="fil5" points="116.509,291.383 111.336,287.382 105.08,296.48 112.77,297.525 "/>
      <polygon class="fil0" points="122.443,291.638 126.928,299.456 108.706,302.115 105.08,296.48 99.094,305.186 124.591,315.434 142.144,289.907 116.647,279.658 111.336,287.382 119.463,286.471 120.967,289.123 123.419,285.556 125.931,286.565 "/>
      <polygon class="fil2" points="123.419,285.556 120.967,289.123 122.443,291.638 125.931,286.565 "/>
     </g>
    </g>
   </g>
   <g>
    <g>
     <g>
      <path class="fil3" d="M130.876 292.497c0.281,0.277 0.595,0.558 0.942,0.841 -0.116,0.261 -0.162,0.54 -0.138,0.838 0.041,0.292 0.14,0.566 0.297,0.821 -0.261,0.282 -0.496,0.561 -0.705,0.836 -0.54,0.695 -0.68,1.129 -0.421,1.304 0.278,0.187 0.873,0.058 1.784,-0.387 0.356,-0.177 0.719,-0.381 1.09,-0.612 0.349,0.107 0.714,0.157 1.098,0.152 0.419,0.001 0.791,-0.048 1.116,-0.146 0.437,0.222 0.845,0.415 1.223,0.58 1.048,0.475 1.69,0.62 1.927,0.434 0.221,-0.173 -0.035,-0.621 -0.767,-1.344 -0.255,-0.271 -0.561,-0.558 -0.919,-0.859 0.102,-0.233 0.134,-0.488 0.095,-0.764 -0.014,-0.282 -0.104,-0.549 -0.269,-0.802 0.3,-0.289 0.552,-0.568 0.756,-0.837 0.572,-0.719 0.719,-1.172 0.441,-1.359 -0.26,-0.175 -0.861,-0.027 -1.804,0.442 -0.36,0.164 -0.733,0.362 -1.118,0.594 -0.359,-0.1 -0.741,-0.151 -1.149,-0.152 -0.375,-0.001 -0.722,0.041 -1.041,0.128 -0.436,-0.231 -0.862,-0.438 -1.278,-0.619 -1.011,-0.449 -1.627,-0.588 -1.848,-0.414 -0.237,0.186 -0.007,0.627 0.688,1.325z"/>
     </g>
    </g>
   </g>
   <g>
    <g>
     <g>
      <path class="fil3" d="M111.512 304.979c0.096,0.301 0.275,0.572 0.534,0.815 0.26,0.241 0.561,0.431 0.903,0.567 -0.026,0.383 -0.008,0.726 0.055,1.028 0.137,0.833 0.368,1.28 0.695,1.34 0.357,0.034 0.719,-0.326 1.087,-1.082 0.116,-0.285 0.241,-0.609 0.376,-0.972 0.34,-0.041 0.671,-0.133 0.991,-0.276 0.314,-0.167 0.567,-0.383 0.757,-0.646 0.5,0.052 0.957,0.069 1.372,0.049 1.221,-0.007 1.841,-0.138 1.858,-0.394 0.051,-0.257 -0.497,-0.548 -1.648,-0.875 -0.406,-0.108 -0.85,-0.227 -1.331,-0.357 -0.155,-0.246 -0.343,-0.479 -0.562,-0.698 -0.26,-0.242 -0.529,-0.445 -0.807,-0.61 -0.044,-0.38 -0.065,-0.735 -0.063,-1.066 -0.142,-0.858 -0.391,-1.304 -0.747,-1.338 -0.327,-0.06 -0.672,0.299 -1.035,1.08 -0.18,0.314 -0.337,0.652 -0.472,1.014 -0.341,0.042 -0.668,0.147 -0.983,0.314 -0.32,0.143 -0.546,0.319 -0.677,0.529 -0.564,-0.024 -1.073,-0.038 -1.528,-0.042 -1.147,0.029 -1.746,0.172 -1.798,0.429 -0.017,0.255 0.512,0.535 1.588,0.84 0.412,0.133 0.89,0.25 1.435,0.351z"/>
     </g>
    </g>
   </g>
   <g>
    <g>
     <g>
      <path class="fil2" d="M130.407 302.4c-0.079,-0.06 -0.174,-0.098 -0.284,-0.114l-4.272 -0.297c-0.032,-0.013 -0.07,-0.015 -0.117,-0.006l-4.154 0.587c-0.078,-0.004 -0.147,0.038 -0.207,0.125 -0.076,0.053 -0.106,0.125 -0.088,0.216l0.134 0.597c0.002,0.056 0.043,0.114 0.122,0.174 0.095,0.038 0.197,0.065 0.307,0.082l4.459 0.288c0.047,-0.009 0.086,-0.007 0.118,0.006l3.966 -0.578c0.094,-0.019 0.17,-0.071 0.23,-0.159 0.077,-0.053 0.106,-0.124 0.088,-0.215l-0.132 -0.513c-0.033,-0.069 -0.089,-0.133 -0.17,-0.193z"/>
     </g>
    </g>
   </g>
  </g>
  <g id="body_FL_FL_FL_FL_FL_FL_FL_FL_FL_FL_FL_FL_FL_FL_FL">
   <g>
    <g>
     <g>
      <polygon class="fil4" points="683.15,82.9 687.8,69.7 678.65,70.1 "/>
      <g>
       <path class="fil1" d="M690.101 63.15l-2.301 6.55 -4.65 13.2 7.2 -8.15 2.3 -2.65 2.45 -2.75 -4.999 -6.2 0 0zm-11.451 6.95l-2.45 -6.95 -5 6.2 11.95 13.55 -4.5 -12.8 0 0zm-15.75 19.95l0 4.1 39 0 0 -4.1 -39 0z"/>
      </g>
      <polygon class="fil5" points="687.8,69.7 690.101,63.15 676.2,63.15 678.65,70.1 "/>
      <polygon class="fil0" points="690.35,74.75 683.15,82.9 671.2,69.35 676.2,63.15 662.9,63.15 662.9,90.05 701.9,90.05 701.9,63.15 690.101,63.15 695.1,69.35 692.65,72.1 698.1,72.1 698.1,74.75 "/>
      <polygon class="fil2" points="698.1,72.1 692.65,72.1 690.35,74.75 698.1,74.75 "/>
     </g>
    </g>
   </g>
   <g>
    <g>
     <g>
      <path class="fil3" d="M693.38 82.208c-0.197,0.39 -0.382,0.809 -0.553,1.257 -0.369,0.052 -0.726,0.173 -1.07,0.362 -0.331,0.2 -0.61,0.438 -0.84,0.712 -0.463,-0.055 -0.91,-0.091 -1.341,-0.107 -1.091,-0.052 -1.679,0.079 -1.762,0.393 -0.09,0.336 0.35,0.755 1.321,1.255 0.383,0.193 0.803,0.378 1.257,0.553 0.04,0.348 0.156,0.679 0.346,0.994 0.201,0.347 0.438,0.627 0.713,0.839 -0.056,0.488 -0.092,0.935 -0.107,1.341 -0.065,1.136 0.071,1.749 0.408,1.839 0.313,0.084 0.727,-0.382 1.239,-1.398 0.203,-0.364 0.398,-0.78 0.587,-1.248 0.328,-0.048 0.648,-0.166 0.96,-0.355 0.33,-0.172 0.607,-0.398 0.83,-0.679 0.491,0.084 0.946,0.134 1.366,0.15 1.136,0.064 1.749,-0.072 1.839,-0.408 0.084,-0.314 -0.382,-0.727 -1.398,-1.239 -0.368,-0.205 -0.785,-0.401 -1.248,-0.587 -0.053,-0.354 -0.176,-0.699 -0.371,-1.037 -0.179,-0.31 -0.397,-0.572 -0.654,-0.787 0.067,-0.492 0.109,-0.961 0.125,-1.408 0.052,-1.091 -0.078,-1.679 -0.393,-1.763 -0.336,-0.09 -0.754,0.35 -1.254,1.321z"/>
     </g>
    </g>
   </g>
   <g>
    <g>
     <g>
      <path class="fil3" d="M669.122 73.297c-0.313,0.251 -0.552,0.552 -0.718,0.905 -0.164,0.352 -0.246,0.708 -0.244,1.069 -0.471,0.196 -0.872,0.405 -1.204,0.629 -0.931,0.586 -1.355,1.032 -1.27,1.337 0.131,0.313 0.736,0.408 1.818,0.283 0.397,-0.067 0.845,-0.147 1.344,-0.242 0.214,0.258 0.483,0.479 0.807,0.662 0.352,0.165 0.731,0.251 1.139,0.259 0.177,0.443 0.377,0.83 0.601,1.162 0.596,1.005 1.051,1.442 1.365,1.312 0.332,-0.104 0.417,-0.723 0.255,-1.86 -0.067,-0.397 -0.138,-0.831 -0.214,-1.302 0.221,-0.269 0.409,-0.557 0.565,-0.862 0.165,-0.353 0.279,-0.691 0.342,-1.015 0.434,-0.251 0.849,-0.47 1.246,-0.657 0.959,-0.605 1.372,-1.064 1.242,-1.378 -0.085,-0.305 -0.681,-0.385 -1.79,-0.242 -0.463,0.03 -0.943,0.092 -1.442,0.187 -0.213,-0.258 -0.497,-0.469 -0.848,-0.635 -0.325,-0.183 -0.644,-0.269 -0.959,-0.259 -0.242,-0.479 -0.47,-0.908 -0.685,-1.286 -0.586,-0.932 -1.046,-1.346 -1.378,-1.242 -0.314,0.13 -0.394,0.727 -0.242,1.79 0.039,0.415 0.129,0.877 0.27,1.385z"/>
     </g>
    </g>
   </g>
   <g>
    <g>
     <g>
      <path class="fil2" d="M681.3 87.45c0.034,-0.1 0.034,-0.2 0,-0.3l-1.7 -3.7c0,-0.033 -0.016,-0.067 -0.05,-0.1l-2.7 -3.1c-0.033,-0.067 -0.116,-0.1 -0.25,-0.1 -0.1,-0.033 -0.2,-0.017 -0.3,0.05l-0.65 0.45c-0.066,0.033 -0.116,0.1 -0.15,0.2 0,0.1 0.017,0.2 0.05,0.3l1.8 3.85c0.034,0.033 0.05,0.067 0.05,0.1l2.6 2.95c0.067,0.066 0.167,0.1 0.3,0.1 0.1,0.033 0.2,0.017 0.3,-0.05l0.55 -0.4c0.067,-0.067 0.117,-0.15 0.15,-0.25z"/>
     </g>
    </g>
   </g>
  </g>
  <g id="body_FL_FL_FL_FL_FL_FL_FL_FL_FL_FL_FL_FL_FL_FL_FL_FL">
   <g>
    <g>
     <g>
      <polygon class="fil4" points="682.721,187.9 686.888,174.7 678.688,175.1 "/>
      <g>
       <path class="fil1" d="M688.949 168.15l-2.061 6.55 -4.167 13.2 6.451 -8.15 2.062 -2.65 2.195 -2.75 -4.48 -6.2 0 0zm-10.261 6.95l-2.195 -6.95 -4.481 6.2 10.709 13.55 -4.033 -12.8 0 0zm-14.114 19.95l0 4.1 34.948 0 0 -4.1 -34.948 0z"/>
      </g>
      <polygon class="fil5" points="686.888,174.7 688.949,168.15 676.493,168.15 678.688,175.1 "/>
      <polygon class="fil0" points="689.172,179.75 682.721,187.9 672.012,174.35 676.493,168.15 664.574,168.15 664.574,195.05 699.522,195.05 699.522,168.15 688.949,168.15 693.429,174.35 691.234,177.1 696.117,177.1 696.117,179.75 "/>
      <polygon class="fil2" points="696.117,177.1 691.234,177.1 689.172,179.75 696.117,179.75 "/>
     </g>
    </g>
   </g>
   <g>
    <g>
     <g>
      <path class="fil3" d="M691.887 187.208c-0.176,0.391 -0.342,0.809 -0.496,1.258 -0.33,0.052 -0.65,0.172 -0.959,0.361 -0.295,0.201 -0.546,0.438 -0.752,0.712 -0.415,-0.055 -0.815,-0.091 -1.201,-0.107 -0.978,-0.052 -1.505,0.079 -1.58,0.393 -0.081,0.336 0.314,0.754 1.184,1.255 0.344,0.193 0.719,0.378 1.127,0.553 0.036,0.348 0.139,0.68 0.31,0.994 0.18,0.347 0.393,0.626 0.638,0.839 -0.05,0.488 -0.082,0.935 -0.096,1.341 -0.057,1.136 0.065,1.749 0.366,1.839 0.281,0.084 0.652,-0.382 1.111,-1.397 0.181,-0.365 0.356,-0.782 0.526,-1.249 0.293,-0.047 0.58,-0.166 0.86,-0.355 0.296,-0.172 0.544,-0.398 0.744,-0.678 0.44,0.083 0.848,0.133 1.224,0.149 1.018,0.064 1.567,-0.072 1.648,-0.408 0.075,-0.314 -0.343,-0.727 -1.253,-1.24 -0.33,-0.204 -0.703,-0.4 -1.118,-0.586 -0.047,-0.354 -0.158,-0.699 -0.333,-1.037 -0.16,-0.31 -0.355,-0.572 -0.586,-0.788 0.061,-0.491 0.098,-0.96 0.112,-1.407 0.047,-1.092 -0.07,-1.679 -0.352,-1.763 -0.301,-0.091 -0.676,0.35 -1.124,1.321z"/>
     </g>
    </g>
   </g>
   <g>
    <g>
     <g>
      <path class="fil3" d="M670.149 178.297c-0.28,0.251 -0.495,0.553 -0.642,0.905 -0.148,0.352 -0.221,0.708 -0.22,1.068 -0.421,0.197 -0.781,0.406 -1.078,0.63 -0.835,0.586 -1.214,1.032 -1.138,1.337 0.117,0.313 0.66,0.408 1.629,0.283 0.356,-0.067 0.757,-0.147 1.204,-0.242 0.191,0.258 0.433,0.479 0.723,0.662 0.316,0.165 0.656,0.252 1.02,0.259 0.159,0.443 0.339,0.831 0.539,1.162 0.534,1.005 0.942,1.443 1.223,1.312 0.298,-0.103 0.374,-0.723 0.229,-1.86 -0.059,-0.397 -0.123,-0.831 -0.192,-1.302 0.198,-0.27 0.367,-0.557 0.507,-0.863 0.148,-0.351 0.25,-0.689 0.306,-1.013 0.389,-0.252 0.761,-0.471 1.116,-0.657 0.86,-0.606 1.23,-1.065 1.113,-1.379 -0.075,-0.305 -0.61,-0.385 -1.604,-0.242 -0.414,0.03 -0.844,0.092 -1.291,0.187 -0.192,-0.258 -0.446,-0.469 -0.761,-0.634 -0.29,-0.184 -0.577,-0.27 -0.859,-0.26 -0.217,-0.479 -0.421,-0.908 -0.613,-1.286 -0.526,-0.932 -0.938,-1.346 -1.235,-1.242 -0.282,0.13 -0.354,0.727 -0.217,1.79 0.035,0.415 0.115,0.877 0.241,1.385z"/>
     </g>
    </g>
   </g>
   <g>
    <g>
     <g>
      <path class="fil2" d="M681.063 192.45c0.029,-0.1 0.029,-0.2 0,-0.3l-1.524 -3.7c0,-0.033 -0.015,-0.067 -0.045,-0.1l-2.419 -3.1c-0.03,-0.067 -0.105,-0.1 -0.224,-0.1 -0.09,-0.033 -0.179,-0.017 -0.269,0.05l-0.582 0.45c-0.06,0.033 -0.105,0.1 -0.135,0.2 0,0.1 0.015,0.2 0.045,0.3l1.613 3.85c0.03,0.033 0.045,0.067 0.045,0.1l2.33 2.95c0.059,0.067 0.149,0.1 0.268,0.1 0.09,0.033 0.18,0.017 0.269,-0.05l0.493 -0.4c0.06,-0.067 0.105,-0.15 0.135,-0.25z"/>
     </g>
    </g>
   </g>
  </g>
  <g id="body_FL_FL_FL_FL_FL_FL_FL_FL_FL_FL_FL_FL_FL_FL_FL_FL_FL">
   <g>
    <g>
     <g>
      <polygon class="fil4" points="272.153,193.9 278.037,180.7 269.552,181.1 "/>
      <g>
       <path class="fil1" d="M280.95 174.15l-2.913 6.55 -5.884 13.2 7.625 -8.15 2.442 -2.65 2.591 -2.75 -3.861 -6.2 0 0zm-11.398 6.95l-1.418 -6.95 -5.361 6.2 9.38 13.55 -2.601 -12.8 0 0zm-16.935 19.95l-0.496 4.1 35.961 0 0.496 -4.1 -35.961 0z"/>
      </g>
      <polygon class="fil5" points="278.037,180.7 280.95,174.15 268.134,174.15 269.552,181.1 "/>
      <polygon class="fil0" points="279.778,185.75 272.153,193.9 262.773,180.35 268.134,174.15 255.87,174.15 252.617,201.05 288.578,201.05 291.831,174.15 280.95,174.15 284.811,180.35 282.22,183.1 287.245,183.1 286.924,185.75 "/>
      <polygon class="fil2" points="287.245,183.1 282.22,183.1 279.778,185.75 286.924,185.75 "/>
     </g>
    </g>
   </g>
   <g>
    <g>
     <g>
      <path class="fil3" d="M281.67 193.208c-0.229,0.391 -0.45,0.809 -0.663,1.258 -0.346,0.052 -0.689,0.172 -1.03,0.361 -0.328,0.201 -0.615,0.438 -0.86,0.712 -0.421,-0.055 -0.829,-0.091 -1.224,-0.107 -0.999,-0.052 -1.557,0.079 -1.672,0.393 -0.124,0.336 0.231,0.754 1.066,1.255 0.331,0.193 0.695,0.378 1.093,0.553 -0.005,0.348 0.061,0.68 0.199,0.994 0.143,0.347 0.328,0.627 0.555,0.839 -0.11,0.488 -0.197,0.935 -0.261,1.341 -0.196,1.136 -0.145,1.749 0.154,1.839 0.279,0.084 0.717,-0.382 1.312,-1.397 0.231,-0.365 0.461,-0.782 0.692,-1.249 0.308,-0.047 0.617,-0.166 0.928,-0.355 0.325,-0.172 0.608,-0.398 0.848,-0.678 0.442,0.083 0.856,0.133 1.241,0.149 1.04,0.064 1.621,-0.072 1.745,-0.408 0.116,-0.314 -0.264,-0.727 -1.139,-1.24 -0.315,-0.204 -0.675,-0.4 -1.08,-0.586 -0.006,-0.354 -0.078,-0.699 -0.216,-1.037 -0.128,-0.31 -0.298,-0.572 -0.508,-0.788 0.121,-0.491 0.216,-0.96 0.285,-1.407 0.18,-1.092 0.131,-1.679 -0.149,-1.763 -0.299,-0.091 -0.738,0.35 -1.316,1.321z"/>
     </g>
    </g>
   </g>
   <g>
    <g>
     <g>
      <path class="fil3" d="M260.379 184.297c-0.319,0.251 -0.576,0.553 -0.77,0.905 -0.195,0.352 -0.313,0.708 -0.355,1.068 -0.458,0.197 -0.853,0.406 -1.186,0.63 -0.93,0.586 -1.374,1.032 -1.333,1.337 0.083,0.313 0.63,0.408 1.642,0.283 0.374,-0.067 0.797,-0.147 1.269,-0.242 0.165,0.258 0.387,0.479 0.664,0.662 0.305,0.165 0.644,0.252 1.018,0.259 0.11,0.443 0.248,0.831 0.414,1.162 0.428,1.005 0.795,1.443 1.1,1.312 0.319,-0.103 0.472,-0.723 0.46,-1.86 -0.013,-0.397 -0.026,-0.831 -0.039,-1.302 0.236,-0.27 0.444,-0.557 0.625,-0.863 0.194,-0.351 0.341,-0.689 0.438,-1.013 0.43,-0.252 0.839,-0.471 1.228,-0.657 0.957,-0.606 1.394,-1.065 1.312,-1.379 -0.042,-0.305 -0.582,-0.385 -1.622,-0.242 -0.43,0.03 -0.88,0.092 -1.351,0.187 -0.166,-0.258 -0.401,-0.469 -0.706,-0.634 -0.277,-0.184 -0.561,-0.27 -0.852,-0.26 -0.166,-0.479 -0.325,-0.908 -0.476,-1.286 -0.428,-0.932 -0.802,-1.346 -1.121,-1.242 -0.305,0.13 -0.451,0.727 -0.439,1.79 -0.015,0.415 0.012,0.877 0.08,1.385z"/>
     </g>
    </g>
   </g>
   <g>
    <g>
     <g>
      <path class="fil2" d="M269.897 198.45c0.044,-0.1 0.056,-0.2 0.037,-0.3l-1.12 -3.7c0.004,-0.033 -0.008,-0.067 -0.034,-0.1l-2.115 -3.1c-0.022,-0.067 -0.095,-0.1 -0.218,-0.1 -0.089,-0.033 -0.183,-0.017 -0.283,0.05l-0.654 0.45c-0.065,0.033 -0.12,0.1 -0.162,0.2 -0.012,0.1 -0.009,0.2 0.01,0.3l1.194 3.85c0.026,0.033 0.038,0.067 0.034,0.1l2.04 2.95c0.054,0.067 0.142,0.1 0.265,0.1 0.088,0.033 0.182,0.017 0.283,-0.05l0.555 -0.4c0.069,-0.067 0.126,-0.15 0.168,-0.25z"/>
     </g>
    </g>
   </g>
  </g>
  <g id="body_FL_FL_FL_FL_FL_FL_FL_FL_FL_FL_FL_FL_FL_FL_FL_FL_FL_FL">
   <g>
    <g>
     <g>
      <polygon class="fil4" points="208.47,293.711 212.637,279.807 204.438,281.592 "/>
      <g>
       <path class="fil1" d="M214.698 272.909l-2.061 6.898 -4.167 13.904 6.452 -9.239 2.061 -2.998 2.195 -3.121 -4.48 -5.444 0 0zm-10.26 8.683l-2.196 -6.58 -4.481 6.957 10.709 11.742 -4.032 -12.119 0 0zm-14.114 22.333l0 4.1 34.948 -5.901 0 -4.1 -34.948 5.901z"/>
      </g>
      <polygon class="fil5" points="212.637,279.807 214.698,272.909 202.242,275.012 204.438,281.592 "/>
      <polygon class="fil0" points="214.922,284.472 208.47,293.711 197.761,281.969 202.242,275.012 190.324,277.025 190.324,303.925 225.272,298.024 225.272,271.124 214.698,272.909 219.178,278.353 216.983,281.474 221.867,280.649 221.867,283.299 "/>
      <polygon class="fil2" points="221.867,280.649 216.983,281.474 214.922,284.472 221.867,283.299 "/>
     </g>
    </g>
   </g>
   <g>
    <g>
     <g>
      <path class="fil3" d="M217.636 291.471c-0.176,0.421 -0.341,0.867 -0.495,1.341 -0.331,0.108 -0.65,0.283 -0.959,0.524 -0.296,0.25 -0.546,0.53 -0.752,0.839 -0.415,0.015 -0.816,0.047 -1.202,0.096 -0.977,0.113 -1.504,0.333 -1.579,0.659 -0.081,0.35 0.314,0.702 1.184,1.056 0.343,0.135 0.719,0.256 1.126,0.363 0.036,0.342 0.14,0.656 0.311,0.941 0.179,0.316 0.392,0.561 0.638,0.732 -0.05,0.496 -0.082,0.948 -0.096,1.357 -0.057,1.145 0.065,1.738 0.366,1.777 0.281,0.037 0.651,-0.492 1.11,-1.585 0.182,-0.396 0.357,-0.841 0.526,-1.337 0.294,-0.098 0.581,-0.264 0.861,-0.501 0.295,-0.222 0.543,-0.49 0.744,-0.804 0.439,0.01 0.847,-0.01 1.223,-0.057 1.018,-0.108 1.568,-0.336 1.648,-0.686 0.076,-0.327 -0.342,-0.67 -1.252,-1.028 -0.331,-0.149 -0.704,-0.282 -1.119,-0.398 -0.047,-0.346 -0.158,-0.672 -0.332,-0.98 -0.161,-0.284 -0.356,-0.513 -0.586,-0.689 0.06,-0.502 0.097,-0.977 0.112,-1.427 0.047,-1.099 -0.071,-1.667 -0.352,-1.704 -0.301,-0.039 -0.676,0.465 -1.125,1.511z"/>
     </g>
    </g>
   </g>
   <g>
    <g>
     <g>
      <path class="fil3" d="M195.899 286.231c-0.281,0.298 -0.495,0.635 -0.643,1.013 -0.148,0.376 -0.221,0.745 -0.219,1.106 -0.422,0.267 -0.782,0.537 -1.079,0.811 -0.835,0.727 -1.214,1.237 -1.138,1.529 0.117,0.294 0.66,0.297 1.629,0.008 0.356,-0.126 0.757,-0.275 1.204,-0.445 0.192,0.226 0.433,0.406 0.724,0.54 0.315,0.112 0.655,0.141 1.02,0.087 0.159,0.416 0.339,0.773 0.539,1.071 0.534,0.915 0.941,1.283 1.223,1.105 0.297,-0.154 0.374,-0.786 0.229,-1.898 -0.06,-0.387 -0.124,-0.811 -0.192,-1.271 0.198,-0.302 0.367,-0.618 0.506,-0.947 0.148,-0.377 0.25,-0.733 0.307,-1.066 0.388,-0.317 0.76,-0.599 1.116,-0.845 0.859,-0.751 1.23,-1.273 1.113,-1.567 -0.076,-0.291 -0.611,-0.282 -1.604,0.029 -0.414,0.1 -0.845,0.235 -1.292,0.405 -0.192,-0.226 -0.445,-0.394 -0.761,-0.506 -0.29,-0.134 -0.576,-0.173 -0.858,-0.114 -0.217,-0.443 -0.422,-0.838 -0.614,-1.183 -0.525,-0.843 -0.937,-1.187 -1.235,-1.034 -0.281,0.178 -0.353,0.787 -0.217,1.827 0.035,0.41 0.116,0.858 0.242,1.345z"/>
     </g>
    </g>
   </g>
   <g>
    <g>
     <g>
      <path class="fil2" d="M206.812 298.541c0.03,-0.105 0.03,-0.205 0,-0.3l-1.523 -3.443c0,-0.033 -0.015,-0.064 -0.045,-0.092l-2.42 -2.692c-0.029,-0.061 -0.104,-0.082 -0.223,-0.062 -0.09,-0.018 -0.18,0.013 -0.269,0.095l-0.583 0.549c-0.06,0.043 -0.104,0.117 -0.134,0.222 0,0.1 0.015,0.198 0.045,0.293l1.613 3.577c0.03,0.029 0.044,0.06 0.044,0.093l2.33 2.557c0.06,0.056 0.15,0.074 0.269,0.054 0.09,0.018 0.179,-0.013 0.269,-0.095l0.493 -0.483c0.059,-0.077 0.104,-0.168 0.134,-0.273z"/>
     </g>
    </g>
   </g>
  </g>
  <g id="body_FL_FL_FL_FL_FL_FL_FL_FL_FL_FL_FL_FL_FL_FL_FL_FL_FL_FL_FL">
   <g>
    <g>
     <g>
      <polygon class="fil4" points="282.253,300.374 286.541,287.077 278.103,287.668 "/>
      <g>
       <path class="fil1" d="M288.662 280.479l-2.121 6.598 -4.288 13.297 6.64 -8.3 2.121 -2.698 2.259 -2.801 -4.611 -6.096 0 0zm-10.559 7.189l-2.26 -6.899 -4.611 6.304 11.021 13.301 -4.15 -12.706 0 0zm-14.525 20.278l0 4.1 35.966 -0.813 0 -4.1 -35.966 0.813z"/>
      </g>
      <polygon class="fil5" points="286.541,287.077 288.662,280.479 275.843,280.769 278.103,287.668 "/>
      <polygon class="fil0" points="288.893,292.074 282.253,300.374 271.232,287.073 275.843,280.769 263.578,281.046 263.578,307.946 299.544,307.133 299.544,280.233 288.662,280.479 293.273,286.575 291.014,289.376 296.04,289.262 296.04,291.912 "/>
      <polygon class="fil2" points="296.04,289.262 291.014,289.376 288.893,292.074 296.04,291.912 "/>
     </g>
    </g>
   </g>
   <g>
    <g>
     <g>
      <path class="fil3" d="M291.686 299.469c-0.181,0.394 -0.351,0.817 -0.51,1.269 -0.34,0.059 -0.669,0.188 -0.987,0.384 -0.304,0.207 -0.562,0.45 -0.774,0.73 -0.427,-0.046 -0.839,-0.073 -1.236,-0.079 -1.006,-0.03 -1.548,0.113 -1.626,0.429 -0.083,0.338 0.323,0.747 1.219,1.227 0.353,0.186 0.74,0.361 1.159,0.527 0.037,0.348 0.143,0.677 0.32,0.987 0.184,0.343 0.403,0.617 0.656,0.824 -0.051,0.489 -0.084,0.937 -0.098,1.343 -0.06,1.138 0.066,1.748 0.376,1.831 0.289,0.077 0.67,-0.397 1.143,-1.424 0.187,-0.369 0.367,-0.789 0.541,-1.26 0.302,-0.055 0.598,-0.18 0.886,-0.376 0.304,-0.179 0.559,-0.41 0.765,-0.696 0.453,0.074 0.872,0.114 1.26,0.122 1.047,0.04 1.612,-0.109 1.696,-0.447 0.077,-0.315 -0.352,-0.719 -1.289,-1.21 -0.34,-0.197 -0.724,-0.384 -1.152,-0.561 -0.048,-0.352 -0.162,-0.695 -0.342,-1.028 -0.165,-0.307 -0.366,-0.565 -0.603,-0.775 0.062,-0.492 0.101,-0.963 0.115,-1.41 0.048,-1.092 -0.072,-1.677 -0.361,-1.755 -0.311,-0.083 -0.696,0.366 -1.158,1.348z"/>
     </g>
    </g>
   </g>
   <g>
    <g>
     <g>
      <path class="fil3" d="M269.315 291.064c-0.288,0.257 -0.509,0.564 -0.661,0.919 -0.152,0.356 -0.228,0.714 -0.226,1.074 -0.434,0.206 -0.804,0.424 -1.11,0.655 -0.859,0.605 -1.249,1.06 -1.171,1.363 0.12,0.311 0.679,0.393 1.676,0.245 0.367,-0.074 0.78,-0.164 1.24,-0.269 0.197,0.253 0.445,0.468 0.744,0.645 0.325,0.157 0.675,0.236 1.05,0.235 0.164,0.439 0.349,0.822 0.555,1.15 0.549,0.992 0.969,1.42 1.258,1.282 0.307,-0.11 0.385,-0.731 0.236,-1.864 -0.062,-0.396 -0.127,-0.829 -0.197,-1.298 0.203,-0.274 0.377,-0.565 0.521,-0.875 0.151,-0.355 0.257,-0.695 0.315,-1.02 0.4,-0.261 0.782,-0.489 1.148,-0.684 0.885,-0.625 1.266,-1.093 1.146,-1.404 -0.078,-0.303 -0.628,-0.371 -1.651,-0.204 -0.426,0.039 -0.869,0.111 -1.329,0.216 -0.197,-0.253 -0.458,-0.459 -0.783,-0.616 -0.299,-0.177 -0.593,-0.257 -0.883,-0.239 -0.224,-0.475 -0.435,-0.899 -0.632,-1.273 -0.541,-0.919 -0.965,-1.323 -1.271,-1.213 -0.289,0.137 -0.364,0.736 -0.223,1.795 0.036,0.415 0.118,0.875 0.248,1.38z"/>
     </g>
    </g>
   </g>
   <g>
    <g>
     <g>
      <path class="fil2" d="M280.547 304.962c0.03,-0.1 0.03,-0.2 0,-0.299l-1.568 -3.665c0,-0.033 -0.016,-0.066 -0.046,-0.099l-2.49 -3.044c-0.031,-0.065 -0.108,-0.097 -0.231,-0.094 -0.092,-0.031 -0.184,-0.013 -0.276,0.056l-0.6 0.464c-0.061,0.034 -0.107,0.102 -0.138,0.203 0,0.1 0.015,0.199 0.046,0.299l1.66 3.812c0.031,0.032 0.046,0.066 0.046,0.099l2.398 2.896c0.061,0.065 0.153,0.096 0.276,0.094 0.093,0.031 0.185,0.012 0.277,-0.057l0.507 -0.411c0.062,-0.068 0.108,-0.153 0.139,-0.254z"/>
     </g>
    </g>
   </g>
  </g>
  <g>
   <g>
    <g>
     <g>
      <polygon class="fil0" points="381.35,283.15 342.35,283.15 342.35,310.05 381.35,310.05 "/>
      <polygon class="fil1" points="342.35,310.05 342.35,314.15 381.35,314.15 381.35,310.05 "/>
     </g>
    </g>
   </g>
   <g>
    <g>
     <g>
      <path class="fil2" d="M373.5 289l-2.7 -3.1c-0.033,-0.067 -0.117,-0.1 -0.25,-0.1 -0.1,-0.033 -0.2,-0.016 -0.3,0.05l-0.65 0.45c-0.067,0.034 -0.117,0.1 -0.15,0.2 0,0.1 0.017,0.2 0.05,0.3l1.8 3.85c0.033,0.033 0.05,0.067 0.05,0.1l2.6 2.95c0.067,0.067 0.167,0.1 0.3,0.1 0.1,0.033 0.2,0.017 0.3,-0.05l0.55 -0.4c0.067,-0.067 0.117,-0.15 0.15,-0.25 0.033,-0.1 0.033,-0.2 0,-0.3l-1.7 -3.7c0,-0.033 -0.017,-0.066 -0.05,-0.1z"/>
     </g>
    </g>
   </g>
   <g>
    <g>
     <g>
      <path class="fil2" d="M354.77 301.879c-0.016,0.099 -0.048,0.195 -0.097,0.288l-2.392 3.513c-0.038,0.028 -0.06,0.058 -0.066,0.091l-3.038 2.496c-0.076,0.055 -0.18,0.072 -0.312,0.051 -0.104,0.017 -0.2,-0.016 -0.288,-0.097l-0.479 -0.483c-0.055,-0.077 -0.091,-0.167 -0.108,-0.271 -0.017,-0.104 -0.001,-0.202 0.048,-0.296l2.269 -3.381c0.006,-0.032 0.028,-0.063 0.066,-0.09l3.161 -2.629c0.043,-0.06 0.131,-0.08 0.262,-0.059 0.104,-0.017 0.201,0.016 0.289,0.098l0.569 0.548c0.061,0.043 0.099,0.117 0.116,0.221z"/>
     </g>
    </g>
   </g>
   <g>
    <g>
     <g>
      <path class="fil3" d="M368.168 304.656c0.255,0.224 0.841,0.043 1.757,-0.544 0.328,-0.234 0.695,-0.503 1.102,-0.808 0.305,0.138 0.644,0.218 1.016,0.241 0.388,-0.007 0.767,-0.096 1.136,-0.268 0.354,0.32 0.704,0.58 1.051,0.78 0.977,0.641 1.578,0.834 1.802,0.579 0.253,-0.239 0.057,-0.833 -0.588,-1.783 -0.234,-0.328 -0.488,-0.687 -0.764,-1.076 0.08,-0.339 0.123,-0.68 0.129,-1.023 -0.007,-0.389 -0.053,-0.743 -0.138,-1.061 0.279,-0.417 0.555,-0.796 0.83,-1.138 0.595,-0.965 0.765,-1.559 0.51,-1.784 -0.21,-0.236 -0.781,-0.046 -1.714,0.57 -0.402,0.229 -0.806,0.496 -1.213,0.801 -0.305,-0.138 -0.652,-0.204 -1.041,-0.197 -0.372,-0.023 -0.697,0.04 -0.975,0.187 -0.428,-0.324 -0.822,-0.609 -1.18,-0.854 -0.936,-0.579 -1.531,-0.75 -1.784,-0.511 -0.224,0.255 -0.035,0.827 0.569,1.714 0.218,0.357 0.501,0.732 0.851,1.127 -0.172,0.363 -0.254,0.739 -0.247,1.127 0.006,0.389 0.09,0.745 0.249,1.068 -0.336,0.383 -0.604,0.748 -0.804,1.094 -0.579,0.936 -0.764,1.522 -0.554,1.759z"/>
     </g>
    </g>
   </g>
  </g>
  <g id="body_FL_FL_FL_FL_FL_FL_FL_FL_FL_FL_FL_FL_FL_FL_FL_FL_FL_FL_FL_FL_FL">
   <g>
    <g>
     <g>
      <polygon class="fil4" points="442.6,303.9 447.25,290.7 438.1,291.1 "/>
      <g>
       <path class="fil1" d="M449.55 284.15l-2.3 6.55 -4.65 13.2 7.2 -8.15 2.3 -2.65 2.45 -2.75 -5 -6.2 0 0zm-11.45 6.95l-2.45 -6.95 -5 6.2 11.95 13.55 -4.5 -12.8 0 0zm-15.75 19.95l0 4.1 39 0 0 -4.1 -39 0z"/>
      </g>
      <polygon class="fil5" points="447.25,290.7 449.55,284.15 435.65,284.15 438.1,291.1 "/>
      <polygon class="fil0" points="449.8,295.75 442.6,303.9 430.65,290.35 435.65,284.15 422.35,284.15 422.35,311.05 461.35,311.05 461.35,284.15 449.55,284.15 454.55,290.35 452.1,293.1 457.55,293.1 457.55,295.75 "/>
      <polygon class="fil2" points="457.55,293.1 452.1,293.1 449.8,295.75 457.55,295.75 "/>
     </g>
    </g>
   </g>
   <g>
    <g>
     <g>
      <path class="fil3" d="M452.829 303.208c-0.196,0.39 -0.381,0.81 -0.553,1.257 -0.369,0.053 -0.725,0.173 -1.07,0.363 -0.33,0.199 -0.609,0.437 -0.839,0.712 -0.464,-0.056 -0.91,-0.091 -1.341,-0.107 -1.091,-0.053 -1.679,0.078 -1.763,0.392 -0.09,0.336 0.351,0.755 1.322,1.255 0.383,0.194 0.802,0.378 1.257,0.553 0.04,0.349 0.155,0.68 0.346,0.994 0.201,0.347 0.438,0.627 0.712,0.84 -0.056,0.487 -0.091,0.934 -0.107,1.34 -0.064,1.136 0.072,1.749 0.409,1.839 0.313,0.085 0.726,-0.381 1.239,-1.397 0.202,-0.365 0.398,-0.781 0.586,-1.249 0.329,-0.047 0.649,-0.166 0.961,-0.355 0.33,-0.172 0.606,-0.398 0.83,-0.679 0.49,0.084 0.946,0.134 1.365,0.15 1.137,0.064 1.75,-0.072 1.84,-0.408 0.084,-0.314 -0.382,-0.727 -1.398,-1.239 -0.369,-0.205 -0.785,-0.401 -1.248,-0.587 -0.053,-0.354 -0.176,-0.699 -0.371,-1.037 -0.179,-0.31 -0.397,-0.572 -0.654,-0.787 0.067,-0.492 0.109,-0.961 0.125,-1.408 0.052,-1.091 -0.079,-1.679 -0.393,-1.763 -0.336,-0.09 -0.754,0.35 -1.255,1.321z"/>
     </g>
    </g>
   </g>
   <g>
    <g>
     <g>
      <path class="fil3" d="M428.572 294.297c-0.314,0.251 -0.553,0.553 -0.718,0.905 -0.164,0.352 -0.246,0.708 -0.245,1.069 -0.47,0.196 -0.872,0.406 -1.203,0.629 -0.932,0.587 -1.355,1.032 -1.27,1.337 0.13,0.313 0.736,0.408 1.818,0.283 0.397,-0.066 0.845,-0.147 1.344,-0.242 0.214,0.259 0.482,0.479 0.807,0.663 0.352,0.164 0.731,0.25 1.138,0.258 0.178,0.443 0.378,0.83 0.602,1.162 0.596,1.006 1.05,1.443 1.364,1.312 0.333,-0.103 0.418,-0.723 0.256,-1.859 -0.067,-0.398 -0.138,-0.832 -0.214,-1.303 0.221,-0.269 0.409,-0.557 0.565,-0.862 0.164,-0.353 0.279,-0.69 0.342,-1.014 0.434,-0.252 0.849,-0.471 1.245,-0.658 0.959,-0.605 1.373,-1.064 1.242,-1.378 -0.084,-0.304 -0.681,-0.385 -1.79,-0.242 -0.462,0.03 -0.942,0.092 -1.441,0.187 -0.214,-0.258 -0.497,-0.469 -0.849,-0.634 -0.324,-0.184 -0.644,-0.27 -0.958,-0.26 -0.242,-0.479 -0.471,-0.908 -0.685,-1.286 -0.586,-0.932 -1.046,-1.345 -1.378,-1.242 -0.314,0.131 -0.395,0.727 -0.242,1.79 0.039,0.416 0.129,0.877 0.27,1.385z"/>
     </g>
    </g>
   </g>
   <g>
    <g>
     <g>
      <path class="fil2" d="M440.75 308.45c0.033,-0.1 0.033,-0.2 0,-0.3l-1.7 -3.7c0,-0.033 -0.017,-0.067 -0.05,-0.1l-2.7 -3.1c-0.033,-0.067 -0.117,-0.1 -0.25,-0.1 -0.1,-0.033 -0.2,-0.017 -0.3,0.05l-0.65 0.45c-0.066,0.033 -0.117,0.1 -0.15,0.2 0,0.1 0.017,0.2 0.05,0.3l1.8 3.85c0.033,0.034 0.05,0.067 0.05,0.1l2.6 2.95c0.067,0.067 0.167,0.1 0.3,0.1 0.1,0.033 0.2,0.017 0.3,-0.05l0.55 -0.4c0.067,-0.066 0.117,-0.15 0.15,-0.25z"/>
     </g>
    </g>
   </g>
  </g>
  <g>
   <g>
    <g>
     <g>
      <polygon class="fil0" points="418.91,60.528 457.403,54.33 457.403,81.23 418.91,87.429 "/>
      <polygon class="fil1" points="457.403,81.23 457.403,85.33 418.91,91.529 418.91,87.429 "/>
     </g>
    </g>
   </g>
   <g>
    <g>
     <g>
      <path class="fil2" d="M426.658 65.131l2.665 -3.529c0.033,-0.072 0.115,-0.119 0.246,-0.14 0.099,-0.049 0.198,-0.048 0.297,0.002l0.641 0.347c0.066,0.023 0.115,0.081 0.148,0.176 0,0.1 -0.016,0.203 -0.049,0.308l-1.777 4.136c-0.032,0.039 -0.049,0.075 -0.049,0.108l-2.566 3.363c-0.066,0.078 -0.165,0.127 -0.296,0.148 -0.099,0.049 -0.198,0.049 -0.297,-0.002l-0.542 -0.313c-0.066,-0.056 -0.116,-0.131 -0.149,-0.226 -0.032,-0.095 -0.032,-0.195 0,-0.3l1.679 -3.97c0,-0.033 0.016,-0.069 0.049,-0.108z"/>
     </g>
    </g>
   </g>
   <g>
    <g>
     <g>
      <path class="fil2" d="M445.144 75.034c0.016,0.096 0.048,0.187 0.097,0.272l2.361 3.133c0.037,0.021 0.059,0.048 0.064,0.08l2.999 2.013c0.076,0.043 0.178,0.044 0.308,0.002 0.103,0 0.197,-0.048 0.284,-0.143l0.473 -0.559c0.054,-0.086 0.09,-0.182 0.107,-0.288 0.017,-0.107 0.001,-0.203 -0.048,-0.289l-2.24 -3.02c-0.005,-0.032 -0.027,-0.059 -0.064,-0.08l-3.12 -2.126c-0.043,-0.054 -0.129,-0.059 -0.259,-0.017 -0.103,0 -0.198,0.047 -0.285,0.143l-0.562 0.639c-0.06,0.053 -0.098,0.133 -0.115,0.24z"/>
     </g>
    </g>
   </g>
   <g>
    <g>
     <g>
      <path class="fil3" d="M431.921 79.939c-0.252,0.265 -0.831,0.177 -1.735,-0.264 -0.324,-0.182 -0.686,-0.393 -1.087,-0.633 -0.301,0.186 -0.636,0.321 -1.003,0.402 -0.383,0.055 -0.757,0.026 -1.121,-0.087 -0.35,0.376 -0.696,0.692 -1.037,0.947 -0.965,0.796 -1.557,1.084 -1.779,0.864 -0.25,-0.198 -0.057,-0.823 0.58,-1.875 0.231,-0.365 0.482,-0.765 0.754,-1.198 -0.079,-0.326 -0.121,-0.66 -0.127,-1.002 0.007,-0.39 0.052,-0.751 0.136,-1.083 -0.275,-0.373 -0.548,-0.708 -0.819,-1.006 -0.588,-0.87 -0.756,-1.438 -0.504,-1.703 0.208,-0.269 0.771,-0.171 1.692,0.297 0.397,0.166 0.796,0.369 1.198,0.608 0.301,-0.186 0.643,-0.307 1.027,-0.362 0.367,-0.082 0.688,-0.071 0.962,0.033 0.423,-0.393 0.811,-0.74 1.165,-1.043 0.924,-0.727 1.511,-0.992 1.761,-0.793 0.221,0.219 0.034,0.821 -0.562,1.804 -0.214,0.391 -0.495,0.812 -0.84,1.261 0.169,0.336 0.251,0.699 0.244,1.089 -0.006,0.39 -0.088,0.759 -0.246,1.107 0.332,0.33 0.597,0.652 0.794,0.967 0.572,0.844 0.754,1.401 0.547,1.67z"/>
     </g>
    </g>
   </g>
  </g>
 </g>
</svg>
