<?xml version="1.0" encoding="UTF-8"?>
<!DOCTYPE svg PUBLIC "-//W3C//DTD SVG 1.1//EN" "http://www.w3.org/Graphics/SVG/1.1/DTD/svg11.dtd">
<!-- Creator: CorelDRAW 2018 (64-Bit) -->
<svg xmlns="http://www.w3.org/2000/svg" xml:space="preserve" width="720px" height="330px" version="1.1" style="shape-rendering:geometricPrecision; text-rendering:geometricPrecision; image-rendering:optimizeQuality; fill-rule:evenodd; clip-rule:evenodd"
viewBox="0 0 720 330"
 xmlns:xlink="http://www.w3.org/1999/xlink">
 <defs>
  <style type="text/css">
   <![CDATA[
    .fil2 {fill:#2E88C4}
    .fil1 {fill:#3498DB}
    .fil0 {fill:#D9D6BF}
   ]]>
  </style>
 </defs>
 <g id="Слой_x0020_1">
  <metadata id="CorelCorpID_0Corel-Layer"/>
  <g id="_1054058752">
   <g>
    <g>
     <g>
      <path class="fil0" d="M504.522 81.54c0.616,1.846 1.767,3.398 3.454,4.656 9.377,-0.071 18.753,1.439 28.13,4.53 1.25,-0.907 2.155,-2.128 2.714,-3.663 -11.288,-3.016 -22.721,-4.857 -34.298,-5.523z"/>
      <path class="fil1" d="M539.462 80.566l0 0c-0.916,-6.276 -0.373,-12.955 1.629,-20.038l-38.494 -6.198c2.535,7.576 3.094,14.682 1.678,21.32 -0.37,2.219 -0.288,4.182 0.247,5.89 11.577,0.666 23.01,2.507 34.298,5.523 0.663,-1.748 0.877,-3.914 0.642,-6.497z"/>
     </g>
    </g>
   </g>
  </g>
  <g id="body">
   <g>
    <g>
     <g>
      <path class="fil0" d="M16.85 311.05c0.76,1.747 1.976,3.113 3.649,4.1 8.541,-1.581 17.251,-1.581 26.131,0 1.042,-1.108 1.736,-2.475 2.082,-4.1 -10.615,-1.198 -21.236,-1.198 -31.862,0z"/>
      <path class="fil1" d="M48.599 304.45l0 0c-1.508,-6.129 -1.73,-12.895 -0.665,-20.3l-35.759 0c3.125,7.168 4.397,14.184 3.818,21.05 -0.099,2.278 0.186,4.228 0.857,5.85 10.626,-1.198 21.247,-1.198 31.862,0 0.416,-1.855 0.378,-4.055 -0.113,-6.6z"/>
     </g>
    </g>
   </g>
   <g>
    <g>
     <g>
      <g>
       <path class="fil2" d="M43.241 289.55c-0.242,-0.267 -0.485,-0.533 -0.727,-0.8 -0.072,-0.1 -0.169,-0.15 -0.291,-0.15 -0.092,0 -0.18,0.033 -0.265,0.1 -0.084,0.067 -0.119,0.167 -0.105,0.3 -0.051,0.1 -0.038,0.217 0.037,0.35 0.502,0.967 0.639,1.967 0.414,3l-0.005 -0.05c-0.362,1.467 -1.335,2.517 -2.917,3.15 -1.586,0.6 -3.34,0.634 -5.262,0.1 -0.163,-0.1 -0.339,-0.166 -0.525,-0.2 -0.096,-0.033 -0.17,-0.017 -0.224,0.05 -0.115,0.067 -0.183,0.15 -0.203,0.25 -0.02,0.1 -0.007,0.217 0.038,0.35 0.011,0.1 0.066,0.183 0.164,0.25 0.87,0.7 1.923,1.25 3.157,1.65l-0.046 0c1.936,0.667 3.712,0.7 5.329,0.1 1.64,-0.667 2.613,-1.85 2.92,-3.55l0.005 0.05c0.287,-1.6 -0.211,-3.25 -1.494,-4.95l0 0zm-23.893 0.35c-0.092,0 -0.162,0.05 -0.213,0.15 -0.243,0.3 -0.409,0.6 -0.499,0.9 -0.972,1.767 -1.114,3.434 -0.427,5l-0.005 -0.05c0.611,1.7 1.81,2.767 3.598,3.2 1.728,0.434 3.491,0.2 5.289,-0.7 1.043,-0.533 1.936,-1.183 2.679,-1.95 0.085,-0.067 0.137,-0.15 0.157,-0.25 -0.015,-0.133 -0.043,-0.25 -0.084,-0.35 -0.041,-0.1 -0.111,-0.183 -0.21,-0.25 -0.129,-0.067 -0.223,-0.083 -0.28,-0.05 -0.18,0.034 -0.326,0.1 -0.437,0.2 -1.81,0.8 -3.578,0.983 -5.305,0.55 -1.667,-0.433 -2.833,-1.333 -3.499,-2.7 -0.44,-0.967 -0.532,-1.966 -0.276,-3 0.02,-0.1 0.024,-0.2 0.014,-0.3 -0.045,-0.133 -0.102,-0.233 -0.17,-0.3 -0.099,-0.066 -0.209,-0.1 -0.332,-0.1z"/>
      </g>
     </g>
    </g>
   </g>
  </g>
  <g id="body_FL">
   <g id="_1054043168">
    <g>
     <g>
      <path class="fil0" d="M24.3 91.05c0.624,1.746 1.791,3.113 3.5,4.1 9.5,-1.581 19,-1.581 28.5,0 1.266,-1.108 2.183,-2.475 2.75,-4.1 -11.437,-1.198 -23.02,-1.198 -34.75,0z"/>
      <path class="fil1" d="M59.7 84.45l0 0c-0.928,-6.129 -0.378,-12.896 1.65,-20.3l-39 0c2.568,7.167 3.135,14.184 1.7,21.05 -0.375,2.278 -0.292,4.227 0.25,5.85 11.73,-1.198 23.313,-1.198 34.75,0 0.671,-1.855 0.887,-4.055 0.65,-6.6z"/>
     </g>
    </g>
   </g>
   <g id="_1048336928">
    <g>
     <g>
      <g>
       <path class="fil2" d="M55.6 69.55c-0.234,-0.267 -0.467,-0.533 -0.7,-0.8 -0.067,-0.1 -0.167,-0.15 -0.3,-0.15 -0.1,0 -0.2,0.033 -0.3,0.1 -0.1,0.067 -0.15,0.166 -0.15,0.3 -0.067,0.1 -0.067,0.216 0,0.35 0.433,0.967 0.466,1.967 0.1,3l0 -0.05c-0.567,1.467 -1.75,2.517 -3.55,3.15 -1.8,0.6 -3.717,0.633 -5.75,0.1 -0.167,-0.1 -0.35,-0.167 -0.55,-0.2 -0.1,-0.033 -0.184,-0.017 -0.25,0.05 -0.134,0.067 -0.217,0.15 -0.25,0.25 -0.034,0.1 -0.034,0.217 0,0.35 0,0.1 0.05,0.183 0.15,0.25 0.866,0.7 1.95,1.25 3.25,1.65l-0.05 0c2.033,0.667 3.966,0.7 5.8,0.1 1.866,-0.667 3.066,-1.85 3.6,-3.55l0 0.05c0.5,-1.6 0.15,-3.25 -1.05,-4.95l0 0zm-26.1 0.35c-0.101,0 -0.184,0.05 -0.25,0.15 -0.3,0.3 -0.517,0.6 -0.65,0.9 -1.267,1.767 -1.617,3.433 -1.05,5l0 -0.05c0.467,1.7 1.65,2.766 3.549,3.2 1.834,0.433 3.784,0.2 5.851,-0.7 1.2,-0.533 2.25,-1.183 3.15,-1.95 0.1,-0.067 0.166,-0.15 0.2,-0.25 0,-0.134 -0.017,-0.25 -0.05,-0.35 -0.034,-0.1 -0.1,-0.183 -0.2,-0.25 -0.134,-0.067 -0.234,-0.083 -0.3,-0.05 -0.2,0.033 -0.367,0.1 -0.5,0.2 -2.067,0.8 -4.017,0.983 -5.85,0.55 -1.767,-0.433 -2.934,-1.333 -3.501,-2.7 -0.366,-0.967 -0.349,-1.967 0.051,-3 0.033,-0.1 0.05,-0.2 0.05,-0.3 -0.034,-0.133 -0.083,-0.234 -0.15,-0.3 -0.1,-0.067 -0.217,-0.1 -0.35,-0.1z"/>
      </g>
     </g>
    </g>
   </g>
  </g>
  <g id="body_FL_FL">
   <g>
    <g id="_1048337472">
     <g>
      <path class="fil0" d="M105.946 86.15c0.619,1.746 1.776,3.113 3.47,4.1 9.419,-1.581 18.837,-1.581 28.256,0 1.255,-1.109 2.164,-2.475 2.726,-4.1 -11.339,-1.198 -22.823,-1.198 -34.452,0z"/>
      <path class="fil1" d="M141.042 79.55l0 0c-0.92,-6.129 -0.374,-12.895 1.636,-20.3l-38.665 0c2.546,7.167 3.108,14.184 1.685,21.05 -0.372,2.277 -0.289,4.228 0.248,5.85 11.629,-1.198 23.113,-1.198 34.452,0 0.665,-1.855 0.88,-4.055 0.644,-6.6z"/>
     </g>
    </g>
   </g>
   <g>
    <g id="_1048365184">
     <g>
      <g>
       <path class="fil2" d="M136.977 64.65c-0.231,-0.267 -0.462,-0.533 -0.694,-0.8 -0.066,-0.1 -0.165,-0.15 -0.297,-0.15 -0.099,0 -0.198,0.033 -0.297,0.1 -0.099,0.067 -0.149,0.167 -0.149,0.3 -0.066,0.1 -0.066,0.217 0,0.35 0.43,0.967 0.463,1.967 0.099,3l0 -0.05c-0.562,1.466 -1.735,2.516 -3.519,3.15 -1.785,0.6 -3.685,0.633 -5.701,0.1 -0.165,-0.1 -0.347,-0.167 -0.545,-0.2 -0.1,-0.034 -0.182,-0.017 -0.248,0.05 -0.132,0.066 -0.215,0.15 -0.248,0.25 -0.033,0.1 -0.033,0.216 0,0.35 0,0.1 0.05,0.183 0.149,0.25 0.859,0.7 1.933,1.25 3.222,1.65l-0.05 0c2.016,0.666 3.933,0.7 5.75,0.1 1.851,-0.667 3.041,-1.85 3.57,-3.55l0 0.05c0.495,-1.6 0.148,-3.25 -1.042,-4.95l0 0zm-25.876 0.35c-0.099,0 -0.182,0.05 -0.247,0.15 -0.298,0.3 -0.513,0.6 -0.645,0.9 -1.256,1.767 -1.603,3.433 -1.041,5l0 -0.05c0.463,1.7 1.636,2.767 3.519,3.2 1.818,0.433 3.752,0.2 5.801,-0.7 1.189,-0.533 2.23,-1.184 3.123,-1.95 0.099,-0.067 0.165,-0.15 0.198,-0.25 0,-0.133 -0.017,-0.25 -0.05,-0.35 -0.033,-0.1 -0.099,-0.184 -0.198,-0.25 -0.132,-0.067 -0.232,-0.084 -0.297,-0.05 -0.199,0.033 -0.364,0.1 -0.496,0.2 -2.049,0.8 -3.982,0.983 -5.8,0.55 -1.751,-0.434 -2.908,-1.334 -3.47,-2.7 -0.364,-0.967 -0.347,-1.967 0.05,-3 0.032,-0.1 0.049,-0.2 0.049,-0.3 -0.033,-0.134 -0.083,-0.233 -0.149,-0.3 -0.099,-0.067 -0.214,-0.1 -0.347,-0.1z"/>
      </g>
     </g>
    </g>
   </g>
  </g>
  <g id="body_FL_FL_FL">
   <g>
    <g>
     <g id="_1048336032">
      <path class="fil0" d="M183.414 85.366c0.474,1.757 1.524,3.15 3.149,4.179 9.651,-1.318 19.164,-1.06 28.54,0.772 1.365,-1.07 2.401,-2.407 3.11,-4.01 -11.349,-1.503 -22.949,-1.817 -34.799,-0.941z"/>
      <path class="fil1" d="M219.436 79.749l0 0c-0.397,-6.131 0.74,-12.857 3.413,-20.179l-39.055 -1.055c1.951,7.21 1.91,14.215 -0.123,21.017 -0.573,2.259 -0.659,4.203 -0.257,5.834 11.85,-0.876 23.45,-0.562 34.799,0.941 0.833,-1.83 1.241,-4.016 1.223,-6.558z"/>
     </g>
    </g>
   </g>
   <g>
    <g>
     <g id="_1048364544">
      <g>
       <path class="fil2" d="M216.623 64.794c-0.211,-0.272 -0.421,-0.543 -0.632,-0.816 -0.058,-0.101 -0.154,-0.153 -0.287,-0.157 -0.1,-0.003 -0.203,0.028 -0.309,0.091 -0.106,0.064 -0.165,0.162 -0.176,0.295 -0.076,0.098 -0.086,0.214 -0.031,0.349 0.35,0.975 0.297,1.972 -0.16,2.991l0.004 -0.049c-0.694,1.445 -1.97,2.459 -3.828,3.042 -1.854,0.548 -3.777,0.53 -5.766,-0.057 -0.159,-0.104 -0.336,-0.175 -0.534,-0.214 -0.097,-0.035 -0.182,-0.021 -0.254,0.044 -0.14,0.062 -0.231,0.143 -0.273,0.242 -0.042,0.098 -0.052,0.215 -0.03,0.348 -0.009,0.1 0.034,0.184 0.129,0.253 0.807,0.721 1.844,1.299 3.111,1.732l-0.05 -0.001c1.978,0.719 3.912,0.805 5.799,0.256 1.928,-0.613 3.232,-1.759 3.913,-3.439l-0.004 0.05c0.639,-1.58 0.432,-3.233 -0.622,-4.96l0 0zm-26.167 -0.358c-0.1,-0.002 -0.188,0.045 -0.264,0.143 -0.326,0.291 -0.569,0.584 -0.729,0.879 -1.421,1.726 -1.916,3.377 -1.485,4.953l0.005 -0.05c0.32,1.706 1.412,2.801 3.277,3.284 1.798,0.481 3.771,0.302 5.919,-0.539 1.248,-0.499 2.356,-1.118 3.324,-1.857 0.105,-0.064 0.18,-0.145 0.221,-0.244 0.012,-0.133 0.005,-0.249 -0.019,-0.35 -0.025,-0.1 -0.084,-0.185 -0.179,-0.254 -0.127,-0.07 -0.226,-0.09 -0.296,-0.058 -0.203,0.028 -0.376,0.089 -0.518,0.185 -2.139,0.741 -4.107,0.872 -5.906,0.39 -1.731,-0.48 -2.822,-1.408 -3.27,-2.784 -0.284,-0.974 -0.18,-1.969 0.31,-2.988 0.042,-0.098 0.067,-0.198 0.076,-0.298 -0.022,-0.133 -0.063,-0.234 -0.124,-0.302 -0.095,-0.069 -0.209,-0.106 -0.342,-0.11z"/>
      </g>
     </g>
    </g>
   </g>
  </g>
  <g id="body_FL_FL_FL_FL">
   <g>
    <g>
     <g>
      <path class="fil0" d="M264.846 99.888c0.767,1.689 2.042,2.954 3.827,3.797 9.336,-2.361 18.803,-3.145 28.402,-2.354 1.17,-1.209 1.971,-2.647 2.401,-4.313 -11.496,-0.25 -23.04,0.707 -34.63,2.87z"/>
      <path class="fil1" d="M299.579 90.387l0 0c-1.431,-6.031 -1.442,-12.82 -0.032,-20.367l-38.866 3.221c3.151,6.931 4.296,13.877 3.432,20.838 -0.185,2.301 0.059,4.237 0.733,5.809 11.59,-2.163 23.134,-3.12 34.63,-2.87 0.516,-1.904 0.55,-4.114 0.103,-6.631z"/>
     </g>
    </g>
   </g>
   <g>
    <g>
     <g>
      <g>
       <path class="fil2" d="M294.263 75.876c-0.255,-0.246 -0.509,-0.492 -0.764,-0.739 -0.075,-0.094 -0.179,-0.136 -0.312,-0.125 -0.099,0.009 -0.196,0.05 -0.29,0.125 -0.094,0.075 -0.136,0.178 -0.125,0.311 -0.058,0.105 -0.048,0.222 0.029,0.349 0.512,0.927 0.627,1.921 0.347,2.981l-0.004 -0.05c-0.443,1.509 -1.536,2.653 -3.277,3.433 -1.745,0.746 -3.652,0.938 -5.722,0.574 -0.175,-0.085 -0.363,-0.137 -0.565,-0.153 -0.102,-0.025 -0.184,-0.002 -0.245,0.07 -0.128,0.077 -0.203,0.167 -0.228,0.27 -0.025,0.102 -0.016,0.219 0.028,0.349 0.009,0.099 0.065,0.178 0.17,0.237 0.922,0.626 2.047,1.084 3.375,1.375l-0.049 0.005c2.081,0.496 4.011,0.37 5.788,-0.38 1.805,-0.819 2.903,-2.097 3.295,-3.835l0.004 0.05c0.366,-1.636 -0.119,-3.252 -1.455,-4.847l0 0zm-25.982 2.505c-0.1,0.008 -0.178,0.065 -0.237,0.17 -0.274,0.324 -0.465,0.641 -0.573,0.951 -1.116,1.865 -1.328,3.555 -0.633,5.069l-0.005 -0.049c0.606,1.655 1.873,2.62 3.802,2.895 1.863,0.281 3.787,-0.113 5.772,-1.181 1.152,-0.63 2.145,-1.365 2.979,-2.203 0.094,-0.075 0.153,-0.163 0.178,-0.266 -0.011,-0.132 -0.037,-0.247 -0.079,-0.344 -0.041,-0.097 -0.114,-0.175 -0.22,-0.233 -0.138,-0.055 -0.239,-0.064 -0.303,-0.025 -0.196,0.05 -0.356,0.13 -0.481,0.241 -1.994,0.968 -3.922,1.311 -5.785,1.031 -1.796,-0.286 -3.033,-1.087 -3.711,-2.402 -0.445,-0.933 -0.511,-1.931 -0.198,-2.994 0.025,-0.102 0.034,-0.203 0.025,-0.303 -0.044,-0.13 -0.102,-0.225 -0.174,-0.286 -0.105,-0.058 -0.224,-0.082 -0.357,-0.071z"/>
      </g>
     </g>
    </g>
   </g>
  </g>
  <g id="body_FL_FL_FL_FL_FL">
   <g>
    <g>
     <g>
      <path class="fil0" d="M347.379 84.804c0.519,1.706 1.488,2.997 2.909,3.874 7.896,-2.197 15.792,-2.812 23.688,-1.846 1.053,-1.191 1.815,-2.617 2.285,-4.279 -9.505,-0.457 -19.133,0.293 -28.882,2.251z"/>
      <path class="fil1" d="M376.802 75.911l0 0c-0.771,-6.068 -0.314,-12.871 1.371,-20.407l-32.415 2.527c2.135,7.001 2.606,13.981 1.413,20.939 -0.312,2.302 -0.243,4.247 0.208,5.834 9.749,-1.958 19.377,-2.708 28.882,-2.251 0.558,-1.898 0.739,-4.112 0.541,-6.642z"/>
     </g>
    </g>
   </g>
   <g>
    <g>
     <g>
      <g>
       <path class="fil2" d="M373.394 61.277c-0.194,-0.252 -0.388,-0.503 -0.582,-0.755 -0.055,-0.096 -0.138,-0.139 -0.249,-0.13 -0.083,0.006 -0.167,0.046 -0.249,0.119 -0.083,0.073 -0.125,0.177 -0.125,0.31 -0.056,0.104 -0.056,0.221 0,0.35 0.36,0.938 0.388,1.936 0.083,2.993l0 -0.05c-0.471,1.504 -1.455,2.63 -2.951,3.38 -1.496,0.717 -3.089,0.874 -4.779,0.473 -0.138,-0.09 -0.291,-0.144 -0.457,-0.165 -0.083,-0.027 -0.152,-0.004 -0.208,0.067 -0.111,0.075 -0.18,0.164 -0.207,0.266 -0.028,0.102 -0.028,0.219 0,0.35 0,0.1 0.041,0.18 0.124,0.24 0.721,0.644 1.621,1.124 2.702,1.439l-0.042 0.004c1.69,0.535 3.297,0.443 4.821,-0.276 1.551,-0.787 2.549,-2.049 2.992,-3.783l0 0.05c0.415,-1.633 0.124,-3.26 -0.873,-4.882l0 0zm-21.693 2.04c-0.083,0.007 -0.153,0.062 -0.208,0.167 -0.249,0.319 -0.429,0.633 -0.54,0.942 -1.053,1.848 -1.344,3.538 -0.873,5.068l0 -0.05c0.388,1.669 1.371,2.66 2.951,2.97 1.523,0.314 3.144,-0.045 4.862,-1.079 0.997,-0.611 1.87,-1.329 2.618,-2.154 0.083,-0.073 0.139,-0.161 0.166,-0.263 0,-0.134 -0.014,-0.249 -0.041,-0.347 -0.028,-0.098 -0.083,-0.177 -0.167,-0.237 -0.11,-0.058 -0.193,-0.068 -0.249,-0.03 -0.166,0.046 -0.305,0.123 -0.415,0.232 -1.718,0.934 -3.339,1.244 -4.863,0.929 -1.468,-0.319 -2.438,-1.144 -2.909,-2.474 -0.305,-0.943 -0.291,-1.943 0.042,-3.003 0.027,-0.102 0.041,-0.203 0.041,-0.303 -0.027,-0.131 -0.069,-0.228 -0.124,-0.29 -0.084,-0.06 -0.18,-0.086 -0.291,-0.078z"/>
      </g>
     </g>
    </g>
   </g>
  </g>
  <g id="body_FL_FL_FL_FL_FL_FL">
   <g>
    <g>
     <g>
      <path class="fil0" d="M24.747 200.462c0.744,1.699 2.002,2.982 3.774,3.849 9.369,-2.233 18.846,-2.888 28.433,-1.965 1.187,-1.194 2.007,-2.62 2.46,-4.28 -11.492,-0.407 -23.048,0.392 -34.667,2.396z"/>
      <path class="fil1" d="M59.608 191.436l0 0c-1.348,-6.05 -1.266,-12.838 0.246,-20.365l-38.907 2.689c3.056,6.973 4.106,13.934 3.147,20.883 -0.217,2.298 0.001,4.237 0.653,5.819 11.619,-2.004 23.175,-2.803 34.667,-2.396 0.542,-1.897 0.606,-4.107 0.194,-6.63z"/>
     </g>
    </g>
   </g>
   <g>
    <g>
     <g>
      <g>
       <path class="fil2" d="M54.49 176.854c-0.251,-0.249 -0.502,-0.499 -0.753,-0.749 -0.074,-0.096 -0.177,-0.138 -0.31,-0.129 -0.1,0.007 -0.197,0.047 -0.292,0.12 -0.096,0.074 -0.139,0.177 -0.129,0.31 -0.06,0.104 -0.052,0.221 0.024,0.349 0.499,0.934 0.601,1.93 0.306,2.986l-0.003 -0.05c-0.464,1.502 -1.572,2.631 -3.325,3.387 -1.754,0.723 -3.664,0.888 -5.729,0.496 -0.173,-0.088 -0.36,-0.142 -0.562,-0.161 -0.102,-0.026 -0.184,-0.004 -0.246,0.067 -0.129,0.076 -0.206,0.165 -0.232,0.267 -0.027,0.102 -0.019,0.218 0.024,0.349 0.007,0.1 0.062,0.179 0.166,0.239 0.913,0.639 2.032,1.113 3.357,1.422l-0.05 0.004c2.074,0.524 4.005,0.424 5.793,-0.301 1.816,-0.794 2.931,-2.057 3.346,-3.79l0.004 0.05c0.388,-1.63 -0.075,-3.252 -1.389,-4.866l0 0zm-26.014 2.15c-0.1,0.006 -0.179,0.062 -0.239,0.166 -0.278,0.32 -0.474,0.634 -0.586,0.943 -1.142,1.85 -1.376,3.537 -0.703,5.061l-0.003 -0.05c0.582,1.663 1.837,2.646 3.762,2.947 1.859,0.306 3.788,-0.061 5.788,-1.101 1.16,-0.615 2.163,-1.336 3.008,-2.163 0.095,-0.073 0.156,-0.161 0.182,-0.263 -0.009,-0.133 -0.034,-0.248 -0.074,-0.346 -0.04,-0.097 -0.112,-0.176 -0.217,-0.236 -0.138,-0.057 -0.238,-0.067 -0.302,-0.029 -0.198,0.047 -0.359,0.125 -0.486,0.234 -2.006,0.941 -3.939,1.258 -5.798,0.952 -1.792,-0.31 -3.018,-1.128 -3.678,-2.452 -0.432,-0.939 -0.484,-1.938 -0.156,-2.996 0.026,-0.102 0.035,-0.203 0.029,-0.303 -0.043,-0.131 -0.099,-0.227 -0.17,-0.289 -0.105,-0.06 -0.224,-0.085 -0.357,-0.075z"/>
      </g>
     </g>
    </g>
   </g>
  </g>
  <g id="body_FL_FL_FL_FL_FL_FL_FL">
   <g>
    <g>
     <g>
      <path class="fil0" d="M103.831 197.723c0.555,1.77 1.667,3.181 3.335,4.235 9.555,-1.205 19.048,-0.831 28.478,1.124 1.309,-1.058 2.279,-2.387 2.909,-3.989 -11.38,-1.648 -22.955,-2.105 -34.722,-1.37z"/>
      <path class="fil1" d="M139.463 192.524l0 0c-0.685,-6.161 0.131,-12.9 2.449,-20.219l-38.97 -1.538c2.284,7.263 2.574,14.297 0.869,21.101 -0.464,2.261 -0.458,4.213 0.02,5.855 11.767,-0.735 23.342,-0.278 34.722,1.37 0.744,-1.827 1.047,-4.017 0.91,-6.569z"/>
     </g>
    </g>
   </g>
   <g>
    <g>
     <g>
      <g>
       <path class="fil2" d="M135.954 177.474c-0.223,-0.276 -0.446,-0.551 -0.668,-0.827 -0.063,-0.102 -0.161,-0.156 -0.294,-0.162 -0.1,-0.004 -0.201,0.026 -0.304,0.088 -0.102,0.063 -0.156,0.161 -0.161,0.294 -0.071,0.097 -0.075,0.214 -0.014,0.35 0.395,0.983 0.389,1.983 -0.019,3.002l0.003 -0.05c-0.624,1.443 -1.849,2.445 -3.672,3.007 -1.822,0.529 -3.739,0.487 -5.75,-0.126 -0.162,-0.107 -0.343,-0.181 -0.541,-0.222 -0.099,-0.037 -0.183,-0.024 -0.252,0.04 -0.136,0.061 -0.222,0.141 -0.26,0.24 -0.037,0.099 -0.042,0.215 -0.013,0.35 -0.004,0.099 0.042,0.185 0.14,0.255 0.838,0.734 1.899,1.326 3.182,1.777l-0.05 -0.002c2.005,0.747 3.936,0.856 5.791,0.329 1.892,-0.593 3.138,-1.728 3.738,-3.405l-0.002 0.049c0.562,-1.579 0.278,-3.241 -0.854,-4.987l0 0zm-26.094 -0.679c-0.1,-0.004 -0.185,0.042 -0.255,0.14 -0.312,0.288 -0.541,0.579 -0.685,0.873 -1.336,1.716 -1.751,3.367 -1.247,4.955l0.002 -0.05c0.4,1.717 1.54,2.829 3.421,3.337 1.815,0.506 3.773,0.35 5.873,-0.468 1.22,-0.486 2.295,-1.094 3.225,-1.825 0.102,-0.062 0.172,-0.143 0.209,-0.241 0.006,-0.134 -0.006,-0.251 -0.036,-0.352 -0.029,-0.101 -0.092,-0.187 -0.19,-0.258 -0.13,-0.072 -0.229,-0.092 -0.297,-0.062 -0.202,0.026 -0.371,0.086 -0.508,0.181 -2.097,0.717 -4.052,0.824 -5.867,0.319 -1.748,-0.503 -2.878,-1.448 -3.391,-2.837 -0.328,-0.98 -0.272,-1.979 0.168,-2.995 0.038,-0.099 0.058,-0.198 0.062,-0.298 -0.028,-0.135 -0.074,-0.236 -0.138,-0.305 -0.097,-0.071 -0.213,-0.109 -0.346,-0.114z"/>
      </g>
     </g>
    </g>
   </g>
  </g>
  <g id="body_FL_FL_FL_FL_FL_FL_FL_FL">
   <g>
    <g>
     <g>
      <path class="fil0" d="M174.8 201.05c0.624,1.746 1.791,3.113 3.5,4.1 9.5,-1.581 19,-1.581 28.5,0 1.266,-1.109 2.183,-2.475 2.75,-4.1 -11.437,-1.198 -23.021,-1.198 -34.75,0z"/>
      <path class="fil1" d="M210.2 194.45l0 0c-0.928,-6.129 -0.378,-12.895 1.65,-20.3l-39 0c2.568,7.167 3.135,14.184 1.7,21.05 -0.375,2.278 -0.292,4.228 0.25,5.85 11.73,-1.198 23.313,-1.198 34.75,0 0.671,-1.855 0.888,-4.055 0.65,-6.6z"/>
     </g>
    </g>
   </g>
   <g>
    <g>
     <g>
      <g>
       <path class="fil2" d="M206.1 179.55c-0.233,-0.267 -0.467,-0.533 -0.7,-0.8 -0.067,-0.1 -0.167,-0.15 -0.3,-0.15 -0.1,0 -0.2,0.034 -0.3,0.1 -0.1,0.067 -0.15,0.167 -0.15,0.3 -0.067,0.1 -0.067,0.217 0,0.35 0.433,0.967 0.467,1.967 0.1,3l0 -0.05c-0.567,1.467 -1.75,2.517 -3.55,3.15 -1.8,0.6 -3.717,0.633 -5.75,0.1 -0.167,-0.1 -0.35,-0.167 -0.55,-0.2 -0.1,-0.033 -0.183,-0.017 -0.25,0.05 -0.133,0.067 -0.217,0.15 -0.25,0.25 -0.033,0.1 -0.033,0.217 0,0.35 0,0.1 0.05,0.184 0.15,0.25 0.867,0.7 1.95,1.25 3.25,1.65l-0.05 0c2.033,0.667 3.967,0.7 5.8,0.1 1.866,-0.667 3.066,-1.85 3.6,-3.55l0 0.05c0.5,-1.6 0.15,-3.25 -1.05,-4.95l0 0zm-26.1 0.35c-0.1,0 -0.183,0.05 -0.25,0.15 -0.3,0.3 -0.517,0.6 -0.65,0.9 -1.267,1.767 -1.617,3.433 -1.05,5l0 -0.05c0.466,1.7 1.65,2.767 3.55,3.2 1.833,0.433 3.783,0.2 5.85,-0.7 1.2,-0.533 2.25,-1.183 3.15,-1.95 0.1,-0.067 0.167,-0.15 0.2,-0.25 0,-0.133 -0.017,-0.25 -0.05,-0.35 -0.033,-0.1 -0.1,-0.183 -0.2,-0.25 -0.133,-0.067 -0.234,-0.083 -0.3,-0.05 -0.2,0.033 -0.367,0.1 -0.5,0.2 -2.067,0.8 -4.017,0.983 -5.85,0.55 -1.767,-0.433 -2.933,-1.334 -3.5,-2.7 -0.367,-0.967 -0.35,-1.967 0.05,-3 0.033,-0.1 0.05,-0.2 0.05,-0.3 -0.033,-0.134 -0.084,-0.233 -0.15,-0.3 -0.1,-0.067 -0.217,-0.1 -0.35,-0.1z"/>
      </g>
     </g>
    </g>
   </g>
  </g>
  <g id="body_FL_FL_FL_FL_FL_FL_FL_FL_FL">
   <g>
    <g>
     <g>
      <path class="fil0" d="M336.325 201.521c0.7,1.664 1.85,2.882 3.451,3.657 8.318,-2.741 16.766,-3.906 25.345,-3.496 1.035,-1.26 1.737,-2.734 2.107,-4.423 -10.27,0.209 -20.571,1.629 -30.903,4.262z"/>
      <path class="fil1" d="M367.26 190.602l0 0c-1.331,-5.994 -1.401,-12.805 -0.209,-20.433l-34.682 4.783c2.876,6.828 3.96,13.751 3.25,20.77 -0.145,2.315 0.09,4.248 0.706,5.799 10.332,-2.633 20.633,-4.053 30.903,-4.262 0.443,-1.931 0.454,-4.15 0.032,-6.657z"/>
     </g>
    </g>
   </g>
   <g>
    <g>
     <g>
      <g>
       <path class="fil2" d="M362.384 176.256c-0.23,-0.237 -0.459,-0.474 -0.689,-0.712 -0.068,-0.091 -0.161,-0.128 -0.279,-0.112 -0.089,0.012 -0.175,0.058 -0.258,0.136 -0.084,0.079 -0.12,0.185 -0.109,0.318 -0.051,0.108 -0.041,0.224 0.029,0.349 0.465,0.91 0.577,1.902 0.337,2.977l-0.004 -0.05c-0.383,1.531 -1.349,2.723 -2.897,3.575 -1.552,0.818 -3.253,1.087 -5.106,0.805 -0.156,-0.08 -0.325,-0.124 -0.505,-0.132 -0.092,-0.021 -0.165,0.005 -0.218,0.08 -0.113,0.083 -0.181,0.176 -0.202,0.28 -0.021,0.104 -0.012,0.22 0.029,0.349 0.008,0.1 0.059,0.176 0.154,0.23 0.828,0.592 1.837,1.007 3.026,1.246l-0.044 0.006c1.863,0.415 3.585,0.211 5.166,-0.611 1.605,-0.894 2.574,-2.22 2.908,-3.98l0.004 0.05c0.313,-1.655 -0.135,-3.257 -1.342,-4.804l0 0zm-23.182 3.55c-0.088,0.012 -0.158,0.072 -0.209,0.18 -0.243,0.335 -0.41,0.661 -0.504,0.976 -0.981,1.916 -1.154,3.62 -0.521,5.112l-0.004 -0.05c0.555,1.637 1.696,2.555 3.421,2.754 1.666,0.207 3.381,-0.265 5.145,-1.415 1.023,-0.679 1.903,-1.455 2.64,-2.33 0.083,-0.079 0.136,-0.17 0.157,-0.274 -0.011,-0.132 -0.036,-0.246 -0.073,-0.342 -0.038,-0.096 -0.104,-0.171 -0.199,-0.225 -0.124,-0.05 -0.214,-0.054 -0.271,-0.013 -0.175,0.058 -0.318,0.145 -0.428,0.261 -1.772,1.05 -3.491,1.473 -5.157,1.265 -1.606,-0.215 -2.718,-0.969 -3.335,-2.261 -0.406,-0.919 -0.474,-1.917 -0.204,-2.996 0.022,-0.104 0.028,-0.206 0.02,-0.305 -0.041,-0.129 -0.093,-0.223 -0.158,-0.281 -0.095,-0.054 -0.201,-0.073 -0.32,-0.056z"/>
      </g>
     </g>
    </g>
   </g>
  </g>
  <g id="body_FL_FL_FL_FL_FL_FL_FL_FL_FL_FL">
   <g>
    <g>
     <g>
      <path class="fil0" d="M415.035 196.447c0.396,1.852 1.325,3.425 2.787,4.72 8.836,0.168 17.515,1.908 26.035,5.222 1.268,-0.871 2.242,-2.063 2.922,-3.576 -10.328,-3.287 -20.909,-5.41 -31.744,-6.366z"/>
      <path class="fil1" d="M448.033 196.365l0 0c-0.234,-6.267 0.945,-12.899 3.538,-19.895l-35.627 -7.145c1.629,7.602 1.445,14.687 -0.553,21.256 -0.57,2.197 -0.689,4.153 -0.356,5.866 10.835,0.956 21.416,3.079 31.744,6.366 0.799,-1.723 1.217,-3.872 1.254,-6.448z"/>
     </g>
    </g>
   </g>
   <g>
    <g>
     <g>
      <g>
       <path class="fil2" d="M445.778 180.789c-0.186,-0.308 -0.373,-0.616 -0.559,-0.924 -0.051,-0.112 -0.138,-0.18 -0.26,-0.204 -0.091,-0.019 -0.186,-0.004 -0.284,0.044 -0.097,0.048 -0.153,0.139 -0.167,0.271 -0.071,0.088 -0.082,0.204 -0.035,0.348 0.3,1.042 0.23,2.043 -0.208,3.004l0.005 -0.05c-0.665,1.356 -1.851,2.183 -3.558,2.484 -1.705,0.267 -3.459,-0.051 -5.263,-0.954 -0.142,-0.13 -0.303,-0.23 -0.482,-0.3 -0.088,-0.051 -0.166,-0.05 -0.234,0.004 -0.128,0.042 -0.213,0.109 -0.253,0.203 -0.041,0.094 -0.052,0.21 -0.035,0.348 -0.01,0.1 0.027,0.192 0.112,0.277 0.721,0.855 1.656,1.601 2.804,2.237l-0.046 -0.01c1.791,1.036 3.553,1.424 5.288,1.162 1.772,-0.321 2.987,-1.279 3.644,-2.872l-0.005 0.049c0.617,-1.5 0.462,-3.206 -0.464,-5.117l0 0zm-23.878 -4.433c-0.091,-0.019 -0.172,0.016 -0.243,0.104 -0.304,0.243 -0.532,0.502 -0.684,0.776 -1.334,1.526 -1.82,3.119 -1.459,4.782l0.005 -0.049c0.256,1.776 1.23,3.055 2.923,3.834 1.631,0.767 3.436,0.892 5.414,0.375 1.149,-0.311 2.173,-0.765 3.072,-1.363 0.098,-0.048 0.168,-0.119 0.208,-0.212 0.013,-0.133 0.01,-0.252 -0.011,-0.358 -0.02,-0.105 -0.072,-0.2 -0.157,-0.285 -0.115,-0.091 -0.205,-0.126 -0.269,-0.105 -0.186,-0.003 -0.345,0.032 -0.477,0.108 -1.968,0.417 -3.768,0.242 -5.399,-0.525 -1.571,-0.755 -2.547,-1.864 -2.928,-3.327 -0.238,-1.029 -0.122,-2.021 0.346,-2.976 0.041,-0.093 0.066,-0.19 0.076,-0.29 -0.017,-0.138 -0.053,-0.247 -0.107,-0.325 -0.085,-0.085 -0.188,-0.14 -0.31,-0.164z"/>
      </g>
     </g>
    </g>
   </g>
  </g>
  <g id="body_FL_FL_FL_FL_FL_FL_FL_FL_FL_FL_FL">
   <g>
    <g>
     <g>
      <path class="fil0" d="M501.125 201.293c0.758,1.623 1.961,2.77 3.61,3.442 8.369,-3.288 16.915,-5.005 25.64,-5.15 1.015,-1.33 1.686,-2.854 2.013,-4.571 -10.424,0.876 -20.845,2.969 -31.263,6.279z"/>
      <path class="fil1" d="M532.23 188.339l0 0c-1.524,-5.922 -1.791,-12.745 -0.799,-20.469l-35.087 7.047c3.118,6.657 4.417,13.527 3.898,20.609 -0.081,2.331 0.213,4.253 0.883,5.767 10.418,-3.31 20.839,-5.403 31.263,-6.279 0.395,-1.964 0.342,-4.189 -0.158,-6.675z"/>
     </g>
    </g>
   </g>
   <g>
    <g>
     <g>
      <g>
       <path class="fil2" d="M526.866 174.274c-0.24,-0.222 -0.48,-0.445 -0.72,-0.668 -0.071,-0.087 -0.167,-0.119 -0.287,-0.095 -0.09,0.018 -0.176,0.069 -0.259,0.154 -0.082,0.084 -0.116,0.192 -0.101,0.325 -0.048,0.111 -0.036,0.227 0.04,0.348 0.498,0.882 0.641,1.869 0.427,2.962l-0.006 -0.049c-0.344,1.56 -1.291,2.817 -2.839,3.771 -1.552,0.922 -3.273,1.301 -5.162,1.139 -0.161,-0.07 -0.334,-0.103 -0.517,-0.1 -0.094,-0.015 -0.167,0.017 -0.22,0.095 -0.112,0.09 -0.178,0.188 -0.196,0.294 -0.019,0.105 -0.006,0.221 0.039,0.347 0.011,0.1 0.066,0.174 0.163,0.222 0.858,0.539 1.895,0.89 3.11,1.052l-0.045 0.009c1.904,0.295 3.647,-0.021 5.229,-0.948 1.604,-1 2.551,-2.393 2.839,-4.178l0.006 0.049c0.27,-1.68 -0.231,-3.256 -1.501,-4.729l0 0zm-23.442 5.064c-0.09,0.019 -0.16,0.083 -0.208,0.195 -0.236,0.352 -0.398,0.689 -0.484,1.011 -0.941,1.984 -1.068,3.704 -0.382,5.158l-0.006 -0.05c0.611,1.605 1.796,2.452 3.554,2.539 1.698,0.099 3.426,-0.485 5.184,-1.753 1.02,-0.747 1.892,-1.582 2.615,-2.507 0.082,-0.084 0.133,-0.179 0.152,-0.284 -0.015,-0.133 -0.043,-0.246 -0.084,-0.339 -0.042,-0.093 -0.111,-0.164 -0.209,-0.212 -0.127,-0.042 -0.219,-0.041 -0.275,0.004 -0.176,0.069 -0.319,0.166 -0.428,0.289 -1.769,1.169 -3.503,1.703 -5.201,1.604 -1.638,-0.112 -2.789,-0.795 -3.452,-2.05 -0.439,-0.895 -0.536,-1.891 -0.293,-2.99 0.019,-0.106 0.023,-0.208 0.012,-0.308 -0.045,-0.126 -0.102,-0.216 -0.169,-0.271 -0.098,-0.048 -0.206,-0.06 -0.326,-0.036z"/>
      </g>
     </g>
    </g>
   </g>
  </g>
  <g id="body_FL_FL_FL_FL_FL_FL_FL_FL_FL_FL_FL_FL">
   <g>
    <g>
     <g>
      <path class="fil0" d="M584.35 91.05c0.625,1.746 1.791,3.113 3.5,4.1 9.5,-1.581 19,-1.581 28.5,0 1.267,-1.108 2.184,-2.475 2.75,-4.1 -11.437,-1.198 -23.02,-1.198 -34.75,0z"/>
      <path class="fil1" d="M619.75 84.45l0 0c-0.928,-6.129 -0.378,-12.896 1.65,-20.3l-39 0c2.569,7.167 3.136,14.184 1.7,21.05 -0.375,2.278 -0.291,4.227 0.25,5.85 11.73,-1.198 23.313,-1.198 34.75,0 0.671,-1.855 0.888,-4.055 0.65,-6.6z"/>
     </g>
    </g>
   </g>
   <g>
    <g>
     <g>
      <g>
       <path class="fil2" d="M615.65 69.55c-0.233,-0.267 -0.466,-0.533 -0.7,-0.8 -0.066,-0.1 -0.166,-0.15 -0.3,-0.15 -0.1,0 -0.2,0.033 -0.3,0.1 -0.1,0.067 -0.15,0.166 -0.15,0.3 -0.067,0.1 -0.067,0.216 0,0.35 0.433,0.967 0.467,1.967 0.1,3l0 -0.05c-0.566,1.467 -1.75,2.517 -3.55,3.15 -1.8,0.6 -3.716,0.633 -5.75,0.1 -0.166,-0.1 -0.35,-0.167 -0.55,-0.2 -0.1,-0.033 -0.183,-0.017 -0.25,0.05 -0.133,0.067 -0.216,0.15 -0.25,0.25 -0.033,0.1 -0.033,0.217 0,0.35 0,0.1 0.05,0.183 0.15,0.25 0.867,0.7 1.95,1.25 3.25,1.65l-0.05 0c2.034,0.667 3.967,0.7 5.8,0.1 1.867,-0.667 3.067,-1.85 3.6,-3.55l0 0.05c0.5,-1.6 0.15,-3.25 -1.05,-4.95l0 0zm-26.1 0.35c-0.1,0 -0.183,0.05 -0.25,0.15 -0.3,0.3 -0.516,0.6 -0.65,0.9 -1.267,1.767 -1.617,3.433 -1.05,5l0 -0.05c0.467,1.7 1.65,2.766 3.55,3.2 1.834,0.433 3.783,0.2 5.85,-0.7 1.2,-0.533 2.25,-1.183 3.15,-1.95 0.1,-0.067 0.167,-0.15 0.2,-0.25 0,-0.134 -0.016,-0.25 -0.05,-0.35 -0.033,-0.1 -0.1,-0.183 -0.2,-0.25 -0.133,-0.067 -0.233,-0.083 -0.3,-0.05 -0.2,0.033 -0.366,0.1 -0.5,0.2 -2.066,0.8 -4.017,0.983 -5.85,0.55 -1.766,-0.433 -2.933,-1.333 -3.5,-2.7 -0.367,-0.967 -0.35,-1.967 0.05,-3 0.034,-0.1 0.05,-0.2 0.05,-0.3 -0.033,-0.133 -0.083,-0.234 -0.15,-0.3 -0.1,-0.067 -0.216,-0.1 -0.35,-0.1z"/>
      </g>
     </g>
    </g>
   </g>
  </g>
  <g id="body_FL_FL_FL_FL_FL_FL_FL_FL_FL_FL_FL_FL_FL">
   <g>
    <g>
     <g>
      <path class="fil0" d="M585.372 195.05c0.559,1.746 1.605,3.113 3.136,4.1 8.513,-1.581 17.026,-1.581 25.539,0 1.135,-1.109 1.957,-2.475 2.464,-4.1 -10.248,-1.198 -20.628,-1.198 -31.139,0z"/>
      <path class="fil1" d="M617.094 188.45l0 0c-0.832,-6.129 -0.339,-12.895 1.478,-20.3l-34.948 0c2.302,7.167 2.81,14.184 1.524,21.05 -0.336,2.278 -0.262,4.228 0.224,5.85 10.511,-1.198 20.891,-1.198 31.139,0 0.601,-1.855 0.796,-4.055 0.583,-6.6z"/>
     </g>
    </g>
   </g>
   <g>
    <g>
     <g>
      <g>
       <path class="fil2" d="M613.42 173.55c-0.209,-0.267 -0.419,-0.533 -0.628,-0.8 -0.059,-0.1 -0.149,-0.15 -0.268,-0.15 -0.09,0 -0.179,0.034 -0.269,0.1 -0.09,0.067 -0.135,0.167 -0.135,0.3 -0.059,0.1 -0.059,0.217 0,0.35 0.389,0.967 0.418,1.967 0.09,3l0 -0.05c-0.508,1.467 -1.568,2.517 -3.181,3.15 -1.613,0.6 -3.331,0.633 -5.153,0.1 -0.149,-0.1 -0.314,-0.167 -0.493,-0.2 -0.089,-0.033 -0.164,-0.017 -0.224,0.05 -0.119,0.067 -0.194,0.15 -0.224,0.25 -0.029,0.1 -0.029,0.217 0,0.35 0,0.1 0.045,0.183 0.135,0.25 0.776,0.7 1.747,1.25 2.912,1.65l-0.045 0c1.822,0.667 3.555,0.7 5.198,0.1 1.673,-0.667 2.748,-1.85 3.226,-3.55l0 0.05c0.448,-1.6 0.134,-3.25 -0.941,-4.95l0 0zm-23.389 0.35c-0.089,0 -0.164,0.05 -0.224,0.15 -0.268,0.3 -0.463,0.6 -0.582,0.9 -1.135,1.767 -1.449,3.433 -0.941,5l0 -0.05c0.418,1.7 1.479,2.767 3.181,3.2 1.643,0.433 3.391,0.2 5.243,-0.7 1.075,-0.533 2.016,-1.183 2.822,-1.95 0.09,-0.067 0.149,-0.15 0.179,-0.25 0,-0.133 -0.015,-0.25 -0.044,-0.35 -0.03,-0.1 -0.09,-0.183 -0.18,-0.25 -0.119,-0.067 -0.209,-0.083 -0.269,-0.05 -0.179,0.033 -0.328,0.1 -0.447,0.2 -1.852,0.8 -3.6,0.983 -5.243,0.55 -1.583,-0.433 -2.628,-1.334 -3.136,-2.7 -0.329,-0.967 -0.314,-1.967 0.045,-3 0.029,-0.1 0.045,-0.2 0.045,-0.3 -0.03,-0.134 -0.075,-0.233 -0.135,-0.3 -0.09,-0.067 -0.194,-0.1 -0.314,-0.1z"/>
      </g>
     </g>
    </g>
   </g>
  </g>
  <g id="body_FL_FL_FL_FL_FL_FL_FL_FL_FL_FL_FL_FL_FL_FL">
   <g>
    <g>
     <g>
      <path class="fil0" d="M125.468 314.158c1.937,0.256 3.757,0.013 5.462,-0.729 2.777,-6.821 7.052,-13.039 12.827,-18.654 -0.481,-1.252 -1.364,-2.372 -2.649,-3.363 -6.283,7.03 -11.496,14.612 -15.64,22.746z"/>
      <path class="fil1" d="M135.145 288.473l0 0c-6.227,-1.728 -12.393,-4.666 -18.498,-8.815l-17.553 25.528c7.949,1.049 14.855,3.352 20.717,6.907 1.99,1.113 3.876,1.801 5.657,2.065 4.144,-8.134 9.357,-15.716 15.64,-22.746 -1.456,-1.145 -3.443,-2.126 -5.963,-2.939z"/>
     </g>
    </g>
   </g>
   <g>
    <g>
     <g>
      <g>
       <path class="fil2" d="M119.177 285.48c-0.358,0.051 -0.716,0.102 -1.073,0.153 -0.125,0.005 -0.218,0.052 -0.277,0.139 -0.045,0.066 -0.059,0.144 -0.041,0.235 0.018,0.09 0.091,0.161 0.217,0.212 0.065,0.082 0.175,0.126 0.332,0.133 1.111,0.085 2.074,0.444 2.888,1.078l-0.047 -0.019c1.135,0.93 1.598,2.104 1.388,3.524 -0.242,1.406 -1.072,2.674 -2.493,3.801 -0.17,0.071 -0.316,0.166 -0.437,0.284 -0.077,0.053 -0.099,0.114 -0.065,0.183 0.003,0.113 0.044,0.199 0.124,0.259 0.08,0.06 0.19,0.104 0.332,0.133 0.095,0.038 0.196,0.037 0.304,-0.003 1.054,-0.301 2.062,-0.8 3.027,-1.498l-0.023 0.032c1.547,-1.077 2.449,-2.33 2.706,-3.758 0.208,-1.476 -0.374,-2.712 -1.745,-3.709l0.047 0.019c-1.291,-0.937 -3.013,-1.336 -5.164,-1.198l0 0zm-11.415 17.217c-0.045,0.065 -0.036,0.138 0.029,0.22 0.15,0.311 0.336,0.567 0.561,0.769 1.104,1.502 2.527,2.366 4.267,2.592l-0.048 -0.019c1.821,0.342 3.365,-0.026 4.631,-1.105 1.236,-1.035 1.893,-2.4 1.97,-4.095 0.034,-0.989 -0.11,-1.924 -0.431,-2.805 -0.018,-0.091 -0.067,-0.167 -0.147,-0.226 -0.126,-0.051 -0.244,-0.085 -0.354,-0.101 -0.11,-0.016 -0.219,-0.004 -0.327,0.036 -0.124,0.062 -0.184,0.121 -0.183,0.177 -0.058,0.144 -0.07,0.278 -0.035,0.403 -0.172,1.658 -0.876,3.004 -2.112,4.039 -1.206,0.991 -2.584,1.412 -4.134,1.262 -1.081,-0.128 -2.022,-0.52 -2.821,-1.175 -0.08,-0.06 -0.167,-0.109 -0.262,-0.147 -0.141,-0.029 -0.259,-0.035 -0.352,-0.017 -0.108,0.04 -0.192,0.104 -0.252,0.192z"/>
      </g>
     </g>
    </g>
   </g>
  </g>
  <g id="body_FL_FL_FL_FL_FL_FL_FL_FL_FL_FL_FL_FL_FL_FL_FL">
   <g>
    <g>
     <g>
      <path class="fil0" d="M664.85 90.05c0.625,1.746 1.792,3.113 3.5,4.1 9.5,-1.581 19.001,-1.581 28.5,0 1.267,-1.109 2.183,-2.475 2.75,-4.1 -11.437,-1.198 -23.02,-1.198 -34.75,0z"/>
      <path class="fil1" d="M700.25 83.45l0 0c-0.927,-6.129 -0.378,-12.896 1.65,-20.3l-39 0c2.569,7.167 3.135,14.184 1.7,21.05 -0.375,2.278 -0.291,4.228 0.25,5.85 11.73,-1.198 23.313,-1.198 34.75,0 0.672,-1.855 0.888,-4.055 0.65,-6.6z"/>
     </g>
    </g>
   </g>
   <g>
    <g>
     <g>
      <g>
       <path class="fil2" d="M696.15 68.55c-0.233,-0.267 -0.466,-0.534 -0.7,-0.8 -0.066,-0.1 -0.166,-0.15 -0.3,-0.15 -0.1,0 -0.2,0.033 -0.3,0.1 -0.1,0.067 -0.15,0.166 -0.15,0.3 -0.066,0.1 -0.066,0.216 0,0.35 0.434,0.967 0.467,1.967 0.1,3l0 -0.05c-0.566,1.467 -1.75,2.517 -3.55,3.15 -1.8,0.6 -3.716,0.633 -5.75,0.1 -0.166,-0.1 -0.35,-0.167 -0.549,-0.2 -0.101,-0.033 -0.184,-0.017 -0.251,0.05 -0.133,0.067 -0.216,0.15 -0.25,0.25 -0.033,0.1 -0.033,0.216 0,0.35 0,0.1 0.05,0.183 0.15,0.25 0.867,0.7 1.95,1.25 3.25,1.65l-0.05 0c2.034,0.667 3.967,0.7 5.8,0.1 1.867,-0.667 3.067,-1.85 3.6,-3.55l0 0.05c0.5,-1.6 0.15,-3.25 -1.05,-4.95l0 0zm-26.1 0.35c-0.1,0 -0.183,0.05 -0.25,0.15 -0.3,0.3 -0.516,0.6 -0.65,0.9 -1.266,1.767 -1.616,3.433 -1.05,5l0 -0.05c0.467,1.7 1.65,2.767 3.55,3.2 1.834,0.433 3.784,0.2 5.85,-0.7 1.2,-0.533 2.25,-1.183 3.15,-1.95 0.1,-0.067 0.167,-0.15 0.2,-0.25 0,-0.134 -0.016,-0.25 -0.05,-0.35 -0.033,-0.1 -0.1,-0.183 -0.2,-0.25 -0.133,-0.067 -0.233,-0.084 -0.3,-0.05 -0.2,0.033 -0.366,0.1 -0.5,0.2 -2.067,0.8 -4.016,0.983 -5.85,0.55 -1.766,-0.434 -2.933,-1.333 -3.5,-2.7 -0.366,-0.967 -0.35,-1.967 0.05,-3 0.033,-0.1 0.05,-0.2 0.05,-0.3 -0.033,-0.133 -0.083,-0.234 -0.15,-0.3 -0.1,-0.067 -0.216,-0.1 -0.35,-0.1z"/>
      </g>
     </g>
    </g>
   </g>
  </g>
  <g id="body_FL_FL_FL_FL_FL_FL_FL_FL_FL_FL_FL_FL_FL_FL_FL_FL">
   <g>
    <g>
     <g>
      <path class="fil0" d="M666.322 195.05c0.559,1.746 1.605,3.113 3.136,4.1 8.513,-1.581 17.026,-1.581 25.539,0 1.135,-1.109 1.957,-2.475 2.465,-4.1 -10.249,-1.198 -20.629,-1.198 -31.14,0z"/>
      <path class="fil1" d="M698.044 188.45l0 0c-0.832,-6.129 -0.339,-12.895 1.478,-20.3l-34.948 0c2.302,7.167 2.81,14.184 1.524,21.05 -0.336,2.278 -0.261,4.228 0.224,5.85 10.511,-1.198 20.891,-1.198 31.14,0 0.601,-1.855 0.795,-4.055 0.582,-6.6z"/>
     </g>
    </g>
   </g>
   <g>
    <g>
     <g>
      <g>
       <path class="fil2" d="M694.37 173.55c-0.209,-0.267 -0.419,-0.533 -0.628,-0.8 -0.059,-0.1 -0.149,-0.15 -0.268,-0.15 -0.09,0 -0.179,0.034 -0.269,0.1 -0.09,0.067 -0.135,0.167 -0.135,0.3 -0.059,0.1 -0.059,0.217 0,0.35 0.389,0.967 0.418,1.967 0.09,3l0 -0.05c-0.508,1.467 -1.568,2.517 -3.181,3.15 -1.613,0.6 -3.331,0.633 -5.153,0.1 -0.149,-0.1 -0.313,-0.167 -0.493,-0.2 -0.089,-0.033 -0.164,-0.017 -0.223,0.05 -0.12,0.067 -0.195,0.15 -0.225,0.25 -0.029,0.1 -0.029,0.217 0,0.35 0,0.1 0.045,0.183 0.135,0.25 0.777,0.7 1.747,1.25 2.912,1.65l-0.044 0c1.822,0.667 3.554,0.7 5.197,0.1 1.673,-0.667 2.748,-1.85 3.226,-3.55l0 0.05c0.448,-1.6 0.134,-3.25 -0.941,-4.95l0 0zm-23.389 0.35c-0.089,0 -0.164,0.05 -0.223,0.15 -0.269,0.3 -0.463,0.6 -0.583,0.9 -1.135,1.767 -1.449,3.433 -0.941,5l0 -0.05c0.418,1.7 1.479,2.767 3.181,3.2 1.643,0.433 3.391,0.2 5.243,-0.7 1.075,-0.533 2.016,-1.183 2.822,-1.95 0.09,-0.067 0.149,-0.15 0.18,-0.25 0,-0.133 -0.016,-0.25 -0.045,-0.35 -0.03,-0.1 -0.09,-0.183 -0.18,-0.25 -0.119,-0.067 -0.209,-0.083 -0.269,-0.05 -0.179,0.033 -0.328,0.1 -0.447,0.2 -1.852,0.8 -3.6,0.983 -5.243,0.55 -1.583,-0.433 -2.628,-1.334 -3.136,-2.7 -0.329,-0.967 -0.314,-1.967 0.045,-3 0.03,-0.1 0.045,-0.2 0.045,-0.3 -0.03,-0.134 -0.075,-0.233 -0.135,-0.3 -0.09,-0.067 -0.194,-0.1 -0.314,-0.1z"/>
      </g>
     </g>
    </g>
   </g>
  </g>
  <g id="body_FL_FL_FL_FL_FL_FL_FL_FL_FL_FL_FL_FL_FL_FL_FL_FL_FL">
   <g>
    <g>
     <g>
      <path class="fil0" d="M254.415 201.05c0.365,1.746 1.275,3.113 2.731,4.1 8.952,-1.581 17.711,-1.581 26.28,0 1.302,-1.109 2.312,-2.475 3.031,-4.1 -10.401,-1.198 -21.081,-1.198 -32.042,0z"/>
      <path class="fil1" d="M287.855 194.45l0 0c-0.115,-6.129 1.211,-12.895 3.976,-20.3l-35.961 0c1.502,7.167 1.176,14.184 -0.978,21.05 -0.621,2.278 -0.78,4.228 -0.477,5.85 10.961,-1.198 21.641,-1.198 32.042,0 0.843,-1.855 1.309,-4.055 1.398,-6.6z"/>
     </g>
    </g>
   </g>
   <g>
    <g>
     <g>
      <g>
       <path class="fil2" d="M285.876 179.55c-0.183,-0.267 -0.366,-0.533 -0.549,-0.8 -0.049,-0.1 -0.135,-0.15 -0.258,-0.15 -0.092,0 -0.189,0.034 -0.289,0.1 -0.1,0.067 -0.159,0.167 -0.174,0.3 -0.074,0.1 -0.088,0.217 -0.043,0.35 0.283,0.967 0.193,1.967 -0.27,3l0.006 -0.05c-0.7,1.467 -1.918,2.517 -3.655,3.15 -1.732,0.6 -3.503,0.633 -5.314,0.1 -0.141,-0.1 -0.302,-0.167 -0.483,-0.2 -0.088,-0.033 -0.167,-0.017 -0.236,0.05 -0.131,0.067 -0.218,0.15 -0.261,0.25 -0.043,0.1 -0.057,0.217 -0.042,0.35 -0.012,0.1 0.024,0.184 0.108,0.25 0.714,0.7 1.647,1.25 2.797,1.65l-0.046 0c1.794,0.667 3.573,0.7 5.336,0.1 1.802,-0.667 3.051,-1.85 3.749,-3.55l-0.007 0.05c0.655,-1.6 0.532,-3.25 -0.369,-4.95l0 0zm-24.109 0.35c-0.092,0 -0.175,0.05 -0.248,0.15 -0.313,0.3 -0.549,0.6 -0.708,0.9 -1.382,1.767 -1.906,3.433 -1.573,5l0.006 -0.05c0.225,1.7 1.187,2.767 2.886,3.2 1.638,0.433 3.464,0.2 5.479,-0.7 1.171,-0.533 2.218,-1.183 3.14,-1.95 0.101,-0.067 0.172,-0.15 0.215,-0.25 0.016,-0.133 0.015,-0.25 -0.004,-0.35 -0.018,-0.1 -0.07,-0.183 -0.154,-0.25 -0.115,-0.067 -0.205,-0.083 -0.271,-0.05 -0.188,0.033 -0.35,0.1 -0.485,0.2 -2.002,0.8 -3.822,0.983 -5.46,0.55 -1.577,-0.433 -2.544,-1.334 -2.901,-2.7 -0.221,-0.967 -0.085,-1.967 0.409,-3 0.042,-0.1 0.07,-0.2 0.082,-0.3 -0.015,-0.134 -0.048,-0.233 -0.102,-0.3 -0.084,-0.067 -0.187,-0.1 -0.311,-0.1z"/>
      </g>
     </g>
    </g>
   </g>
  </g>
  <g id="body_FL_FL_FL_FL_FL_FL_FL_FL_FL_FL_FL_FL_FL_FL_FL_FL_FL_FL">
   <g>
    <g>
     <g>
      <path class="fil0" d="M192.071 303.63c0.56,1.651 1.605,2.842 3.137,3.57 8.513,-3.018 17.026,-4.455 25.539,-4.312 1.135,-1.3 1.956,-2.805 2.464,-4.516 -10.249,0.532 -20.629,2.285 -31.14,5.258z"/>
      <path class="fil1" d="M223.793 291.674l0 0c-0.831,-5.988 -0.338,-12.838 1.479,-20.55l-34.948 5.901c2.302,6.779 2.809,13.709 1.523,20.793 -0.336,2.334 -0.261,4.271 0.224,5.812 10.511,-2.973 20.891,-4.726 31.14,-5.258 0.601,-1.956 0.795,-4.189 0.582,-6.698z"/>
     </g>
    </g>
   </g>
   <g>
    <g>
     <g>
      <g>
       <path class="fil2" d="M220.119 277.394c-0.209,-0.231 -0.418,-0.462 -0.627,-0.694 -0.06,-0.09 -0.149,-0.125 -0.269,-0.104 -0.09,0.015 -0.179,0.063 -0.269,0.145 -0.089,0.082 -0.134,0.189 -0.134,0.322 -0.06,0.11 -0.06,0.227 0,0.35 0.388,0.901 0.418,1.897 0.09,2.986l0 -0.05c-0.508,1.552 -1.568,2.781 -3.182,3.687 -1.613,0.872 -3.33,1.195 -5.152,0.969 -0.149,-0.074 -0.314,-0.113 -0.493,-0.116 -0.09,-0.019 -0.164,0.011 -0.224,0.088 -0.12,0.086 -0.194,0.182 -0.224,0.287 -0.03,0.105 -0.03,0.222 0,0.35 0,0.1 0.045,0.176 0.134,0.228 0.777,0.569 1.748,0.955 2.913,1.158l-0.045 0.007c1.822,0.359 3.554,0.1 5.197,-0.777 1.673,-0.949 2.748,-2.314 3.226,-4.095l0 0.05c0.448,-1.675 0.135,-3.272 -0.941,-4.791l0 0zm-23.388 4.299c-0.09,0.015 -0.164,0.078 -0.224,0.188 -0.269,0.345 -0.463,0.678 -0.583,0.998 -1.135,1.958 -1.448,3.678 -0.94,5.159l0 -0.05c0.418,1.629 1.478,2.517 3.181,2.663 1.643,0.156 3.39,-0.372 5.242,-1.585 1.075,-0.715 2.016,-1.524 2.823,-2.427 0.089,-0.082 0.149,-0.175 0.179,-0.28 0,-0.134 -0.015,-0.247 -0.045,-0.343 -0.03,-0.094 -0.09,-0.168 -0.179,-0.219 -0.12,-0.047 -0.209,-0.048 -0.269,-0.005 -0.179,0.064 -0.328,0.156 -0.448,0.276 -1.852,1.113 -3.599,1.591 -5.242,1.435 -1.583,-0.166 -2.629,-0.89 -3.137,-2.171 -0.328,-0.911 -0.313,-1.913 0.045,-3.007 0.03,-0.105 0.045,-0.208 0.045,-0.308 -0.03,-0.128 -0.075,-0.22 -0.134,-0.277 -0.09,-0.052 -0.195,-0.067 -0.314,-0.047z"/>
      </g>
     </g>
    </g>
   </g>
  </g>
  <g id="body_FL_FL_FL_FL_FL_FL_FL_FL_FL_FL_FL_FL_FL_FL_FL_FL_FL_FL_FL">
   <g>
    <g>
     <g>
      <path class="fil0" d="M265.376 307.906c0.576,1.733 1.652,3.075 3.228,4.027 8.761,-1.779 17.522,-1.978 26.283,-0.595 1.168,-1.134 2.013,-2.52 2.536,-4.157 -10.547,-0.96 -21.23,-0.718 -32.047,0.725z"/>
      <path class="fil1" d="M298.022 300.567l0 0c-0.855,-6.109 -0.348,-12.887 1.522,-20.334l-35.966 0.813c2.369,7.114 2.891,14.119 1.567,21.015 -0.345,2.285 -0.268,4.234 0.231,5.845 10.817,-1.443 21.5,-1.685 32.047,-0.725 0.619,-1.869 0.819,-4.074 0.599,-6.614z"/>
     </g>
    </g>
   </g>
   <g>
    <g>
     <g>
      <g>
       <path class="fil2" d="M294.241 285.753c-0.215,-0.262 -0.43,-0.524 -0.645,-0.785 -0.062,-0.099 -0.154,-0.147 -0.277,-0.144 -0.092,0.002 -0.184,0.037 -0.276,0.106 -0.093,0.069 -0.139,0.17 -0.139,0.303 -0.061,0.102 -0.061,0.218 0,0.35 0.4,0.958 0.431,1.957 0.092,2.998l0 -0.05c-0.522,1.479 -1.613,2.553 -3.273,3.224 -1.66,0.638 -3.428,0.711 -5.303,0.22 -0.154,-0.097 -0.323,-0.159 -0.507,-0.188 -0.092,-0.032 -0.17,-0.013 -0.231,0.055 -0.123,0.069 -0.2,0.154 -0.23,0.255 -0.031,0.1 -0.031,0.217 0,0.35 0,0.1 0.046,0.182 0.138,0.247 0.799,0.682 1.798,1.209 2.997,1.582l-0.046 0.001c1.875,0.624 3.658,0.617 5.349,-0.021 1.721,-0.705 2.828,-1.914 3.32,-3.625l0 0.05c0.461,-1.61 0.138,-3.253 -0.969,-4.928l0 0zm-24.069 0.894c-0.092,0.002 -0.169,0.054 -0.231,0.156 -0.276,0.306 -0.476,0.61 -0.599,0.913 -1.168,1.793 -1.491,3.467 -0.968,5.022l0 -0.05c0.43,1.69 1.521,2.732 3.273,3.126 1.691,0.395 3.489,0.121 5.395,-0.822 1.107,-0.559 2.075,-1.23 2.905,-2.016 0.092,-0.069 0.154,-0.153 0.185,-0.254 0,-0.133 -0.016,-0.25 -0.046,-0.349 -0.031,-0.099 -0.093,-0.181 -0.185,-0.246 -0.123,-0.064 -0.215,-0.078 -0.277,-0.044 -0.184,0.038 -0.338,0.108 -0.461,0.211 -1.906,0.843 -3.704,1.067 -5.395,0.672 -1.629,-0.397 -2.705,-1.272 -3.227,-2.627 -0.339,-0.959 -0.323,-1.959 0.046,-3.001 0.03,-0.101 0.046,-0.201 0.046,-0.301 -0.031,-0.133 -0.077,-0.232 -0.138,-0.297 -0.093,-0.065 -0.2,-0.095 -0.323,-0.093z"/>
      </g>
     </g>
    </g>
   </g>
  </g>
  <g>
   <g>
    <g>
     <g>
      <path class="fil0" d="M344.3 310.05c0.625,1.747 1.791,3.113 3.5,4.1 9.5,-1.581 19,-1.581 28.5,0 1.267,-1.108 2.183,-2.475 2.75,-4.1 -11.437,-1.198 -23.02,-1.198 -34.75,0z"/>
      <path class="fil1" d="M379.7 303.45l0 0c-0.928,-6.129 -0.378,-12.895 1.65,-20.3l-39 0c2.569,7.168 3.135,14.184 1.7,21.05 -0.375,2.278 -0.291,4.228 0.25,5.85 11.73,-1.198 23.313,-1.198 34.75,0 0.671,-1.855 0.888,-4.055 0.65,-6.6z"/>
     </g>
    </g>
   </g>
  </g>
  <g id="body_FL_FL_FL_FL_FL_FL_FL_FL_FL_FL_FL_FL_FL_FL_FL_FL_FL_FL_FL_FL_FL">
   <g>
    <g>
     <g>
      <path class="fil0" d="M424.3 311.05c0.625,1.747 1.792,3.113 3.5,4.1 9.5,-1.581 19,-1.581 28.5,0 1.267,-1.108 2.183,-2.475 2.75,-4.1 -11.437,-1.198 -23.02,-1.198 -34.75,0z"/>
      <path class="fil1" d="M459.7 304.45l0 0c-0.928,-6.129 -0.378,-12.895 1.65,-20.3l-39 0c2.569,7.168 3.135,14.184 1.7,21.05 -0.375,2.278 -0.292,4.228 0.25,5.85 11.73,-1.198 23.313,-1.198 34.75,0 0.671,-1.855 0.888,-4.055 0.65,-6.6z"/>
     </g>
    </g>
   </g>
   <g>
    <g>
     <g>
      <g>
       <path class="fil2" d="M455.6 289.55c-0.233,-0.267 -0.467,-0.533 -0.7,-0.8 -0.067,-0.1 -0.166,-0.15 -0.3,-0.15 -0.1,0 -0.2,0.033 -0.3,0.1 -0.1,0.067 -0.15,0.167 -0.15,0.3 -0.066,0.1 -0.066,0.217 0,0.35 0.434,0.967 0.467,1.967 0.1,3l0 -0.05c-0.566,1.467 -1.75,2.517 -3.55,3.15 -1.8,0.6 -3.717,0.634 -5.75,0.1 -0.166,-0.1 -0.35,-0.166 -0.55,-0.2 -0.1,-0.033 -0.183,-0.017 -0.25,0.05 -0.133,0.067 -0.216,0.15 -0.25,0.25 -0.033,0.1 -0.033,0.217 0,0.35 0,0.1 0.05,0.183 0.15,0.25 0.867,0.7 1.95,1.25 3.25,1.65l-0.05 0c2.033,0.667 3.967,0.7 5.8,0.1 1.867,-0.667 3.067,-1.85 3.6,-3.55l0 0.05c0.5,-1.6 0.15,-3.25 -1.05,-4.95l0 0zm-26.1 0.35c-0.1,0 -0.183,0.05 -0.25,0.15 -0.3,0.3 -0.517,0.6 -0.65,0.9 -1.267,1.767 -1.616,3.434 -1.05,5l0 -0.05c0.467,1.7 1.65,2.767 3.55,3.2 1.834,0.434 3.783,0.2 5.85,-0.7 1.2,-0.533 2.25,-1.183 3.15,-1.95 0.1,-0.067 0.167,-0.15 0.2,-0.25 0,-0.133 -0.017,-0.25 -0.05,-0.35 -0.033,-0.1 -0.1,-0.183 -0.2,-0.25 -0.133,-0.067 -0.233,-0.083 -0.3,-0.05 -0.2,0.034 -0.367,0.1 -0.5,0.2 -2.067,0.8 -4.017,0.983 -5.85,0.55 -1.767,-0.433 -2.933,-1.333 -3.5,-2.7 -0.366,-0.967 -0.35,-1.966 0.05,-3 0.033,-0.1 0.05,-0.2 0.05,-0.3 -0.033,-0.133 -0.083,-0.233 -0.15,-0.3 -0.1,-0.066 -0.217,-0.1 -0.35,-0.1z"/>
      </g>
     </g>
    </g>
   </g>
  </g>
  <g>
   <g>
    <g>
     <g>
      <path class="fil0" d="M455.479 81.54c-0.617,1.846 -1.768,3.398 -3.455,4.656 -9.377,-0.071 -18.753,1.439 -28.13,4.53 -1.25,-0.907 -2.155,-2.128 -2.714,-3.663 11.288,-3.016 22.721,-4.857 34.299,-5.523z"/>
      <path class="fil1" d="M420.538 80.566l0 0c0.916,-6.276 0.373,-12.955 -1.628,-20.038l38.493 -6.198c-2.535,7.576 -3.094,14.682 -1.678,21.32 0.37,2.219 0.288,4.182 -0.246,5.89 -11.578,0.666 -23.011,2.507 -34.299,5.523 -0.663,-1.748 -0.876,-3.914 -0.642,-6.497z"/>
     </g>
    </g>
   </g>
  </g>
 </g>
</svg>
