<?xml version="1.0" encoding="UTF-8"?>
<!DOCTYPE svg PUBLIC "-//W3C//DTD SVG 1.1//EN" "http://www.w3.org/Graphics/SVG/1.1/DTD/svg11.dtd">
<!-- Creator: CorelDRAW 2018 (64-Bit) -->
<svg xmlns="http://www.w3.org/2000/svg" xml:space="preserve" width="320px" height="160px" version="1.1" style="shape-rendering:geometricPrecision; text-rendering:geometricPrecision; image-rendering:optimizeQuality; fill-rule:evenodd; clip-rule:evenodd"
viewBox="0 0 320 160"
 xmlns:xlink="http://www.w3.org/1999/xlink">
 <defs>
  <style type="text/css">
   <![CDATA[
    .fil0 {fill:#D04435}
    .fil4 {fill:#E76916}
    .fil7 {fill:#ECBC00}
    .fil1 {fill:#F0911E}
    .fil5 {fill:#F0C000}
    .fil3 {fill:#FF7419}
    .fil2 {fill:#FFCC00}
    .fil6 {fill:white}
    .fil8 {fill:black;fill-opacity:0.011765}
   ]]>
  </style>
 </defs>
 <g id="Слой_x0020_1">
  <metadata id="CorelCorpID_0Corel-Layer"/>
  <g>
   <path class="fil0" d="M43.116 110.081c0,-0.594 -0.297,-1.081 -0.89,-1.463 -0.636,-0.466 -1.378,-0.699 -2.226,-0.699 -0.89,0 -1.632,0.233 -2.225,0.699l-0.573 0.445c-0.254,0.297 -0.381,0.636 -0.381,1.018l0 0.127 0.381 5.404c0.128,1.06 0.318,2.014 0.573,2.862 0.593,2.416 1.335,3.624 2.225,3.624 0.848,0 1.59,-1.208 2.226,-3.624 0.551,-2.332 0.848,-5.087 0.89,-8.266l0 -0.127 0 0zm1.335 18.313l-0.954 -0.7 -2.289 22.955 -0.318 0.827 -0.89 0.318 -0.826 -0.318c-0.255,-0.212 -0.403,-0.488 -0.446,-0.827l-2.161 -22.955 -1.018 0.7 -0.89 0.254c-0.339,-0.042 -0.615,-0.17 -0.827,-0.382l-0.318 -0.89 0 -10.047 -3.56 1.272 -0.764 0.064 -0.636 -0.445 -0.317 -0.636c-0.042,-0.297 0.021,-0.551 0.19,-0.763l2.48 -4.833 -3.052 0 -0.763 -0.318 -0.445 -0.763c-0.043,-0.339 0.043,-0.635 0.255,-0.89 2.924,-4.367 7.291,-6.55 13.098,-6.55 5.808,0 10.196,2.183 13.162,6.55l0.191 0.89 -0.381 0.763 -0.89 0.318 -2.925 0 2.416 4.833 0.127 0.763 -0.318 0.636 -0.636 0.445 -0.699 -0.064 -3.625 -1.272 0 10.047 -0.317 0.89 -0.763 0.382 -0.891 -0.254z"/>
  </g>
  <path class="fil1" d="M43.116 110.081l0 0.127c-0.042,3.179 -0.339,5.934 -0.89,8.266 -0.636,2.416 -1.378,3.624 -2.226,3.624 -0.89,0 -1.632,-1.208 -2.225,-3.624 -0.254,-0.848 -0.445,-1.802 -0.573,-2.862l-0.381 -5.404 0 -0.127c0,-0.382 0.127,-0.721 0.381,-1.018l0.573 -0.445c0.593,-0.466 1.335,-0.699 2.225,-0.699 0.848,0 1.59,0.233 2.226,0.699 0.593,0.382 0.89,0.869 0.89,1.463z"/>
  <g>
   <path class="fil0" d="M122.947 109.52c0,-0.594 -0.297,-1.081 -0.89,-1.462 -0.636,-0.467 -1.378,-0.7 -2.226,-0.7 -0.89,0 -1.632,0.233 -2.225,0.7l-0.573 0.445c-0.254,0.296 -0.382,0.635 -0.382,1.017l0 0.127 0.382 5.405c0.128,1.06 0.318,2.014 0.573,2.861 0.593,2.417 1.335,3.625 2.225,3.625 0.848,0 1.59,-1.208 2.226,-3.625 0.551,-2.331 0.848,-5.086 0.89,-8.266l0 -0.127 0 0zm1.335 18.313l-0.954 -0.7 -2.289 22.956 -0.318 0.826 -0.89 0.318 -0.826 -0.318c-0.255,-0.212 -0.403,-0.487 -0.446,-0.826l-2.162 -22.956 -1.017 0.7 -0.89 0.255c-0.339,-0.043 -0.615,-0.17 -0.827,-0.382l-0.318 -0.89 0 -10.047 -3.561 1.272 -0.763 0.063 -0.636 -0.445 -0.317 -0.636c-0.043,-0.296 0.021,-0.551 0.19,-0.763l2.48 -4.833 -3.052 0 -0.763 -0.317 -0.445 -0.764c-0.043,-0.339 0.042,-0.635 0.254,-0.89 2.925,-4.366 7.292,-6.549 13.099,-6.549 5.807,0 10.195,2.183 13.162,6.549l0.191 0.89 -0.382 0.764 -0.89 0.317 -2.924 0 2.416 4.833 0.127 0.763 -0.318 0.636 -0.636 0.445 -0.699 -0.063 -3.625 -1.272 0 10.047 -0.318 0.89 -0.763 0.382 -0.89 -0.255z"/>
  </g>
  <path class="fil1" d="M122.947 109.52l0 0.127c-0.042,3.18 -0.339,5.935 -0.89,8.266 -0.636,2.417 -1.378,3.625 -2.226,3.625 -0.89,0 -1.632,-1.208 -2.225,-3.625 -0.255,-0.847 -0.445,-1.801 -0.573,-2.861l-0.382 -5.405 0 -0.127c0,-0.382 0.128,-0.721 0.382,-1.017l0.573 -0.445c0.593,-0.467 1.335,-0.7 2.225,-0.7 0.848,0 1.59,0.233 2.226,0.7 0.593,0.381 0.89,0.868 0.89,1.462z"/>
  <g>
   <path class="fil0" d="M203.127 110.377c0,-0.594 -0.297,-1.081 -0.89,-1.463 -0.636,-0.466 -1.378,-0.699 -2.226,-0.699 -0.89,0 -1.632,0.233 -2.225,0.699l-0.573 0.445c-0.254,0.297 -0.381,0.636 -0.381,1.018l0 0.127 0.381 5.404c0.128,1.06 0.318,2.014 0.573,2.862 0.593,2.416 1.335,3.624 2.225,3.624 0.848,0 1.59,-1.208 2.226,-3.624 0.551,-2.332 0.848,-5.087 0.89,-8.266l0 -0.127 0 0zm1.335 18.313l-0.954 -0.7 -2.289 22.955 -0.318 0.827 -0.89 0.317 -0.826 -0.317c-0.255,-0.212 -0.403,-0.488 -0.446,-0.827l-2.161 -22.955 -1.018 0.7 -0.89 0.254c-0.339,-0.042 -0.615,-0.17 -0.827,-0.382l-0.318 -0.89 0 -10.047 -3.561 1.272 -0.763 0.064 -0.636 -0.446 -0.317 -0.635c-0.042,-0.297 0.021,-0.551 0.19,-0.763l2.48 -4.833 -3.052 0 -0.763 -0.318 -0.445 -0.763c-0.043,-0.339 0.042,-0.635 0.255,-0.89 2.924,-4.367 7.291,-6.55 13.098,-6.55 5.807,0 10.196,2.183 13.162,6.55l0.191 0.89 -0.381 0.763 -0.89 0.318 -2.925 0 2.416 4.833 0.127 0.763 -0.318 0.635 -0.636 0.446 -0.699 -0.064 -3.625 -1.272 0 10.047 -0.317 0.89 -0.764 0.382 -0.89 -0.254z"/>
  </g>
  <path class="fil1" d="M203.127 110.377l0 0.127c-0.042,3.179 -0.339,5.934 -0.89,8.266 -0.636,2.416 -1.378,3.624 -2.226,3.624 -0.89,0 -1.632,-1.208 -2.225,-3.624 -0.255,-0.848 -0.445,-1.802 -0.573,-2.862l-0.381 -5.404 0 -0.127c0,-0.382 0.127,-0.721 0.381,-1.018l0.573 -0.445c0.593,-0.466 1.335,-0.699 2.225,-0.699 0.848,0 1.59,0.233 2.226,0.699 0.593,0.382 0.89,0.869 0.89,1.463z"/>
  <g>
   <path class="fil0" d="M283.135 109.476c0,-0.593 -0.296,-1.081 -0.89,-1.462 -0.636,-0.467 -1.378,-0.7 -2.226,-0.7 -0.89,0 -1.632,0.233 -2.225,0.7l-0.573 0.445c-0.254,0.296 -0.381,0.636 -0.381,1.017l0 0.127 0.381 5.405c0.128,1.06 0.318,2.014 0.573,2.862 0.593,2.416 1.335,3.624 2.225,3.624 0.848,0 1.59,-1.208 2.226,-3.624 0.551,-2.332 0.848,-5.087 0.89,-8.267l0 -0.127 0 0zm1.335 18.313l-0.953 -0.7 -2.29 22.956 -0.318 0.826 -0.89 0.318 -0.826 -0.318c-0.255,-0.211 -0.403,-0.487 -0.445,-0.826l-2.162 -22.956 -1.018 0.7 -0.89 0.255c-0.339,-0.043 -0.615,-0.17 -0.827,-0.382l-0.318 -0.89 0 -10.047 -3.56 1.272 -0.763 0.063 -0.637 -0.445 -0.317 -0.636c-0.042,-0.296 0.021,-0.551 0.19,-0.763l2.48 -4.832 -3.052 0 -0.762 -0.318 -0.446 -0.763c-0.042,-0.339 0.043,-0.636 0.255,-0.891 2.924,-4.366 7.291,-6.549 13.098,-6.549 5.808,0 10.196,2.183 13.163,6.549l0.19 0.891 -0.381 0.763 -0.89 0.318 -2.925 0 2.416 4.832 0.127 0.763 -0.318 0.636 -0.636 0.445 -0.699 -0.063 -3.624 -1.272 0 10.047 -0.318 0.89 -0.763 0.382 -0.891 -0.255z"/>
  </g>
  <path class="fil1" d="M283.135 109.476l0 0.127c-0.042,3.18 -0.339,5.935 -0.89,8.267 -0.636,2.416 -1.378,3.624 -2.226,3.624 -0.89,0 -1.632,-1.208 -2.225,-3.624 -0.254,-0.848 -0.445,-1.802 -0.573,-2.862l-0.381 -5.405 0 -0.127c0,-0.381 0.127,-0.721 0.381,-1.017l0.573 -0.445c0.593,-0.467 1.335,-0.7 2.225,-0.7 0.848,0 1.59,0.233 2.226,0.7 0.594,0.381 0.89,0.869 0.89,1.462z"/>
  <g>
   <path class="fil2" d="M45.087 108.555l0 0.19c-0.042,7.546 -0.53,14.011 -1.462,19.394 -1.018,5.596 -2.226,8.394 -3.625,8.394 -1.399,0 -2.586,-2.798 -3.56,-8.394l-0.89 -6.613c-0.382,-3.858 -0.594,-8.118 -0.637,-12.781l0 -0.19c0,-0.891 0.212,-1.696 0.637,-2.417l0.89 -1.145c0.974,-1.017 2.161,-1.526 3.56,-1.526 1.399,0 2.607,0.509 3.625,1.526 0.975,0.976 1.462,2.162 1.462,3.562l0 0zm-2.543 0.317c0,-0.678 -0.254,-1.271 -0.764,-1.78 -0.466,-0.508 -1.059,-0.763 -1.78,-0.763 -0.678,0 -1.272,0.255 -1.78,0.763 -0.509,0.509 -0.763,1.102 -0.763,1.78 0,2.12 0.254,3.9 0.763,5.342 0.508,1.526 1.102,2.289 1.78,2.289 0.721,0 1.314,-0.763 1.78,-2.289 0.509,-1.442 0.764,-3.222 0.764,-5.342z"/>
  </g>
  <g>
   <path class="fil3" d="M20.119 45.276c-5.433,-1.433 -8.133,-3.2 -8.1,-5.3 -0.066,-2.067 2.633,-3.833 8.1,-5.3l2.65 -0.65c-1.4,-4.534 -1,-7.9 1.2,-10.1 2.167,-2.167 5.5,-2.55 10,-1.15l0.65 -2.6c1.5,-5.534 3.3,-8.284 5.4,-8.25 2.1,0 3.867,2.75 5.3,8.25l0.6 2.6c4.534,-1.4 7.884,-1.017 10.05,1.15 2.2,2.2 2.583,5.55 1.15,10.05l2.7 0.7c5.467,1.467 8.217,3.216 8.25,5.25 -0.033,2.1 -2.783,3.883 -8.25,5.35l-2.7 0.7c1.433,4.5 1.067,7.817 -1.1,9.95 -2.166,2.2 -5.533,2.583 -10.1,1.15l-0.6 2.7c-1.466,5.467 -3.233,8.216 -5.3,8.25 -2.133,-0.033 -3.933,-2.784 -5.4,-8.25l-0.55 -2.7c-4.533,1.466 -7.9,1.1 -10.1,-1.1 -2.2,-2.167 -2.583,-5.5 -1.15,-10l-2.7 -0.7 0 0zm6.65 -12.95l1.1 1.8c-3.067,1.566 -4.583,3.516 -4.55,5.85 -0.066,2.2 1.467,4.133 4.6,5.8l-1.05 1.7c-2.099,3.666 -2.617,6.033 -1.55,7.1 1.1,1.1 3.467,0.6 7.1,-1.5l1.75 -1.1c1.634,3.133 3.584,4.717 5.85,4.75 2.3,-0.033 4.25,-1.6 5.85,-4.7l1.7 1.05c3.667,2.166 6.05,2.666 7.15,1.5 1.1,-1.034 0.583,-3.384 -1.55,-7.05l-1.05 -1.75c3.134,-1.634 4.684,-3.584 4.65,-5.85 0,-2.267 -1.55,-4.217 -4.65,-5.85l1.05 -1.75c2.133,-3.634 2.667,-5.984 1.6,-7.05 -1.133,-1.1 -3.533,-0.617 -7.2,1.45l-1.75 1.05c-1.633,-3.1 -3.583,-4.65 -5.85,-4.65 -2.266,0 -4.217,1.55 -5.85,4.65l-1.75 -0.95c-3.6,-2.134 -5.95,-2.683 -7.05,-1.65 -1.066,1.133 -0.583,3.516 1.45,7.15z"/>
  </g>
  <path class="fil4" d="M26.769 32.326c-2.033,-3.634 -2.517,-6.017 -1.45,-7.15 1.1,-1.033 3.45,-0.484 7.05,1.65l1.75 0.95c1.633,-3.1 3.584,-4.65 5.85,-4.65 2.267,0 4.217,1.55 5.85,4.65l1.75 -1.05c3.667,-2.067 6.067,-2.55 7.2,-1.45 1.067,1.066 0.533,3.416 -1.6,7.05l-1.05 1.75c3.1,1.633 4.65,3.583 4.65,5.85 0.034,2.266 -1.516,4.216 -4.65,5.85l1.05 1.75c2.133,3.666 2.651,6.016 1.55,7.05 -1.1,1.166 -3.483,0.666 -7.15,-1.5l-1.7 -1.05c-1.6,3.1 -3.55,4.667 -5.85,4.7 -2.266,-0.033 -4.216,-1.617 -5.85,-4.75l-1.75 1.1c-3.633,2.1 -6,2.6 -7.1,1.5 -1.066,-1.067 -0.55,-3.434 1.55,-7.1l1.05 -1.7c-3.133,-1.667 -4.666,-3.6 -4.6,-5.8 -0.033,-2.334 1.484,-4.284 4.55,-5.85l-1.1 -1.8z"/>
  <g>
   <path class="fil2" d="M30.519 31.926l0.2 0.4 -0.15 0.5c-0.333,1.033 -0.266,2.35 0.2,3.95 0.3,1 0.7,1.95 1.2,2.85l0.05 0.3 -0.05 0.45c-0.5,0.899 -0.866,1.8 -1.1,2.7 -0.5,1.666 -0.566,3.017 -0.2,4.05l0.05 0.5 -0.25 0.35 -1.8 2.2c-2.333,2.9 -3.466,4.4 -3.4,4.5l4.5 -3.35 0.05 -0.05 2.2 -1.75 0.35 -0.25 0.45 0.05 4.05 -0.25c0.933,-0.2 1.85,-0.534 2.75,-1 0.134,-0.1 0.267,-0.15 0.4,-0.15 0.134,0 0.267,0.05 0.4,0.15l2.65 1 0.1 0.05 4.05 0.2 0.4 0 0.5 0.2 2.1 1.8 4.5 3.35 -3.4 -4.45 -1.8 -2.2 -0.2 -0.4 0 -0.4c0.4,-1.133 0.35,-2.517 -0.15,-4.15l-1.05 -2.65 -0.15 -0.45 0.1 -0.35 1.15 -2.9 0 0.1c0.467,-1.667 0.517,-3 0.15,-4l-0.05 -0.5 0.15 -0.35 1.85 -2.25 3.4 -4.5c-0.233,0.033 -1.733,1.166 -4.5,3.4l-2.1 1.85 -0.45 0.1 -0.4 0 -4.1 0.2c-0.933,0.266 -1.85,0.633 -2.75,1.1l-0.45 0.1 -0.4 -0.1c-0.866,-0.467 -1.783,-0.834 -2.75,-1.1l-4.05 -0.2 -0.4 0.05 -0.4 -0.15 -2.15 -1.85 -4.55 -3.35c-0.066,0.133 1.084,1.616 3.45,4.45l1.8 2.2 0 0zm23.75 19.65c3.234,3.933 4.567,6.167 4,6.7 -0.533,0.533 -2.783,-0.8 -6.75,-4l-2.6 -2.15 -5.5 -0.25c-1.166,-0.3 -2.316,-0.767 -3.45,-1.4 -1.1,0.666 -2.216,1.133 -3.35,1.4l-5.55 0.2 -2.6 2.2c-3.933,3.2 -6.183,4.516 -6.75,3.95 -0.533,-0.534 0.784,-2.75 3.95,-6.65l2.2 -2.7c-0.5,-1.433 -0.416,-3.234 0.25,-5.4 0.334,-1.2 0.783,-2.35 1.35,-3.45 -0.6,-1.167 -1.083,-2.35 -1.45,-3.55 -0.6,-2.167 -0.65,-3.967 -0.15,-5.4l-2.2 -2.6c-3.166,-3.967 -4.483,-6.217 -3.95,-6.75 0.567,-0.533 2.817,0.783 6.75,3.95l2.55 2.2 5.4 0.2c1.233,0.266 2.434,0.716 3.6,1.35 1.167,-0.6 2.334,-1.05 3.5,-1.35l5.4 -0.25 2.65 -2.15c3.934,-3.167 6.167,-4.484 6.7,-3.95 0.567,0.566 -0.766,2.816 -4,6.75l-2.2 2.5c0.567,1.5 0.55,3.316 -0.05,5.45 -0.366,1.233 -0.883,2.416 -1.55,3.55 0.634,1.1 1.1,2.266 1.4,3.5 0.667,2.133 0.75,3.95 0.25,5.45l2.15 2.65z"/>
  </g>
  <path class="fil5" d="M30.519 31.926l-1.8 -2.2c-2.367,-2.834 -3.516,-4.317 -3.45,-4.45l4.55 3.35 2.15 1.85 0.4 0.15 0.4 -0.05 4.05 0.2c0.967,0.266 1.884,0.633 2.75,1.1l0.4 0.1 0.45 -0.1c0.9,-0.467 1.817,-0.834 2.75,-1.1l4.1 -0.2 0.4 0 0.45 -0.1 2.1 -1.85c2.767,-2.234 4.267,-3.367 4.5,-3.4l-3.4 4.5 -1.85 2.25 -0.15 0.35 0.05 0.5c0.367,1 0.317,2.333 -0.15,4l0 -0.1 -1.15 2.9 -0.1 0.35 0.15 0.45 1.05 2.65c0.5,1.633 0.55,3.017 0.15,4.15l0 0.4 0.2 0.4 1.8 2.2 3.4 4.45 -4.5 -3.35 -2.1 -1.8 -0.5 -0.2 -0.4 0 -4.05 -0.2 -0.1 -0.05 -2.65 -1c-0.133,-0.1 -0.266,-0.15 -0.4,-0.15 -0.133,0 -0.266,0.05 -0.4,0.15 -0.9,0.466 -1.817,0.8 -2.75,1l-4.05 0.25 -0.45 -0.05 -0.35 0.25 -2.2 1.75 -0.05 0.05 -4.5 3.35c-0.066,-0.1 1.067,-1.6 3.4,-4.5l1.8 -2.2 0.25 -0.35 -0.05 -0.5c-0.366,-1.033 -0.3,-2.384 0.2,-4.05 0.234,-0.9 0.6,-1.8 1.1,-2.7l0.05 -0.45 -0.05 -0.3c-0.5,-0.9 -0.9,-1.85 -1.2,-2.85 -0.466,-1.6 -0.533,-2.917 -0.2,-3.95l0.15 -0.5 -0.2 -0.4z"/>
  <path class="fil6" d="M41.269 30.976l0.25 7.5 7.5 0.25c2.934,0.2 4.367,0.616 4.3,1.25 0.067,0.633 -1.366,1.05 -4.3,1.25l-7.5 0.25 -0.25 7.5c-0.199,2.966 -0.616,4.4 -1.25,4.3 -0.633,0.1 -1.05,-1.334 -1.25,-4.3 -0.166,-2.1 -0.25,-4.6 -0.25,-7.5l-7.5 -0.25c-2.966,-0.2 -4.4,-0.617 -4.3,-1.25 -0.1,-0.634 1.334,-1.05 4.3,-1.25l7.5 -0.25c0,-2.867 0.084,-5.367 0.25,-7.5 0.2,-2.934 0.617,-4.367 1.25,-4.3 0.634,-0.067 1.05,1.366 1.25,4.3z"/>
  <g>
   <path class="fil4" d="M194.52 26.726c-0.267,0.7 -0.667,1.283 -1.2,1.75 -0.601,0.5 -1.251,0.8 -1.951,0.9 -1.5,0.233 -2.8,0.917 -3.9,2.05l0 0.05c-1.3,1.266 -1.999,2.8 -2.1,4.6l-0.55 1.8 -1.3 1.4 -0.25 0.2 -0.1 0.15c-1.433,1.4 -2.15,3.116 -2.15,5.15 0,2.033 0.734,3.783 2.201,5.25 1.133,1.133 2.466,1.816 3.999,2.05 0.601,0.1 1.167,0.333 1.7,0.7 0.534,0.366 0.95,0.833 1.25,1.4l1.4 1.85c1.434,1.433 3.151,2.15 5.15,2.15l0.051 0c1.633,0.033 3.066,-0.4 4.3,-1.3 0.566,-0.4 1.2,-0.634 1.899,-0.7l2.001 0.25c0.966,0.4 1.999,0.617 3.1,0.65l0.099 0c1.967,-0.033 3.667,-0.75 5.1,-2.15 1.434,-1.467 2.151,-3.217 2.151,-5.25l-0.051 -0.8c-0.099,-0.634 -0.05,-1.25 0.15,-1.85 0.2,-0.6 0.534,-1.117 1,-1.55l0.4 -0.4 0 -0.05c1.434,-1.434 2.151,-3.167 2.151,-5.2 0,-1.867 -0.617,-3.484 -1.851,-4.85 -0.399,-0.467 -0.683,-0.967 -0.85,-1.5 -0.2,-0.6 -0.249,-1.184 -0.15,-1.75l0.101 -1.6c0,-2.034 -0.7,-3.75 -2.1,-5.15 -1.434,-1.434 -3.184,-2.167 -5.251,-2.2l-0.049 0 -1.401 0.15c-0.966,0.2 -1.866,0.083 -2.699,-0.35 -1.001,-0.533 -2.084,-0.8 -3.25,-0.8l-0.051 0c-2.066,0.033 -3.8,0.766 -5.2,2.2 -0.866,0.833 -1.466,1.75 -1.799,2.75l0 0zm21.549 31c-2.233,2.233 -4.899,3.35 -7.999,3.35 -1.667,-0.034 -3.217,-0.35 -4.65,-0.95 -1.934,1.4 -4.167,2.083 -6.701,2.05 -3.1,0 -5.766,-1.117 -7.999,-3.35 -0.867,-0.867 -1.567,-1.8 -2.1,-2.8 -2.4,-0.367 -4.484,-1.434 -6.251,-3.2 -2.233,-2.234 -3.349,-4.917 -3.349,-8.05 0,-3.134 1.099,-5.8 3.3,-8l1.049 -0.9c0.134,-2.8 1.217,-5.217 3.25,-7.25 1.734,-1.767 3.767,-2.834 6.1,-3.2 0.534,-1.567 1.45,-3 2.75,-4.3 2.2,-2.2 4.884,-3.317 8.05,-3.35 1.867,0 3.584,0.416 5.15,1.25l2.3 -0.25c3.167,0.033 5.85,1.15 8.051,3.35 2.2,2.2 3.299,4.866 3.299,8l-0.15 2.15c1.934,2.133 2.9,4.65 2.9,7.55 0,3.167 -1.116,5.85 -3.349,8.05l-0.401 0.4 0.101 1.4c0,3.133 -1.117,5.817 -3.351,8.05l0 0zm-19.35 -26.2l-0.05 0.05c0.167,-0.5 0.484,-1.017 0.951,-1.55l0.299 -0.3c0.867,-0.834 1.917,-1.25 3.151,-1.25l0.049 0c0.734,-0.034 1.4,0.117 2.001,0.45l0.099 0.05c0.5,0.233 1.034,0.333 1.601,0.3l0.099 -0.05 0.951 -0.1 0.049 0c1.2,0 2.267,0.416 3.201,1.25l0.099 0.1c0.867,0.833 1.3,1.916 1.3,3.25l0 0.2 -0.049 0.7 0.049 1.25 0.651 1.1 0 0.1c0.766,0.8 1.149,1.766 1.149,2.9l0 0.05c0,1.267 -0.449,2.366 -1.349,3.3l-0.251 0.25 0 -0.05 -0.7 1.15 0 -0.05c-0.133,0.366 -0.166,0.767 -0.1,1.2l0.051 0.45 0 0.1c-0.034,1.366 -0.534,2.5 -1.501,3.4 -0.8,0.767 -1.733,1.183 -2.799,1.25l-0.251 0 -1.6 -0.25 -0.399 -0.1 -1.401 -0.25c-0.5,0 -0.933,0.166 -1.299,0.5l-0.051 0c-0.733,0.6 -1.6,0.866 -2.6,0.8l-0.099 0c-1.267,0 -2.334,-0.434 -3.201,-1.3l-0.249 -0.3 -0.35 -0.45 -0.251 -0.4 -0.85 -0.95 -0.05 -0.05 -1.15 -0.5 -0.249 -0.05c-0.767,-0.167 -1.467,-0.534 -2.101,-1.1l-0.299 -0.25c-0.834,-0.9 -1.251,-1.967 -1.251,-3.2l0 -0.05c-0.033,-1.1 0.384,-2.117 1.251,-3.05l0.099 -0.15 0.051 -0.05 0.399 -0.3 0.7 -0.85 0.301 -1.15 0.049 -0.05c0.067,-1 0.451,-1.917 1.151,-2.75l0.15 -0.1c0.733,-0.767 1.55,-1.184 2.449,-1.25l1.3 -0.65 0.85 -1.25 0 0zm12.201 4.45c-0.3,-1.134 -0.334,-2.25 -0.101,-3.35l0 -0.25c0,-0.467 -0.15,-0.85 -0.45,-1.15 -0.333,-0.3 -0.716,-0.45 -1.149,-0.45l-0.051 0 -0.55 0.05c-1.633,0.266 -3.166,0.016 -4.6,-0.75l-0.649 -0.1 -0.051 0c-0.466,0 -0.866,0.15 -1.2,0.45l-0.35 0.6c-0.466,1.266 -1.216,2.35 -2.25,3.25 -1.033,0.866 -2.216,1.416 -3.55,1.65 -0.266,0.033 -0.516,0.166 -0.75,0.4 -0.266,0.3 -0.416,0.633 -0.45,1 -0.066,1.033 -0.35,2.033 -0.85,3 -0.5,0.933 -1.183,1.716 -2.05,2.35l-0.05 0.05c-0.3,0.333 -0.449,0.7 -0.449,1.1l0 0.05c0,0.467 0.149,0.866 0.449,1.2l0.85 0.45c1.134,0.166 2.184,0.6 3.151,1.3 0.933,0.633 1.683,1.483 2.25,2.55l0.35 0.45c0.3,0.3 0.666,0.45 1.099,0.45l0.101 0 0.85 -0.2c1.066,-0.8 2.266,-1.267 3.6,-1.4 1.333,-0.134 2.6,0.083 3.8,0.65l0.699 0.1c0.4,-0.034 0.75,-0.2 1.05,-0.5 0.334,-0.3 0.5,-0.684 0.5,-1.15l0 -0.05 0 -0.1c-0.166,-1.134 -0.066,-2.233 0.301,-3.3 0.399,-1.067 0.983,-2 1.749,-2.8l0.301 -0.3c0.333,-0.334 0.5,-0.734 0.5,-1.2l0 -0.05c0,-0.367 -0.117,-0.684 -0.35,-0.95 -0.834,-0.9 -1.401,-1.917 -1.7,-3.05z"/>
  </g>
  <g>
   <path class="fil3" d="M194.52 26.726c0.333,-1 0.933,-1.917 1.799,-2.75 1.4,-1.434 3.134,-2.167 5.2,-2.2l0.051 0c1.166,0 2.249,0.266 3.25,0.8 0.833,0.433 1.733,0.55 2.699,0.35l1.401 -0.15 0.049 0c2.067,0.033 3.817,0.766 5.251,2.2 1.4,1.4 2.1,3.116 2.1,5.15l-0.101 1.6c-0.099,0.566 -0.05,1.15 0.15,1.75 0.167,0.533 0.451,1.033 0.85,1.5 1.234,1.366 1.851,2.983 1.851,4.85 0,2.033 -0.717,3.766 -2.151,5.2l0 0.05 -0.4 0.4c-0.466,0.433 -0.8,0.95 -1,1.55 -0.2,0.6 -0.249,1.216 -0.15,1.85l0.051 0.8c0,2.033 -0.717,3.783 -2.151,5.25 -1.433,1.4 -3.133,2.117 -5.1,2.15l-0.099 0c-1.101,-0.033 -2.134,-0.25 -3.1,-0.65l-2.001 -0.25c-0.699,0.066 -1.333,0.3 -1.899,0.7 -1.234,0.9 -2.667,1.333 -4.3,1.3l-0.051 0c-1.999,0 -3.716,-0.717 -5.15,-2.15l-1.4 -1.85c-0.3,-0.567 -0.716,-1.034 -1.25,-1.4 -0.533,-0.367 -1.099,-0.6 -1.7,-0.7 -1.533,-0.234 -2.866,-0.917 -3.999,-2.05 -1.467,-1.467 -2.201,-3.217 -2.201,-5.25 0,-2.034 0.717,-3.75 2.15,-5.15l0.1 -0.15 0.25 -0.2 1.3 -1.4 0.55 -1.8c0.101,-1.8 0.8,-3.334 2.1,-4.6l0 -0.05c1.1,-1.134 2.4,-1.817 3.9,-2.05 0.7,-0.1 1.35,-0.4 1.951,-0.9 0.533,-0.467 0.933,-1.05 1.2,-1.75l0 0zm2.199 4.8l-0.85 1.25 -1.3 0.65c-0.899,0.066 -1.716,0.483 -2.449,1.25l-0.15 0.1c-0.7,0.833 -1.084,1.75 -1.151,2.75l-0.049 0.05 -0.301 1.15 -0.7 0.85 -0.399 0.3 -0.051 0.05 -0.099 0.15c-0.867,0.933 -1.284,1.95 -1.251,3.05l0 0.05c0,1.233 0.417,2.3 1.251,3.2l0.299 0.25c0.634,0.566 1.334,0.933 2.101,1.1l0.249 0.05 1.15 0.5 0.05 0.05 0.85 0.95 0.251 0.4 0.35 0.45 0.249 0.3c0.867,0.866 1.934,1.3 3.201,1.3l0.099 0c1,0.066 1.867,-0.2 2.6,-0.8l0.051 0c0.366,-0.334 0.799,-0.5 1.299,-0.5l1.401 0.25 0.399 0.1 1.6 0.25 0.251 0c1.066,-0.067 1.999,-0.483 2.799,-1.25 0.967,-0.9 1.467,-2.034 1.501,-3.4l0 -0.1 -0.051 -0.45c-0.066,-0.433 -0.033,-0.834 0.1,-1.2l0 0.05 0.7 -1.15 0 0.05 0.251 -0.25c0.9,-0.934 1.349,-2.033 1.349,-3.3l0 -0.05c0,-1.134 -0.383,-2.1 -1.149,-2.9l0 -0.1 -0.651 -1.1 -0.049 -1.25 0.049 -0.7 0 -0.2c0,-1.334 -0.433,-2.417 -1.3,-3.25l-0.099 -0.1c-0.934,-0.834 -2.001,-1.25 -3.201,-1.25l-0.049 0 -0.951 0.1 -0.099 0.05c-0.567,0.033 -1.101,-0.067 -1.601,-0.3l-0.099 -0.05c-0.601,-0.333 -1.267,-0.484 -2.001,-0.45l-0.049 0c-1.234,0 -2.284,0.416 -3.151,1.25l-0.299 0.3c-0.467,0.533 -0.784,1.05 -0.951,1.55l0.05 -0.05z"/>
  </g>
  <g>
   <path class="fil2" d="M201.469 38.126c-0.399,0.4 -0.883,0.616 -1.449,0.65 -0.567,-0.034 -1.05,-0.25 -1.451,-0.65l-7.25 -6.85 6.85 7.25c0.4,0.4 0.6,0.9 0.6,1.5 0,0.533 -0.2,1 -0.6,1.4 -2.633,2.633 -4.916,5.05 -6.85,7.25l7.25 -6.85c0.4,-0.4 0.884,-0.584 1.451,-0.55 0.566,-0.033 1.05,0.15 1.449,0.55l7.25 6.85 -6.85 -7.25c-0.4,-0.4 -0.6,-0.867 -0.6,-1.4 0,-0.6 0.2,-1.1 0.6,-1.5l6.85 -7.25c-2.2,1.933 -4.616,4.216 -7.25,6.85l0 0zm9.65 -6.55l-7.8 8.4c3.1,3.1 5.7,5.9 7.8,8.4 3,3.4 4.1,5.4 3.301,6 -0.601,0.8 -2.6,-0.3 -6,-3.3 -2.501,-2.1 -5.3,-4.7 -8.4,-7.8 -3.134,3.133 -5.934,5.733 -8.4,7.8 -3.434,3.033 -5.434,4.133 -6,3.3 -0.834,-0.567 0.266,-2.567 3.299,-6 2.067,-2.467 4.667,-5.267 7.8,-8.4 -3.133,-3.134 -5.733,-5.934 -7.8,-8.4 -3.033,-3.434 -4.133,-5.434 -3.299,-6 0.566,-0.834 2.566,0.267 6,3.3 2.466,2.066 5.266,4.666 8.4,7.8 3.1,-3.1 5.899,-5.7 8.4,-7.8 3.4,-3 5.399,-4.1 6,-3.3 0.799,0.6 -0.301,2.6 -3.301,6l0 0zm1.751 21.55l0.299 -0.3 -0.299 0 0 0.3 0 0zm0.299 -26l-0.299 -0.3 0 0.3 0.299 0z"/>
  </g>
  <path class="fil5" d="M201.469 38.126c2.634,-2.634 5.051,-4.917 7.25,-6.85l-6.85 7.25c-0.4,0.4 -0.6,0.9 -0.6,1.5 0,0.533 0.2,1 0.6,1.4l6.85 7.25 -7.25 -6.85c-0.399,-0.4 -0.883,-0.584 -1.449,-0.55 -0.567,-0.033 -1.05,0.15 -1.451,0.55l-7.25 6.85c1.934,-2.2 4.217,-4.617 6.85,-7.25 0.4,-0.4 0.6,-0.867 0.6,-1.4 0,-0.6 -0.2,-1.1 -0.6,-1.5l-6.85 -7.25 7.25 6.85c0.4,0.4 0.884,0.616 1.451,0.65 0.566,-0.034 1.05,-0.25 1.449,-0.65z"/>
  <g>
   <path class="fil7" d="M213.169 27.126l-0.299 0 0 -0.3 0.299 0.3 0 0zm-0.299 26l0 -0.3 0.299 0 -0.299 0.3z"/>
  </g>
  <g>
   <path class="fil4" d="M285.72 17.676c0.466,0.9 0.7,1.883 0.7,2.95 0,1.766 -0.634,3.266 -1.9,4.5 -0.934,0.966 -2.017,1.567 -3.25,1.8l-1.251 0.1c-1.5,0 -2.816,-0.45 -3.95,-1.35l-0.599 -0.55c-1.234,-1.234 -1.851,-2.734 -1.851,-4.5l0 -0.35c0.101,-1.633 0.717,-3.034 1.851,-4.2 1.266,-1.233 2.783,-1.85 4.549,-1.85 1.767,0 3.267,0.616 4.501,1.85l1.2 1.6 0 0zm-8.7 -1c-0.801,0.767 -1.184,1.733 -1.151,2.9l0 0.05c0,1.2 0.384,2.216 1.151,3.05l0.049 0.05c0.834,0.766 1.851,1.15 3.051,1.15l0.15 0c1.099,0.033 2.05,-0.334 2.849,-1.1l0 -0.05c0.8,-0.834 1.217,-1.817 1.251,-2.95l0 -0.15 -0.35 -1.65 -0.901 -1.3c-0.866,-0.834 -1.866,-1.267 -2.999,-1.3l-0.05 0c-1.167,0.033 -2.184,0.466 -3.05,1.3l0 0zm14.649 5.75c0.7,-0.467 1.534,-0.7 2.501,-0.7 1.3,0.033 2.416,0.5 3.349,1.4 0.901,0.933 1.367,2.05 1.401,3.35 0,0.933 -0.217,1.783 -0.65,2.55l-0.7 0.85c-0.967,0.933 -2.101,1.383 -3.4,1.35l-1.851 -0.35 -1.5 -1c-0.566,-0.567 -0.966,-1.217 -1.2,-1.95l-0.2 -1.45c-0.033,-1.3 0.434,-2.434 1.4,-3.4l0.85 -0.65 0 0zm8.55 11.8c1.667,0.033 3.117,0.65 4.351,1.85 1.233,1.267 1.849,2.783 1.849,4.55 0,1.766 -0.616,3.266 -1.849,4.5l-1.901 1.35 -2.649 0.55c-1.767,0 -3.267,-0.634 -4.5,-1.9 -1,-0.967 -1.601,-2.084 -1.801,-3.35l-0.099 -1.15c0,-1.434 0.416,-2.7 1.25,-3.8l0.65 -0.75c0.933,-0.934 2.033,-1.517 3.3,-1.75l1.2 -0.1 0.199 0 0 0zm-2.599 18.15c0.466,0.666 0.699,1.466 0.699,2.4 -0.033,1.133 -0.45,2.1 -1.249,2.9 -0.801,0.8 -1.767,1.216 -2.9,1.25 -1.2,0 -2.184,-0.4 -2.95,-1.2 -0.834,-0.833 -1.234,-1.817 -1.2,-2.95l0.05 -0.7c0.133,-0.9 0.516,-1.65 1.15,-2.25 0.466,-0.5 1.016,-0.834 1.649,-1l1.301 -0.2c1.133,-0.034 2.116,0.366 2.949,1.2l0.501 0.55 0 0zm-12.501 7.4l0.05 0.85c0,1.433 -0.516,2.633 -1.55,3.6 -0.966,1.033 -2.166,1.55 -3.6,1.55 -1.433,0 -2.649,-0.517 -3.65,-1.55 -0.666,-0.634 -1.099,-1.384 -1.3,-2.25l-0.2 -1.35c0,-1.434 0.5,-2.65 1.5,-3.65 0.501,-0.5 1.05,-0.867 1.651,-1.1l1.999 -0.4c1.434,0 2.634,0.5 3.6,1.5l0.15 0.15c0.734,0.767 1.184,1.65 1.35,2.65l0 0zm-14.599 1.2c-1.334,1 -2.867,1.483 -4.601,1.45 -2.166,0 -3.999,-0.733 -5.5,-2.2 -1.466,-1.5 -2.2,-3.333 -2.2,-5.5 0,-0.567 0.05,-1.117 0.15,-1.65 0.267,-1.4 0.934,-2.65 2.001,-3.75 0.7,-0.7 1.466,-1.234 2.299,-1.6 1,-0.467 2.084,-0.7 3.25,-0.7 1.7,0.033 3.217,0.55 4.551,1.55l0.85 0.75c1.033,1.033 1.716,2.216 2.05,3.55l0.249 1.85c0,2.167 -0.766,4.016 -2.299,5.55l-0.8 0.7 0 0zm-13.651 -14.8l-1.35 -1.05c-1.266,-1.234 -1.9,-2.734 -1.9,-4.5 0,-1.767 0.634,-3.283 1.9,-4.55l1.5 -1.1c0.9,-0.5 1.9,-0.75 3.001,-0.75 0.966,0 1.849,0.183 2.649,0.55 0.7,0.3 1.334,0.733 1.9,1.3 0.567,0.566 1,1.2 1.301,1.9l0.399 1.1 0.15 1.55 -0.1 1.25 -0.55 1.6 -1.2 1.65 -1.9 1.35 -2.649 0.55c-1.167,0 -2.217,-0.284 -3.151,-0.85l0 0zm4.851 -17.5c-0.334,-0.634 -0.484,-1.35 -0.451,-2.15 0,-1.3 0.451,-2.4 1.351,-3.3 0.899,-0.9 2,-1.35 3.299,-1.35 0.867,-0.034 1.651,0.166 2.351,0.6l0.949 0.7c0.9,0.933 1.35,2.05 1.35,3.35l-0.249 1.5c-0.234,0.666 -0.601,1.266 -1.101,1.8l-1.75 1.1 -1.55 0.25c-1.3,0 -2.416,-0.45 -3.349,-1.35l-0.85 -1.15 0 0zm1.449 -4.55c-0.633,0.6 -0.933,1.367 -0.899,2.3 0,0.833 0.216,1.55 0.65,2.15l0.249 0.3 0.05 0c0.667,0.633 1.467,0.95 2.4,0.95l0.101 0 0.599 -0.05c0.601,-0.1 1.15,-0.384 1.65,-0.85l0 -0.05c0.534,-0.567 0.85,-1.2 0.951,-1.9l0.05 -0.45 0 -0.1c-0.034,-0.867 -0.367,-1.634 -1.001,-2.3l-0.1 -0.1c-0.633,-0.6 -1.383,-0.917 -2.25,-0.95l-0.05 0c-0.933,0.033 -1.733,0.367 -2.4,1l0 0.05 0 0zm28.5 1.15c-0.533,0.533 -0.783,1.183 -0.749,1.95l0 0.05c0,0.8 0.249,1.483 0.749,2.05l0.051 0c0.333,0.3 0.716,0.533 1.149,0.7l0.901 0.1 0.099 0c0.734,0 1.367,-0.25 1.9,-0.75l0 -0.05 0.601 -0.85 0.249 -1.1 0 -0.1c-0.033,-0.767 -0.316,-1.433 -0.85,-2 -0.566,-0.567 -1.233,-0.85 -1.999,-0.85l-0.051 0c-0.766,0 -1.449,0.283 -2.05,0.85l0 0zm-30.35 26.9c-0.633,0.6 -1.033,1.316 -1.2,2.15 -0.099,0.4 -0.15,0.816 -0.15,1.25l0 0.05c0,1.4 0.45,2.6 1.35,3.6l0.051 0.05c1,0.9 2.199,1.35 3.6,1.35l0.149 0c1.3,0.033 2.417,-0.4 3.351,-1.3l0 -0.05 0.65 -0.75c0.533,-0.834 0.816,-1.75 0.85,-2.75l0 -0.15 -0.051 -0.8c-0.166,-0.8 -0.499,-1.517 -0.999,-2.15l-0.45 -0.5c-1.001,-1 -2.167,-1.517 -3.5,-1.55l-0.051 0c-0.833,0.033 -1.583,0.216 -2.25,0.55 -0.5,0.233 -0.949,0.55 -1.35,0.95l0 0.05 0 0zm-3.65 -14.6c-0.8,0.766 -1.183,1.733 -1.15,2.9l0 0.05c0,1.2 0.384,2.216 1.15,3.05l0.05 0.05 0.3 0.25c0.767,0.6 1.684,0.9 2.75,0.9l0.151 0 1.749 -0.35 1.101 -0.75 0 -0.05 0.149 -0.15c0.534,-0.6 0.884,-1.284 1.051,-2.05l0.05 -0.75 0 -0.15 -0.101 -0.8c-0.133,-0.634 -0.399,-1.217 -0.799,-1.75l-0.35 -0.4 -1.101 -0.8c-0.599,-0.301 -1.233,-0.467 -1.9,-0.5l-0.049 0c-1.067,0.033 -2.017,0.416 -2.851,1.15l-0.2 0.15 0 0zm38.45 -0.75l-0.2 0.25c-0.699,0.733 -1.033,1.666 -1,2.8l0 0.05 0.15 1.2c0.167,0.766 0.517,1.45 1.05,2.05l0.051 0.05c0.9,0.8 1.983,1.2 3.25,1.2l0.149 0c0.901,0.033 1.7,-0.184 2.4,-0.65l0.601 -0.5 0 -0.05c0.866,-0.9 1.316,-1.95 1.35,-3.15l0 -0.15c-0.034,-1.2 -0.484,-2.233 -1.35,-3.1 -0.867,-0.867 -1.851,-1.334 -2.95,-1.4l-0.2 0 -0.051 0c-1.266,0.033 -2.349,0.483 -3.25,1.35l0 0.05 0 0zm-17.749 21.35l-0.051 0.05c-0.5,0.5 -0.766,1.15 -0.799,1.95l0 0.1c0,0.9 0.283,1.666 0.85,2.3l0.049 0c0.634,0.566 1.367,0.85 2.201,0.85l0.099 0c0.8,0 1.5,-0.284 2.101,-0.85 0.599,-0.634 0.9,-1.367 0.9,-2.2l0 -0.1c0,-0.8 -0.301,-1.5 -0.9,-2.1 -0.634,-0.634 -1.367,-0.967 -2.2,-1 -0.867,0.033 -1.617,0.35 -2.25,0.95l0 0.05 0 0zm15.65 -5.2c-0.667,0 -1.217,0.233 -1.651,0.7 -0.5,0.467 -0.749,1.033 -0.749,1.7 0,0.633 0.233,1.183 0.699,1.65l0.101 0.05c0.433,0.467 0.966,0.7 1.6,0.7 0.666,0 1.249,-0.234 1.749,-0.7 0.434,-0.467 0.651,-1.033 0.651,-1.7 0,-0.634 -0.217,-1.184 -0.651,-1.65l-0.049 -0.1c-0.5,-0.434 -1.067,-0.65 -1.7,-0.65z"/>
  </g>
  <g>
   <path class="fil3" d="M277.02 16.676c0.866,-0.834 1.883,-1.267 3.05,-1.3l0.05 0c1.133,0.033 2.133,0.466 2.999,1.3l0.901 1.3 0.35 1.65 0 0.15c-0.034,1.133 -0.451,2.117 -1.251,2.95l0 0.05c-0.799,0.766 -1.75,1.133 -2.849,1.1l-0.15 0c-1.2,0 -2.217,-0.384 -3.051,-1.15l-0.049 -0.05c-0.767,-0.834 -1.151,-1.85 -1.151,-3.05l0 -0.05c-0.033,-1.167 0.35,-2.133 1.151,-2.9l0 0zm14.649 8.6c0.601,-0.567 1.284,-0.85 2.05,-0.85l0.051 0c0.766,0 1.433,0.283 1.999,0.85 0.534,0.566 0.817,1.233 0.85,2l0 0.1 -0.249 1.1 -0.601 0.85 0 0.05c-0.533,0.5 -1.166,0.75 -1.9,0.75l-0.099 0 -0.901 -0.1c-0.433,-0.167 -0.816,-0.4 -1.149,-0.7l-0.051 0c-0.5,-0.567 -0.749,-1.25 -0.749,-2.05l0 -0.05c-0.034,-0.767 0.216,-1.417 0.749,-1.95l0 0zm-28.5 -1.15l0 -0.05c0.667,-0.634 1.467,-0.967 2.4,-1l0.05 0c0.867,0.033 1.617,0.35 2.25,0.95l0.1 0.1c0.634,0.667 0.967,1.433 1.001,2.3l0 0.1 -0.05 0.45c-0.101,0.7 -0.417,1.333 -0.951,1.9l0 0.05c-0.5,0.466 -1.049,0.75 -1.65,0.85l-0.599 0.05 -0.101 0c-0.933,0 -1.733,-0.317 -2.4,-0.95l-0.05 0 -0.249 -0.3c-0.434,-0.6 -0.65,-1.317 -0.65,-2.15 -0.034,-0.933 0.266,-1.7 0.899,-2.3l0 0zm-5.5 13.45l0.2 -0.15c0.834,-0.734 1.784,-1.117 2.851,-1.15l0.049 0c0.667,0.033 1.301,0.2 1.9,0.5l1.101 0.8 0.35 0.4c0.4,0.533 0.666,1.116 0.799,1.75l0.101 0.8 0 0.15 -0.05 0.75c-0.167,0.766 -0.517,1.45 -1.051,2.05l-0.149 0.15 0 0.05 -1.101 0.75 -1.749 0.35 -0.151 0c-1.066,0 -1.983,-0.3 -2.75,-0.9l-0.3 -0.25 -0.05 -0.05c-0.766,-0.834 -1.15,-1.85 -1.15,-3.05l0 -0.05c-0.033,-1.167 0.35,-2.134 1.15,-2.9l0 0zm3.65 14.6l0 -0.05c0.401,-0.4 0.85,-0.717 1.35,-0.95 0.667,-0.334 1.417,-0.517 2.25,-0.55l0.051 0c1.333,0.033 2.499,0.55 3.5,1.55l0.45 0.5c0.5,0.633 0.833,1.35 0.999,2.15l0.051 0.8 0 0.15c-0.034,1 -0.317,1.916 -0.85,2.75l-0.65 0.75 0 0.05c-0.934,0.9 -2.051,1.333 -3.351,1.3l-0.149 0c-1.4,0 -2.601,-0.45 -3.6,-1.35l-0.051 -0.05c-0.9,-1 -1.35,-2.2 -1.35,-3.6l0 -0.05c0,-0.434 0.051,-0.85 0.15,-1.25 0.167,-0.834 0.567,-1.55 1.2,-2.15l0 0zm17.051 6l0 -0.05c0.633,-0.6 1.383,-0.917 2.25,-0.95 0.833,0.033 1.566,0.366 2.2,1 0.599,0.6 0.9,1.3 0.9,2.1l0 0.1c0,0.833 -0.301,1.566 -0.9,2.2 -0.601,0.566 -1.301,0.85 -2.101,0.85l-0.099 0c-0.834,0 -1.567,-0.284 -2.201,-0.85l-0.049 0c-0.567,-0.634 -0.85,-1.4 -0.85,-2.3l0 -0.1c0.033,-0.8 0.299,-1.45 0.799,-1.95l0.051 -0.05 0 0zm17.749 -21.35l0 -0.05c0.9,-0.867 1.984,-1.317 3.25,-1.35l0.051 0 0.2 0c1.099,0.066 2.083,0.533 2.95,1.4 0.866,0.867 1.316,1.9 1.35,3.1l0 0.15c-0.034,1.2 -0.484,2.25 -1.35,3.15l0 0.05 -0.601 0.5c-0.7,0.466 -1.499,0.683 -2.4,0.65l-0.149 0c-1.267,0 -2.35,-0.4 -3.25,-1.2l-0.051 -0.05c-0.533,-0.6 -0.883,-1.284 -1.05,-2.05l-0.15 -1.2 0 -0.05c-0.033,-1.134 0.301,-2.067 1,-2.8l0.2 -0.25 0 0zm-2.099 16.15c0.633,0 1.2,0.216 1.7,0.65l0.049 0.1c0.434,0.466 0.651,1.016 0.651,1.65 0,0.667 -0.217,1.233 -0.651,1.7 -0.5,0.467 -1.083,0.7 -1.749,0.7 -0.634,0 -1.167,-0.234 -1.6,-0.7l-0.101 -0.05c-0.466,-0.467 -0.699,-1.017 -0.699,-1.65 0,-0.667 0.249,-1.233 0.749,-1.7 0.434,-0.467 0.984,-0.7 1.651,-0.7z"/>
  </g>
  <path class="fil8" d="M285.72 17.676l2.149 0.35c1.501,0.533 2.6,1.5 3.3,2.9l0.5 1.5 -0.85 0.65c-0.966,0.966 -1.433,2.1 -1.4,3.4l0.2 1.45c0.234,0.733 0.634,1.383 1.2,1.95l1.5 1 1.851 0.35c1.3,0.033 2.433,-0.417 3.4,-1.35l0.7 -0.85c0.766,0.4 1.366,1.033 1.799,1.9 0.467,1.066 0.517,2.166 0.15,3.3l-0.199 0 -1.2 0.1c-1.267,0.233 -2.367,0.816 -3.3,1.75l-0.65 0.75c-0.834,1.1 -1.25,2.366 -1.25,3.8l0.099 1.15c0.2,1.266 0.801,2.383 1.801,3.35 1.233,1.266 2.733,1.9 4.5,1.9l2.649 -0.55 -0.35 2.1c-0.533,1.5 -1.533,2.583 -2.999,3.25l-1.7 0.55 -0.501 -0.55c-0.833,-0.834 -1.816,-1.234 -2.949,-1.2l-1.301 0.2c-0.633,0.166 -1.183,0.5 -1.649,1 -0.634,0.6 -1.017,1.35 -1.15,2.25l-0.05 0.7c-0.034,1.133 0.366,2.117 1.2,2.95l-0.15 0.45c-0.367,0.933 -1,1.617 -1.9,2.05l-2.9 0.15 -1.151 -0.6c-0.166,-1 -0.616,-1.883 -1.35,-2.65l-0.15 -0.15c-0.966,-1 -2.166,-1.5 -3.6,-1.5l-1.999 0.4c-0.601,0.233 -1.15,0.6 -1.651,1.1 -1,1 -1.5,2.216 -1.5,3.65l0.2 1.35 -2.95 -0.05c-0.633,-0.233 -1.166,-0.55 -1.599,-0.95l0.8 -0.7c1.533,-1.534 2.299,-3.383 2.299,-5.55l-0.249 -1.85c-0.334,-1.334 -1.017,-2.517 -2.05,-3.55l-0.85 -0.75c-1.334,-1 -2.851,-1.517 -4.551,-1.55 -1.166,0 -2.25,0.233 -3.25,0.7 -0.833,0.366 -1.599,0.9 -2.299,1.6 -1.067,1.1 -1.734,2.35 -2.001,3.75l-1.249 -1.85c-0.7,-1.667 -0.784,-3.35 -0.251,-5.05 0.934,0.566 1.984,0.85 3.151,0.85l2.649 -0.55 1.9 -1.35 1.2 -1.65 0.55 -1.6 0.1 -1.25 -0.15 -1.55 -0.399 -1.1c-0.301,-0.7 -0.734,-1.333 -1.301,-1.9 -0.566,-0.567 -1.2,-1 -1.9,-1.3 -0.8,-0.367 -1.683,-0.55 -2.649,-0.55 -1.101,0 -2.101,0.25 -3.001,0.75 -0.099,-0.834 0,-1.684 0.301,-2.55 0.533,-1.534 1.549,-2.633 3.05,-3.3 0.433,-0.2 0.883,-0.35 1.35,-0.45l0.85 1.15c0.933,0.9 2.05,1.35 3.349,1.35l1.55 -0.25 1.75 -1.1c0.5,-0.534 0.867,-1.134 1.101,-1.8l0.249 -1.5c0,-1.3 -0.449,-2.417 -1.35,-3.35l-0.949 -0.7c0.433,-0.967 1.116,-1.684 2.05,-2.15l3.25 -0.1 0.049 0.05 0 0.35c0,1.766 0.617,3.266 1.851,4.5l0.599 0.55c1.134,0.9 2.451,1.35 3.95,1.35l1.251 -0.1c1.233,-0.233 2.316,-0.834 3.25,-1.8 1.266,-1.234 1.9,-2.734 1.9,-4.5 0,-1.067 -0.234,-2.05 -0.7,-2.95z"/>
  <g>
   <path class="fil3" d="M97.769 45.726c-6.133,-1.6 -9.199,-3.567 -9.199,-5.9 0,-2.334 3.066,-4.3 9.199,-5.9l3 -0.8c-1.6,-5.067 -1.183,-8.817 1.25,-11.25 2.434,-2.434 6.15,-2.85 11.15,-1.25l0.8 -2.9c1.634,-6.167 3.617,-9.25 5.95,-9.25 2.334,0 4.317,3.083 5.95,9.25l0.7 2.9c5.034,-1.567 8.767,-1.133 11.201,1.3 2.433,2.433 2.866,6.166 1.299,11.2l2.95 0.75c6.167,1.633 9.267,3.6 9.301,5.9 -0.034,2.367 -3.117,4.35 -9.25,5.95l-3.051 0.75c1.634,5.033 1.217,8.75 -1.249,11.15 -2.367,2.433 -6.101,2.867 -11.201,1.3l-0.7 3c-1.566,6.1 -3.55,9.183 -5.95,9.25 -2.333,-0.067 -4.333,-3.167 -6,-9.3l-0.649 -2.95c-5.067,1.6 -8.817,1.183 -11.251,-1.25 -2.466,-2.4 -2.883,-6.117 -1.25,-11.15l-3 -0.8 0 0zm7.4 -14.4l1.2 1.95c-3.433,1.8 -5.133,3.983 -5.1,6.55 -0.033,2.433 1.684,4.583 5.15,6.45l-1.15 1.95c-2.333,4.066 -2.9,6.7 -1.7,7.9 1.234,1.233 3.884,0.683 7.95,-1.65l1.901 -1.2c1.833,3.433 4.016,5.183 6.549,5.25 2.534,0 4.7,-1.767 6.501,-5.3l1.849 1.25c4.167,2.367 6.85,2.917 8.05,1.65 1.234,-1.167 0.667,-3.8 -1.7,-7.9l-1.25 -1.95c3.534,-1.8 5.3,-3.967 5.3,-6.5 -0.033,-2.567 -1.783,-4.75 -5.25,-6.55l1.2 -1.9c2.367,-4.1 2.934,-6.767 1.7,-8 -1.233,-1.167 -3.899,-0.6 -8,1.7 -0.633,0.366 -1.283,0.766 -1.95,1.2 -1.8,-3.5 -3.966,-5.25 -6.5,-5.25 -2.533,0 -4.716,1.75 -6.55,5.25l-1.95 -1.15c-4.033,-2.367 -6.65,-2.95 -7.85,-1.75 -1.233,1.233 -0.7,3.9 1.6,8z"/>
  </g>
  <path class="fil4" d="M105.169 31.326c-2.3,-4.1 -2.833,-6.767 -1.6,-8 1.2,-1.2 3.817,-0.617 7.85,1.75l1.95 1.15c1.834,-3.5 4.017,-5.25 6.55,-5.25 2.534,0 4.7,1.75 6.5,5.25 0.667,-0.434 1.317,-0.834 1.95,-1.2 4.101,-2.3 6.767,-2.867 8,-1.7 1.234,1.233 0.667,3.9 -1.7,8l-1.2 1.9c3.467,1.8 5.217,3.983 5.25,6.55 0,2.533 -1.766,4.7 -5.3,6.5l1.25 1.95c2.367,4.1 2.934,6.733 1.7,7.9 -1.2,1.267 -3.883,0.716 -8.05,-1.65l-1.849 -1.25c-1.801,3.533 -3.967,5.3 -6.501,5.3 -2.533,-0.067 -4.716,-1.817 -6.549,-5.25l-1.901 1.2c-4.066,2.333 -6.716,2.883 -7.95,1.65 -1.2,-1.2 -0.633,-3.834 1.7,-7.9l1.15 -1.95c-3.466,-1.867 -5.183,-4.017 -5.15,-6.45 -0.033,-2.567 1.667,-4.75 5.1,-6.55l-1.2 -1.95z"/>
  <g>
   <path class="fil2" d="M103.369 60.326c-5.7,4.633 -8.933,6.566 -9.7,5.8 -0.766,-0.767 1.15,-4.017 5.75,-9.75l3.05 -3.65c-0.666,-2.134 -0.533,-4.767 0.4,-7.9 0.434,-1.7 1.084,-3.35 1.95,-4.95 -0.9,-1.634 -1.566,-3.267 -2,-4.9 -0.899,-3.167 -0.983,-5.817 -0.25,-7.95l-3.15 -3.75c-4.6,-5.667 -6.516,-8.884 -5.75,-9.65 0.767,-0.767 3.984,1.116 9.651,5.65l3.849 3.15 7.801 0.3c1.7,0.566 3.349,1.216 4.949,1.95 1.634,-0.834 3.334,-1.5 5.1,-2l7.75 -0.25c1.233,-1.1 2.484,-2.15 3.75,-3.15 5.667,-4.534 8.884,-6.417 9.651,-5.65 0.766,0.766 -1.134,4 -5.701,9.7l-3.1 3.6c0.7,2.167 0.617,4.783 -0.25,7.85 -0.466,1.733 -1.166,3.433 -2.099,5.1 0.966,1.633 1.649,3.283 2.049,4.95 0.9,3.166 1.017,5.783 0.351,7.85l3.1 3.8c4.533,5.666 6.416,8.883 5.65,9.65 -0.767,0.766 -4.001,-1.167 -9.701,-5.8l-3.6 -3.1c-2.166,0.766 -4.8,0.733 -7.9,-0.1 -1.733,-0.534 -3.416,-1.25 -5.05,-2.15 -1.566,0.833 -3.233,1.5 -5,2l-7.85 0.35 -3.7 3 0 0zm28.15 -34.15l-0.55 0.35 -0.7 -0.2 -5.75 0.25c-1.4,0.4 -2.733,0.966 -4,1.7l-0.6 0.1 -0.55 -0.05c-1.299,-0.7 -2.6,-1.234 -3.9,-1.6l-5.799 -0.3 -0.651 0.05 -0.6 -0.3 -3.15 -2.65c-4.133,-3.267 -6.283,-4.883 -6.45,-4.85 -0.066,0.266 1.55,2.416 4.85,6.45l0.05 0.05 2.6 3.2 0.251 0.45 -0.051 0.65c-0.533,1.6 -0.433,3.567 0.3,5.9 0.367,1.3 0.867,2.6 1.5,3.9l0.151 0.55 -0.151 0.65c-0.666,1.266 -1.166,2.533 -1.5,3.8l0.05 0.05c-0.733,2.333 -0.85,4.317 -0.35,5.95l-0.05 0.55 -0.249 0.65 -2.551 3.05c-3.299,4.1 -4.916,6.283 -4.85,6.55l6.45 -4.95 3.1 -2.6c0.167,-0.167 0.35,-0.25 0.55,-0.25l0.6 0 6 -0.3c1.234,-0.367 2.5,-0.867 3.8,-1.5 0.167,-0.167 0.367,-0.234 0.6,-0.2 0.234,-0.034 0.434,0.033 0.6,0.2 1.267,0.666 2.617,1.216 4.051,1.65l-0.051 -0.05 5.8 0.2 0.601 0 0.549 0.25 3.15 2.65c4.034,3.233 6.2,4.866 6.5,4.9 0,-0.334 -1.616,-2.517 -4.85,-6.55l-2.65 -3.05 -0.2 -0.6 0 -0.6c0.5,-1.567 0.417,-3.517 -0.25,-5.85 -0.4,-1.334 -0.933,-2.667 -1.6,-4l-0.149 -0.55c0,-0.2 0.049,-0.417 0.149,-0.65 0.7,-1.233 1.234,-2.567 1.6,-4 0.667,-2.267 0.75,-4.217 0.25,-5.85 -0.166,-0.167 -0.166,-0.334 0,-0.5l0.2 -0.6 2.601 -3.1 4.899 -6.5c-0.233,-0.033 -2.4,1.6 -6.5,4.9l-3.1 2.6z"/>
  </g>
  <path class="fil5" d="M131.519 26.176l3.1 -2.6c4.1,-3.3 6.267,-4.933 6.5,-4.9l-4.899 6.5 -2.601 3.1 -0.2 0.6c-0.166,0.166 -0.166,0.333 0,0.5 0.5,1.633 0.417,3.583 -0.25,5.85 -0.366,1.433 -0.9,2.766 -1.6,4 -0.1,0.233 -0.149,0.45 -0.149,0.65l0.149 0.55c0.667,1.333 1.2,2.666 1.6,4 0.667,2.333 0.75,4.283 0.25,5.85l0 0.6 0.2 0.6 2.65 3.05c3.234,4.033 4.85,6.216 4.85,6.55 -0.3,-0.034 -2.466,-1.667 -6.5,-4.9l-3.15 -2.65 -0.549 -0.25 -0.601 0 -5.8 -0.2 0.051 0.05c-1.434,-0.434 -2.784,-0.984 -4.051,-1.65 -0.166,-0.167 -0.366,-0.234 -0.6,-0.2 -0.233,-0.034 -0.433,0.033 -0.6,0.2 -1.3,0.633 -2.566,1.133 -3.8,1.5l-6 0.3 -0.6 0c-0.2,0 -0.383,0.083 -0.55,0.25l-3.1 2.6 -6.45 4.95c-0.066,-0.267 1.55,-2.45 4.85,-6.55l2.551 -3.05 0.249 -0.65 0.05 -0.55c-0.5,-1.633 -0.383,-3.617 0.35,-5.95l-0.05 -0.05c0.334,-1.267 0.834,-2.534 1.5,-3.8l0.151 -0.65 -0.151 -0.55c-0.633,-1.3 -1.133,-2.6 -1.5,-3.9 -0.733,-2.334 -0.833,-4.3 -0.3,-5.9l0.051 -0.65 -0.251 -0.45 -2.6 -3.2 -0.05 -0.05c-3.299,-4.034 -4.916,-6.184 -4.85,-6.45 0.167,-0.033 2.317,1.583 6.45,4.85l3.15 2.65 0.6 0.3 0.651 -0.05 5.799 0.3c1.3,0.366 2.601,0.9 3.9,1.6l0.55 0.05 0.6 -0.1c1.267,-0.733 2.6,-1.3 4,-1.7l5.75 -0.25 0.7 0.2 0.55 -0.35z"/>
  <path class="fil6" d="M130.469 38.226c0.467,0 0.85,0.15 1.151,0.45l0.049 0.05c0.267,0.333 0.4,0.7 0.4,1.1l0 0.1c0,0.4 -0.15,0.75 -0.449,1.05l-0.051 0.05c-0.299,0.3 -0.633,0.466 -0.999,0.5l-0.051 0.05 -5.7 0.4 7.35 8.75 0.25 0.65 -0.299 0.7c-0.2,0.2 -0.434,0.3 -0.7,0.3 -0.234,0.033 -0.467,-0.034 -0.701,-0.2l-8.7 -7.4 -0.45 5.65 0.05 0.05c-0.066,0.466 -0.283,0.85 -0.649,1.15l-1.051 0.45 -0.05 -0.05c-0.433,0.033 -0.783,-0.084 -1.05,-0.35l-0.1 -0.1c-0.3,-0.3 -0.466,-0.634 -0.499,-1l-0.051 -0.05 -0.4 -5.7 -8.75 7.35 -0.7 0.2 -0.7 -0.3 -0.3 -0.7c0,-0.267 0.084,-0.483 0.25,-0.65l7.401 -8.7 -5.701 -0.4 -0.05 -0.05c-0.433,-0.1 -0.766,-0.267 -1,-0.5l-0.099 -0.1c-0.267,-0.267 -0.401,-0.634 -0.401,-1.1 0,-0.467 0.134,-0.833 0.401,-1.1l0.099 -0.1c0.3,-0.3 0.667,-0.467 1.101,-0.5l5.65 -0.45 -7.401 -8.7c-0.166,-0.234 -0.233,-0.467 -0.2,-0.7 0,-0.267 0.1,-0.5 0.3,-0.7 0.2,-0.2 0.434,-0.3 0.7,-0.3l0.65 0.25 8.75 7.35 0.451 -5.65c0.033,-0.434 0.199,-0.8 0.499,-1.1l0.05 -0.05c0.334,-0.334 0.717,-0.484 1.15,-0.45 0.434,0.033 0.8,0.166 1.1,0.4l0.6 1.2 0.45 5.65 8.65 -7.35c0.2,-0.2 0.417,-0.284 0.65,-0.25l0.751 0.25c0.199,0.2 0.283,0.45 0.249,0.75l-0.2 0.7 -7.3 8.7 5.6 0.5z"/>
  <g>
   <path class="fil2" d="M122.502 109.075c0,-0.678 -0.275,-1.251 -0.826,-1.717 -0.466,-0.509 -1.06,-0.763 -1.781,-0.763 -0.721,0 -1.335,0.254 -1.844,0.763 -0.508,0.466 -0.763,1.039 -0.763,1.717 0,1.908 0.233,3.54 0.699,4.896l0.064 0.318c0.509,1.484 1.123,2.226 1.844,2.226 0.721,0 1.314,-0.742 1.781,-2.226l0.127 -0.382c0.466,-1.356 0.699,-2.967 0.699,-4.832l0 0zm1.018 18.694c-1.018,5.469 -2.226,8.203 -3.625,8.203 -1.441,0 -2.671,-2.734 -3.688,-8.203l-0.89 -6.422 -0.191 -2.607c-0.381,0.297 -0.721,0.424 -1.017,0.382 -0.678,-0.17 -0.997,-1.23 -0.954,-3.18l0.381 -3.306 -2.098 0.636c-2.416,0.678 -3.815,0.657 -4.197,-0.064 -0.424,-0.721 0.233,-1.886 1.971,-3.497 1.738,-1.526 3.985,-3.052 6.741,-4.578 2.289,-1.23 4.875,-1.23 7.757,0 2.756,1.526 5.002,3.073 6.74,4.642 1.739,1.652 2.396,2.818 1.972,3.497 -0.424,0.72 -1.823,0.741 -4.197,0.063l-1.971 -0.572 0.318 3.116c0.042,1.907 -0.255,2.946 -0.891,3.115l-0.953 -0.254c-0.254,3.264 -0.657,6.274 -1.208,9.029z"/>
  </g>
  <g>
   <path class="fil1" d="M202.561 110.122c0,-0.679 -0.254,-1.272 -0.762,-1.781 -0.467,-0.508 -1.06,-0.762 -1.781,-0.762 -0.678,0 -1.272,0.254 -1.78,0.762 -0.509,0.509 -0.764,1.102 -0.764,1.781 0,2.162 0.255,3.985 0.764,5.469 0.508,1.526 1.102,2.289 1.78,2.289 0.721,0 1.314,-0.763 1.781,-2.289 0.508,-1.484 0.762,-3.307 0.762,-5.469l0 0zm7.122 0.509l-1.399 1.017 1.78 3.434 0.128 0.763 -0.318 0.636 -0.381 0.318 -0.255 0.127 -5.532 1.399c-0.17,5.934 -0.975,12.59 -2.417,19.966l-0.444 0.827 -0.827 0.254c-0.297,0 -0.551,-0.085 -0.763,-0.254l-0.445 -0.827c-1.484,-7.376 -2.29,-14.032 -2.417,-19.966l-5.595 -1.399 -0.636 -0.445 -0.318 -0.636c-0.042,-0.297 0.021,-0.551 0.191,-0.763l1.78 -3.434 -1.399 -1.017 -0.509 -0.7 0.064 -0.89 0.573 -0.636 8.902 -4.514 0.572 -0.128 0.572 0.128 8.903 4.514 0.635 0.636 0.064 0.89 -0.509 0.7z"/>
  </g>
  <g>
   <path class="fil2" d="M205.098 108.85l0 0.191c-0.042,7.546 -0.53,14.011 -1.462,19.394 -1.018,5.596 -2.226,8.393 -3.625,8.393 -1.399,0 -2.586,-2.797 -3.56,-8.393l-0.891 -6.613c-0.381,-3.858 -0.593,-8.118 -0.636,-12.781l0 -0.191c0,-0.89 0.212,-1.695 0.636,-2.416l0.891 -1.145c0.974,-1.017 2.161,-1.526 3.56,-1.526 1.399,0 2.607,0.509 3.625,1.526 0.975,0.976 1.462,2.162 1.462,3.561l0 0zm-2.543 0.318c0,-0.678 -0.254,-1.271 -0.764,-1.78 -0.466,-0.509 -1.059,-0.763 -1.78,-0.763 -0.678,0 -1.272,0.254 -1.78,0.763 -0.509,0.509 -0.763,1.102 -0.763,1.78 0,2.12 0.254,3.9 0.763,5.342 0.508,1.526 1.102,2.289 1.78,2.289 0.721,0 1.314,-0.763 1.78,-2.289 0.509,-1.442 0.764,-3.222 0.764,-5.342z"/>
  </g>
 </g>
</svg>
