<?xml version="1.0" encoding="UTF-8"?>
<!DOCTYPE svg PUBLIC "-//W3C//DTD SVG 1.1//EN" "http://www.w3.org/Graphics/SVG/1.1/DTD/svg11.dtd">
<!-- Creator: CorelDRAW 2018 (64-Bit) -->
<svg xmlns="http://www.w3.org/2000/svg" xml:space="preserve" width="720px" height="330px" version="1.1" style="shape-rendering:geometricPrecision; text-rendering:geometricPrecision; image-rendering:optimizeQuality; fill-rule:evenodd; clip-rule:evenodd"
viewBox="0 0 720 330"
 xmlns:xlink="http://www.w3.org/1999/xlink">
 <defs>
  <style type="text/css">
   <![CDATA[
    .fil0 {fill:#916B4E}
    .fil1 {fill:#AA7E5C}
    .fil2 {fill:#E0C1A2}
    .fil3 {fill:#ECCFB1}
   ]]>
  </style>
 </defs>
 <g id="Слой_x0020_1">
  <metadata id="CorelCorpID_0Corel-Layer"/>
  <g id="legLeft">
   <g>
    <g>
     <g>
      <polygon class="fil0" points="30.2,323.1 30.249,320.2 12.5,320.2 12.5,322.2 "/>
      <path class="fil1" d="M30.2 329.85l0 -6.75 -17.7 -0.9 1.55 2.65 -1.55 0c-1.2,0.6 -2.284,1.55 -3.25,2.85l0 2.15 20.95 0z"/>
      <polygon class="fil2" points="30.249,320.2 30.249,316.8 12.5,316.8 12.5,320.2 "/>
      <path class="fil3" d="M27.7 309.35c-1.733,-1.667 -3.834,-2.5 -6.3,-2.5l-0.05 0c-2.467,0 -4.55,0.833 -6.25,2.5 -1.734,1.7 -2.6,3.767 -2.6,6.2l0 1.25 17.749 0 0 -1.25c0,-2.433 -0.849,-4.5 -2.549,-6.2z"/>
     </g>
    </g>
   </g>
  </g>
  <g id="legLeft_FL">
   <g>
    <g>
     <g>
      <polygon class="fil0" points="39.7,103.1 39.75,100.2 22,100.2 22,102.2 "/>
      <path class="fil1" d="M39.7 109.85l0 -6.75 -17.7 -0.9 1.55 2.65 -1.55 0c-1.2,0.6 -2.284,1.55 -3.251,2.85l0 2.15 20.951 0z"/>
      <polygon class="fil2" points="39.75,100.2 39.75,96.8 22,96.8 22,100.2 "/>
      <path class="fil3" d="M37.2 89.35c-1.734,-1.667 -3.834,-2.5 -6.3,-2.5l-0.05 0c-2.467,0 -4.551,0.833 -6.25,2.5 -1.733,1.7 -2.6,3.767 -2.6,6.2l0 1.25 17.75 0 0 -1.25c0,-2.433 -0.85,-4.5 -2.55,-6.2z"/>
     </g>
    </g>
   </g>
  </g>
  <g id="legLeft_FL_FL">
   <g>
    <g>
     <g>
      <polygon class="fil0" points="101.88,93.036 103.275,90.499 118.515,99.374 117.524,101.106 "/>
      <path class="fil1" d="M98.534 98.882l3.346 -5.846 15.644 8.07 -2.645 1.52 1.331 0.775c0.733,1.119 1.192,2.484 1.378,4.093l-1.066 1.862 -17.988 -10.474z"/>
      <polygon class="fil2" points="103.275,90.499 104.96,87.555 120.2,96.429 118.515,99.374 "/>
      <path class="fil3" d="M110.842 82.378c2.315,-0.577 4.531,-0.248 6.649,0.985l0.043 0.025c2.118,1.233 3.493,2.996 4.127,5.29 0.645,2.338 0.365,4.562 -0.841,6.669l-0.62 1.082 -15.24 -8.874 0.62 -1.083c1.206,-2.107 2.96,-3.472 5.262,-4.094z"/>
     </g>
    </g>
   </g>
  </g>
  <g id="legLeft_FL_FL_FL">
   <g>
    <g>
     <g>
      <polygon class="fil0" points="179.589,91.22 180.294,88.397 196.59,96.161 196.072,98.092 "/>
      <path class="fil1" d="M177.842 97.74l1.747 -6.52 16.483 6.872 -2.109 1.882 1.423 0.678c0.947,1.105 1.695,2.496 2.246,4.174l-0.556 2.077 -19.234 -9.163z"/>
      <polygon class="fil2" points="180.294,88.397 181.174,85.113 197.47,92.876 196.59,96.161 "/>
      <path class="fil3" d="M185.443 79.032c2.023,-0.852 4.166,-0.738 6.431,0.341l0.046 0.022c2.264,1.078 3.961,2.795 5.091,5.148 1.151,2.4 1.412,4.776 0.782,7.126l-0.323 1.207 -16.296 -7.763 0.323 -1.207c0.63,-2.351 1.945,-3.975 3.946,-4.874z"/>
     </g>
    </g>
   </g>
  </g>
  <g id="legLeft_FL_FL_FL_FL">
   <g>
    <g>
     <g>
      <polygon class="fil0" points="264.182,90.111 266.996,90.813 262.402,107.958 260.47,107.44 "/>
      <path class="fil1" d="M257.662 88.364l6.52 1.747 -3.712 17.329 -2.159 -2.183 -0.401 1.497c-0.89,1.004 -2.088,1.805 -3.594,2.402l-2.076 -0.557 5.422 -20.235z"/>
      <polygon class="fil2" points="266.996,90.813 270.28,91.693 265.686,108.838 262.402,107.958 "/>
      <path class="fil3" d="M276.816 96.085c1.161,2.105 1.423,4.349 0.784,6.732l-0.013 0.048c-0.638,2.383 -1.982,4.179 -4.032,5.39 -2.091,1.234 -4.312,1.536 -6.662,0.907l-1.207 -0.324 4.594 -17.145 1.208 0.324c2.35,0.63 4.126,1.986 5.328,4.068z"/>
     </g>
    </g>
   </g>
  </g>
  <g id="legLeft_FL_FL_FL_FL_FL">
   <g>
    <g>
     <g>
      <polygon class="fil0" points="356.419,100.473 357.648,97.834 342.276,88.958 341.459,90.796 "/>
      <path class="fil1" d="M353.659 106.673l2.76 -6.2 -14.96 -9.677 0.259 3.209 -1.343 -0.775c-1.284,-0.049 -2.611,0.282 -3.979,0.993l-0.879 1.975 18.142 10.475z"/>
      <polygon class="fil2" points="357.648,97.834 359.038,94.71 343.666,85.835 342.276,88.958 "/>
      <path class="fil3" d="M359.876 86.591c-0.82,-2.398 -2.298,-4.213 -4.434,-5.447l-0.044 -0.025c-2.136,-1.233 -4.281,-1.509 -6.434,-0.828 -2.197,0.695 -3.792,2.16 -4.787,4.395l-0.511 1.149 15.372 8.875 0.511 -1.148c0.995,-2.236 1.104,-4.559 0.327,-6.971z"/>
     </g>
    </g>
   </g>
  </g>
  <g id="legLeft_FL_FL_FL_FL_FL_FL">
   <g>
    <g>
     <g>
      <polygon class="fil0" points="17.381,199.962 19.396,197.876 31.947,210.427 30.533,211.842 "/>
      <path class="fil1" d="M12.607 204.735l4.774 -4.773 13.152 11.88 -2.97 0.777 1.096 1.096c0.424,1.273 0.518,2.711 0.283,4.314l-1.52 1.52 -14.815 -14.814z"/>
      <polygon class="fil2" points="19.396,197.876 21.8,195.472 34.351,208.023 31.947,210.427 "/>
      <path class="fil3" d="M28.871 192.007c2.404,0.047 4.478,0.943 6.222,2.687l0.035 0.035c1.745,1.745 2.629,3.807 2.652,6.187 0.024,2.428 -0.824,4.503 -2.545,6.223l-0.884 0.884 -12.551 -12.551 0.884 -0.884c1.72,-1.72 3.783,-2.581 6.187,-2.581z"/>
     </g>
    </g>
   </g>
  </g>
  <g id="legLeft_FL_FL_FL_FL_FL_FL_FL">
   <g>
    <g>
     <g>
      <polygon class="fil0" points="104.124,202.386 105.531,199.849 120.902,208.724 119.902,210.456 "/>
      <path class="fil1" d="M100.749 208.231l3.375 -5.845 15.778 8.07 -2.667 1.52 1.343 0.775c0.739,1.12 1.202,2.484 1.389,4.093l-1.075 1.862 -18.143 -10.475z"/>
      <polygon class="fil2" points="105.531,199.849 107.231,196.905 122.602,205.78 120.902,208.724 "/>
      <path class="fil3" d="M113.164 191.728c2.334,-0.577 4.57,-0.248 6.706,0.985l0.043 0.025c2.136,1.233 3.524,2.997 4.163,5.29 0.651,2.339 0.368,4.562 -0.849,6.669l-0.625 1.083 -15.371 -8.875 0.625 -1.083c1.216,-2.107 2.986,-3.472 5.308,-4.094z"/>
     </g>
    </g>
   </g>
  </g>
  <g id="legLeft_FL_FL_FL_FL_FL_FL_FL_FL">
   <g>
    <g>
     <g>
      <polygon class="fil0" points="190.2,213.1 190.25,210.2 172.5,210.2 172.5,212.2 "/>
      <path class="fil1" d="M190.2 219.85l0 -6.75 -17.7 -0.9 1.55 2.65 -1.55 0c-1.2,0.6 -2.284,1.55 -3.25,2.85l0 2.15 20.95 0z"/>
      <polygon class="fil2" points="190.25,210.2 190.25,206.8 172.5,206.8 172.5,210.2 "/>
      <path class="fil3" d="M187.7 199.35c-1.733,-1.667 -3.833,-2.5 -6.3,-2.5l-0.05 0c-2.467,0 -4.55,0.833 -6.25,2.5 -1.734,1.7 -2.6,3.767 -2.6,6.2l0 1.25 17.75 0 0 -1.25c0,-2.433 -0.85,-4.5 -2.55,-6.2z"/>
     </g>
    </g>
   </g>
  </g>
  <g id="legLeft_FL_FL_FL_FL_FL_FL_FL_FL_FL">
   <g>
    <g>
     <g>
      <polygon class="fil0" points="350.85,213.1 350.9,210.2 333.15,210.2 333.15,212.2 "/>
      <path class="fil1" d="M350.85 219.85l0 -6.75 -17.7 -0.9 1.55 2.65 -1.55 0c-1.2,0.6 -2.283,1.55 -3.25,2.85l0 2.15 20.95 0z"/>
      <polygon class="fil2" points="350.9,210.2 350.9,206.8 333.15,206.8 333.15,210.2 "/>
      <path class="fil3" d="M348.35 199.35c-1.733,-1.667 -3.833,-2.5 -6.3,-2.5l-0.05 0c-2.467,0 -4.55,0.833 -6.25,2.5 -1.733,1.7 -2.6,3.767 -2.6,6.2l0 1.25 17.75 0 0 -1.25c0,-2.433 -0.85,-4.5 -2.55,-6.2z"/>
     </g>
    </g>
   </g>
  </g>
  <g id="legLeft_FL_FL_FL_FL_FL_FL_FL_FL_FL_FL">
   <g>
    <g>
     <g>
      <polygon class="fil0" points="424.426,213.836 425.92,211.349 410.547,202.474 409.547,204.207 "/>
      <path class="fil1" d="M421.051 219.681l3.375 -5.845 -14.879 -9.629 0.018 3.069 -1.343 -0.774c-1.339,-0.081 -2.752,0.2 -4.239,0.843l-1.075 1.862 18.143 10.474z"/>
      <polygon class="fil2" points="425.92,211.349 427.619,208.405 412.247,199.53 410.547,202.474 "/>
      <path class="fil3" d="M429.136 200.678c-0.668,-2.31 -2.07,-4.082 -4.206,-5.315l-0.043 -0.025c-2.137,-1.233 -4.357,-1.553 -6.663,-0.96 -2.351,0.605 -4.135,1.962 -5.352,4.069l-0.625 1.083 15.372 8.875 0.625 -1.083c1.217,-2.107 1.514,-4.322 0.892,-6.644z"/>
     </g>
    </g>
   </g>
  </g>
  <g id="legLeft_FL_FL_FL_FL_FL_FL_FL_FL_FL_FL_FL">
   <g>
    <g>
     <g>
      <polygon class="fil0" points="516.35,213.1 516.4,210.2 498.65,210.2 498.65,212.2 "/>
      <path class="fil1" d="M516.35 219.85l0 -6.75 -17.7 -0.9 1.55 2.65 -1.55 0c-1.2,0.6 -2.283,1.55 -3.25,2.85l0 2.15 20.95 0z"/>
      <polygon class="fil2" points="516.4,210.2 516.4,206.8 498.65,206.8 498.65,210.2 "/>
      <path class="fil3" d="M513.85 199.35c-1.733,-1.667 -3.833,-2.5 -6.3,-2.5l-0.05 0c-2.467,0 -4.55,0.833 -6.25,2.5 -1.733,1.7 -2.6,3.767 -2.6,6.2l0 1.25 17.75 0 0 -1.25c0,-2.433 -0.85,-4.5 -2.55,-6.2z"/>
     </g>
    </g>
   </g>
  </g>
  <g id="legLeft_FL_FL_FL_FL_FL_FL_FL_FL_FL_FL_FL_FL">
   <g>
    <g>
     <g>
      <polygon class="fil0" points="599.75,103.1 599.8,100.2 582.05,100.2 582.05,102.2 "/>
      <path class="fil1" d="M599.75 109.85l0 -6.75 -17.7 -0.9 1.55 2.65 -1.55 0c-1.2,0.6 -2.283,1.55 -3.25,2.85l0 2.15 20.95 0z"/>
      <polygon class="fil2" points="599.8,100.2 599.8,96.8 582.05,96.8 582.05,100.2 "/>
      <path class="fil3" d="M597.25 89.35c-1.733,-1.667 -3.833,-2.5 -6.3,-2.5l-0.05 0c-2.466,0 -4.55,0.833 -6.25,2.5 -1.733,1.7 -2.6,3.767 -2.6,6.2l0 1.25 17.75 0 0 -1.25c0,-2.433 -0.85,-4.5 -2.55,-6.2z"/>
     </g>
    </g>
   </g>
  </g>
  <g id="legLeft_FL_FL_FL_FL_FL_FL_FL_FL_FL_FL_FL_FL_FL">
   <g>
    <g>
     <g>
      <polygon class="fil0" points="579.48,202.488 580.423,199.746 597.107,205.806 596.424,207.686 "/>
      <path class="fil1" d="M577.175 208.833l2.305 -6.345 16.944 5.198 -2.362 1.961 1.457 0.529c0.923,0.974 1.617,2.237 2.082,3.789l-0.734 2.02 -19.692 -7.152z"/>
      <polygon class="fil2" points="580.423,199.746 581.584,196.55 598.267,202.61 597.107,205.806 "/>
      <path class="fil3" d="M586.524 190.418c2.199,-0.974 4.457,-1.041 6.775,-0.199l0.047 0.018c2.318,0.842 3.992,2.336 5.021,4.483 1.049,2.19 1.158,4.428 0.327,6.715l-0.427 1.175 -16.683 -6.06 0.427 -1.175c0.831,-2.287 2.335,-3.939 4.513,-4.957z"/>
     </g>
    </g>
   </g>
  </g>
  <g id="legLeft_FL_FL_FL_FL_FL_FL_FL_FL_FL_FL_FL_FL_FL_FL">
   <g>
    <g>
     <g>
      <polygon class="fil0" points="113.424,308.559 115.864,306.99 125.206,322.082 123.505,323.134 "/>
      <path class="fil1" d="M107.685 312.111l5.739 -3.552 10.081 14.575 -3.069 0.078 0.816 1.317c0.121,1.337 -0.116,2.758 -0.713,4.264l-1.828 1.131 -11.026 -17.813z"/>
      <polygon class="fil2" points="115.864,306.99 118.755,305.2 128.097,320.293 125.206,322.082 "/>
      <path class="fil3" d="M126.431 303.448c2.33,0.596 4.143,1.943 5.442,4.04l0.026 0.043c1.298,2.097 1.686,4.307 1.164,6.63 -0.533,2.368 -1.835,4.193 -3.904,5.474l-1.062 0.658 -9.342 -15.093 1.063 -0.657c2.068,-1.281 4.273,-1.646 6.613,-1.095z"/>
     </g>
    </g>
   </g>
  </g>
  <g id="legLeft_FL_FL_FL_FL_FL_FL_FL_FL_FL_FL_FL_FL_FL_FL_FL">
   <g>
    <g>
     <g>
      <polygon class="fil0" points="660.934,205.423 661.648,202.612 678.774,207.276 678.248,209.206 "/>
      <path class="fil1" d="M659.16 211.935l1.774 -6.512 17.314 3.783 -2.191 2.15 1.495 0.407c1,0.894 1.796,2.095 2.386,3.604l-0.565 2.074 -20.213 -5.506z"/>
      <polygon class="fil2" points="661.648,202.612 662.541,199.331 679.667,203.996 678.774,207.276 "/>
      <path class="fil3" d="M666.96 192.813c2.11,-1.153 4.355,-1.405 6.735,-0.756l0.048 0.013c2.38,0.648 4.172,1.999 5.374,4.054 1.226,2.096 1.518,4.318 0.879,6.666l-0.329 1.206 -17.126 -4.665 0.329 -1.206c0.64,-2.348 2.003,-4.118 4.09,-5.312z"/>
     </g>
    </g>
   </g>
  </g>
  <g id="legLeft_FL_FL_FL_FL_FL_FL_FL_FL_FL_FL_FL_FL_FL_FL_FL_FL">
   <g>
    <g>
     <g>
      <polygon class="fil0" points="270.771,213.1 270.955,210.2 253.205,210.2 253.112,212.2 "/>
      <path class="fil1" d="M270.457 219.85l0.314 -6.75 -17.659 -0.9 1.427 2.65 -1.55 0c-1.228,0.6 -2.355,1.55 -3.382,2.85l-0.1 2.15 20.95 0z"/>
      <polygon class="fil2" points="270.955,210.2 271.113,206.8 253.363,206.8 253.205,210.2 "/>
      <path class="fil3" d="M268.909 199.35c-1.656,-1.667 -3.717,-2.5 -6.184,-2.5l-0.05 0c-2.467,0 -4.589,0.833 -6.366,2.5 -1.812,1.7 -2.775,3.767 -2.888,6.2l-0.058 1.25 17.75 0 0.058 -1.25c0.113,-2.433 -0.641,-4.5 -2.262,-6.2z"/>
     </g>
    </g>
   </g>
  </g>
  <g id="legLeft_FL_FL_FL_FL_FL_FL_FL_FL_FL_FL_FL_FL_FL_FL_FL_FL_FL">
   <g>
    <g>
     <g>
      <polygon class="fil0" points="186.174,312.936 187.581,310.4 202.953,319.274 201.953,321.006 "/>
      <path class="fil1" d="M182.799 318.782l3.375 -5.846 15.779 8.07 -2.667 1.52 1.342 0.775c0.739,1.12 1.202,2.484 1.389,4.093l-1.074 1.862 -18.144 -10.474z"/>
      <polygon class="fil2" points="187.581,310.4 189.281,307.455 204.653,316.33 202.953,319.274 "/>
      <path class="fil3" d="M195.214 302.278c2.334,-0.577 4.569,-0.248 6.706,0.985l0.043 0.025c2.136,1.233 3.524,2.997 4.163,5.29 0.651,2.339 0.368,4.562 -0.848,6.669l-0.625 1.083 -15.372 -8.875 0.625 -1.082c1.216,-2.108 2.986,-3.473 5.308,-4.095z"/>
     </g>
    </g>
   </g>
  </g>
  <g id="legRight_FL_FL_FL_FL_FL_FL_FL_FL_FL_FL_FL_FL_FL_FL_FL_FL_FL_FL">
   <g>
    <g>
     <g>
      <polygon class="fil0" points="270.111,325.619 268.292,323.337 280.843,310.787 282.073,312.385 "/>
      <path class="fil1" d="M274.263 331.013l-4.152 -5.394 11.962 -13.234 0.534 3.213 1.096 -1.095c1.218,-0.37 2.568,-0.376 4.051,-0.021l1.323 1.718 -14.814 14.813z"/>
      <polygon class="fil2" points="268.292,323.337 266.201,320.621 278.751,308.07 280.843,310.787 "/>
      <path class="fil3" d="M263.421 312.865c0.201,-2.557 1.173,-4.708 2.917,-6.452l0.035 -0.035c1.745,-1.744 3.73,-2.552 5.957,-2.422 2.272,0.133 4.156,1.171 5.653,3.116l0.768 0.998 -12.55 12.551 -0.769 -0.999c-1.497,-1.944 -2.167,-4.197 -2.011,-6.757z"/>
     </g>
    </g>
   </g>
  </g>
  <g id="legLeft_FL_FL_FL_FL_FL_FL_FL_FL_FL_FL_FL_FL_FL_FL_FL_FL_FL_FL_FL">
   <g>
    <g>
     <g>
      <polygon class="fil0" points="359.7,323.1 359.75,320.2 342,320.2 342,322.2 "/>
      <path class="fil1" d="M359.7 329.85l0 -6.75 -17.7 -0.9 1.55 2.65 -1.55 0c-1.2,0.6 -2.283,1.55 -3.25,2.85l0 2.15 20.95 0z"/>
      <polygon class="fil2" points="359.75,320.2 359.75,316.8 342,316.8 342,320.2 "/>
      <path class="fil3" d="M357.2 309.35c-1.733,-1.667 -3.833,-2.5 -6.3,-2.5l-0.05 0c-2.467,0 -4.55,0.833 -6.25,2.5 -1.733,1.7 -2.6,3.767 -2.6,6.2l0 1.25 17.75 0 0 -1.25c0,-2.433 -0.85,-4.5 -2.55,-6.2z"/>
     </g>
    </g>
   </g>
  </g>
  <g id="legLeft_FL_FL_FL_FL_FL_FL_FL_FL_FL_FL_FL_FL_FL_FL_FL_FL_FL_FL_FL_FL">
   <g>
    <g>
     <g>
      <polygon class="fil0" points="419.509,323.1 420.177,320.2 437.927,320.2 437.432,322.2 "/>
      <path class="fil1" d="M417.837 329.85l1.672 -6.75 17.923 -0.9 -2.206 2.65 1.55 0c1.051,0.6 1.899,1.55 2.544,2.85l-0.533 2.15 -20.95 0z"/>
      <polygon class="fil2" points="420.177,320.2 421.019,316.8 438.77,316.8 437.927,320.2 "/>
      <path class="fil3" d="M425.415 309.35c2.146,-1.667 4.452,-2.5 6.919,-2.5l0.05 0c2.467,0 4.344,0.833 5.631,2.5 1.312,1.7 1.667,3.767 1.064,6.2l-0.309 1.25 -17.751 0 0.31 -1.25c0.603,-2.433 1.965,-4.5 4.086,-6.2z"/>
     </g>
    </g>
   </g>
  </g>
  <g id="legRight_FL_FL_FL_FL_FL_FL_FL_FL_FL_FL_FL_FL_FL_FL_FL_FL_FL_FL_FL_FL_FL_FL">
   <g>
    <g>
     <g>
      <polygon class="fil0" points="517.55,85.053 516.745,82.272 500.022,88.444 500.61,90.35 "/>
      <path class="fil1" d="M519.533 91.486l-1.983 -6.433 -16.94 5.297 2.239 1.987 -1.461 0.539c-0.954,0.989 -1.695,2.271 -2.224,3.846l0.632 2.048 19.737 -7.284z"/>
      <polygon class="fil2" points="516.745,82.272 515.746,79.032 499.023,85.204 500.022,88.444 "/>
      <path class="fil3" d="M511.155 72.819c-2.123,-0.986 -4.346,-1.05 -6.67,-0.192l-0.047 0.017c-2.324,0.858 -4.042,2.376 -5.154,4.556 -1.133,2.223 -1.343,4.493 -0.628,6.813l0.367 1.191 16.723 -6.172 -0.368 -1.191c-0.714,-2.32 -2.122,-3.993 -4.223,-5.022z"/>
     </g>
    </g>
   </g>
  </g>
  <g id="legLeft_FL_FL_FL_FL_FL_FL_FL_FL_FL_FL_FL_FL_FL_FL_FL_FL_FL_FL_FL_FL_FL_FL">
   <g>
    <g>
     <g>
      <polygon class="fil0" points="671.174,104.118 672.974,101.801 658.139,92.295 656.926,93.912 "/>
      <path class="fil1" d="M667.083 109.573l4.091 -5.455 -14.248 -10.206 -0.31 2.971 -1.296 -0.83c-1.366,-0.158 -2.847,0.03 -4.443,0.563l-1.303 1.737 17.509 11.22z"/>
      <polygon class="fil2" points="672.974,101.801 675.034,99.054 660.199,89.548 658.139,92.295 "/>
      <path class="fil3" d="M677.418 91.668c-0.438,-2.276 -1.688,-4.074 -3.75,-5.395l-0.042 -0.026c-2.061,-1.321 -4.307,-1.764 -6.738,-1.327 -2.479,0.445 -4.456,1.651 -5.931,3.618l-0.758 1.01 14.835 9.506 0.758 -1.01c1.475,-1.967 2.017,-4.092 1.626,-6.376z"/>
     </g>
    </g>
   </g>
  </g>
  <g id="legLeft_FL_FL_FL_FL_FL_FL_FL_FL_FL_FL_FL_FL_FL_FL_FL_FL_FL_FL_FL_FL_FL_FL_FL">
   <g>
    <g>
     <g>
      <polygon class="fil0" points="435.857,92.428 435.525,89.505 418.478,94.465 418.74,96.471 "/>
      <path class="fil1" d="M436.741 99.199l-0.884 -6.771 -17.117 4.043 1.835 2.225 -1.488 0.433c-1.074,0.937 -1.99,2.193 -2.748,3.767l0.281 2.157 20.121 -5.854z"/>
      <polygon class="fil2" points="435.525,89.505 435.08,86.094 418.033,91.054 418.478,94.465 "/>
      <path class="fil3" d="M431.655 79.334c-1.883,-1.188 -4.009,-1.437 -6.378,-0.748l-0.048 0.014c-2.369,0.69 -4.26,2.107 -5.675,4.255 -1.442,2.189 -2.003,4.504 -1.685,6.945l0.164 1.254 17.047 -4.96 -0.164 -1.254c-0.318,-2.441 -1.405,-4.276 -3.261,-5.506z"/>
     </g>
    </g>
   </g>
  </g>
 </g>
</svg>
