<?xml version="1.0" encoding="UTF-8"?>
<!DOCTYPE svg PUBLIC "-//W3C//DTD SVG 1.1//EN" "http://www.w3.org/Graphics/SVG/1.1/DTD/svg11.dtd">
<!-- Creator: CorelDRAW 2018 (64-Bit) -->
<svg xmlns="http://www.w3.org/2000/svg" xml:space="preserve" width="720px" height="330px" version="1.1" style="shape-rendering:geometricPrecision; text-rendering:geometricPrecision; image-rendering:optimizeQuality; fill-rule:evenodd; clip-rule:evenodd"
viewBox="0 0 720 330"
 xmlns:xlink="http://www.w3.org/1999/xlink">
 <defs>
  <style type="text/css">
   <![CDATA[
    .fil1 {fill:#9F7042}
    .fil0 {fill:#B8824D}
    .fil2 {fill:#D4D0C9}
   ]]>
  </style>
 </defs>
 <g id="Слой_x0020_1">
  <metadata id="CorelCorpID_0Corel-Layer"/>
  <g id="legLeft">
   <g>
    <g>
     <g>
      <path class="fil0" d="M29.25 320.15l-0.551 -5.9c-0.224,-2.174 -1.09,-3.974 -2.599,-5.4 -1.448,-1.333 -3.131,-2 -5.05,-2l-0.05 0c-1.928,0 -3.595,0.667 -5,2 -1.468,1.426 -2.284,3.226 -2.45,5.4l-0.4 5.9 16.1 0z"/>
      <polygon class="fil1" points="29.65,323.85 29.25,320.15 13.15,320.15 12.9,323.8 12.9,323.85 29.6,323.85 "/>
      <path class="fil2" d="M30.2 329.85l-0.6 -6 -16.7 0 0 -0.05c-1.175,0.706 -2.308,1.823 -3.401,3.35l-0.249 2.7 20.95 0z"/>
     </g>
    </g>
   </g>
  </g>
  <g id="legLeft_FL">
   <g>
    <g>
     <g>
      <path class="fil0" d="M38.75 100.15l-0.55 -5.9c-0.224,-2.174 -1.091,-3.974 -2.6,-5.4 -1.448,-1.333 -3.131,-2 -5.05,-2l-0.05 0c-1.929,0 -3.595,0.667 -5,2 -1.468,1.426 -2.285,3.226 -2.451,5.4l-0.399 5.9 16.1 0z"/>
      <polygon class="fil1" points="39.15,103.85 38.75,100.15 22.65,100.15 22.4,103.8 22.4,103.85 39.1,103.85 "/>
      <path class="fil2" d="M39.7 109.85l-0.6 -6 -16.7 0 0 -0.05c-1.175,0.706 -2.308,1.822 -3.4,3.35l-0.251 2.7 20.951 0z"/>
     </g>
    </g>
   </g>
  </g>
  <g id="legLeft_FL_FL">
   <g>
    <g>
     <g>
      <path class="fil0" d="M104.158 90.956l3.397 -4.834c1.27,-1.771 2.906,-2.897 4.909,-3.377 1.904,-0.431 3.679,-0.167 5.327,0.793l0.043 0.025c1.656,0.964 2.756,2.374 3.302,4.232 0.553,1.968 0.362,3.935 -0.573,5.901l-2.581 5.31 -13.824 -8.05z"/>
      <polygon class="fil1" points="101.98,93.96 104.158,90.956 117.982,99.006 116.387,102.292 116.362,102.335 102.024,93.986 "/>
      <path class="fil2" d="M98.534 98.882l3.49 -4.896 14.338 8.349 0.025 -0.043c0.659,1.198 1.078,2.732 1.259,4.601l-1.124 2.463 -17.988 -10.474z"/>
     </g>
    </g>
   </g>
  </g>
  <g id="legLeft_FL_FL_FL">
   <g>
    <g>
     <g>
      <path class="fil0" d="M181.225 88.786l2.032 -5.458c0.768,-2.002 2.03,-3.362 3.784,-4.079 1.674,-0.655 3.392,-0.563 5.154,0.277l0.046 0.022c1.77,0.843 3.128,2.216 4.073,4.118 0.978,2.02 1.262,4.116 0.851,6.288l-1.159 5.874 -14.781 -7.042z"/>
      <polygon class="fil1" points="179.9,92.185 181.225,88.786 196.006,95.828 195.291,99.463 195.278,99.511 179.946,92.207 "/>
      <path class="fil2" d="M177.842 97.74l2.104 -5.533 15.332 7.304 0.013 -0.048c0.895,1.195 1.647,2.77 2.254,4.723l-0.469 2.717 -19.234 -9.163z"/>
     </g>
    </g>
   </g>
  </g>
  <g id="legLeft_FL_FL_FL_FL">
   <g>
    <g>
     <g>
      <path class="fil0" d="M266.785 91.792l5.557 2.058c2.042,0.78 3.556,2.082 4.543,3.909 0.913,1.744 1.121,3.542 0.624,5.396l-0.012 0.048c-0.5,1.863 -1.575,3.3 -3.227,4.312 -1.757,1.049 -3.707,1.371 -5.85,0.969l-5.802 -1.141 4.167 -15.551z"/>
      <polygon class="fil1" points="263.315,90.448 266.785,91.792 262.618,107.343 259.028,106.64 258.98,106.627 263.302,90.496 "/>
      <path class="fil2" d="M257.662 88.364l5.64 2.132 -4.322 16.131 0.048 0.013c-0.986,0.952 -2.358,1.757 -4.116,2.417l-2.672 -0.458 5.422 -20.235z"/>
     </g>
    </g>
   </g>
  </g>
  <g id="legLeft_FL_FL_FL_FL_FL">
   <g>
    <g>
     <g>
      <path class="fil0" d="M356.803 97.287l1.935 -5.695c0.695,-2.109 0.68,-4.196 -0.044,-6.26 -0.708,-1.949 -1.893,-3.403 -3.555,-4.363l-0.044 -0.025c-1.669,-0.964 -3.385,-1.185 -5.147,-0.663 -1.854,0.577 -3.298,1.822 -4.33,3.736l-2.758 5.22 13.943 8.05z"/>
      <polygon class="fil1" points="355.636,100.887 356.803,97.287 342.86,89.237 341.151,92.465 341.13,92.511 355.593,100.862 "/>
      <path class="fil2" d="M353.659 106.673l1.934 -5.811 -14.463 -8.351 0.021 -0.046c-1.305,0.062 -2.743,0.521 -4.314,1.378l-1.32 2.355 18.142 10.475z"/>
     </g>
    </g>
   </g>
  </g>
  <g id="legLeft_FL_FL_FL_FL_FL_FL">
   <g>
    <g>
     <g>
      <path class="fil0" d="M20.138 198.548l4.561 -3.783c1.695,-1.379 3.581,-2.039 5.657,-1.98 1.966,0.081 3.628,0.8 4.985,2.157l0.035 0.035c1.363,1.363 2.07,3.013 2.121,4.95 0.03,2.046 -0.665,3.896 -2.085,5.551l-3.89 4.454 -11.384 -11.384z"/>
      <polygon class="fil1" points="17.239,200.881 20.138,198.548 31.522,209.932 29.118,212.69 29.083,212.725 17.274,200.917 "/>
      <path class="fil2" d="M12.607 204.735l4.667 -3.818 11.809 11.808 0.035 -0.035c0.332,1.329 0.343,2.92 0.036,4.773l-1.732 2.086 -14.815 -14.814z"/>
     </g>
    </g>
   </g>
  </g>
  <g id="legLeft_FL_FL_FL_FL_FL_FL_FL">
   <g>
    <g>
     <g>
      <path class="fil0" d="M106.422 200.306l3.426 -4.835c1.281,-1.77 2.932,-2.896 4.951,-3.376 1.921,-0.431 3.712,-0.167 5.374,0.793l0.043 0.025c1.67,0.964 2.78,2.375 3.33,4.232 0.558,1.969 0.366,3.936 -0.578,5.901l-2.604 5.31 -13.942 -8.05z"/>
      <polygon class="fil1" points="104.225,203.31 106.422,200.306 120.364,208.356 118.756,211.642 118.731,211.685 104.269,203.335 "/>
      <path class="fil2" d="M100.749 208.231l3.52 -4.896 14.462 8.35 0.025 -0.043c0.664,1.198 1.087,2.732 1.269,4.601l-1.133 2.463 -18.143 -10.475z"/>
     </g>
    </g>
   </g>
  </g>
  <g id="legLeft_FL_FL_FL_FL_FL_FL_FL_FL">
   <g>
    <g>
     <g>
      <path class="fil0" d="M189.25 210.15l-0.55 -5.9c-0.224,-2.174 -1.091,-3.974 -2.6,-5.4 -1.448,-1.333 -3.131,-2 -5.05,-2l-0.05 0c-1.928,0 -3.595,0.667 -5,2 -1.468,1.426 -2.284,3.226 -2.45,5.4l-0.4 5.9 16.1 0z"/>
      <polygon class="fil1" points="189.65,213.85 189.25,210.15 173.15,210.15 172.9,213.8 172.9,213.85 189.6,213.85 "/>
      <path class="fil2" d="M190.2 219.85l-0.6 -6 -16.7 0 0 -0.05c-1.174,0.706 -2.308,1.822 -3.4,3.35l-0.25 2.7 20.95 0z"/>
     </g>
    </g>
   </g>
  </g>
  <g id="legLeft_FL_FL_FL_FL_FL_FL_FL_FL_FL">
   <g>
    <g>
     <g>
      <path class="fil0" d="M349.9 210.15l-0.55 -5.9c-0.224,-2.174 -1.091,-3.974 -2.6,-5.4 -1.447,-1.333 -3.131,-2 -5.05,-2l-0.05 0c-1.928,0 -3.595,0.667 -5,2 -1.468,1.426 -2.284,3.226 -2.45,5.4l-0.4 5.9 16.1 0z"/>
      <polygon class="fil1" points="350.3,213.85 349.9,210.15 333.8,210.15 333.55,213.8 333.55,213.85 350.25,213.85 "/>
      <path class="fil2" d="M350.85 219.85l-0.6 -6 -16.7 0 0 -0.05c-1.174,0.706 -2.308,1.822 -3.4,3.35l-0.25 2.7 20.95 0z"/>
     </g>
    </g>
   </g>
  </g>
  <g id="legLeft_FL_FL_FL_FL_FL_FL_FL_FL_FL_FL">
   <g>
    <g>
     <g>
      <path class="fil0" d="M425.078 210.806l2.474 -5.385c0.893,-1.995 1.042,-3.987 0.448,-5.976 -0.587,-1.879 -1.711,-3.298 -3.373,-4.257l-0.043 -0.025c-1.67,-0.964 -3.447,-1.22 -5.331,-0.768 -1.984,0.501 -3.591,1.652 -4.821,3.451l-3.297 4.91 13.943 8.05z"/>
      <polygon class="fil1" points="423.575,214.21 425.078,210.806 411.135,202.756 409.094,205.792 409.069,205.836 423.532,214.185 "/>
      <path class="fil2" d="M421.051 219.681l2.481 -5.496 -14.463 -8.349 0.025 -0.044c-1.37,0.024 -2.91,0.425 -4.619,1.201l-1.567 2.214 18.143 10.474z"/>
     </g>
    </g>
   </g>
  </g>
  <g id="legLeft_FL_FL_FL_FL_FL_FL_FL_FL_FL_FL_FL">
   <g>
    <g>
     <g>
      <path class="fil0" d="M515.4 210.15l-0.55 -5.9c-0.224,-2.174 -1.091,-3.974 -2.6,-5.4 -1.447,-1.333 -3.131,-2 -5.05,-2l-0.05 0c-1.928,0 -3.595,0.667 -5,2 -1.468,1.426 -2.284,3.226 -2.45,5.4l-0.4 5.9 16.1 0z"/>
      <polygon class="fil1" points="515.8,213.85 515.4,210.15 499.3,210.15 499.05,213.8 499.05,213.85 515.75,213.85 "/>
      <path class="fil2" d="M516.35 219.85l-0.6 -6 -16.7 0 0 -0.05c-1.174,0.706 -2.308,1.822 -3.4,3.35l-0.25 2.7 20.95 0z"/>
     </g>
    </g>
   </g>
  </g>
  <g id="legLeft_FL_FL_FL_FL_FL_FL_FL_FL_FL_FL_FL_FL">
   <g>
    <g>
     <g>
      <path class="fil0" d="M598.8 100.15l-0.55 -5.9c-0.224,-2.174 -1.09,-3.974 -2.6,-5.4 -1.448,-1.333 -3.131,-2 -5.05,-2l-0.05 0c-1.928,0 -3.594,0.667 -5,2 -1.467,1.426 -2.284,3.226 -2.45,5.4l-0.4 5.9 16.1 0z"/>
      <polygon class="fil1" points="599.2,103.85 598.8,100.15 582.7,100.15 582.45,103.8 582.45,103.85 599.15,103.85 "/>
      <path class="fil2" d="M599.75 109.85l-0.6 -6 -16.7 0 0 -0.05c-1.174,0.706 -2.307,1.822 -3.4,3.35l-0.25 2.7 20.95 0z"/>
     </g>
    </g>
   </g>
  </g>
  <g id="legLeft_FL_FL_FL_FL_FL_FL_FL_FL_FL_FL_FL_FL_FL">
   <g>
    <g>
     <g>
      <path class="fil0" d="M581.38 200.04l2.531 -5.357c0.953,-1.967 2.382,-3.363 4.288,-4.189 1.816,-0.758 3.625,-0.81 5.429,-0.155l0.047 0.017c1.812,0.658 3.151,1.854 4.017,3.587 0.892,1.841 1.046,3.812 0.459,5.912l-1.638 5.682 -15.133 -5.497z"/>
      <polygon class="fil1" points="579.741,203.381 581.38,200.04 596.513,205.537 595.501,209.053 595.484,209.1 579.788,203.398 "/>
      <path class="fil2" d="M577.175 208.833l2.613 -5.435 15.696 5.702 0.017 -0.047c0.863,1.064 1.547,2.501 2.052,4.309l-0.686 2.623 -19.692 -7.152z"/>
     </g>
    </g>
   </g>
  </g>
  <g id="legLeft_FL_FL_FL_FL_FL_FL_FL_FL_FL_FL_FL_FL_FL_FL">
   <g>
    <g>
     <g>
      <path class="fil0" d="M116.433 307.814l5.306 -2.638c1.966,-0.954 3.953,-1.164 5.96,-0.631 1.895,0.529 3.348,1.61 4.358,3.241l0.026 0.042c1.015,1.64 1.325,3.408 0.931,5.305 -0.44,1.998 -1.541,3.64 -3.302,4.925l-4.806 3.445 -8.473 -13.689z"/>
      <polygon class="fil1" points="113.076,309.421 116.433,307.814 124.906,321.503 121.934,323.637 121.892,323.663 113.102,309.464 "/>
      <path class="fil2" d="M107.685 312.111l5.417 -2.647 8.79 14.199 0.042 -0.026c0.018,1.369 -0.335,2.921 -1.059,4.653l-2.164 1.634 -11.026 -17.813z"/>
     </g>
    </g>
   </g>
  </g>
  <g id="legLeft_FL_FL_FL_FL_FL_FL_FL_FL_FL_FL_FL_FL_FL_FL_FL">
   <g>
    <g>
     <g>
      <path class="fil0" d="M662.626 202.826l2.081 -5.548c0.788,-2.039 2.097,-3.548 3.928,-4.527 1.747,-0.906 3.546,-1.107 5.398,-0.602l0.048 0.013c1.861,0.506 3.293,1.588 4.299,3.244 1.041,1.761 1.356,3.713 0.945,5.854l-1.165 5.797 -15.534 -4.231z"/>
      <polygon class="fil1" points="661.268,206.291 662.626,202.826 678.16,207.057 677.442,210.645 677.429,210.693 661.316,206.304 "/>
      <path class="fil2" d="M659.16 211.935l2.156 -5.631 16.113 4.389 0.013 -0.048c0.947,0.989 1.747,2.364 2.4,4.125l-0.469 2.671 -20.213 -5.506z"/>
     </g>
    </g>
   </g>
  </g>
  <g id="legLeft_FL_FL_FL_FL_FL_FL_FL_FL_FL_FL_FL_FL_FL_FL_FL_FL">
   <g>
    <g>
     <g>
      <path class="fil0" d="M269.957 210.15l-0.276 -5.9c-0.123,-2.174 -0.906,-3.974 -2.349,-5.4 -1.386,-1.333 -3.038,-2 -4.957,-2l-0.05 0c-1.928,0 -3.626,0.667 -5.093,2 -1.534,1.426 -2.434,3.226 -2.701,5.4l-0.673 5.9 16.099 0z"/>
      <polygon class="fil1" points="270.185,213.85 269.957,210.15 253.858,210.15 253.438,213.8 253.436,213.85 270.136,213.85 "/>
      <path class="fil2" d="M270.457 219.85l-0.321 -6 -16.7 0 0.002 -0.05c-1.207,0.706 -2.392,1.822 -3.556,3.35l-0.375 2.7 20.95 0z"/>
     </g>
    </g>
   </g>
  </g>
  <g id="legLeft_FL_FL_FL_FL_FL_FL_FL_FL_FL_FL_FL_FL_FL_FL_FL_FL_FL">
   <g>
    <g>
     <g>
      <path class="fil0" d="M188.472 310.856l3.426 -4.834c1.281,-1.771 2.932,-2.896 4.951,-3.377 1.921,-0.431 3.712,-0.166 5.374,0.793l0.043 0.025c1.67,0.964 2.78,2.374 3.33,4.232 0.558,1.968 0.366,3.936 -0.578,5.901l-2.603 5.31 -13.943 -8.05z"/>
      <polygon class="fil1" points="186.275,313.861 188.472,310.856 202.415,318.906 200.807,322.192 200.782,322.235 186.319,313.886 "/>
      <path class="fil2" d="M182.799 318.782l3.52 -4.896 14.463 8.349 0.025 -0.043c0.664,1.198 1.087,2.732 1.269,4.601l-1.133 2.463 -18.144 -10.474z"/>
     </g>
    </g>
   </g>
  </g>
  <g id="legRight_FL_FL_FL_FL_FL_FL_FL_FL_FL_FL_FL_FL_FL_FL_FL_FL_FL_FL">
   <g>
    <g>
     <g>
      <path class="fil0" d="M268.968 322.591l-3.24 -5.104c-1.179,-1.895 -1.673,-3.946 -1.483,-6.153 0.204,-2.089 0.984,-3.812 2.34,-5.169l0.036 -0.035c1.363,-1.363 2.952,-2.009 4.766,-1.937 1.914,0.102 3.599,0.963 5.054,2.583l3.911 4.431 -11.384 11.384z"/>
      <polygon class="fil1" points="270.961,325.83 268.968,322.591 280.352,311.207 282.774,313.946 282.805,313.986 270.997,325.794 "/>
      <path class="fil2" d="M274.263 331.013l-3.266 -5.219 11.808 -11.808 -0.031 -0.04c1.265,-0.266 2.753,-0.175 4.465,0.273l1.838 1.981 -14.814 14.813z"/>
     </g>
    </g>
   </g>
  </g>
  <g id="legLeft_FL_FL_FL_FL_FL_FL_FL_FL_FL_FL_FL_FL_FL_FL_FL_FL_FL_FL_FL">
   <g>
    <g>
     <g>
      <path class="fil0" d="M358.75 320.15l-0.55 -5.9c-0.224,-2.174 -1.091,-3.974 -2.6,-5.4 -1.448,-1.333 -3.131,-2 -5.05,-2l-0.05 0c-1.928,0 -3.595,0.667 -5,2 -1.468,1.426 -2.284,3.226 -2.45,5.4l-0.4 5.9 16.1 0z"/>
      <polygon class="fil1" points="359.15,323.85 358.75,320.15 342.65,320.15 342.4,323.8 342.4,323.85 359.1,323.85 "/>
      <path class="fil2" d="M359.7 329.85l-0.6 -6 -16.7 0 0 -0.05c-1.174,0.706 -2.308,1.823 -3.4,3.35l-0.25 2.7 20.95 0z"/>
     </g>
    </g>
   </g>
  </g>
  <g id="legLeft_FL_FL_FL_FL_FL_FL_FL_FL_FL_FL_FL_FL_FL_FL_FL_FL_FL_FL_FL_FL">
   <g>
    <g>
     <g>
      <path class="fil0" d="M421.19 320.15l2.011 -5.9c0.763,-2.174 2.075,-3.974 3.937,-5.4 1.778,-1.333 3.627,-2 5.546,-2l0.05 0c1.928,0 3.43,0.667 4.505,2 1.114,1.426 1.485,3.226 1.112,5.4l-1.061 5.9 -16.1 0z"/>
      <polygon class="fil1" points="419.873,323.85 421.19,320.15 437.29,320.15 436.636,323.8 436.623,323.85 419.923,323.85 "/>
      <path class="fil2" d="M417.837 329.85l2.086 -6 16.7 0 0.013 -0.05c0.999,0.706 1.856,1.823 2.57,3.35l-0.419 2.7 -20.95 0z"/>
     </g>
    </g>
   </g>
  </g>
  <g id="legRight_FL_FL_FL_FL_FL_FL_FL_FL_FL_FL_FL_FL_FL_FL_FL_FL_FL_FL_FL_FL_FL_FL">
   <g>
    <g>
     <g>
      <path class="fil0" d="M515.788 82.572l-2.252 -5.431c-0.849,-1.994 -2.195,-3.408 -4.035,-4.243 -1.756,-0.767 -3.538,-0.817 -5.346,-0.15l-0.047 0.018c-1.817,0.67 -3.191,1.885 -4.123,3.644 -0.964,1.87 -1.204,3.869 -0.722,5.999l1.357 5.761 15.168 -5.598z"/>
      <polygon class="fil1" points="517.252,85.959 515.788,82.572 500.62,88.17 501.457,91.736 501.472,91.783 517.205,85.976 "/>
      <path class="fil2" d="M519.533 91.486l-2.328 -5.51 -15.733 5.807 -0.015 -0.047c-0.899,1.081 -1.639,2.539 -2.219,4.374l0.558 2.66 19.737 -7.284z"/>
     </g>
    </g>
   </g>
  </g>
  <g id="legLeft_FL_FL_FL_FL_FL_FL_FL_FL_FL_FL_FL_FL_FL_FL_FL_FL_FL_FL_FL_FL_FL_FL">
   <g>
    <g>
     <g>
      <path class="fil0" d="M672.168 101.225l3.116 -5.062c1.131,-1.877 1.497,-3.796 1.1,-5.756 -0.402,-1.853 -1.404,-3.293 -3.008,-4.321l-0.042 -0.027c-1.611,-1.032 -3.409,-1.386 -5.391,-1.061 -2.091,0.366 -3.865,1.384 -5.32,3.051l-3.911 4.554 13.456 8.622z"/>
      <polygon class="fil1" points="670.26,104.43 672.168,101.225 658.712,92.603 656.291,95.419 656.261,95.459 670.218,104.403 "/>
      <path class="fil2" d="M667.083 109.573l3.135 -5.17 -13.957 -8.944 0.03 -0.04c-1.409,-0.059 -3.033,0.237 -4.872,0.886l-1.845 2.048 17.509 11.22z"/>
     </g>
    </g>
   </g>
  </g>
  <g id="legLeft_FL_FL_FL_FL_FL_FL_FL_FL_FL_FL_FL_FL_FL_FL_FL_FL_FL_FL_FL_FL_FL_FL_FL">
   <g>
    <g>
     <g>
      <path class="fil0" d="M434.558 89.734l-1.3 -5.765c-0.501,-2.118 -1.569,-3.681 -3.205,-4.69 -1.564,-0.933 -3.269,-1.131 -5.112,-0.595l-0.048 0.014c-1.852,0.539 -3.365,1.673 -4.54,3.403 -1.223,1.841 -1.771,3.875 -1.646,6.102l0.389 6.03 15.462 -4.499z"/>
      <polygon class="fil1" points="435.427,93.334 434.558,89.734 419.096,94.233 419.333,97.964 419.34,98.014 435.379,93.348 "/>
      <path class="fil2" d="M436.741 99.199l-1.362 -5.851 -16.039 4.666 -0.007 -0.05c-1.035,1.036 -1.977,2.473 -2.826,4.311l0.113 2.778 20.121 -5.854z"/>
     </g>
    </g>
   </g>
  </g>
 </g>
</svg>
