<?xml version="1.0" encoding="UTF-8"?>
<!DOCTYPE svg PUBLIC "-//W3C//DTD SVG 1.1//EN" "http://www.w3.org/Graphics/SVG/1.1/DTD/svg11.dtd">
<!-- Creator: CorelDRAW 2018 (64-Bit) -->
<svg xmlns="http://www.w3.org/2000/svg" xml:space="preserve" width="720px" height="330px" version="1.1" style="shape-rendering:geometricPrecision; text-rendering:geometricPrecision; image-rendering:optimizeQuality; fill-rule:evenodd; clip-rule:evenodd"
viewBox="0 0 720 330"
 xmlns:xlink="http://www.w3.org/1999/xlink">
 <defs>
  <style type="text/css">
   <![CDATA[
    .fil2 {fill:#484848}
    .fil3 {fill:#545454}
    .fil0 {fill:#AA7847}
    .fil1 {fill:#B8824D}
   ]]>
  </style>
 </defs>
 <g id="Слой_x0020_1">
  <metadata id="CorelCorpID_0Corel-Layer"/>
  <g id="legLeft">
   <g>
    <g>
     <g>
      <polygon class="fil0" points="30.249,321.5 30.249,319.2 12.5,317.55 12.5,321.5 "/>
      <path class="fil1" d="M21.4 306.85l-0.05 0c-2.467,0 -4.55,0.833 -6.25,2.5 -1.734,1.7 -2.6,3.767 -2.6,6.2l0 2 17.749 1.65 0 -3.65c0,-2.433 -0.849,-4.5 -2.549,-6.2 -1.733,-1.667 -3.834,-2.5 -6.3,-2.5z"/>
      <polygon class="fil2" points="30.249,324.9 30.249,321.5 12.5,321.5 12.5,324.85 12.5,324.9 30.2,324.9 "/>
      <path class="fil3" d="M30.2 329.85l0 -4.95 -17.7 0 0 -0.05c-1.2,0.6 -2.284,1.55 -3.25,2.85l0 2.15 20.95 0z"/>
     </g>
    </g>
   </g>
  </g>
  <g id="legLeft_FL">
   <g>
    <g>
     <g>
      <polygon class="fil0" points="39.75,101.5 39.75,99.2 22,97.55 22,101.5 "/>
      <path class="fil1" d="M30.9 86.85l-0.05 0c-2.467,0 -4.551,0.833 -6.25,2.5 -1.733,1.7 -2.6,3.767 -2.6,6.2l0 2 17.75 1.65 0 -3.65c0,-2.433 -0.85,-4.5 -2.55,-6.2 -1.734,-1.667 -3.834,-2.5 -6.3,-2.5z"/>
      <polygon class="fil2" points="39.75,104.9 39.75,101.5 22,101.5 22,104.85 22,104.9 39.7,104.9 "/>
      <path class="fil3" d="M39.7 109.85l0 -4.95 -17.7 0 0 -0.05c-1.2,0.6 -2.284,1.55 -3.251,2.85l0 2.15 20.951 0z"/>
     </g>
    </g>
   </g>
  </g>
  <g id="legLeft_FL_FL">
   <g>
    <g>
     <g>
      <polygon class="fil0" points="102.63,91.625 103.77,89.633 119.829,97.079 117.871,100.5 "/>
      <path class="fil1" d="M117.491 83.363l0.043 0.025c2.118,1.233 3.493,2.996 4.127,5.29 0.645,2.338 0.365,4.562 -0.841,6.669l-0.991 1.732 -16.059 -7.446 1.81 -3.161c1.206,-2.107 2.96,-3.472 5.262,-4.094 2.315,-0.577 4.531,-0.248 6.649,0.985z"/>
      <polygon class="fil2" points="100.945,94.57 102.63,91.625 117.871,100.5 116.21,103.401 116.185,103.444 100.988,94.595 "/>
      <path class="fil3" d="M98.534 98.882l2.454 -4.287 15.197 8.849 0.025 -0.043c0.733,1.119 1.192,2.484 1.378,4.093l-1.066 1.862 -17.988 -10.474z"/>
     </g>
    </g>
   </g>
  </g>
  <g id="legLeft_FL_FL_FL">
   <g>
    <g>
     <g>
      <polygon class="fil0" points="179.957,89.653 180.552,87.431 197.275,93.601 196.253,97.416 "/>
      <path class="fil1" d="M191.874 79.373l0.046 0.022c2.264,1.078 3.961,2.795 5.091,5.148 1.151,2.4 1.412,4.776 0.782,7.126l-0.518 1.932 -16.723 -6.17 0.945 -3.525c0.63,-2.351 1.945,-3.975 3.946,-4.874 2.023,-0.852 4.166,-0.738 6.431,0.341z"/>
      <polygon class="fil2" points="179.077,92.937 179.957,89.653 196.253,97.416 195.386,100.652 195.373,100.7 179.123,92.959 "/>
      <path class="fil3" d="M177.842 97.74l1.281 -4.781 16.25 7.741 0.013 -0.048c0.947,1.105 1.695,2.496 2.246,4.174l-0.556 2.077 -19.234 -9.163z"/>
     </g>
    </g>
   </g>
  </g>
  <g id="legLeft_FL_FL_FL_FL">
   <g>
    <g>
     <g>
      <polygon class="fil0" points="265.74,90.477 267.962,91.072 264.961,108.644 261.146,107.621 "/>
      <path class="fil1" d="M277.6 102.817l-0.013 0.048c-0.638,2.383 -1.982,4.179 -4.032,5.39 -2.091,1.234 -4.312,1.536 -6.662,0.907l-1.932 -0.518 3.001 -17.572 3.526 0.945c2.35,0.63 4.126,1.986 5.328,4.068 1.161,2.105 1.423,4.349 0.784,6.732z"/>
      <polygon class="fil2" points="262.456,89.597 265.74,90.477 261.146,107.621 257.91,106.754 257.862,106.742 262.443,89.645 "/>
      <path class="fil3" d="M257.662 88.364l4.781 1.281 -4.581 17.097 0.048 0.012c-0.89,1.004 -2.088,1.805 -3.594,2.402l-2.076 -0.557 5.422 -20.235z"/>
     </g>
    </g>
   </g>
  </g>
  <g id="legLeft_FL_FL_FL_FL_FL">
   <g>
    <g>
     <g>
      <polygon class="fil0" points="357.117,99.028 358.057,96.915 343.36,86.524 341.745,90.152 "/>
      <path class="fil1" d="M355.442 81.144l-0.044 -0.025c-2.136,-1.233 -4.281,-1.509 -6.434,-0.828 -2.197,0.695 -3.792,2.16 -4.787,4.395l-0.817 1.838 14.697 10.391 1.492 -3.353c0.995,-2.236 1.104,-4.559 0.327,-6.971 -0.82,-2.398 -2.298,-4.213 -4.434,-5.447z"/>
      <polygon class="fil2" points="355.726,102.151 357.117,99.028 341.745,90.152 340.375,93.23 340.355,93.276 355.683,102.126 "/>
      <path class="fil3" d="M353.659 106.673l2.024 -4.547 -15.328 -8.85 0.02 -0.046c-1.284,-0.049 -2.611,0.282 -3.979,0.993l-0.879 1.975 18.142 10.475z"/>
     </g>
    </g>
   </g>
  </g>
  <g id="legLeft_FL_FL_FL_FL_FL_FL">
   <g>
    <g>
     <g>
      <polygon class="fil0" points="18.476,198.795 20.103,197.169 33.821,208.553 31.028,211.346 "/>
      <path class="fil1" d="M35.093 194.694l0.035 0.035c1.745,1.745 2.629,3.807 2.652,6.187 0.024,2.428 -0.824,4.503 -2.545,6.223l-1.414 1.414 -13.718 -11.384 2.581 -2.581c1.72,-1.72 3.783,-2.581 6.187,-2.581 2.404,0.047 4.478,0.943 6.222,2.687z"/>
      <polygon class="fil2" points="16.072,201.2 18.476,198.795 31.028,211.346 28.659,213.715 28.624,213.751 16.108,201.235 "/>
      <path class="fil3" d="M12.607 204.735l3.501 -3.5 12.516 12.516 0.035 -0.036c0.424,1.273 0.518,2.711 0.283,4.314l-1.52 1.52 -14.815 -14.814z"/>
     </g>
    </g>
   </g>
  </g>
  <g id="legLeft_FL_FL_FL_FL_FL_FL_FL">
   <g>
    <g>
     <g>
      <polygon class="fil0" points="104.88,200.975 106.031,198.983 122.227,206.429 120.252,209.85 "/>
      <path class="fil1" d="M119.87 192.713l0.043 0.025c2.136,1.233 3.524,2.997 4.163,5.29 0.651,2.339 0.368,4.562 -0.849,6.669l-1 1.732 -16.196 -7.446 1.825 -3.161c1.216,-2.107 2.986,-3.472 5.308,-4.094 2.334,-0.577 4.57,-0.248 6.706,0.985z"/>
      <polygon class="fil2" points="103.18,203.919 104.88,200.975 120.252,209.85 118.578,212.751 118.552,212.794 103.224,203.944 "/>
      <path class="fil3" d="M100.749 208.231l2.475 -4.287 15.328 8.85 0.026 -0.043c0.739,1.12 1.202,2.484 1.389,4.093l-1.075 1.862 -18.143 -10.475z"/>
     </g>
    </g>
   </g>
  </g>
  <g id="legLeft_FL_FL_FL_FL_FL_FL_FL_FL">
   <g>
    <g>
     <g>
      <polygon class="fil0" points="190.25,211.5 190.25,209.2 172.5,207.55 172.5,211.5 "/>
      <path class="fil1" d="M181.4 196.85l-0.05 0c-2.467,0 -4.55,0.833 -6.25,2.5 -1.734,1.7 -2.6,3.767 -2.6,6.2l0 2 17.75 1.65 0 -3.65c0,-2.433 -0.85,-4.5 -2.55,-6.2 -1.733,-1.667 -3.833,-2.5 -6.3,-2.5z"/>
      <polygon class="fil2" points="190.25,214.9 190.25,211.5 172.5,211.5 172.5,214.85 172.5,214.9 190.2,214.9 "/>
      <path class="fil3" d="M190.2 219.85l0 -4.95 -17.7 0 0 -0.05c-1.2,0.6 -2.284,1.55 -3.25,2.85l0 2.15 20.95 0z"/>
     </g>
    </g>
   </g>
  </g>
  <g id="legLeft_FL_FL_FL_FL_FL_FL_FL_FL_FL">
   <g>
    <g>
     <g>
      <polygon class="fil0" points="350.9,211.5 350.9,209.2 333.15,207.55 333.15,211.5 "/>
      <path class="fil1" d="M342.05 196.85l-0.05 0c-2.467,0 -4.55,0.833 -6.25,2.5 -1.733,1.7 -2.6,3.767 -2.6,6.2l0 2 17.75 1.65 0 -3.65c0,-2.433 -0.85,-4.5 -2.55,-6.2 -1.733,-1.667 -3.833,-2.5 -6.3,-2.5z"/>
      <polygon class="fil2" points="350.9,214.9 350.9,211.5 333.15,211.5 333.15,214.85 333.15,214.9 350.85,214.9 "/>
      <path class="fil3" d="M350.85 219.85l0 -4.95 -17.7 0 0 -0.05c-1.2,0.6 -2.283,1.55 -3.25,2.85l0 2.15 20.95 0z"/>
     </g>
    </g>
   </g>
  </g>
  <g id="legLeft_FL_FL_FL_FL_FL_FL_FL_FL_FL_FL">
   <g>
    <g>
     <g>
      <polygon class="fil0" points="425.269,212.475 426.419,210.483 411.872,200.179 409.897,203.6 "/>
      <path class="fil1" d="M424.93 195.363l-0.043 -0.025c-2.137,-1.233 -4.357,-1.553 -6.663,-0.96 -2.351,0.605 -4.135,1.962 -5.352,4.069l-1 1.732 14.547 10.304 1.825 -3.161c1.217,-2.107 1.514,-4.322 0.892,-6.644 -0.668,-2.31 -2.07,-4.082 -4.206,-5.315z"/>
      <polygon class="fil2" points="423.569,215.42 425.269,212.475 409.897,203.6 408.222,206.502 408.197,206.545 423.526,215.394 "/>
      <path class="fil3" d="M421.051 219.681l2.475 -4.287 -15.329 -8.849 0.025 -0.043c-1.339,-0.081 -2.752,0.2 -4.239,0.843l-1.075 1.862 18.143 10.474z"/>
     </g>
    </g>
   </g>
  </g>
  <g id="legLeft_FL_FL_FL_FL_FL_FL_FL_FL_FL_FL_FL">
   <g>
    <g>
     <g>
      <polygon class="fil0" points="516.4,211.5 516.4,209.2 498.65,207.55 498.65,211.5 "/>
      <path class="fil1" d="M507.55 196.85l-0.05 0c-2.467,0 -4.55,0.833 -6.25,2.5 -1.733,1.7 -2.6,3.767 -2.6,6.2l0 2 17.75 1.65 0 -3.65c0,-2.433 -0.85,-4.5 -2.55,-6.2 -1.733,-1.667 -3.833,-2.5 -6.3,-2.5z"/>
      <polygon class="fil2" points="516.4,214.9 516.4,211.5 498.65,211.5 498.65,214.85 498.65,214.9 516.35,214.9 "/>
      <path class="fil3" d="M516.35 219.85l0 -4.95 -17.7 0 0 -0.05c-1.2,0.6 -2.283,1.55 -3.25,2.85l0 2.15 20.95 0z"/>
     </g>
    </g>
   </g>
  </g>
  <g id="legLeft_FL_FL_FL_FL_FL_FL_FL_FL_FL_FL_FL_FL">
   <g>
    <g>
     <g>
      <polygon class="fil0" points="599.8,101.5 599.8,99.2 582.05,97.55 582.05,101.5 "/>
      <path class="fil1" d="M590.95 86.85l-0.05 0c-2.466,0 -4.55,0.833 -6.25,2.5 -1.733,1.7 -2.6,3.767 -2.6,6.2l0 2 17.75 1.65 0 -3.65c0,-2.433 -0.85,-4.5 -2.55,-6.2 -1.733,-1.667 -3.833,-2.5 -6.3,-2.5z"/>
      <polygon class="fil2" points="599.8,104.9 599.8,101.5 582.05,101.5 582.05,104.85 582.05,104.9 599.75,104.9 "/>
      <path class="fil3" d="M599.75 109.85l0 -4.95 -17.7 0 0 -0.05c-1.2,0.6 -2.283,1.55 -3.25,2.85l0 2.15 20.95 0z"/>
     </g>
    </g>
   </g>
  </g>
  <g id="legLeft_FL_FL_FL_FL_FL_FL_FL_FL_FL_FL_FL_FL_FL">
   <g>
    <g>
     <g>
      <polygon class="fil0" points="579.979,200.968 580.764,198.806 598.011,203.315 596.663,207.028 "/>
      <path class="fil1" d="M593.299 190.219l0.047 0.018c2.318,0.842 3.992,2.336 5.021,4.483 1.049,2.19 1.158,4.428 0.327,6.715l-0.683 1.88 -17.247 -4.509 1.247 -3.431c0.831,-2.287 2.335,-3.939 4.513,-4.957 2.199,-0.974 4.457,-1.041 6.775,-0.199z"/>
      <polygon class="fil2" points="578.818,204.163 579.979,200.968 596.663,207.028 595.519,210.176 595.502,210.224 578.865,204.18 "/>
      <path class="fil3" d="M577.175 208.833l1.69 -4.653 16.637 6.044 0.017 -0.048c0.923,0.974 1.617,2.237 2.082,3.789l-0.734 2.02 -19.692 -7.152z"/>
     </g>
    </g>
   </g>
  </g>
  <g id="legLeft_FL_FL_FL_FL_FL_FL_FL_FL_FL_FL_FL_FL_FL_FL">
   <g>
    <g>
     <g>
      <polygon class="fil0" points="114.758,307.674 116.714,306.463 127.459,320.687 124.101,322.766 "/>
      <path class="fil1" d="M131.873 307.488l0.026 0.043c1.298,2.097 1.686,4.307 1.164,6.63 -0.533,2.368 -1.835,4.193 -3.904,5.474l-1.7 1.052 -10.745 -14.224 3.104 -1.92c2.068,-1.281 4.273,-1.646 6.613,-1.095 2.33,0.596 4.143,1.943 5.442,4.04z"/>
      <polygon class="fil2" points="111.868,309.464 114.758,307.674 124.101,322.766 121.252,324.529 121.21,324.556 111.894,309.506 "/>
      <path class="fil3" d="M107.685 312.111l4.209 -2.605 9.316 15.05 0.042 -0.027c0.121,1.337 -0.116,2.758 -0.713,4.264l-1.828 1.131 -11.026 -17.813z"/>
     </g>
    </g>
   </g>
  </g>
  <g id="legLeft_FL_FL_FL_FL_FL_FL_FL_FL_FL_FL_FL_FL_FL_FL_FL">
   <g>
    <g>
     <g>
      <polygon class="fil0" points="661.306,203.866 661.911,201.647 679.47,204.719 678.432,208.531 "/>
      <path class="fil1" d="M673.695 192.057l0.048 0.013c2.38,0.648 4.172,1.999 5.374,4.054 1.226,2.096 1.518,4.318 0.879,6.666l-0.526 1.929 -17.559 -3.072 0.959 -3.522c0.64,-2.348 2.003,-4.118 4.09,-5.312 2.11,-1.153 4.355,-1.405 6.735,-0.756z"/>
      <polygon class="fil2" points="660.413,207.146 661.306,203.866 678.432,208.531 677.552,211.763 677.539,211.811 660.461,207.16 "/>
      <path class="fil3" d="M659.16 211.935l1.301 -4.775 17.078 4.651 0.013 -0.048c1,0.894 1.796,2.095 2.386,3.604l-0.565 2.074 -20.213 -5.506z"/>
     </g>
    </g>
   </g>
  </g>
  <g id="legLeft_FL_FL_FL_FL_FL_FL_FL_FL_FL_FL_FL_FL_FL_FL_FL_FL">
   <g>
    <g>
     <g>
      <polygon class="fil0" points="270.895,211.5 271.001,209.2 253.328,207.55 253.145,211.5 "/>
      <path class="fil1" d="M262.725 196.85l-0.05 0c-2.467,0 -4.589,0.833 -6.366,2.5 -1.812,1.7 -2.775,3.767 -2.888,6.2l-0.093 2 17.673 1.65 0.17 -3.65c0.113,-2.433 -0.641,-4.5 -2.262,-6.2 -1.656,-1.667 -3.717,-2.5 -6.184,-2.5z"/>
      <polygon class="fil2" points="270.737,214.9 270.895,211.5 253.145,211.5 252.989,214.85 252.987,214.9 270.687,214.9 "/>
      <path class="fil3" d="M270.457 219.85l0.23 -4.95 -17.7 0 0.002 -0.05c-1.228,0.6 -2.355,1.55 -3.382,2.85l-0.1 2.15 20.95 0z"/>
     </g>
    </g>
   </g>
  </g>
  <g id="legLeft_FL_FL_FL_FL_FL_FL_FL_FL_FL_FL_FL_FL_FL_FL_FL_FL_FL">
   <g>
    <g>
     <g>
      <polygon class="fil0" points="186.931,311.526 188.081,309.534 204.278,316.979 202.303,320.4 "/>
      <path class="fil1" d="M201.92 303.263l0.043 0.025c2.136,1.233 3.524,2.997 4.163,5.29 0.651,2.339 0.368,4.562 -0.848,6.669l-1 1.732 -16.197 -7.445 1.825 -3.161c1.216,-2.108 2.986,-3.473 5.308,-4.095 2.334,-0.577 4.569,-0.248 6.706,0.985z"/>
      <polygon class="fil2" points="185.231,314.47 186.931,311.526 202.303,320.4 200.628,323.301 200.603,323.345 185.274,314.495 "/>
      <path class="fil3" d="M182.799 318.782l2.475 -4.287 15.329 8.85 0.025 -0.044c0.739,1.12 1.202,2.484 1.389,4.093l-1.074 1.862 -18.144 -10.474z"/>
     </g>
    </g>
   </g>
  </g>
  <g id="legRight_FL_FL_FL_FL_FL_FL_FL_FL_FL_FL_FL_FL_FL_FL_FL_FL_FL_FL">
   <g>
    <g>
     <g>
      <polygon class="fil0" points="269.092,324.376 267.677,322.538 279.213,308.67 281.642,311.826 "/>
      <path class="fil1" d="M266.338 306.413l0.035 -0.035c1.745,-1.744 3.73,-2.552 5.957,-2.422 2.272,0.133 4.156,1.171 5.653,3.116l1.23 1.598 -11.536 13.868 -2.245 -2.916c-1.497,-1.944 -2.167,-4.197 -2.011,-6.757 0.201,-2.557 1.173,-4.708 2.917,-6.452z"/>
      <polygon class="fil2" points="271.183,327.093 269.092,324.376 281.642,311.826 283.703,314.503 283.734,314.542 271.218,327.058 "/>
      <path class="fil3" d="M274.263 331.013l-3.045 -3.955 12.516 -12.516 -0.031 -0.039c1.218,-0.37 2.568,-0.376 4.051,-0.021l1.323 1.718 -14.814 14.813z"/>
     </g>
    </g>
   </g>
  </g>
  <g id="legLeft_FL_FL_FL_FL_FL_FL_FL_FL_FL_FL_FL_FL_FL_FL_FL_FL_FL_FL_FL">
   <g>
    <g>
     <g>
      <polygon class="fil0" points="359.75,321.5 359.75,319.2 342,317.55 342,321.5 "/>
      <path class="fil1" d="M350.9 306.85l-0.05 0c-2.467,0 -4.55,0.833 -6.25,2.5 -1.733,1.7 -2.6,3.767 -2.6,6.2l0 2 17.75 1.65 0 -3.65c0,-2.433 -0.85,-4.5 -2.55,-6.2 -1.733,-1.667 -3.833,-2.5 -6.3,-2.5z"/>
      <polygon class="fil2" points="359.75,324.9 359.75,321.5 342,321.5 342,324.85 342,324.9 359.7,324.9 "/>
      <path class="fil3" d="M359.7 329.85l0 -4.95 -17.7 0 0 -0.05c-1.2,0.6 -2.283,1.55 -3.25,2.85l0 2.15 20.95 0z"/>
     </g>
    </g>
   </g>
  </g>
  <g id="legLeft_FL_FL_FL_FL_FL_FL_FL_FL_FL_FL_FL_FL_FL_FL_FL_FL_FL_FL_FL_FL">
   <g>
    <g>
     <g>
      <polygon class="fil0" points="419.855,321.5 420.425,319.2 438.584,317.55 437.605,321.5 "/>
      <path class="fil1" d="M432.334 306.85l0.05 0c2.467,0 4.344,0.833 5.631,2.5 1.312,1.7 1.667,3.767 1.064,6.2l-0.495 2 -18.159 1.65 0.904 -3.65c0.603,-2.433 1.965,-4.5 4.086,-6.2 2.146,-1.667 4.452,-2.5 6.919,-2.5z"/>
      <polygon class="fil2" points="419.013,324.9 419.855,321.5 437.605,321.5 436.776,324.85 436.763,324.9 419.063,324.9 "/>
      <path class="fil3" d="M417.837 329.85l1.226 -4.95 17.7 0 0.013 -0.05c1.051,0.6 1.899,1.55 2.544,2.85l-0.533 2.15 -20.95 0z"/>
     </g>
    </g>
   </g>
  </g>
  <g id="legRight_FL_FL_FL_FL_FL_FL_FL_FL_FL_FL_FL_FL_FL_FL_FL_FL_FL_FL_FL_FL_FL_FL">
   <g>
    <g>
     <g>
      <polygon class="fil0" points="517.127,83.511 516.451,81.319 499.244,85.919 500.404,89.683 "/>
      <path class="fil1" d="M504.485 72.627l-0.047 0.017c-2.324,0.858 -4.042,2.376 -5.154,4.556 -1.133,2.223 -1.343,4.493 -0.628,6.813l0.588 1.906 17.207 -4.6 -1.073 -3.478c-0.714,-2.32 -2.122,-3.993 -4.223,-5.022 -2.123,-0.986 -4.346,-1.05 -6.67,-0.192z"/>
      <polygon class="fil2" points="518.126,86.751 517.127,83.511 500.404,89.683 501.388,92.876 501.403,92.923 518.079,86.769 "/>
      <path class="fil3" d="M519.533 91.486l-1.454 -4.717 -16.676 6.154 -0.015 -0.047c-0.954,0.989 -1.695,2.271 -2.224,3.846l0.632 2.048 19.737 -7.284z"/>
     </g>
    </g>
   </g>
  </g>
  <g id="legLeft_FL_FL_FL_FL_FL_FL_FL_FL_FL_FL_FL_FL_FL_FL_FL_FL_FL_FL_FL_FL_FL_FL">
   <g>
    <g>
     <g>
      <polygon class="fil0" points="672.186,102.852 673.58,100.993 659.745,90.154 657.351,93.346 "/>
      <path class="fil1" d="M673.668 86.273l-0.042 -0.026c-2.061,-1.321 -4.307,-1.764 -6.738,-1.327 -2.479,0.445 -4.456,1.651 -5.931,3.618l-1.212 1.616 13.835 10.839 2.212 -2.949c1.475,-1.967 2.017,-4.092 1.626,-6.376 -0.438,-2.276 -1.688,-4.074 -3.75,-5.395z"/>
      <polygon class="fil2" points="670.125,105.599 672.186,102.852 657.351,93.346 655.32,96.053 655.29,96.094 670.083,105.573 "/>
      <path class="fil3" d="M667.083 109.573l3 -4 -14.793 -9.479 0.03 -0.041c-1.366,-0.158 -2.847,0.03 -4.443,0.563l-1.303 1.737 17.509 11.22z"/>
     </g>
    </g>
   </g>
  </g>
  <g id="legLeft_FL_FL_FL_FL_FL_FL_FL_FL_FL_FL_FL_FL_FL_FL_FL_FL_FL_FL_FL_FL_FL_FL_FL">
   <g>
    <g>
     <g>
      <polygon class="fil0" points="435.695,90.809 435.394,88.502 418.131,91.806 418.648,95.769 "/>
      <path class="fil1" d="M425.277 78.586l-0.048 0.014c-2.369,0.69 -4.26,2.107 -5.675,4.255 -1.442,2.189 -2.003,4.504 -1.685,6.945l0.262 2.006 17.263 -3.304 -0.478 -3.662c-0.318,-2.441 -1.405,-4.276 -3.261,-5.506 -1.883,-1.188 -4.009,-1.437 -6.378,-0.748z"/>
      <polygon class="fil2" points="436.141,94.22 435.695,90.809 418.648,95.769 419.087,99.129 419.093,99.179 436.093,94.234 "/>
      <path class="fil3" d="M436.741 99.199l-0.648 -4.965 -17 4.945 -0.006 -0.05c-1.074,0.937 -1.99,2.193 -2.748,3.767l0.281 2.157 20.121 -5.854z"/>
     </g>
    </g>
   </g>
  </g>
 </g>
</svg>
