<?xml version="1.0" encoding="UTF-8"?>
<!DOCTYPE svg PUBLIC "-//W3C//DTD SVG 1.1//EN" "http://www.w3.org/Graphics/SVG/1.1/DTD/svg11.dtd">
<!-- Creator: CorelDRAW 2018 (64-Bit) -->
<svg xmlns="http://www.w3.org/2000/svg" xml:space="preserve" width="720px" height="330px" version="1.1" style="shape-rendering:geometricPrecision; text-rendering:geometricPrecision; image-rendering:optimizeQuality; fill-rule:evenodd; clip-rule:evenodd"
viewBox="0 0 720 330"
 xmlns:xlink="http://www.w3.org/1999/xlink">
 <defs>
  <style type="text/css">
   <![CDATA[
    .fil1 {fill:#2A7DB4}
    .fil2 {fill:#3498DB}
    .fil0 {fill:#B8824D}
   ]]>
  </style>
 </defs>
 <g id="Слой_x0020_1">
  <metadata id="CorelCorpID_0Corel-Layer"/>
  <g id="legLeft">
   <g>
    <g>
     <g>
      <path class="fil0" d="M30.214 329.826l0 -4.946 -17.727 0 0 -0.049c-1.175,0.626 -2.249,1.583 -3.223,2.868l0 2.127 20.95 0z"/>
      <polygon class="fil1" points="30.214,324.88 30.264,324.88 30.264,321.517 12.487,321.517 12.487,324.831 12.487,324.88 "/>
      <path class="fil2" d="M27.696 309.349c-1.746,-1.682 -3.845,-2.522 -6.295,-2.522l-0.051 0c-2.45,0 -4.532,0.84 -6.244,2.522 -1.746,1.715 -2.619,3.776 -2.619,6.183l0 5.985 17.777 0 0 -5.985c0,-2.407 -0.856,-4.468 -2.568,-6.183z"/>
     </g>
    </g>
   </g>
  </g>
  <g id="legLeft_FL">
   <g>
    <g>
     <g>
      <path class="fil0" d="M39.714 109.826l0 -4.946 -17.727 0 0 -0.049c-1.175,0.626 -2.249,1.582 -3.223,2.868l0 2.127 20.95 0z"/>
      <polygon class="fil1" points="39.714,104.88 39.764,104.88 39.764,101.517 21.987,101.517 21.987,104.831 21.987,104.88 "/>
      <path class="fil2" d="M37.196 89.349c-1.746,-1.682 -3.844,-2.523 -6.295,-2.523l-0.051 0c-2.451,0 -4.532,0.841 -6.244,2.523 -1.746,1.715 -2.619,3.776 -2.619,6.182l0 5.986 17.777 0 0 -5.986c0,-2.407 -0.856,-4.467 -2.568,-6.182z"/>
     </g>
    </g>
   </g>
  </g>
  <g id="legLeft_FL_FL">
   <g>
    <g>
     <g>
      <path class="fil0" d="M98.534 98.854l2.452 -4.283 15.22 8.862 0.024 -0.042c0.699,1.13 1.147,2.495 1.346,4.095l-1.055 1.842 -17.987 -10.474z"/>
      <polygon class="fil1" points="100.986,94.571 100.943,94.545 102.61,91.632 117.873,100.52 116.23,103.391 116.206,103.433 "/>
      <path class="fil2" d="M110.846 82.379c2.333,-0.584 4.551,-0.263 6.655,0.963l0.044 0.025c2.104,1.225 3.474,2.994 4.111,5.306 0.649,2.359 0.377,4.58 -0.816,6.664l-2.967 5.183 -15.263 -8.888 2.966 -5.182c1.193,-2.085 2.95,-3.442 5.27,-4.071z"/>
     </g>
    </g>
   </g>
  </g>
  <g id="legLeft_FL_FL_FL">
   <g>
    <g>
     <g>
      <path class="fil0" d="M177.836 97.711l1.279 -4.778 16.275 7.754 0.013 -0.048c0.916,1.119 1.655,2.513 2.216,4.181l-0.55 2.054 -19.233 -9.163z"/>
      <polygon class="fil1" points="179.115,92.933 179.069,92.911 179.94,89.663 196.26,97.438 195.403,100.639 195.39,100.687 "/>
      <path class="fil2" d="M185.447 79.033c2.038,-0.861 4.182,-0.756 6.432,0.316l0.046 0.023c2.25,1.072 3.944,2.794 5.08,5.167 1.159,2.42 1.427,4.793 0.804,7.118l-1.549 5.781 -16.32 -7.775 1.549 -5.781c0.623,-2.325 1.942,-3.942 3.958,-4.849z"/>
     </g>
    </g>
   </g>
  </g>
  <g id="legLeft_FL_FL_FL_FL">
   <g>
    <g>
     <g>
      <path class="fil0" d="M257.689 88.356l4.777 1.281 -4.588 17.122 0.047 0.012c-0.909,0.973 -2.11,1.764 -3.604,2.371l-2.055 -0.55 5.423 -20.236z"/>
      <polygon class="fil1" points="262.466,89.637 262.479,89.588 265.728,90.459 261.127,107.629 257.925,106.771 257.878,106.759 "/>
      <path class="fil2" d="M276.816 96.089c1.172,2.121 1.441,4.366 0.807,6.733l-0.013 0.049c-0.634,2.367 -1.985,4.16 -4.053,5.378 -2.108,1.243 -4.325,1.552 -6.65,0.929l-5.78 -1.549 4.601 -17.17 5.781 1.549c2.325,0.623 4.094,1.983 5.307,4.081z"/>
     </g>
    </g>
   </g>
  </g>
  <g id="legLeft_FL_FL_FL_FL_FL">
   <g>
    <g>
     <g>
      <path class="fil0" d="M353.681 106.659l2.022 -4.544 -15.351 -8.864 0.021 -0.045c-1.274,-0.012 -2.596,0.329 -3.965,1.024l-0.869 1.954 18.142 10.475z"/>
      <polygon class="fil1" points="355.703,102.115 355.747,102.14 357.122,99.05 341.727,90.161 340.373,93.206 340.352,93.251 "/>
      <path class="fil2" d="M359.873 86.588c-0.825,-2.418 -2.298,-4.24 -4.421,-5.465l-0.043 -0.025c-2.123,-1.226 -4.269,-1.494 -6.44,-0.805 -2.212,0.702 -3.811,2.159 -4.795,4.37l-2.447 5.498 15.395 8.889 2.447 -5.498c0.984,-2.211 1.085,-4.533 0.304,-6.964z"/>
     </g>
    </g>
   </g>
  </g>
  <g id="legLeft_FL_FL_FL_FL_FL_FL">
   <g>
    <g>
     <g>
      <path class="fil0" d="M12.615 204.708l3.497 -3.497 12.535 12.534 0.034 -0.034c0.388,1.273 0.472,2.709 0.251,4.307l-1.504 1.504 -14.813 -14.814z"/>
      <polygon class="fil1" points="16.112,201.211 16.076,201.175 18.455,198.797 31.025,211.367 28.681,213.711 28.647,213.745 "/>
      <path class="fil2" d="M28.874 192.009c2.424,0.046 4.502,0.935 6.235,2.668l0.036 0.035c1.733,1.733 2.61,3.8 2.632,6.2 0.022,2.446 -0.818,4.521 -2.52,6.223l-4.232 4.232 -12.57 -12.57 4.231 -4.232c1.703,-1.702 3.765,-2.554 6.188,-2.556z"/>
     </g>
    </g>
   </g>
  </g>
  <g id="legLeft_FL_FL_FL_FL_FL_FL_FL">
   <g>
    <g>
     <g>
      <path class="fil0" d="M100.749 208.204l2.473 -4.284 15.351 8.863 0.025 -0.042c0.704,1.13 1.156,2.495 1.357,4.096l-1.064 1.841 -18.142 -10.474z"/>
      <polygon class="fil1" points="103.222,203.92 103.178,203.895 104.86,200.982 120.255,209.871 118.598,212.741 118.573,212.783 "/>
      <path class="fil2" d="M113.168 191.729c2.353,-0.583 4.59,-0.262 6.713,0.963l0.043 0.025c2.123,1.226 3.505,2.994 4.147,5.307 0.655,2.358 0.38,4.579 -0.824,6.664l-2.992 5.183 -15.395 -8.889 2.992 -5.183c1.204,-2.084 2.976,-3.441 5.316,-4.07z"/>
     </g>
    </g>
   </g>
  </g>
  <g id="legLeft_FL_FL_FL_FL_FL_FL_FL_FL">
   <g>
    <g>
     <g>
      <path class="fil0" d="M190.214 219.826l0 -4.946 -17.727 0 0 -0.05c-1.175,0.627 -2.249,1.583 -3.223,2.87l0 2.126 20.95 0z"/>
      <polygon class="fil1" points="190.214,214.88 190.264,214.88 190.264,211.517 172.487,211.517 172.487,214.83 172.487,214.88 "/>
      <path class="fil2" d="M187.696 199.349c-1.746,-1.682 -3.844,-2.523 -6.295,-2.523l-0.05 0c-2.451,0 -4.533,0.841 -6.245,2.523 -1.746,1.715 -2.619,3.775 -2.619,6.183l0 5.985 17.777 0 0 -5.985c0,-2.408 -0.856,-4.468 -2.568,-6.183z"/>
     </g>
    </g>
   </g>
  </g>
  <g id="legLeft_FL_FL_FL_FL_FL_FL_FL_FL_FL">
   <g>
    <g>
     <g>
      <path class="fil0" d="M350.864 219.826l0 -4.946 -17.727 0 0 -0.05c-1.175,0.627 -2.249,1.583 -3.222,2.87l0 2.126 20.949 0z"/>
      <polygon class="fil1" points="350.864,214.88 350.914,214.88 350.914,211.517 333.137,211.517 333.137,214.83 333.137,214.88 "/>
      <path class="fil2" d="M348.346 199.349c-1.746,-1.682 -3.844,-2.523 -6.295,-2.523l-0.05 0c-2.451,0 -4.533,0.841 -6.245,2.523 -1.746,1.715 -2.619,3.775 -2.619,6.183l0 5.985 17.777 0 0 -5.985c0,-2.408 -0.856,-4.468 -2.568,-6.183z"/>
     </g>
    </g>
   </g>
  </g>
  <g id="legLeft_FL_FL_FL_FL_FL_FL_FL_FL_FL_FL">
   <g>
    <g>
     <g>
      <path class="fil0" d="M421.075 219.668l2.473 -4.284 -15.351 -8.863 0.024 -0.043c-1.331,-0.045 -2.739,0.247 -4.225,0.874l-1.064 1.841 18.143 10.475z"/>
      <polygon class="fil1" points="423.548,215.384 423.592,215.409 425.274,212.497 409.878,203.608 408.221,206.478 408.197,206.521 "/>
      <path class="fil2" d="M429.133 200.675c-0.671,-2.329 -2.068,-4.107 -4.19,-5.332l-0.044 -0.025c-2.122,-1.225 -4.346,-1.538 -6.669,-0.938 -2.369,0.612 -4.156,1.961 -5.359,4.045l-2.993 5.183 15.396 8.889 2.992 -5.184c1.203,-2.084 1.492,-4.297 0.867,-6.638z"/>
     </g>
    </g>
   </g>
  </g>
  <g id="legLeft_FL_FL_FL_FL_FL_FL_FL_FL_FL_FL_FL">
   <g>
    <g>
     <g>
      <path class="fil0" d="M516.364 219.826l0 -4.946 -17.726 0 0 -0.05c-1.175,0.627 -2.25,1.583 -3.223,2.87l0 2.126 20.949 0z"/>
      <polygon class="fil1" points="516.364,214.88 516.414,214.88 516.414,211.517 498.638,211.517 498.638,214.83 498.638,214.88 "/>
      <path class="fil2" d="M513.846 199.349c-1.746,-1.682 -3.844,-2.523 -6.295,-2.523l-0.05 0c-2.451,0 -4.533,0.841 -6.245,2.523 -1.746,1.715 -2.618,3.775 -2.618,6.183l0 5.985 17.776 0 0 -5.985c0,-2.408 -0.856,-4.468 -2.568,-6.183z"/>
     </g>
    </g>
   </g>
  </g>
  <g id="legLeft_FL_FL_FL_FL_FL_FL_FL_FL_FL_FL_FL_FL">
   <g>
    <g>
     <g>
      <path class="fil0" d="M599.764 109.826l0 -4.946 -17.726 0 0 -0.049c-1.175,0.626 -2.25,1.582 -3.223,2.868l0 2.127 20.949 0z"/>
      <polygon class="fil1" points="599.764,104.88 599.815,104.88 599.815,101.517 582.038,101.517 582.038,104.831 582.038,104.88 "/>
      <path class="fil2" d="M597.246 89.349c-1.746,-1.682 -3.844,-2.523 -6.295,-2.523l-0.05 0c-2.451,0 -4.532,0.841 -6.245,2.523 -1.745,1.715 -2.618,3.776 -2.618,6.182l0 5.986 17.777 0 0 -5.986c0,-2.407 -0.856,-4.467 -2.569,-6.182z"/>
     </g>
    </g>
   </g>
  </g>
  <g id="legLeft_FL_FL_FL_FL_FL_FL_FL_FL_FL_FL_FL_FL_FL">
   <g>
    <g>
     <g>
      <path class="fil0" d="M577.17 208.806l1.689 -4.649 16.661 6.052 0.017 -0.047c0.891,0.991 1.574,2.256 2.05,3.797l-0.726 1.999 -19.691 -7.152z"/>
      <polygon class="fil1" points="578.859,204.157 578.812,204.14 579.96,200.978 596.669,207.048 595.537,210.162 595.52,210.209 "/>
      <path class="fil2" d="M586.528 190.419c2.215,-0.985 4.475,-1.059 6.778,-0.222l0.048 0.017c2.303,0.837 3.973,2.338 5.008,4.503 1.055,2.208 1.172,4.443 0.35,6.705l-2.043 5.626 -16.709 -6.07 2.043 -5.625c0.822,-2.262 2.331,-3.907 4.525,-4.934z"/>
     </g>
    </g>
   </g>
  </g>
  <g id="legLeft_FL_FL_FL_FL_FL_FL_FL_FL_FL_FL_FL_FL_FL_FL">
   <g>
    <g>
     <g>
      <path class="fil0" d="M107.698 312.087l4.206 -2.603 9.329 15.072 0.042 -0.026c0.086,1.329 -0.162,2.745 -0.743,4.25l-1.808 1.119 -11.026 -17.812z"/>
      <polygon class="fil1" points="111.904,309.484 111.877,309.441 114.737,307.67 124.093,322.786 121.275,324.53 121.233,324.556 "/>
      <path class="fil2" d="M126.434 303.45c2.349,0.6 4.168,1.941 5.458,4.025l0.027 0.043c1.289,2.084 1.67,4.296 1.141,6.637 -0.539,2.387 -1.832,4.214 -3.878,5.481l-5.089 3.15 -9.356 -15.116 5.089 -3.149c2.046,-1.267 4.249,-1.624 6.608,-1.071z"/>
     </g>
    </g>
   </g>
  </g>
  <g id="legLeft_FL_FL_FL_FL_FL_FL_FL_FL_FL_FL_FL_FL_FL_FL_FL">
   <g>
    <g>
     <g>
      <path class="fil0" d="M659.153 211.909l1.3 -4.773 17.103 4.659 0.013 -0.048c0.969,0.914 1.755,2.119 2.356,3.615l-0.559 2.053 -20.213 -5.506z"/>
      <polygon class="fil1" points="660.453,207.136 660.404,207.123 661.288,203.878 678.44,208.55 677.569,211.747 677.556,211.795 "/>
      <path class="fil2" d="M666.964 192.813c2.126,-1.164 4.372,-1.424 6.736,-0.78l0.049 0.014c2.365,0.644 4.152,2.002 5.362,4.075 1.234,2.113 1.535,4.331 0.902,6.653l-1.573 5.775 -17.152 -4.672 1.573 -5.774c0.633,-2.323 2,-4.086 4.103,-5.291z"/>
     </g>
    </g>
   </g>
  </g>
  <g id="legLeft_FL_FL_FL_FL_FL_FL_FL_FL_FL_FL_FL_FL_FL_FL_FL_FL">
   <g>
    <g>
     <g>
      <path class="fil0" d="M270.472 219.826l0.23 -4.946 -17.727 0 0.003 -0.05c-1.205,0.627 -2.323,1.583 -3.357,2.87l-0.099 2.126 20.95 0z"/>
      <polygon class="fil1" points="270.702,214.88 270.752,214.88 270.908,211.517 253.131,211.517 252.978,214.83 252.975,214.88 "/>
      <path class="fil2" d="M268.905 199.349c-1.668,-1.682 -3.727,-2.523 -6.178,-2.523l-0.05 0c-2.451,0 -4.572,0.841 -6.362,2.523 -1.826,1.715 -2.794,3.775 -2.906,6.183l-0.278 5.985 17.777 0 0.278 -5.985c0.112,-2.408 -0.649,-4.468 -2.281,-6.183z"/>
     </g>
    </g>
   </g>
  </g>
  <g id="legLeft_FL_FL_FL_FL_FL_FL_FL_FL_FL_FL_FL_FL_FL_FL_FL_FL_FL">
   <g>
    <g>
     <g>
      <path class="fil0" d="M182.799 318.754l2.473 -4.283 15.352 8.863 0.025 -0.043c0.704,1.13 1.156,2.495 1.356,4.095l-1.063 1.843 -18.143 -10.475z"/>
      <polygon class="fil1" points="185.272,314.471 185.228,314.446 186.91,311.533 202.305,320.421 200.649,323.291 200.624,323.334 "/>
      <path class="fil2" d="M195.218 302.279c2.352,-0.583 4.59,-0.262 6.713,0.963l0.043 0.025c2.123,1.225 3.505,2.994 4.147,5.307 0.655,2.357 0.38,4.579 -0.823,6.663l-2.993 5.184 -15.395 -8.888 2.992 -5.183c1.204,-2.085 2.976,-3.442 5.316,-4.071z"/>
     </g>
    </g>
   </g>
  </g>
  <g id="legRight_FL_FL_FL_FL_FL_FL_FL_FL_FL_FL_FL_FL_FL_FL_FL_FL_FL_FL">
   <g>
    <g>
     <g>
      <path class="fil0" d="M274.239 331.004l-3.042 -3.952 12.534 -12.534 -0.031 -0.04c1.216,-0.33 2.564,-0.326 4.044,0.014l1.308 1.699 -14.813 14.813z"/>
      <polygon class="fil1" points="271.197,327.052 271.161,327.087 269.092,324.4 281.662,311.83 283.7,314.478 283.731,314.518 "/>
      <path class="fil2" d="M263.424 312.861c0.199,-2.578 1.166,-4.733 2.899,-6.466l0.035 -0.036c1.733,-1.733 3.722,-2.533 5.967,-2.399 2.29,0.135 4.175,1.165 5.655,3.088l3.682 4.782 -12.57 12.57 -3.682 -4.782c-1.48,-1.924 -2.143,-4.176 -1.986,-6.757z"/>
     </g>
    </g>
   </g>
  </g>
  <g id="legLeft_FL_FL_FL_FL_FL_FL_FL_FL_FL_FL_FL_FL_FL_FL_FL_FL_FL_FL_FL">
   <g>
    <g>
     <g>
      <path class="fil0" d="M359.714 329.826l0 -4.946 -17.726 0 0 -0.049c-1.176,0.626 -2.25,1.583 -3.224,2.868l0 2.127 20.95 0z"/>
      <polygon class="fil1" points="359.714,324.88 359.764,324.88 359.764,321.517 341.988,321.517 341.988,324.831 341.988,324.88 "/>
      <path class="fil2" d="M357.196 309.349c-1.746,-1.682 -3.844,-2.522 -6.295,-2.522l-0.05 0c-2.451,0 -4.533,0.84 -6.245,2.522 -1.746,1.715 -2.618,3.776 -2.618,6.183l0 5.985 17.776 0 0 -5.985c0,-2.407 -0.856,-4.468 -2.568,-6.183z"/>
     </g>
    </g>
   </g>
  </g>
  <g id="legLeft_FL_FL_FL_FL_FL_FL_FL_FL_FL_FL_FL_FL_FL_FL_FL_FL_FL_FL_FL_FL">
   <g>
    <g>
     <g>
      <path class="fil0" d="M417.829 329.826l1.225 -4.946 17.727 0 0.012 -0.049c1.02,0.626 1.857,1.583 2.513,2.868l-0.527 2.127 -20.95 0z"/>
      <polygon class="fil1" points="419.054,324.88 419.004,324.88 419.837,321.517 437.614,321.517 436.793,324.831 436.781,324.88 "/>
      <path class="fil2" d="M425.419 309.349c2.162,-1.682 4.469,-2.522 6.92,-2.522l0.05 0c2.451,0 4.324,0.84 5.62,2.522 1.321,1.715 1.683,3.776 1.087,6.183l-1.482 5.985 -17.777 0 1.482 -5.985c0.597,-2.407 1.963,-4.468 4.1,-6.183z"/>
     </g>
    </g>
   </g>
  </g>
  <g id="legRight_FL_FL_FL_FL_FL_FL_FL_FL_FL_FL_FL_FL_FL_FL_FL_FL_FL_FL_FL_FL_FL_FL">
   <g>
    <g>
     <g>
      <path class="fil0" d="M519.539 91.458l-1.453 -4.713 -16.701 6.163 -0.014 -0.047c-0.923,1.006 -1.654,2.291 -2.194,3.855l0.626 2.027 19.736 -7.285z"/>
      <polygon class="fil1" points="518.086,86.745 518.133,86.727 517.145,83.522 500.398,89.703 501.371,92.861 501.385,92.908 "/>
      <path class="fil2" d="M511.151 72.819c-2.139,-0.995 -4.363,-1.067 -6.672,-0.215l-0.048 0.017c-2.309,0.853 -4.023,2.378 -5.141,4.576 -1.141,2.241 -1.358,4.509 -0.651,6.802l1.759 5.704 16.747 -6.181 -1.758 -5.704c-0.707,-2.294 -2.119,-3.96 -4.236,-4.999z"/>
     </g>
    </g>
   </g>
  </g>
  <g id="legLeft_FL_FL_FL_FL_FL_FL_FL_FL_FL_FL_FL_FL_FL_FL_FL_FL_FL_FL_FL_FL_FL_FL">
   <g>
    <g>
     <g>
      <path class="fil0" d="M667.109 109.561l2.998 -3.997 -14.815 -9.493 0.03 -0.04c-1.362,-0.123 -2.84,0.074 -4.433,0.592l-1.289 1.719 17.509 11.219z"/>
      <polygon class="fil1" points="670.107,105.564 670.149,105.591 672.188,102.873 657.33,93.353 655.322,96.031 655.292,96.071 "/>
      <path class="fil2" d="M677.416 91.665c-0.44,-2.294 -1.684,-4.098 -3.733,-5.41l-0.042 -0.027c-2.048,-1.313 -4.297,-1.748 -6.748,-1.306 -2.498,0.451 -4.476,1.649 -5.935,3.594l-3.628 4.837 14.858 9.52 3.627 -4.836c1.459,-1.946 1.993,-4.07 1.601,-6.372z"/>
     </g>
    </g>
   </g>
  </g>
  <g id="legLeft_FL_FL_FL_FL_FL_FL_FL_FL_FL_FL_FL_FL_FL_FL_FL_FL_FL_FL_FL_FL_FL_FL_FL">
   <g>
    <g>
     <g>
      <path class="fil0" d="M436.751 99.171l-0.647 -4.962 -17.025 4.954 -0.007 -0.05c-1.046,0.957 -1.953,2.217 -2.72,3.779l0.279 2.133 20.12 -5.854z"/>
      <polygon class="fil1" points="436.104,94.209 436.152,94.195 435.711,90.821 418.638,95.789 419.072,99.113 419.079,99.163 "/>
      <path class="fil2" d="M431.652 79.334c-1.897,-1.199 -4.023,-1.457 -6.376,-0.772l-0.049 0.014c-2.354,0.685 -4.243,2.11 -5.667,4.275 -1.452,2.208 -2.02,4.52 -1.705,6.934l0.783 6.004 17.073 -4.968 -0.783 -6.003c-0.316,-2.415 -1.407,-4.243 -3.276,-5.484z"/>
     </g>
    </g>
   </g>
  </g>
 </g>
</svg>
