<?xml version="1.0" encoding="UTF-8"?>
<!DOCTYPE svg PUBLIC "-//W3C//DTD SVG 1.1//EN" "http://www.w3.org/Graphics/SVG/1.1/DTD/svg11.dtd">
<!-- Creator: CorelDRAW 2018 (64-Bit) -->
<svg xmlns="http://www.w3.org/2000/svg" xml:space="preserve" width="720px" height="330px" version="1.1" style="shape-rendering:geometricPrecision; text-rendering:geometricPrecision; image-rendering:optimizeQuality; fill-rule:evenodd; clip-rule:evenodd"
viewBox="0 0 720 330"
 xmlns:xlink="http://www.w3.org/1999/xlink">
 <defs>
  <style type="text/css">
   <![CDATA[
    .fil4 {fill:#7F7058}
    .fil3 {fill:#B8824D}
    .fil5 {fill:#C48A51}
    .fil0 {fill:#D7BD93}
    .fil1 {fill:#FFE0B1}
    .fil2 {fill:white}
   ]]>
  </style>
 </defs>
 <g id="Слой_x0020_1">
  <metadata id="CorelCorpID_0Corel-Layer"/>
  <g id="head">
   <g>
    <g>
     <g>
      <path class="fil0" d="M24.05 289.3c1.966,1.3 4.35,1.95 7.15,1.95 2.8,0 5.183,-0.65 7.15,-1.95 1.167,-0.766 1.983,-1.633 2.45,-2.6l-19.2 0c0.466,0.967 1.283,1.834 2.45,2.6z"/>
      <path class="fil1" d="M50.55 282.15c1.033,-6.733 1.016,-13.617 -0.05,-20.65 -0.434,-2.966 -2.134,-4.45 -5.1,-4.45l-30.35 0c-2.934,0 -4.634,1.517 -5.1,4.55 -1,6.867 -1,13.734 0,20.6 0.466,3 2.166,4.5 5.1,4.5l6.55 0 19.2 0 4.6 0c2.966,0 4.683,-1.517 5.15,-4.55z"/>
     </g>
    </g>
   </g>
   <g>
    <g>
     <g>
      <g>
       <path class="fil2" d="M26.649 270.05c-0.666,-0.733 -1.516,-1.1 -2.549,-1.1 -1.034,0 -1.917,0.367 -2.65,1.1 -0.667,0.767 -1,1.667 -1,2.7 0,1.034 0.333,1.917 1,2.65 0.733,0.767 1.616,1.15 2.65,1.15 1.033,0 1.883,-0.383 2.549,-1.15 0.734,-0.733 1.101,-1.616 1.101,-2.65 0,-1.033 -0.367,-1.933 -1.101,-2.7l0 0zm8.151 10.45l0 -3 -6.85 0c-0.2,0 -0.384,0.067 -0.55,0.2 -0.2,0.1 -0.334,0.267 -0.4,0.5 -0.067,0.167 -0.067,0.367 0,0.6 0.066,0.334 0.183,0.65 0.35,0.95 0.133,0.267 0.283,0.517 0.45,0.75l7 0 0 0zm10.45 -10.45c-0.667,-0.733 -1.517,-1.1 -2.55,-1.1 -1.034,0 -1.917,0.367 -2.65,1.1 -0.667,0.767 -1,1.667 -1,2.7 0,1.034 0.333,1.917 1,2.65 0.733,0.767 1.616,1.15 2.65,1.15 1.033,0 1.883,-0.383 2.55,-1.15 0.733,-0.733 1.1,-1.616 1.1,-2.65 0,-1.033 -0.367,-1.933 -1.1,-2.7z"/>
      </g>
      <g>
       <path class="fil3" d="M27.1 264.85c0.233,0.1 0.483,0.1 0.749,0 0.234,-0.133 0.417,-0.316 0.551,-0.55 0.1,-0.266 0.1,-0.517 0,-0.75 -0.134,-0.267 -0.317,-0.45 -0.551,-0.55 -1.466,-0.633 -2.966,-0.617 -4.499,0.05 -1.034,0.433 -1.867,1.067 -2.5,1.9 -0.167,0.2 -0.234,0.45 -0.201,0.75 0.034,0.267 0.167,0.483 0.401,0.65 0.2,0.167 0.449,0.234 0.75,0.2 0.266,-0.033 0.483,-0.167 0.65,-0.4 0.433,-0.566 1,-0.983 1.7,-1.25 1,-0.433 1.983,-0.45 2.95,-0.05l0 0zm15.85 1.55c0.7,0.267 1.266,0.683 1.699,1.25 0.167,0.233 0.401,0.367 0.701,0.4 0.266,0.033 0.499,-0.033 0.7,-0.2 0.233,-0.167 0.366,-0.383 0.4,-0.65 0.033,-0.3 -0.034,-0.55 -0.2,-0.75 -0.634,-0.833 -1.467,-1.467 -2.5,-1.9 -1.534,-0.667 -3.017,-0.683 -4.45,-0.05 -0.267,0.1 -0.45,0.283 -0.55,0.55 -0.134,0.233 -0.134,0.483 0,0.75 0.1,0.233 0.283,0.417 0.55,0.55 0.233,0.1 0.483,0.1 0.75,0 0.933,-0.4 1.9,-0.383 2.9,0.05z"/>
      </g>
      <path class="fil4" d="M38.25 279.75c0.166,-0.3 0.3,-0.616 0.399,-0.95 0.034,-0.233 0.017,-0.433 -0.049,-0.6 -0.067,-0.233 -0.184,-0.4 -0.35,-0.5 -0.2,-0.133 -0.4,-0.2 -0.6,-0.2l-2.85 0 0 3 -7 0c0.2,0.334 0.45,0.633 0.75,0.9 1.2,1.2 2.616,1.8 4.25,1.8 1.633,0 3.033,-0.583 4.2,-1.75l0.05 -0.05c0.5,-0.5 0.9,-1.05 1.2,-1.65z"/>
     </g>
    </g>
   </g>
   <g>
    <g id="_1024687680">
     <g>
      <path class="fil4" d="M43.2 274.95c0.433,-0.6 0.65,-1.333 0.65,-2.2 0,-0.866 -0.217,-1.617 -0.65,-2.25 -0.4,-0.6 -0.9,-0.9 -1.5,-0.9 -0.6,0 -1.117,0.3 -1.55,0.9 -0.4,0.633 -0.6,1.383 -0.6,2.25 0,0.867 0.2,1.6 0.6,2.2 0.433,0.633 0.95,0.95 1.55,0.95 0.6,0 1.1,-0.317 1.5,-0.95z"/>
     </g>
    </g>
   </g>
   <g>
    <g id="_1024686720">
     <g>
      <path class="fil4" d="M26.35 274.95c0.433,-0.6 0.65,-1.333 0.65,-2.2 0,-0.866 -0.217,-1.617 -0.65,-2.25 -0.4,-0.6 -0.901,-0.9 -1.5,-0.9 -0.601,0 -1.117,0.3 -1.55,0.9 -0.4,0.633 -0.601,1.383 -0.601,2.25 0,0.867 0.201,1.6 0.601,2.2 0.433,0.633 0.949,0.95 1.55,0.95 0.599,0 1.1,-0.317 1.5,-0.95z"/>
     </g>
    </g>
   </g>
   <g>
    <g id="_1024685312">
     <g>
      <path class="fil3" d="M8.2 254.4c-1.6,8.667 -1.184,17.083 1.25,25.25 3.299,-3.1 5.166,-8.6 5.6,-16.5 3.166,-11.733 16.333,-21.483 39.5,-29.25 -16.834,3.567 -29.784,7.65 -38.85,12.25l-2.9 4.75 -4.6 3.5z"/>
      <path class="fil5" d="M32.55 261.4c5.566,1.6 11.483,2.317 17.75,2.15l1 8.1c3.033,-9 4.016,-15.333 2.95,-19 -1.467,-5.1 -1.367,-11.35 0.3,-18.75 -23.167,7.767 -36.334,17.517 -39.5,29.25 4.8,-3.266 10.633,-3.85 17.5,-1.75z"/>
     </g>
    </g>
   </g>
  </g>
  <g id="head_FL">
   <g>
    <g id="_1024683584">
     <g>
      <path class="fil0" d="M33.55 69.3c1.966,1.3 4.35,1.95 7.15,1.95 2.8,0 5.183,-0.65 7.15,-1.95 1.166,-0.767 1.983,-1.634 2.45,-2.6l-19.201 0c0.467,0.966 1.284,1.833 2.451,2.6z"/>
      <path class="fil1" d="M60.05 62.15c1.033,-6.733 1.016,-13.617 -0.05,-20.65 -0.434,-2.967 -2.133,-4.45 -5.1,-4.45l-30.35 0c-2.934,0 -4.634,1.516 -5.101,4.55 -1,6.866 -0.999,13.733 0,20.6 0.467,3 2.167,4.5 5.101,4.5l6.549 0 19.201 0 4.6 0c2.966,0 4.683,-1.517 5.15,-4.55z"/>
     </g>
    </g>
   </g>
   <g>
    <g id="_1024681856">
     <g>
      <g>
       <path class="fil2" d="M36.15 50.05c-0.667,-0.734 -1.517,-1.1 -2.55,-1.1 -1.034,0 -1.917,0.366 -2.65,1.1 -0.667,0.767 -1,1.666 -1,2.7 0,1.033 0.333,1.916 1,2.65 0.733,0.766 1.616,1.15 2.65,1.15 1.033,0 1.883,-0.384 2.55,-1.15 0.733,-0.733 1.1,-1.617 1.1,-2.65 0,-1.034 -0.367,-1.933 -1.1,-2.7l0 0zm8.15 10.45l0 -3 -6.851 0c-0.199,0 -0.383,0.066 -0.549,0.2 -0.2,0.1 -0.334,0.267 -0.4,0.5 -0.067,0.167 -0.067,0.366 0,0.6 0.066,0.333 0.183,0.65 0.35,0.95 0.133,0.267 0.283,0.517 0.45,0.75l7 0 0 0zm10.45 -10.45c-0.667,-0.734 -1.517,-1.1 -2.55,-1.1 -1.033,0 -1.917,0.366 -2.65,1.1 -0.667,0.767 -1,1.666 -1,2.7 0,1.033 0.333,1.916 1,2.65 0.733,0.766 1.616,1.15 2.65,1.15 1.033,0 1.883,-0.384 2.55,-1.15 0.733,-0.733 1.1,-1.617 1.1,-2.65 0,-1.034 -0.367,-1.933 -1.1,-2.7z"/>
      </g>
      <g>
       <path class="fil3" d="M36.6 44.85c0.233,0.1 0.483,0.1 0.75,0 0.233,-0.134 0.416,-0.317 0.55,-0.55 0.1,-0.267 0.1,-0.517 0,-0.75 -0.134,-0.267 -0.317,-0.45 -0.55,-0.55 -1.467,-0.633 -2.967,-0.617 -4.5,0.05 -1.034,0.433 -1.867,1.067 -2.5,1.9 -0.167,0.2 -0.234,0.45 -0.2,0.75 0.033,0.267 0.166,0.483 0.4,0.65 0.2,0.167 0.45,0.233 0.75,0.2 0.266,-0.033 0.483,-0.167 0.65,-0.4 0.433,-0.567 1,-0.983 1.7,-1.25 1,-0.433 1.983,-0.45 2.95,-0.05l0 0zm15.85 1.55c0.7,0.267 1.266,0.683 1.7,1.25 0.166,0.233 0.4,0.367 0.7,0.4 0.267,0.033 0.5,-0.033 0.7,-0.2 0.233,-0.167 0.366,-0.384 0.4,-0.65 0.033,-0.3 -0.034,-0.55 -0.2,-0.75 -0.634,-0.834 -1.467,-1.467 -2.5,-1.9 -1.534,-0.667 -3.017,-0.684 -4.45,-0.05 -0.267,0.1 -0.45,0.283 -0.551,0.55 -0.133,0.233 -0.133,0.483 0,0.75 0.101,0.233 0.284,0.416 0.551,0.55 0.233,0.1 0.483,0.1 0.75,0 0.933,-0.4 1.9,-0.383 2.9,0.05z"/>
      </g>
      <path class="fil4" d="M47.75 59.75c0.167,-0.3 0.3,-0.617 0.4,-0.95 0.033,-0.234 0.016,-0.433 -0.05,-0.6 -0.067,-0.233 -0.183,-0.4 -0.35,-0.5 -0.2,-0.134 -0.4,-0.2 -0.6,-0.2l-2.85 0 0 3 -7 0c0.2,0.333 0.45,0.633 0.75,0.9 1.2,1.2 2.616,1.8 4.25,1.8 1.633,0 3.033,-0.583 4.2,-1.75l0.05 -0.05c0.5,-0.5 0.9,-1.05 1.2,-1.65z"/>
     </g>
    </g>
   </g>
   <g>
    <g>
     <g>
      <path class="fil4" d="M52.7 54.95c0.433,-0.6 0.65,-1.334 0.65,-2.2 0,-0.867 -0.217,-1.617 -0.65,-2.25 -0.4,-0.6 -0.9,-0.9 -1.5,-0.9 -0.6,0 -1.117,0.3 -1.55,0.9 -0.4,0.633 -0.6,1.383 -0.6,2.25 0,0.866 0.2,1.6 0.6,2.2 0.433,0.633 0.95,0.95 1.55,0.95 0.6,0 1.1,-0.317 1.5,-0.95z"/>
     </g>
    </g>
   </g>
   <g>
    <g>
     <g>
      <path class="fil4" d="M35.85 54.95c0.433,-0.6 0.65,-1.334 0.65,-2.2 0,-0.867 -0.217,-1.617 -0.65,-2.25 -0.4,-0.6 -0.9,-0.9 -1.5,-0.9 -0.6,0 -1.117,0.3 -1.55,0.9 -0.4,0.633 -0.6,1.383 -0.6,2.25 0,0.866 0.2,1.6 0.6,2.2 0.433,0.633 0.95,0.95 1.55,0.95 0.6,0 1.1,-0.317 1.5,-0.95z"/>
     </g>
    </g>
   </g>
   <g>
    <g>
     <g>
      <path class="fil3" d="M17.7 34.4c-1.6,8.667 -1.184,17.083 1.25,25.25 3.3,-3.1 5.166,-8.6 5.6,-16.5 3.166,-11.733 16.333,-21.483 39.5,-29.25 -16.833,3.567 -29.784,7.65 -38.85,12.25l-2.9 4.75 -4.6 3.5z"/>
      <path class="fil5" d="M42.05 41.4c5.566,1.6 11.483,2.317 17.75,2.15l1 8.1c3.033,-9 4.016,-15.334 2.95,-19 -1.467,-5.1 -1.367,-11.35 0.3,-18.75 -23.167,7.767 -36.334,17.517 -39.5,29.25 4.8,-3.267 10.633,-3.85 17.5,-1.75z"/>
     </g>
    </g>
   </g>
  </g>
  <g id="head_FL_FL">
   <g>
    <g>
     <g>
      <path class="fil0" d="M115.116 64.4c1.95,1.3 4.313,1.95 7.088,1.95 2.776,0 5.139,-0.65 7.089,-1.95 1.157,-0.767 1.966,-1.633 2.429,-2.6l-19.035 0c0.462,0.967 1.272,1.833 2.429,2.6z"/>
      <path class="fil1" d="M141.388 57.25c1.025,-6.734 1.008,-13.617 -0.049,-20.65 -0.43,-2.967 -2.115,-4.45 -5.056,-4.45l-30.09 0c-2.908,0 -4.594,1.517 -5.057,4.55 -0.991,6.867 -0.991,13.733 0,20.6 0.463,3 2.149,4.5 5.057,4.5l6.494 0 19.035 0 4.561 0c2.941,0 4.643,-1.517 5.105,-4.55z"/>
     </g>
    </g>
   </g>
   <g>
    <g>
     <g>
      <g>
       <path class="fil2" d="M117.693 45.15c-0.661,-0.733 -1.503,-1.1 -2.528,-1.1 -1.024,0 -1.9,0.367 -2.627,1.1 -0.661,0.766 -0.991,1.667 -0.991,2.7 0,1.033 0.33,1.917 0.991,2.65 0.727,0.767 1.603,1.15 2.627,1.15 1.025,0 1.867,-0.383 2.528,-1.15 0.728,-0.733 1.091,-1.617 1.091,-2.65 0,-1.033 -0.363,-1.934 -1.091,-2.7l0 0zm8.081 10.45l0 -3 -6.792 0c-0.198,0 -0.38,0.067 -0.545,0.2 -0.198,0.1 -0.33,0.267 -0.397,0.5 -0.066,0.166 -0.066,0.367 0,0.6 0.067,0.333 0.182,0.65 0.347,0.95 0.133,0.267 0.281,0.516 0.447,0.75l6.94 0 0 0zm10.36 -10.45c-0.661,-0.733 -1.504,-1.1 -2.528,-1.1 -1.025,0 -1.9,0.367 -2.627,1.1 -0.662,0.766 -0.992,1.667 -0.992,2.7 0,1.033 0.33,1.917 0.992,2.65 0.727,0.767 1.602,1.15 2.627,1.15 1.024,0 1.867,-0.383 2.528,-1.15 0.727,-0.733 1.091,-1.617 1.091,-2.65 0,-1.033 -0.364,-1.934 -1.091,-2.7z"/>
      </g>
      <g>
       <path class="fil3" d="M118.139 39.95c0.232,0.1 0.48,0.1 0.744,0 0.232,-0.133 0.413,-0.317 0.546,-0.55 0.099,-0.267 0.099,-0.517 0,-0.75 -0.133,-0.267 -0.314,-0.45 -0.546,-0.55 -1.454,-0.634 -2.941,-0.617 -4.461,0.05 -1.025,0.433 -1.851,1.066 -2.479,1.9 -0.165,0.2 -0.231,0.45 -0.198,0.75 0.033,0.266 0.165,0.483 0.396,0.65 0.199,0.166 0.447,0.233 0.744,0.2 0.264,-0.034 0.479,-0.167 0.645,-0.4 0.429,-0.567 0.991,-0.984 1.685,-1.25 0.991,-0.434 1.966,-0.45 2.924,-0.05l0 0zm15.715 1.55c0.694,0.266 1.256,0.683 1.685,1.25 0.165,0.233 0.397,0.367 0.694,0.4 0.264,0.033 0.496,-0.033 0.694,-0.2 0.231,-0.167 0.364,-0.383 0.397,-0.65 0.033,-0.3 -0.033,-0.55 -0.198,-0.75 -0.629,-0.833 -1.455,-1.467 -2.479,-1.9 -1.52,-0.667 -2.991,-0.683 -4.412,-0.05 -0.264,0.1 -0.446,0.283 -0.545,0.55 -0.133,0.233 -0.133,0.483 0,0.75 0.099,0.233 0.281,0.417 0.545,0.55 0.231,0.1 0.479,0.1 0.744,0 0.925,-0.4 1.883,-0.384 2.875,0.05z"/>
      </g>
      <path class="fil4" d="M129.194 54.85c0.165,-0.3 0.297,-0.617 0.397,-0.95 0.033,-0.233 0.016,-0.434 -0.05,-0.6 -0.066,-0.233 -0.182,-0.4 -0.347,-0.5 -0.198,-0.133 -0.397,-0.2 -0.595,-0.2l-2.825 0 0 3 -6.94 0c0.198,0.333 0.446,0.633 0.743,0.9 1.19,1.2 2.594,1.8 4.214,1.8 1.619,0 3.007,-0.584 4.164,-1.75l0.049 -0.05c0.496,-0.5 0.893,-1.05 1.19,-1.65z"/>
     </g>
    </g>
   </g>
   <g>
    <g>
     <g>
      <path class="fil4" d="M134.102 50.05c0.429,-0.6 0.644,-1.333 0.644,-2.2 0,-0.867 -0.215,-1.617 -0.644,-2.25 -0.397,-0.6 -0.893,-0.9 -1.488,-0.9 -0.595,0 -1.107,0.3 -1.536,0.9 -0.397,0.633 -0.595,1.383 -0.595,2.25 0,0.867 0.198,1.6 0.595,2.2 0.429,0.633 0.941,0.95 1.536,0.95 0.595,0 1.091,-0.317 1.488,-0.95z"/>
     </g>
    </g>
   </g>
   <g>
    <g>
     <g>
      <path class="fil4" d="M117.396 50.05c0.43,-0.6 0.644,-1.333 0.644,-2.2 0,-0.867 -0.214,-1.617 -0.644,-2.25 -0.396,-0.6 -0.892,-0.9 -1.487,-0.9 -0.595,0 -1.107,0.3 -1.537,0.9 -0.396,0.633 -0.594,1.383 -0.594,2.25 0,0.867 0.198,1.6 0.594,2.2 0.43,0.633 0.942,0.95 1.537,0.95 0.595,0 1.091,-0.317 1.487,-0.95z"/>
     </g>
    </g>
   </g>
   <g>
    <g>
     <g>
      <path class="fil3" d="M99.402 29.5c-1.587,8.666 -1.173,17.083 1.239,25.25 3.272,-3.1 5.122,-8.6 5.552,-16.5 3.139,-11.734 16.193,-21.484 39.161,-29.25 -16.689,3.567 -29.528,7.65 -38.516,12.25l-2.876 4.75 -4.56 3.5z"/>
      <path class="fil5" d="M123.543 36.5c5.519,1.6 11.385,2.317 17.598,2.15l0.991 8.1c3.008,-9 3.982,-15.333 2.925,-19 -1.454,-5.1 -1.355,-11.35 0.297,-18.75 -22.968,7.766 -36.022,17.516 -39.161,29.25 4.759,-3.267 10.542,-3.85 17.35,-1.75z"/>
     </g>
    </g>
   </g>
  </g>
  <g id="head_FL_FL_FL">
   <g>
    <g>
     <g>
      <path class="fil0" d="M33.55 178.8c1.966,1.3 4.35,1.95 7.15,1.95 2.8,0 5.183,-0.65 7.15,-1.95 1.166,-0.767 1.983,-1.633 2.45,-2.6l-19.201 0c0.467,0.967 1.284,1.833 2.451,2.6z"/>
      <path class="fil1" d="M60.05 171.65c1.033,-6.733 1.016,-13.617 -0.05,-20.65 -0.434,-2.967 -2.133,-4.45 -5.1,-4.45l-30.35 0c-2.934,0 -4.634,1.517 -5.101,4.55 -1,6.867 -0.999,13.733 0,20.6 0.467,3 2.167,4.5 5.101,4.5l6.549 0 19.201 0 4.6 0c2.966,0 4.683,-1.517 5.15,-4.55z"/>
     </g>
    </g>
   </g>
   <g>
    <g>
     <g>
      <g>
       <path class="fil2" d="M36.15 159.55c-0.667,-0.733 -1.517,-1.1 -2.55,-1.1 -1.034,0 -1.917,0.367 -2.65,1.1 -0.667,0.767 -1,1.667 -1,2.7 0,1.033 0.333,1.917 1,2.65 0.733,0.767 1.616,1.15 2.65,1.15 1.033,0 1.883,-0.383 2.55,-1.15 0.733,-0.733 1.1,-1.617 1.1,-2.65 0,-1.033 -0.367,-1.933 -1.1,-2.7l0 0zm8.15 10.45l0 -3 -6.851 0c-0.199,0 -0.383,0.067 -0.549,0.2 -0.2,0.1 -0.334,0.267 -0.4,0.5 -0.067,0.167 -0.067,0.367 0,0.6 0.066,0.333 0.183,0.65 0.35,0.95 0.133,0.267 0.283,0.517 0.45,0.75l7 0 0 0zm10.45 -10.45c-0.667,-0.733 -1.517,-1.1 -2.55,-1.1 -1.033,0 -1.917,0.367 -2.65,1.1 -0.667,0.767 -1,1.667 -1,2.7 0,1.033 0.333,1.917 1,2.65 0.733,0.767 1.616,1.15 2.65,1.15 1.033,0 1.883,-0.383 2.55,-1.15 0.733,-0.733 1.1,-1.617 1.1,-2.65 0,-1.033 -0.367,-1.933 -1.1,-2.7z"/>
      </g>
      <g>
       <path class="fil3" d="M36.6 154.35c0.233,0.1 0.483,0.1 0.75,0 0.233,-0.133 0.416,-0.317 0.55,-0.55 0.1,-0.267 0.1,-0.517 0,-0.75 -0.134,-0.267 -0.317,-0.45 -0.55,-0.55 -1.467,-0.634 -2.967,-0.617 -4.5,0.05 -1.034,0.433 -1.867,1.067 -2.5,1.9 -0.167,0.2 -0.234,0.45 -0.2,0.75 0.033,0.266 0.166,0.483 0.4,0.65 0.2,0.167 0.45,0.233 0.75,0.2 0.266,-0.033 0.483,-0.167 0.65,-0.4 0.433,-0.567 1,-0.983 1.7,-1.25 1,-0.433 1.983,-0.45 2.95,-0.05l0 0zm15.85 1.55c0.7,0.266 1.266,0.683 1.7,1.25 0.166,0.233 0.4,0.367 0.7,0.4 0.267,0.033 0.5,-0.033 0.7,-0.2 0.233,-0.167 0.366,-0.383 0.4,-0.65 0.033,-0.3 -0.034,-0.55 -0.2,-0.75 -0.634,-0.833 -1.467,-1.467 -2.5,-1.9 -1.534,-0.667 -3.017,-0.683 -4.45,-0.05 -0.267,0.1 -0.45,0.283 -0.551,0.55 -0.133,0.233 -0.133,0.483 0,0.75 0.101,0.233 0.284,0.417 0.551,0.55 0.233,0.1 0.483,0.1 0.75,0 0.933,-0.4 1.9,-0.384 2.9,0.05z"/>
      </g>
      <path class="fil4" d="M47.75 169.25c0.167,-0.3 0.3,-0.617 0.4,-0.95 0.033,-0.233 0.016,-0.433 -0.05,-0.6 -0.067,-0.233 -0.183,-0.4 -0.35,-0.5 -0.2,-0.133 -0.4,-0.2 -0.6,-0.2l-2.85 0 0 3 -7 0c0.2,0.333 0.45,0.633 0.75,0.9 1.2,1.2 2.616,1.8 4.25,1.8 1.633,0 3.033,-0.583 4.2,-1.75l0.05 -0.05c0.5,-0.5 0.9,-1.05 1.2,-1.65z"/>
     </g>
    </g>
   </g>
   <g>
    <g>
     <g>
      <path class="fil4" d="M52.7 164.45c0.433,-0.6 0.65,-1.333 0.65,-2.2 0,-0.867 -0.217,-1.617 -0.65,-2.25 -0.4,-0.6 -0.9,-0.9 -1.5,-0.9 -0.6,0 -1.117,0.3 -1.55,0.9 -0.4,0.633 -0.6,1.383 -0.6,2.25 0,0.867 0.2,1.6 0.6,2.2 0.433,0.634 0.95,0.95 1.55,0.95 0.6,0 1.1,-0.317 1.5,-0.95z"/>
     </g>
    </g>
   </g>
   <g>
    <g>
     <g>
      <path class="fil4" d="M35.85 164.45c0.433,-0.6 0.65,-1.333 0.65,-2.2 0,-0.867 -0.217,-1.617 -0.65,-2.25 -0.4,-0.6 -0.9,-0.9 -1.5,-0.9 -0.6,0 -1.117,0.3 -1.55,0.9 -0.4,0.633 -0.6,1.383 -0.6,2.25 0,0.867 0.2,1.6 0.6,2.2 0.433,0.634 0.95,0.95 1.55,0.95 0.6,0 1.1,-0.317 1.5,-0.95z"/>
     </g>
    </g>
   </g>
   <g>
    <g>
     <g>
      <path class="fil3" d="M17.7 143.9c-1.6,8.666 -1.184,17.083 1.25,25.25 3.3,-3.1 5.166,-8.6 5.6,-16.5 3.166,-11.733 16.333,-21.483 39.5,-29.25 -16.833,3.567 -29.784,7.65 -38.85,12.25l-2.9 4.75 -4.6 3.5z"/>
      <path class="fil5" d="M42.05 150.9c5.566,1.6 11.483,2.317 17.75,2.15l1 8.1c3.033,-9 4.016,-15.333 2.95,-19 -1.467,-5.1 -1.367,-11.35 0.3,-18.75 -23.167,7.767 -36.334,17.517 -39.5,29.25 4.8,-3.267 10.633,-3.85 17.5,-1.75z"/>
     </g>
    </g>
   </g>
  </g>
  <g id="head_FL_FL_FL_FL">
   <g>
    <g>
     <g>
      <path class="fil0" d="M117.3 177.9c1.967,1.3 4.35,1.95 7.15,1.95 2.8,0 5.183,-0.65 7.15,-1.95 1.167,-0.767 1.983,-1.633 2.45,-2.6l-19.2 0c0.467,0.967 1.283,1.833 2.45,2.6z"/>
      <path class="fil1" d="M143.8 170.75c1.033,-6.733 1.017,-13.617 -0.05,-20.65 -0.434,-2.967 -2.134,-4.45 -5.1,-4.45l-30.35 0c-2.933,0 -4.633,1.517 -5.1,4.55 -1,6.867 -1,13.733 0,20.6 0.467,3 2.167,4.5 5.1,4.5l6.55 0 19.2 0 4.6 0c2.966,0 4.683,-1.517 5.15,-4.55z"/>
     </g>
    </g>
   </g>
   <g>
    <g>
     <g>
      <g>
       <path class="fil2" d="M119.9 158.65c-0.667,-0.733 -1.517,-1.1 -2.55,-1.1 -1.033,0 -1.917,0.367 -2.65,1.1 -0.667,0.766 -1,1.667 -1,2.7 0,1.033 0.333,1.917 1,2.65 0.733,0.767 1.617,1.15 2.65,1.15 1.033,0 1.883,-0.383 2.55,-1.15 0.733,-0.733 1.1,-1.617 1.1,-2.65 0,-1.033 -0.367,-1.934 -1.1,-2.7l0 0zm8.15 10.45l0 -3 -6.85 0c-0.2,0 -0.383,0.067 -0.55,0.2 -0.2,0.1 -0.334,0.267 -0.4,0.5 -0.067,0.167 -0.067,0.367 0,0.6 0.066,0.333 0.183,0.65 0.35,0.95 0.133,0.267 0.283,0.517 0.45,0.75l7 0 0 0zm10.45 -10.45c-0.667,-0.733 -1.517,-1.1 -2.55,-1.1 -1.034,0 -1.917,0.367 -2.65,1.1 -0.667,0.766 -1,1.667 -1,2.7 0,1.033 0.333,1.917 1,2.65 0.733,0.767 1.616,1.15 2.65,1.15 1.033,0 1.883,-0.383 2.55,-1.15 0.733,-0.733 1.1,-1.617 1.1,-2.65 0,-1.033 -0.367,-1.934 -1.1,-2.7z"/>
      </g>
      <g>
       <path class="fil3" d="M120.35 153.45c0.233,0.1 0.483,0.1 0.75,0 0.233,-0.133 0.416,-0.317 0.55,-0.55 0.1,-0.267 0.1,-0.517 0,-0.75 -0.134,-0.267 -0.317,-0.45 -0.55,-0.55 -1.467,-0.633 -2.967,-0.617 -4.5,0.05 -1.034,0.433 -1.867,1.067 -2.5,1.9 -0.167,0.2 -0.234,0.45 -0.2,0.75 0.033,0.267 0.166,0.483 0.4,0.65 0.2,0.167 0.45,0.233 0.75,0.2 0.267,-0.033 0.483,-0.167 0.65,-0.4 0.433,-0.567 1,-0.984 1.7,-1.25 1,-0.434 1.983,-0.45 2.95,-0.05l0 0zm15.85 1.55c0.7,0.267 1.266,0.683 1.7,1.25 0.166,0.233 0.4,0.367 0.7,0.4 0.266,0.033 0.5,-0.033 0.7,-0.2 0.233,-0.167 0.367,-0.383 0.4,-0.65 0.033,-0.3 -0.033,-0.55 -0.2,-0.75 -0.634,-0.833 -1.467,-1.467 -2.5,-1.9 -1.534,-0.667 -3.017,-0.683 -4.45,-0.05 -0.267,0.1 -0.45,0.283 -0.55,0.55 -0.134,0.233 -0.134,0.483 0,0.75 0.1,0.233 0.283,0.417 0.55,0.55 0.233,0.1 0.483,0.1 0.75,0 0.933,-0.4 1.9,-0.383 2.9,0.05z"/>
      </g>
      <path class="fil4" d="M131.5 168.35c0.166,-0.3 0.3,-0.617 0.4,-0.95 0.033,-0.233 0.017,-0.434 -0.05,-0.6 -0.067,-0.233 -0.184,-0.4 -0.35,-0.5 -0.2,-0.133 -0.4,-0.2 -0.6,-0.2l-2.85 0 0 3 -7 0c0.2,0.333 0.45,0.633 0.75,0.9 1.2,1.2 2.617,1.8 4.25,1.8 1.633,0 3.033,-0.583 4.2,-1.75l0.05 -0.05c0.5,-0.5 0.9,-1.05 1.2,-1.65z"/>
     </g>
    </g>
   </g>
   <g>
    <g>
     <g>
      <path class="fil4" d="M136.45 163.55c0.433,-0.6 0.65,-1.333 0.65,-2.2 0,-0.867 -0.217,-1.617 -0.65,-2.25 -0.4,-0.6 -0.9,-0.9 -1.5,-0.9 -0.6,0 -1.117,0.3 -1.55,0.9 -0.4,0.633 -0.6,1.383 -0.6,2.25 0,0.867 0.2,1.6 0.6,2.2 0.433,0.633 0.95,0.95 1.55,0.95 0.6,0 1.1,-0.317 1.5,-0.95z"/>
     </g>
    </g>
   </g>
   <g>
    <g>
     <g>
      <path class="fil4" d="M119.6 163.55c0.433,-0.6 0.65,-1.333 0.65,-2.2 0,-0.867 -0.217,-1.617 -0.65,-2.25 -0.4,-0.6 -0.9,-0.9 -1.5,-0.9 -0.6,0 -1.117,0.3 -1.55,0.9 -0.4,0.633 -0.6,1.383 -0.6,2.25 0,0.867 0.2,1.6 0.6,2.2 0.433,0.633 0.95,0.95 1.55,0.95 0.6,0 1.1,-0.317 1.5,-0.95z"/>
     </g>
    </g>
   </g>
   <g>
    <g>
     <g>
      <path class="fil3" d="M101.45 143c-1.6,8.667 -1.184,17.083 1.25,25.25 3.3,-3.1 5.166,-8.6 5.6,-16.5 3.166,-11.733 16.333,-21.484 39.5,-29.25 -16.834,3.567 -29.784,7.65 -38.85,12.25l-2.9 4.75 -4.6 3.5z"/>
      <path class="fil5" d="M125.8 150c5.566,1.6 11.483,2.317 17.75,2.15l1 8.1c3.033,-9 4.017,-15.333 2.95,-19 -1.467,-5.1 -1.367,-11.35 0.3,-18.75 -23.167,7.766 -36.334,17.517 -39.5,29.25 4.8,-3.267 10.633,-3.85 17.5,-1.75z"/>
     </g>
    </g>
   </g>
  </g>
  <g id="head_FL_FL_FL_FL_FL">
   <g>
    <g>
     <g>
      <path class="fil0" d="M342.887 178.375c2.067,1.133 4.496,1.584 7.286,1.353 2.791,-0.231 5.112,-1.076 6.964,-2.534 1.1,-0.86 1.842,-1.792 2.227,-2.794l-19.134 1.586c0.545,0.925 1.431,1.722 2.657,2.389z"/>
      <path class="fil1" d="M368.705 169.061c0.474,-6.796 -0.111,-13.654 -1.755,-20.575 -0.677,-2.921 -2.494,-4.259 -5.45,-4.013l-30.246 2.506c-2.923,0.242 -4.492,1.894 -4.707,4.956 -0.429,6.926 0.138,13.769 1.702,20.529 0.712,2.951 2.53,4.306 5.454,4.064l6.527 -0.542 19.134 -1.586 4.584 -0.379c2.957,-0.245 4.543,-1.898 4.757,-4.96z"/>
     </g>
    </g>
   </g>
   <g>
    <g>
     <g>
      <g>
       <path class="fil2" d="M343.888 158.977c-0.725,-0.676 -1.603,-0.971 -2.633,-0.886 -1.029,0.085 -1.879,0.523 -2.55,1.315 -0.601,0.819 -0.858,1.743 -0.773,2.773 0.085,1.03 0.491,1.883 1.216,2.559 0.794,0.703 1.706,1.012 2.735,0.927 1.03,-0.086 1.845,-0.538 2.447,-1.357 0.67,-0.791 0.962,-1.702 0.877,-2.732 -0.086,-1.029 -0.525,-1.896 -1.319,-2.599l0 0zm8.985 9.741l-0.248 -2.99 -6.827 0.566c-0.199,0.016 -0.376,0.098 -0.531,0.244 -0.191,0.116 -0.31,0.294 -0.357,0.532 -0.053,0.171 -0.036,0.37 0.049,0.598 0.094,0.326 0.237,0.632 0.427,0.917 0.155,0.255 0.325,0.492 0.511,0.711l6.976 -0.578 0 0zm9.551 -11.278c-0.725,-0.676 -1.602,-0.971 -2.632,-0.885 -1.03,0.085 -1.88,0.523 -2.55,1.315 -0.601,0.819 -0.859,1.743 -0.774,2.773 0.085,1.03 0.491,1.883 1.216,2.558 0.794,0.704 1.706,1.013 2.736,0.927 1.029,-0.085 1.845,-0.537 2.446,-1.356 0.67,-0.791 0.962,-1.702 0.877,-2.732 -0.085,-1.03 -0.525,-1.896 -1.319,-2.6z"/>
      </g>
      <g>
       <path class="fil3" d="M343.907 153.757c0.241,0.081 0.49,0.06 0.747,-0.062 0.221,-0.152 0.389,-0.35 0.503,-0.593 0.078,-0.274 0.057,-0.523 -0.062,-0.748 -0.155,-0.254 -0.353,-0.422 -0.594,-0.502 -1.514,-0.51 -3.007,-0.37 -4.48,0.421 -0.994,0.517 -1.772,1.217 -2.335,2.1 -0.149,0.213 -0.195,0.468 -0.137,0.764 0.055,0.263 0.206,0.468 0.452,0.615 0.213,0.15 0.468,0.195 0.764,0.137 0.263,-0.055 0.468,-0.206 0.615,-0.452 0.385,-0.601 0.915,-1.063 1.591,-1.386 0.961,-0.515 1.939,-0.613 2.936,-0.294l0 0zm15.923 0.236c0.72,0.208 1.319,0.576 1.798,1.105 0.185,0.219 0.428,0.332 0.73,0.341 0.269,0.011 0.496,-0.075 0.681,-0.257 0.219,-0.186 0.334,-0.412 0.345,-0.681 0.009,-0.302 -0.078,-0.546 -0.261,-0.731 -0.7,-0.778 -1.583,-1.34 -2.648,-1.687 -1.584,-0.538 -3.063,-0.432 -4.439,0.318 -0.258,0.121 -0.425,0.319 -0.503,0.593 -0.113,0.244 -0.093,0.493 0.062,0.748 0.119,0.224 0.317,0.391 0.594,0.502 0.24,0.081 0.49,0.06 0.747,-0.061 0.897,-0.476 1.862,-0.539 2.894,-0.19z"/>
      </g>
      <path class="fil4" d="M356.249 167.685c0.142,-0.313 0.248,-0.639 0.32,-0.98 0.014,-0.235 -0.019,-0.433 -0.099,-0.593 -0.086,-0.228 -0.216,-0.384 -0.39,-0.47 -0.211,-0.116 -0.416,-0.166 -0.615,-0.15l-2.84 0.236 0.248 2.99 -6.976 0.578c0.227,0.315 0.5,0.594 0.822,0.835 1.295,1.097 2.756,1.577 4.384,1.442 1.627,-0.135 2.974,-0.832 4.041,-2.09l0.045 -0.055c0.457,-0.539 0.811,-1.12 1.06,-1.743z"/>
     </g>
    </g>
   </g>
   <g>
    <g>
     <g>
      <path class="fil4" d="M360.786 162.493c0.382,-0.634 0.537,-1.383 0.466,-2.247 -0.072,-0.863 -0.35,-1.593 -0.834,-2.188 -0.448,-0.565 -0.971,-0.823 -1.569,-0.773 -0.598,0.049 -1.088,0.391 -1.47,1.025 -0.347,0.664 -0.484,1.428 -0.412,2.292 0.071,0.863 0.331,1.578 0.779,2.143 0.484,0.595 1.025,0.868 1.623,0.818 0.598,-0.049 1.07,-0.406 1.417,-1.07z"/>
     </g>
    </g>
   </g>
   <g>
    <g>
     <g>
      <path class="fil4" d="M343.993 163.884c0.383,-0.633 0.538,-1.382 0.466,-2.246 -0.071,-0.863 -0.349,-1.593 -0.833,-2.188 -0.448,-0.565 -0.971,-0.823 -1.569,-0.773 -0.598,0.049 -1.088,0.391 -1.471,1.024 -0.346,0.665 -0.483,1.429 -0.412,2.292 0.072,0.864 0.332,1.578 0.78,2.143 0.484,0.596 1.025,0.869 1.623,0.819 0.598,-0.05 1.07,-0.406 1.416,-1.071z"/>
     </g>
    </g>
   </g>
   <g>
    <g>
     <g>
      <path class="fil3" d="M324.208 144.904c-0.879,8.769 0.232,17.123 3.331,25.06 3.033,-3.362 4.439,-8.997 4.218,-16.906 2.187,-11.954 14.503,-22.758 36.949,-32.412 -16.481,4.945 -29.049,10.084 -37.705,15.417l-2.497 4.973 -4.296 3.868z"/>
      <path class="fil5" d="M349.053 149.869c5.68,1.135 11.635,1.36 17.867,0.677l1.665 7.989c2.28,-9.22 2.737,-15.612 1.371,-19.178 -1.883,-4.962 -2.3,-11.199 -1.25,-18.711 -22.446,9.654 -34.762,20.458 -36.949,32.412 4.514,-3.652 10.279,-4.715 17.296,-3.189z"/>
     </g>
    </g>
   </g>
  </g>
  <g>
   <g>
    <g>
     <g>
      <path class="fil0" d="M433.188 180.049c2.773,0.391 5.223,0.08 7.352,-0.933 1.262,-0.596 2.192,-1.34 2.789,-2.232l-19.012 -2.68c0.328,1.022 1.015,1.994 2.064,2.916 1.765,1.562 4.035,2.538 6.807,2.929z"/>
      <path class="fil1" d="M456.451 153.285c-0.015,-2.998 -1.491,-4.704 -4.429,-5.118l-30.052 -4.236c-2.905,-0.41 -4.8,0.855 -5.685,3.793 -1.949,6.66 -2.907,13.459 -2.875,20.398 0.043,3.036 1.517,4.758 4.422,5.168l6.485 0.914 19.012 2.68 4.555 0.642c2.937,0.414 4.849,-0.848 5.735,-3.787 1.962,-6.523 2.907,-13.341 2.832,-20.454z"/>
     </g>
    </g>
   </g>
   <g>
    <g>
     <g>
      <g>
       <path class="fil2" d="M432.354 161.249c0.144,-1.023 -0.093,-1.966 -0.712,-2.827 -0.558,-0.819 -1.348,-1.301 -2.372,-1.445 -1.023,-0.144 -1.949,0.095 -2.777,0.719 -0.767,0.666 -1.223,1.511 -1.367,2.534 -0.145,1.023 0.062,1.944 0.62,2.764 0.619,0.861 1.44,1.364 2.464,1.508 1.023,0.145 1.918,-0.117 2.685,-0.783 0.828,-0.623 1.315,-1.447 1.459,-2.47l0 0zm17.705 -0.231c-0.557,-0.819 -1.348,-1.301 -2.371,-1.445 -1.023,-0.144 -1.949,0.096 -2.778,0.719 -0.767,0.667 -1.222,1.511 -1.367,2.534 -0.144,1.023 0.063,1.945 0.621,2.764 0.619,0.861 1.44,1.364 2.463,1.508 1.023,0.145 1.918,-0.116 2.686,-0.782 0.828,-0.624 1.314,-1.448 1.458,-2.471 0.145,-1.023 -0.092,-1.965 -0.712,-2.827z"/>
      </g>
      <g>
       <path class="fil3" d="M433.001 155.231c0.103,0.216 0.302,0.362 0.594,0.437 0.26,0.07 0.517,0.039 0.771,-0.093 0.221,-0.138 0.383,-0.334 0.486,-0.589 0.038,-0.263 -0.01,-0.523 -0.142,-0.777 -0.776,-1.422 -1.961,-2.33 -3.555,-2.723 -1.07,-0.285 -2.112,-0.298 -3.125,-0.036 -0.245,0.066 -0.452,0.222 -0.622,0.468 -0.169,0.245 -0.188,0.495 -0.055,0.749 0.033,0.241 0.189,0.447 0.468,0.622 0.18,0.16 0.429,0.178 0.75,0.055 0.659,-0.143 1.345,-0.113 2.057,0.088 1.071,0.285 1.862,0.885 2.373,1.799l0 0zm16.936 0.569c-0.869,-0.526 -1.874,-0.803 -3.014,-0.829 -1.674,-0.067 -3.047,0.48 -4.12,1.641 -0.23,0.203 -0.345,0.423 -0.345,0.658 -0.004,0.269 0.098,0.502 0.305,0.7 0.175,0.193 0.411,0.31 0.708,0.352 0.269,0.004 0.502,-0.098 0.7,-0.305 0.706,-0.709 1.612,-1.052 2.72,-1.03 0.74,0.003 1.408,0.164 2.002,0.484 0.274,0.207 0.538,0.244 0.792,0.111 0.278,-0.062 0.483,-0.201 0.614,-0.418 0.165,-0.213 0.2,-0.46 0.105,-0.743 -0.095,-0.283 -0.25,-0.49 -0.467,-0.621z"/>
      </g>
      <path class="fil4" d="M441.96 170.833c0.278,-0.061 0.5,-0.198 0.664,-0.411 0.131,-0.217 0.183,-0.462 0.154,-0.735 -0.061,-0.279 -0.201,-0.483 -0.418,-0.615 -0.213,-0.164 -0.455,-0.232 -0.729,-0.204 -3.69,0.625 -6.72,-0.088 -9.09,-2.139 -0.208,-0.198 -0.448,-0.282 -0.722,-0.253 -0.268,-0.005 -0.485,0.099 -0.65,0.312 -0.197,0.208 -0.282,0.448 -0.253,0.722 -0.004,0.268 0.098,0.502 0.305,0.699 2.782,2.479 6.361,3.354 10.739,2.624z"/>
     </g>
    </g>
   </g>
   <g>
    <g>
     <g>
      <g>
       <path class="fil4" d="M429.043 163.963c0.594,0.084 1.133,-0.16 1.618,-0.731 0.512,-0.534 0.83,-1.23 0.951,-2.088 0.12,-0.858 0.011,-1.631 -0.33,-2.318 -0.313,-0.65 -0.766,-1.017 -1.36,-1.101 -0.594,-0.083 -1.147,0.141 -1.66,0.675 -0.485,0.571 -0.788,1.286 -0.908,2.144 -0.121,0.858 -0.026,1.612 0.287,2.262 0.34,0.688 0.808,1.074 1.402,1.157l0 0zm15.903 -3.211c-0.484,0.571 -0.787,1.286 -0.908,2.144 -0.121,0.858 -0.025,1.612 0.288,2.262 0.34,0.688 0.808,1.073 1.402,1.157 0.594,0.084 1.133,-0.16 1.617,-0.731 0.513,-0.534 0.83,-1.23 0.951,-2.088 0.121,-0.858 0.011,-1.631 -0.329,-2.319 -0.313,-0.649 -0.766,-1.016 -1.36,-1.1 -0.594,-0.084 -1.148,0.141 -1.661,0.675z"/>
      </g>
     </g>
    </g>
   </g>
   <g>
    <g>
     <g>
      <path class="fil3" d="M424.135 133.228l-3.535 4.299 -5.043 2.823c-2.794,8.359 -3.556,16.751 -2.286,25.177 3.7,-2.609 6.316,-7.794 7.847,-15.556 4.774,-11.176 19.172,-18.993 43.196,-23.45 -17.166,1.182 -30.559,3.418 -40.179,6.707z"/>
      <path class="fil5" d="M438.691 150.68c5.289,2.362 11.048,3.897 17.276,4.607l-0.14 8.16c4.26,-8.488 6.117,-14.623 5.573,-18.402 -0.741,-5.255 0.23,-11.429 2.914,-18.524 -24.024,4.457 -38.422,12.274 -43.196,23.45 5.209,-2.565 11.067,-2.329 17.573,0.709z"/>
     </g>
    </g>
   </g>
  </g>
  <g id="head_FL_FL_FL_FL_FL_FL">
   <g>
    <g>
     <g>
      <path class="fil0" d="M593.821 69.794c2.048,1.17 4.468,1.663 7.262,1.481 2.795,-0.182 5.13,-0.986 7.008,-2.412 1.115,-0.841 1.873,-1.759 2.276,-2.753l-19.159 1.25c0.528,0.934 1.399,1.745 2.613,2.434z"/>
      <path class="fil1" d="M619.8 60.935c0.593,-6.787 0.128,-13.655 -1.394,-20.603 -0.626,-2.932 -2.419,-4.302 -5.379,-4.109l-30.286 1.976c-2.927,0.19 -4.524,1.815 -4.792,4.872 -0.551,6.917 -0.104,13.769 1.34,20.556 0.661,2.963 2.455,4.35 5.383,4.159l6.536 -0.426 19.159 -1.25 4.59 -0.3c2.96,-0.193 4.575,-1.818 4.843,-4.875z"/>
     </g>
    </g>
   </g>
   <g>
    <g>
     <g>
      <g>
       <path class="fil2" d="M595.163 50.416c-0.713,-0.688 -1.585,-0.999 -2.616,-0.932 -1.031,0.068 -1.889,0.491 -2.573,1.271 -0.615,0.808 -0.889,1.728 -0.822,2.759 0.067,1.031 0.457,1.891 1.17,2.579 0.782,0.718 1.688,1.043 2.72,0.975 1.031,-0.067 1.854,-0.505 2.469,-1.313 0.684,-0.78 0.993,-1.685 0.926,-2.716 -0.068,-1.032 -0.492,-1.906 -1.274,-2.623l0 0zm8.813 9.897l-0.195 -2.993 -6.836 0.446c-0.199,0.012 -0.378,0.091 -0.536,0.235 -0.193,0.113 -0.315,0.288 -0.366,0.525 -0.056,0.171 -0.043,0.37 0.039,0.599 0.088,0.328 0.225,0.636 0.411,0.925 0.15,0.257 0.316,0.497 0.498,0.719l6.985 -0.456 0 0zm9.748 -11.108c-0.713,-0.688 -1.585,-0.999 -2.616,-0.931 -1.032,0.067 -1.889,0.49 -2.573,1.27 -0.615,0.808 -0.89,1.728 -0.823,2.759 0.068,1.031 0.458,1.891 1.171,2.58 0.782,0.717 1.688,1.042 2.719,0.974 1.031,-0.067 1.855,-0.505 2.47,-1.313 0.684,-0.78 0.992,-1.685 0.925,-2.716 -0.067,-1.031 -0.492,-1.905 -1.273,-2.623z"/>
      </g>
      <g>
       <path class="fil3" d="M595.274 45.198c0.239,0.085 0.488,0.068 0.748,-0.049 0.224,-0.148 0.395,-0.343 0.513,-0.585 0.083,-0.272 0.066,-0.522 -0.049,-0.748 -0.15,-0.258 -0.345,-0.428 -0.584,-0.513 -1.505,-0.537 -3.001,-0.422 -4.488,0.343 -1.002,0.499 -1.793,1.186 -2.371,2.058 -0.153,0.211 -0.203,0.464 -0.15,0.762 0.05,0.264 0.197,0.471 0.441,0.622 0.211,0.153 0.464,0.204 0.762,0.151 0.263,-0.05 0.471,-0.198 0.622,-0.441 0.395,-0.594 0.934,-1.047 1.615,-1.358 0.97,-0.498 1.95,-0.578 2.941,-0.242l0 0zm15.917 0.515c0.716,0.22 1.309,0.599 1.778,1.137 0.181,0.221 0.423,0.339 0.724,0.353 0.268,0.016 0.497,-0.066 0.686,-0.245 0.222,-0.182 0.341,-0.407 0.357,-0.675 0.013,-0.302 -0.07,-0.547 -0.249,-0.735 -0.686,-0.79 -1.559,-1.368 -2.618,-1.733 -1.574,-0.566 -3.055,-0.486 -4.444,0.239 -0.26,0.117 -0.431,0.312 -0.513,0.585 -0.118,0.241 -0.102,0.491 0.049,0.748 0.115,0.227 0.31,0.398 0.584,0.514 0.24,0.084 0.489,0.068 0.749,-0.05 0.905,-0.46 1.871,-0.506 2.897,-0.138z"/>
      </g>
      <path class="fil4" d="M607.37 59.34c0.147,-0.31 0.259,-0.634 0.337,-0.974 0.018,-0.235 -0.011,-0.433 -0.089,-0.595 -0.081,-0.229 -0.209,-0.388 -0.381,-0.476 -0.209,-0.121 -0.413,-0.174 -0.612,-0.161l-2.844 0.186 0.195 2.993 -6.985 0.456c0.221,0.32 0.49,0.603 0.807,0.849 1.276,1.12 2.728,1.626 4.358,1.52 1.63,-0.106 2.989,-0.78 4.077,-2.02l0.047 -0.053c0.466,-0.532 0.83,-1.107 1.09,-1.725z"/>
     </g>
    </g>
   </g>
   <g>
    <g>
     <g>
      <path class="fil4" d="M611.997 54.228c0.393,-0.627 0.562,-1.372 0.505,-2.238 -0.056,-0.864 -0.321,-1.599 -0.795,-2.202 -0.438,-0.573 -0.956,-0.84 -1.555,-0.801 -0.599,0.039 -1.095,0.372 -1.488,0.999 -0.358,0.658 -0.509,1.42 -0.453,2.285 0.057,0.864 0.304,1.583 0.742,2.156 0.474,0.604 1.01,0.886 1.609,0.847 0.598,-0.039 1.077,-0.388 1.435,-1.046z"/>
     </g>
    </g>
   </g>
   <g>
    <g>
     <g>
      <path class="fil4" d="M595.182 55.325c0.394,-0.627 0.562,-1.373 0.506,-2.238 -0.056,-0.864 -0.321,-1.599 -0.795,-2.202 -0.438,-0.573 -0.957,-0.84 -1.555,-0.801 -0.599,0.039 -1.095,0.372 -1.489,0.999 -0.358,0.658 -0.508,1.42 -0.452,2.284 0.057,0.865 0.304,1.584 0.742,2.157 0.474,0.604 1.01,0.886 1.609,0.847 0.598,-0.039 1.077,-0.388 1.434,-1.046z"/>
     </g>
    </g>
   </g>
   <g>
    <g>
     <g>
      <path class="fil3" d="M575.733 36c-1.032,8.753 -0.068,17.124 2.891,25.115 3.092,-3.308 4.596,-8.918 4.515,-16.829 2.396,-11.915 14.9,-22.501 37.512,-31.759 -16.566,4.654 -29.222,9.572 -37.97,14.753l-2.585 4.928 -4.363 3.792z"/>
      <path class="fil5" d="M600.487 41.4c5.66,1.235 11.61,1.565 17.853,0.99l1.525 8.018c2.441,-9.178 3.01,-15.562 1.707,-19.152 -1.796,-4.994 -2.103,-11.237 -0.921,-18.729 -22.612,9.258 -35.116,19.844 -37.512,31.759 4.577,-3.573 10.36,-4.534 17.348,-2.886z"/>
     </g>
    </g>
   </g>
  </g>
  <g id="head_FL_FL_FL_FL_FL_FL_FL">
   <g>
    <g>
     <g>
      <path class="fil0" d="M674.322 70.794c2.047,1.17 4.468,1.663 7.261,1.481 2.795,-0.182 5.131,-0.986 7.008,-2.411 1.115,-0.841 1.873,-1.759 2.276,-2.754l-19.159 1.249c0.528,0.935 1.4,1.746 2.614,2.435z"/>
      <path class="fil1" d="M700.3 61.934c0.593,-6.786 0.128,-13.654 -1.394,-20.603 -0.625,-2.932 -2.418,-4.301 -5.379,-4.108l-30.285 1.976c-2.928,0.191 -4.525,1.815 -4.794,4.872 -0.55,6.917 -0.103,13.769 1.341,20.556 0.661,2.963 2.456,4.35 5.382,4.159l6.537 -0.427 19.159 -1.249 4.59 -0.3c2.961,-0.193 4.575,-1.818 4.843,-4.876z"/>
     </g>
    </g>
   </g>
   <g>
    <g>
     <g>
      <g>
       <path class="fil2" d="M675.663 51.416c-0.713,-0.688 -1.585,-0.999 -2.616,-0.932 -1.031,0.068 -1.889,0.491 -2.573,1.271 -0.615,0.808 -0.889,1.728 -0.822,2.759 0.067,1.031 0.457,1.891 1.17,2.579 0.782,0.718 1.689,1.043 2.72,0.975 1.031,-0.067 1.854,-0.505 2.47,-1.313 0.684,-0.78 0.992,-1.685 0.924,-2.716 -0.067,-1.031 -0.491,-1.906 -1.273,-2.623l0 0zm8.813 9.897l-0.195 -2.993 -6.836 0.446c-0.199,0.013 -0.378,0.091 -0.535,0.235 -0.194,0.113 -0.316,0.288 -0.367,0.525 -0.056,0.171 -0.043,0.37 0.039,0.599 0.088,0.328 0.225,0.636 0.411,0.925 0.151,0.257 0.316,0.497 0.498,0.719l6.985 -0.456 0 0zm9.748 -11.108c-0.713,-0.688 -1.585,-0.999 -2.617,-0.931 -1.031,0.067 -1.888,0.49 -2.572,1.27 -0.616,0.808 -0.89,1.728 -0.822,2.759 0.067,1.031 0.457,1.891 1.17,2.579 0.782,0.718 1.688,1.043 2.719,0.975 1.031,-0.067 1.855,-0.505 2.47,-1.313 0.684,-0.78 0.993,-1.685 0.925,-2.716 -0.067,-1.031 -0.492,-1.906 -1.273,-2.623z"/>
      </g>
      <g>
       <path class="fil3" d="M675.774 46.198c0.239,0.084 0.489,0.068 0.748,-0.049 0.224,-0.148 0.395,-0.343 0.513,-0.585 0.082,-0.272 0.066,-0.522 -0.049,-0.748 -0.15,-0.258 -0.345,-0.428 -0.584,-0.513 -1.505,-0.537 -3.001,-0.422 -4.487,0.343 -1.004,0.499 -1.794,1.186 -2.371,2.058 -0.154,0.211 -0.204,0.465 -0.151,0.762 0.05,0.264 0.197,0.471 0.441,0.622 0.211,0.154 0.464,0.204 0.761,0.151 0.265,-0.05 0.472,-0.198 0.623,-0.442 0.396,-0.593 0.934,-1.046 1.615,-1.358 0.97,-0.497 1.95,-0.577 2.941,-0.241l0 0zm15.917 0.515c0.716,0.22 1.308,0.599 1.778,1.136 0.181,0.222 0.423,0.34 0.724,0.354 0.269,0.016 0.497,-0.066 0.686,-0.245 0.222,-0.182 0.341,-0.407 0.357,-0.675 0.013,-0.302 -0.069,-0.546 -0.249,-0.735 -0.686,-0.79 -1.559,-1.368 -2.618,-1.733 -1.573,-0.566 -3.055,-0.486 -4.444,0.239 -0.26,0.117 -0.43,0.312 -0.513,0.585 -0.118,0.241 -0.102,0.491 0.049,0.748 0.115,0.227 0.31,0.398 0.585,0.514 0.239,0.084 0.488,0.068 0.748,-0.05 0.905,-0.46 1.871,-0.506 2.897,-0.138z"/>
      </g>
      <path class="fil4" d="M687.87 60.34c0.147,-0.31 0.259,-0.634 0.337,-0.974 0.018,-0.235 -0.011,-0.433 -0.089,-0.595 -0.081,-0.229 -0.208,-0.387 -0.382,-0.476 -0.208,-0.12 -0.412,-0.174 -0.611,-0.161l-2.844 0.186 0.195 2.993 -6.985 0.456c0.221,0.32 0.49,0.603 0.807,0.849 1.275,1.12 2.728,1.626 4.358,1.52 1.63,-0.106 2.989,-0.78 4.077,-2.02l0.047 -0.053c0.466,-0.532 0.83,-1.106 1.09,-1.725z"/>
     </g>
    </g>
   </g>
   <g>
    <g>
     <g>
      <path class="fil4" d="M692.497 55.228c0.394,-0.627 0.562,-1.373 0.505,-2.237 -0.056,-0.865 -0.321,-1.6 -0.795,-2.203 -0.438,-0.573 -0.956,-0.84 -1.555,-0.801 -0.599,0.039 -1.095,0.372 -1.488,0.999 -0.358,0.658 -0.509,1.42 -0.452,2.285 0.056,0.864 0.303,1.583 0.741,2.156 0.474,0.604 1.01,0.886 1.609,0.847 0.599,-0.039 1.077,-0.388 1.435,-1.046z"/>
     </g>
    </g>
   </g>
   <g>
    <g>
     <g>
      <path class="fil4" d="M675.683 56.325c0.393,-0.627 0.562,-1.373 0.505,-2.238 -0.056,-0.864 -0.321,-1.599 -0.795,-2.202 -0.438,-0.573 -0.957,-0.84 -1.555,-0.801 -0.599,0.039 -1.095,0.372 -1.488,0.999 -0.358,0.658 -0.509,1.42 -0.453,2.284 0.056,0.865 0.304,1.584 0.742,2.157 0.474,0.604 1.01,0.886 1.609,0.847 0.598,-0.039 1.077,-0.388 1.435,-1.046z"/>
     </g>
    </g>
   </g>
   <g>
    <g>
     <g>
      <path class="fil3" d="M656.234 37c-1.033,8.753 -0.069,17.124 2.891,25.115 3.091,-3.308 4.596,-8.918 4.513,-16.829 2.397,-11.915 14.901,-22.501 37.513,-31.759 -16.566,4.654 -29.222,9.572 -37.971,14.753l-2.584 4.928 -4.362 3.792z"/>
      <path class="fil5" d="M680.988 42.4c5.659,1.235 11.609,1.565 17.852,0.99l1.525 8.018c2.441,-9.178 3.01,-15.562 1.707,-19.152 -1.795,-4.993 -2.103,-11.237 -0.921,-18.729 -22.612,9.258 -35.116,19.844 -37.513,31.759 4.578,-3.572 10.361,-4.534 17.35,-2.886z"/>
     </g>
    </g>
   </g>
  </g>
  <g id="head_FL_FL_FL_FL_FL_FL_FL_FL">
   <g>
    <g>
     <g>
      <path class="fil0" d="M286.466 287.55c-1.834,1.482 -4.144,2.357 -6.931,2.624 -2.787,0.268 -5.222,-0.152 -7.304,-1.258 -1.234,-0.651 -2.13,-1.436 -2.687,-2.353l19.112 -1.835c-0.372,1.006 -1.102,1.947 -2.19,2.822z"/>
      <path class="fil1" d="M259.404 282.965c-1.672,-6.604 -2.313,-13.457 -1.924,-20.56 0.148,-2.995 1.698,-4.634 4.651,-4.917l30.212 -2.901c2.919,-0.28 4.757,1.067 5.511,4.042 1.652,6.74 2.308,13.575 1.969,20.506 -0.178,3.031 -1.727,4.686 -4.647,4.967l-6.52 0.626 -19.112 1.835 -4.579 0.439c-2.953,0.284 -4.807,-1.062 -5.561,-4.037z"/>
     </g>
    </g>
   </g>
   <g>
    <g>
     <g>
      <g>
       <path class="fil2" d="M282.038 268.636c0.593,-0.793 1.405,-1.239 2.433,-1.338 1.029,-0.099 1.943,0.182 2.743,0.842 0.737,0.699 1.155,1.563 1.253,2.592 0.099,1.028 -0.148,1.939 -0.741,2.733 -0.657,0.833 -1.5,1.299 -2.529,1.398 -1.028,0.099 -1.911,-0.202 -2.648,-0.901 -0.8,-0.66 -1.249,-1.504 -1.348,-2.533 -0.099,-1.028 0.18,-1.959 0.837,-2.793l0 0zm-7.114 11.182l-0.287 -2.987 6.819 -0.655c0.199,-0.018 0.388,0.03 0.567,0.147 0.208,0.081 0.357,0.234 0.446,0.46 0.082,0.159 0.101,0.358 0.057,0.597 -0.035,0.338 -0.121,0.664 -0.258,0.979 -0.107,0.278 -0.233,0.541 -0.376,0.79l-6.968 0.669 0 0zm-11.401 -9.404c0.594,-0.794 1.405,-1.24 2.433,-1.339 1.029,-0.099 1.943,0.182 2.743,0.842 0.737,0.699 1.155,1.563 1.254,2.592 0.098,1.029 -0.149,1.94 -0.742,2.733 -0.657,0.834 -1.5,1.3 -2.528,1.399 -1.029,0.098 -1.912,-0.202 -2.649,-0.901 -0.8,-0.66 -1.249,-1.505 -1.348,-2.533 -0.099,-1.029 0.18,-1.96 0.837,-2.793z"/>
      </g>
      <g>
       <path class="fil3" d="M281.093 263.503c-0.222,0.122 -0.471,0.146 -0.747,0.072 -0.245,-0.111 -0.444,-0.275 -0.599,-0.495 -0.126,-0.256 -0.149,-0.505 -0.072,-0.746 0.107,-0.279 0.272,-0.479 0.495,-0.601 1.399,-0.77 2.894,-0.897 4.484,-0.38 1.07,0.333 1.96,0.883 2.67,1.653 0.185,0.183 0.275,0.425 0.271,0.727 -0.008,0.269 -0.12,0.497 -0.336,0.685 -0.184,0.185 -0.426,0.275 -0.728,0.271 -0.269,-0.008 -0.497,-0.12 -0.685,-0.336 -0.485,-0.523 -1.089,-0.883 -1.812,-1.082 -1.036,-0.336 -2.017,-0.258 -2.941,0.232l0 0zm-15.629 3.058c-0.672,0.332 -1.196,0.801 -1.573,1.407 -0.144,0.248 -0.363,0.403 -0.659,0.465 -0.262,0.058 -0.501,0.014 -0.716,-0.132 -0.248,-0.144 -0.401,-0.347 -0.46,-0.609 -0.062,-0.296 -0.019,-0.551 0.127,-0.766 0.552,-0.89 1.32,-1.6 2.307,-2.13 1.463,-0.81 2.938,-0.969 4.426,-0.475 0.274,0.074 0.475,0.239 0.599,0.495 0.155,0.219 0.18,0.468 0.072,0.746 -0.077,0.242 -0.242,0.442 -0.495,0.6 -0.223,0.122 -0.471,0.146 -0.746,0.072 -0.968,-0.309 -1.928,-0.2 -2.882,0.327z"/>
      </g>
      <path class="fil4" d="M271.418 279.401c-0.195,-0.283 -0.358,-0.586 -0.489,-0.908 -0.055,-0.229 -0.058,-0.429 -0.008,-0.602 0.045,-0.239 0.145,-0.416 0.301,-0.531 0.187,-0.152 0.379,-0.237 0.578,-0.256l2.837 -0.273 0.287 2.987 6.968 -0.669c-0.167,0.35 -0.388,0.673 -0.661,0.967 -1.08,1.309 -2.432,2.042 -4.058,2.198 -1.626,0.156 -3.075,-0.291 -4.348,-1.341l-0.055 -0.045c-0.545,-0.45 -0.996,-0.959 -1.352,-1.527z"/>
     </g>
    </g>
   </g>
   <g>
    <g>
     <g>
      <path class="fil4" d="M266.032 275.095c-0.489,-0.555 -0.775,-1.265 -0.857,-2.127 -0.083,-0.863 0.061,-1.63 0.432,-2.302 0.34,-0.635 0.81,-0.982 1.407,-1.039 0.597,-0.058 1.14,0.191 1.629,0.747 0.459,0.593 0.729,1.32 0.812,2.183 0.083,0.863 -0.046,1.612 -0.387,2.247 -0.371,0.672 -0.855,1.036 -1.452,1.094 -0.597,0.057 -1.125,-0.21 -1.584,-0.803z"/>
     </g>
    </g>
   </g>
   <g>
    <g>
     <g>
      <path class="fil4" d="M282.805 273.485c-0.489,-0.556 -0.774,-1.265 -0.857,-2.127 -0.083,-0.863 0.061,-1.631 0.432,-2.302 0.34,-0.636 0.809,-0.982 1.407,-1.04 0.597,-0.057 1.14,0.192 1.628,0.748 0.459,0.593 0.73,1.32 0.813,2.183 0.083,0.862 -0.046,1.611 -0.387,2.247 -0.371,0.672 -0.855,1.036 -1.452,1.094 -0.598,0.057 -1.126,-0.21 -1.584,-0.803z"/>
     </g>
    </g>
   </g>
   <g>
    <g>
     <g>
      <path class="fil3" d="M298.908 251.295c2.421,8.474 2.81,16.892 1.169,25.254 -3.581,-2.771 -5.965,-8.067 -7.152,-15.889 -4.273,-11.378 -18.311,-19.825 -42.114,-25.342 17.097,1.942 30.378,4.769 39.843,8.481l3.341 4.452 4.913 3.044z"/>
      <path class="fil5" d="M275.338 260.59c-5.388,2.124 -11.209,3.403 -17.463,3.836l-0.221 8.159c-3.88,-8.669 -5.464,-14.88 -4.753,-18.631 0.973,-5.217 0.276,-11.429 -2.09,-18.636 23.803,5.517 37.841,13.964 42.114,25.342 -5.09,-2.794 -10.952,-2.817 -17.587,-0.07z"/>
     </g>
    </g>
   </g>
  </g>
  <g>
   <g>
    <g>
     <g>
      <path class="fil0" d="M273.853 181.205c2.799,0.075 5.198,-0.512 7.199,-1.759 1.186,-0.735 2.026,-1.579 2.518,-2.533l-19.193 -0.512c0.441,0.979 1.234,1.867 2.38,2.665 1.932,1.351 4.297,2.065 7.096,2.139z"/>
      <path class="fil1" d="M293.938 151.981c-0.355,-2.978 -2.015,-4.506 -4.98,-4.585l-30.339 -0.808c-2.932,-0.078 -4.672,1.393 -5.219,4.413 -1.182,6.837 -1.365,13.701 -0.548,20.592 0.386,3.011 2.046,4.556 4.978,4.634l6.547 0.174 19.193 0.512 4.598 0.122c2.966,0.079 4.722,-1.391 5.27,-4.411 1.212,-6.703 1.378,-13.584 0.5,-20.643z"/>
     </g>
    </g>
   </g>
   <g>
    <g>
     <g>
      <g>
       <path class="fil2" d="M270.896 162.62c0.028,-1.033 -0.314,-1.942 -1.027,-2.728 -0.647,-0.751 -1.487,-1.14 -2.52,-1.167 -1.033,-0.028 -1.926,0.315 -2.678,1.029 -0.687,0.748 -1.044,1.639 -1.072,2.672 -0.027,1.033 0.283,1.925 0.929,2.676 0.713,0.785 1.586,1.192 2.619,1.22 1.033,0.027 1.893,-0.333 2.579,-1.082 0.753,-0.714 1.143,-1.587 1.17,-2.62l0 0zm17.566 -2.233c-0.647,-0.751 -1.487,-1.139 -2.52,-1.167 -1.033,-0.028 -1.926,0.316 -2.678,1.029 -0.687,0.748 -1.044,1.639 -1.072,2.672 -0.027,1.033 0.282,1.925 0.929,2.676 0.713,0.786 1.586,1.193 2.619,1.22 1.033,0.028 1.893,-0.333 2.579,-1.082 0.753,-0.713 1.143,-1.587 1.17,-2.619 0.028,-1.033 -0.315,-1.943 -1.027,-2.729z"/>
      </g>
      <g>
       <path class="fil3" d="M270.858 156.567c0.128,0.204 0.341,0.326 0.64,0.367 0.266,0.041 0.518,-0.019 0.755,-0.179 0.205,-0.162 0.343,-0.375 0.417,-0.64 0.007,-0.266 -0.069,-0.518 -0.23,-0.756 -0.931,-1.325 -2.211,-2.093 -3.84,-2.303 -1.096,-0.162 -2.132,-0.057 -3.109,0.317 -0.236,0.094 -0.424,0.273 -0.564,0.536 -0.141,0.263 -0.131,0.513 0.029,0.751 0.061,0.235 0.239,0.423 0.536,0.564 0.196,0.139 0.446,0.129 0.751,-0.03 0.639,-0.216 1.324,-0.265 2.054,-0.145 1.096,0.162 1.95,0.668 2.561,1.518l0 0zm16.891 -1.35c-0.922,-0.425 -1.951,-0.586 -3.088,-0.483 -1.67,0.122 -2.973,0.821 -3.907,2.097 -0.206,0.228 -0.296,0.459 -0.269,0.693 0.027,0.268 0.154,0.488 0.383,0.66 0.195,0.172 0.443,0.262 0.743,0.27 0.268,-0.026 0.488,-0.153 0.66,-0.382 0.621,-0.784 1.484,-1.228 2.587,-1.332 0.735,-0.08 1.417,0.005 2.044,0.255 0.295,0.175 0.562,0.181 0.799,0.021 0.269,-0.093 0.457,-0.255 0.563,-0.485 0.14,-0.23 0.146,-0.48 0.021,-0.75 -0.127,-0.27 -0.305,-0.458 -0.536,-0.564z"/>
      </g>
      <path class="fil4" d="M281.525 171.056c0.27,-0.093 0.474,-0.254 0.614,-0.483 0.106,-0.231 0.129,-0.48 0.07,-0.749 -0.093,-0.269 -0.255,-0.457 -0.486,-0.563 -0.23,-0.139 -0.479,-0.179 -0.747,-0.12 -3.595,1.038 -6.687,0.672 -9.274,-1.097 -0.228,-0.173 -0.477,-0.23 -0.745,-0.17 -0.268,0.026 -0.471,0.154 -0.611,0.384 -0.173,0.229 -0.229,0.477 -0.17,0.745 0.026,0.268 0.154,0.488 0.383,0.661 3.044,2.148 6.699,2.612 10.966,1.392z"/>
     </g>
    </g>
   </g>
   <g>
    <g>
     <g>
      <g>
       <path class="fil4" d="M267.914 165.692c0.599,0.016 1.108,-0.287 1.525,-0.91 0.449,-0.588 0.685,-1.315 0.708,-2.182 0.023,-0.866 -0.174,-1.621 -0.59,-2.266 -0.384,-0.61 -0.876,-0.924 -1.476,-0.939 -0.599,-0.017 -1.124,0.269 -1.573,0.858 -0.417,0.622 -0.636,1.367 -0.66,2.233 -0.023,0.866 0.158,1.605 0.542,2.215 0.416,0.645 0.924,0.975 1.524,0.991l0 0zm15.438 -4.99c-0.417,0.622 -0.637,1.366 -0.66,2.232 -0.023,0.867 0.157,1.605 0.541,2.216 0.417,0.644 0.925,0.975 1.524,0.991 0.6,0.016 1.108,-0.288 1.525,-0.91 0.449,-0.588 0.685,-1.315 0.708,-2.182 0.023,-0.866 -0.173,-1.622 -0.59,-2.266 -0.383,-0.611 -0.875,-0.924 -1.475,-0.94 -0.6,-0.016 -1.124,0.27 -1.573,0.859z"/>
      </g>
     </g>
    </g>
   </g>
   <g>
    <g>
     <g>
      <path class="fil3" d="M259.559 135.71l-3.025 4.671 -4.691 3.376c-1.83,8.62 -1.638,17.045 0.577,25.273 3.381,-3.01 5.394,-8.458 6.037,-16.344 3.478,-11.644 16.899,-21.04 40.264,-28.187 -16.922,3.117 -29.976,6.854 -39.162,11.211z"/>
      <path class="fil5" d="M275.997 151.403c5.522,1.747 11.417,2.621 17.686,2.621l0.784 8.124c3.272,-8.916 4.423,-15.221 3.455,-18.914 -1.331,-5.137 -1.064,-11.382 0.799,-18.735 -23.365,7.147 -36.786,16.543 -40.264,28.187 4.885,-3.138 10.732,-3.565 17.54,-1.283z"/>
     </g>
    </g>
   </g>
  </g>
  <g>
   <g>
    <g>
     <g>
      <path class="fil0" d="M204.66 66.258c2.791,0.219 5.218,-0.242 7.28,-1.385 1.223,-0.672 2.105,-1.472 2.646,-2.4l-19.141 -1.502c0.39,1 1.136,1.928 2.239,2.784 1.859,1.449 4.184,2.284 6.976,2.503z"/>
      <path class="fil1" d="M226.228 38.109c-0.2,-2.991 -1.778,-4.603 -4.736,-4.835l-30.257 -2.375c-2.924,-0.229 -4.738,1.15 -5.44,4.137 -1.535,6.768 -2.072,13.613 -1.612,20.537 0.231,3.028 1.808,4.656 4.732,4.886l6.53 0.512 19.141 1.502 4.586 0.36c2.957,0.232 4.788,-1.145 5.49,-4.133 1.557,-6.632 2.079,-13.495 1.566,-20.591z"/>
     </g>
    </g>
   </g>
   <g>
    <g>
     <g>
      <g>
       <path class="fil2" d="M202.668 47.545c0.08,-1.03 -0.214,-1.956 -0.886,-2.778 -0.607,-0.783 -1.426,-1.215 -2.456,-1.296 -1.03,-0.081 -1.939,0.215 -2.728,0.889 -0.724,0.712 -1.127,1.584 -1.208,2.614 -0.081,1.03 0.182,1.937 0.79,2.72 0.671,0.821 1.521,1.273 2.552,1.353 1.03,0.081 1.907,-0.234 2.632,-0.946 0.788,-0.674 1.223,-1.526 1.304,-2.556l0 0zm6.62 6.387l0.138 -2.396c-0.582,-0.247 -1.223,-0.397 -1.92,-0.452 -1.629,-0.128 -3.088,0.36 -4.378,1.462 -0.32,0.243 -0.593,0.522 -0.818,0.839l6.978 0.547 0 0zm11.923 -4.932c0.081,-1.03 -0.215,-1.956 -0.886,-2.777 -0.607,-0.784 -1.425,-1.216 -2.456,-1.297 -1.03,-0.081 -1.939,0.216 -2.728,0.889 -0.724,0.713 -1.127,1.584 -1.208,2.614 -0.081,1.03 0.182,1.937 0.79,2.72 0.671,0.822 1.521,1.273 2.552,1.354 1.03,0.081 1.907,-0.235 2.632,-0.947 0.788,-0.674 1.223,-1.526 1.304,-2.556z"/>
      </g>
      <g>
       <path class="fil3" d="M202.509 38.705c-0.184,-0.215 -0.407,-0.349 -0.671,-0.403 -1.541,-0.389 -3.017,-0.103 -4.43,0.855 -0.916,0.597 -1.612,1.362 -2.086,2.294 -0.121,0.258 -0.141,0.524 -0.063,0.798 0.079,0.274 0.249,0.454 0.509,0.541 0.256,0.154 0.505,0.174 0.748,0.059 0.274,-0.079 0.47,-0.231 0.588,-0.455 0.318,-0.644 0.811,-1.174 1.479,-1.589 0.916,-0.597 1.884,-0.789 2.903,-0.575 0.197,0.049 0.435,0.001 0.714,-0.145 0.212,-0.15 0.362,-0.356 0.449,-0.616 0.057,-0.297 0.01,-0.551 -0.14,-0.764l0 0zm17.442 6.535c0.258,0.121 0.509,0.124 0.752,0.009 0.237,-0.048 0.417,-0.201 0.537,-0.459 0.157,-0.289 0.194,-0.554 0.113,-0.794 -0.323,-0.995 -0.908,-1.86 -1.753,-2.595 -1.212,-1.165 -2.61,-1.676 -4.192,-1.533 -0.269,0.012 -0.494,0.112 -0.676,0.298 -0.182,0.187 -0.268,0.431 -0.258,0.732 0.046,0.271 0.161,0.498 0.348,0.679 0.186,0.182 0.43,0.268 0.732,0.259 1.007,-0.055 1.9,0.283 2.679,1.013 0.561,0.512 0.966,1.112 1.213,1.8 0.048,0.237 0.216,0.435 0.505,0.591z"/>
      </g>
      <path class="fil4" d="M212.669 54.95c-0.252,-0.622 -0.608,-1.201 -1.067,-1.739l-0.046 -0.053c-0.613,-0.717 -1.323,-1.258 -2.13,-1.622l-0.138 2.396 -6.978 -0.547c-0.185,0.219 -0.354,0.457 -0.508,0.712 -0.189,0.286 -0.33,0.593 -0.423,0.92 -0.085,0.227 -0.1,0.427 -0.047,0.598 0.048,0.238 0.168,0.415 0.36,0.53 0.155,0.146 0.333,0.227 0.533,0.242l9.67 0.759c0.199,0.016 0.404,-0.035 0.614,-0.152 0.174,-0.087 0.303,-0.244 0.387,-0.471 0.08,-0.161 0.112,-0.359 0.097,-0.595 -0.073,-0.34 -0.182,-0.666 -0.324,-0.978z"/>
     </g>
    </g>
   </g>
   <g>
    <g>
     <g>
      <g>
       <path class="fil4" d="M201.92 47.486c0.068,-0.864 -0.09,-1.629 -0.472,-2.294 -0.352,-0.629 -0.827,-0.967 -1.425,-1.015 -0.598,-0.046 -1.136,0.212 -1.616,0.777 -0.448,0.6 -0.706,1.332 -0.774,2.196 -0.067,0.864 0.074,1.61 0.426,2.24 0.383,0.665 0.873,1.021 1.471,1.068 0.598,0.047 1.122,-0.229 1.57,-0.829 0.479,-0.565 0.752,-1.279 0.82,-2.143l0 0zm15.978 3.461c0.479,-0.564 0.752,-1.278 0.82,-2.142 0.068,-0.864 -0.089,-1.629 -0.472,-2.294 -0.351,-0.63 -0.827,-0.968 -1.424,-1.015 -0.599,-0.047 -1.137,0.212 -1.616,0.776 -0.448,0.6 -0.707,1.332 -0.775,2.196 -0.067,0.864 0.075,1.611 0.427,2.24 0.382,0.666 0.872,1.022 1.47,1.069 0.599,0.047 1.122,-0.23 1.57,-0.83z"/>
      </g>
     </g>
    </g>
   </g>
   <g>
    <g>
     <g>
      <path class="fil3" d="M192.736 20.084l-3.263 4.508 -4.86 3.129c-2.273,8.515 -2.516,16.939 -0.729,25.271 3.532,-2.833 5.824,-8.169 6.874,-16.012 4.075,-11.449 17.964,-20.139 41.667,-26.069 -17.06,2.239 -30.29,5.296 -39.689,9.173z"/>
      <path class="fil5" d="M208.341 36.605c5.424,2.031 11.267,3.208 17.528,3.532l0.362 8.154c3.729,-8.735 5.205,-14.972 4.428,-18.711 -1.063,-5.199 -0.474,-11.422 1.766,-18.669 -23.703,5.93 -37.592,14.62 -41.667,26.069 5.041,-2.881 10.902,-3.006 17.583,-0.375z"/>
     </g>
    </g>
   </g>
  </g>
  <g>
   <g>
    <g>
     <g>
      <path class="fil0" d="M360.71 63.908c2.791,0.219 5.218,-0.242 7.28,-1.384 1.223,-0.673 2.106,-1.474 2.646,-2.401l-19.141 -1.502c0.39,1 1.136,1.928 2.239,2.784 1.859,1.449 4.184,2.284 6.976,2.503z"/>
      <path class="fil1" d="M382.278 35.76c-0.199,-2.992 -1.778,-4.604 -4.736,-4.836l-30.257 -2.375c-2.924,-0.229 -4.737,1.15 -5.44,4.137 -1.534,6.767 -2.072,13.613 -1.612,20.537 0.231,3.027 1.808,4.656 4.732,4.885l6.53 0.513 19.141 1.502 4.586 0.36c2.958,0.232 4.788,-1.145 5.491,-4.133 1.556,-6.632 2.078,-13.495 1.565,-20.59z"/>
     </g>
    </g>
   </g>
   <g>
    <g>
     <g>
      <g>
       <path class="fil2" d="M358.718 45.195c0.081,-1.03 -0.214,-1.956 -0.886,-2.778 -0.607,-0.783 -1.426,-1.215 -2.456,-1.296 -1.03,-0.081 -1.939,0.215 -2.728,0.889 -0.724,0.712 -1.127,1.583 -1.208,2.614 -0.081,1.03 0.183,1.936 0.79,2.72 0.671,0.822 1.522,1.273 2.552,1.354 1.03,0.081 1.907,-0.235 2.632,-0.947 0.788,-0.674 1.223,-1.526 1.304,-2.556l0 0zm6.62 6.387l0.138 -2.396c-0.582,-0.246 -1.223,-0.397 -1.92,-0.452 -1.628,-0.127 -3.088,0.36 -4.378,1.462 -0.32,0.243 -0.593,0.522 -0.818,0.839l6.978 0.547 0 0zm11.923 -4.932c0.081,-1.03 -0.215,-1.956 -0.885,-2.778 -0.608,-0.783 -1.426,-1.215 -2.457,-1.296 -1.03,-0.08 -1.939,0.216 -2.727,0.89 -0.725,0.712 -1.128,1.583 -1.209,2.613 -0.081,1.03 0.182,1.937 0.79,2.72 0.671,0.822 1.521,1.273 2.552,1.354 1.03,0.081 1.907,-0.235 2.632,-0.947 0.788,-0.674 1.223,-1.526 1.304,-2.556z"/>
      </g>
      <g>
       <path class="fil3" d="M358.559 36.355c-0.184,-0.215 -0.407,-0.349 -0.67,-0.403 -1.542,-0.389 -3.018,-0.104 -4.431,0.856 -0.916,0.597 -1.612,1.361 -2.086,2.294 -0.12,0.257 -0.141,0.523 -0.062,0.797 0.078,0.274 0.248,0.454 0.509,0.542 0.255,0.153 0.504,0.173 0.747,0.058 0.274,-0.079 0.47,-0.23 0.588,-0.455 0.318,-0.644 0.811,-1.174 1.479,-1.59 0.916,-0.596 1.884,-0.788 2.904,-0.574 0.196,0.049 0.434,0.001 0.713,-0.145 0.212,-0.15 0.363,-0.356 0.45,-0.616 0.057,-0.297 0.01,-0.551 -0.141,-0.764l0 0zm17.442 6.535c0.258,0.121 0.509,0.124 0.752,0.009 0.238,-0.048 0.417,-0.201 0.537,-0.459 0.157,-0.289 0.194,-0.554 0.113,-0.794 -0.323,-0.995 -0.907,-1.86 -1.752,-2.595 -1.213,-1.165 -2.61,-1.676 -4.193,-1.533 -0.269,0.013 -0.494,0.112 -0.676,0.298 -0.182,0.186 -0.268,0.431 -0.258,0.732 0.046,0.271 0.162,0.498 0.348,0.68 0.187,0.182 0.43,0.267 0.732,0.258 1.008,-0.055 1.901,0.283 2.679,1.012 0.562,0.513 0.966,1.113 1.213,1.801 0.048,0.238 0.217,0.435 0.505,0.591z"/>
      </g>
      <path class="fil4" d="M368.719 52.6c-0.252,-0.622 -0.608,-1.201 -1.067,-1.739l-0.046 -0.054c-0.612,-0.716 -1.323,-1.257 -2.13,-1.621l-0.138 2.396 -6.978 -0.547c-0.185,0.219 -0.354,0.457 -0.508,0.712 -0.189,0.286 -0.33,0.593 -0.423,0.92 -0.084,0.228 -0.1,0.427 -0.047,0.598 0.049,0.238 0.168,0.415 0.36,0.53 0.156,0.146 0.333,0.227 0.533,0.242l9.67 0.759c0.199,0.016 0.404,-0.035 0.614,-0.152 0.174,-0.087 0.303,-0.244 0.388,-0.471 0.079,-0.161 0.111,-0.359 0.097,-0.594 -0.074,-0.341 -0.182,-0.667 -0.325,-0.979z"/>
     </g>
    </g>
   </g>
   <g>
    <g>
     <g>
      <g>
       <path class="fil4" d="M357.97 45.136c0.068,-0.864 -0.089,-1.628 -0.472,-2.294 -0.352,-0.629 -0.827,-0.967 -1.425,-1.014 -0.598,-0.047 -1.136,0.211 -1.615,0.776 -0.449,0.6 -0.707,1.332 -0.775,2.196 -0.067,0.864 0.075,1.61 0.426,2.24 0.383,0.665 0.873,1.021 1.471,1.068 0.599,0.047 1.122,-0.229 1.57,-0.829 0.479,-0.565 0.752,-1.279 0.82,-2.143l0 0zm15.978 3.461c0.479,-0.564 0.753,-1.278 0.821,-2.142 0.067,-0.864 -0.09,-1.629 -0.473,-2.294 -0.351,-0.63 -0.826,-0.968 -1.424,-1.015 -0.599,-0.047 -1.137,0.212 -1.616,0.776 -0.448,0.6 -0.707,1.332 -0.774,2.196 -0.068,0.864 0.074,1.611 0.426,2.24 0.382,0.666 0.872,1.022 1.471,1.069 0.598,0.047 1.121,-0.23 1.569,-0.83z"/>
      </g>
     </g>
    </g>
   </g>
   <g>
    <g>
     <g>
      <path class="fil3" d="M348.786 17.734l-3.263 4.508 -4.859 3.129c-2.273,8.515 -2.517,16.939 -0.73,25.271 3.532,-2.832 5.824,-8.17 6.874,-16.011 4.075,-11.45 17.964,-20.14 41.668,-26.07 -17.061,2.239 -30.291,5.296 -39.69,9.173z"/>
      <path class="fil5" d="M364.391 34.255c5.425,2.031 11.267,3.208 17.528,3.532l0.363 8.154c3.728,-8.735 5.204,-14.972 4.428,-18.711 -1.064,-5.199 -0.475,-11.422 1.766,-18.669 -23.704,5.93 -37.593,14.62 -41.668,26.07 5.041,-2.881 10.902,-3.007 17.583,-0.376z"/>
     </g>
    </g>
   </g>
  </g>
  <g>
   <g>
    <g>
     <g>
      <path class="fil0" d="M528.285 64.901c-2.068,1.133 -4.497,1.584 -7.287,1.353 -2.791,-0.231 -5.112,-1.076 -6.964,-2.534 -1.1,-0.86 -1.842,-1.792 -2.227,-2.794l19.134 1.586c-0.545,0.925 -1.431,1.722 -2.656,2.389z"/>
      <path class="fil1" d="M502.466 55.587c-0.474,-6.796 0.111,-13.654 1.755,-20.576 0.677,-2.92 2.494,-4.258 5.45,-4.013l30.247 2.507c2.923,0.242 4.492,1.894 4.706,4.956 0.43,6.925 -0.138,13.768 -1.701,20.529 -0.713,2.951 -2.531,4.306 -5.454,4.064l-6.528 -0.542 -19.134 -1.586 -4.585 -0.379c-2.956,-0.245 -4.542,-1.899 -4.756,-4.96z"/>
     </g>
    </g>
   </g>
   <g>
    <g>
     <g>
      <g>
       <path class="fil5" d="M540.17 22.588l2.498 4.973c-14.368,-2.194 -27.769,-8.99 -40.203,-20.39 16.481,4.945 29.049,10.084 37.705,15.417l0 0zm-19.544 37.263c-8.156,-0.876 -14.623,-5.376 -19.402,-13.498 -1.845,-3.164 -2.471,-7.714 -1.879,-13.652 0.215,-2.19 0.509,-3.721 0.883,-4.593 0.083,-0.194 0.164,-0.371 0.244,-0.531 0.598,-1.397 0.955,-2.27 1.071,-2.621 -0.276,0.926 -0.399,1.802 -0.369,2.629 0.8,18.194 7.752,28.955 20.855,32.282 12.938,-1.536 21.249,-11.016 24.934,-28.438 0.879,8.77 -0.168,14.938 -3.139,18.505 -6.051,7.225 -13.17,10.598 -21.359,10.12 -0.235,0.014 -0.583,-0.032 -1.042,-0.137 -0.335,0.006 -0.601,-0.016 -0.797,-0.066z"/>
      </g>
      <path class="fil3" d="M501.174 27.585c-0.03,-0.827 0.092,-1.703 0.369,-2.629l0.008 -0.1c1.601,-4.784 1.905,-10.679 0.914,-17.685 12.434,11.4 25.835,18.196 40.203,20.39l4.295 3.868c-3.685,17.422 -11.996,26.902 -24.934,28.438 -13.103,-3.327 -20.055,-14.088 -20.855,-32.282z"/>
     </g>
    </g>
   </g>
  </g>
  <g>
   <g>
    <g>
     <g>
      <path class="fil0" d="M281.298 81.058c2.79,0.231 5.219,-0.219 7.286,-1.353 1.226,-0.667 2.111,-1.464 2.656,-2.389l-19.134 -1.585c0.385,1.002 1.128,1.933 2.227,2.793 1.853,1.458 4.174,2.303 6.965,2.534z"/>
      <path class="fil1" d="M302.988 53.004c-0.186,-2.992 -1.758,-4.611 -4.715,-4.856l-30.245 -2.506c-2.923,-0.243 -4.743,1.128 -5.459,4.113 -1.563,6.76 -2.131,13.603 -1.701,20.529 0.218,3.028 1.788,4.663 4.711,4.906l6.527 0.541 19.134 1.585 4.585 0.381c2.956,0.244 4.792,-1.125 5.508,-4.11 1.586,-6.624 2.138,-13.486 1.655,-20.583z"/>
     </g>
    </g>
   </g>
   <g>
    <g>
     <g>
      <g>
       <path class="fil2" d="M279.388 62.337c0.085,-1.03 -0.206,-1.957 -0.874,-2.782 -0.604,-0.786 -1.42,-1.222 -2.45,-1.307 -1.03,-0.085 -1.941,0.207 -2.732,0.877 -0.728,0.71 -1.134,1.579 -1.219,2.609 -0.086,1.029 0.174,1.937 0.777,2.723 0.668,0.825 1.516,1.28 2.546,1.365 1.03,0.085 1.909,-0.226 2.636,-0.935 0.792,-0.67 1.23,-1.521 1.316,-2.55l0 0zm17.662 -1.246c-0.604,-0.786 -1.42,-1.221 -2.45,-1.307 -1.03,-0.085 -1.94,0.207 -2.732,0.878 -0.727,0.709 -1.134,1.578 -1.219,2.608 -0.086,1.03 0.173,1.938 0.777,2.723 0.668,0.825 1.516,1.28 2.546,1.365 1.03,0.086 1.909,-0.226 2.637,-0.935 0.791,-0.67 1.229,-1.521 1.314,-2.55 0.086,-1.03 -0.205,-1.957 -0.873,-2.782z"/>
      </g>
      <g>
       <path class="fil3" d="M279.688 56.291c0.116,0.21 0.322,0.344 0.619,0.402 0.263,0.056 0.517,0.01 0.764,-0.137 0.213,-0.15 0.364,-0.355 0.452,-0.615 0.022,-0.265 -0.04,-0.522 -0.187,-0.768 -0.856,-1.375 -2.091,-2.213 -3.705,-2.514 -1.085,-0.224 -2.126,-0.177 -3.122,0.142 -0.241,0.081 -0.439,0.248 -0.594,0.503 -0.155,0.255 -0.159,0.505 -0.012,0.751 0.047,0.238 0.215,0.436 0.502,0.594 0.189,0.149 0.439,0.153 0.752,0.012 0.651,-0.18 1.337,-0.19 2.06,-0.03 1.085,0.224 1.909,0.777 2.471,1.66l0 0zm16.941 -0.402c-0.897,-0.476 -1.916,-0.694 -3.057,-0.655 -1.674,0.028 -3.014,0.653 -4.018,1.874 -0.219,0.217 -0.321,0.442 -0.307,0.678 0.011,0.268 0.126,0.495 0.345,0.68 0.185,0.183 0.428,0.286 0.727,0.311 0.268,-0.011 0.495,-0.126 0.68,-0.345 0.664,-0.747 1.55,-1.142 2.657,-1.184 0.739,-0.039 1.415,0.084 2.027,0.368 0.285,0.191 0.551,0.213 0.797,0.066 0.274,-0.077 0.471,-0.228 0.589,-0.452 0.153,-0.222 0.173,-0.471 0.062,-0.748 -0.11,-0.277 -0.278,-0.474 -0.502,-0.593z"/>
      </g>
      <path class="fil4" d="M289.527 71.355c0.274,-0.078 0.487,-0.228 0.639,-0.449 0.119,-0.224 0.156,-0.472 0.112,-0.743 -0.078,-0.274 -0.228,-0.471 -0.453,-0.59 -0.221,-0.152 -0.468,-0.206 -0.739,-0.161 -3.648,0.835 -6.714,0.296 -9.198,-1.616 -0.219,-0.185 -0.463,-0.255 -0.735,-0.211 -0.268,0.011 -0.479,0.128 -0.631,0.349 -0.185,0.219 -0.256,0.464 -0.211,0.735 0.011,0.269 0.126,0.496 0.345,0.681 2.918,2.316 6.542,2.984 10.871,2.005z"/>
     </g>
    </g>
   </g>
   <g>
    <g>
     <g>
      <g>
       <path class="fil4" d="M276.237 65.236c0.598,0.05 1.123,-0.225 1.574,-0.823 0.481,-0.562 0.757,-1.275 0.829,-2.138 0.072,-0.864 -0.082,-1.629 -0.462,-2.296 -0.349,-0.631 -0.822,-0.971 -1.42,-1.021 -0.598,-0.05 -1.138,0.206 -1.619,0.769 -0.451,0.598 -0.713,1.329 -0.784,2.192 -0.072,0.864 0.067,1.612 0.416,2.242 0.38,0.667 0.868,1.026 1.466,1.075l0 0zm15.694 -4.118c-0.451,0.599 -0.712,1.329 -0.784,2.193 -0.072,0.864 0.067,1.611 0.416,2.242 0.38,0.667 0.868,1.025 1.466,1.075 0.598,0.049 1.123,-0.225 1.574,-0.823 0.481,-0.562 0.758,-1.275 0.829,-2.139 0.072,-0.863 -0.082,-1.629 -0.462,-2.295 -0.349,-0.632 -0.822,-0.972 -1.42,-1.021 -0.598,-0.05 -1.138,0.206 -1.619,0.768z"/>
      </g>
     </g>
    </g>
   </g>
   <g>
    <g>
     <g>
      <path class="fil3" d="M269.576 34.833l-3.283 4.494 -4.873 3.108c-2.31,8.504 -2.59,16.927 -0.84,25.266 3.545,-2.817 5.86,-8.144 6.944,-15.98 4.125,-11.432 18.052,-20.061 41.78,-25.888 -17.07,2.165 -30.313,5.164 -39.728,9z"/>
      <path class="fil5" d="M285.109 51.422c5.415,2.054 11.252,3.257 17.511,3.609l0.328 8.154c3.766,-8.718 5.269,-14.948 4.509,-18.691 -1.041,-5.204 -0.425,-11.423 1.847,-18.661 -23.728,5.827 -37.655,14.456 -41.78,25.888 5.053,-2.86 10.915,-2.959 17.585,-0.299z"/>
     </g>
    </g>
   </g>
  </g>
  <g>
   <g>
    <g>
     <g>
      <path class="fil0" d="M189.203 181.205c2.798,0.075 5.198,-0.512 7.199,-1.759 1.186,-0.735 2.026,-1.579 2.518,-2.533l-19.193 -0.512c0.441,0.979 1.234,1.867 2.38,2.665 1.932,1.351 4.296,2.065 7.096,2.139z"/>
      <path class="fil1" d="M209.287 151.981c-0.354,-2.978 -2.014,-4.506 -4.979,-4.585l-30.339 -0.808c-2.932,-0.078 -4.672,1.393 -5.219,4.413 -1.182,6.837 -1.365,13.701 -0.548,20.592 0.386,3.011 2.045,4.556 4.978,4.634l6.547 0.174 19.193 0.512 4.598 0.122c2.966,0.079 4.722,-1.391 5.269,-4.411 1.213,-6.703 1.379,-13.584 0.5,-20.643z"/>
     </g>
    </g>
   </g>
   <g>
    <g>
     <g>
      <g>
       <path class="fil2" d="M186.247 162.62c0.027,-1.033 -0.316,-1.942 -1.028,-2.728 -0.647,-0.751 -1.487,-1.14 -2.52,-1.167 -1.033,-0.028 -1.926,0.315 -2.678,1.029 -0.687,0.748 -1.044,1.639 -1.072,2.672 -0.027,1.033 0.282,1.925 0.929,2.676 0.713,0.785 1.586,1.192 2.619,1.22 1.033,0.027 1.892,-0.333 2.579,-1.082 0.753,-0.714 1.143,-1.587 1.171,-2.62l0 0zm17.565 -2.233c-0.647,-0.751 -1.487,-1.139 -2.52,-1.167 -1.033,-0.028 -1.926,0.316 -2.678,1.029 -0.687,0.748 -1.044,1.639 -1.072,2.672 -0.027,1.033 0.282,1.925 0.929,2.676 0.713,0.786 1.586,1.193 2.619,1.22 1.033,0.028 1.892,-0.333 2.579,-1.082 0.753,-0.713 1.143,-1.587 1.17,-2.619 0.028,-1.033 -0.315,-1.943 -1.027,-2.729z"/>
      </g>
      <g>
       <path class="fil3" d="M186.208 156.567c0.127,0.204 0.341,0.326 0.64,0.367 0.266,0.041 0.517,-0.019 0.755,-0.179 0.205,-0.162 0.344,-0.375 0.417,-0.64 0.008,-0.266 -0.069,-0.518 -0.23,-0.756 -0.931,-1.325 -2.211,-2.093 -3.84,-2.303 -1.096,-0.162 -2.132,-0.057 -3.109,0.317 -0.236,0.094 -0.424,0.273 -0.565,0.536 -0.14,0.263 -0.13,0.513 0.03,0.751 0.061,0.235 0.239,0.423 0.536,0.564 0.196,0.139 0.446,0.129 0.751,-0.03 0.639,-0.216 1.324,-0.265 2.054,-0.145 1.096,0.162 1.95,0.668 2.561,1.518l0 0zm16.891 -1.35c-0.922,-0.425 -1.952,-0.586 -3.088,-0.483 -1.671,0.122 -2.973,0.821 -3.907,2.097 -0.206,0.228 -0.296,0.459 -0.269,0.693 0.026,0.268 0.154,0.488 0.383,0.66 0.195,0.172 0.443,0.262 0.743,0.27 0.267,-0.026 0.487,-0.153 0.66,-0.382 0.621,-0.784 1.484,-1.228 2.586,-1.332 0.736,-0.08 1.418,0.005 2.044,0.255 0.296,0.175 0.562,0.181 0.8,0.021 0.269,-0.093 0.457,-0.255 0.563,-0.485 0.14,-0.23 0.147,-0.48 0.02,-0.75 -0.126,-0.27 -0.304,-0.458 -0.535,-0.564z"/>
      </g>
      <path class="fil4" d="M196.875 171.056c0.27,-0.093 0.474,-0.254 0.613,-0.483 0.107,-0.231 0.13,-0.48 0.07,-0.749 -0.093,-0.269 -0.254,-0.457 -0.485,-0.563 -0.23,-0.139 -0.478,-0.179 -0.747,-0.12 -3.595,1.038 -6.686,0.672 -9.274,-1.097 -0.229,-0.173 -0.477,-0.23 -0.745,-0.17 -0.268,0.026 -0.471,0.154 -0.611,0.384 -0.173,0.229 -0.229,0.477 -0.17,0.745 0.026,0.268 0.154,0.488 0.383,0.661 3.043,2.148 6.699,2.612 10.966,1.392z"/>
     </g>
    </g>
   </g>
   <g>
    <g>
     <g>
      <g>
       <path class="fil4" d="M183.264 165.692c0.6,0.016 1.108,-0.287 1.524,-0.91 0.449,-0.588 0.686,-1.315 0.709,-2.182 0.023,-0.866 -0.174,-1.621 -0.59,-2.266 -0.384,-0.61 -0.876,-0.924 -1.476,-0.939 -0.6,-0.017 -1.124,0.269 -1.573,0.858 -0.417,0.622 -0.637,1.367 -0.66,2.233 -0.023,0.866 0.158,1.605 0.542,2.215 0.416,0.645 0.924,0.975 1.524,0.991l0 0zm15.438 -4.99c-0.417,0.622 -0.637,1.366 -0.66,2.232 -0.023,0.867 0.157,1.605 0.541,2.216 0.417,0.644 0.924,0.975 1.524,0.991 0.6,0.016 1.108,-0.288 1.525,-0.91 0.449,-0.588 0.685,-1.315 0.708,-2.182 0.023,-0.866 -0.173,-1.622 -0.589,-2.266 -0.384,-0.611 -0.876,-0.924 -1.476,-0.94 -0.6,-0.016 -1.124,0.27 -1.573,0.859z"/>
      </g>
     </g>
    </g>
   </g>
   <g>
    <g>
     <g>
      <path class="fil3" d="M174.909 135.71l-3.025 4.671 -4.692 3.376c-1.83,8.62 -1.637,17.045 0.578,25.273 3.381,-3.01 5.393,-8.458 6.037,-16.344 3.478,-11.644 16.899,-21.04 40.264,-28.187 -16.922,3.117 -29.976,6.854 -39.162,11.211z"/>
      <path class="fil5" d="M191.347 151.403c5.522,1.747 11.417,2.621 17.686,2.621l0.784 8.124c3.271,-8.916 4.423,-15.221 3.454,-18.914 -1.33,-5.137 -1.064,-11.382 0.8,-18.735 -23.365,7.147 -36.786,16.543 -40.264,28.187 4.885,-3.138 10.732,-3.565 17.54,-1.283z"/>
     </g>
    </g>
   </g>
  </g>
  <g>
   <g>
    <g>
     <g>
      <path class="fil0" d="M514.053 178.655c2.799,0.075 5.199,-0.511 7.199,-1.759 1.187,-0.735 2.026,-1.579 2.519,-2.533l-19.193 -0.512c0.44,0.979 1.234,1.867 2.38,2.664 1.931,1.352 4.296,2.066 7.095,2.14z"/>
      <path class="fil1" d="M534.138 149.431c-0.354,-2.978 -2.014,-4.506 -4.98,-4.585l-30.338 -0.808c-2.933,-0.078 -4.672,1.393 -5.22,4.413 -1.182,6.837 -1.365,13.701 -0.548,20.592 0.387,3.011 2.046,4.556 4.978,4.634l6.548 0.174 19.193 0.512 4.598 0.122c2.965,0.079 4.721,-1.391 5.269,-4.411 1.212,-6.703 1.378,-13.584 0.5,-20.643z"/>
     </g>
    </g>
   </g>
   <g>
    <g>
     <g>
      <g>
       <path class="fil2" d="M511.097 160.07c0.027,-1.033 -0.315,-1.942 -1.028,-2.728 -0.647,-0.751 -1.487,-1.14 -2.519,-1.167 -1.033,-0.028 -1.926,0.315 -2.679,1.029 -0.687,0.748 -1.044,1.639 -1.072,2.672 -0.027,1.033 0.283,1.925 0.929,2.676 0.713,0.786 1.586,1.192 2.619,1.22 1.033,0.027 1.893,-0.333 2.579,-1.082 0.753,-0.713 1.143,-1.587 1.171,-2.62l0 0zm17.565 -2.233c-0.647,-0.75 -1.487,-1.14 -2.52,-1.167 -1.033,-0.028 -1.926,0.315 -2.678,1.029 -0.687,0.749 -1.044,1.639 -1.072,2.672 -0.027,1.033 0.283,1.925 0.929,2.676 0.713,0.786 1.586,1.193 2.619,1.22 1.033,0.028 1.893,-0.333 2.579,-1.082 0.753,-0.713 1.143,-1.586 1.171,-2.619 0.027,-1.033 -0.315,-1.943 -1.028,-2.729z"/>
      </g>
      <g>
       <path class="fil3" d="M511.058 154.017c0.128,0.204 0.341,0.326 0.64,0.367 0.266,0.041 0.518,-0.019 0.755,-0.179 0.205,-0.161 0.344,-0.375 0.418,-0.64 0.007,-0.266 -0.07,-0.518 -0.23,-0.756 -0.932,-1.325 -2.212,-2.093 -3.84,-2.303 -1.097,-0.162 -2.133,-0.057 -3.11,0.317 -0.236,0.094 -0.424,0.272 -0.564,0.536 -0.14,0.263 -0.131,0.513 0.03,0.751 0.06,0.235 0.239,0.423 0.535,0.564 0.196,0.139 0.447,0.129 0.751,-0.03 0.639,-0.216 1.324,-0.265 2.054,-0.145 1.096,0.162 1.95,0.668 2.561,1.518l0 0zm16.892 -1.35c-0.923,-0.425 -1.952,-0.586 -3.089,-0.483 -1.67,0.122 -2.973,0.822 -3.907,2.097 -0.206,0.228 -0.296,0.459 -0.268,0.693 0.026,0.268 0.153,0.488 0.382,0.661 0.196,0.172 0.443,0.261 0.743,0.27 0.268,-0.027 0.488,-0.154 0.66,-0.383 0.622,-0.784 1.484,-1.228 2.587,-1.332 0.736,-0.08 1.417,0.005 2.044,0.255 0.295,0.175 0.562,0.181 0.8,0.021 0.269,-0.093 0.456,-0.255 0.563,-0.485 0.139,-0.23 0.146,-0.48 0.02,-0.75 -0.127,-0.27 -0.305,-0.458 -0.535,-0.564z"/>
      </g>
      <path class="fil4" d="M521.726 168.506c0.269,-0.093 0.473,-0.254 0.613,-0.484 0.106,-0.23 0.129,-0.48 0.07,-0.748 -0.093,-0.269 -0.255,-0.457 -0.486,-0.563 -0.229,-0.139 -0.478,-0.18 -0.746,-0.12 -3.596,1.038 -6.687,0.672 -9.274,-1.097 -0.229,-0.173 -0.478,-0.23 -0.746,-0.17 -0.268,0.026 -0.471,0.154 -0.61,0.384 -0.173,0.229 -0.23,0.477 -0.17,0.745 0.026,0.268 0.153,0.488 0.382,0.661 3.044,2.148 6.699,2.612 10.967,1.392z"/>
     </g>
    </g>
   </g>
   <g>
    <g>
     <g>
      <g>
       <path class="fil4" d="M508.114 163.142c0.6,0.016 1.108,-0.287 1.525,-0.91 0.449,-0.588 0.685,-1.315 0.708,-2.182 0.023,-0.866 -0.173,-1.621 -0.59,-2.266 -0.383,-0.61 -0.876,-0.924 -1.475,-0.939 -0.6,-0.016 -1.124,0.27 -1.573,0.858 -0.417,0.622 -0.637,1.367 -0.66,2.233 -0.023,0.866 0.157,1.605 0.541,2.215 0.416,0.645 0.924,0.975 1.524,0.991l0 0zm15.438 -4.991c-0.417,0.623 -0.637,1.367 -0.66,2.234 -0.023,0.866 0.158,1.604 0.541,2.215 0.417,0.644 0.925,0.975 1.525,0.991 0.599,0.015 1.107,-0.288 1.524,-0.91 0.449,-0.588 0.686,-1.315 0.709,-2.182 0.023,-0.866 -0.174,-1.622 -0.59,-2.266 -0.384,-0.611 -0.876,-0.924 -1.476,-0.94 -0.599,-0.016 -1.124,0.27 -1.573,0.858z"/>
      </g>
     </g>
    </g>
   </g>
   <g>
    <g>
     <g>
      <path class="fil3" d="M499.76 133.16l-3.026 4.671 -4.691 3.376c-1.83,8.62 -1.638,17.045 0.577,25.273 3.381,-3.01 5.394,-8.459 6.037,-16.344 3.478,-11.645 16.899,-21.04 40.264,-28.187 -16.922,3.117 -29.976,6.854 -39.161,11.211z"/>
      <path class="fil5" d="M516.197 148.853c5.522,1.747 11.417,2.621 17.686,2.622l0.784 8.123c3.272,-8.916 4.423,-15.221 3.455,-18.914 -1.331,-5.138 -1.064,-11.382 0.799,-18.735 -23.365,7.147 -36.786,16.542 -40.264,28.187 4.885,-3.138 10.732,-3.565 17.54,-1.283z"/>
     </g>
    </g>
   </g>
  </g>
  <g>
   <g>
    <g>
     <g>
      <path class="fil0" d="M599.203 173.655c2.799,0.075 5.199,-0.512 7.199,-1.759 1.187,-0.735 2.026,-1.579 2.518,-2.533l-19.192 -0.512c0.441,0.979 1.234,1.867 2.379,2.665 1.932,1.351 4.297,2.065 7.096,2.139z"/>
      <path class="fil1" d="M619.288 144.431c-0.354,-2.977 -2.014,-4.506 -4.98,-4.585l-30.338 -0.808c-2.932,-0.078 -4.672,1.393 -5.219,4.413 -1.183,6.837 -1.366,13.701 -0.549,20.592 0.387,3.011 2.046,4.556 4.978,4.634l6.548 0.174 19.192 0.512 4.599 0.122c2.965,0.079 4.722,-1.391 5.269,-4.411 1.212,-6.703 1.379,-13.584 0.5,-20.643z"/>
     </g>
    </g>
   </g>
   <g>
    <g>
     <g>
      <g>
       <path class="fil2" d="M596.247 155.07c0.027,-1.033 -0.315,-1.942 -1.028,-2.728 -0.647,-0.751 -1.487,-1.14 -2.52,-1.167 -1.033,-0.028 -1.925,0.315 -2.678,1.029 -0.687,0.748 -1.044,1.639 -1.071,2.672 -0.028,1.033 0.282,1.925 0.929,2.676 0.712,0.785 1.585,1.192 2.618,1.22 1.033,0.027 1.893,-0.333 2.58,-1.082 0.752,-0.714 1.142,-1.587 1.17,-2.62l0 0zm17.565 -2.233c-0.647,-0.751 -1.487,-1.139 -2.52,-1.167 -1.033,-0.028 -1.925,0.316 -2.678,1.029 -0.687,0.748 -1.044,1.639 -1.071,2.672 -0.028,1.033 0.282,1.925 0.929,2.676 0.712,0.786 1.585,1.193 2.618,1.22 1.033,0.028 1.893,-0.333 2.58,-1.082 0.752,-0.713 1.142,-1.587 1.17,-2.619 0.027,-1.033 -0.315,-1.943 -1.028,-2.729z"/>
      </g>
      <g>
       <path class="fil3" d="M596.208 149.017c0.128,0.204 0.342,0.326 0.641,0.367 0.265,0.041 0.517,-0.019 0.755,-0.179 0.204,-0.162 0.343,-0.375 0.417,-0.64 0.007,-0.266 -0.07,-0.518 -0.23,-0.756 -0.932,-1.325 -2.212,-2.093 -3.84,-2.303 -1.096,-0.162 -2.133,-0.057 -3.11,0.317 -0.236,0.094 -0.424,0.273 -0.564,0.536 -0.141,0.263 -0.13,0.513 0.03,0.751 0.06,0.235 0.239,0.423 0.535,0.564 0.197,0.139 0.447,0.129 0.751,-0.03 0.64,-0.216 1.324,-0.265 2.055,-0.145 1.096,0.162 1.949,0.668 2.56,1.518l0 0zm16.892 -1.35c-0.923,-0.425 -1.952,-0.586 -3.089,-0.483 -1.67,0.122 -2.973,0.821 -3.907,2.097 -0.206,0.228 -0.295,0.459 -0.268,0.693 0.026,0.268 0.153,0.488 0.382,0.66 0.196,0.172 0.443,0.262 0.743,0.27 0.268,-0.026 0.488,-0.153 0.661,-0.382 0.621,-0.784 1.483,-1.228 2.586,-1.332 0.736,-0.08 1.417,0.005 2.044,0.255 0.296,0.175 0.562,0.181 0.8,0.021 0.269,-0.093 0.457,-0.255 0.563,-0.485 0.139,-0.23 0.146,-0.48 0.02,-0.75 -0.127,-0.27 -0.305,-0.458 -0.535,-0.564z"/>
      </g>
      <path class="fil4" d="M606.876 163.506c0.269,-0.093 0.473,-0.254 0.613,-0.483 0.106,-0.231 0.129,-0.48 0.07,-0.749 -0.093,-0.269 -0.255,-0.457 -0.485,-0.563 -0.23,-0.139 -0.479,-0.179 -0.748,-0.12 -3.595,1.038 -6.686,0.672 -9.273,-1.097 -0.229,-0.173 -0.478,-0.23 -0.746,-0.17 -0.267,0.026 -0.471,0.154 -0.611,0.384 -0.172,0.228 -0.229,0.477 -0.169,0.745 0.026,0.268 0.153,0.488 0.382,0.661 3.044,2.148 6.7,2.612 10.967,1.392z"/>
     </g>
    </g>
   </g>
   <g>
    <g>
     <g>
      <g>
       <path class="fil4" d="M593.264 158.142c0.6,0.016 1.108,-0.287 1.525,-0.91 0.449,-0.588 0.685,-1.315 0.708,-2.182 0.023,-0.866 -0.174,-1.621 -0.59,-2.266 -0.384,-0.61 -0.875,-0.924 -1.475,-0.939 -0.6,-0.017 -1.124,0.269 -1.574,0.858 -0.416,0.622 -0.636,1.367 -0.659,2.233 -0.023,0.866 0.157,1.605 0.541,2.215 0.416,0.645 0.924,0.975 1.524,0.991l0 0zm15.438 -4.99c-0.417,0.622 -0.637,1.366 -0.66,2.232 -0.023,0.867 0.158,1.605 0.542,2.216 0.416,0.644 0.924,0.975 1.524,0.991 0.6,0.016 1.108,-0.288 1.525,-0.91 0.449,-0.588 0.685,-1.315 0.708,-2.182 0.023,-0.866 -0.174,-1.622 -0.59,-2.266 -0.384,-0.611 -0.876,-0.924 -1.476,-0.94 -0.6,-0.016 -1.124,0.27 -1.573,0.859z"/>
      </g>
     </g>
    </g>
   </g>
   <g>
    <g>
     <g>
      <path class="fil3" d="M584.91 128.16l-3.026 4.671 -4.691 3.376c-1.83,8.62 -1.638,17.045 0.577,25.273 3.381,-3.01 5.394,-8.458 6.037,-16.344 3.478,-11.644 16.9,-21.04 40.264,-28.187 -16.922,3.117 -29.976,6.854 -39.161,11.211z"/>
      <path class="fil5" d="M601.347 143.852c5.522,1.748 11.417,2.622 17.686,2.622l0.784 8.124c3.272,-8.916 4.424,-15.221 3.455,-18.914 -1.33,-5.137 -1.064,-11.382 0.799,-18.735 -23.365,7.147 -36.786,16.543 -40.264,28.187 4.885,-3.138 10.732,-3.565 17.54,-1.284z"/>
     </g>
    </g>
   </g>
  </g>
  <g>
   <g>
    <g>
     <g>
      <path class="fil0" d="M679.696 173.646c2.799,-0.034 5.174,-0.714 7.125,-2.038 1.157,-0.781 1.962,-1.658 2.417,-2.63l-19.198 0.238c0.479,0.961 1.306,1.817 2.482,2.569 1.983,1.276 4.374,1.896 7.174,1.861z"/>
      <path class="fil1" d="M698.624 143.66c-0.47,-2.961 -2.188,-4.423 -5.155,-4.386l-30.346 0.377c-2.933,0.036 -4.614,1.574 -5.043,4.613 -0.915,6.878 -0.83,13.744 0.255,20.597 0.504,2.994 2.223,4.473 5.156,4.437l6.549 -0.082 19.198 -0.238 4.6 -0.058c2.966,-0.036 4.664,-1.574 5.093,-4.613 0.949,-6.745 0.847,-13.628 -0.307,-20.647z"/>
     </g>
    </g>
   </g>
   <g>
    <g>
     <g>
      <g>
       <path class="fil2" d="M676.016 155.191c-0.013,-1.033 -0.39,-1.928 -1.133,-2.686 -0.676,-0.725 -1.53,-1.081 -2.564,-1.068 -1.033,0.013 -1.911,0.391 -2.636,1.133 -0.657,0.775 -0.979,1.679 -0.966,2.712 0.013,1.033 0.357,1.912 1.033,2.637 0.743,0.758 1.63,1.13 2.664,1.117 1.033,-0.013 1.878,-0.406 2.535,-1.181 0.724,-0.743 1.08,-1.63 1.067,-2.664l0 0zm17.465 -2.917c-0.676,-0.725 -1.53,-1.081 -2.564,-1.068 -1.033,0.013 -1.911,0.391 -2.636,1.133 -0.657,0.775 -0.979,1.679 -0.966,2.712 0.013,1.033 0.357,1.912 1.033,2.637 0.743,0.758 1.631,1.13 2.664,1.117 1.033,-0.013 1.878,-0.406 2.535,-1.181 0.725,-0.742 1.08,-1.631 1.067,-2.664 -0.012,-1.033 -0.39,-1.928 -1.133,-2.686z"/>
      </g>
      <g>
       <path class="fil3" d="M675.741 149.144c0.136,0.199 0.354,0.313 0.655,0.342 0.266,0.03 0.515,-0.04 0.747,-0.209 0.198,-0.169 0.328,-0.387 0.392,-0.655 -0.004,-0.267 -0.09,-0.515 -0.26,-0.747 -0.982,-1.287 -2.291,-2.005 -3.927,-2.151 -1.101,-0.12 -2.133,0.026 -3.094,0.438 -0.232,0.103 -0.413,0.289 -0.543,0.557 -0.13,0.268 -0.111,0.518 0.059,0.75 0.07,0.232 0.255,0.413 0.557,0.543 0.202,0.131 0.451,0.111 0.749,-0.06 0.631,-0.241 1.313,-0.316 2.047,-0.225 1.102,0.12 1.975,0.592 2.618,1.417l0 0zm16.826 -2.009c-0.938,-0.388 -1.973,-0.508 -3.105,-0.361 -1.664,0.187 -2.938,0.937 -3.822,2.248 -0.197,0.235 -0.278,0.469 -0.241,0.703 0.036,0.266 0.172,0.481 0.408,0.644 0.202,0.164 0.453,0.245 0.753,0.241 0.266,-0.036 0.481,-0.173 0.645,-0.408 0.59,-0.807 1.434,-1.284 2.532,-1.431 0.732,-0.11 1.416,-0.051 2.053,0.174 0.302,0.163 0.568,0.16 0.799,-0.01 0.266,-0.103 0.447,-0.272 0.544,-0.507 0.131,-0.234 0.127,-0.485 -0.009,-0.75 -0.137,-0.265 -0.323,-0.446 -0.557,-0.543z"/>
      </g>
      <path class="fil4" d="M686.966 163.206c0.265,-0.104 0.464,-0.273 0.594,-0.508 0.097,-0.234 0.111,-0.484 0.041,-0.75 -0.103,-0.266 -0.272,-0.447 -0.507,-0.544 -0.235,-0.13 -0.485,-0.16 -0.751,-0.091 -3.552,1.178 -6.655,0.933 -9.31,-0.734 -0.235,-0.164 -0.486,-0.211 -0.752,-0.141 -0.266,0.037 -0.464,0.173 -0.594,0.408 -0.164,0.235 -0.211,0.486 -0.141,0.751 0.037,0.267 0.172,0.482 0.408,0.645 3.125,2.029 6.796,2.349 11.012,0.964z"/>
     </g>
    </g>
   </g>
   <g>
    <g>
     <g>
      <g>
       <path class="fil4" d="M673.156 158.377c0.6,-0.007 1.096,-0.33 1.488,-0.969 0.426,-0.605 0.633,-1.341 0.622,-2.207 -0.01,-0.867 -0.236,-1.614 -0.677,-2.242 -0.408,-0.595 -0.912,-0.889 -1.512,-0.881 -0.599,0.007 -1.113,0.313 -1.538,0.919 -0.392,0.638 -0.583,1.39 -0.572,2.257 0.011,0.867 0.22,1.597 0.627,2.192 0.441,0.628 0.962,0.938 1.562,0.931l0 0zm15.231 -5.589c-0.392,0.638 -0.583,1.39 -0.572,2.257 0.011,0.866 0.22,1.597 0.627,2.192 0.441,0.628 0.962,0.938 1.562,0.931 0.6,-0.008 1.096,-0.331 1.488,-0.969 0.426,-0.605 0.633,-1.341 0.623,-2.208 -0.011,-0.866 -0.237,-1.613 -0.678,-2.241 -0.408,-0.595 -0.911,-0.889 -1.511,-0.882 -0.6,0.008 -1.113,0.314 -1.539,0.92z"/>
      </g>
     </g>
    </g>
   </g>
   <g>
    <g>
     <g>
      <path class="fil3" d="M663.637 128.744l-2.841 4.785 -4.556 3.557c-1.492,8.686 -0.971,17.096 1.564,25.232 3.261,-3.141 5.059,-8.663 5.394,-16.568 3.021,-11.771 16.065,-21.684 39.133,-29.737 -16.787,3.775 -29.685,8.019 -38.694,12.731z"/>
      <path class="fil5" d="M680.675 143.783c5.586,1.531 11.511,2.174 17.774,1.929l1.101 8.087c2.921,-9.037 3.826,-15.382 2.714,-19.035 -1.53,-5.081 -1.508,-11.332 0.067,-18.751 -23.068,8.053 -36.112,17.966 -39.133,29.737 4.759,-3.326 10.585,-3.982 17.477,-1.967z"/>
     </g>
    </g>
   </g>
  </g>
  <g>
   <g>
    <g>
     <g>
      <path class="fil0" d="M440.103 290.555c2.799,0.075 5.198,-0.511 7.199,-1.758 1.187,-0.736 2.026,-1.581 2.518,-2.534l-19.192 -0.512c0.44,0.979 1.234,1.867 2.379,2.665 1.932,1.352 4.297,2.065 7.096,2.139z"/>
      <path class="fil1" d="M460.187 261.33c-0.354,-2.977 -2.013,-4.504 -4.979,-4.583l-30.338 -0.808c-2.933,-0.079 -4.672,1.392 -5.22,4.412 -1.182,6.837 -1.365,13.701 -0.548,20.592 0.386,3.011 2.046,4.556 4.978,4.634l6.548 0.174 19.192 0.512 4.598 0.122c2.966,0.079 4.723,-1.391 5.27,-4.411 1.212,-6.703 1.379,-13.584 0.499,-20.644z"/>
     </g>
    </g>
   </g>
   <g>
    <g>
     <g>
      <g>
       <path class="fil2" d="M437.147 271.971c0.027,-1.033 -0.315,-1.943 -1.028,-2.729 -0.647,-0.751 -1.487,-1.14 -2.52,-1.167 -1.033,-0.028 -1.925,0.315 -2.678,1.029 -0.687,0.749 -1.044,1.639 -1.071,2.672 -0.028,1.033 0.281,1.925 0.929,2.676 0.712,0.786 1.585,1.192 2.618,1.22 1.033,0.027 1.893,-0.333 2.58,-1.082 0.752,-0.713 1.142,-1.587 1.17,-2.619l0 0zm17.565 -2.233c-0.647,-0.751 -1.487,-1.14 -2.52,-1.168 -1.033,-0.027 -1.925,0.316 -2.678,1.029 -0.687,0.749 -1.044,1.639 -1.071,2.672 -0.028,1.033 0.282,1.925 0.929,2.676 0.712,0.786 1.585,1.193 2.618,1.22 1.033,0.028 1.893,-0.333 2.58,-1.081 0.752,-0.714 1.142,-1.587 1.17,-2.62 0.027,-1.033 -0.316,-1.943 -1.028,-2.728z"/>
      </g>
      <g>
       <path class="fil3" d="M437.108 265.918c0.128,0.203 0.341,0.325 0.64,0.367 0.266,0.04 0.518,-0.02 0.756,-0.18 0.204,-0.162 0.343,-0.374 0.416,-0.639 0.008,-0.267 -0.069,-0.519 -0.229,-0.757 -0.932,-1.325 -2.212,-2.093 -3.84,-2.303 -1.096,-0.162 -2.133,-0.057 -3.11,0.318 -0.236,0.093 -0.424,0.272 -0.564,0.535 -0.141,0.263 -0.131,0.513 0.03,0.751 0.06,0.235 0.239,0.423 0.535,0.564 0.196,0.139 0.447,0.129 0.751,-0.03 0.639,-0.216 1.324,-0.265 2.054,-0.145 1.097,0.163 1.95,0.669 2.561,1.519l0 0zm16.891 -1.351c-0.922,-0.425 -1.951,-0.586 -3.088,-0.482 -1.67,0.122 -2.973,0.82 -3.907,2.096 -0.206,0.228 -0.295,0.459 -0.268,0.693 0.026,0.268 0.153,0.488 0.382,0.661 0.196,0.171 0.443,0.261 0.743,0.269 0.267,-0.026 0.488,-0.153 0.661,-0.382 0.621,-0.784 1.483,-1.228 2.586,-1.332 0.736,-0.08 1.417,0.005 2.044,0.255 0.295,0.174 0.562,0.182 0.8,0.021 0.269,-0.093 0.457,-0.254 0.563,-0.485 0.139,-0.23 0.146,-0.48 0.019,-0.75 -0.126,-0.27 -0.304,-0.458 -0.535,-0.564z"/>
      </g>
      <path class="fil4" d="M447.775 280.406c0.27,-0.093 0.474,-0.254 0.614,-0.483 0.106,-0.231 0.129,-0.481 0.069,-0.749 -0.092,-0.269 -0.254,-0.457 -0.484,-0.563 -0.23,-0.139 -0.479,-0.179 -0.748,-0.12 -3.595,1.038 -6.686,0.672 -9.274,-1.097 -0.228,-0.173 -0.477,-0.23 -0.745,-0.17 -0.267,0.026 -0.471,0.154 -0.611,0.384 -0.172,0.228 -0.229,0.477 -0.169,0.745 0.026,0.268 0.153,0.488 0.382,0.661 3.044,2.148 6.699,2.613 10.966,1.392z"/>
     </g>
    </g>
   </g>
   <g>
    <g>
     <g>
      <g>
       <path class="fil4" d="M434.164 275.042c0.6,0.016 1.108,-0.287 1.525,-0.91 0.449,-0.588 0.685,-1.315 0.708,-2.181 0.023,-0.867 -0.174,-1.622 -0.59,-2.267 -0.384,-0.61 -0.876,-0.923 -1.475,-0.939 -0.6,-0.017 -1.124,0.27 -1.574,0.858 -0.416,0.623 -0.636,1.367 -0.659,2.233 -0.023,0.866 0.157,1.605 0.541,2.215 0.416,0.645 0.924,0.975 1.524,0.991l0 0zm15.438 -4.99c-0.417,0.622 -0.637,1.366 -0.66,2.233 -0.023,0.866 0.157,1.604 0.541,2.215 0.417,0.645 0.925,0.975 1.524,0.991 0.6,0.016 1.108,-0.287 1.525,-0.91 0.449,-0.588 0.686,-1.316 0.709,-2.182 0.023,-0.866 -0.174,-1.622 -0.59,-2.266 -0.384,-0.61 -0.876,-0.924 -1.476,-0.94 -0.6,-0.016 -1.124,0.27 -1.573,0.859z"/>
      </g>
     </g>
    </g>
   </g>
   <g>
    <g>
     <g>
      <path class="fil3" d="M425.81 245.06l-3.026 4.671 -4.691 3.376c-1.831,8.621 -1.638,17.045 0.577,25.274 3.381,-3.011 5.394,-8.459 6.037,-16.345 3.478,-11.645 16.899,-21.04 40.264,-28.187 -16.922,3.117 -29.976,6.854 -39.161,11.211z"/>
      <path class="fil5" d="M442.247 260.753c5.522,1.747 11.417,2.621 17.686,2.621l0.784 8.124c3.272,-8.916 4.424,-15.22 3.455,-18.914 -1.331,-5.137 -1.064,-11.382 0.799,-18.735 -23.365,7.147 -36.786,16.542 -40.264,28.187 4.885,-3.138 10.732,-3.565 17.54,-1.283z"/>
     </g>
    </g>
   </g>
  </g>
  <g>
   <g>
    <g>
     <g>
      <path class="fil0" d="M203.936 281.984c2.775,-0.375 5.049,-1.338 6.825,-2.889 1.053,-0.916 1.746,-1.885 2.08,-2.905l-19.027 2.569c0.592,0.896 1.517,1.646 2.776,2.249 2.123,1.025 4.571,1.35 7.346,0.976z"/>
      <path class="fil1" d="M219.081 249.92c-0.827,-2.882 -2.71,-4.125 -5.65,-3.728l-30.076 4.062c-2.907,0.392 -4.388,2.123 -4.445,5.191 -0.072,6.939 0.847,13.743 2.757,20.414 0.864,2.911 2.749,4.17 5.656,3.777l6.491 -0.877 19.027 -2.569 4.558 -0.615c2.94,-0.398 4.438,-2.13 4.495,-5.199 0.122,-6.81 -0.815,-13.629 -2.813,-20.456z"/>
     </g>
    </g>
   </g>
   <g>
    <g>
     <g>
      <g>
       <path class="fil2" d="M198.041 264.113c-0.138,-1.024 -0.622,-1.867 -1.451,-2.529 -0.758,-0.638 -1.65,-0.887 -2.674,-0.749 -1.024,0.139 -1.85,0.62 -2.479,1.445 -0.558,0.849 -0.768,1.785 -0.63,2.809 0.139,1.024 0.587,1.855 1.346,2.493 0.829,0.661 1.756,0.923 2.78,0.784 1.024,-0.138 1.815,-0.631 2.373,-1.48 0.628,-0.825 0.874,-1.75 0.735,-2.773l0 0zm16.981 -5.018c-0.759,-0.637 -1.65,-0.887 -2.674,-0.749 -1.024,0.138 -1.85,0.62 -2.479,1.445 -0.558,0.849 -0.768,1.785 -0.63,2.809 0.139,1.024 0.587,1.855 1.346,2.493 0.829,0.661 1.756,0.923 2.78,0.785 1.024,-0.139 1.815,-0.632 2.373,-1.481 0.628,-0.825 0.874,-1.749 0.735,-2.774 -0.138,-1.024 -0.622,-1.866 -1.451,-2.528z"/>
      </g>
      <g>
       <path class="fil3" d="M197.034 258.144c0.159,0.18 0.389,0.267 0.691,0.26 0.268,-0.003 0.507,-0.103 0.716,-0.299 0.176,-0.192 0.279,-0.424 0.309,-0.697 -0.035,-0.265 -0.151,-0.502 -0.348,-0.71 -1.132,-1.159 -2.518,-1.712 -4.159,-1.659 -1.107,0.016 -2.114,0.286 -3.018,0.812 -0.218,0.13 -0.375,0.336 -0.472,0.618 -0.096,0.283 -0.046,0.528 0.15,0.737 0.098,0.222 0.304,0.379 0.619,0.471 0.216,0.106 0.462,0.056 0.736,-0.15 0.597,-0.316 1.265,-0.473 2.005,-0.472 1.108,-0.015 2.032,0.348 2.771,1.089l0 0zm16.457 -4.039c-0.979,-0.271 -2.021,-0.265 -3.126,0.019 -1.629,0.388 -2.803,1.287 -3.521,2.695 -0.167,0.258 -0.218,0.501 -0.154,0.727 0.069,0.26 0.23,0.457 0.484,0.591 0.22,0.138 0.479,0.187 0.776,0.147 0.26,-0.069 0.457,-0.23 0.591,-0.483 0.488,-0.873 1.267,-1.449 2.339,-1.729 0.714,-0.197 1.4,-0.222 2.059,-0.076 0.319,0.125 0.584,0.09 0.792,-0.107 0.251,-0.135 0.411,-0.325 0.478,-0.569 0.101,-0.249 0.068,-0.497 -0.1,-0.743 -0.167,-0.247 -0.374,-0.404 -0.618,-0.472z"/>
      </g>
      <path class="fil4" d="M209.884 270.737c0.251,-0.135 0.427,-0.327 0.528,-0.576 0.068,-0.244 0.051,-0.494 -0.051,-0.75 -0.135,-0.251 -0.324,-0.41 -0.569,-0.478 -0.249,-0.101 -0.501,-0.1 -0.757,0.001 -3.382,1.601 -6.493,1.735 -9.329,0.403 -0.254,-0.134 -0.508,-0.15 -0.764,-0.049 -0.26,0.069 -0.44,0.228 -0.541,0.477 -0.134,0.253 -0.15,0.508 -0.048,0.763 0.069,0.26 0.23,0.457 0.483,0.591 3.349,1.633 7.031,1.506 11.048,-0.382z"/>
     </g>
    </g>
   </g>
   <g>
    <g>
     <g>
      <g>
       <path class="fil4" d="M195.589 267.622c0.595,-0.08 1.048,-0.461 1.36,-1.142 0.349,-0.653 0.465,-1.408 0.349,-2.267 -0.116,-0.859 -0.431,-1.573 -0.945,-2.143 -0.477,-0.541 -1.012,-0.771 -1.607,-0.691 -0.594,0.08 -1.066,0.447 -1.415,1.099 -0.312,0.681 -0.41,1.451 -0.294,2.31 0.116,0.859 0.412,1.559 0.889,2.1 0.514,0.57 1.069,0.814 1.663,0.734l0 0zm14.44 -7.399c-0.312,0.681 -0.41,1.452 -0.294,2.31 0.116,0.859 0.412,1.559 0.889,2.1 0.514,0.57 1.068,0.814 1.663,0.734 0.595,-0.08 1.048,-0.461 1.359,-1.142 0.35,-0.653 0.466,-1.408 0.35,-2.267 -0.116,-0.859 -0.431,-1.573 -0.945,-2.143 -0.477,-0.541 -1.012,-0.771 -1.607,-0.691 -0.595,0.08 -1.067,0.447 -1.415,1.099z"/>
      </g>
     </g>
    </g>
   </g>
   <g>
    <g>
     <g>
      <path class="fil3" d="M182.541 239.365l-2.238 5.095 -4.091 4.084c-0.425,8.803 1.114,17.088 4.618,24.855 2.856,-3.514 3.969,-9.214 3.342,-17.1 1.567,-12.051 13.31,-23.475 35.229,-34.272 -16.204,5.787 -28.491,11.567 -36.86,17.338z"/>
      <path class="fil5" d="M201.279 252.223c5.731,0.84 11.69,0.759 17.878,-0.245l2.074 7.893c1.802,-9.325 1.929,-15.733 0.381,-19.223 -2.135,-4.858 -2.873,-11.065 -2.211,-18.621 -21.919,10.797 -33.662,22.221 -35.229,34.272 4.319,-3.88 10.021,-5.238 17.107,-4.076z"/>
     </g>
    </g>
   </g>
  </g>
  <g>
   <g>
    <g>
     <g>
      <path class="fil0" d="M112.56 298.506c2.76,-0.471 5,-1.513 6.72,-3.125 1.021,-0.952 1.68,-1.944 1.978,-2.975l-18.926 3.23c0.622,0.874 1.573,1.591 2.852,2.151 2.158,0.95 4.616,1.19 7.376,0.719z"/>
      <path class="fil1" d="M126.579 265.934c-0.926,-2.851 -2.852,-4.027 -5.776,-3.528l-29.916 5.106c-2.891,0.493 -4.312,2.274 -4.261,5.343 0.169,6.937 1.324,13.705 3.466,20.305 0.964,2.879 2.892,4.071 5.784,3.578l6.456 -1.102 18.926 -3.23 4.534 -0.774c2.924,-0.499 4.361,-2.283 4.31,-5.351 -0.114,-6.811 -1.288,-13.593 -3.523,-20.347z"/>
     </g>
    </g>
   </g>
   <g>
    <g>
     <g>
      <g>
       <path class="fil2" d="M106.047 280.851c-0.174,-1.019 -0.687,-1.844 -1.538,-2.476 -0.781,-0.611 -1.68,-0.83 -2.699,-0.656 -1.019,0.174 -1.828,0.684 -2.427,1.53 -0.528,0.868 -0.705,1.811 -0.532,2.83 0.174,1.018 0.652,1.833 1.432,2.444 0.852,0.632 1.787,0.861 2.806,0.688 1.018,-0.174 1.791,-0.695 2.319,-1.563 0.6,-0.846 0.813,-1.778 0.639,-2.797l0 0zm16.796 -5.606c-0.781,-0.611 -1.68,-0.829 -2.699,-0.655 -1.018,0.174 -1.828,0.684 -2.427,1.53 -0.528,0.868 -0.705,1.811 -0.531,2.83 0.173,1.018 0.651,1.833 1.431,2.444 0.852,0.632 1.787,0.861 2.806,0.687 1.018,-0.174 1.792,-0.694 2.32,-1.562 0.599,-0.847 0.812,-1.779 0.638,-2.798 -0.174,-1.018 -0.686,-1.844 -1.538,-2.476z"/>
      </g>
      <g>
       <path class="fil3" d="M104.832 274.921c0.165,0.174 0.398,0.253 0.7,0.236 0.268,-0.012 0.503,-0.12 0.705,-0.324 0.169,-0.198 0.265,-0.434 0.285,-0.708 -0.045,-0.262 -0.169,-0.495 -0.372,-0.697 -1.172,-1.119 -2.577,-1.623 -4.215,-1.512 -1.107,0.053 -2.102,0.358 -2.988,0.916 -0.213,0.137 -0.363,0.349 -0.45,0.634 -0.086,0.285 -0.028,0.529 0.176,0.731 0.105,0.219 0.316,0.369 0.634,0.449 0.22,0.098 0.464,0.04 0.731,-0.175 0.585,-0.336 1.248,-0.517 1.987,-0.542 1.107,-0.054 2.043,0.277 2.807,0.992l0 0zm16.306 -4.609c-0.987,-0.238 -2.028,-0.195 -3.123,0.127 -1.614,0.445 -2.756,1.383 -3.425,2.816 -0.158,0.264 -0.2,0.508 -0.128,0.732 0.077,0.258 0.246,0.449 0.503,0.574 0.226,0.13 0.486,0.171 0.782,0.12 0.257,-0.078 0.448,-0.245 0.573,-0.504 0.457,-0.889 1.216,-1.492 2.278,-1.808 0.706,-0.222 1.391,-0.272 2.054,-0.148 0.324,0.114 0.587,0.069 0.789,-0.135 0.246,-0.143 0.399,-0.338 0.458,-0.585 0.093,-0.253 0.05,-0.499 -0.126,-0.74 -0.176,-0.24 -0.388,-0.39 -0.635,-0.449z"/>
      </g>
      <path class="fil4" d="M118.113 287.059c0.246,-0.143 0.415,-0.341 0.508,-0.594 0.059,-0.247 0.033,-0.496 -0.078,-0.748 -0.143,-0.246 -0.338,-0.398 -0.585,-0.458 -0.252,-0.092 -0.504,-0.083 -0.756,0.028 -3.325,1.717 -6.428,1.959 -9.31,0.727 -0.258,-0.125 -0.513,-0.133 -0.765,-0.022 -0.257,0.078 -0.432,0.243 -0.524,0.495 -0.125,0.258 -0.132,0.513 -0.021,0.765 0.078,0.257 0.245,0.448 0.503,0.573 3.404,1.516 7.08,1.26 11.028,-0.766z"/>
     </g>
    </g>
   </g>
   <g>
    <g>
     <g>
      <g>
       <path class="fil4" d="M103.719 284.444c0.591,-0.101 1.03,-0.498 1.318,-1.189 0.327,-0.664 0.416,-1.424 0.271,-2.278 -0.146,-0.854 -0.486,-1.557 -1.019,-2.108 -0.496,-0.525 -1.039,-0.736 -1.63,-0.635 -0.592,0.101 -1.051,0.483 -1.377,1.148 -0.288,0.691 -0.359,1.464 -0.213,2.319 0.146,0.854 0.467,1.543 0.962,2.067 0.533,0.551 1.096,0.777 1.688,0.676l0 0zm14.172 -7.897c-0.287,0.691 -0.359,1.464 -0.213,2.319 0.146,0.854 0.467,1.543 0.962,2.067 0.534,0.551 1.096,0.777 1.687,0.676 0.592,-0.101 1.031,-0.497 1.319,-1.189 0.327,-0.664 0.417,-1.424 0.271,-2.278 -0.146,-0.854 -0.486,-1.557 -1.019,-2.108 -0.496,-0.525 -1.039,-0.736 -1.63,-0.635 -0.592,0.101 -1.051,0.483 -1.377,1.148z"/>
      </g>
     </g>
    </g>
   </g>
   <g>
    <g>
     <g>
      <path class="fil3" d="M89.694 256.659l-2.059 5.17 -3.946 4.223c-0.119,8.812 1.708,17.038 5.481,24.679 2.731,-3.611 3.645,-9.346 2.744,-17.206 1.147,-12.099 12.485,-23.924 34.014,-35.478 -15.993,6.348 -28.071,12.552 -36.234,18.612z"/>
      <path class="fil5" d="M108.869 268.855c5.756,0.641 11.709,0.352 17.858,-0.867l2.348 7.817c1.476,-9.382 1.38,-15.791 -0.289,-19.225 -2.303,-4.781 -3.256,-10.958 -2.858,-18.533 -21.529,11.554 -32.867,23.379 -34.014,35.478 4.181,-4.028 9.833,-5.584 16.955,-4.67z"/>
     </g>
    </g>
   </g>
  </g>
  <g>
   <g>
    <g>
     <g>
      <path class="fil0" d="M353.25 289.35c1.967,1.3 4.35,1.95 7.15,1.95 2.8,0 5.184,-0.65 7.15,-1.95 1.167,-0.767 1.983,-1.633 2.45,-2.6l-19.2 0c0.467,0.967 1.283,1.833 2.45,2.6z"/>
      <path class="fil1" d="M379.75 282.2c1.033,-6.733 1.017,-13.617 -0.05,-20.65 -0.433,-2.967 -2.133,-4.45 -5.1,-4.45l-30.35 0c-2.933,0 -4.633,1.517 -5.1,4.55 -1,6.867 -1,13.733 0,20.6 0.467,3 2.167,4.5 5.1,4.5l6.55 0 19.2 0 4.6 0c2.967,0 4.683,-1.517 5.15,-4.55z"/>
     </g>
    </g>
   </g>
   <g>
    <g>
     <g>
      <g>
       <path class="fil5" d="M344.9 246.2l-2.9 4.75c14.5,-1 28.417,-6.667 41.75,-17 -16.833,3.567 -29.783,7.65 -38.85,12.25l0 0zm16.4 38.75c8.2,-0.2 15.017,-4.15 20.45,-11.85 2.1,-3 3.1,-7.483 3,-13.45 -0.033,-2.2 -0.2,-3.75 -0.5,-4.65 -0.067,-0.2 -0.133,-0.383 -0.2,-0.55 -0.48,-1.441 -0.764,-2.341 -0.85,-2.7 0.199,0.946 0.249,1.829 0.15,2.65 -2.3,18.067 -10.117,28.217 -23.45,30.45 -12.767,-2.6 -20.267,-12.733 -22.5,-30.4 -1.6,8.667 -1.067,14.9 1.6,18.7 5.433,7.7 12.25,11.65 20.45,11.85 0.233,0.033 0.583,0.017 1.05,-0.05 0.333,0.033 0.6,0.033 0.8,0z"/>
      </g>
      <path class="fil3" d="M383.35 254.4c0.099,-0.821 0.049,-1.704 -0.15,-2.65l0 -0.1c-1.2,-4.9 -1.017,-10.8 0.55,-17.7 -13.333,10.333 -27.25,16 -41.75,17l-4.6 3.5c2.233,17.667 9.733,27.8 22.5,30.4 13.333,-2.233 21.15,-12.383 23.45,-30.45z"/>
     </g>
    </g>
   </g>
  </g>
  <g>
   <g>
    <g>
     <g>
      <path class="fil0" d="M431.716 64.901c2.067,1.133 4.496,1.584 7.286,1.353 2.791,-0.231 5.112,-1.076 6.965,-2.534 1.099,-0.86 1.841,-1.792 2.226,-2.794l-19.134 1.586c0.545,0.925 1.431,1.722 2.657,2.389z"/>
      <path class="fil1" d="M457.534 55.587c0.474,-6.796 -0.111,-13.654 -1.755,-20.575 -0.677,-2.921 -2.494,-4.259 -5.45,-4.014l-30.246 2.507c-2.923,0.242 -4.492,1.894 -4.707,4.956 -0.429,6.926 0.138,13.769 1.702,20.529 0.713,2.951 2.531,4.306 5.454,4.064l6.527 -0.542 19.134 -1.586 4.585 -0.379c2.956,-0.245 4.542,-1.898 4.756,-4.96z"/>
     </g>
    </g>
   </g>
   <g>
    <g>
     <g>
      <g>
       <path class="fil5" d="M419.83 22.589l-2.498 4.973c14.368,-2.194 27.769,-8.991 40.203,-20.39 -16.481,4.945 -29.049,10.084 -37.705,15.417l0 0zm19.545 37.262c8.155,-0.876 14.622,-5.376 19.401,-13.498 1.845,-3.163 2.471,-7.714 1.879,-13.652 -0.215,-2.19 -0.51,-3.72 -0.883,-4.593 -0.083,-0.193 -0.164,-0.37 -0.244,-0.531 -0.598,-1.396 -0.955,-2.27 -1.071,-2.621 0.276,0.926 0.399,1.803 0.369,2.629 -0.8,18.195 -7.752,28.955 -20.855,32.282 -12.937,-1.536 -21.249,-11.015 -24.934,-28.437 -0.878,8.769 0.168,14.937 3.14,18.504 6.05,7.225 13.17,10.598 21.358,10.12 0.235,0.014 0.583,-0.032 1.043,-0.137 0.334,0.006 0.6,-0.016 0.797,-0.066z"/>
      </g>
      <path class="fil3" d="M458.826 27.585c0.03,-0.827 -0.093,-1.703 -0.369,-2.629l-0.008 -0.099c-1.6,-4.784 -1.905,-10.679 -0.914,-17.685 -12.434,11.399 -25.835,18.196 -40.203,20.39l-4.295 3.868c3.685,17.422 11.997,26.901 24.934,28.437 13.103,-3.327 20.055,-14.087 20.855,-32.282z"/>
     </g>
    </g>
   </g>
  </g>
 </g>
</svg>
