<?xml version="1.0" encoding="UTF-8"?>
<!DOCTYPE svg PUBLIC "-//W3C//DTD SVG 1.1//EN" "http://www.w3.org/Graphics/SVG/1.1/DTD/svg11.dtd">
<!-- Creator: CorelDRAW 2018 (64-Bit) -->
<svg xmlns="http://www.w3.org/2000/svg" xml:space="preserve" width="720px" height="330px" version="1.1" style="shape-rendering:geometricPrecision; text-rendering:geometricPrecision; image-rendering:optimizeQuality; fill-rule:evenodd; clip-rule:evenodd"
viewBox="0 0 720 330"
 xmlns:xlink="http://www.w3.org/1999/xlink">
 <defs>
  <style type="text/css">
   <![CDATA[
    .fil0 {fill:#25A65B}
    .fil5 {fill:#28B162}
    .fil1 {fill:#2ECC71}
    .fil8 {fill:#6B747B}
    .fil6 {fill:#717B83}
    .fil9 {fill:#79838C}
    .fil3 {fill:#7E8991}
    .fil4 {fill:#7F7058}
    .fil2 {fill:white}
    .fil7 {fill:black;fill-opacity:0.101961}
   ]]>
  </style>
 </defs>
 <g id="Слой_x0020_1">
  <metadata id="CorelCorpID_0Corel-Layer"/>
  <g id="head">
   <g>
    <g>
     <g>
      <polygon class="fil0" points="21.6,286.7 31.2,291.25 40.8,286.7 "/>
      <path class="fil1" d="M50.5 261.5c-0.434,-2.966 -2.134,-4.45 -5.1,-4.45l-30.35 0c-2.934,0 -4.634,1.517 -5.1,4.55 -1,6.867 -1,13.734 0,20.6 0.466,3 2.166,4.5 5.1,4.5l6.55 0 19.2 0 4.6 0c2.966,0 4.683,-1.517 5.15,-4.55 1.033,-6.733 1.016,-13.617 -0.05,-20.65z"/>
     </g>
    </g>
   </g>
   <g>
    <g>
     <g>
      <g>
       <path class="fil2" d="M24.1 276.55c1.033,0 1.883,-0.383 2.549,-1.15 0.613,-0.612 0.963,-1.329 1.051,-2.15l-7.25 0c0.11,0.821 0.443,1.538 1,2.15 0.733,0.767 1.616,1.15 2.65,1.15l0 0zm18.6 0c1.033,0 1.883,-0.383 2.55,-1.15 0.612,-0.612 0.962,-1.329 1.05,-2.15l-7.25 0c0.11,0.821 0.443,1.538 1,2.15 0.733,0.767 1.616,1.15 2.65,1.15z"/>
      </g>
      <g>
       <path class="fil3" d="M28.85 268.5c-0.034,-0.3 -0.151,-0.533 -0.35,-0.7 -0.2,-0.2 -0.434,-0.283 -0.7,-0.25 -2.634,0.233 -5.117,0.1 -7.45,-0.4 -0.3,-0.066 -0.567,-0.033 -0.8,0.1 -0.234,0.133 -0.367,0.35 -0.4,0.65 -0.067,0.267 -0.034,0.517 0.1,0.75 0.133,0.233 0.35,0.383 0.65,0.45 2.5,0.533 5.183,0.683 8.05,0.45 0.266,-0.033 0.5,-0.15 0.7,-0.35 0.166,-0.2 0.233,-0.433 0.2,-0.7l0 0zm18.05 -1.2c-0.234,-0.133 -0.5,-0.166 -0.8,-0.1 -2.334,0.5 -4.817,0.633 -7.451,0.4 -0.266,-0.033 -0.499,0.05 -0.699,0.25 -0.2,0.167 -0.317,0.4 -0.35,0.7 -0.034,0.267 0.033,0.5 0.2,0.7 0.2,0.2 0.433,0.317 0.7,0.35 2.866,0.233 5.55,0.084 8.05,-0.45 0.3,-0.067 0.517,-0.217 0.65,-0.45 0.133,-0.233 0.166,-0.483 0.1,-0.75 -0.034,-0.3 -0.167,-0.516 -0.4,-0.65z"/>
      </g>
     </g>
    </g>
   </g>
   <g>
    <g id="_830822288">
     <g>
      <path class="fil4" d="M39 279.25c0.066,-0.267 0.05,-0.533 -0.05,-0.8l-2.85 2 2.15 2.55 0 -0.05c0.2,-0.2 0.316,-0.45 0.35,-0.75l0.4 -2.95z"/>
      <path class="fil2" d="M27.15 278.85c-0.267,0.267 -0.4,0.584 -0.4,0.95 -0.034,0.367 0.05,0.7 0.25,1 0.233,0.3 0.533,0.5 0.9,0.6l8.85 2.05c0.266,0.067 0.533,0.067 0.8,0 0.266,-0.1 0.5,-0.25 0.7,-0.45l-2.15 -2.55 2.85 -2c-0.034,-0.033 -0.05,-0.067 -0.05,-0.1 -0.134,-0.3 -0.35,-0.517 -0.65,-0.65 -0.267,-0.167 -0.55,-0.233 -0.85,-0.2l-9.3 0.9c-0.4,0.034 -0.717,0.184 -0.95,0.45z"/>
     </g>
    </g>
   </g>
   <g>
    <g id="_830821328">
     <g>
      <path class="fil5" d="M15.807 276.246c-0.019,0.111 -0.01,0.212 0.027,0.304l1.823 3.839c0.019,0.037 0.037,0.074 0.055,0.11l2.597 2.928c0.073,0.092 0.165,0.138 0.276,0.138 0.11,0.019 0.211,0 0.304,-0.055l0.552 -0.414c0.074,-0.056 0.129,-0.129 0.166,-0.221 0.018,-0.111 0.009,-0.212 -0.028,-0.304l-1.657 -3.729c-0.019,-0.018 -0.037,-0.046 -0.055,-0.083l-2.707 -3.093c-0.055,-0.074 -0.138,-0.12 -0.248,-0.138 -0.111,-0.018 -0.213,0 -0.304,0.055l-0.636 0.442c-0.073,0.055 -0.129,0.129 -0.165,0.221z"/>
     </g>
    </g>
   </g>
   <g>
    <g id="_830819536">
     <g>
      <g>
       <path class="fil6" d="M19.099 261.15l2.451 -4.1 -5.5 5.6 1.4 1.25 1.649 -2.75 0 0zm29.101 2.4l0 0 -8.1 1.45 0.6 1.3 7.5 -2.75 0 0zm2.75 11.3l0.35 1.45c5.376,-8.117 7.21,-17.2 5.5,-27.25l-5.35 0c2.491,8.608 2.324,17.209 -0.5,25.8l0 0zm-26.9 -27.45l2.9 2.9c5.764,-3.447 12.08,-5.797 18.95,-7.05 -5.844,-0.885 -11.51,-0.535 -17,1.05l2.85 -3.9c-6.148,-1.08 -11.115,0.354 -14.9,4.3l-3.65 3.7 -2.9 -1.25 -4.751 11.1c0.572,1.492 0.988,2.925 1.251,4.3l17.25 -15.15z"/>
      </g>
      <polygon class="fil7" points="33.45,264 31.75,259.3 21.55,257.05 19.099,261.15 "/>
      <path class="fil8" d="M51.45 249.05l-2.5 0 1.85 -4.75c-1.647,-0.439 -3.28,-0.789 -4.9,-1.05 -6.87,1.253 -13.186,3.603 -18.95,7.05l-2.9 -2.9 -17.25 15.15c0.627,2.964 0.577,5.664 -0.15,8.1 -1.026,3.579 0.191,6.796 3.65,9.65l4.75 -8 -2.1 -6.5 3.1 -3.15 5.5 -5.6 10.2 2.25 1.7 4.7 0.75 2.05 5.9 -1.05 8.1 -1.45 0 0 2.75 11.3c2.824,-8.591 2.991,-17.191 0.5,-25.8z"/>
     </g>
    </g>
   </g>
  </g>
  <g id="head_FL">
   <g>
    <g>
     <g id="_830818064">
      <polygon class="fil0" points="31.099,66.7 40.7,71.25 50.3,66.7 "/>
      <path class="fil1" d="M60 41.5c-0.434,-2.967 -2.133,-4.45 -5.1,-4.45l-30.35 0c-2.934,0 -4.634,1.516 -5.101,4.55 -1,6.866 -0.999,13.733 0,20.6 0.467,3 2.167,4.5 5.101,4.5l6.549 0 19.201 0 4.6 0c2.966,0 4.683,-1.517 5.15,-4.55 1.033,-6.733 1.016,-13.617 -0.05,-20.65z"/>
     </g>
    </g>
   </g>
   <g>
    <g>
     <g id="_830816720">
      <g>
       <path class="fil2" d="M33.6 56.55c1.033,0 1.883,-0.384 2.55,-1.15 0.612,-0.612 0.962,-1.329 1.05,-2.15l-7.25 0c0.11,0.821 0.443,1.538 1,2.15 0.733,0.766 1.616,1.15 2.65,1.15l0 0zm18.6 0c1.033,0 1.883,-0.384 2.55,-1.15 0.612,-0.612 0.962,-1.329 1.05,-2.15l-7.25 0c0.11,0.821 0.443,1.538 1,2.15 0.733,0.766 1.616,1.15 2.65,1.15z"/>
      </g>
      <g>
       <path class="fil3" d="M38.35 48.5c-0.033,-0.3 -0.15,-0.534 -0.35,-0.7 -0.2,-0.2 -0.434,-0.283 -0.7,-0.25 -2.634,0.233 -5.117,0.1 -7.45,-0.4 -0.3,-0.067 -0.567,-0.034 -0.801,0.1 -0.233,0.133 -0.366,0.35 -0.399,0.65 -0.067,0.267 -0.034,0.517 0.1,0.75 0.133,0.233 0.35,0.383 0.65,0.45 2.5,0.533 5.183,0.683 8.049,0.45 0.267,-0.033 0.501,-0.15 0.701,-0.35 0.167,-0.2 0.233,-0.433 0.2,-0.7l0 0zm18.05 -1.2c-0.234,-0.133 -0.5,-0.167 -0.8,-0.1 -2.334,0.5 -4.817,0.633 -7.45,0.4 -0.267,-0.033 -0.5,0.05 -0.7,0.25 -0.2,0.167 -0.317,0.4 -0.35,0.7 -0.033,0.266 0.033,0.5 0.2,0.7 0.2,0.2 0.433,0.317 0.7,0.35 2.866,0.233 5.55,0.083 8.05,-0.45 0.3,-0.067 0.516,-0.217 0.65,-0.45 0.133,-0.234 0.166,-0.483 0.1,-0.75 -0.034,-0.3 -0.167,-0.517 -0.4,-0.65z"/>
      </g>
     </g>
    </g>
   </g>
   <g>
    <g>
     <g>
      <path class="fil4" d="M48.5 59.25c0.066,-0.267 0.05,-0.533 -0.05,-0.8l-2.85 2 2.15 2.55 0 -0.05c0.2,-0.2 0.316,-0.45 0.35,-0.75l0.4 -2.95z"/>
      <path class="fil2" d="M36.65 58.85c-0.267,0.266 -0.401,0.583 -0.401,0.95 -0.033,0.366 0.051,0.7 0.251,1 0.233,0.3 0.533,0.5 0.9,0.6l8.85 2.05c0.266,0.067 0.533,0.067 0.799,0 0.267,-0.1 0.501,-0.25 0.701,-0.45l-2.15 -2.55 2.85 -2c-0.033,-0.034 -0.05,-0.067 -0.05,-0.1 -0.134,-0.3 -0.35,-0.517 -0.65,-0.65 -0.267,-0.167 -0.55,-0.233 -0.85,-0.2l-9.3 0.9c-0.4,0.033 -0.717,0.183 -0.95,0.45z"/>
     </g>
    </g>
   </g>
   <g>
    <g>
     <g>
      <path class="fil5" d="M25.307 56.246c-0.019,0.11 -0.009,0.212 0.027,0.304l1.823 3.839c0.019,0.037 0.037,0.073 0.055,0.11l2.596 2.928c0.074,0.092 0.166,0.138 0.277,0.138 0.11,0.018 0.211,0 0.304,-0.055l0.552 -0.415c0.073,-0.055 0.129,-0.128 0.166,-0.221 0.018,-0.11 0.009,-0.211 -0.028,-0.303l-1.657 -3.729c-0.019,-0.019 -0.037,-0.046 -0.055,-0.083l-2.707 -3.093c-0.055,-0.074 -0.138,-0.12 -0.249,-0.138 -0.11,-0.019 -0.211,0 -0.304,0.055l-0.635 0.442c-0.074,0.055 -0.129,0.129 -0.165,0.221z"/>
     </g>
    </g>
   </g>
   <g>
    <g>
     <g>
      <g>
       <path class="fil6" d="M28.6 41.15l2.45 -4.1 -5.5 5.6 1.4 1.25 1.65 -2.75 0 0zm29.1 2.4l0 0 -8.1 1.45 0.6 1.3 7.5 -2.75 0 0zm2.75 11.3l0.35 1.45c5.377,-8.117 7.21,-17.2 5.5,-27.25l-5.35 0c2.491,8.608 2.324,17.208 -0.5,25.8l0 0zm-26.9 -27.45l2.9 2.9c5.764,-3.447 12.08,-5.797 18.95,-7.05 -5.844,-0.885 -11.511,-0.535 -17,1.05l2.85 -3.9c-6.148,-1.08 -11.115,0.353 -14.9,4.3l-3.651 3.7 -2.899 -1.25 -4.75 11.1c0.571,1.491 0.988,2.925 1.25,4.3l17.25 -15.15z"/>
      </g>
      <polygon class="fil7" points="42.95,44 41.25,39.3 31.05,37.05 28.6,41.15 "/>
      <path class="fil8" d="M60.95 29.05l-2.5 0 1.85 -4.75c-1.647,-0.439 -3.28,-0.789 -4.9,-1.05 -6.87,1.253 -13.186,3.603 -18.95,7.05l-2.9 -2.9 -17.25 15.15c0.627,2.964 0.577,5.664 -0.15,8.1 -1.026,3.579 0.19,6.796 3.65,9.65l4.75 -8 -2.1 -6.5 3.1 -3.15 5.5 -5.6 10.2 2.25 1.7 4.7 0.75 2.05 5.9 -1.05 8.1 -1.45 0 0 2.75 11.3c2.824,-8.592 2.991,-17.192 0.5,-25.8z"/>
     </g>
    </g>
   </g>
  </g>
  <g id="head_FL_FL">
   <g>
    <g>
     <g>
      <polygon class="fil0" points="112.687,61.8 122.204,66.35 131.722,61.8 "/>
      <path class="fil1" d="M141.339 36.6c-0.43,-2.967 -2.115,-4.45 -5.056,-4.45l-30.09 0c-2.908,0 -4.594,1.517 -5.057,4.55 -0.991,6.867 -0.991,13.733 0,20.6 0.463,3 2.149,4.5 5.057,4.5l6.494 0 19.035 0 4.561 0c2.941,0 4.643,-1.517 5.105,-4.55 1.025,-6.734 1.008,-13.617 -0.049,-20.65z"/>
     </g>
    </g>
   </g>
   <g>
    <g>
     <g>
      <g>
       <path class="fil2" d="M115.165 51.65c1.025,0 1.867,-0.383 2.528,-1.15 0.607,-0.612 0.954,-1.329 1.041,-2.15l-7.187 0c0.109,0.821 0.439,1.538 0.991,2.15 0.727,0.767 1.603,1.15 2.627,1.15l0 0zm18.441 0c1.024,0 1.867,-0.383 2.528,-1.15 0.607,-0.612 0.954,-1.329 1.041,-2.15l-7.188 0c0.109,0.821 0.44,1.538 0.992,2.15 0.727,0.767 1.602,1.15 2.627,1.15z"/>
      </g>
      <g>
       <path class="fil3" d="M119.875 43.6c-0.033,-0.3 -0.149,-0.533 -0.347,-0.7 -0.199,-0.2 -0.43,-0.284 -0.694,-0.25 -2.611,0.233 -5.073,0.1 -7.387,-0.4 -0.297,-0.067 -0.561,-0.033 -0.793,0.1 -0.231,0.133 -0.363,0.35 -0.396,0.65 -0.067,0.267 -0.033,0.516 0.099,0.75 0.132,0.233 0.347,0.383 0.644,0.45 2.479,0.533 5.139,0.683 7.981,0.45 0.265,-0.033 0.496,-0.15 0.694,-0.35 0.165,-0.2 0.232,-0.434 0.199,-0.7l0 0zm17.895 -1.2c-0.231,-0.133 -0.496,-0.167 -0.793,-0.1 -2.314,0.5 -4.776,0.633 -7.386,0.4 -0.265,-0.033 -0.496,0.05 -0.694,0.25 -0.199,0.167 -0.314,0.4 -0.348,0.7 -0.032,0.267 0.034,0.5 0.199,0.7 0.198,0.2 0.43,0.317 0.694,0.35 2.842,0.233 5.502,0.083 7.981,-0.45 0.297,-0.067 0.512,-0.217 0.644,-0.45 0.132,-0.233 0.166,-0.484 0.099,-0.75 -0.032,-0.3 -0.165,-0.517 -0.396,-0.65z"/>
      </g>
     </g>
    </g>
   </g>
   <g>
    <g>
     <g>
      <path class="fil4" d="M129.938 54.35c0.066,-0.267 0.049,-0.534 -0.05,-0.8l-2.825 2 2.131 2.55 0 -0.05c0.198,-0.2 0.314,-0.45 0.347,-0.75l0.397 -2.95z"/>
      <path class="fil2" d="M118.189 53.95c-0.264,0.267 -0.396,0.583 -0.396,0.95 -0.033,0.367 0.049,0.7 0.247,1 0.232,0.3 0.529,0.5 0.893,0.6l8.774 2.05c0.264,0.066 0.529,0.066 0.793,0 0.264,-0.1 0.496,-0.25 0.694,-0.45l-2.131 -2.55 2.825 -2c-0.033,-0.033 -0.049,-0.067 -0.049,-0.1 -0.133,-0.3 -0.348,-0.517 -0.645,-0.65 -0.264,-0.167 -0.545,-0.234 -0.843,-0.2l-9.22 0.9c-0.397,0.033 -0.71,0.183 -0.942,0.45z"/>
     </g>
    </g>
   </g>
   <g>
    <g>
     <g>
      <path class="fil5" d="M106.943 51.346c-0.018,0.11 -0.009,0.212 0.028,0.304l1.807 3.839c0.018,0.036 0.037,0.074 0.055,0.11l2.574 2.928c0.073,0.092 0.164,0.138 0.274,0.138 0.109,0.018 0.209,0 0.301,-0.055l0.548 -0.415c0.072,-0.055 0.127,-0.129 0.164,-0.22 0.018,-0.111 0.009,-0.212 -0.028,-0.304l-1.643 -3.729c-0.018,-0.018 -0.036,-0.046 -0.054,-0.083l-2.684 -3.093c-0.055,-0.074 -0.137,-0.12 -0.246,-0.138 -0.11,-0.019 -0.21,0 -0.302,0.055l-0.629 0.442c-0.073,0.055 -0.128,0.129 -0.165,0.221z"/>
     </g>
    </g>
   </g>
   <g>
    <g>
     <g>
      <g>
       <path class="fil6" d="M110.208 36.25l2.429 -4.1 -5.453 5.6 1.388 1.25 1.636 -2.75 0 0zm28.851 2.4l0 0 -8.031 1.45 0.595 1.3 7.436 -2.75 0 0zm2.726 11.3l0.347 1.45c5.331,-8.117 7.149,-17.201 5.453,-27.25l-5.304 0c2.47,8.608 2.304,17.208 -0.496,25.8l0 0zm-26.669 -27.45l2.875 2.9c5.715,-3.447 11.977,-5.797 18.788,-7.05 -5.794,-0.885 -11.412,-0.535 -16.855,1.05l2.826 -3.9c-6.095,-1.08 -11.019,0.353 -14.773,4.3l-3.618 3.7 -2.875 -1.25 -4.709 11.1c0.566,1.492 0.979,2.925 1.239,4.3l17.102 -15.15z"/>
      </g>
      <polygon class="fil7" points="124.435,39.1 122.75,34.4 112.637,32.15 110.208,36.25 "/>
      <path class="fil8" d="M142.281 24.15l-2.479 0 1.834 -4.75c-1.632,-0.439 -3.251,-0.789 -4.857,-1.05 -6.811,1.253 -13.073,3.603 -18.788,7.05l-2.875 -2.9 -17.102 15.15c0.621,2.964 0.572,5.664 -0.149,8.1 -1.017,3.579 0.189,6.796 3.619,9.65l4.709 -8 -2.082 -6.5 3.073 -3.15 5.453 -5.6 10.113 2.25 1.685 4.7 0.744 2.05 5.849 -1.05 8.031 -1.45 0 0 2.726 11.3c2.8,-8.592 2.966,-17.192 0.496,-25.8z"/>
     </g>
    </g>
   </g>
  </g>
  <g id="head_FL_FL_FL">
   <g>
    <g>
     <g>
      <polygon class="fil0" points="31.099,176.2 40.7,180.75 50.3,176.2 "/>
      <path class="fil1" d="M60 151c-0.434,-2.967 -2.133,-4.45 -5.1,-4.45l-30.35 0c-2.934,0 -4.634,1.517 -5.101,4.55 -1,6.867 -0.999,13.733 0,20.6 0.467,3 2.167,4.5 5.101,4.5l6.549 0 19.201 0 4.6 0c2.966,0 4.683,-1.517 5.15,-4.55 1.033,-6.733 1.016,-13.617 -0.05,-20.65z"/>
     </g>
    </g>
   </g>
   <g>
    <g>
     <g>
      <g>
       <path class="fil2" d="M33.6 166.05c1.033,0 1.883,-0.383 2.55,-1.15 0.612,-0.612 0.962,-1.329 1.05,-2.15l-7.25 0c0.11,0.821 0.443,1.538 1,2.15 0.733,0.767 1.616,1.15 2.65,1.15l0 0zm18.6 0c1.033,0 1.883,-0.383 2.55,-1.15 0.612,-0.612 0.962,-1.329 1.05,-2.15l-7.25 0c0.11,0.821 0.443,1.538 1,2.15 0.733,0.767 1.616,1.15 2.65,1.15z"/>
      </g>
      <g>
       <path class="fil3" d="M38.35 158c-0.033,-0.3 -0.15,-0.533 -0.35,-0.7 -0.2,-0.2 -0.434,-0.284 -0.7,-0.25 -2.634,0.233 -5.117,0.1 -7.45,-0.4 -0.3,-0.067 -0.567,-0.033 -0.801,0.1 -0.233,0.133 -0.366,0.35 -0.399,0.65 -0.067,0.267 -0.034,0.517 0.1,0.75 0.133,0.233 0.35,0.383 0.65,0.45 2.5,0.533 5.183,0.683 8.049,0.45 0.267,-0.033 0.501,-0.15 0.701,-0.35 0.167,-0.2 0.233,-0.433 0.2,-0.7l0 0zm18.05 -1.2c-0.234,-0.134 -0.5,-0.167 -0.8,-0.1 -2.334,0.5 -4.817,0.633 -7.45,0.4 -0.267,-0.033 -0.5,0.05 -0.7,0.25 -0.2,0.167 -0.317,0.4 -0.35,0.7 -0.033,0.267 0.033,0.5 0.2,0.7 0.2,0.2 0.433,0.316 0.7,0.35 2.866,0.233 5.55,0.083 8.05,-0.45 0.3,-0.067 0.516,-0.217 0.65,-0.45 0.133,-0.233 0.166,-0.483 0.1,-0.75 -0.034,-0.3 -0.167,-0.517 -0.4,-0.65z"/>
      </g>
     </g>
    </g>
   </g>
   <g>
    <g>
     <g>
      <path class="fil4" d="M48.5 168.75c0.066,-0.267 0.05,-0.533 -0.05,-0.8l-2.85 2 2.15 2.55 0 -0.05c0.2,-0.2 0.316,-0.45 0.35,-0.75l0.4 -2.95z"/>
      <path class="fil2" d="M36.65 168.35c-0.267,0.267 -0.401,0.583 -0.401,0.95 -0.033,0.367 0.051,0.7 0.251,1 0.233,0.3 0.533,0.5 0.9,0.6l8.85 2.05c0.266,0.067 0.533,0.067 0.799,0 0.267,-0.1 0.501,-0.25 0.701,-0.45l-2.15 -2.55 2.85 -2c-0.033,-0.033 -0.05,-0.067 -0.05,-0.1 -0.134,-0.3 -0.35,-0.517 -0.65,-0.65 -0.267,-0.167 -0.55,-0.234 -0.85,-0.2l-9.3 0.9c-0.4,0.033 -0.717,0.183 -0.95,0.45z"/>
     </g>
    </g>
   </g>
   <g>
    <g>
     <g>
      <path class="fil5" d="M25.307 165.746c-0.019,0.11 -0.009,0.212 0.027,0.304l1.823 3.839c0.019,0.037 0.037,0.074 0.055,0.111l2.596 2.927c0.074,0.092 0.166,0.138 0.277,0.138 0.11,0.019 0.211,0 0.304,-0.055l0.552 -0.414c0.073,-0.055 0.129,-0.129 0.166,-0.221 0.018,-0.111 0.009,-0.212 -0.028,-0.304l-1.657 -3.729c-0.019,-0.018 -0.037,-0.046 -0.055,-0.083l-2.707 -3.093c-0.055,-0.074 -0.138,-0.12 -0.249,-0.138 -0.11,-0.019 -0.211,0 -0.304,0.055l-0.635 0.442c-0.074,0.055 -0.129,0.129 -0.165,0.221z"/>
     </g>
    </g>
   </g>
   <g>
    <g>
     <g>
      <g>
       <path class="fil6" d="M28.6 150.65l2.45 -4.1 -5.5 5.6 1.4 1.25 1.65 -2.75 0 0zm29.1 2.4l0 0 -8.1 1.45 0.6 1.3 7.5 -2.75 0 0zm2.75 11.3l0.35 1.45c5.377,-8.117 7.21,-17.2 5.5,-27.25l-5.35 0c2.491,8.608 2.324,17.208 -0.5,25.8l0 0zm-26.9 -27.45l2.9 2.9c5.764,-3.447 12.08,-5.797 18.95,-7.05 -5.844,-0.885 -11.511,-0.535 -17,1.05l2.85 -3.9c-6.148,-1.08 -11.115,0.353 -14.9,4.3l-3.651 3.7 -2.899 -1.25 -4.75 11.1c0.571,1.492 0.988,2.925 1.25,4.3l17.25 -15.15z"/>
      </g>
      <polygon class="fil7" points="42.95,153.5 41.25,148.8 31.05,146.55 28.6,150.65 "/>
      <path class="fil8" d="M60.95 138.55l-2.5 0 1.85 -4.75c-1.647,-0.439 -3.28,-0.789 -4.9,-1.05 -6.87,1.253 -13.186,3.603 -18.95,7.05l-2.9 -2.9 -17.25 15.15c0.627,2.964 0.577,5.664 -0.15,8.1 -1.026,3.579 0.19,6.796 3.65,9.65l4.75 -8 -2.1 -6.5 3.1 -3.15 5.5 -5.6 10.2 2.25 1.7 4.7 0.75 2.05 5.9 -1.05 8.1 -1.45 0 0 2.75 11.3c2.824,-8.592 2.991,-17.192 0.5,-25.8z"/>
     </g>
    </g>
   </g>
  </g>
  <g id="head_FL_FL_FL_FL">
   <g>
    <g>
     <g>
      <polygon class="fil0" points="114.85,175.3 124.45,179.85 134.05,175.3 "/>
      <path class="fil1" d="M143.75 150.1c-0.434,-2.967 -2.134,-4.45 -5.1,-4.45l-30.35 0c-2.933,0 -4.633,1.517 -5.1,4.55 -1,6.867 -1,13.733 0,20.6 0.467,3 2.167,4.5 5.1,4.5l6.55 0 19.2 0 4.6 0c2.966,0 4.683,-1.517 5.15,-4.55 1.033,-6.733 1.017,-13.617 -0.05,-20.65z"/>
     </g>
    </g>
   </g>
   <g>
    <g>
     <g>
      <g>
       <path class="fil2" d="M117.35 165.15c1.033,0 1.883,-0.383 2.55,-1.15 0.612,-0.612 0.962,-1.329 1.05,-2.15l-7.25 0c0.11,0.821 0.443,1.538 1,2.15 0.733,0.767 1.617,1.15 2.65,1.15l0 0zm18.6 0c1.033,0 1.883,-0.383 2.55,-1.15 0.612,-0.612 0.962,-1.329 1.05,-2.15l-7.25 0c0.11,0.821 0.443,1.538 1,2.15 0.733,0.767 1.616,1.15 2.65,1.15z"/>
      </g>
      <g>
       <path class="fil3" d="M122.1 157.1c-0.034,-0.3 -0.15,-0.533 -0.35,-0.7 -0.2,-0.2 -0.433,-0.283 -0.7,-0.25 -2.633,0.233 -5.117,0.1 -7.45,-0.4 -0.3,-0.067 -0.567,-0.033 -0.8,0.1 -0.233,0.134 -0.367,0.35 -0.4,0.65 -0.067,0.267 -0.034,0.516 0.1,0.75 0.133,0.233 0.35,0.383 0.65,0.45 2.5,0.533 5.183,0.683 8.05,0.45 0.267,-0.033 0.5,-0.15 0.7,-0.35 0.166,-0.2 0.233,-0.434 0.2,-0.7l0 0zm18.05 -1.2c-0.234,-0.133 -0.5,-0.167 -0.8,-0.1 -2.334,0.5 -4.817,0.633 -7.45,0.4 -0.267,-0.033 -0.5,0.05 -0.7,0.25 -0.2,0.167 -0.317,0.4 -0.35,0.7 -0.034,0.267 0.033,0.5 0.2,0.7 0.2,0.2 0.433,0.317 0.7,0.35 2.866,0.233 5.55,0.083 8.05,-0.45 0.3,-0.067 0.517,-0.217 0.65,-0.45 0.133,-0.233 0.166,-0.483 0.1,-0.75 -0.033,-0.3 -0.167,-0.517 -0.4,-0.65z"/>
      </g>
     </g>
    </g>
   </g>
   <g>
    <g>
     <g>
      <path class="fil4" d="M132.25 167.85c0.066,-0.267 0.05,-0.533 -0.05,-0.8l-2.85 2 2.15 2.55 0 -0.05c0.2,-0.2 0.316,-0.45 0.35,-0.75l0.4 -2.95z"/>
      <path class="fil2" d="M120.4 167.45c-0.267,0.267 -0.4,0.583 -0.4,0.95 -0.034,0.367 0.05,0.7 0.25,1 0.233,0.3 0.533,0.5 0.9,0.6l8.85 2.05c0.266,0.066 0.533,0.067 0.8,0 0.267,-0.1 0.5,-0.25 0.7,-0.45l-2.15 -2.55 2.85 -2c-0.034,-0.033 -0.05,-0.067 -0.05,-0.1 -0.134,-0.3 -0.35,-0.517 -0.65,-0.65 -0.267,-0.167 -0.55,-0.233 -0.85,-0.2l-9.3 0.9c-0.4,0.033 -0.717,0.183 -0.95,0.45z"/>
     </g>
    </g>
   </g>
   <g>
    <g>
     <g>
      <path class="fil5" d="M109.057 164.846c-0.019,0.111 -0.01,0.212 0.027,0.304l1.823 3.839c0.018,0.037 0.037,0.074 0.056,0.11l2.596 2.928c0.073,0.092 0.165,0.138 0.276,0.138 0.11,0.019 0.212,0 0.303,-0.055l0.553 -0.415c0.074,-0.055 0.129,-0.128 0.166,-0.22 0.018,-0.111 0.009,-0.212 -0.028,-0.304l-1.657 -3.729c-0.018,-0.018 -0.037,-0.046 -0.055,-0.082l-2.707 -3.094c-0.055,-0.074 -0.138,-0.12 -0.248,-0.138 -0.111,-0.018 -0.212,0 -0.304,0.055l-0.636 0.442c-0.073,0.055 -0.128,0.129 -0.165,0.221z"/>
     </g>
    </g>
   </g>
   <g>
    <g>
     <g>
      <g>
       <path class="fil6" d="M112.35 149.75l2.45 -4.1 -5.5 5.6 1.4 1.25 1.65 -2.75 0 0zm29.1 2.4l0 0 -8.1 1.45 0.6 1.3 7.5 -2.75 0 0zm2.75 11.3l0.35 1.45c5.376,-8.117 7.21,-17.2 5.5,-27.25l-5.35 0c2.491,8.608 2.324,17.208 -0.5,25.8l0 0zm-26.9 -27.45l2.9 2.9c5.764,-3.447 12.081,-5.797 18.95,-7.05 -5.844,-0.885 -11.51,-0.535 -17,1.05l2.85 -3.9c-6.148,-1.08 -11.114,0.353 -14.9,4.3l-3.65 3.7 -2.9 -1.25 -4.75 11.1c0.571,1.492 0.988,2.925 1.25,4.3l17.25 -15.15z"/>
      </g>
      <polygon class="fil7" points="126.7,152.6 125,147.9 114.8,145.65 112.35,149.75 "/>
      <path class="fil8" d="M144.7 137.65l-2.5 0 1.85 -4.75c-1.647,-0.439 -3.28,-0.789 -4.9,-1.05 -6.869,1.253 -13.186,3.603 -18.95,7.05l-2.9 -2.9 -17.25 15.15c0.627,2.964 0.577,5.664 -0.15,8.1 -1.026,3.579 0.191,6.796 3.65,9.65l4.75 -8 -2.1 -6.5 3.1 -3.15 5.5 -5.6 10.2 2.25 1.7 4.7 0.75 2.05 5.9 -1.05 8.1 -1.45 0 0 2.75 11.3c2.824,-8.592 2.991,-17.192 0.5,-25.8z"/>
     </g>
    </g>
   </g>
  </g>
  <g id="head_FL_FL_FL_FL_FL">
   <g>
    <g>
     <g>
      <polygon class="fil0" points="340.23,175.986 350.173,179.728 359.364,174.4 "/>
      <path class="fil1" d="M366.95 148.486c-0.677,-2.921 -2.494,-4.259 -5.45,-4.013l-30.246 2.506c-2.923,0.242 -4.492,1.894 -4.707,4.956 -0.429,6.926 0.138,13.769 1.702,20.529 0.712,2.951 2.53,4.306 5.454,4.064l6.527 -0.542 19.134 -1.586 4.584 -0.379c2.957,-0.245 4.543,-1.898 4.757,-4.96 0.474,-6.796 -0.111,-13.654 -1.755,-20.575z"/>
     </g>
    </g>
   </g>
   <g>
    <g>
     <g>
      <g>
       <path class="fil2" d="M341.883 165.665c1.03,-0.086 1.845,-0.538 2.447,-1.357 0.559,-0.66 0.849,-1.403 0.868,-2.229l-7.225 0.598c0.178,0.81 0.569,1.496 1.175,2.061 0.794,0.703 1.706,1.012 2.735,0.927l0 0zm18.537 -1.537c1.029,-0.085 1.845,-0.537 2.446,-1.356 0.559,-0.661 0.849,-1.404 0.869,-2.23l-7.225 0.599c0.177,0.81 0.568,1.496 1.174,2.06 0.794,0.704 1.706,1.013 2.736,0.927z"/>
      </g>
      <g>
       <path class="fil3" d="M345.952 157.25c-0.058,-0.296 -0.193,-0.519 -0.406,-0.669 -0.216,-0.182 -0.456,-0.246 -0.719,-0.191 -2.605,0.45 -5.091,0.523 -7.457,0.217 -0.305,-0.042 -0.568,0.013 -0.789,0.166 -0.222,0.152 -0.337,0.379 -0.345,0.68 -0.044,0.272 0.009,0.518 0.162,0.74 0.152,0.221 0.38,0.353 0.684,0.394 2.536,0.325 5.222,0.253 8.06,-0.216 0.263,-0.055 0.486,-0.191 0.669,-0.407 0.149,-0.213 0.196,-0.451 0.141,-0.714l0 0zm17.889 -2.687c-0.244,-0.113 -0.512,-0.125 -0.805,-0.033 -2.284,0.691 -4.748,1.029 -7.392,1.014 -0.268,-0.011 -0.494,0.091 -0.677,0.307 -0.185,0.182 -0.282,0.424 -0.291,0.726 -0.011,0.269 0.075,0.496 0.258,0.681 0.215,0.183 0.457,0.28 0.726,0.291 2.876,-0.004 5.538,-0.375 7.985,-1.113 0.294,-0.091 0.497,-0.259 0.611,-0.502 0.113,-0.244 0.126,-0.495 0.038,-0.756 -0.059,-0.296 -0.209,-0.501 -0.453,-0.615z"/>
      </g>
     </g>
    </g>
   </g>
   <g>
    <g>
     <g>
      <path class="fil4" d="M356.955 167.125c0.044,-0.272 0.006,-0.536 -0.116,-0.793l-2.675 2.228 2.354 2.364 -0.005 -0.05c0.183,-0.216 0.279,-0.475 0.287,-0.776l0.155 -2.973z"/>
      <path class="fil2" d="M345.113 167.705c-0.244,0.288 -0.351,0.615 -0.32,0.98 -0.003,0.368 0.107,0.693 0.332,0.976 0.257,0.279 0.572,0.454 0.946,0.523l8.989 1.312c0.271,0.045 0.537,0.023 0.797,-0.066 0.258,-0.122 0.478,-0.29 0.661,-0.506l-2.354 -2.364 2.675 -2.228c-0.036,-0.031 -0.055,-0.062 -0.058,-0.096 -0.157,-0.288 -0.391,-0.486 -0.701,-0.594 -0.28,-0.144 -0.568,-0.187 -0.864,-0.129l-9.193 1.665c-0.397,0.066 -0.7,0.242 -0.91,0.527z"/>
     </g>
    </g>
   </g>
   <g>
    <g>
     <g>
      <path class="fil5" d="M333.594 166.047c-0.01,0.111 0.008,0.212 0.052,0.3l2.134 3.676c0.022,0.035 0.043,0.07 0.064,0.105l2.829 2.703c0.081,0.086 0.177,0.124 0.287,0.115 0.112,0.01 0.211,-0.017 0.298,-0.08l0.516 -0.459c0.069,-0.061 0.118,-0.139 0.147,-0.233 0.009,-0.112 -0.008,-0.212 -0.052,-0.301l-1.96 -3.579c-0.02,-0.017 -0.04,-0.042 -0.062,-0.078l-2.953 -2.859c-0.061,-0.069 -0.147,-0.108 -0.259,-0.117 -0.111,-0.009 -0.211,0.017 -0.298,0.08l-0.596 0.493c-0.069,0.061 -0.118,0.139 -0.147,0.234z"/>
     </g>
    </g>
   </g>
   <g>
    <g>
     <g>
      <g>
       <path class="fil6" d="M335.628 150.731l2.103 -4.289 -5.018 6.035 1.498 1.13 1.417 -2.876 0 0zm29.199 -0.012l0 0 -7.953 2.114 0.706 1.246 7.247 -3.36 0 0zm3.674 11.034l0.468 1.416c4.688,-8.533 5.765,-17.737 3.231,-27.611l-5.332 0.442c3.194,8.373 3.738,16.958 1.633,25.753l0 0zm-29.075 -25.134l3.13 2.65c5.459,-3.911 11.56,-6.774 18.302,-8.591 -5.896,-0.399 -11.515,0.418 -16.855,2.451l2.518 -4.122c-6.216,-0.568 -11.047,1.27 -14.493,5.516l-3.332 3.989 -2.994 -1.007 -3.817 11.455c0.693,1.439 1.226,2.833 1.601,4.182l15.94 -16.523z"/>
      </g>
      <polygon class="fil7" points="350.165,152.385 348.082,147.842 337.731,146.442 335.628,150.731 "/>
      <path class="fil8" d="M366.868 136l-2.491 0.207 1.451 -4.887c-1.677,-0.301 -3.334,-0.515 -4.97,-0.642 -6.742,1.817 -12.843,4.68 -18.302,8.591l-3.13 -2.65 -15.94 16.523c0.87,2.902 1.043,5.597 0.52,8.084 -0.727,3.652 0.751,6.757 4.435,9.316l4.072 -8.365 -2.629 -6.304 2.829 -3.396 5.018 -6.035 10.351 1.4 2.083 4.543 0.916 1.982 5.793 -1.534 7.953 -2.114 0 0 3.674 11.034c2.105,-8.795 1.56,-17.38 -1.633,-25.753z"/>
     </g>
    </g>
   </g>
  </g>
  <g>
   <g>
    <g>
     <g>
      <polygon class="fil0" points="423.323,175.528 432.194,181.373 442.334,178.208 "/>
      <path class="fil1" d="M455.457 154.609c-0.016,-2.998 -1.492,-4.704 -4.429,-5.118l-30.052 -4.236c-2.905,-0.41 -4.8,0.855 -5.686,3.793 -1.948,6.66 -2.906,13.459 -2.875,20.398 0.044,3.036 1.517,4.758 4.422,5.168l6.486 0.914 19.011 2.68 4.556 0.642c2.937,0.414 4.848,-0.848 5.734,-3.787 1.963,-6.523 2.907,-13.341 2.833,-20.454z"/>
     </g>
    </g>
   </g>
   <g>
    <g>
     <g>
      <g>
       <path class="fil2" d="M427.215 165.827c1.023,0.144 1.918,-0.117 2.686,-0.783 0.691,-0.521 1.138,-1.182 1.339,-1.983l-7.178 -1.012c-0.006,0.829 0.224,1.585 0.69,2.269 0.619,0.862 1.44,1.364 2.463,1.509l0 0zm18.417 2.595c1.024,0.145 1.919,-0.116 2.686,-0.782 0.691,-0.521 1.138,-1.182 1.34,-1.983l-7.179 -1.012c-0.005,0.829 0.224,1.585 0.69,2.269 0.619,0.861 1.44,1.364 2.463,1.508l0 0zm-11.363 3.246c1.079,0.154 2.111,0.233 3.097,0.235l0.202 -1.436 -6.105 -1.466c-0.116,0.066 -0.243,0.132 -0.381,0.198 -0.254,0.133 -0.416,0.328 -0.487,0.588 -0.103,0.255 -0.088,0.509 0.044,0.764 0.102,0.251 0.279,0.427 0.531,0.529 0.278,0.136 1.31,0.332 3.099,0.588z"/>
      </g>
      <path class="fil4" d="M442.652 170.224c-0.099,-0.25 -0.274,-0.443 -0.524,-0.579 -3.842,-1.833 -7.397,-2.048 -10.665,-0.644l6.105 1.466 -0.202 1.436c0.667,0.006 1.31,-0.021 1.93,-0.082 1.567,-0.151 2.477,-0.275 2.729,-0.372 0.245,-0.067 0.436,-0.225 0.572,-0.475 0.103,-0.255 0.121,-0.505 0.055,-0.75z"/>
      <g>
       <path class="fil3" d="M432.004 159.432c0.269,0.005 0.516,-0.078 0.742,-0.248 0.193,-0.175 0.292,-0.397 0.296,-0.666 0.009,-0.301 -0.074,-0.549 -0.249,-0.741 -0.17,-0.226 -0.389,-0.342 -0.658,-0.346 -2.64,-0.136 -5.08,-0.615 -7.321,-1.436 -0.288,-0.107 -0.557,-0.112 -0.806,-0.012 -0.25,0.099 -0.412,0.295 -0.487,0.587 -0.103,0.255 -0.105,0.507 -0.006,0.757 0.1,0.25 0.293,0.428 0.581,0.536 2.401,0.877 5.037,1.4 7.908,1.569l0 0zm19.079 0.418c-0.213,-0.165 -0.473,-0.235 -0.779,-0.211 -2.38,0.169 -4.857,-0.045 -7.432,-0.644 -0.26,-0.07 -0.503,-0.02 -0.728,0.15 -0.222,0.137 -0.37,0.352 -0.445,0.644 -0.07,0.259 -0.037,0.5 0.101,0.721 0.17,0.226 0.384,0.374 0.644,0.444 2.806,0.632 5.484,0.858 8.033,0.678 0.307,-0.024 0.542,-0.142 0.707,-0.354 0.165,-0.213 0.233,-0.456 0.204,-0.729 0.009,-0.302 -0.093,-0.535 -0.305,-0.699z"/>
      </g>
     </g>
    </g>
   </g>
   <g>
    <g>
     <g>
      <path class="fil5" d="M420.459 163.965c-0.024,-0.071 -0.102,-0.115 -0.234,-0.134 -0.094,-0.047 -0.195,-0.044 -0.304,0.008l-0.706 0.355c-0.071,0.024 -0.13,0.083 -0.177,0.177 -0.014,0.099 -0.011,0.2 0.008,0.304l1.245 4.063c0.028,0.038 0.04,0.073 0.036,0.107l2.162 3.284c0.057,0.075 0.151,0.122 0.283,0.14 0.095,0.047 0.196,0.045 0.304,-0.007l0.601 -0.32c0.075,-0.056 0.136,-0.132 0.183,-0.226 0.047,-0.095 0.061,-0.194 0.042,-0.297l-1.167 -3.901c0.005,-0.033 -0.007,-0.069 -0.035,-0.106l-2.241 -3.447z"/>
     </g>
    </g>
   </g>
   <g>
    <g>
     <g>
      <g>
       <path class="fil6" d="M431.234 136.955l2.467 3.277c6.188,-2.609 12.771,-4.054 19.748,-4.336 -5.663,-1.692 -11.323,-2.136 -16.98,-1.333l3.366 -3.464c-5.936,-1.927 -11.054,-1.201 -15.354,2.178l-4.13 3.154 -2.697 -1.642 -6.253 10.328c0.358,1.557 0.57,3.034 0.638,4.432l19.195 -12.594 0 0zm-6.821 12.925l2.999 -3.718 -6.228 4.777 1.212 1.434 2.017 -2.493 0 0zm29.626 18.011l0.144 1.484c6.457,-7.287 9.54,-16.025 9.25,-26.215l-5.298 -0.746c1.265,8.871 -0.1,17.363 -4.096,25.477l0 0zm-8.956 -9.897l7.81 -1.676 0 0 -8.223 0.305 0.413 1.371z"/>
      </g>
      <polygon class="fil7" points="438.225,154.705 437.198,149.813 427.412,146.162 424.413,149.88 "/>
      <path class="fil8" d="M458.154 137.62c-1.569,-0.665 -3.137,-1.24 -4.705,-1.724 -6.977,0.282 -13.56,1.727 -19.748,4.336l-2.467 -3.277 -19.195 12.594c0.207,3.023 -0.219,5.689 -1.279,8 -1.516,3.401 -0.76,6.756 2.267,10.065l5.82 -7.259 -1.172 -6.729 3.509 -2.687 6.228 -4.777 9.786 3.651 1.027 4.892 0.457 2.134 5.988 -0.216 8.223 -0.305 0 0 1.146 11.573c3.996,-8.114 5.361,-16.606 4.096,-25.477l-2.475 -0.349 2.494 -4.445z"/>
     </g>
    </g>
   </g>
  </g>
  <g id="head_FL_FL_FL_FL_FL_FL">
   <g>
    <g>
     <g>
      <polygon class="fil0" points="591.208,67.36 601.083,71.275 610.367,66.11 "/>
      <path class="fil1" d="M618.406 40.332c-0.626,-2.932 -2.419,-4.302 -5.379,-4.109l-30.286 1.976c-2.927,0.19 -4.524,1.815 -4.792,4.872 -0.551,6.917 -0.104,13.769 1.34,20.556 0.661,2.963 2.455,4.35 5.383,4.159l6.536 -0.426 19.159 -1.25 4.59 -0.3c2.96,-0.193 4.575,-1.818 4.843,-4.875 0.593,-6.787 0.128,-13.655 -1.394,-20.603z"/>
     </g>
    </g>
   </g>
   <g>
    <g>
     <g>
      <g>
       <path class="fil2" d="M593.042 57.068c1.031,-0.067 1.854,-0.505 2.469,-1.313 0.571,-0.651 0.874,-1.389 0.908,-2.214l-7.235 0.472c0.164,0.812 0.543,1.506 1.138,2.08 0.782,0.718 1.688,1.043 2.72,0.975l0 0zm18.56 -1.211c1.031,-0.067 1.855,-0.505 2.47,-1.313 0.571,-0.651 0.873,-1.389 0.908,-2.214l-7.235 0.472c0.164,0.812 0.543,1.506 1.138,2.081 0.782,0.717 1.688,1.042 2.719,0.974z"/>
      </g>
      <g>
       <path class="fil3" d="M597.257 48.726c-0.052,-0.297 -0.184,-0.522 -0.395,-0.676 -0.212,-0.186 -0.45,-0.254 -0.714,-0.203 -2.613,0.404 -5.1,0.432 -7.46,0.085 -0.304,-0.047 -0.568,0.004 -0.792,0.152 -0.224,0.148 -0.343,0.373 -0.357,0.675 -0.049,0.27 0.001,0.517 0.149,0.742 0.148,0.224 0.374,0.359 0.677,0.406 2.53,0.37 5.217,0.345 8.063,-0.075 0.264,-0.05 0.489,-0.182 0.676,-0.394 0.153,-0.211 0.204,-0.448 0.153,-0.712l0 0zm17.934 -2.372c-0.242,-0.118 -0.51,-0.134 -0.805,-0.048 -2.295,0.651 -4.765,0.945 -7.408,0.884 -0.268,-0.016 -0.495,0.082 -0.682,0.295 -0.189,0.179 -0.29,0.42 -0.304,0.721 -0.016,0.269 0.066,0.497 0.245,0.686 0.213,0.186 0.453,0.288 0.722,0.304 2.876,0.046 5.543,-0.279 8.003,-0.973 0.295,-0.087 0.502,-0.25 0.62,-0.492 0.118,-0.241 0.134,-0.493 0.05,-0.755 -0.052,-0.297 -0.2,-0.504 -0.441,-0.622z"/>
      </g>
     </g>
    </g>
   </g>
   <g>
    <g>
     <g>
      <path class="fil4" d="M608.086 58.793c0.049,-0.271 0.015,-0.536 -0.102,-0.795l-2.714 2.181 2.312 2.404 -0.004 -0.05c0.187,-0.212 0.287,-0.469 0.301,-0.771l0.207 -2.969z"/>
      <path class="fil2" d="M596.235 59.165c-0.249,0.283 -0.361,0.608 -0.337,0.974 -0.01,0.368 0.095,0.695 0.314,0.981 0.253,0.285 0.565,0.465 0.937,0.54l8.965 1.47c0.27,0.049 0.536,0.032 0.798,-0.052 0.26,-0.117 0.483,-0.282 0.67,-0.495l-2.312 -2.404 2.714 -2.181c-0.036,-0.032 -0.054,-0.064 -0.057,-0.097 -0.152,-0.291 -0.382,-0.493 -0.69,-0.606 -0.277,-0.149 -0.565,-0.197 -0.862,-0.145l-9.221 1.504c-0.397,0.059 -0.704,0.23 -0.919,0.511z"/>
     </g>
    </g>
   </g>
   <g>
    <g>
     <g>
      <path class="fil5" d="M584.746 57.305c-0.011,0.111 0.005,0.212 0.048,0.301l2.069 3.712c0.02,0.036 0.041,0.071 0.062,0.107l2.781 2.753c0.08,0.087 0.175,0.127 0.285,0.119 0.111,0.011 0.211,-0.014 0.299,-0.075l0.524 -0.449c0.07,-0.06 0.121,-0.137 0.152,-0.231 0.011,-0.112 -0.005,-0.212 -0.048,-0.302l-1.896 -3.613c-0.02,-0.017 -0.04,-0.043 -0.061,-0.079l-2.902 -2.91c-0.06,-0.07 -0.145,-0.111 -0.257,-0.122 -0.111,-0.011 -0.211,0.014 -0.3,0.075l-0.605 0.483c-0.07,0.059 -0.12,0.136 -0.151,0.231z"/>
     </g>
    </g>
   </g>
   <g>
    <g>
     <g>
      <g>
       <path class="fil6" d="M587.05 42.027l2.177 -4.251 -5.123 5.946 1.478 1.156 1.468 -2.851 0 0zm29.194 0.5l0 0 -7.988 1.974 0.683 1.259 7.305 -3.233 0 0zm3.48 11.097l0.443 1.424c4.837,-8.449 6.076,-17.633 3.715,-27.55l-5.339 0.348c3.047,8.428 3.44,17.021 1.181,25.778l0 0zm-28.63 -25.641l3.083 2.705c5.527,-3.814 11.678,-6.571 18.451,-8.268 -5.889,-0.503 -11.521,0.215 -16.896,2.154l2.59 -4.077c-6.205,-0.678 -11.067,1.076 -14.588,5.261l-3.402 3.929 -2.975 -1.058 -4.017 11.386c0.667,1.451 1.176,2.854 1.527,4.209l16.227 -16.241z"/>
      </g>
      <polygon class="fil7" points="601.555,43.936 599.552,39.357 589.227,37.776 587.05,42.027 "/>
      <path class="fil8" d="M618.543 27.846l-2.494 0.163 1.537 -4.861c-1.672,-0.331 -3.324,-0.574 -4.958,-0.728 -6.773,1.698 -12.924,4.454 -18.451,8.268l-3.083 -2.705 -16.227 16.241c0.818,2.917 0.944,5.614 0.377,8.093 -0.79,3.638 0.633,6.769 4.271,9.391l4.219 -8.292 -2.518 -6.349 2.888 -3.345 5.123 -5.946 10.325 1.581 2.003 4.579 0.882 1.997 5.819 -1.432 7.988 -1.974 0 0 3.48 11.097c2.259,-8.757 1.866,-17.35 -1.181,-25.778z"/>
     </g>
    </g>
   </g>
  </g>
  <g id="head_FL_FL_FL_FL_FL_FL_FL">
   <g>
    <g>
     <g>
      <polygon class="fil0" points="671.708,68.359 681.583,72.275 690.867,67.11 "/>
      <path class="fil1" d="M698.906 41.331c-0.625,-2.932 -2.418,-4.301 -5.379,-4.108l-30.285 1.976c-2.928,0.191 -4.525,1.815 -4.794,4.872 -0.55,6.917 -0.103,13.769 1.341,20.556 0.661,2.963 2.456,4.35 5.382,4.159l6.537 -0.427 19.159 -1.249 4.59 -0.3c2.961,-0.193 4.575,-1.818 4.843,-4.876 0.593,-6.786 0.128,-13.654 -1.394,-20.603z"/>
     </g>
    </g>
   </g>
   <g>
    <g>
     <g>
      <g>
       <path class="fil2" d="M673.542 58.068c1.031,-0.067 1.854,-0.505 2.47,-1.313 0.57,-0.651 0.873,-1.389 0.907,-2.214l-7.234 0.472c0.163,0.812 0.542,1.506 1.137,2.08 0.782,0.718 1.689,1.043 2.72,0.975l0 0zm18.56 -1.211c1.031,-0.067 1.855,-0.505 2.47,-1.313 0.571,-0.651 0.874,-1.389 0.908,-2.214l-7.235 0.472c0.163,0.812 0.543,1.506 1.138,2.08 0.782,0.718 1.688,1.043 2.719,0.975z"/>
      </g>
      <g>
       <path class="fil3" d="M677.758 49.726c-0.053,-0.297 -0.185,-0.523 -0.395,-0.676 -0.213,-0.186 -0.451,-0.254 -0.715,-0.204 -2.612,0.405 -5.099,0.433 -7.46,0.086 -0.304,-0.047 -0.568,0.004 -0.792,0.152 -0.224,0.148 -0.343,0.373 -0.357,0.675 -0.049,0.27 0,0.517 0.149,0.742 0.148,0.224 0.374,0.359 0.678,0.406 2.529,0.37 5.216,0.345 8.062,-0.075 0.264,-0.05 0.489,-0.182 0.675,-0.395 0.154,-0.21 0.205,-0.447 0.155,-0.711l0 0zm17.933 -2.372c-0.241,-0.118 -0.51,-0.134 -0.804,-0.048 -2.297,0.651 -4.766,0.945 -7.409,0.884 -0.268,-0.016 -0.496,0.083 -0.682,0.295 -0.189,0.179 -0.29,0.42 -0.304,0.721 -0.016,0.269 0.066,0.497 0.245,0.686 0.213,0.186 0.453,0.288 0.722,0.304 2.875,0.046 5.543,-0.279 8.004,-0.974 0.294,-0.085 0.501,-0.249 0.619,-0.491 0.118,-0.242 0.135,-0.493 0.051,-0.755 -0.053,-0.297 -0.2,-0.504 -0.442,-0.622z"/>
      </g>
     </g>
    </g>
   </g>
   <g>
    <g>
     <g>
      <path class="fil4" d="M688.586 59.793c0.049,-0.271 0.015,-0.536 -0.102,-0.796l-2.714 2.182 2.311 2.404 -0.003 -0.049c0.187,-0.213 0.287,-0.47 0.301,-0.771l0.207 -2.97z"/>
      <path class="fil2" d="M676.735 60.165c-0.249,0.283 -0.361,0.608 -0.338,0.974 -0.009,0.368 0.096,0.695 0.315,0.981 0.253,0.285 0.565,0.465 0.937,0.54l8.965 1.47c0.271,0.049 0.537,0.032 0.798,-0.052 0.26,-0.117 0.483,-0.282 0.669,-0.495l-2.311 -2.404 2.714 -2.182c-0.036,-0.031 -0.054,-0.063 -0.057,-0.096 -0.152,-0.291 -0.383,-0.493 -0.691,-0.606 -0.277,-0.149 -0.563,-0.197 -0.861,-0.145l-9.221 1.504c-0.397,0.059 -0.704,0.23 -0.919,0.511z"/>
     </g>
    </g>
   </g>
   <g>
    <g>
     <g>
      <path class="fil5" d="M665.246 58.305c-0.011,0.111 0.005,0.212 0.048,0.301l2.068 3.712c0.021,0.036 0.042,0.071 0.063,0.107l2.781 2.752c0.08,0.088 0.174,0.127 0.285,0.12 0.111,0.011 0.211,-0.014 0.299,-0.075l0.525 -0.449c0.07,-0.06 0.12,-0.137 0.151,-0.231 0.011,-0.112 -0.005,-0.212 -0.048,-0.302l-1.896 -3.613c-0.02,-0.017 -0.04,-0.043 -0.06,-0.079l-2.903 -2.91c-0.06,-0.07 -0.146,-0.111 -0.257,-0.122 -0.112,-0.011 -0.211,0.014 -0.299,0.075l-0.606 0.482c-0.069,0.06 -0.12,0.137 -0.151,0.232z"/>
     </g>
    </g>
   </g>
   <g>
    <g>
     <g>
      <g>
       <path class="fil6" d="M667.55 43.026l2.178 -4.251 -5.124 5.947 1.478 1.156 1.468 -2.852 0 0zm29.194 0.501l0 0 -7.988 1.974 0.683 1.258 7.305 -3.232 0 0zm3.48 11.097l0.444 1.424c4.837,-8.45 6.075,-17.633 3.714,-27.55l-5.338 0.348c3.046,8.428 3.439,17.021 1.18,25.778l0 0zm-28.63 -25.641l3.083 2.705c5.528,-3.814 11.678,-6.571 18.451,-8.268 -5.889,-0.503 -11.521,0.215 -16.896,2.154l2.59 -4.077c-6.204,-0.677 -11.068,1.076 -14.588,5.261l-3.402 3.93 -2.975 -1.059 -4.017 11.385c0.667,1.452 1.176,2.855 1.527,4.21l16.227 -16.241z"/>
      </g>
      <polygon class="fil7" points="682.055,44.936 680.053,40.357 669.728,38.775 667.55,43.026 "/>
      <path class="fil8" d="M699.044 28.846l-2.495 0.163 1.537 -4.86c-1.672,-0.332 -3.325,-0.575 -4.958,-0.729 -6.773,1.697 -12.924,4.454 -18.451,8.268l-3.083 -2.705 -16.227 16.241c0.819,2.917 0.944,5.614 0.378,8.093 -0.791,3.638 0.633,6.769 4.27,9.391l4.219 -8.292 -2.519 -6.349 2.889 -3.345 5.124 -5.947 10.325 1.582 2.002 4.579 0.882 1.997 5.819 -1.432 7.988 -1.974 0 0 3.48 11.097c2.259,-8.757 1.866,-17.35 -1.18,-25.778z"/>
     </g>
    </g>
   </g>
  </g>
  <g id="head_FL_FL_FL_FL_FL_FL_FL_FL">
   <g>
    <g>
     <g>
      <polygon class="fil0" points="288.656,284.728 279.535,290.174 269.544,286.563 "/>
      <path class="fil1" d="M257.48 262.405c0.148,-2.995 1.698,-4.634 4.651,-4.917l30.212 -2.901c2.919,-0.28 4.757,1.067 5.511,4.042 1.652,6.74 2.308,13.575 1.969,20.506 -0.178,3.031 -1.727,4.686 -4.647,4.967l-6.52 0.626 -19.112 1.835 -4.579 0.439c-2.953,0.284 -4.807,-1.062 -5.561,-4.037 -1.672,-6.604 -2.313,-13.457 -1.924,-20.56z"/>
     </g>
    </g>
   </g>
   <g>
    <g>
     <g>
      <g>
       <path class="fil2" d="M285.197 274.863c-1.028,0.099 -1.911,-0.202 -2.648,-0.901 -0.668,-0.551 -1.084,-1.231 -1.251,-2.04l7.217 -0.693c-0.031,0.828 -0.294,1.573 -0.789,2.236 -0.657,0.833 -1.5,1.299 -2.529,1.398l0 0zm-18.514 1.778c-1.029,0.098 -1.912,-0.202 -2.649,-0.901 -0.668,-0.551 -1.084,-1.231 -1.25,-2.04l7.217 -0.693c-0.032,0.828 -0.295,1.573 -0.79,2.235 -0.657,0.834 -1.5,1.3 -2.528,1.399z"/>
      </g>
      <g>
       <path class="fil3" d="M279.7 267.304c0.005,-0.302 0.098,-0.545 0.281,-0.731 0.18,-0.218 0.405,-0.323 0.673,-0.315 2.644,-0.019 5.103,-0.39 7.378,-1.11 0.292,-0.096 0.561,-0.088 0.806,0.023 0.245,0.11 0.398,0.313 0.46,0.609 0.092,0.259 0.083,0.511 -0.028,0.756 -0.11,0.245 -0.312,0.415 -0.604,0.51 -2.437,0.77 -5.094,1.175 -7.97,1.217 -0.268,-0.008 -0.512,-0.101 -0.73,-0.282 -0.185,-0.183 -0.274,-0.409 -0.266,-0.677l0 0zm-18.082 0.53c0.219,-0.155 0.482,-0.213 0.787,-0.176 2.37,0.275 4.855,0.17 7.454,-0.314 0.262,-0.058 0.502,0.002 0.72,0.182 0.215,0.147 0.354,0.368 0.416,0.664 0.058,0.262 0.014,0.501 -0.133,0.716 -0.18,0.218 -0.401,0.356 -0.663,0.415 -2.831,0.506 -5.517,0.613 -8.056,0.321 -0.305,-0.037 -0.535,-0.166 -0.69,-0.386 -0.155,-0.219 -0.212,-0.465 -0.171,-0.737 0.004,-0.302 0.116,-0.53 0.336,-0.685z"/>
      </g>
     </g>
    </g>
   </g>
   <g>
    <g>
     <g>
      <path class="fil4" d="M270.624 278.974c-0.092,-0.258 -0.101,-0.526 -0.027,-0.8l3.028 1.718 -1.896 2.744 -0.005 -0.05c-0.218,-0.18 -0.359,-0.418 -0.42,-0.713l-0.68 -2.899z"/>
      <path class="fil2" d="M282.381 277.444c0.291,0.24 0.454,0.542 0.489,0.907 0.068,0.362 0.017,0.702 -0.153,1.019 -0.204,0.321 -0.483,0.549 -0.839,0.684l-8.613 2.886c-0.259,0.092 -0.525,0.118 -0.797,0.077 -0.274,-0.074 -0.521,-0.201 -0.739,-0.381l1.896 -2.744 -3.028 -1.718c0.03,-0.037 0.044,-0.072 0.04,-0.105 0.104,-0.311 0.299,-0.548 0.585,-0.709 0.25,-0.191 0.525,-0.285 0.827,-0.28l9.344 0.007c0.401,-0.005 0.731,0.114 0.988,0.357z"/>
     </g>
    </g>
   </g>
   <g>
    <g>
     <g>
      <path class="fil5" d="M293.424 273.768c0.028,0.108 0.029,0.21 0.001,0.305l-1.447 3.995c-0.015,0.039 -0.03,0.078 -0.045,0.116l-2.304 3.162c-0.065,0.099 -0.152,0.154 -0.262,0.164 -0.108,0.029 -0.211,0.02 -0.308,-0.026l-0.589 -0.359c-0.079,-0.048 -0.141,-0.116 -0.187,-0.205 -0.028,-0.108 -0.029,-0.21 -0.001,-0.305l1.293 -3.869c0.017,-0.02 0.032,-0.05 0.047,-0.088l2.399 -3.338c0.048,-0.079 0.126,-0.132 0.234,-0.162 0.108,-0.028 0.211,-0.02 0.308,0.027l0.675 0.379c0.078,0.048 0.14,0.116 0.186,0.204z"/>
     </g>
    </g>
   </g>
   <g>
    <g>
     <g>
      <g>
       <path class="fil6" d="M288.703 259.056l-2.831 -3.848 6.01 5.049 -1.274 1.378 -1.905 -2.579 0 0zm-28.738 5.17l0 0 8.202 0.669 -0.473 1.351 -7.729 -2.02 0 0zm-1.657 11.511l-0.21 1.477c-6.128,-7.566 -8.821,-16.433 -8.079,-26.6l5.325 -0.511c-1.657,8.807 -0.669,17.351 2.964,25.634l0 0zm24.153 -29.895l-2.609 3.163c-6.067,-2.88 -12.579,-4.615 -19.537,-5.206 5.732,-1.44 11.406,-1.633 17.022,-0.58l-3.209 -3.61c6.016,-1.662 11.097,-0.71 15.242,2.857l3.987 3.334 2.768 -1.521 5.789 10.595c-0.426,1.539 -0.704,3.006 -0.833,4.4l-18.62 -13.432z"/>
      </g>
      <polygon class="fil7" points="274.691,263.264 275.934,258.423 285.872,255.208 288.703,259.056 "/>
      <path class="fil8" d="M255.344 250.103l2.489 -0.239 -2.295 -4.552c1.597,-0.595 3.189,-1.099 4.777,-1.513 6.958,0.591 13.47,2.326 19.537,5.206l2.609 -3.163 18.62 13.432c-0.341,3.01 -0.034,5.693 0.923,8.048 1.363,3.465 0.459,6.784 -2.711,9.955l-5.493 -7.51 1.469 -6.67 -3.387 -2.84 -6.01 -5.049 -9.938 3.215 -1.243 4.841 -0.551 2.112 -5.973 -0.481 -8.202 -0.669 0 0 -1.657 11.511c-3.633,-8.283 -4.621,-16.827 -2.964,-25.634z"/>
     </g>
    </g>
   </g>
  </g>
  <g>
   <g>
    <g>
     <g>
      <polygon class="fil0" points="263.539,177.83 273.014,182.633 282.732,178.341 "/>
      <path class="fil1" d="M293.099 153.409c-0.354,-2.978 -2.014,-4.506 -4.979,-4.585l-30.339 -0.808c-2.932,-0.078 -4.672,1.393 -5.219,4.413 -1.183,6.837 -1.365,13.701 -0.549,20.592 0.387,3.011 2.046,4.556 4.979,4.634l6.547 0.175 19.193 0.511 4.598 0.122c2.966,0.079 4.722,-1.391 5.269,-4.411 1.212,-6.703 1.379,-13.584 0.5,-20.643z"/>
     </g>
    </g>
   </g>
   <g>
    <g>
     <g>
      <g>
       <path class="fil2" d="M266.308 167.75c1.033,0.028 1.893,-0.333 2.58,-1.082 0.628,-0.595 0.997,-1.303 1.107,-2.121l-7.247 -0.193c0.088,0.824 0.402,1.549 0.942,2.176 0.713,0.786 1.585,1.192 2.618,1.22l0 0zm18.593 0.495c1.033,0.028 1.893,-0.333 2.58,-1.082 0.628,-0.595 0.997,-1.302 1.107,-2.121l-7.247 -0.193c0.088,0.824 0.402,1.549 0.942,2.176 0.712,0.786 1.586,1.193 2.618,1.22l0 0zm-10.924 4.511c1.09,0.031 2.125,-0.008 3.105,-0.118l0.039 -1.449 -6.232 -0.766c-0.109,0.079 -0.228,0.159 -0.357,0.24 -0.238,0.161 -0.376,0.374 -0.417,0.639 -0.074,0.265 -0.03,0.517 0.13,0.754 0.129,0.238 0.325,0.393 0.588,0.466 0.291,0.104 1.339,0.181 3.144,0.234z"/>
      </g>
      <path class="fil4" d="M282.144 170.373c-0.127,-0.237 -0.323,-0.409 -0.587,-0.516 -4.024,-1.387 -7.58,-1.198 -10.668,0.566l6.232 0.766 -0.039 1.449c0.663,-0.068 1.299,-0.168 1.908,-0.299 1.54,-0.327 2.43,-0.553 2.669,-0.679 0.236,-0.094 0.408,-0.273 0.515,-0.536 0.073,-0.265 0.064,-0.516 -0.03,-0.751z"/>
      <g>
       <path class="fil3" d="M270.343 160.855c0.268,-0.026 0.504,-0.136 0.71,-0.331 0.171,-0.196 0.244,-0.427 0.218,-0.694 -0.025,-0.301 -0.136,-0.537 -0.331,-0.709 -0.195,-0.206 -0.426,-0.295 -0.693,-0.269 -2.639,0.163 -5.118,-0.036 -7.437,-0.598 -0.298,-0.075 -0.565,-0.049 -0.802,0.079 -0.237,0.127 -0.376,0.339 -0.417,0.639 -0.074,0.264 -0.047,0.515 0.08,0.752 0.127,0.237 0.339,0.392 0.638,0.467 2.484,0.6 5.162,0.821 8.034,0.664l0 0zm19.003 -1.744c-0.23,-0.14 -0.495,-0.18 -0.797,-0.122 -2.346,0.438 -4.832,0.505 -7.458,0.202 -0.265,-0.041 -0.501,0.037 -0.706,0.231 -0.205,0.162 -0.327,0.391 -0.369,0.69 -0.04,0.266 0.02,0.501 0.181,0.706 0.195,0.205 0.425,0.328 0.691,0.368 2.859,0.31 5.546,0.231 8.059,-0.235 0.302,-0.059 0.522,-0.203 0.661,-0.433 0.14,-0.23 0.18,-0.479 0.121,-0.747 -0.026,-0.301 -0.153,-0.521 -0.383,-0.66z"/>
      </g>
     </g>
    </g>
   </g>
   <g>
    <g>
     <g>
      <path class="fil5" d="M259.385 166.665c-0.032,-0.067 -0.114,-0.103 -0.247,-0.106 -0.099,-0.036 -0.2,-0.022 -0.301,0.042l-0.662 0.432c-0.068,0.032 -0.12,0.097 -0.155,0.196 -0.003,0.1 0.011,0.2 0.041,0.301l1.698 3.897c0.032,0.034 0.048,0.068 0.047,0.101l2.52 3.018c0.065,0.069 0.164,0.105 0.297,0.108 0.099,0.036 0.2,0.022 0.302,-0.042l0.56 -0.385c0.069,-0.065 0.121,-0.147 0.157,-0.246 0.036,-0.099 0.038,-0.199 0.008,-0.3l-1.601 -3.744c0.001,-0.033 -0.015,-0.067 -0.047,-0.101l-2.617 -3.171z"/>
     </g>
    </g>
   </g>
   <g>
    <g>
     <g>
      <g>
       <path class="fil6" d="M267.034 138.61l2.822 2.976c5.854,-3.292 12.231,-5.473 19.131,-6.543 -5.818,-1.04 -11.492,-0.841 -17.022,0.597l2.953 -3.822c-6.117,-1.244 -11.12,0.057 -15.009,3.901l-3.747 3.601 -2.865 -1.326 -5.044 10.969c0.531,1.506 0.909,2.95 1.135,4.332l17.646 -14.685 0 0zm-5.314 13.613l2.558 -4.034 -5.647 5.452 1.367 1.287 1.722 -2.705 0 0zm31.473 14.542l0.312 1.459c5.59,-7.97 7.665,-17.002 6.223,-27.093l-5.348 -0.142c2.261,8.671 1.866,17.263 -1.187,25.776l0 0zm-10.018 -8.819l7.57 -2.549 0 0 -8.135 1.233 0.565 1.316z"/>
      </g>
      <polygon class="fil7" points="275.989,155.454 274.415,150.71 264.278,148.189 261.72,152.223 "/>
      <path class="fil8" d="M293.857 136.223c-1.634,-0.483 -3.258,-0.876 -4.87,-1.18 -6.9,1.07 -13.277,3.251 -19.131,6.543l-2.822 -2.976 -17.646 14.685c0.548,2.979 0.426,5.677 -0.366,8.093 -1.121,3.55 0.01,6.798 3.392,9.743l4.961 -7.87 -1.926 -6.554 3.182 -3.066 5.647 -5.452 10.137 2.521 1.574 4.744 0.695 2.069 5.926 -0.893 8.135 -1.233 0 0 2.448 11.368c3.053,-8.513 3.448,-17.105 1.187,-25.776l-2.499 -0.067 1.976 -4.699z"/>
     </g>
    </g>
   </g>
  </g>
  <g>
   <g>
    <g>
     <g>
      <polygon class="fil0" points="194.538,62.304 203.752,67.591 213.679,63.806 "/>
      <path class="fil1" d="M225.321 39.442c-0.2,-2.991 -1.778,-4.603 -4.736,-4.835l-30.257 -2.375c-2.924,-0.229 -4.738,1.15 -5.44,4.137 -1.535,6.768 -2.072,13.613 -1.612,20.537 0.23,3.028 1.808,4.656 4.732,4.886l6.53 0.512 19.141 1.502 4.586 0.36c2.957,0.232 4.787,-1.145 5.49,-4.133 1.557,-6.632 2.079,-13.495 1.566,-20.591z"/>
     </g>
    </g>
   </g>
   <g>
    <g>
     <g>
      <g>
       <path class="fil2" d="M197.824 52.381c1.031,0.081 1.908,-0.235 2.633,-0.947 0.658,-0.563 1.063,-1.25 1.215,-2.062l-7.228 -0.567c0.045,0.827 0.322,1.568 0.829,2.222 0.671,0.822 1.521,1.273 2.551,1.354l0 0zm18.544 1.455c1.03,0.081 1.907,-0.235 2.632,-0.947 0.658,-0.562 1.063,-1.249 1.215,-2.061l-7.228 -0.567c0.046,0.827 0.322,1.567 0.829,2.221 0.671,0.822 1.521,1.273 2.552,1.354l0 0zm-7.303 2.938l-0.349 -1.933 -6.291 0.91c-0.282,0.613 -0.451,1.269 -0.505,1.967 -0.011,0.133 -0.022,0.265 -0.032,0.398l7.177 -1.342z"/>
      </g>
      <path class="fil4" d="M211.5 54.507c-0.977,-1.18 -2.214,-1.829 -3.709,-1.946 -1.495,-0.117 -2.818,0.331 -3.967,1.344 -0.61,0.52 -1.076,1.136 -1.399,1.846l6.291 -0.91 0.349 1.933 3.364 -0.689c-0.224,-0.553 -0.533,-1.078 -0.929,-1.578z"/>
      <g>
       <path class="fil3" d="M221.787 46.136c-0.182,-0.248 -0.421,-0.4 -0.717,-0.457 -2.333,-0.517 -4.634,-1.45 -6.902,-2.799 -0.222,-0.151 -0.471,-0.17 -0.748,-0.058 -0.24,0.081 -0.437,0.25 -0.591,0.505 -0.154,0.256 -0.205,0.485 -0.154,0.69 0.111,0.276 0.279,0.49 0.501,0.641 2.498,1.4 4.996,2.382 7.492,2.946 0.325,0.125 0.594,0.096 0.81,-0.087 0.181,-0.187 0.298,-0.395 0.35,-0.625 0.089,-0.294 0.076,-0.545 -0.041,-0.756l0 0zm-19.213 -2.51c0.243,-0.115 0.407,-0.286 0.492,-0.514 0.12,-0.258 0.122,-0.491 0.005,-0.701 -0.11,-0.31 -0.278,-0.507 -0.505,-0.592 -0.259,-0.12 -0.509,-0.123 -0.752,-0.009 -2.451,0.978 -4.856,1.592 -7.217,1.841 -0.337,0.041 -0.579,0.139 -0.725,0.295 -0.217,0.217 -0.287,0.462 -0.208,0.736 0.01,0.301 0.109,0.526 0.298,0.675 0.217,0.218 0.476,0.322 0.778,0.312 2.527,-0.236 5.138,-0.918 7.834,-2.043z"/>
      </g>
     </g>
    </g>
   </g>
   <g>
    <g>
     <g>
      <path class="fil5" d="M190.966 50.94c-0.028,-0.069 -0.108,-0.109 -0.241,-0.12 -0.098,-0.041 -0.198,-0.032 -0.303,0.027l-0.683 0.397c-0.07,0.028 -0.124,0.091 -0.166,0.188 -0.008,0.1 0.001,0.201 0.027,0.303l1.493 3.979c0.031,0.036 0.045,0.071 0.042,0.104l2.361 3.144c0.061,0.072 0.159,0.113 0.292,0.123 0.097,0.042 0.198,0.033 0.302,-0.026l0.58 -0.356c0.072,-0.061 0.128,-0.14 0.169,-0.237 0.041,-0.097 0.049,-0.197 0.024,-0.299l-1.406 -3.822c0.003,-0.033 -0.011,-0.068 -0.042,-0.103l-2.449 -3.302z"/>
     </g>
    </g>
   </g>
   <g>
    <g>
     <g>
      <g>
       <path class="fil6" d="M200.056 23.316l2.664 3.118c6.016,-2.985 12.497,-4.834 19.443,-5.545 -5.756,-1.34 -11.433,-1.435 -17.03,-0.284l3.147 -3.665c-6.044,-1.558 -11.108,-0.517 -15.191,3.121l-3.928 3.403 -2.794 -1.473 -5.604 10.694c0.453,1.532 0.756,2.994 0.91,4.385l18.383 -13.754 0 0zm-6.011 13.321l2.763 -3.896 -5.921 5.153 1.298 1.355 1.86 -2.612 0 0zm30.68 16.15l0.236 1.473c5.995,-7.672 8.534,-16.583 7.615,-26.736l-5.334 -0.419c1.81,8.777 0.971,17.337 -2.517,25.682l0 0zm-9.549 -9.326l7.692 -2.154 0 0 -8.189 0.811 0.497 1.343z"/>
      </g>
      <polygon class="fil7" points="208.128,40.601 206.801,35.782 196.808,32.741 194.045,36.637 "/>
      <path class="fil8" d="M226.966 22.319c-1.607,-0.567 -3.208,-1.044 -4.803,-1.43 -6.946,0.711 -13.427,2.56 -19.443,5.545l-2.664 -3.118 -18.383 13.754c0.393,3.004 0.132,5.692 -0.783,8.063 -1.303,3.488 -0.342,6.791 2.883,9.906l5.362 -7.603 -1.585 -6.645 3.337 -2.897 5.921 -5.153 9.993 3.041 1.327 4.819 0.587 2.102 5.964 -0.585 8.189 -0.811 0 0 1.857 11.48c3.488,-8.345 4.327,-16.905 2.517,-25.682l-2.492 -0.195 2.216 -4.591z"/>
     </g>
    </g>
   </g>
  </g>
  <g>
   <g>
    <g>
     <g>
      <polygon class="fil0" points="350.588,59.954 359.803,65.241 369.729,61.456 "/>
      <path class="fil1" d="M381.371 37.093c-0.2,-2.992 -1.778,-4.604 -4.736,-4.836l-30.257 -2.375c-2.924,-0.229 -4.737,1.15 -5.44,4.137 -1.535,6.768 -2.072,13.613 -1.612,20.537 0.231,3.027 1.808,4.656 4.732,4.885l6.53 0.513 19.141 1.502 4.586 0.36c2.957,0.232 4.788,-1.145 5.491,-4.133 1.556,-6.632 2.078,-13.495 1.565,-20.59z"/>
     </g>
    </g>
   </g>
   <g>
    <g>
     <g>
      <g>
       <path class="fil2" d="M353.875 50.031c1.03,0.081 1.907,-0.235 2.632,-0.947 0.658,-0.563 1.063,-1.249 1.215,-2.061l-7.228 -0.568c0.045,0.828 0.322,1.568 0.829,2.222 0.671,0.822 1.522,1.273 2.552,1.354l0 0zm18.543 1.455c1.03,0.081 1.907,-0.235 2.632,-0.947 0.658,-0.562 1.063,-1.249 1.215,-2.061l-7.228 -0.568c0.046,0.828 0.322,1.569 0.829,2.222 0.671,0.822 1.521,1.273 2.552,1.354l0 0zm-7.303 2.938l-0.349 -1.933 -6.291 0.91c-0.282,0.613 -0.451,1.269 -0.505,1.966 -0.011,0.134 -0.021,0.266 -0.032,0.399l7.177 -1.342z"/>
      </g>
      <path class="fil4" d="M367.55 52.157c-0.977,-1.18 -2.214,-1.828 -3.709,-1.946 -1.495,-0.117 -2.818,0.331 -3.967,1.344 -0.609,0.521 -1.076,1.136 -1.399,1.846l6.291 -0.91 0.349 1.933 3.365 -0.689c-0.224,-0.553 -0.534,-1.079 -0.93,-1.578z"/>
      <g>
       <path class="fil3" d="M377.837 43.787c-0.181,-0.249 -0.42,-0.401 -0.717,-0.458 -2.333,-0.517 -4.634,-1.45 -6.902,-2.798 -0.222,-0.152 -0.471,-0.171 -0.748,-0.059 -0.24,0.081 -0.437,0.249 -0.591,0.505 -0.154,0.255 -0.205,0.486 -0.154,0.69 0.112,0.276 0.279,0.49 0.501,0.641 2.498,1.4 4.996,2.382 7.492,2.945 0.325,0.126 0.595,0.097 0.81,-0.086 0.181,-0.187 0.298,-0.395 0.35,-0.625 0.09,-0.294 0.076,-0.546 -0.041,-0.755l0 0zm-19.213 -2.511c0.243,-0.115 0.407,-0.286 0.492,-0.514 0.121,-0.258 0.122,-0.491 0.005,-0.701 -0.11,-0.31 -0.278,-0.507 -0.505,-0.592 -0.259,-0.12 -0.509,-0.123 -0.752,-0.008 -2.451,0.977 -4.856,1.591 -7.216,1.841 -0.338,0.04 -0.579,0.138 -0.725,0.294 -0.218,0.217 -0.288,0.462 -0.209,0.736 0.01,0.301 0.109,0.526 0.298,0.675 0.217,0.218 0.477,0.322 0.778,0.312 2.527,-0.236 5.138,-0.918 7.834,-2.043z"/>
      </g>
     </g>
    </g>
   </g>
   <g>
    <g>
     <g>
      <path class="fil5" d="M347.016 48.59c-0.028,-0.07 -0.108,-0.109 -0.241,-0.12 -0.097,-0.041 -0.198,-0.032 -0.303,0.027l-0.683 0.398c-0.069,0.028 -0.124,0.09 -0.166,0.187 -0.007,0.1 0.002,0.201 0.027,0.303l1.493 3.979c0.031,0.036 0.045,0.071 0.042,0.104l2.361 3.144c0.061,0.072 0.159,0.113 0.292,0.123 0.097,0.042 0.198,0.033 0.303,-0.026l0.579 -0.356c0.072,-0.061 0.128,-0.14 0.169,-0.237 0.041,-0.097 0.049,-0.197 0.024,-0.299l-1.405 -3.822c0.002,-0.033 -0.012,-0.068 -0.042,-0.104l-2.45 -3.301z"/>
     </g>
    </g>
   </g>
   <g>
    <g>
     <g>
      <g>
       <path class="fil6" d="M356.106 20.966l2.664 3.118c6.016,-2.985 12.497,-4.834 19.444,-5.545 -5.757,-1.34 -11.434,-1.435 -17.031,-0.284l3.147 -3.665c-6.044,-1.557 -11.108,-0.517 -15.191,3.121l-3.928 3.403 -2.794 -1.473 -5.604 10.694c0.453,1.532 0.756,2.994 0.91,4.385l18.383 -13.754 0 0zm-6.011 13.321l2.763 -3.896 -5.921 5.152 1.298 1.356 1.86 -2.612 0 0zm30.68 16.15l0.236 1.473c5.995,-7.671 8.534,-16.583 7.615,-26.736l-5.334 -0.419c1.811,8.777 0.971,17.338 -2.517,25.682l0 0zm-9.549 -9.326l7.692 -2.155 0 0 -8.189 0.812 0.497 1.343z"/>
      </g>
      <polygon class="fil7" points="364.178,38.251 362.851,33.432 352.858,30.391 350.095,34.287 "/>
      <path class="fil8" d="M383.016 19.969c-1.607,-0.567 -3.208,-1.044 -4.802,-1.43 -6.947,0.711 -13.428,2.56 -19.444,5.545l-2.664 -3.118 -18.383 13.754c0.393,3.004 0.132,5.692 -0.783,8.064 -1.303,3.488 -0.342,6.789 2.883,9.905l5.362 -7.603 -1.585 -6.645 3.337 -2.898 5.921 -5.152 9.993 3.041 1.327 4.819 0.587 2.102 5.964 -0.585 8.189 -0.812 0 0 1.857 11.481c3.488,-8.344 4.328,-16.905 2.517,-25.682l-2.492 -0.196 2.216 -4.59z"/>
     </g>
    </g>
   </g>
  </g>
  <g>
   <g>
    <g>
     <g>
      <polygon class="fil0" points="531.17,63.986 521.227,67.728 512.036,62.4 "/>
      <path class="fil1" d="M504.451 36.486c0.677,-2.921 2.493,-4.259 5.449,-4.014l30.246 2.507c2.924,0.242 4.492,1.894 4.707,4.956 0.429,6.926 -0.138,13.768 -1.701,20.529 -0.713,2.951 -2.531,4.305 -5.455,4.063l-6.527 -0.541 -19.134 -1.586 -4.584 -0.379c-2.957,-0.245 -4.542,-1.899 -4.757,-4.96 -0.473,-6.796 0.112,-13.654 1.756,-20.575z"/>
     </g>
    </g>
   </g>
   <g>
    <g>
     <g>
      <g>
       <path class="fil8" d="M505.572 19.32c1.677,-0.301 3.334,-0.516 4.97,-0.642 6.742,1.817 12.843,4.68 18.303,8.591l3.129 -2.65 15.94 16.523c-0.681,2.261 -0.925,4.398 -0.732,6.411 0.026,0.566 0.097,1.124 0.212,1.673 0.727,3.652 -0.531,6.524 -3.775,8.618l-6.427 -0.533 -5.496 3.96 -9.877 -7.341 -3.953 1.679 -5.42 -4.212 -8.188 9.807c-2.27,-3.073 -2.88,-6.418 -1.827,-10.035l0.469 -1.416c-2.106,-8.796 -1.561,-17.38 1.632,-25.753l2.491 0.206 -1.451 -4.886 0 0zm1.001 19.399l0 0 7.248 3.36 0.705 -1.246 -7.953 -2.114 0 0zm30.616 2.888l1.498 -1.13 -5.018 -6.035 3.52 7.165z"/>
      </g>
      <g>
       <path class="fil9" d="M538.687 40.477l-1.498 1.13 -3.52 -7.165 5.018 6.035 0 0zm-32.114 -1.758l0 0 7.953 2.114 -0.705 1.246 -7.248 -3.36z"/>
      </g>
      <g>
       <path class="fil6" d="M502.9 49.753l-0.469 1.416c-4.688,-8.533 -5.765,-17.737 -3.23,-27.611l5.331 0.442c-3.193,8.373 -3.738,16.957 -1.632,25.753l0 0zm29.074 -25.134l-3.129 2.65c-5.46,-3.911 -11.561,-6.774 -18.303,-8.591 5.897,-0.399 11.515,0.418 16.855,2.451l-2.518 -4.122c6.216,-0.569 11.047,1.27 14.494,5.516l3.331 3.989 2.994 -1.007 3.817 11.455c-0.693,1.439 -1.226,2.833 -1.601,4.182l-15.94 -16.523z"/>
      </g>
     </g>
    </g>
   </g>
  </g>
  <g>
   <g>
    <g>
     <g>
      <polygon class="fil0" points="271.189,77.11 280.38,82.437 290.324,78.696 "/>
      <path class="fil1" d="M302.071 54.383c-0.186,-2.992 -1.758,-4.611 -4.714,-4.856l-30.246 -2.507c-2.924,-0.242 -4.743,1.129 -5.459,4.114 -1.563,6.76 -2.13,13.603 -1.701,20.529 0.217,3.028 1.788,4.664 4.711,4.906l6.527 0.541 19.135 1.586 4.584 0.379c2.956,0.245 4.792,-1.124 5.508,-4.109 1.586,-6.625 2.138,-13.485 1.655,-20.583z"/>
     </g>
    </g>
   </g>
   <g>
    <g>
     <g>
      <g>
       <path class="fil2" d="M274.519 67.201c1.03,0.085 1.909,-0.227 2.636,-0.936 0.661,-0.559 1.069,-1.244 1.224,-2.055l-7.225 -0.599c0.042,0.827 0.315,1.569 0.819,2.225 0.668,0.825 1.516,1.28 2.546,1.365l0 0zm18.536 1.536c1.03,0.086 1.909,-0.226 2.637,-0.935 0.66,-0.56 1.068,-1.245 1.223,-2.056l-7.224 -0.599c0.041,0.828 0.314,1.569 0.818,2.225 0.668,0.825 1.517,1.28 2.546,1.365l0 0zm-11.159 3.892c1.086,0.092 2.121,0.111 3.106,0.056l0.119 -1.445 -6.178 -1.114c-0.113,0.073 -0.237,0.147 -0.37,0.221 -0.246,0.146 -0.397,0.351 -0.452,0.614 -0.089,0.26 -0.059,0.514 0.087,0.76 0.116,0.245 0.303,0.411 0.561,0.498 0.284,0.12 1.327,0.257 3.127,0.41z"/>
      </g>
      <path class="fil4" d="M290.183 70.707c-0.114,-0.244 -0.299,-0.427 -0.557,-0.548 -3.94,-1.61 -7.501,-1.621 -10.683,-0.033l6.178 1.114 -0.119 1.445c0.666,-0.031 1.307,-0.095 1.922,-0.191 1.556,-0.241 2.457,-0.417 2.703,-0.529 0.241,-0.08 0.422,-0.249 0.544,-0.507 0.088,-0.26 0.092,-0.511 0.012,-0.751z"/>
      <g>
       <path class="fil3" d="M278.934 60.543c0.269,-0.011 0.511,-0.108 0.726,-0.291 0.183,-0.185 0.269,-0.413 0.258,-0.681 -0.009,-0.302 -0.106,-0.544 -0.291,-0.727 -0.183,-0.216 -0.409,-0.318 -0.677,-0.307 -2.644,0.016 -5.107,-0.322 -7.392,-1.014 -0.293,-0.091 -0.561,-0.079 -0.805,0.034 -0.244,0.114 -0.394,0.319 -0.453,0.615 -0.088,0.26 -0.075,0.512 0.038,0.755 0.114,0.244 0.317,0.411 0.611,0.503 2.447,0.737 5.109,1.109 7.985,1.113l0 0zm19.071 -0.677c-0.222,-0.152 -0.485,-0.208 -0.789,-0.166 -2.367,0.306 -4.853,0.234 -7.457,-0.217 -0.264,-0.055 -0.503,0.009 -0.719,0.192 -0.213,0.149 -0.348,0.372 -0.407,0.669 -0.055,0.263 -0.008,0.5 0.142,0.714 0.183,0.215 0.406,0.351 0.669,0.406 2.837,0.47 5.524,0.542 8.059,0.217 0.305,-0.042 0.533,-0.174 0.685,-0.395 0.152,-0.222 0.206,-0.468 0.162,-0.739 -0.009,-0.302 -0.124,-0.529 -0.345,-0.681z"/>
      </g>
     </g>
    </g>
   </g>
   <g>
    <g>
     <g>
      <path class="fil5" d="M267.667 65.73c-0.027,-0.069 -0.108,-0.109 -0.241,-0.12 -0.096,-0.042 -0.198,-0.033 -0.303,0.025l-0.685 0.395c-0.069,0.027 -0.124,0.09 -0.165,0.187 -0.009,0.099 0,0.2 0.024,0.303l1.476 3.985c0.031,0.036 0.045,0.071 0.042,0.104l2.347 3.155c0.061,0.071 0.158,0.113 0.291,0.124 0.097,0.042 0.198,0.033 0.303,-0.025l0.581 -0.353c0.072,-0.061 0.129,-0.14 0.17,-0.237 0.042,-0.097 0.05,-0.197 0.025,-0.299l-1.388 -3.828c0.002,-0.033 -0.011,-0.068 -0.042,-0.104l-2.435 -3.312z"/>
     </g>
    </g>
   </g>
   <g>
    <g>
     <g>
      <g>
       <path class="fil6" d="M276.877 38.147l2.65 3.13c6.029,-2.959 12.519,-4.78 19.468,-5.461 -5.751,-1.365 -11.427,-1.484 -17.029,-0.358l3.163 -3.651c-6.038,-1.584 -11.106,-0.566 -15.204,3.055l-3.943 3.385 -2.787 -1.485 -5.651 10.67c0.446,1.533 0.743,2.996 0.891,4.388l18.442 -13.673 0 0zm-6.069 13.294l2.781 -3.884 -5.944 5.127 1.292 1.361 1.871 -2.604 0 0zm30.609 16.284l0.229 1.473c6.029,-7.645 8.606,-16.545 7.732,-26.702l-5.331 -0.442c1.771,8.785 0.895,17.342 -2.63,25.671l0 0zm-9.508 -9.368l7.701 -2.121 0 0 -8.192 0.776 0.491 1.345z"/>
      </g>
      <polygon class="fil7" points="284.873,55.467 283.568,50.642 273.589,47.557 270.808,51.441 "/>
      <path class="fil8" d="M303.791 37.267c-1.604,-0.574 -3.203,-1.058 -4.796,-1.451 -6.949,0.681 -13.439,2.502 -19.468,5.461l-2.65 -3.13 -18.442 13.673c0.38,3.006 0.107,5.692 -0.819,8.06 -1.318,3.482 -0.371,6.788 2.841,9.918l5.394 -7.58 -1.556 -6.651 3.35 -2.883 5.944 -5.127 9.979 3.085 1.305 4.825 0.579 2.104 5.966 -0.559 8.192 -0.776 0 0 1.807 11.489c3.525,-8.329 4.401,-16.886 2.63,-25.671l-2.492 -0.206 2.236 -4.581z"/>
     </g>
    </g>
   </g>
  </g>
  <g>
   <g>
    <g>
     <g>
      <polygon class="fil0" points="178.889,177.83 188.364,182.633 198.082,178.341 "/>
      <path class="fil1" d="M208.449 153.409c-0.354,-2.978 -2.014,-4.506 -4.979,-4.585l-30.339 -0.808c-2.932,-0.078 -4.672,1.393 -5.219,4.413 -1.183,6.837 -1.365,13.701 -0.549,20.592 0.387,3.011 2.046,4.556 4.978,4.634l6.548 0.175 19.193 0.511 4.598 0.122c2.965,0.079 4.722,-1.391 5.269,-4.411 1.213,-6.703 1.379,-13.584 0.5,-20.643z"/>
     </g>
    </g>
   </g>
   <g>
    <g>
     <g>
      <g>
       <path class="fil2" d="M181.658 167.75c1.033,0.028 1.893,-0.333 2.58,-1.082 0.628,-0.595 0.997,-1.303 1.107,-2.121l-7.247 -0.193c0.088,0.824 0.402,1.549 0.942,2.176 0.713,0.786 1.585,1.192 2.618,1.22l0 0zm18.593 0.495c1.033,0.028 1.893,-0.333 2.58,-1.082 0.628,-0.595 0.997,-1.302 1.107,-2.121l-7.247 -0.193c0.088,0.824 0.402,1.549 0.942,2.176 0.713,0.786 1.585,1.193 2.618,1.22l0 0zm-10.923 4.511c1.089,0.031 2.124,-0.008 3.104,-0.118l0.038 -1.449 -6.231 -0.766c-0.109,0.079 -0.228,0.159 -0.357,0.24 -0.237,0.161 -0.377,0.374 -0.417,0.639 -0.074,0.265 -0.031,0.517 0.13,0.754 0.129,0.238 0.325,0.393 0.588,0.466 0.29,0.104 1.338,0.181 3.145,0.234z"/>
      </g>
      <path class="fil4" d="M197.494 170.373c-0.127,-0.237 -0.323,-0.409 -0.587,-0.516 -4.024,-1.387 -7.58,-1.198 -10.668,0.566l6.231 0.766 -0.038 1.449c0.663,-0.068 1.299,-0.168 1.908,-0.299 1.541,-0.327 2.43,-0.553 2.669,-0.679 0.236,-0.094 0.408,-0.273 0.515,-0.536 0.073,-0.265 0.063,-0.516 -0.03,-0.751z"/>
      <g>
       <path class="fil3" d="M185.693 160.855c0.268,-0.026 0.504,-0.136 0.709,-0.331 0.172,-0.196 0.245,-0.427 0.219,-0.694 -0.026,-0.301 -0.136,-0.537 -0.331,-0.709 -0.195,-0.206 -0.426,-0.295 -0.693,-0.269 -2.639,0.163 -5.118,-0.036 -7.437,-0.598 -0.298,-0.075 -0.565,-0.049 -0.802,0.079 -0.237,0.127 -0.376,0.339 -0.417,0.639 -0.074,0.264 -0.048,0.515 0.079,0.752 0.127,0.237 0.34,0.392 0.638,0.467 2.485,0.6 5.164,0.821 8.035,0.664l0 0zm19.003 -1.744c-0.23,-0.14 -0.495,-0.18 -0.797,-0.122 -2.346,0.438 -4.832,0.505 -7.458,0.202 -0.266,-0.041 -0.501,0.037 -0.706,0.231 -0.205,0.162 -0.328,0.391 -0.369,0.69 -0.04,0.266 0.02,0.501 0.182,0.706 0.194,0.205 0.424,0.328 0.69,0.368 2.859,0.31 5.546,0.231 8.059,-0.235 0.302,-0.059 0.522,-0.203 0.662,-0.433 0.139,-0.23 0.179,-0.479 0.12,-0.747 -0.026,-0.301 -0.153,-0.521 -0.383,-0.66z"/>
      </g>
     </g>
    </g>
   </g>
   <g>
    <g>
     <g>
      <path class="fil5" d="M174.735 166.665c-0.031,-0.067 -0.114,-0.103 -0.247,-0.106 -0.099,-0.036 -0.2,-0.022 -0.301,0.042l-0.662 0.432c-0.068,0.032 -0.119,0.097 -0.156,0.196 -0.002,0.1 0.012,0.2 0.042,0.301l1.697 3.897c0.033,0.034 0.048,0.068 0.048,0.101l2.52 3.018c0.065,0.069 0.164,0.105 0.297,0.108 0.099,0.036 0.2,0.022 0.301,-0.042l0.561 -0.385c0.068,-0.065 0.121,-0.147 0.156,-0.246 0.036,-0.099 0.039,-0.199 0.008,-0.3l-1.6 -3.744c0,-0.033 -0.015,-0.067 -0.048,-0.101l-2.616 -3.171z"/>
     </g>
    </g>
   </g>
   <g>
    <g>
     <g>
      <g>
       <path class="fil6" d="M182.385 138.61l2.821 2.976c5.854,-3.292 12.231,-5.473 19.131,-6.543 -5.818,-1.04 -11.492,-0.841 -17.022,0.597l2.953 -3.822c-6.116,-1.244 -11.119,0.057 -15.009,3.901l-3.747 3.601 -2.866 -1.326 -5.043 10.969c0.531,1.506 0.909,2.95 1.135,4.332l17.647 -14.685 0 0zm-5.315 13.613l2.559 -4.034 -5.647 5.452 1.366 1.287 1.722 -2.705 0 0zm31.473 14.542l0.312 1.459c5.591,-7.97 7.665,-17.002 6.223,-27.093l-5.348 -0.142c2.261,8.671 1.866,17.263 -1.187,25.776l0 0zm-10.018 -8.819l7.57 -2.549 0 0 -8.135 1.233 0.565 1.316z"/>
      </g>
      <polygon class="fil7" points="191.339,155.454 189.765,150.71 179.629,148.189 177.07,152.223 "/>
      <path class="fil8" d="M209.207 136.223c-1.634,-0.483 -3.258,-0.876 -4.87,-1.18 -6.9,1.07 -13.277,3.251 -19.131,6.543l-2.821 -2.976 -17.647 14.685c0.547,2.979 0.426,5.677 -0.366,8.093 -1.12,3.55 0.01,6.798 3.392,9.743l4.961 -7.87 -1.926 -6.554 3.183 -3.066 5.647 -5.452 10.136 2.521 1.574 4.744 0.695 2.069 5.926 -0.893 8.135 -1.233 0 0 2.448 11.368c3.053,-8.513 3.448,-17.105 1.187,-25.776l-2.499 -0.067 1.976 -4.699z"/>
     </g>
    </g>
   </g>
  </g>
  <g>
   <g>
    <g>
     <g>
      <polygon class="fil0" points="503.739,175.28 513.215,180.083 522.932,175.791 "/>
      <path class="fil1" d="M533.299 150.858c-0.354,-2.977 -2.014,-4.504 -4.979,-4.583l-30.339 -0.809c-2.932,-0.078 -4.672,1.393 -5.219,4.413 -1.182,6.837 -1.365,13.701 -0.548,20.592 0.386,3.011 2.046,4.556 4.978,4.634l6.547 0.175 19.193 0.511 4.598 0.122c2.966,0.079 4.722,-1.391 5.269,-4.411 1.213,-6.703 1.379,-13.584 0.5,-20.644z"/>
     </g>
    </g>
   </g>
   <g>
    <g>
     <g>
      <g>
       <path class="fil2" d="M506.509 165.2c1.033,0.028 1.892,-0.333 2.579,-1.082 0.628,-0.595 0.998,-1.302 1.107,-2.121l-7.247 -0.193c0.088,0.824 0.402,1.549 0.942,2.176 0.713,0.786 1.586,1.192 2.619,1.22l0 0zm18.593 0.495c1.033,0.028 1.892,-0.333 2.579,-1.081 0.628,-0.596 0.997,-1.303 1.107,-2.122l-7.247 -0.193c0.088,0.824 0.402,1.549 0.942,2.176 0.713,0.786 1.586,1.193 2.619,1.22l0 0zm-10.924 4.511c1.089,0.031 2.124,-0.008 3.104,-0.118l0.039 -1.449 -6.232 -0.766c-0.108,0.079 -0.227,0.159 -0.356,0.241 -0.238,0.16 -0.377,0.373 -0.418,0.638 -0.073,0.265 -0.03,0.517 0.13,0.754 0.13,0.238 0.325,0.394 0.588,0.466 0.291,0.104 1.339,0.181 3.145,0.234z"/>
      </g>
      <path class="fil4" d="M522.344 167.823c-0.127,-0.237 -0.323,-0.409 -0.586,-0.516 -4.025,-1.387 -7.581,-1.198 -10.669,0.566l6.232 0.766 -0.039 1.449c0.663,-0.068 1.299,-0.168 1.908,-0.299 1.541,-0.327 2.431,-0.553 2.67,-0.679 0.235,-0.094 0.407,-0.273 0.514,-0.536 0.074,-0.265 0.064,-0.516 -0.03,-0.751z"/>
      <g>
       <path class="fil3" d="M510.544 158.305c0.267,-0.026 0.503,-0.137 0.709,-0.331 0.172,-0.196 0.245,-0.427 0.218,-0.694 -0.025,-0.301 -0.136,-0.538 -0.331,-0.71 -0.195,-0.205 -0.426,-0.294 -0.693,-0.268 -2.639,0.163 -5.118,-0.037 -7.437,-0.598 -0.298,-0.075 -0.565,-0.049 -0.802,0.078 -0.237,0.127 -0.376,0.341 -0.417,0.64 -0.074,0.264 -0.047,0.515 0.08,0.752 0.127,0.237 0.34,0.392 0.638,0.467 2.484,0.6 5.163,0.821 8.035,0.664l0 0zm19.002 -1.744c-0.229,-0.14 -0.495,-0.18 -0.797,-0.122 -2.345,0.438 -4.831,0.505 -7.457,0.202 -0.266,-0.041 -0.502,0.036 -0.707,0.231 -0.204,0.161 -0.327,0.391 -0.368,0.691 -0.041,0.265 0.02,0.5 0.181,0.705 0.195,0.205 0.424,0.328 0.69,0.368 2.86,0.31 5.546,0.231 8.059,-0.235 0.302,-0.059 0.523,-0.203 0.662,-0.433 0.14,-0.23 0.179,-0.479 0.12,-0.747 -0.025,-0.301 -0.153,-0.521 -0.383,-0.66z"/>
      </g>
     </g>
    </g>
   </g>
   <g>
    <g>
     <g>
      <path class="fil5" d="M499.585 164.115c-0.031,-0.067 -0.113,-0.103 -0.247,-0.106 -0.099,-0.036 -0.199,-0.022 -0.301,0.042l-0.662 0.432c-0.068,0.032 -0.119,0.097 -0.155,0.196 -0.003,0.1 0.011,0.2 0.042,0.301l1.697 3.897c0.032,0.034 0.048,0.068 0.047,0.101l2.521 3.018c0.064,0.069 0.163,0.105 0.297,0.108 0.099,0.036 0.199,0.022 0.301,-0.042l0.56 -0.385c0.069,-0.065 0.121,-0.147 0.157,-0.246 0.036,-0.099 0.039,-0.199 0.008,-0.3l-1.601 -3.744c0.001,-0.033 -0.015,-0.067 -0.047,-0.101l-2.617 -3.171z"/>
     </g>
    </g>
   </g>
   <g>
    <g>
     <g>
      <g>
       <path class="fil6" d="M507.235 136.06l2.821 2.976c5.854,-3.292 12.231,-5.473 19.131,-6.543 -5.818,-1.041 -11.491,-0.841 -17.022,0.597l2.953 -3.822c-6.116,-1.244 -11.119,0.057 -15.008,3.901l-3.748 3.601 -2.865 -1.326 -5.044 10.969c0.531,1.506 0.91,2.95 1.135,4.332l17.647 -14.685 0 0zm-5.314 13.613l2.558 -4.034 -5.647 5.452 1.366 1.287 1.723 -2.705 0 0zm31.473 14.542l0.311 1.459c5.591,-7.97 7.665,-17.002 6.223,-27.093l-5.348 -0.142c2.261,8.671 1.866,17.263 -1.186,25.776l0 0zm-10.019 -8.819l7.571 -2.549 0 0 -8.136 1.234 0.565 1.315z"/>
      </g>
      <polygon class="fil7" points="516.189,152.904 514.615,148.16 504.479,145.639 501.921,149.673 "/>
      <path class="fil8" d="M534.057 133.673c-1.634,-0.483 -3.257,-0.876 -4.87,-1.18 -6.9,1.07 -13.277,3.251 -19.131,6.543l-2.821 -2.976 -17.647 14.685c0.548,2.979 0.426,5.677 -0.365,8.092 -1.121,3.551 0.009,6.799 3.391,9.744l4.961 -7.87 -1.926 -6.554 3.183 -3.066 5.647 -5.452 10.136 2.521 1.574 4.744 0.696 2.069 5.925 -0.892 8.136 -1.234 0 0 2.448 11.368c3.052,-8.513 3.448,-17.105 1.186,-25.776l-2.499 -0.067 1.976 -4.699z"/>
     </g>
    </g>
   </g>
  </g>
  <g>
   <g>
    <g>
     <g>
      <polygon class="fil0" points="588.89,170.28 598.365,175.083 608.082,170.791 "/>
      <path class="fil1" d="M618.449 145.859c-0.354,-2.978 -2.013,-4.506 -4.979,-4.585l-30.339 -0.808c-2.932,-0.078 -4.671,1.393 -5.219,4.413 -1.182,6.837 -1.365,13.701 -0.548,20.592 0.387,3.011 2.046,4.556 4.978,4.634l6.548 0.175 19.192 0.511 4.599 0.122c2.965,0.079 4.721,-1.391 5.269,-4.411 1.212,-6.703 1.378,-13.584 0.499,-20.643z"/>
     </g>
    </g>
   </g>
   <g>
    <g>
     <g>
      <g>
       <path class="fil2" d="M591.659 160.2c1.033,0.028 1.893,-0.333 2.579,-1.082 0.629,-0.595 0.997,-1.303 1.107,-2.121l-7.247 -0.193c0.088,0.824 0.402,1.549 0.942,2.176 0.713,0.786 1.586,1.192 2.619,1.22l0 0zm18.593 0.495c1.033,0.028 1.893,-0.333 2.579,-1.082 0.629,-0.595 0.997,-1.302 1.107,-2.121l-7.247 -0.193c0.088,0.824 0.402,1.549 0.942,2.176 0.713,0.786 1.586,1.193 2.619,1.22l0 0zm-10.924 4.511c1.09,0.031 2.124,-0.008 3.104,-0.118l0.039 -1.449 -6.232 -0.766c-0.108,0.079 -0.227,0.159 -0.357,0.24 -0.237,0.161 -0.376,0.374 -0.416,0.639 -0.074,0.265 -0.031,0.517 0.13,0.754 0.129,0.238 0.325,0.393 0.587,0.466 0.291,0.104 1.339,0.181 3.145,0.234z"/>
      </g>
      <path class="fil4" d="M607.494 162.823c-0.127,-0.237 -0.322,-0.409 -0.586,-0.516 -4.025,-1.387 -7.581,-1.198 -10.669,0.566l6.232 0.766 -0.039 1.449c0.663,-0.068 1.299,-0.168 1.909,-0.299 1.54,-0.327 2.43,-0.554 2.669,-0.679 0.236,-0.094 0.407,-0.273 0.514,-0.536 0.074,-0.265 0.064,-0.516 -0.03,-0.751z"/>
      <g>
       <path class="fil3" d="M595.694 153.305c0.267,-0.026 0.504,-0.136 0.709,-0.331 0.172,-0.196 0.244,-0.427 0.218,-0.694 -0.025,-0.301 -0.135,-0.537 -0.331,-0.709 -0.194,-0.206 -0.426,-0.295 -0.693,-0.269 -2.638,0.163 -5.117,-0.036 -7.437,-0.598 -0.298,-0.075 -0.565,-0.049 -0.802,0.079 -0.237,0.127 -0.376,0.339 -0.417,0.638 -0.074,0.265 -0.047,0.516 0.08,0.753 0.127,0.237 0.34,0.392 0.638,0.467 2.485,0.6 5.163,0.821 8.035,0.664l0 0zm19.003 -1.744c-0.23,-0.14 -0.496,-0.18 -0.798,-0.122 -2.345,0.438 -4.831,0.505 -7.457,0.202 -0.266,-0.041 -0.501,0.037 -0.707,0.231 -0.204,0.161 -0.327,0.391 -0.368,0.69 -0.041,0.266 0.02,0.501 0.181,0.706 0.194,0.205 0.425,0.328 0.69,0.368 2.86,0.31 5.546,0.231 8.059,-0.235 0.302,-0.059 0.522,-0.203 0.662,-0.433 0.139,-0.23 0.179,-0.479 0.12,-0.747 -0.025,-0.301 -0.153,-0.521 -0.382,-0.66z"/>
      </g>
     </g>
    </g>
   </g>
   <g>
    <g>
     <g>
      <path class="fil5" d="M584.735 159.115c-0.031,-0.067 -0.114,-0.103 -0.247,-0.106 -0.099,-0.036 -0.199,-0.022 -0.301,0.042l-0.662 0.432c-0.067,0.032 -0.119,0.097 -0.155,0.196 -0.003,0.1 0.011,0.2 0.042,0.301l1.697 3.897c0.032,0.034 0.048,0.068 0.047,0.101l2.52 3.018c0.065,0.068 0.164,0.105 0.298,0.108 0.099,0.036 0.199,0.022 0.301,-0.042l0.561 -0.385c0.068,-0.065 0.12,-0.147 0.156,-0.246 0.036,-0.099 0.039,-0.199 0.008,-0.3l-1.601 -3.744c0.001,-0.033 -0.015,-0.067 -0.047,-0.101l-2.617 -3.171z"/>
     </g>
    </g>
   </g>
   <g>
    <g>
     <g>
      <g>
       <path class="fil6" d="M592.385 131.06l2.822 2.976c5.853,-3.292 12.23,-5.473 19.13,-6.543 -5.818,-1.04 -11.492,-0.841 -17.021,0.597l2.953 -3.823c-6.117,-1.243 -11.12,0.058 -15.009,3.902l-3.748 3.601 -2.865 -1.326 -5.044 10.969c0.531,1.506 0.91,2.95 1.135,4.332l17.647 -14.685 0 0zm-5.314 13.613l2.558 -4.034 -5.647 5.452 1.366 1.287 1.723 -2.705 0 0zm31.473 14.542l0.311 1.459c5.591,-7.97 7.665,-17.002 6.224,-27.093l-5.348 -0.142c2.26,8.671 1.865,17.263 -1.187,25.776l0 0zm-10.019 -8.819l7.571 -2.549 0 0 -8.136 1.233 0.565 1.316z"/>
      </g>
      <polygon class="fil7" points="601.339,147.904 599.765,143.16 589.629,140.639 587.071,144.673 "/>
      <path class="fil8" d="M619.207 128.673c-1.634,-0.483 -3.257,-0.876 -4.87,-1.18 -6.9,1.07 -13.277,3.251 -19.13,6.543l-2.822 -2.976 -17.647 14.685c0.548,2.979 0.426,5.677 -0.366,8.093 -1.12,3.55 0.01,6.798 3.392,9.743l4.962 -7.87 -1.927 -6.554 3.183 -3.066 5.647 -5.452 10.136 2.521 1.574 4.744 0.695 2.069 5.926 -0.893 8.136 -1.233 0 0 2.448 11.368c3.052,-8.513 3.447,-17.105 1.187,-25.776l-2.499 -0.067 1.975 -4.699z"/>
     </g>
    </g>
   </g>
  </g>
  <g>
   <g>
    <g>
     <g>
      <polygon class="fil0" points="669.258,170.676 678.914,175.106 688.456,170.438 "/>
      <path class="fil1" d="M697.842 145.12c-0.47,-2.961 -2.188,-4.423 -5.154,-4.386l-30.347 0.376c-2.933,0.037 -4.614,1.574 -5.043,4.613 -0.915,6.879 -0.83,13.745 0.255,20.598 0.504,2.994 2.223,4.473 5.156,4.436l6.549 -0.081 19.198 -0.238 4.6 -0.057c2.966,-0.038 4.664,-1.575 5.093,-4.614 0.949,-6.745 0.847,-13.628 -0.307,-20.647z"/>
     </g>
    </g>
   </g>
   <g>
    <g>
     <g>
      <g>
       <path class="fil2" d="M671.632 160.496c1.033,-0.013 1.878,-0.407 2.536,-1.182 0.604,-0.619 0.945,-1.34 1.023,-2.162l-7.25 0.09c0.121,0.82 0.463,1.532 1.027,2.137 0.743,0.757 1.63,1.13 2.664,1.117l0 0zm18.598 -0.231c1.033,-0.013 1.878,-0.407 2.535,-1.181 0.605,-0.62 0.946,-1.341 1.024,-2.164l-7.25 0.091c0.121,0.82 0.463,1.532 1.027,2.137 0.743,0.758 1.631,1.13 2.664,1.117l0 0zm-10.739 4.934c1.09,-0.012 2.122,-0.091 3.097,-0.239l-0.018 -1.45 -6.257 -0.522c-0.105,0.083 -0.221,0.168 -0.347,0.255 -0.231,0.169 -0.362,0.387 -0.392,0.654 -0.063,0.268 -0.01,0.517 0.16,0.748 0.138,0.233 0.34,0.381 0.605,0.443 0.295,0.092 1.345,0.129 3.152,0.111z"/>
      </g>
      <path class="fil4" d="M687.558 162.498c-0.137,-0.231 -0.339,-0.395 -0.607,-0.492 -4.075,-1.229 -7.621,-0.901 -10.638,0.982l6.257 0.522 0.018 1.45c0.66,-0.094 1.292,-0.219 1.895,-0.373 1.527,-0.388 2.407,-0.648 2.641,-0.783 0.232,-0.103 0.396,-0.289 0.493,-0.557 0.063,-0.267 0.043,-0.517 -0.059,-0.749z"/>
      <g>
       <path class="fil3" d="M675.395 153.449c0.266,-0.037 0.497,-0.156 0.695,-0.359 0.164,-0.202 0.228,-0.436 0.191,-0.702 -0.037,-0.3 -0.156,-0.532 -0.358,-0.696 -0.203,-0.197 -0.437,-0.278 -0.703,-0.241 -2.63,0.266 -5.115,0.163 -7.455,-0.308 -0.3,-0.062 -0.567,-0.026 -0.798,0.11 -0.232,0.137 -0.362,0.355 -0.392,0.655 -0.063,0.268 -0.027,0.517 0.109,0.749 0.136,0.232 0.355,0.379 0.656,0.442 2.506,0.502 5.191,0.619 8.055,0.35l0 0zm18.92 -2.485c-0.235,-0.13 -0.502,-0.161 -0.802,-0.09 -2.326,0.529 -4.808,0.693 -7.444,0.492 -0.267,-0.03 -0.499,0.056 -0.697,0.259 -0.198,0.169 -0.311,0.404 -0.341,0.704 -0.03,0.267 0.04,0.5 0.209,0.698 0.202,0.197 0.437,0.311 0.704,0.341 2.869,0.197 5.55,0.014 8.044,-0.55 0.299,-0.071 0.513,-0.223 0.644,-0.458 0.13,-0.235 0.161,-0.486 0.09,-0.751 -0.037,-0.3 -0.173,-0.515 -0.407,-0.645z"/>
      </g>
     </g>
    </g>
   </g>
   <g>
    <g>
     <g>
      <path class="fil5" d="M664.671 159.683c-0.034,-0.067 -0.117,-0.099 -0.251,-0.098 -0.1,-0.032 -0.2,-0.014 -0.299,0.054l-0.644 0.458c-0.067,0.035 -0.116,0.102 -0.148,0.202 0.001,0.1 0.019,0.2 0.054,0.299l1.847 3.828c0.034,0.033 0.051,0.066 0.052,0.099l2.636 2.917c0.067,0.066 0.168,0.099 0.301,0.097 0.101,0.032 0.2,0.014 0.3,-0.054l0.545 -0.407c0.065,-0.067 0.114,-0.151 0.146,-0.252 0.032,-0.1 0.031,-0.2 -0.003,-0.299l-1.746 -3.679c-0.001,-0.033 -0.018,-0.067 -0.051,-0.099l-2.739 -3.066z"/>
     </g>
    </g>
   </g>
   <g>
    <g>
     <g>
      <g>
       <path class="fil6" d="M671.22 131.35l2.935 2.863c5.721,-3.518 12.008,-5.946 18.861,-7.284 -5.854,-0.813 -11.515,-0.392 -16.985,1.261l2.801 -3.935c-6.16,-1.004 -11.109,0.491 -14.845,4.485l-3.603 3.744 -2.916 -1.213 -4.611 11.157c0.589,1.485 1.023,2.913 1.303,4.284l17.06 -15.362 0 0zm-4.779 13.81l2.399 -4.13 -5.43 5.668 1.416 1.232 1.615 -2.77 0 0zm32.017 13.303l0.368 1.445c5.275,-8.182 6.996,-17.288 5.161,-27.315l-5.35 0.066c2.598,8.577 2.538,17.178 -0.179,25.804l0 0zm-10.355 -8.422l7.465 -2.843 0 0 -8.081 1.55 0.616 1.293z"/>
      </g>
      <polygon class="fil7" points="680.825,147.831 679.067,143.153 668.84,141.03 666.441,145.16 "/>
      <path class="fil8" d="M697.929 127.918c-1.652,-0.419 -3.29,-0.748 -4.913,-0.989 -6.853,1.338 -13.14,3.766 -18.861,7.284l-2.935 -2.863 -17.06 15.362c0.663,2.956 0.647,5.657 -0.05,8.101 -0.981,3.592 0.276,6.793 3.77,9.604l4.65 -8.058 -2.18 -6.473 3.06 -3.188 5.43 -5.668 10.227 2.123 1.758 4.678 0.775 2.041 5.887 -1.124 8.081 -1.55 0 0 2.89 11.265c2.717,-8.626 2.777,-17.227 0.179,-25.804l-2.499 0.031 1.791 -4.772z"/>
     </g>
    </g>
   </g>
  </g>
  <g>
   <g>
    <g>
     <g>
      <polygon class="fil0" points="429.789,287.18 439.264,291.984 448.982,287.691 "/>
      <path class="fil1" d="M459.349 262.759c-0.354,-2.977 -2.014,-4.506 -4.979,-4.584l-30.339 -0.809c-2.932,-0.078 -4.672,1.393 -5.219,4.413 -1.182,6.838 -1.365,13.702 -0.549,20.592 0.387,3.012 2.047,4.556 4.979,4.634l6.547 0.175 19.193 0.511 4.598 0.122c2.966,0.079 4.722,-1.391 5.269,-4.411 1.213,-6.703 1.379,-13.584 0.5,-20.643z"/>
     </g>
    </g>
   </g>
   <g>
    <g>
     <g>
      <g>
       <path class="fil2" d="M432.559 277.1c1.033,0.028 1.892,-0.333 2.579,-1.082 0.628,-0.595 0.997,-1.302 1.107,-2.121l-7.247 -0.193c0.088,0.824 0.402,1.549 0.942,2.176 0.713,0.786 1.586,1.193 2.619,1.22l0 0zm18.593 0.495c1.033,0.028 1.893,-0.333 2.579,-1.081 0.628,-0.596 0.997,-1.303 1.107,-2.122l-7.247 -0.193c0.088,0.824 0.402,1.55 0.942,2.176 0.713,0.786 1.586,1.193 2.619,1.22l0 0zm-10.924 4.511c1.089,0.031 2.124,-0.008 3.104,-0.117l0.038 -1.45 -6.231 -0.766c-0.108,0.079 -0.227,0.159 -0.357,0.24 -0.237,0.161 -0.377,0.374 -0.417,0.64 -0.073,0.264 -0.03,0.516 0.13,0.753 0.129,0.238 0.325,0.394 0.588,0.466 0.291,0.104 1.339,0.182 3.145,0.234z"/>
      </g>
      <path class="fil4" d="M448.394 279.723c-0.127,-0.237 -0.323,-0.409 -0.586,-0.516 -4.025,-1.386 -7.581,-1.198 -10.669,0.566l6.231 0.766 -0.038 1.45c0.663,-0.069 1.299,-0.169 1.909,-0.3 1.54,-0.327 2.429,-0.553 2.669,-0.679 0.235,-0.094 0.407,-0.272 0.514,-0.536 0.074,-0.265 0.064,-0.515 -0.03,-0.751z"/>
      <g>
       <path class="fil3" d="M436.594 270.205c0.267,-0.026 0.503,-0.136 0.709,-0.331 0.172,-0.195 0.244,-0.427 0.218,-0.694 -0.025,-0.301 -0.135,-0.538 -0.331,-0.709 -0.195,-0.206 -0.426,-0.295 -0.693,-0.269 -2.639,0.163 -5.118,-0.036 -7.437,-0.598 -0.298,-0.075 -0.565,-0.049 -0.802,0.078 -0.237,0.127 -0.376,0.34 -0.417,0.639 -0.074,0.265 -0.047,0.516 0.08,0.753 0.127,0.237 0.34,0.393 0.637,0.467 2.485,0.6 5.164,0.821 8.036,0.664l0 0zm19.002 -1.744c-0.229,-0.14 -0.495,-0.18 -0.797,-0.121 -2.346,0.437 -4.831,0.504 -7.458,0.201 -0.266,-0.04 -0.501,0.037 -0.706,0.231 -0.204,0.161 -0.327,0.391 -0.368,0.69 -0.041,0.266 0.019,0.501 0.181,0.706 0.194,0.205 0.425,0.328 0.69,0.368 2.859,0.31 5.546,0.231 8.059,-0.235 0.302,-0.059 0.522,-0.203 0.662,-0.433 0.139,-0.229 0.179,-0.478 0.12,-0.747 -0.025,-0.301 -0.153,-0.521 -0.383,-0.66z"/>
      </g>
     </g>
    </g>
   </g>
   <g>
    <g>
     <g>
      <path class="fil5" d="M425.635 276.015c-0.031,-0.067 -0.114,-0.103 -0.247,-0.106 -0.099,-0.036 -0.199,-0.022 -0.301,0.042l-0.662 0.432c-0.068,0.032 -0.119,0.097 -0.155,0.196 -0.003,0.1 0.011,0.201 0.042,0.302l1.696 3.896c0.033,0.034 0.049,0.068 0.048,0.101l2.52 3.018c0.065,0.069 0.164,0.105 0.298,0.108 0.099,0.036 0.199,0.022 0.301,-0.042l0.56 -0.385c0.069,-0.065 0.121,-0.147 0.157,-0.246 0.036,-0.099 0.038,-0.199 0.008,-0.3l-1.601 -3.744c0.001,-0.033 -0.015,-0.067 -0.047,-0.101l-2.617 -3.171z"/>
     </g>
    </g>
   </g>
   <g>
    <g>
     <g>
      <g>
       <path class="fil6" d="M433.285 247.96l2.822 2.976c5.853,-3.292 12.23,-5.473 19.13,-6.543 -5.818,-1.04 -11.492,-0.841 -17.021,0.597l2.952 -3.823c-6.116,-1.243 -11.119,0.058 -15.008,3.902l-3.748 3.601 -2.865 -1.326 -5.044 10.969c0.531,1.506 0.909,2.95 1.135,4.332l17.647 -14.685 0 0zm-5.314 13.613l2.558 -4.033 -5.647 5.451 1.366 1.287 1.723 -2.705 0 0zm31.473 14.543l0.311 1.458c5.591,-7.97 7.665,-17.001 6.223,-27.093l-5.348 -0.142c2.261,8.671 1.866,17.264 -1.186,25.777l0 0zm-10.019 -8.82l7.571 -2.549 0 0 -8.136 1.233 0.565 1.316z"/>
      </g>
      <polygon class="fil7" points="442.239,264.804 440.665,260.06 430.529,257.54 427.971,261.573 "/>
      <path class="fil8" d="M460.107 245.573c-1.634,-0.482 -3.257,-0.876 -4.87,-1.18 -6.9,1.07 -13.277,3.251 -19.13,6.543l-2.822 -2.976 -17.647 14.685c0.548,2.979 0.426,5.677 -0.366,8.093 -1.12,3.55 0.01,6.798 3.392,9.743l4.961 -7.87 -1.926 -6.554 3.183 -3.066 5.647 -5.451 10.136 2.52 1.574 4.744 0.695 2.069 5.926 -0.893 8.136 -1.233 0 0 2.448 11.369c3.052,-8.513 3.447,-17.106 1.186,-25.777l-2.499 -0.067 1.976 -4.699z"/>
     </g>
    </g>
   </g>
  </g>
  <g>
   <g>
    <g>
     <g>
      <polygon class="fil0" points="193.215,280.303 203.337,283.528 212.242,277.734 "/>
      <path class="fil1" d="M218.482 251.464c-0.827,-2.882 -2.71,-4.125 -5.65,-3.728l-30.075 4.062c-2.907,0.392 -4.389,2.123 -4.446,5.191 -0.072,6.939 0.847,13.743 2.757,20.414 0.864,2.91 2.75,4.169 5.656,3.777l6.491 -0.877 19.027 -2.569 4.558 -0.615c2.94,-0.398 4.438,-2.13 4.495,-5.199 0.123,-6.81 -0.815,-13.629 -2.813,-20.456z"/>
     </g>
    </g>
   </g>
   <g>
    <g>
     <g>
      <g>
       <path class="fil2" d="M194.334 269.911c1.024,-0.139 1.815,-0.632 2.373,-1.481 0.525,-0.689 0.776,-1.446 0.753,-2.271l-7.184 0.97c0.219,0.799 0.645,1.465 1.278,1.997 0.829,0.661 1.756,0.923 2.78,0.785l0 0zm18.432 -2.489c1.024,-0.139 1.815,-0.632 2.373,-1.481 0.525,-0.689 0.776,-1.446 0.753,-2.271l-7.184 0.97c0.219,0.799 0.645,1.464 1.278,1.997 0.829,0.661 1.756,0.923 2.78,0.785l0 0zm-10.06 6.201c1.081,-0.143 2.096,-0.347 3.045,-0.613l-0.194 -1.437 -6.274 0.242c-0.094,0.096 -0.198,0.194 -0.313,0.295 -0.209,0.196 -0.312,0.429 -0.309,0.697 -0.031,0.274 0.052,0.515 0.249,0.724 0.165,0.214 0.384,0.336 0.655,0.365 0.303,0.056 1.35,-0.035 3.141,-0.273z"/>
      </g>
      <path class="fil4" d="M210.385 269.963c-0.163,-0.213 -0.384,-0.352 -0.661,-0.415 -4.195,-0.724 -7.675,0.032 -10.441,2.267l6.274 -0.242 0.194 1.437c0.644,-0.174 1.256,-0.374 1.836,-0.601 1.468,-0.569 2.31,-0.935 2.526,-1.098 0.218,-0.13 0.359,-0.334 0.422,-0.612 0.03,-0.273 -0.02,-0.518 -0.15,-0.736z"/>
      <g>
       <path class="fil3" d="M197.213 262.459c0.26,-0.069 0.475,-0.216 0.647,-0.441 0.138,-0.22 0.173,-0.46 0.104,-0.72 -0.073,-0.293 -0.22,-0.509 -0.44,-0.647 -0.225,-0.172 -0.468,-0.223 -0.728,-0.154 -2.578,0.583 -5.057,0.784 -7.436,0.6 -0.306,-0.026 -0.566,0.043 -0.779,0.207 -0.214,0.163 -0.317,0.395 -0.31,0.697 -0.03,0.273 0.037,0.517 0.2,0.73 0.163,0.213 0.398,0.333 0.704,0.359 2.549,0.194 5.228,-0.016 8.038,-0.631l0 0zm18.478 -4.766c-0.249,-0.101 -0.518,-0.098 -0.806,0.008 -2.246,0.808 -4.689,1.272 -7.33,1.393 -0.268,0.003 -0.488,0.117 -0.66,0.342 -0.176,0.192 -0.26,0.439 -0.253,0.74 0.002,0.269 0.1,0.491 0.292,0.667 0.224,0.171 0.472,0.256 0.74,0.253 2.872,-0.152 5.511,-0.66 7.917,-1.523 0.289,-0.106 0.483,-0.284 0.584,-0.533 0.101,-0.249 0.101,-0.501 -0.001,-0.756 -0.073,-0.293 -0.235,-0.49 -0.483,-0.591z"/>
      </g>
     </g>
    </g>
   </g>
   <g>
    <g>
     <g>
      <path class="fil5" d="M187.326 269.949c-0.042,-0.062 -0.128,-0.084 -0.26,-0.066 -0.104,-0.02 -0.201,0.01 -0.291,0.09l-0.584 0.533c-0.062,0.042 -0.102,0.115 -0.122,0.218 0.014,0.099 0.043,0.196 0.09,0.291l2.299 3.574c0.037,0.028 0.058,0.059 0.063,0.092l2.971 2.576c0.075,0.057 0.179,0.076 0.311,0.059 0.103,0.019 0.2,-0.011 0.29,-0.09l0.492 -0.47c0.057,-0.075 0.095,-0.164 0.115,-0.268 0.019,-0.103 0.006,-0.202 -0.04,-0.297l-2.18 -3.439c-0.004,-0.033 -0.026,-0.064 -0.063,-0.092l-3.091 -2.711z"/>
     </g>
    </g>
   </g>
   <g>
    <g>
     <g>
      <g>
       <path class="fil6" d="M190.384 241.031l3.262 2.485c5.25,-4.187 11.196,-7.361 17.835,-9.522 -5.909,-0.095 -11.478,1.01 -16.706,3.316l2.303 -4.247c-6.237,-0.247 -10.967,1.838 -14.19,6.255l-3.122 4.155 -3.042 -0.85 -3.221 11.635c0.766,1.402 1.37,2.766 1.814,4.094l15.067 -17.321 0 0zm-3.066 14.288l1.88 -4.391 -4.701 6.285 1.555 1.052 1.266 -2.946 0 0zm33.396 9.314l0.541 1.39c4.242,-8.763 4.843,-18.01 1.804,-27.74l-5.302 0.716c3.621,8.197 4.606,16.742 2.957,25.634l0 0zm-11.301 -7.101l7.064 -3.729 0 0 -7.833 2.521 0.769 1.208z"/>
      </g>
      <polygon class="fil7" points="201.92,256.223 199.607,251.793 189.198,250.928 187.318,255.319 "/>
      <path class="fil8" d="M216.478 234.379c-1.691,-0.215 -3.356,-0.343 -4.997,-0.385 -6.639,2.161 -12.585,5.335 -17.835,9.522l-3.262 -2.485 -15.067 17.321c1.018,2.853 1.33,5.536 0.935,8.047 -0.537,3.684 1.099,6.709 4.909,9.074l3.636 -8.563 -2.951 -6.16 2.651 -3.537 4.701 -6.285 10.409 0.865 2.313 4.43 1.018 1.931 5.706 -1.83 7.833 -2.521 0 0 4.237 10.83c1.649,-8.892 0.664,-17.437 -2.957,-25.634l-2.477 0.335 1.198 -4.955z"/>
     </g>
    </g>
   </g>
  </g>
  <g>
   <g>
    <g>
     <g>
      <polygon class="fil0" points="101.787,297.2 112.015,300.07 120.713,293.97 "/>
      <path class="fil1" d="M126.035 267.498c-0.927,-2.851 -2.852,-4.028 -5.776,-3.528l-29.916 5.106c-2.892,0.493 -4.312,2.274 -4.262,5.343 0.17,6.937 1.325,13.705 3.466,20.305 0.964,2.879 2.893,4.071 5.784,3.578l6.456 -1.102 18.926 -3.23 4.534 -0.774c2.924,-0.499 4.361,-2.283 4.311,-5.352 -0.114,-6.811 -1.289,-13.593 -3.523,-20.346z"/>
     </g>
    </g>
   </g>
   <g>
    <g>
     <g>
      <g>
       <path class="fil2" d="M102.544 286.775c1.019,-0.174 1.792,-0.695 2.32,-1.563 0.5,-0.707 0.725,-1.472 0.673,-2.296l-7.146 1.22c0.247,0.791 0.696,1.441 1.347,1.951 0.852,0.632 1.787,0.861 2.806,0.688l0 0zm18.334 -3.13c1.019,-0.174 1.792,-0.695 2.32,-1.562 0.5,-0.707 0.725,-1.472 0.674,-2.296l-7.147 1.219c0.247,0.791 0.696,1.442 1.348,1.951 0.851,0.633 1.787,0.862 2.805,0.688l0 0zm-9.838 6.549c1.075,-0.181 2.082,-0.421 3.022,-0.719l-0.244 -1.429 -6.262 0.46c-0.091,0.098 -0.192,0.2 -0.302,0.305 -0.202,0.203 -0.297,0.44 -0.285,0.708 -0.021,0.274 0.07,0.512 0.274,0.714 0.173,0.209 0.395,0.323 0.667,0.343 0.305,0.045 1.348,-0.083 3.13,-0.382z"/>
      </g>
      <path class="fil4" d="M118.587 286.268c-0.171,-0.208 -0.396,-0.338 -0.676,-0.392 -4.217,-0.578 -7.668,0.299 -10.355,2.63l6.262 -0.46 0.244 1.429c0.637,-0.196 1.242,-0.418 1.814,-0.665 1.447,-0.62 2.276,-1.015 2.486,-1.185 0.213,-0.138 0.347,-0.347 0.4,-0.626 0.021,-0.274 -0.037,-0.518 -0.175,-0.731z"/>
      <g>
       <path class="fil3" d="M105.161 279.227c0.257,-0.078 0.468,-0.232 0.631,-0.463 0.131,-0.225 0.157,-0.467 0.08,-0.724 -0.084,-0.29 -0.238,-0.5 -0.463,-0.631 -0.231,-0.163 -0.475,-0.206 -0.732,-0.129 -2.557,0.674 -5.027,0.96 -7.411,0.86 -0.307,-0.016 -0.564,0.062 -0.772,0.233 -0.207,0.171 -0.302,0.407 -0.285,0.708 -0.02,0.274 0.055,0.515 0.225,0.722 0.171,0.208 0.41,0.319 0.717,0.335 2.553,0.105 5.224,-0.199 8.01,-0.911l0 0zm18.301 -5.406c-0.253,-0.093 -0.521,-0.08 -0.806,0.036 -2.216,0.885 -4.641,1.434 -7.276,1.647 -0.268,0.013 -0.484,0.134 -0.648,0.365 -0.169,0.197 -0.245,0.447 -0.227,0.748 0.012,0.269 0.117,0.488 0.315,0.657 0.231,0.163 0.48,0.239 0.749,0.227 2.865,-0.252 5.484,-0.851 7.859,-1.798 0.284,-0.116 0.473,-0.3 0.565,-0.553 0.092,-0.252 0.083,-0.504 -0.028,-0.756 -0.083,-0.29 -0.251,-0.481 -0.503,-0.573z"/>
      </g>
     </g>
    </g>
   </g>
   <g>
    <g>
     <g>
      <path class="fil5" d="M95.542 287.057c-0.044,-0.061 -0.132,-0.079 -0.263,-0.057 -0.105,-0.016 -0.2,0.017 -0.288,0.1l-0.565 0.553c-0.06,0.044 -0.098,0.118 -0.114,0.222 0.017,0.099 0.05,0.194 0.1,0.287l2.422 3.493c0.038,0.027 0.06,0.057 0.066,0.09l3.059 2.47c0.077,0.054 0.181,0.071 0.313,0.048 0.104,0.016 0.2,-0.017 0.287,-0.099l0.475 -0.487c0.054,-0.077 0.09,-0.168 0.106,-0.272 0.016,-0.104 -0.001,-0.203 -0.051,-0.296l-2.298 -3.361c-0.006,-0.033 -0.028,-0.063 -0.066,-0.09l-3.183 -2.601z"/>
     </g>
    </g>
   </g>
   <g>
    <g>
     <g>
      <g>
       <path class="fil6" d="M97.591 258.049l3.346 2.371c5.102,-4.367 10.933,-7.746 17.493,-10.137 -5.909,0.111 -11.436,1.409 -16.581,3.895l2.154 -4.324c-6.242,-0.03 -10.897,2.218 -13.964,6.746l-2.975 4.261 -3.069 -0.745 -2.815 11.741c0.814,1.374 1.466,2.717 1.956,4.028l14.455 -17.836 0 0zm-2.566 14.387l1.725 -4.454 -4.48 6.446 1.591 0.996 1.164 -2.988 0 0zm33.699 8.145l0.589 1.371c3.934,-8.906 4.213,-18.168 0.837,-27.786l-5.274 0.9c3.904,8.066 5.187,16.571 3.848,25.515l0 0zm-11.542 -6.703l6.93 -3.972 0 0 -7.74 2.792 0.81 1.18z"/>
      </g>
      <polygon class="fil7" points="109.649,272.831 107.182,268.484 96.75,267.982 95.025,272.436 "/>
      <path class="fil8" d="M123.436 250.493c-1.697,-0.155 -3.365,-0.226 -5.006,-0.21 -6.56,2.391 -12.391,5.77 -17.493,10.137l-3.346 -2.371 -14.455 17.836c1.117,2.817 1.521,5.486 1.215,8.01 -0.409,3.701 1.331,6.666 5.221,8.898l3.336 -8.685 -3.163 -6.054 2.525 -3.626 4.48 -6.446 10.432 0.502 2.467 4.347 1.084 1.894 5.639 -2.027 7.74 -2.792 0 0 4.612 10.675c1.339,-8.944 0.056,-17.449 -3.848,-25.515l-2.464 0.421 1.024 -4.994z"/>
     </g>
    </g>
   </g>
  </g>
  <g>
   <g>
    <g>
     <g>
      <polygon class="fil0" points="350.45,288.2 360.05,292.75 369.65,288.2 "/>
      <path class="fil1" d="M379.35 263c-0.433,-2.967 -2.133,-4.45 -5.1,-4.45l-30.35 0c-2.933,0 -4.633,1.517 -5.1,4.55 -1,6.867 -1,13.733 0,20.6 0.467,3 2.167,4.5 5.1,4.5l6.55 0 19.2 0 4.6 0c2.967,0 4.683,-1.516 5.15,-4.55 1.033,-6.733 1.017,-13.616 -0.05,-20.65z"/>
     </g>
    </g>
   </g>
   <g>
    <g>
     <g>
      <g>
       <path class="fil8" d="M379.65 245.8c-1.647,-0.439 -3.28,-0.789 -4.9,-1.05 -6.869,1.253 -13.186,3.603 -18.95,7.05l-2.9 -2.9 -17.25 15.15c0.492,2.309 0.559,4.46 0.2,6.45 -0.073,0.562 -0.189,1.112 -0.35,1.65 -1.026,3.579 -0.009,6.546 3.05,8.9l6.45 0 5.15 4.4 10.45 -6.5 3.8 2 5.75 -3.75 7.35 10.45c2.517,-2.875 3.4,-6.158 2.65,-9.85l-0.35 -1.45c2.825,-8.591 2.991,-17.192 0.5,-25.8l-2.5 0 1.85 -4.75 0 0zm-2.6 19.25l0 0 -7.5 2.75 -0.6 -1.3 8.1 -1.45 0 0zm-30.75 0.35l-1.4 -1.25 5.5 -5.6 -4.1 6.85z"/>
      </g>
      <g>
       <path class="fil9" d="M344.9 264.15l1.4 1.25 4.1 -6.85 -5.5 5.6 0 0zm32.15 0.9l0 0 -8.1 1.45 0.6 1.3 7.5 -2.75z"/>
      </g>
      <g>
       <path class="fil6" d="M379.8 276.35l0.35 1.45c5.377,-8.117 7.21,-17.2 5.5,-27.25l-5.35 0c2.491,8.608 2.325,17.208 -0.5,25.8l0 0zm-26.9 -27.45l2.9 2.9c5.764,-3.447 12.081,-5.797 18.95,-7.05 -5.844,-0.885 -11.51,-0.535 -17,1.05l2.85 -3.9c-6.148,-1.08 -11.114,0.354 -14.9,4.3l-3.65 3.7 -2.9 -1.25 -4.75 11.1c0.571,1.492 0.988,2.925 1.25,4.3l17.25 -15.15z"/>
      </g>
     </g>
    </g>
   </g>
  </g>
  <g>
   <g>
    <g>
     <g>
      <polygon class="fil0" points="428.83,63.986 438.773,67.728 447.964,62.4 "/>
      <path class="fil1" d="M455.55 36.486c-0.677,-2.921 -2.494,-4.259 -5.45,-4.014l-30.246 2.507c-2.923,0.242 -4.492,1.894 -4.707,4.956 -0.429,6.926 0.138,13.768 1.702,20.529 0.713,2.951 2.53,4.305 5.454,4.063l6.527 -0.541 19.134 -1.586 4.585 -0.379c2.956,-0.245 4.541,-1.899 4.756,-4.96 0.474,-6.796 -0.111,-13.654 -1.755,-20.575z"/>
     </g>
    </g>
   </g>
   <g>
    <g>
     <g>
      <g>
       <path class="fil8" d="M454.428 19.32c-1.677,-0.301 -3.334,-0.516 -4.97,-0.642 -6.742,1.817 -12.843,4.68 -18.303,8.591l-3.129 -2.65 -15.94 16.523c0.682,2.261 0.926,4.398 0.733,6.411 -0.027,0.566 -0.098,1.124 -0.213,1.673 -0.727,3.652 0.532,6.524 3.775,8.618l6.428 -0.533 5.495 3.96 9.877 -7.341 3.953 1.679 5.42 -4.212 8.188 9.807c2.271,-3.073 2.88,-6.418 1.827,-10.035l-0.468 -1.416c2.105,-8.796 1.561,-17.38 -1.633,-25.753l-2.491 0.206 1.451 -4.886 0 0zm-1.001 19.399l0 0 -7.247 3.36 -0.706 -1.246 7.953 -2.114 0 0zm-30.616 2.888l-1.498 -1.13 5.019 -6.035 -3.521 7.165z"/>
      </g>
      <g>
       <path class="fil9" d="M421.313 40.477l1.498 1.13 3.521 -7.165 -5.019 6.035 0 0zm32.114 -1.758l0 0 -7.953 2.114 0.706 1.246 7.247 -3.36z"/>
      </g>
      <g>
       <path class="fil6" d="M457.101 49.753l0.468 1.416c4.688,-8.533 5.765,-17.737 3.231,-27.611l-5.332 0.442c3.194,8.373 3.738,16.957 1.633,25.753l0 0zm-29.075 -25.134l3.129 2.65c5.46,-3.911 11.561,-6.774 18.303,-8.591 -5.896,-0.399 -11.515,0.418 -16.855,2.451l2.518 -4.122c-6.216,-0.569 -11.047,1.27 -14.494,5.516l-3.331 3.989 -2.994 -1.007 -3.817 11.455c0.693,1.439 1.227,2.833 1.601,4.182l15.94 -16.523z"/>
      </g>
     </g>
    </g>
   </g>
  </g>
 </g>
</svg>
