<?xml version="1.0" encoding="UTF-8"?>
<!DOCTYPE svg PUBLIC "-//W3C//DTD SVG 1.1//EN" "http://www.w3.org/Graphics/SVG/1.1/DTD/svg11.dtd">
<!-- Creator: CorelDRAW 2018 (64-Bit) -->
<svg xmlns="http://www.w3.org/2000/svg" xml:space="preserve" width="720px" height="330px" version="1.1" style="shape-rendering:geometricPrecision; text-rendering:geometricPrecision; image-rendering:optimizeQuality; fill-rule:evenodd; clip-rule:evenodd"
viewBox="0 0 720 330"
 xmlns:xlink="http://www.w3.org/1999/xlink">
 <defs>
  <style type="text/css">
   <![CDATA[
    .fil3 {fill:#544B4B}
    .fil6 {fill:#5D5454}
    .fil4 {fill:#7F7058}
    .fil0 {fill:#D7BD93}
    .fil1 {fill:#E7E2DA}
    .fil2 {fill:#FFE0B1}
    .fil5 {fill:white}
   ]]>
  </style>
 </defs>
 <g id="Слой_x0020_1">
  <metadata id="CorelCorpID_0Corel-Layer"/>
  <g id="head">
   <g>
    <g>
     <g>
      <path class="fil0" d="M31.2 291.25c2.8,0 5.183,-0.65 7.15,-1.95 1.167,-0.766 1.983,-1.633 2.45,-2.6l-19.2 0c0.466,0.967 1.283,1.834 2.45,2.6 1.966,1.3 4.35,1.95 7.15,1.95z"/>
      <path class="fil1" d="M50.55 282.15c0.033,-0.167 0.066,-0.316 0.1,-0.45 0.366,-2.533 0.583,-5.083 0.65,-7.65 -0.767,4.133 -2.701,5.667 -5.8,4.6 -4.101,-1.766 -8.884,-2.65 -14.35,-2.65 -4.1,0 -7.8,0.5 -11.1,1.5 -0.8,0.234 -1.584,0.5 -2.35,0.8 -3.467,1.6 -6.284,-1.35 -8.45,-8.85 -0.167,4.233 0.066,8.484 0.7,12.75 0.066,0.367 0.15,0.7 0.249,1 0.101,0.467 0.267,0.884 0.5,1.25 0.834,1.5 2.284,2.25 4.351,2.25l6.55 0 19.2 0 4.6 0c2.8,0 4.483,-1.333 5.05,-4 0.033,-0.2 0.066,-0.383 0.1,-0.55z"/>
      <path class="fil2" d="M9.95 261.6c-0.367,2.6 -0.6,5.217 -0.7,7.85 2.166,7.5 4.983,10.45 8.45,8.85 0.766,-0.3 1.55,-0.566 2.35,-0.8 3.3,-1 7,-1.5 11.1,-1.5 5.466,0 10.25,0.884 14.35,2.65 3.099,1.067 5.033,-0.467 5.8,-4.6 0.033,-1.8 0.016,-3.617 -0.05,-5.45 -0.134,-2.333 -0.384,-4.7 -0.75,-7.1 -0.434,-2.966 -2.134,-4.45 -5.1,-4.45l-30.35 0c-2.934,0 -4.634,1.517 -5.1,4.55z"/>
     </g>
    </g>
   </g>
   <g>
    <g>
     <g>
      <g>
       <path class="fil3" d="M39.3 264.55l-0.651 3.2 8.801 0c-1.834,-2.3 -4.55,-3.366 -8.15,-3.2l0 0zm-11.5 4.3l-0.65 -3.2c-3.6,-0.167 -6.317,0.9 -8.15,3.2l8.8 0z"/>
      </g>
      <g>
       <path class="fil4" d="M22.8 271c-0.067,0.3 -0.101,0.617 -0.101,0.95 0,0.867 0.201,1.6 0.601,2.2 0.1,0.134 0.2,0.25 0.3,0.35 0.366,0.4 0.783,0.6 1.25,0.6 0.466,0 0.883,-0.2 1.25,-0.6 0.1,-0.1 0.183,-0.217 0.25,-0.35 0.433,-0.6 0.65,-1.333 0.65,-2.2 0,-0.333 -0.034,-0.65 -0.1,-0.95l-4.1 0 0 0zm21.05 0.95c0,-0.333 -0.034,-0.65 -0.1,-0.95l-4.1 0c-0.067,0.3 -0.1,0.617 -0.1,0.95 0,0.867 0.2,1.6 0.6,2.2 0.1,0.134 0.2,0.25 0.3,0.35 0.366,0.4 0.783,0.6 1.25,0.6 0.466,0 0.883,-0.2 1.25,-0.6 0.1,-0.1 0.183,-0.217 0.25,-0.35 0.433,-0.6 0.65,-1.333 0.65,-2.2l0 0zm-5.6 5.75c-0.2,-0.133 -0.4,-0.2 -0.6,-0.2l-2.85 0 0 3 -7 0c0.2,0.334 0.45,0.633 0.75,0.9 1.2,1.2 2.616,1.8 4.25,1.8 1.633,0 3.033,-0.583 4.2,-1.75l0.05 -0.05c0.5,-0.5 0.9,-1.05 1.2,-1.65 0.166,-0.3 0.3,-0.616 0.399,-0.95 0.034,-0.233 0.017,-0.433 -0.049,-0.6 -0.067,-0.233 -0.184,-0.4 -0.35,-0.5z"/>
      </g>
      <g>
       <path class="fil5" d="M22.699 271.95c0,-0.333 0.034,-0.65 0.101,-0.95l-2.25 0c-0.067,0.3 -0.1,0.617 -0.1,0.95 0,1 0.3,1.85 0.9,2.55 0.033,0.033 0.066,0.067 0.1,0.1 0.733,0.767 1.616,1.15 2.65,1.15 1.033,0 1.883,-0.383 2.549,-1.15 0.034,-0.033 0.067,-0.067 0.101,-0.1 0.666,-0.7 1,-1.55 1,-2.55 0,-0.333 -0.034,-0.65 -0.1,-0.95l-0.75 0c0.066,0.3 0.1,0.617 0.1,0.95 0,0.867 -0.217,1.6 -0.65,2.2 -0.067,0.134 -0.15,0.25 -0.25,0.35 -0.367,0.4 -0.784,0.6 -1.25,0.6 -0.467,0 -0.884,-0.2 -1.25,-0.6 -0.1,-0.1 -0.2,-0.217 -0.3,-0.35 -0.4,-0.6 -0.601,-1.333 -0.601,-2.2l0 0zm21.051 -0.95c0.066,0.3 0.1,0.617 0.1,0.95 0,0.867 -0.217,1.6 -0.65,2.2 -0.067,0.134 -0.15,0.25 -0.25,0.35 -0.367,0.4 -0.784,0.6 -1.25,0.6 -0.467,0 -0.884,-0.2 -1.25,-0.6 -0.1,-0.1 -0.2,-0.217 -0.3,-0.35 -0.4,-0.6 -0.6,-1.333 -0.6,-2.2 0,-0.333 0.033,-0.65 0.1,-0.95l-0.5 0c-0.067,0.3 -0.1,0.617 -0.1,0.95 0,1 0.3,1.85 0.9,2.55 0.033,0.033 0.066,0.067 0.1,0.1 0.733,0.767 1.616,1.15 2.65,1.15 1.033,0 1.883,-0.383 2.55,-1.15 0.033,-0.033 0.066,-0.067 0.1,-0.1 0.667,-0.7 1,-1.55 1,-2.55 0,-0.333 -0.034,-0.65 -0.1,-0.95l-2.5 0 0 0zm-8.95 9.5l0 -3 -6.85 0c-0.2,0 -0.384,0.067 -0.55,0.2 -0.2,0.1 -0.334,0.267 -0.4,0.5 -0.067,0.167 -0.067,0.367 0,0.6 0.066,0.334 0.183,0.65 0.35,0.95 0.133,0.267 0.283,0.517 0.45,0.75l7 0z"/>
      </g>
     </g>
    </g>
   </g>
   <g>
    <g>
     <g id="_1023595600">
      <path class="fil3" d="M33.45 260.25c4.806,1.058 9.956,1.124 15.45,0.2l-4.1 -18.75c0.14,-1.405 0.507,-2.438 1.1,-3.1 -14.339,3.619 -24.455,10.652 -30.35,21.1 3.555,-1.832 7.255,-2.315 11.099,-1.45 2.014,0.582 3.714,1.766 5.101,3.55l1.7 -1.55z"/>
      <g>
       <path class="fil6" d="M44.8 241.7l4.1 18.75 2.4 8.15 1.1 -16.75 -7.6 -10.15 0 0zm1.1 -3.1c0.403,-0.427 0.903,-0.694 1.5,-0.8 -5.734,-0.833 -12.384,0.183 -19.95,3.05 -0.167,0.033 -0.334,0.083 -0.5,0.15 -3.8,1.133 -8.15,2.833 -13.05,5.1l-1.25 3.1 -3.1 -1.35 -3 6.75c-1.867,5 -0.867,11.667 3,20l6 -14.9c5.895,-10.448 16.011,-17.481 30.35,-21.1z"/>
      </g>
     </g>
    </g>
   </g>
  </g>
  <g id="head_FL">
   <g>
    <g>
     <g>
      <path class="fil0" d="M40.7 71.25c2.8,0 5.183,-0.65 7.15,-1.95 1.166,-0.767 1.983,-1.634 2.45,-2.6l-19.201 0c0.467,0.966 1.284,1.833 2.451,2.6 1.966,1.3 4.35,1.95 7.15,1.95z"/>
      <path class="fil1" d="M60.05 62.15c0.033,-0.167 0.066,-0.317 0.1,-0.45 0.366,-2.534 0.583,-5.083 0.65,-7.65 -0.767,4.133 -2.7,5.667 -5.8,4.6 -4.1,-1.767 -8.884,-2.65 -14.35,-2.65 -4.1,0 -7.8,0.5 -11.1,1.5 -0.8,0.233 -1.584,0.5 -2.35,0.8 -3.467,1.6 -6.284,-1.35 -8.451,-8.85 -0.166,4.233 0.067,8.483 0.7,12.75 0.067,0.366 0.151,0.7 0.251,1 0.1,0.467 0.266,0.883 0.5,1.25 0.833,1.5 2.283,2.25 4.35,2.25l6.549 0 19.201 0 4.6 0c2.799,0 4.483,-1.333 5.05,-4 0.033,-0.2 0.066,-0.383 0.1,-0.55z"/>
      <path class="fil2" d="M19.449 41.6c-0.366,2.6 -0.599,5.217 -0.7,7.85 2.167,7.5 4.984,10.45 8.451,8.85 0.766,-0.3 1.55,-0.567 2.35,-0.8 3.299,-1 7,-1.5 11.1,-1.5 5.466,0 10.25,0.883 14.35,2.65 3.1,1.067 5.033,-0.467 5.8,-4.6 0.033,-1.8 0.016,-3.617 -0.05,-5.45 -0.134,-2.334 -0.384,-4.7 -0.75,-7.1 -0.434,-2.967 -2.133,-4.45 -5.1,-4.45l-30.35 0c-2.934,0 -4.634,1.516 -5.101,4.55z"/>
     </g>
    </g>
   </g>
   <g>
    <g>
     <g>
      <g>
       <path class="fil3" d="M48.8 44.55l-0.65 3.2 8.8 0c-1.834,-2.3 -4.55,-3.367 -8.15,-3.2l0 0zm-11.5 4.3l-0.65 -3.2c-3.6,-0.167 -6.317,0.9 -8.15,3.2l8.8 0z"/>
      </g>
      <g>
       <path class="fil4" d="M32.299 51c-0.066,0.3 -0.099,0.617 -0.099,0.95 0,0.867 0.2,1.6 0.6,2.2 0.1,0.133 0.2,0.25 0.3,0.35 0.366,0.4 0.783,0.6 1.25,0.6 0.466,0 0.883,-0.2 1.25,-0.6 0.1,-0.1 0.183,-0.217 0.25,-0.35 0.433,-0.6 0.65,-1.333 0.65,-2.2 0,-0.333 -0.034,-0.65 -0.1,-0.95l-4.101 0 0 0zm21.051 0.95c0,-0.333 -0.034,-0.65 -0.1,-0.95l-4.1 0c-0.067,0.3 -0.1,0.617 -0.1,0.95 0,0.867 0.2,1.6 0.6,2.2 0.1,0.133 0.2,0.25 0.3,0.35 0.366,0.4 0.783,0.6 1.25,0.6 0.467,0 0.883,-0.2 1.25,-0.6 0.1,-0.1 0.183,-0.217 0.25,-0.35 0.433,-0.6 0.65,-1.333 0.65,-2.2l0 0zm-5.6 5.75c-0.2,-0.134 -0.4,-0.2 -0.6,-0.2l-2.85 0 0 3 -7 0c0.2,0.333 0.45,0.633 0.75,0.9 1.2,1.2 2.616,1.8 4.25,1.8 1.633,0 3.033,-0.583 4.2,-1.75l0.05 -0.05c0.5,-0.5 0.9,-1.05 1.2,-1.65 0.167,-0.3 0.3,-0.617 0.4,-0.95 0.033,-0.234 0.016,-0.433 -0.05,-0.6 -0.067,-0.233 -0.183,-0.4 -0.35,-0.5z"/>
      </g>
      <g>
       <path class="fil5" d="M32.2 51.95c0,-0.333 0.033,-0.65 0.099,-0.95l-2.249 0c-0.067,0.3 -0.1,0.617 -0.1,0.95 0,1 0.299,1.85 0.9,2.55 0.033,0.033 0.066,0.067 0.1,0.1 0.733,0.766 1.616,1.15 2.65,1.15 1.033,0 1.883,-0.384 2.55,-1.15 0.033,-0.033 0.066,-0.067 0.099,-0.1 0.667,-0.7 1.001,-1.55 1.001,-2.55 0,-0.333 -0.034,-0.65 -0.1,-0.95l-0.75 0c0.066,0.3 0.1,0.617 0.1,0.95 0,0.867 -0.217,1.6 -0.65,2.2 -0.067,0.133 -0.15,0.25 -0.25,0.35 -0.367,0.4 -0.784,0.6 -1.25,0.6 -0.467,0 -0.884,-0.2 -1.25,-0.6 -0.101,-0.1 -0.2,-0.217 -0.3,-0.35 -0.4,-0.6 -0.6,-1.333 -0.6,-2.2l0 0zm21.05 -0.95c0.066,0.3 0.1,0.617 0.1,0.95 0,0.867 -0.217,1.6 -0.65,2.2 -0.067,0.133 -0.15,0.25 -0.25,0.35 -0.367,0.4 -0.784,0.6 -1.25,0.6 -0.467,0 -0.883,-0.2 -1.25,-0.6 -0.1,-0.1 -0.2,-0.217 -0.3,-0.35 -0.4,-0.6 -0.6,-1.333 -0.6,-2.2 0,-0.333 0.033,-0.65 0.1,-0.95l-0.5 0c-0.067,0.3 -0.1,0.617 -0.1,0.95 0,1 0.3,1.85 0.9,2.55 0.033,0.033 0.066,0.067 0.1,0.1 0.733,0.766 1.616,1.15 2.65,1.15 1.033,0 1.883,-0.384 2.55,-1.15 0.033,-0.033 0.066,-0.067 0.1,-0.1 0.666,-0.7 1,-1.55 1,-2.55 0,-0.333 -0.034,-0.65 -0.1,-0.95l-2.5 0 0 0zm-8.95 9.5l0 -3 -6.851 0c-0.199,0 -0.383,0.066 -0.549,0.2 -0.2,0.1 -0.334,0.267 -0.4,0.5 -0.067,0.167 -0.067,0.366 0,0.6 0.066,0.333 0.183,0.65 0.35,0.95 0.133,0.267 0.283,0.517 0.45,0.75l7 0z"/>
      </g>
     </g>
    </g>
   </g>
   <g>
    <g>
     <g>
      <path class="fil3" d="M42.95 40.25c4.806,1.057 9.956,1.124 15.45,0.2l-4.1 -18.75c0.14,-1.405 0.507,-2.438 1.1,-3.1 -14.339,3.619 -24.455,10.652 -30.35,21.1 3.555,-1.832 7.255,-2.316 11.1,-1.45 2.013,0.582 3.713,1.765 5.1,3.55l1.7 -1.55z"/>
      <g>
       <path class="fil6" d="M54.3 21.7l4.1 18.75 2.4 8.15 1.1 -16.75 -7.6 -10.15 0 0zm1.1 -3.1c0.403,-0.427 0.903,-0.694 1.5,-0.8 -5.733,-0.834 -12.384,0.183 -19.95,3.05 -0.167,0.033 -0.334,0.083 -0.5,0.15 -3.8,1.133 -8.15,2.833 -13.05,5.1l-1.25 3.1 -3.1 -1.35 -3 6.75c-1.867,5 -0.867,11.666 3,20l6 -14.9c5.895,-10.448 16.011,-17.481 30.35,-21.1z"/>
      </g>
     </g>
    </g>
   </g>
  </g>
  <g id="head_FL_FL">
   <g>
    <g>
     <g>
      <path class="fil0" d="M122.204 66.35c2.776,0 5.139,-0.65 7.089,-1.95 1.157,-0.767 1.966,-1.633 2.429,-2.6l-19.035 0c0.462,0.967 1.272,1.833 2.429,2.6 1.95,1.3 4.313,1.95 7.088,1.95z"/>
      <path class="fil1" d="M141.388 57.25c0.034,-0.167 0.067,-0.317 0.1,-0.45 0.363,-2.533 0.578,-5.084 0.644,-7.65 -0.76,4.133 -2.677,5.666 -5.75,4.6 -4.065,-1.767 -8.807,-2.65 -14.227,-2.65 -4.065,0 -7.733,0.5 -11.005,1.5 -0.793,0.233 -1.57,0.5 -2.33,0.8 -3.437,1.6 -6.229,-1.35 -8.377,-8.85 -0.166,4.233 0.066,8.483 0.693,12.75 0.067,0.367 0.149,0.7 0.248,1 0.1,0.466 0.265,0.883 0.496,1.25 0.827,1.5 2.264,2.25 4.313,2.25l6.494 0 19.035 0 4.561 0c2.776,0 4.444,-1.334 5.006,-4 0.033,-0.2 0.067,-0.384 0.099,-0.55z"/>
      <path class="fil2" d="M101.136 36.7c-0.363,2.6 -0.594,5.217 -0.693,7.85 2.148,7.5 4.94,10.45 8.377,8.85 0.76,-0.3 1.537,-0.567 2.33,-0.8 3.272,-1 6.94,-1.5 11.005,-1.5 5.42,0 10.162,0.883 14.227,2.65 3.073,1.066 4.99,-0.467 5.75,-4.6 0.033,-1.8 0.017,-3.617 -0.05,-5.45 -0.132,-2.333 -0.379,-4.7 -0.743,-7.1 -0.43,-2.967 -2.115,-4.45 -5.056,-4.45l-30.09 0c-2.908,0 -4.594,1.517 -5.057,4.55z"/>
     </g>
    </g>
   </g>
   <g>
    <g>
     <g>
      <g>
       <path class="fil3" d="M130.235 39.65l-0.644 3.2 8.724 0c-1.818,-2.3 -4.511,-3.367 -8.08,-3.2l0 0zm-11.401 4.3l-0.645 -3.2c-3.569,-0.167 -6.262,0.9 -8.08,3.2l8.725 0z"/>
      </g>
      <g>
       <path class="fil4" d="M113.877 46.1c-0.067,0.3 -0.099,0.617 -0.099,0.95 0,0.867 0.198,1.6 0.594,2.2 0.099,0.133 0.198,0.25 0.297,0.35 0.364,0.4 0.777,0.6 1.24,0.6 0.462,0 0.876,-0.2 1.239,-0.6 0.099,-0.1 0.182,-0.217 0.248,-0.35 0.43,-0.6 0.644,-1.333 0.644,-2.2 0,-0.333 -0.032,-0.65 -0.099,-0.95l-4.064 0 0 0zm20.869 0.95c0,-0.333 -0.033,-0.65 -0.099,-0.95l-4.065 0c-0.066,0.3 -0.099,0.617 -0.099,0.95 0,0.867 0.198,1.6 0.595,2.2 0.099,0.133 0.198,0.25 0.297,0.35 0.364,0.4 0.777,0.6 1.239,0.6 0.463,0 0.876,-0.2 1.24,-0.6 0.099,-0.1 0.181,-0.217 0.248,-0.35 0.429,-0.6 0.644,-1.333 0.644,-2.2l0 0zm-5.552 5.75c-0.198,-0.133 -0.397,-0.2 -0.595,-0.2l-2.825 0 0 3 -6.94 0c0.198,0.333 0.446,0.633 0.743,0.9 1.19,1.2 2.594,1.8 4.214,1.8 1.619,0 3.007,-0.584 4.164,-1.75l0.049 -0.05c0.496,-0.5 0.893,-1.05 1.19,-1.65 0.165,-0.3 0.297,-0.617 0.397,-0.95 0.033,-0.233 0.016,-0.434 -0.05,-0.6 -0.066,-0.233 -0.182,-0.4 -0.347,-0.5z"/>
      </g>
      <g>
       <path class="fil5" d="M113.778 47.05c0,-0.333 0.032,-0.65 0.099,-0.95l-2.231 0c-0.066,0.3 -0.099,0.617 -0.099,0.95 0,1 0.297,1.85 0.892,2.55 0.033,0.033 0.066,0.066 0.099,0.1 0.727,0.767 1.603,1.15 2.627,1.15 1.025,0 1.867,-0.383 2.528,-1.15 0.033,-0.034 0.067,-0.067 0.1,-0.1 0.661,-0.7 0.991,-1.55 0.991,-2.55 0,-0.333 -0.033,-0.65 -0.099,-0.95l-0.744 0c0.067,0.3 0.099,0.617 0.099,0.95 0,0.867 -0.214,1.6 -0.644,2.2 -0.066,0.133 -0.149,0.25 -0.248,0.35 -0.363,0.4 -0.777,0.6 -1.239,0.6 -0.463,0 -0.876,-0.2 -1.24,-0.6 -0.099,-0.1 -0.198,-0.217 -0.297,-0.35 -0.396,-0.6 -0.594,-1.333 -0.594,-2.2l0 0zm20.869 -0.95c0.066,0.3 0.099,0.617 0.099,0.95 0,0.867 -0.215,1.6 -0.644,2.2 -0.067,0.133 -0.149,0.25 -0.248,0.35 -0.364,0.4 -0.777,0.6 -1.24,0.6 -0.462,0 -0.875,-0.2 -1.239,-0.6 -0.099,-0.1 -0.198,-0.217 -0.297,-0.35 -0.397,-0.6 -0.595,-1.333 -0.595,-2.2 0,-0.333 0.033,-0.65 0.099,-0.95l-0.496 0c-0.066,0.3 -0.099,0.617 -0.099,0.95 0,1 0.298,1.85 0.893,2.55 0.032,0.033 0.066,0.066 0.099,0.1 0.727,0.767 1.602,1.15 2.627,1.15 1.024,0 1.867,-0.383 2.528,-1.15 0.033,-0.034 0.066,-0.067 0.099,-0.1 0.661,-0.7 0.992,-1.55 0.992,-2.55 0,-0.333 -0.033,-0.65 -0.099,-0.95l-2.479 0 0 0zm-8.873 9.5l0 -3 -6.792 0c-0.198,0 -0.38,0.067 -0.545,0.2 -0.198,0.1 -0.33,0.267 -0.397,0.5 -0.066,0.166 -0.066,0.367 0,0.6 0.067,0.333 0.182,0.65 0.347,0.95 0.133,0.267 0.281,0.516 0.447,0.75l6.94 0z"/>
      </g>
     </g>
    </g>
   </g>
   <g>
    <g>
     <g>
      <path class="fil3" d="M124.435 35.35c4.766,1.057 9.871,1.124 15.318,0.2l-4.065 -18.75c0.139,-1.405 0.503,-2.438 1.091,-3.1 -14.216,3.619 -24.246,10.652 -30.09,21.1 3.524,-1.832 7.193,-2.316 11.004,-1.45 1.996,0.582 3.682,1.765 5.057,3.55l1.685 -1.55z"/>
      <g>
       <path class="fil6" d="M135.688 16.8l4.065 18.75 2.379 8.15 1.091 -16.75 -7.535 -10.15 0 0zm1.091 -3.1c0.399,-0.427 0.895,-0.694 1.486,-0.8 -5.684,-0.833 -12.277,0.183 -19.778,3.05 -0.166,0.033 -0.331,0.083 -0.496,0.15 -3.768,1.133 -8.08,2.833 -12.938,5.1l-1.239 3.1 -3.074 -1.35 -2.974 6.75c-1.851,5 -0.86,11.667 2.974,20l5.949 -14.9c5.844,-10.448 15.874,-17.481 30.09,-21.1z"/>
      </g>
     </g>
    </g>
   </g>
  </g>
  <g id="head_FL_FL_FL">
   <g>
    <g>
     <g>
      <path class="fil0" d="M40.7 180.75c2.8,0 5.183,-0.65 7.15,-1.95 1.166,-0.767 1.983,-1.633 2.45,-2.6l-19.201 0c0.467,0.967 1.284,1.833 2.451,2.6 1.966,1.3 4.35,1.95 7.15,1.95z"/>
      <path class="fil1" d="M60.05 171.65c0.033,-0.167 0.066,-0.317 0.1,-0.45 0.366,-2.533 0.583,-5.083 0.65,-7.65 -0.767,4.133 -2.7,5.667 -5.8,4.6 -4.1,-1.767 -8.884,-2.65 -14.35,-2.65 -4.1,0 -7.8,0.5 -11.1,1.5 -0.8,0.233 -1.584,0.5 -2.35,0.8 -3.467,1.6 -6.284,-1.35 -8.451,-8.85 -0.166,4.233 0.067,8.483 0.7,12.75 0.067,0.367 0.151,0.7 0.251,1 0.1,0.467 0.266,0.883 0.5,1.25 0.833,1.5 2.283,2.25 4.35,2.25l6.549 0 19.201 0 4.6 0c2.799,0 4.483,-1.333 5.05,-4 0.033,-0.2 0.066,-0.383 0.1,-0.55z"/>
      <path class="fil2" d="M19.449 151.1c-0.366,2.6 -0.599,5.217 -0.7,7.85 2.167,7.5 4.984,10.45 8.451,8.85 0.766,-0.3 1.55,-0.567 2.35,-0.8 3.299,-1 7,-1.5 11.1,-1.5 5.466,0 10.25,0.883 14.35,2.65 3.1,1.066 5.033,-0.467 5.8,-4.6 0.033,-1.8 0.016,-3.617 -0.05,-5.45 -0.134,-2.333 -0.384,-4.7 -0.75,-7.1 -0.434,-2.967 -2.133,-4.45 -5.1,-4.45l-30.35 0c-2.934,0 -4.634,1.517 -5.101,4.55z"/>
     </g>
    </g>
   </g>
   <g>
    <g>
     <g>
      <g>
       <path class="fil3" d="M48.8 154.05l-0.65 3.2 8.8 0c-1.834,-2.3 -4.55,-3.367 -8.15,-3.2l0 0zm-11.5 4.3l-0.65 -3.2c-3.6,-0.167 -6.317,0.9 -8.15,3.2l8.8 0z"/>
      </g>
      <g>
       <path class="fil4" d="M32.299 160.5c-0.066,0.3 -0.099,0.617 -0.099,0.95 0,0.867 0.2,1.6 0.6,2.2 0.1,0.133 0.2,0.25 0.3,0.35 0.366,0.4 0.783,0.6 1.25,0.6 0.466,0 0.883,-0.2 1.25,-0.6 0.1,-0.1 0.183,-0.217 0.25,-0.35 0.433,-0.6 0.65,-1.333 0.65,-2.2 0,-0.333 -0.034,-0.65 -0.1,-0.95l-4.101 0 0 0zm21.051 0.95c0,-0.333 -0.034,-0.65 -0.1,-0.95l-4.1 0c-0.067,0.3 -0.1,0.617 -0.1,0.95 0,0.867 0.2,1.6 0.6,2.2 0.1,0.133 0.2,0.25 0.3,0.35 0.366,0.4 0.783,0.6 1.25,0.6 0.467,0 0.883,-0.2 1.25,-0.6 0.1,-0.1 0.183,-0.217 0.25,-0.35 0.433,-0.6 0.65,-1.333 0.65,-2.2l0 0zm-5.6 5.75c-0.2,-0.133 -0.4,-0.2 -0.6,-0.2l-2.85 0 0 3 -7 0c0.2,0.333 0.45,0.633 0.75,0.9 1.2,1.2 2.616,1.8 4.25,1.8 1.633,0 3.033,-0.583 4.2,-1.75l0.05 -0.05c0.5,-0.5 0.9,-1.05 1.2,-1.65 0.167,-0.3 0.3,-0.617 0.4,-0.95 0.033,-0.233 0.016,-0.433 -0.05,-0.6 -0.067,-0.233 -0.183,-0.4 -0.35,-0.5z"/>
      </g>
      <g>
       <path class="fil5" d="M32.2 161.45c0,-0.333 0.033,-0.65 0.099,-0.95l-2.249 0c-0.067,0.3 -0.1,0.617 -0.1,0.95 0,1 0.299,1.85 0.9,2.55 0.033,0.033 0.066,0.067 0.1,0.1 0.733,0.767 1.616,1.15 2.65,1.15 1.033,0 1.883,-0.383 2.55,-1.15 0.033,-0.033 0.066,-0.067 0.099,-0.1 0.667,-0.7 1.001,-1.55 1.001,-2.55 0,-0.333 -0.034,-0.65 -0.1,-0.95l-0.75 0c0.066,0.3 0.1,0.617 0.1,0.95 0,0.867 -0.217,1.6 -0.65,2.2 -0.067,0.133 -0.15,0.25 -0.25,0.35 -0.367,0.4 -0.784,0.6 -1.25,0.6 -0.467,0 -0.884,-0.2 -1.25,-0.6 -0.101,-0.1 -0.2,-0.217 -0.3,-0.35 -0.4,-0.6 -0.6,-1.333 -0.6,-2.2l0 0zm21.05 -0.95c0.066,0.3 0.1,0.617 0.1,0.95 0,0.867 -0.217,1.6 -0.65,2.2 -0.067,0.133 -0.15,0.25 -0.25,0.35 -0.367,0.4 -0.784,0.6 -1.25,0.6 -0.467,0 -0.883,-0.2 -1.25,-0.6 -0.1,-0.1 -0.2,-0.217 -0.3,-0.35 -0.4,-0.6 -0.6,-1.333 -0.6,-2.2 0,-0.333 0.033,-0.65 0.1,-0.95l-0.5 0c-0.067,0.3 -0.1,0.617 -0.1,0.95 0,1 0.3,1.85 0.9,2.55 0.033,0.033 0.066,0.067 0.1,0.1 0.733,0.767 1.616,1.15 2.65,1.15 1.033,0 1.883,-0.383 2.55,-1.15 0.033,-0.033 0.066,-0.067 0.1,-0.1 0.666,-0.7 1,-1.55 1,-2.55 0,-0.333 -0.034,-0.65 -0.1,-0.95l-2.5 0 0 0zm-8.95 9.5l0 -3 -6.851 0c-0.199,0 -0.383,0.067 -0.549,0.2 -0.2,0.1 -0.334,0.267 -0.4,0.5 -0.067,0.167 -0.067,0.367 0,0.6 0.066,0.333 0.183,0.65 0.35,0.95 0.133,0.267 0.283,0.517 0.45,0.75l7 0z"/>
      </g>
     </g>
    </g>
   </g>
   <g>
    <g>
     <g>
      <path class="fil3" d="M42.95 149.75c4.806,1.057 9.956,1.124 15.45,0.2l-4.1 -18.75c0.14,-1.405 0.507,-2.438 1.1,-3.1 -14.339,3.619 -24.455,10.652 -30.35,21.1 3.555,-1.832 7.255,-2.316 11.1,-1.45 2.013,0.582 3.713,1.765 5.1,3.55l1.7 -1.55z"/>
      <g>
       <path class="fil6" d="M54.3 131.2l4.1 18.75 2.4 8.15 1.1 -16.75 -7.6 -10.15 0 0zm1.1 -3.1c0.403,-0.427 0.903,-0.694 1.5,-0.8 -5.733,-0.833 -12.384,0.183 -19.95,3.05 -0.167,0.033 -0.334,0.083 -0.5,0.15 -3.8,1.133 -8.15,2.833 -13.05,5.1l-1.25 3.1 -3.1 -1.35 -3 6.75c-1.867,5 -0.867,11.667 3,20l6 -14.9c5.895,-10.448 16.011,-17.481 30.35,-21.1z"/>
      </g>
     </g>
    </g>
   </g>
  </g>
  <g id="head_FL_FL_FL_FL">
   <g>
    <g>
     <g>
      <path class="fil0" d="M124.45 179.85c2.8,0 5.183,-0.65 7.15,-1.95 1.167,-0.767 1.983,-1.633 2.45,-2.6l-19.2 0c0.467,0.967 1.283,1.833 2.45,2.6 1.967,1.3 4.35,1.95 7.15,1.95z"/>
      <path class="fil1" d="M143.8 170.75c0.033,-0.167 0.066,-0.317 0.1,-0.45 0.366,-2.533 0.583,-5.083 0.65,-7.65 -0.767,4.133 -2.7,5.667 -5.8,4.6 -4.1,-1.767 -8.883,-2.65 -14.35,-2.65 -4.1,0 -7.8,0.5 -11.1,1.5 -0.8,0.233 -1.583,0.5 -2.35,0.8 -3.467,1.6 -6.283,-1.35 -8.45,-8.85 -0.167,4.233 0.066,8.483 0.7,12.75 0.066,0.367 0.15,0.7 0.25,1 0.1,0.467 0.266,0.883 0.5,1.25 0.833,1.5 2.283,2.25 4.35,2.25l6.55 0 19.2 0 4.6 0c2.8,0 4.483,-1.333 5.05,-4 0.033,-0.2 0.067,-0.383 0.1,-0.55z"/>
      <path class="fil2" d="M103.2 150.2c-0.367,2.6 -0.6,5.217 -0.7,7.85 2.167,7.5 4.983,10.45 8.45,8.85 0.767,-0.3 1.55,-0.567 2.35,-0.8 3.3,-1 7,-1.5 11.1,-1.5 5.467,0 10.25,0.883 14.35,2.65 3.1,1.067 5.033,-0.467 5.8,-4.6 0.033,-1.8 0.016,-3.617 -0.05,-5.45 -0.134,-2.333 -0.383,-4.7 -0.75,-7.1 -0.434,-2.967 -2.134,-4.45 -5.1,-4.45l-30.35 0c-2.933,0 -4.633,1.517 -5.1,4.55z"/>
     </g>
    </g>
   </g>
   <g>
    <g>
     <g>
      <g>
       <path class="fil3" d="M132.55 153.15l-0.65 3.2 8.8 0c-1.834,-2.3 -4.55,-3.367 -8.15,-3.2l0 0zm-11.5 4.3l-0.65 -3.2c-3.6,-0.167 -6.317,0.9 -8.15,3.2l8.8 0z"/>
      </g>
      <g>
       <path class="fil4" d="M116.05 159.6c-0.067,0.3 -0.1,0.617 -0.1,0.95 0,0.867 0.2,1.6 0.6,2.2 0.1,0.133 0.2,0.25 0.3,0.35 0.367,0.4 0.783,0.6 1.25,0.6 0.467,0 0.883,-0.2 1.25,-0.6 0.1,-0.1 0.183,-0.217 0.25,-0.35 0.433,-0.6 0.65,-1.333 0.65,-2.2 0,-0.333 -0.034,-0.65 -0.1,-0.95l-4.1 0 0 0zm21.05 0.95c0,-0.333 -0.033,-0.65 -0.1,-0.95l-4.1 0c-0.067,0.3 -0.1,0.617 -0.1,0.95 0,0.867 0.2,1.6 0.6,2.2 0.1,0.133 0.2,0.25 0.3,0.35 0.366,0.4 0.783,0.6 1.25,0.6 0.466,0 0.883,-0.2 1.25,-0.6 0.1,-0.1 0.183,-0.217 0.25,-0.35 0.433,-0.6 0.65,-1.333 0.65,-2.2l0 0zm-5.6 5.75c-0.2,-0.133 -0.4,-0.2 -0.6,-0.2l-2.85 0 0 3 -7 0c0.2,0.333 0.45,0.633 0.75,0.9 1.2,1.2 2.617,1.8 4.25,1.8 1.633,0 3.033,-0.583 4.2,-1.75l0.05 -0.05c0.5,-0.5 0.9,-1.05 1.2,-1.65 0.166,-0.3 0.3,-0.617 0.4,-0.95 0.033,-0.233 0.017,-0.434 -0.05,-0.6 -0.067,-0.233 -0.184,-0.4 -0.35,-0.5z"/>
      </g>
      <g>
       <path class="fil5" d="M115.95 160.55c0,-0.333 0.033,-0.65 0.1,-0.95l-2.25 0c-0.067,0.3 -0.1,0.617 -0.1,0.95 0,1 0.3,1.85 0.9,2.55 0.033,0.033 0.066,0.067 0.1,0.1 0.733,0.767 1.617,1.15 2.65,1.15 1.033,0 1.883,-0.383 2.55,-1.15 0.033,-0.033 0.066,-0.067 0.1,-0.1 0.666,-0.7 1,-1.55 1,-2.55 0,-0.333 -0.033,-0.65 -0.1,-0.95l-0.75 0c0.066,0.3 0.1,0.617 0.1,0.95 0,0.867 -0.217,1.6 -0.65,2.2 -0.067,0.133 -0.15,0.25 -0.25,0.35 -0.367,0.4 -0.783,0.6 -1.25,0.6 -0.467,0 -0.883,-0.2 -1.25,-0.6 -0.1,-0.1 -0.2,-0.217 -0.3,-0.35 -0.4,-0.6 -0.6,-1.333 -0.6,-2.2l0 0zm21.05 -0.95c0.067,0.3 0.1,0.617 0.1,0.95 0,0.867 -0.217,1.6 -0.65,2.2 -0.067,0.133 -0.15,0.25 -0.25,0.35 -0.367,0.4 -0.784,0.6 -1.25,0.6 -0.467,0 -0.884,-0.2 -1.25,-0.6 -0.1,-0.1 -0.2,-0.217 -0.3,-0.35 -0.4,-0.6 -0.6,-1.333 -0.6,-2.2 0,-0.333 0.033,-0.65 0.1,-0.95l-0.5 0c-0.067,0.3 -0.1,0.617 -0.1,0.95 0,1 0.3,1.85 0.9,2.55 0.033,0.033 0.066,0.067 0.1,0.1 0.733,0.767 1.616,1.15 2.65,1.15 1.033,0 1.883,-0.383 2.55,-1.15 0.033,-0.033 0.066,-0.067 0.1,-0.1 0.667,-0.7 1,-1.55 1,-2.55 0,-0.333 -0.034,-0.65 -0.1,-0.95l-2.5 0 0 0zm-8.95 9.5l0 -3 -6.85 0c-0.2,0 -0.383,0.067 -0.55,0.2 -0.2,0.1 -0.334,0.267 -0.4,0.5 -0.067,0.167 -0.067,0.367 0,0.6 0.066,0.333 0.183,0.65 0.35,0.95 0.133,0.267 0.283,0.517 0.45,0.75l7 0z"/>
      </g>
     </g>
    </g>
   </g>
   <g>
    <g>
     <g>
      <path class="fil3" d="M126.7 148.85c4.807,1.058 9.957,1.124 15.45,0.2l-4.1 -18.75c0.14,-1.405 0.507,-2.438 1.1,-3.1 -14.339,3.619 -24.455,10.652 -30.35,21.1 3.555,-1.832 7.255,-2.316 11.1,-1.45 2.013,0.582 3.713,1.765 5.1,3.55l1.7 -1.55z"/>
      <g>
       <path class="fil6" d="M138.05 130.3l4.1 18.75 2.4 8.15 1.1 -16.75 -7.6 -10.15 0 0zm1.1 -3.1c0.403,-0.427 0.903,-0.694 1.5,-0.8 -5.734,-0.833 -12.384,0.183 -19.95,3.05 -0.167,0.033 -0.334,0.083 -0.5,0.15 -3.8,1.133 -8.15,2.833 -13.05,5.1l-1.25 3.1 -3.1 -1.35 -3 6.75c-1.867,5 -0.867,11.667 3,20l6 -14.9c5.895,-10.448 16.011,-17.481 30.35,-21.1z"/>
      </g>
     </g>
    </g>
   </g>
  </g>
  <g id="head_FL_FL_FL_FL_FL">
   <g>
    <g>
     <g>
      <path class="fil0" d="M350.173 179.728c2.791,-0.231 5.112,-1.076 6.964,-2.534 1.1,-0.86 1.842,-1.792 2.227,-2.794l-19.134 1.586c0.545,0.925 1.431,1.722 2.657,2.389 2.067,1.133 4.496,1.584 7.286,1.353z"/>
      <path class="fil1" d="M368.705 169.061c0.02,-0.169 0.04,-0.321 0.063,-0.457 0.156,-2.555 0.161,-5.114 0.016,-7.677 -0.423,4.182 -2.223,5.87 -5.401,5.063 -4.232,-1.422 -9.072,-1.907 -14.519,-1.456 -4.086,0.339 -7.732,1.143 -10.938,2.412 -0.778,0.299 -1.537,0.629 -2.276,0.991 -3.323,1.881 -6.373,-0.826 -9.152,-8.121 0.184,4.232 0.767,8.448 1.751,12.648 0.096,0.36 0.207,0.685 0.331,0.976 0.139,0.457 0.339,0.858 0.602,1.205 0.954,1.426 2.461,2.053 4.521,1.883l6.527 -0.542 19.134 -1.586 4.584 -0.379c2.791,-0.232 4.358,-1.699 4.703,-4.404 0.017,-0.202 0.035,-0.387 0.054,-0.556z"/>
      <path class="fil2" d="M326.547 151.935c-0.15,2.621 -0.167,5.248 -0.049,7.881 2.779,7.295 5.829,10.002 9.152,8.121 0.739,-0.362 1.498,-0.692 2.276,-0.991 3.206,-1.269 6.852,-2.073 10.938,-2.412 5.447,-0.451 10.287,0.034 14.519,1.456 3.178,0.807 4.978,-0.881 5.401,-5.063 -0.116,-1.797 -0.283,-3.606 -0.5,-5.427 -0.326,-2.315 -0.771,-4.652 -1.334,-7.014 -0.677,-2.921 -2.494,-4.259 -5.45,-4.013l-30.246 2.506c-2.923,0.242 -4.492,1.894 -4.707,4.956z"/>
     </g>
    </g>
   </g>
   <g>
    <g>
     <g>
      <g>
       <path class="fil3" d="M356.04 152.45l-0.383 3.243 8.769 -0.727c-2.017,-2.14 -4.812,-2.979 -8.386,-2.516l0 0zm-11.105 5.235l-0.913 -3.135c-3.601,0.131 -6.22,1.419 -7.857,3.863l8.77 -0.728z"/>
      </g>
      <g>
       <path class="fil4" d="M340.129 160.241c-0.041,0.305 -0.048,0.623 -0.021,0.955 0.072,0.864 0.332,1.578 0.78,2.143 0.11,0.125 0.22,0.233 0.328,0.324 0.398,0.369 0.83,0.533 1.295,0.495 0.465,-0.039 0.864,-0.273 1.196,-0.701 0.092,-0.108 0.165,-0.232 0.221,-0.37 0.382,-0.634 0.537,-1.382 0.466,-2.246 -0.028,-0.332 -0.087,-0.645 -0.179,-0.938l-4.086 0.338 0 0zm21.057 -0.792c-0.028,-0.332 -0.087,-0.645 -0.178,-0.938l-4.086 0.339c-0.042,0.304 -0.049,0.622 -0.022,0.955 0.072,0.863 0.332,1.578 0.78,2.142 0.111,0.125 0.22,0.233 0.328,0.325 0.398,0.368 0.83,0.532 1.295,0.494 0.465,-0.039 0.864,-0.272 1.196,-0.701 0.092,-0.108 0.165,-0.231 0.221,-0.369 0.382,-0.634 0.537,-1.383 0.466,-2.247l0 0zm-5.106 6.193c-0.211,-0.116 -0.416,-0.166 -0.615,-0.15l-2.84 0.236 0.248 2.99 -6.976 0.578c0.227,0.315 0.5,0.594 0.822,0.835 1.295,1.097 2.756,1.577 4.384,1.442 1.627,-0.135 2.974,-0.832 4.041,-2.09l0.045 -0.055c0.457,-0.539 0.811,-1.12 1.06,-1.743 0.142,-0.313 0.248,-0.639 0.32,-0.98 0.014,-0.235 -0.019,-0.433 -0.099,-0.593 -0.086,-0.228 -0.216,-0.384 -0.39,-0.47z"/>
      </g>
      <g>
       <path class="fil5" d="M340.108 161.196c-0.027,-0.332 -0.02,-0.65 0.021,-0.955l-2.242 0.186c-0.041,0.304 -0.049,0.623 -0.021,0.955 0.083,0.997 0.452,1.819 1.107,2.467 0.036,0.03 0.073,0.061 0.108,0.091 0.795,0.704 1.707,1.013 2.736,0.928 1.03,-0.086 1.846,-0.538 2.447,-1.357 0.03,-0.036 0.06,-0.072 0.091,-0.108 0.607,-0.753 0.869,-1.627 0.786,-2.624 -0.028,-0.332 -0.087,-0.645 -0.178,-0.938l-0.748 0.062c0.092,0.293 0.151,0.606 0.179,0.938 0.071,0.864 -0.084,1.612 -0.466,2.246 -0.056,0.138 -0.129,0.262 -0.221,0.37 -0.332,0.429 -0.731,0.662 -1.196,0.701 -0.465,0.038 -0.897,-0.127 -1.295,-0.495 -0.108,-0.091 -0.218,-0.199 -0.328,-0.324 -0.449,-0.565 -0.708,-1.279 -0.78,-2.143l0 0zm20.9 -2.685c0.091,0.293 0.15,0.606 0.178,0.938 0.071,0.864 -0.084,1.613 -0.466,2.247 -0.056,0.138 -0.129,0.261 -0.221,0.369 -0.332,0.429 -0.731,0.663 -1.196,0.701 -0.465,0.038 -0.897,-0.126 -1.295,-0.494 -0.108,-0.092 -0.217,-0.2 -0.328,-0.325 -0.448,-0.564 -0.708,-1.279 -0.78,-2.142 -0.027,-0.333 -0.02,-0.651 0.022,-0.955l-0.499 0.041c-0.042,0.304 -0.048,0.623 -0.021,0.955 0.083,0.996 0.452,1.819 1.108,2.467 0.036,0.03 0.071,0.061 0.107,0.091 0.794,0.704 1.706,1.013 2.736,0.927 1.03,-0.085 1.846,-0.537 2.446,-1.357 0.031,-0.035 0.062,-0.071 0.092,-0.107 0.607,-0.753 0.869,-1.628 0.786,-2.624 -0.027,-0.332 -0.087,-0.645 -0.178,-0.939l-2.491 0.207 0 0zm-8.135 10.207l-0.248 -2.99 -6.827 0.566c-0.199,0.016 -0.376,0.098 -0.531,0.244 -0.191,0.116 -0.31,0.294 -0.357,0.532 -0.053,0.171 -0.036,0.37 0.049,0.598 0.094,0.326 0.237,0.632 0.427,0.917 0.155,0.255 0.325,0.492 0.511,0.711l6.976 -0.578z"/>
      </g>
     </g>
    </g>
   </g>
   <g>
    <g>
     <g>
      <path class="fil3" d="M349.855 148.649c4.877,0.656 10.015,0.297 15.413,-1.077l-5.634 -18.347c0.024,-1.412 0.304,-2.472 0.84,-3.181 -13.99,4.791 -23.491,12.636 -28.503,23.535 3.392,-2.12 7.039,-2.907 10.942,-2.362 2.054,0.414 3.846,1.453 5.376,3.117l1.566 -1.685z"/>
      <g>
       <path class="fil6" d="M359.634 129.225l5.634 18.347 3.065 7.924 -0.287 -16.784 -8.412 -9.487 0 0zm0.84 -3.181c0.367,-0.458 0.843,-0.766 1.429,-0.921 -5.783,-0.357 -12.326,1.206 -19.63,4.688 -0.163,0.047 -0.325,0.11 -0.486,0.191 -3.693,1.443 -7.888,3.496 -12.584,6.16l-0.989 3.192 -3.201 -1.089 -2.432 6.975c-1.448,5.137 0.1,11.698 4.641,19.683l4.749 -15.344c5.012,-10.899 14.513,-18.744 28.503,-23.535z"/>
      </g>
     </g>
    </g>
   </g>
  </g>
  <g>
   <g>
    <g>
     <g>
      <path class="fil0" d="M439.546 180.44c1.262,-0.596 2.192,-1.34 2.788,-2.232l-19.011 -2.68c0.327,1.022 1.015,1.994 2.063,2.917 1.766,1.561 4.035,2.537 6.808,2.928 2.772,0.391 5.223,0.08 7.352,-0.933z"/>
      <path class="fil2" d="M448.112 170.893c2.921,1.488 5.049,0.24 6.385,-3.745 0.284,-1.778 0.522,-3.58 0.711,-5.404 0.194,-2.329 0.277,-4.707 0.249,-7.135 -0.016,-2.998 -1.492,-4.704 -4.429,-5.118l-30.052 -4.236c-2.905,-0.41 -4.8,0.855 -5.686,3.793 -0.726,2.523 -1.322,5.082 -1.788,7.676 1.098,7.728 3.476,11.043 7.132,9.942 0.8,-0.19 1.613,-0.345 2.438,-0.464 3.407,-0.53 7.141,-0.508 11.201,0.064 5.413,0.763 10.026,2.305 13.839,4.627z"/>
      <path class="fil1" d="M452.786 174.632c0.716,-2.458 1.287,-4.953 1.711,-7.484 -1.336,3.985 -3.464,5.233 -6.385,3.745 -3.813,-2.322 -8.426,-3.864 -13.839,-4.627 -4.06,-0.572 -7.794,-0.594 -11.201,-0.064 -0.825,0.119 -1.638,0.274 -2.438,0.464 -3.656,1.101 -6.034,-2.214 -7.132,-9.942 -0.756,4.168 -1.118,8.409 -1.087,12.722 0.015,0.373 0.051,0.714 0.108,1.025 0.034,0.476 0.141,0.912 0.321,1.308 0.616,1.601 1.947,2.546 3.993,2.835l6.486 0.914 19.011 2.68 4.556 0.642c2.772,0.391 4.625,-0.695 5.558,-3.256 0.061,-0.194 0.12,-0.37 0.176,-0.531 0.056,-0.16 0.11,-0.304 0.162,-0.431z"/>
     </g>
    </g>
   </g>
   <g>
    <g>
     <g>
      <g>
       <path class="fil3" d="M442.703 155.891l-0.256 3.246 8.731 -1.041c-2.101,-2.047 -4.926,-2.782 -8.475,-2.205l0 0zm-9.899 0.019l0.658 -3.24c-3.246,-1.568 -6.164,-1.643 -8.754,-0.224l8.096 3.464z"/>
      </g>
      <path class="fil4" d="M441.82 171.824c0.279,-0.062 0.5,-0.199 0.664,-0.412 0.132,-0.217 0.183,-0.462 0.155,-0.736 -0.062,-0.277 -0.202,-0.482 -0.419,-0.614 -0.212,-0.164 -0.455,-0.232 -0.728,-0.203 -3.69,0.624 -6.72,-0.089 -9.091,-2.14 -0.207,-0.198 -0.448,-0.282 -0.721,-0.253 -0.269,-0.004 -0.485,0.1 -0.65,0.312 -0.198,0.208 -0.282,0.448 -0.253,0.722 -0.005,0.269 0.097,0.501 0.305,0.699 2.781,2.479 6.361,3.354 10.738,2.625z"/>
      <g>
       <path class="fil5" d="M430.85 158.31c-0.558,-0.819 -1.349,-1.301 -2.372,-1.445 -1.023,-0.144 -1.949,0.096 -2.777,0.72 -0.768,0.665 -1.223,1.51 -1.367,2.533 -0.145,1.024 0.062,1.945 0.62,2.764 0.619,0.862 1.44,1.364 2.463,1.509 1.024,0.144 1.919,-0.117 2.686,-0.783 0.828,-0.624 1.315,-1.448 1.459,-2.471 0.144,-1.023 -0.093,-1.965 -0.712,-2.827l0 0zm18.417 2.596c-0.558,-0.819 -1.348,-1.301 -2.371,-1.445 -1.024,-0.144 -1.95,0.096 -2.778,0.72 -0.767,0.666 -1.223,1.51 -1.367,2.534 -0.144,1.023 0.063,1.944 0.621,2.763 0.619,0.861 1.44,1.365 2.463,1.509 1.023,0.144 1.918,-0.117 2.685,-0.783 0.829,-0.624 1.315,-1.447 1.459,-2.471 0.145,-1.023 -0.093,-1.965 -0.712,-2.827z"/>
      </g>
     </g>
    </g>
   </g>
   <g>
    <g>
     <g>
      <g>
       <path class="fil4" d="M429.869 163.12c0.513,-0.533 0.829,-1.229 0.95,-2.087 0.121,-0.858 0.011,-1.631 -0.329,-2.319 -0.312,-0.65 -0.766,-1.017 -1.36,-1.1 -0.594,-0.084 -1.148,0.141 -1.66,0.674 -0.485,0.572 -0.787,1.286 -0.909,2.144 -0.121,0.859 -0.025,1.613 0.288,2.263 0.34,0.687 0.808,1.073 1.402,1.157 0.594,0.084 1.133,-0.16 1.618,-0.732l0 0zm16.684 2.352c0.513,-0.534 0.83,-1.229 0.951,-2.087 0.121,-0.859 0.011,-1.632 -0.329,-2.319 -0.313,-0.65 -0.766,-1.017 -1.36,-1.101 -0.595,-0.083 -1.148,0.142 -1.661,0.675 -0.484,0.571 -0.787,1.286 -0.908,2.144 -0.121,0.858 -0.025,1.612 0.287,2.262 0.341,0.688 0.808,1.074 1.403,1.157 0.594,0.084 1.133,-0.159 1.617,-0.731z"/>
      </g>
     </g>
    </g>
   </g>
   <g>
    <g>
     <g>
      <g>
       <path class="fil6" d="M454.098 131.291c0.459,-0.366 0.991,-0.56 1.597,-0.582 -5.561,-1.626 -12.288,-1.547 -20.18,0.235 -0.17,0.01 -0.342,0.036 -0.516,0.079 -3.921,0.592 -8.466,1.668 -13.634,3.229l-1.67 2.895 -2.881 -1.77 -3.913 6.265c-2.546,4.691 -2.487,11.432 0.179,20.223l8.021 -13.917c7.295,-9.522 18.294,-15.074 32.997,-16.657l0 0zm-1.522 2.916l1.443 19.139 1.239 8.405 3.427 -16.432 -6.109 -11.112z"/>
      </g>
      <path class="fil3" d="M438.748 150.992c4.612,1.717 9.702,2.502 15.271,2.354l-1.443 -19.139c0.335,-1.371 0.843,-2.343 1.522,-2.916 -14.703,1.583 -25.702,7.135 -32.997,16.657 3.776,-1.318 7.507,-1.28 11.193,0.114 1.912,0.857 3.43,2.266 4.555,4.227l1.899 -1.297z"/>
     </g>
    </g>
   </g>
  </g>
  <g id="head_FL_FL_FL_FL_FL_FL">
   <g>
    <g>
     <g>
      <path class="fil0" d="M601.083 71.275c2.795,-0.182 5.13,-0.986 7.008,-2.412 1.115,-0.841 1.873,-1.759 2.276,-2.753l-19.159 1.25c0.528,0.934 1.399,1.745 2.613,2.434 2.048,1.17 4.468,1.663 7.262,1.481z"/>
      <path class="fil1" d="M619.8 60.935c0.022,-0.169 0.046,-0.321 0.07,-0.456 0.201,-2.552 0.252,-5.11 0.151,-7.676 -0.496,4.175 -2.325,5.83 -5.488,4.968 -4.206,-1.496 -9.037,-2.066 -14.492,-1.711 -4.092,0.267 -7.751,1.007 -10.979,2.22 -0.783,0.285 -1.547,0.602 -2.293,0.951 -3.355,1.822 -6.358,-0.938 -9.008,-8.281 0.109,4.235 0.618,8.461 1.528,12.677 0.091,0.362 0.196,0.689 0.315,0.982 0.13,0.459 0.324,0.864 0.58,1.215 0.93,1.442 2.425,2.096 4.488,1.962l6.536 -0.426 19.159 -1.25 4.59 -0.3c2.794,-0.182 4.387,-1.622 4.779,-4.32 0.02,-0.202 0.042,-0.387 0.064,-0.555z"/>
      <path class="fil2" d="M577.949 43.071c-0.197,2.618 -0.26,5.245 -0.188,7.879 2.65,7.343 5.653,10.103 9.008,8.281 0.746,-0.349 1.51,-0.666 2.293,-0.951 3.228,-1.213 6.887,-1.953 10.979,-2.22 5.455,-0.355 10.286,0.215 14.492,1.711 3.163,0.862 4.992,-0.793 5.488,-4.968 -0.084,-1.798 -0.219,-3.61 -0.405,-5.435 -0.285,-2.32 -0.688,-4.665 -1.21,-7.036 -0.626,-2.932 -2.419,-4.302 -5.379,-4.109l-30.286 1.976c-2.927,0.19 -4.524,1.815 -4.792,4.872z"/>
     </g>
    </g>
   </g>
   <g>
    <g>
     <g>
      <g>
       <path class="fil3" d="M607.428 44.104l-0.44 3.236 8.781 -0.573c-1.979,-2.176 -4.759,-3.064 -8.341,-2.663l0 0zm-11.196 5.04l-0.856 -3.151c-3.604,0.068 -6.245,1.309 -7.925,3.723l8.781 -0.572z"/>
      </g>
      <g>
       <path class="fil4" d="M591.383 51.614c-0.047,0.304 -0.059,0.623 -0.038,0.955 0.056,0.865 0.304,1.584 0.742,2.156 0.109,0.127 0.216,0.237 0.322,0.33 0.392,0.375 0.821,0.548 1.287,0.517 0.465,-0.03 0.868,-0.257 1.208,-0.68 0.093,-0.106 0.169,-0.228 0.227,-0.365 0.393,-0.627 0.561,-1.373 0.505,-2.238 -0.022,-0.333 -0.076,-0.646 -0.162,-0.941l-4.091 0.266 0 0zm21.067 -0.422c-0.022,-0.332 -0.075,-0.646 -0.161,-0.941l-4.092 0.267c-0.047,0.303 -0.059,0.622 -0.037,0.954 0.056,0.865 0.303,1.584 0.741,2.157 0.109,0.126 0.216,0.236 0.322,0.329 0.392,0.375 0.821,0.548 1.287,0.518 0.466,-0.031 0.868,-0.257 1.208,-0.68 0.094,-0.107 0.169,-0.229 0.227,-0.366 0.393,-0.627 0.562,-1.373 0.505,-2.238l0 0zm-5.213 6.103c-0.209,-0.121 -0.413,-0.174 -0.612,-0.161l-2.844 0.186 0.195 2.993 -6.985 0.456c0.221,0.32 0.49,0.603 0.807,0.849 1.276,1.12 2.728,1.626 4.358,1.52 1.63,-0.106 2.989,-0.78 4.077,-2.02l0.047 -0.053c0.466,-0.532 0.83,-1.107 1.09,-1.725 0.147,-0.31 0.259,-0.634 0.337,-0.974 0.018,-0.235 -0.011,-0.433 -0.089,-0.595 -0.081,-0.229 -0.209,-0.388 -0.381,-0.476z"/>
      </g>
      <g>
       <path class="fil5" d="M591.345 52.569c-0.021,-0.332 -0.009,-0.651 0.038,-0.955l-2.245 0.147c-0.047,0.304 -0.06,0.622 -0.038,0.954 0.065,0.998 0.42,1.827 1.064,2.487 0.036,0.031 0.071,0.062 0.106,0.093 0.782,0.717 1.688,1.042 2.72,0.975 1.031,-0.067 1.854,-0.505 2.469,-1.314 0.031,-0.035 0.063,-0.07 0.093,-0.106 0.62,-0.742 0.897,-1.612 0.832,-2.61 -0.021,-0.332 -0.075,-0.646 -0.161,-0.941l-0.749 0.049c0.086,0.295 0.14,0.608 0.162,0.941 0.056,0.865 -0.112,1.611 -0.505,2.238 -0.058,0.137 -0.134,0.259 -0.227,0.365 -0.34,0.423 -0.743,0.65 -1.208,0.68 -0.466,0.031 -0.895,-0.142 -1.287,-0.517 -0.106,-0.093 -0.213,-0.203 -0.322,-0.33 -0.438,-0.572 -0.686,-1.291 -0.742,-2.156l0 0zm20.944 -2.318c0.086,0.295 0.139,0.609 0.161,0.941 0.057,0.865 -0.112,1.611 -0.505,2.238 -0.058,0.137 -0.134,0.259 -0.227,0.366 -0.339,0.423 -0.742,0.649 -1.208,0.68 -0.466,0.03 -0.895,-0.143 -1.287,-0.518 -0.106,-0.093 -0.213,-0.203 -0.322,-0.329 -0.438,-0.573 -0.685,-1.292 -0.741,-2.157 -0.022,-0.332 -0.01,-0.651 0.037,-0.954l-0.499 0.032c-0.046,0.304 -0.059,0.622 -0.037,0.955 0.065,0.998 0.419,1.826 1.064,2.486 0.035,0.031 0.07,0.062 0.106,0.093 0.781,0.717 1.688,1.042 2.719,0.975 1.031,-0.067 1.854,-0.505 2.47,-1.313 0.031,-0.036 0.062,-0.071 0.093,-0.107 0.62,-0.742 0.897,-1.611 0.832,-2.609 -0.022,-0.333 -0.076,-0.647 -0.161,-0.942l-2.495 0.163 0 0zm-8.313 10.062l-0.195 -2.993 -6.836 0.446c-0.199,0.012 -0.378,0.091 -0.536,0.235 -0.193,0.113 -0.315,0.288 -0.366,0.525 -0.056,0.171 -0.043,0.37 0.039,0.599 0.088,0.328 0.225,0.636 0.411,0.925 0.15,0.257 0.316,0.497 0.498,0.719l6.985 -0.456z"/>
      </g>
     </g>
    </g>
   </g>
   <g>
    <g>
     <g>
      <path class="fil3" d="M601.311 40.194c4.865,0.742 10.009,0.474 15.43,-0.806l-5.312 -18.443c0.049,-1.411 0.348,-2.466 0.896,-3.165 -14.072,4.544 -23.71,12.221 -28.912,23.031 3.428,-2.06 7.089,-2.784 10.982,-2.17 2.047,0.45 3.82,1.52 5.32,3.211l1.596 -1.658z"/>
      <g>
       <path class="fil6" d="M611.429 20.945l5.312 18.443 2.925 7.976 0.008 -16.786 -8.245 -9.633 0 0zm0.896 -3.165c0.374,-0.453 0.856,-0.752 1.445,-0.896 -5.776,-0.459 -12.345,0.989 -19.709,4.342 -0.164,0.044 -0.328,0.105 -0.49,0.182 -3.718,1.378 -7.948,3.358 -12.69,5.939l-1.045 3.175 -3.182 -1.146 -2.554 6.931c-1.537,5.111 -0.106,11.698 4.295,19.762l5.018 -15.258c5.203,-10.81 14.84,-18.487 28.912,-23.031z"/>
      </g>
     </g>
    </g>
   </g>
  </g>
  <g id="head_FL_FL_FL_FL_FL_FL_FL">
   <g>
    <g>
     <g>
      <path class="fil0" d="M681.583 72.275c2.795,-0.182 5.131,-0.986 7.008,-2.411 1.115,-0.841 1.873,-1.759 2.276,-2.754l-19.159 1.249c0.528,0.935 1.4,1.746 2.614,2.435 2.047,1.17 4.468,1.663 7.261,1.481z"/>
      <path class="fil1" d="M700.3 61.934c0.023,-0.168 0.046,-0.32 0.071,-0.455 0.201,-2.552 0.251,-5.11 0.15,-7.676 -0.496,4.174 -2.325,5.83 -5.488,4.968 -4.206,-1.496 -9.037,-2.066 -14.492,-1.711 -4.091,0.267 -7.751,1.007 -10.979,2.22 -0.783,0.285 -1.547,0.602 -2.293,0.951 -3.355,1.822 -6.358,-0.938 -9.008,-8.281 0.109,4.235 0.619,8.461 1.528,12.677 0.091,0.362 0.196,0.689 0.315,0.982 0.13,0.459 0.324,0.864 0.58,1.215 0.929,1.442 2.425,2.096 4.487,1.962l6.537 -0.427 19.159 -1.249 4.59 -0.3c2.794,-0.182 4.387,-1.622 4.779,-4.32 0.02,-0.202 0.042,-0.387 0.064,-0.556z"/>
      <path class="fil2" d="M658.448 44.071c-0.196,2.618 -0.259,5.245 -0.187,7.879 2.65,7.343 5.653,10.103 9.008,8.281 0.746,-0.349 1.51,-0.666 2.293,-0.951 3.228,-1.213 6.888,-1.953 10.979,-2.22 5.455,-0.355 10.286,0.215 14.492,1.711 3.163,0.862 4.992,-0.794 5.488,-4.968 -0.083,-1.799 -0.218,-3.61 -0.404,-5.435 -0.285,-2.32 -0.689,-4.665 -1.211,-7.037 -0.625,-2.932 -2.418,-4.301 -5.379,-4.108l-30.285 1.976c-2.928,0.191 -4.525,1.815 -4.794,4.872z"/>
     </g>
    </g>
   </g>
   <g>
    <g>
     <g>
      <g>
       <path class="fil3" d="M687.928 45.104l-0.44 3.236 8.781 -0.573c-1.979,-2.176 -4.759,-3.063 -8.341,-2.663l0 0zm-11.195 5.04l-0.858 -3.151c-3.603,0.068 -6.244,1.309 -7.924,3.723l8.782 -0.572z"/>
      </g>
      <g>
       <path class="fil4" d="M671.883 52.614c-0.047,0.304 -0.06,0.623 -0.038,0.955 0.057,0.865 0.304,1.584 0.742,2.156 0.109,0.127 0.216,0.237 0.322,0.33 0.392,0.375 0.821,0.548 1.287,0.517 0.465,-0.03 0.868,-0.257 1.208,-0.68 0.093,-0.106 0.169,-0.228 0.227,-0.365 0.393,-0.627 0.562,-1.373 0.505,-2.238 -0.022,-0.332 -0.075,-0.646 -0.161,-0.941l-4.092 0.266 0 0zm21.067 -0.422c-0.021,-0.332 -0.075,-0.646 -0.161,-0.941l-4.091 0.267c-0.048,0.304 -0.06,0.622 -0.039,0.954 0.057,0.865 0.304,1.584 0.742,2.157 0.109,0.126 0.216,0.236 0.323,0.329 0.392,0.375 0.82,0.548 1.286,0.518 0.465,-0.031 0.868,-0.257 1.208,-0.68 0.094,-0.107 0.169,-0.229 0.227,-0.366 0.393,-0.627 0.562,-1.373 0.505,-2.238l0 0zm-5.214 6.103c-0.208,-0.12 -0.412,-0.174 -0.611,-0.161l-2.844 0.186 0.195 2.993 -6.985 0.456c0.221,0.32 0.49,0.603 0.807,0.849 1.275,1.12 2.728,1.626 4.358,1.52 1.63,-0.106 2.989,-0.78 4.077,-2.02l0.047 -0.053c0.466,-0.532 0.83,-1.106 1.09,-1.725 0.147,-0.31 0.259,-0.634 0.337,-0.974 0.018,-0.235 -0.011,-0.433 -0.089,-0.595 -0.081,-0.229 -0.208,-0.387 -0.382,-0.476z"/>
      </g>
      <g>
       <path class="fil5" d="M671.845 53.569c-0.022,-0.332 -0.009,-0.651 0.038,-0.955l-2.245 0.147c-0.047,0.304 -0.06,0.622 -0.038,0.954 0.065,0.998 0.42,1.827 1.064,2.487 0.035,0.031 0.071,0.062 0.106,0.093 0.782,0.717 1.688,1.042 2.719,0.975 1.032,-0.068 1.855,-0.505 2.47,-1.314 0.031,-0.035 0.062,-0.07 0.094,-0.106 0.619,-0.742 0.897,-1.612 0.832,-2.61 -0.022,-0.332 -0.076,-0.646 -0.162,-0.941l-0.748 0.049c0.086,0.295 0.139,0.609 0.161,0.941 0.057,0.865 -0.112,1.611 -0.505,2.238 -0.058,0.137 -0.134,0.259 -0.227,0.365 -0.34,0.423 -0.743,0.65 -1.208,0.68 -0.466,0.031 -0.895,-0.142 -1.287,-0.517 -0.106,-0.093 -0.213,-0.203 -0.322,-0.33 -0.438,-0.572 -0.685,-1.291 -0.742,-2.156l0 0zm20.944 -2.318c0.086,0.295 0.14,0.609 0.161,0.941 0.057,0.865 -0.112,1.611 -0.505,2.238 -0.058,0.137 -0.133,0.259 -0.227,0.366 -0.34,0.423 -0.743,0.649 -1.208,0.68 -0.466,0.03 -0.894,-0.143 -1.286,-0.518 -0.107,-0.093 -0.214,-0.203 -0.323,-0.329 -0.438,-0.573 -0.685,-1.292 -0.742,-2.157 -0.021,-0.332 -0.009,-0.65 0.039,-0.954l-0.499 0.032c-0.048,0.304 -0.06,0.622 -0.039,0.955 0.065,0.998 0.42,1.827 1.065,2.486 0.035,0.031 0.07,0.062 0.106,0.093 0.782,0.717 1.688,1.042 2.719,0.975 1.031,-0.067 1.855,-0.505 2.47,-1.313 0.031,-0.036 0.062,-0.071 0.093,-0.107 0.62,-0.742 0.897,-1.611 0.832,-2.609 -0.022,-0.333 -0.075,-0.647 -0.162,-0.942l-2.494 0.163 0 0zm-8.313 10.062l-0.195 -2.993 -6.836 0.446c-0.199,0.013 -0.378,0.091 -0.535,0.235 -0.194,0.113 -0.316,0.288 -0.367,0.525 -0.056,0.171 -0.043,0.37 0.039,0.599 0.088,0.328 0.225,0.636 0.411,0.925 0.151,0.257 0.316,0.497 0.498,0.719l6.985 -0.456z"/>
      </g>
     </g>
    </g>
   </g>
   <g>
    <g>
     <g>
      <path class="fil3" d="M681.811 41.194c4.865,0.743 10.008,0.474 15.43,-0.806l-5.312 -18.443c0.049,-1.411 0.348,-2.466 0.896,-3.165 -14.072,4.544 -23.71,12.221 -28.912,23.03 3.428,-2.06 7.089,-2.783 10.982,-2.169 2.047,0.45 3.82,1.52 5.32,3.211l1.596 -1.658z"/>
      <g>
       <path class="fil6" d="M691.929 21.945l5.312 18.443 2.926 7.976 0.007 -16.786 -8.245 -9.633 0 0zm0.896 -3.165c0.375,-0.453 0.856,-0.752 1.445,-0.896 -5.776,-0.459 -12.345,0.989 -19.709,4.342 -0.164,0.044 -0.327,0.105 -0.489,0.182 -3.719,1.378 -7.949,3.358 -12.691,5.939l-1.045 3.175 -3.182 -1.146 -2.554 6.931c-1.537,5.111 -0.105,11.698 4.296,19.762l5.017 -15.259c5.202,-10.809 14.84,-18.486 28.912,-23.03z"/>
      </g>
     </g>
    </g>
   </g>
  </g>
  <g id="head_FL_FL_FL_FL_FL_FL_FL_FL">
   <g>
    <g>
     <g>
      <path class="fil0" d="M279.535 290.174c-2.787,0.268 -5.222,-0.152 -7.304,-1.258 -1.234,-0.651 -2.13,-1.436 -2.687,-2.353l19.112 -1.835c-0.372,1.006 -1.102,1.947 -2.19,2.822 -1.834,1.482 -4.144,2.357 -6.931,2.624z"/>
      <path class="fil1" d="M259.404 282.965c-0.05,-0.163 -0.097,-0.309 -0.143,-0.438 -0.607,-2.487 -1.066,-5.005 -1.378,-7.553 1.158,4.041 3.229,5.383 6.213,4.025 3.912,-2.151 8.59,-3.487 14.031,-4.01 4.082,-0.392 7.812,-0.247 11.193,0.433 0.818,0.155 1.623,0.346 2.415,0.571 3.604,1.262 6.126,-1.944 7.566,-9.617 0.57,4.198 0.744,8.451 0.522,12.759 -0.032,0.371 -0.083,0.711 -0.154,1.019 -0.055,0.474 -0.181,0.905 -0.378,1.292 -0.686,1.573 -2.058,2.458 -4.115,2.656l-6.52 0.626 -19.112 1.835 -4.579 0.439c-2.787,0.268 -4.59,-0.899 -5.409,-3.499 -0.053,-0.196 -0.103,-0.375 -0.152,-0.538z"/>
      <path class="fil2" d="M297.854 258.629c0.613,2.553 1.096,5.135 1.447,7.747 -1.44,7.673 -3.962,10.879 -7.566,9.617 -0.792,-0.225 -1.597,-0.416 -2.415,-0.571 -3.381,-0.68 -7.111,-0.825 -11.193,-0.433 -5.441,0.523 -10.119,1.859 -14.031,4.01 -2.984,1.358 -5.055,0.016 -6.213,-4.025 -0.205,-1.789 -0.362,-3.599 -0.471,-5.43 -0.091,-2.335 -0.067,-4.715 0.068,-7.139 0.148,-2.995 1.698,-4.634 4.651,-4.917l30.212 -2.901c2.919,-0.28 4.757,1.067 5.511,4.042z"/>
     </g>
    </g>
   </g>
   <g>
    <g>
     <g>
      <g>
       <path class="fil3" d="M268.92 264.371l0.953 3.123 -8.76 0.841c1.606,-2.465 4.208,-3.786 7.807,-3.964l0 0zm11.858 3.181l0.342 -3.248c3.567,-0.51 6.373,0.293 8.418,2.407l-8.76 0.841z"/>
      </g>
      <g>
       <path class="fil4" d="M285.961 269.214c0.095,0.292 0.159,0.604 0.19,0.936 0.083,0.863 -0.046,1.612 -0.387,2.248 -0.086,0.142 -0.175,0.268 -0.265,0.376 -0.327,0.434 -0.722,0.673 -1.187,0.717 -0.464,0.045 -0.898,-0.114 -1.301,-0.478 -0.109,-0.09 -0.203,-0.198 -0.283,-0.324 -0.488,-0.556 -0.774,-1.265 -0.857,-2.128 -0.032,-0.332 -0.029,-0.65 0.009,-0.955l4.081 -0.392 0 0zm-20.863 2.958c-0.032,-0.332 -0.028,-0.651 0.009,-0.956l4.081 -0.391c0.095,0.292 0.159,0.604 0.191,0.935 0.082,0.863 -0.047,1.612 -0.387,2.248 -0.087,0.142 -0.175,0.268 -0.266,0.377 -0.326,0.433 -0.722,0.672 -1.187,0.717 -0.464,0.044 -0.898,-0.115 -1.301,-0.478 -0.109,-0.09 -0.203,-0.198 -0.283,-0.325 -0.488,-0.555 -0.774,-1.265 -0.857,-2.127l0 0zm6.124 5.188c0.187,-0.152 0.379,-0.237 0.578,-0.256l2.837 -0.273 0.287 2.987 6.968 -0.669c-0.167,0.35 -0.388,0.673 -0.661,0.967 -1.08,1.309 -2.432,2.042 -4.058,2.198 -1.626,0.156 -3.075,-0.291 -4.348,-1.341l-0.055 -0.045c-0.545,-0.45 -0.996,-0.959 -1.352,-1.527 -0.195,-0.283 -0.358,-0.586 -0.489,-0.908 -0.055,-0.229 -0.058,-0.429 -0.008,-0.602 0.045,-0.239 0.145,-0.416 0.301,-0.531z"/>
      </g>
      <g>
       <path class="fil5" d="M286.151 270.15c-0.031,-0.332 -0.095,-0.644 -0.19,-0.936l2.24 -0.215c0.095,0.292 0.158,0.604 0.19,0.936 0.096,0.996 -0.122,1.87 -0.652,2.624 -0.03,0.037 -0.06,0.073 -0.09,0.11 -0.657,0.833 -1.5,1.299 -2.528,1.398 -1.029,0.098 -1.911,-0.202 -2.648,-0.901 -0.037,-0.03 -0.073,-0.06 -0.109,-0.09 -0.731,-0.633 -1.144,-1.448 -1.239,-2.443 -0.032,-0.332 -0.03,-0.65 0.008,-0.955l0.747 -0.072c-0.038,0.305 -0.041,0.623 -0.009,0.955 0.083,0.863 0.369,1.572 0.857,2.128 0.08,0.126 0.174,0.234 0.283,0.324 0.403,0.364 0.837,0.523 1.301,0.478 0.465,-0.044 0.86,-0.283 1.187,-0.717 0.09,-0.108 0.179,-0.234 0.265,-0.376 0.341,-0.636 0.47,-1.385 0.387,-2.248l0 0zm-21.044 1.066c-0.038,0.305 -0.041,0.624 -0.009,0.956 0.083,0.862 0.369,1.572 0.857,2.127 0.079,0.127 0.174,0.235 0.283,0.325 0.403,0.363 0.837,0.522 1.301,0.478 0.465,-0.045 0.861,-0.284 1.187,-0.717 0.09,-0.109 0.179,-0.235 0.266,-0.377 0.34,-0.636 0.469,-1.385 0.387,-2.248 -0.032,-0.331 -0.096,-0.643 -0.191,-0.935l0.498 -0.048c0.095,0.292 0.159,0.604 0.19,0.936 0.096,0.995 -0.121,1.87 -0.652,2.624 -0.03,0.036 -0.06,0.073 -0.09,0.109 -0.656,0.834 -1.499,1.3 -2.528,1.398 -1.029,0.099 -1.911,-0.202 -2.648,-0.901 -0.036,-0.03 -0.073,-0.06 -0.109,-0.09 -0.731,-0.633 -1.144,-1.447 -1.239,-2.443 -0.032,-0.331 -0.029,-0.65 0.008,-0.955l2.489 -0.239 0 0zm9.817 8.602l-0.287 -2.987 6.819 -0.655c0.199,-0.018 0.388,0.03 0.567,0.147 0.208,0.081 0.357,0.234 0.446,0.46 0.082,0.159 0.101,0.358 0.057,0.597 -0.035,0.338 -0.121,0.664 -0.258,0.979 -0.107,0.278 -0.233,0.541 -0.376,0.79l-6.968 0.669z"/>
      </g>
     </g>
    </g>
   </g>
   <g>
    <g>
     <g>
      <path class="fil3" d="M274.332 259.531c-4.683,1.512 -9.803,2.07 -15.36,1.676l2.29 -19.056c-0.274,-1.385 -0.738,-2.379 -1.392,-2.981 14.619,2.232 25.361,8.266 32.228,18.103 -3.714,-1.484 -7.443,-1.612 -11.188,-0.383 -1.948,0.772 -3.527,2.113 -4.737,4.022l-1.841 -1.381z"/>
      <g>
       <path class="fil6" d="M261.262 242.151l-2.29 19.056 -1.61 8.342 -2.696 -16.568 6.596 -10.83 0 0zm-1.392 -2.981c-0.442,-0.387 -0.965,-0.604 -1.569,-0.653 5.627,-1.377 12.344,-1.001 20.15,1.129 0.169,0.018 0.34,0.052 0.512,0.102 3.891,0.765 8.383,2.041 13.478,3.83l1.54 2.966 2.957 -1.64 3.632 6.432c2.335,4.799 1.977,11.531 -1.075,20.195l-7.397 -14.258c-6.867,-9.837 -17.609,-15.871 -32.228,-18.103z"/>
      </g>
     </g>
    </g>
   </g>
  </g>
  <g>
   <g>
    <g>
     <g>
      <path class="fil0" d="M280.214 180.874c1.186,-0.735 2.026,-1.579 2.518,-2.533l-19.193 -0.511c0.441,0.978 1.234,1.866 2.38,2.664 1.931,1.352 4.296,2.065 7.095,2.139 2.799,0.075 5.199,-0.511 7.2,-1.759z"/>
      <path class="fil2" d="M287.644 170.419c3.071,1.149 5.044,-0.333 5.921,-4.444 0.081,-1.798 0.113,-3.615 0.095,-5.449 -0.071,-2.336 -0.258,-4.708 -0.561,-7.117 -0.354,-2.978 -2.014,-4.506 -4.979,-4.585l-30.339 -0.808c-2.932,-0.078 -4.672,1.393 -5.219,4.413 -0.436,2.589 -0.739,5.199 -0.909,7.828 1.966,7.555 4.703,10.579 8.211,9.072 0.775,-0.28 1.565,-0.525 2.371,-0.737 3.325,-0.912 7.037,-1.313 11.135,-1.204 5.465,0.145 10.223,1.156 14.274,3.031z"/>
      <path class="fil1" d="M292.711 173.605c0.434,-2.523 0.719,-5.066 0.854,-7.63 -0.877,4.111 -2.85,5.593 -5.921,4.444 -4.051,-1.875 -8.809,-2.886 -14.274,-3.031 -4.098,-0.109 -7.81,0.292 -11.135,1.204 -0.806,0.212 -1.596,0.457 -2.371,0.737 -3.508,1.507 -6.245,-1.517 -8.211,-9.072 -0.279,4.227 -0.159,8.482 0.36,12.764 0.057,0.368 0.132,0.704 0.223,1.006 0.088,0.469 0.244,0.89 0.467,1.263 0.793,1.522 2.223,2.31 4.289,2.365l6.547 0.175 19.193 0.511 4.598 0.122c2.799,0.075 4.517,-1.213 5.155,-3.864 0.038,-0.199 0.076,-0.381 0.114,-0.547 0.038,-0.166 0.075,-0.314 0.112,-0.447z"/>
     </g>
    </g>
   </g>
   <g>
    <g>
     <g>
      <g>
       <path class="fil3" d="M280.573 156.126l0.113 3.254 8.557 -2.023c-2.32,-1.795 -5.21,-2.206 -8.67,-1.231l0 0zm-9.834 1.138l0.288 -3.293c-3.403,-1.191 -6.311,-0.935 -8.723,0.768l8.435 2.525z"/>
      </g>
      <path class="fil4" d="M281.499 172.056c0.269,-0.093 0.473,-0.254 0.613,-0.484 0.106,-0.23 0.129,-0.48 0.07,-0.749 -0.093,-0.269 -0.255,-0.456 -0.485,-0.562 -0.23,-0.14 -0.479,-0.18 -0.747,-0.12 -3.596,1.037 -6.687,0.672 -9.274,-1.098 -0.229,-0.172 -0.478,-0.229 -0.746,-0.17 -0.268,0.027 -0.471,0.154 -0.61,0.384 -0.173,0.229 -0.23,0.478 -0.17,0.746 0.026,0.268 0.153,0.488 0.382,0.66 3.044,2.149 6.7,2.613 10.967,1.393z"/>
      <g>
       <path class="fil5" d="M269.069 159.871c-0.647,-0.751 -1.486,-1.14 -2.519,-1.168 -1.033,-0.027 -1.926,0.316 -2.679,1.029 -0.687,0.749 -1.044,1.64 -1.071,2.673 -0.028,1.033 0.282,1.924 0.929,2.675 0.712,0.786 1.585,1.193 2.618,1.221 1.033,0.027 1.893,-0.333 2.58,-1.082 0.752,-0.714 1.142,-1.587 1.17,-2.62 0.027,-1.033 -0.315,-1.942 -1.028,-2.728l0 0zm18.593 0.495c-0.647,-0.751 -1.487,-1.14 -2.52,-1.167 -1.033,-0.028 -1.925,0.315 -2.678,1.029 -0.687,0.748 -1.044,1.639 -1.071,2.672 -0.028,1.033 0.282,1.925 0.929,2.676 0.712,0.785 1.585,1.192 2.618,1.22 1.033,0.027 1.893,-0.333 2.58,-1.082 0.752,-0.714 1.142,-1.587 1.17,-2.62 0.027,-1.033 -0.315,-1.942 -1.028,-2.728z"/>
      </g>
     </g>
    </g>
   </g>
   <g>
    <g>
     <g>
      <g>
       <path class="fil4" d="M268.639 164.761c0.449,-0.588 0.685,-1.316 0.708,-2.182 0.023,-0.866 -0.173,-1.622 -0.59,-2.266 -0.384,-0.611 -0.876,-0.924 -1.475,-0.94 -0.6,-0.016 -1.124,0.27 -1.573,0.858 -0.417,0.623 -0.637,1.367 -0.66,2.234 -0.023,0.866 0.157,1.604 0.541,2.215 0.416,0.645 0.924,0.975 1.524,0.991 0.6,0.016 1.108,-0.287 1.525,-0.91l0 0zm16.843 0.449c0.449,-0.588 0.686,-1.316 0.709,-2.182 0.023,-0.866 -0.174,-1.622 -0.59,-2.267 -0.384,-0.61 -0.876,-0.923 -1.475,-0.939 -0.6,-0.016 -1.125,0.27 -1.574,0.858 -0.417,0.622 -0.637,1.367 -0.66,2.233 -0.023,0.867 0.158,1.605 0.541,2.215 0.417,0.645 0.925,0.975 1.525,0.991 0.6,0.016 1.107,-0.287 1.524,-0.909z"/>
      </g>
     </g>
    </g>
   </g>
   <g>
    <g>
     <g>
      <g>
       <path class="fil6" d="M289.111 130.395c0.414,-0.417 0.921,-0.67 1.52,-0.76 -5.709,-0.985 -12.383,-0.146 -20.023,2.518 -0.168,0.029 -0.336,0.074 -0.504,0.136 -3.829,1.032 -8.223,2.616 -13.181,4.751l-1.332 3.065 -3.063 -1.432 -3.178 6.668c-1.999,4.948 -1.177,11.639 2.466,20.072l6.394 -14.734c6.171,-10.287 16.472,-17.048 30.901,-20.284l0 0zm-1.183 3.069l3.6 18.852 2.182 8.211 1.545 -16.714 -7.327 -10.349z"/>
      </g>
      <path class="fil3" d="M276.089 151.705c4.777,1.185 9.923,1.389 15.439,0.611l-3.6 -18.852c0.179,-1.4 0.572,-2.423 1.183,-3.069 -14.429,3.236 -24.73,9.997 -30.901,20.284 3.603,-1.737 7.315,-2.122 11.135,-1.154 1.997,0.635 3.665,1.863 5.003,3.684l1.741 -1.504z"/>
     </g>
    </g>
   </g>
  </g>
  <g>
   <g>
    <g>
     <g>
      <path class="fil0" d="M211.033 66.207c1.223,-0.673 2.105,-1.473 2.646,-2.401l-19.141 -1.502c0.389,1 1.136,1.928 2.239,2.784 1.859,1.45 4.184,2.284 6.975,2.503 2.792,0.219 5.219,-0.242 7.281,-1.384z"/>
      <path class="fil2" d="M218.994 56.149c3.007,1.306 5.055,-0.072 6.143,-4.132 0.174,-1.792 0.299,-3.605 0.376,-5.438 0.05,-2.336 -0.014,-4.715 -0.192,-7.137 -0.2,-2.991 -1.778,-4.603 -4.736,-4.835l-30.257 -2.375c-2.924,-0.229 -4.738,1.15 -5.44,4.137 -0.569,2.564 -1.007,5.154 -1.312,7.771 1.573,7.647 4.15,10.808 7.731,9.485 0.788,-0.239 1.59,-0.444 2.406,-0.614 3.368,-0.739 7.095,-0.948 11.183,-0.627 5.45,0.428 10.15,1.683 14.098,3.765z"/>
      <path class="fil1" d="M223.89 59.592c0.564,-2.497 0.979,-5.022 1.247,-7.575 -1.088,4.06 -3.135,5.438 -6.143,4.132 -3.949,-2.082 -8.648,-3.337 -14.098,-3.765 -4.088,-0.321 -7.815,-0.112 -11.183,0.627 -0.816,0.17 -1.618,0.375 -2.406,0.614 -3.581,1.323 -6.158,-1.838 -7.731,-9.485 -0.498,4.208 -0.598,8.463 -0.3,12.766 0.038,0.371 0.094,0.71 0.171,1.017 0.063,0.473 0.197,0.901 0.4,1.285 0.714,1.56 2.101,2.422 4.161,2.584l6.53 0.512 19.141 1.502 4.586 0.36c2.791,0.219 4.574,-0.978 5.348,-3.592 0.048,-0.197 0.096,-0.377 0.142,-0.541 0.047,-0.163 0.092,-0.31 0.135,-0.441z"/>
     </g>
    </g>
   </g>
   <g>
    <g>
     <g>
      <g>
       <path class="fil5" d="M200.989 44.655c-0.608,-0.784 -1.426,-1.216 -2.456,-1.297 -1.031,-0.08 -1.94,0.216 -2.728,0.89 -0.725,0.712 -1.128,1.583 -1.209,2.613 -0.081,1.031 0.183,1.937 0.79,2.72 0.671,0.822 1.522,1.273 2.552,1.354 1.03,0.081 1.907,-0.234 2.632,-0.947 0.788,-0.673 1.223,-1.525 1.304,-2.556 0.081,-1.03 -0.214,-1.956 -0.885,-2.777l0 0zm19.428 4.233c0.081,-1.03 -0.214,-1.956 -0.885,-2.778 -0.608,-0.783 -1.426,-1.215 -2.456,-1.296 -1.031,-0.081 -1.94,0.215 -2.728,0.889 -0.725,0.712 -1.128,1.583 -1.209,2.614 -0.08,1.03 0.183,1.936 0.79,2.72 0.671,0.822 1.522,1.273 2.552,1.354 1.03,0.081 1.908,-0.235 2.632,-0.947 0.788,-0.674 1.223,-1.526 1.304,-2.556z"/>
      </g>
      <g>
       <path class="fil3" d="M213.995 40.61l-0.898 3.139 8.773 0.689c-1.648,-2.436 -4.273,-3.712 -7.875,-3.828l0 0zm-11.645 1.393l-0.397 -3.241c-3.576,-0.448 -6.368,0.403 -8.376,2.552l8.773 0.689z"/>
      </g>
     </g>
    </g>
   </g>
   <g>
    <g>
     <g>
      <path class="fil4" d="M209.46 56.855l-6.978 -0.548c-0.185,0.22 -0.354,0.457 -0.508,0.713 -0.189,0.286 -0.33,0.592 -0.423,0.919 -0.085,0.228 -0.1,0.427 -0.047,0.598 0.048,0.238 0.168,0.415 0.36,0.53 0.155,0.146 0.333,0.227 0.532,0.243l9.67 0.759c0.2,0.015 0.405,-0.035 0.614,-0.153 0.174,-0.086 0.304,-0.243 0.388,-0.471 0.08,-0.161 0.112,-0.359 0.097,-0.594 -0.074,-0.34 -0.182,-0.666 -0.324,-0.978 -0.252,-0.622 -0.608,-1.202 -1.067,-1.739l-0.047 -0.054c-0.612,-0.717 -1.322,-1.258 -2.129,-1.621l-0.138 2.396z"/>
      <path class="fil5" d="M209.598 54.459c-0.582,-0.247 -1.223,-0.398 -1.921,-0.452 -1.628,-0.128 -3.087,0.359 -4.378,1.462 -0.319,0.242 -0.592,0.521 -0.817,0.838l6.978 0.548 0.138 -2.396z"/>
     </g>
    </g>
   </g>
   <g>
    <g>
     <g>
      <g>
       <path class="fil4" d="M200.306 49.516c0.479,-0.564 0.753,-1.278 0.82,-2.142 0.068,-0.864 -0.089,-1.629 -0.471,-2.294 -0.352,-0.63 -0.827,-0.968 -1.426,-1.015 -0.598,-0.047 -1.136,0.212 -1.615,0.776 -0.449,0.6 -0.706,1.332 -0.774,2.196 -0.068,0.864 0.074,1.611 0.425,2.241 0.383,0.665 0.873,1.021 1.471,1.068 0.599,0.047 1.122,-0.23 1.57,-0.83l0 0zm16.799 1.319c0.478,-0.565 0.752,-1.279 0.82,-2.143 0.067,-0.864 -0.09,-1.629 -0.472,-2.294 -0.352,-0.629 -0.827,-0.967 -1.425,-1.015 -0.598,-0.046 -1.137,0.213 -1.616,0.776 -0.448,0.601 -0.706,1.333 -0.774,2.197 -0.068,0.864 0.074,1.611 0.426,2.24 0.382,0.665 0.873,1.021 1.471,1.068 0.598,0.047 1.121,-0.229 1.57,-0.829z"/>
      </g>
     </g>
    </g>
   </g>
   <g>
    <g>
     <g>
      <g>
       <path class="fil6" d="M222.527 16.253c0.436,-0.394 0.955,-0.621 1.558,-0.68 -5.65,-1.28 -12.359,-0.786 -20.127,1.479 -0.169,0.021 -0.339,0.057 -0.511,0.111 -3.877,0.832 -8.346,2.187 -13.409,4.063l-1.489 2.992 -2.984 -1.588 -3.519 6.495c-2.253,4.838 -1.777,11.563 1.426,20.173l7.147 -14.385c6.694,-9.954 17.33,-16.174 31.908,-18.66l0 0zm-1.339 3.004l2.62 19.014 1.755 8.312 2.407 -16.612 -6.782 -10.714z"/>
      </g>
      <path class="fil3" d="M208.421 36.862c4.709,1.431 9.838,1.9 15.387,1.409l-2.62 -19.014c0.25,-1.389 0.696,-2.391 1.339,-3.004 -14.578,2.486 -25.214,8.706 -31.908,18.66 3.688,-1.548 7.414,-1.74 11.18,-0.577 1.961,0.738 3.563,2.051 4.806,3.939l1.816 -1.413z"/>
     </g>
    </g>
   </g>
  </g>
  <g>
   <g>
    <g>
     <g>
      <path class="fil0" d="M367.083 63.857c1.223,-0.673 2.105,-1.474 2.646,-2.401l-19.141 -1.502c0.39,1 1.136,1.928 2.239,2.784 1.859,1.449 4.184,2.284 6.976,2.503 2.791,0.219 5.218,-0.242 7.28,-1.384z"/>
      <path class="fil2" d="M375.045 53.799c3.007,1.306 5.054,-0.071 6.142,-4.132 0.174,-1.792 0.3,-3.605 0.376,-5.437 0.05,-2.337 -0.014,-4.716 -0.192,-7.137 -0.2,-2.992 -1.778,-4.604 -4.736,-4.836l-30.257 -2.375c-2.924,-0.229 -4.737,1.15 -5.44,4.137 -0.569,2.563 -1.007,5.154 -1.312,7.772 1.573,7.646 4.15,10.807 7.731,9.484 0.788,-0.24 1.59,-0.444 2.406,-0.614 3.368,-0.739 7.095,-0.948 11.183,-0.627 5.45,0.428 10.15,1.683 14.099,3.765z"/>
      <path class="fil1" d="M379.94 57.243c0.564,-2.498 0.98,-5.023 1.247,-7.576 -1.088,4.061 -3.135,5.438 -6.142,4.132 -3.949,-2.083 -8.649,-3.337 -14.099,-3.765 -4.088,-0.321 -7.815,-0.112 -11.183,0.627 -0.816,0.17 -1.618,0.374 -2.406,0.614 -3.581,1.324 -6.158,-1.838 -7.731,-9.484 -0.498,4.207 -0.597,8.462 -0.3,12.765 0.038,0.371 0.095,0.71 0.171,1.017 0.063,0.473 0.197,0.901 0.4,1.285 0.714,1.561 2.101,2.422 4.161,2.583l6.53 0.513 19.141 1.502 4.586 0.36c2.792,0.219 4.574,-0.978 5.348,-3.592 0.048,-0.197 0.096,-0.377 0.143,-0.541 0.046,-0.163 0.091,-0.31 0.134,-0.44z"/>
     </g>
    </g>
   </g>
   <g>
    <g>
     <g>
      <g>
       <path class="fil5" d="M357.039 42.305c-0.607,-0.783 -1.426,-1.216 -2.456,-1.297 -1.031,-0.081 -1.94,0.216 -2.728,0.89 -0.725,0.712 -1.128,1.583 -1.208,2.613 -0.081,1.03 0.182,1.937 0.789,2.72 0.671,0.822 1.522,1.273 2.552,1.354 1.03,0.081 1.908,-0.235 2.632,-0.947 0.789,-0.674 1.223,-1.525 1.304,-2.556 0.081,-1.03 -0.214,-1.956 -0.885,-2.777l0 0zm19.428 4.233c0.081,-1.031 -0.214,-1.956 -0.885,-2.778 -0.607,-0.783 -1.426,-1.215 -2.456,-1.296 -1.03,-0.081 -1.94,0.216 -2.728,0.889 -0.725,0.712 -1.128,1.583 -1.208,2.614 -0.081,1.03 0.182,1.936 0.789,2.72 0.671,0.821 1.522,1.273 2.552,1.354 1.03,0.081 1.908,-0.235 2.632,-0.948 0.789,-0.673 1.224,-1.525 1.304,-2.555z"/>
      </g>
      <g>
       <path class="fil3" d="M370.045 38.26l-0.898 3.139 8.773 0.689c-1.648,-2.437 -4.273,-3.713 -7.875,-3.828l0 0zm-11.644 1.393l-0.398 -3.241c-3.576,-0.448 -6.368,0.403 -8.376,2.552l8.774 0.689z"/>
      </g>
     </g>
    </g>
   </g>
   <g>
    <g>
     <g>
      <path class="fil4" d="M365.51 54.505l-6.978 -0.548c-0.185,0.22 -0.354,0.457 -0.508,0.713 -0.189,0.286 -0.33,0.592 -0.423,0.919 -0.085,0.228 -0.1,0.427 -0.047,0.599 0.048,0.237 0.168,0.414 0.36,0.529 0.155,0.146 0.333,0.227 0.533,0.243l9.67 0.759c0.199,0.015 0.404,-0.035 0.614,-0.153 0.174,-0.087 0.303,-0.243 0.387,-0.471 0.08,-0.161 0.112,-0.359 0.097,-0.594 -0.073,-0.34 -0.182,-0.666 -0.324,-0.979 -0.252,-0.621 -0.608,-1.201 -1.067,-1.738l-0.046 -0.054c-0.613,-0.717 -1.323,-1.257 -2.13,-1.622l-0.138 2.397z"/>
      <path class="fil5" d="M365.648 52.108c-0.582,-0.246 -1.223,-0.396 -1.92,-0.451 -1.629,-0.128 -3.088,0.359 -4.378,1.462 -0.32,0.242 -0.593,0.522 -0.818,0.838l6.978 0.548 0.138 -2.397z"/>
     </g>
    </g>
   </g>
   <g>
    <g>
     <g>
      <g>
       <path class="fil4" d="M356.357 47.166c0.478,-0.564 0.752,-1.278 0.82,-2.142 0.067,-0.864 -0.09,-1.629 -0.472,-2.294 -0.352,-0.63 -0.827,-0.968 -1.425,-1.015 -0.599,-0.047 -1.137,0.212 -1.616,0.776 -0.448,0.6 -0.706,1.332 -0.774,2.196 -0.068,0.864 0.074,1.611 0.426,2.24 0.382,0.666 0.873,1.022 1.471,1.069 0.598,0.047 1.121,-0.23 1.57,-0.83l0 0zm16.798 1.319c0.479,-0.565 0.752,-1.279 0.82,-2.143 0.068,-0.864 -0.09,-1.629 -0.472,-2.294 -0.352,-0.629 -0.827,-0.967 -1.425,-1.014 -0.598,-0.047 -1.137,0.211 -1.616,0.776 -0.448,0.6 -0.706,1.332 -0.774,2.196 -0.068,0.864 0.074,1.61 0.426,2.24 0.383,0.665 0.873,1.021 1.471,1.068 0.598,0.047 1.121,-0.229 1.57,-0.829z"/>
      </g>
     </g>
    </g>
   </g>
   <g>
    <g>
     <g>
      <g>
       <path class="fil6" d="M378.577 13.903c0.436,-0.395 0.955,-0.621 1.558,-0.68 -5.65,-1.28 -12.359,-0.786 -20.127,1.479 -0.169,0.02 -0.339,0.057 -0.51,0.111 -3.877,0.832 -8.347,2.187 -13.409,4.063l-1.489 2.993 -2.985 -1.589 -3.519 6.495c-2.252,4.839 -1.777,11.563 1.426,20.173l7.147 -14.385c6.695,-9.954 17.331,-16.175 31.908,-18.66l0 0zm-1.339 3.004l2.62 19.014 1.755 8.312 2.407 -16.612 -6.782 -10.714z"/>
      </g>
      <path class="fil3" d="M364.472 34.512c4.708,1.431 9.838,1.9 15.386,1.409l-2.62 -19.014c0.25,-1.389 0.697,-2.391 1.339,-3.004 -14.577,2.486 -25.213,8.706 -31.908,18.66 3.688,-1.548 7.415,-1.741 11.18,-0.577 1.961,0.738 3.563,2.051 4.806,3.938l1.817 -1.412z"/>
     </g>
    </g>
   </g>
  </g>
  <g>
   <g>
    <g>
     <g>
      <path class="fil0" d="M528.284 64.901c-2.067,1.133 -4.496,1.584 -7.286,1.353 -2.791,-0.231 -5.112,-1.076 -6.964,-2.534 -1.1,-0.86 -1.842,-1.792 -2.227,-2.794l19.134 1.586c-0.545,0.925 -1.431,1.722 -2.657,2.389z"/>
      <path class="fil2" d="M502.466 55.587c-0.474,-6.796 0.112,-13.654 1.756,-20.575 0.677,-2.921 2.493,-4.259 5.449,-4.014l30.246 2.507c2.924,0.242 4.492,1.894 4.707,4.956 0.429,6.926 -0.138,13.769 -1.701,20.529 -0.713,2.951 -2.531,4.306 -5.455,4.064l-6.527 -0.542 -19.134 -1.586 -4.584 -0.379c-2.957,-0.245 -4.542,-1.898 -4.757,-4.96z"/>
     </g>
    </g>
   </g>
   <g>
    <g>
     <g>
      <g>
       <path class="fil6" d="M521.624 56.272l-19.166 -8.462c13.513,4.849 27.307,6.293 41.383,4.333l-22.217 4.129 0 0zm-10.698 -42.228c-0.366,-0.459 -0.843,-0.766 -1.429,-0.921 5.783,-0.357 12.326,1.206 19.63,4.688 0.163,0.047 0.325,0.11 0.486,0.19 3.693,1.444 7.888,3.497 12.584,6.161l0.99 3.192 3.2 -1.089 2.433 6.974c1.389,4.934 0.019,11.175 -4.111,18.725 -0.173,0.322 -0.351,0.642 -0.531,0.959l-0.233 -0.822 -4.516 -14.522c-5.012,-10.899 -14.513,-18.744 -28.503,-23.535l0 0zm0.84 3.18l-5.634 18.347 -4.017 6.09 1.239 -14.949 8.412 -9.488z"/>
      </g>
      <path class="fil3" d="M511.766 17.224c-0.023,-1.411 -0.304,-2.471 -0.84,-3.18 13.99,4.791 23.491,12.636 28.503,23.535l4.516 14.522 -0.104 0.042c-14.076,1.96 -27.87,0.516 -41.383,-4.333l-0.343 -6.149 4.017 -6.09 5.634 -18.347z"/>
     </g>
    </g>
   </g>
  </g>
  <g>
   <g>
    <g>
     <g>
      <path class="fil0" d="M287.667 81.084c1.226,-0.667 2.112,-1.464 2.657,-2.388l-19.135 -1.586c0.385,1.002 1.128,1.933 2.227,2.793 1.853,1.458 4.174,2.303 6.964,2.534 2.791,0.231 5.22,-0.22 7.287,-1.353z"/>
      <path class="fil2" d="M295.672 71.061c3.002,1.319 5.055,-0.049 6.16,-4.105 0.182,-1.791 0.315,-3.603 0.401,-5.435 0.059,-2.337 0.006,-4.716 -0.162,-7.138 -0.186,-2.992 -1.758,-4.611 -4.714,-4.856l-30.246 -2.507c-2.924,-0.242 -4.743,1.129 -5.459,4.114 -0.58,2.56 -1.028,5.149 -1.345,7.765 1.539,7.653 4.103,10.825 7.689,9.517 0.789,-0.235 1.592,-0.436 2.409,-0.603 3.371,-0.724 7.1,-0.916 11.185,-0.578 5.448,0.452 10.142,1.727 14.082,3.826z"/>
      <path class="fil1" d="M300.553 74.526c0.574,-2.494 1.001,-5.017 1.279,-7.57 -1.105,4.056 -3.159,5.424 -6.16,4.105 -3.94,-2.099 -8.634,-3.374 -14.082,-3.826 -4.085,-0.338 -7.814,-0.146 -11.185,0.578 -0.817,0.167 -1.62,0.368 -2.409,0.603 -3.586,1.308 -6.15,-1.864 -7.689,-9.517 -0.516,4.205 -0.635,8.459 -0.356,12.764 0.036,0.371 0.092,0.71 0.167,1.017 0.061,0.473 0.192,0.903 0.395,1.287 0.706,1.564 2.089,2.431 4.149,2.602l6.527 0.541 19.135 1.586 4.584 0.379c2.79,0.232 4.578,-0.958 5.363,-3.569 0.049,-0.196 0.098,-0.376 0.145,-0.54 0.047,-0.163 0.092,-0.31 0.137,-0.44z"/>
     </g>
    </g>
   </g>
   <g>
    <g>
     <g>
      <g>
       <path class="fil3" d="M289.412 56.394l-0.069 3.256 8.657 -1.54c-2.215,-1.923 -5.078,-2.495 -8.588,-1.716l0 0zm-9.882 0.586l0.472 -3.272c-3.33,-1.38 -6.248,-1.287 -8.753,0.278l8.281 2.994z"/>
      </g>
      <path class="fil4" d="M289.444 72.351c0.274,-0.077 0.488,-0.227 0.64,-0.448 0.119,-0.225 0.156,-0.472 0.111,-0.744 -0.077,-0.274 -0.228,-0.47 -0.452,-0.589 -0.222,-0.152 -0.468,-0.206 -0.74,-0.162 -3.648,0.835 -6.714,0.297 -9.197,-1.615 -0.219,-0.185 -0.464,-0.256 -0.736,-0.212 -0.268,0.012 -0.478,0.128 -0.63,0.35 -0.186,0.219 -0.256,0.463 -0.212,0.735 0.011,0.268 0.126,0.495 0.345,0.681 2.919,2.315 6.542,2.983 10.871,2.004z"/>
      <g>
       <path class="fil5" d="M277.717 59.489c-0.604,-0.786 -1.421,-1.221 -2.45,-1.307 -1.03,-0.085 -1.941,0.207 -2.732,0.877 -0.728,0.709 -1.134,1.579 -1.22,2.609 -0.085,1.03 0.174,1.937 0.778,2.723 0.667,0.825 1.516,1.279 2.546,1.365 1.03,0.085 1.909,-0.226 2.636,-0.936 0.792,-0.67 1.23,-1.52 1.315,-2.55 0.085,-1.029 -0.206,-1.957 -0.873,-2.781l0 0zm18.536 1.536c-0.604,-0.786 -1.42,-1.221 -2.45,-1.307 -1.03,-0.085 -1.941,0.208 -2.732,0.878 -0.728,0.709 -1.134,1.578 -1.219,2.608 -0.086,1.03 0.173,1.937 0.777,2.723 0.667,0.825 1.516,1.28 2.546,1.365 1.03,0.086 1.909,-0.226 2.636,-0.935 0.792,-0.67 1.23,-1.52 1.315,-2.55 0.086,-1.03 -0.205,-1.957 -0.873,-2.782z"/>
      </g>
     </g>
    </g>
   </g>
   <g>
    <g>
     <g>
      <g>
       <path class="fil4" d="M277.013 64.347c0.482,-0.562 0.758,-1.275 0.83,-2.139 0.071,-0.863 -0.083,-1.629 -0.462,-2.296 -0.349,-0.63 -0.823,-0.971 -1.421,-1.02 -0.598,-0.05 -1.137,0.207 -1.619,0.769 -0.45,0.598 -0.712,1.329 -0.783,2.193 -0.072,0.863 0.067,1.61 0.416,2.241 0.379,0.667 0.868,1.026 1.466,1.075 0.598,0.05 1.122,-0.224 1.573,-0.823l0 0zm16.792 1.392c0.482,-0.562 0.758,-1.275 0.83,-2.139 0.071,-0.863 -0.083,-1.629 -0.462,-2.296 -0.349,-0.631 -0.822,-0.971 -1.421,-1.02 -0.598,-0.05 -1.137,0.206 -1.618,0.768 -0.451,0.599 -0.713,1.33 -0.784,2.193 -0.072,0.864 0.067,1.611 0.416,2.242 0.379,0.667 0.868,1.025 1.466,1.075 0.598,0.049 1.122,-0.225 1.573,-0.823z"/>
      </g>
     </g>
    </g>
   </g>
   <g>
    <g>
     <g>
      <g>
       <path class="fil6" d="M299.379 31.182c0.437,-0.392 0.957,-0.617 1.561,-0.674 -5.645,-1.304 -12.356,-0.84 -20.134,1.392 -0.169,0.02 -0.339,0.056 -0.51,0.108 -3.881,0.816 -8.356,2.151 -13.427,4.005l-1.502 2.986 -2.978 -1.601 -3.547 6.479c-2.273,4.828 -1.827,11.555 1.338,20.179l7.21 -14.353c6.738,-9.925 17.401,-16.099 31.989,-18.521l0 0zm-1.352 2.998l2.537 19.024 1.718 8.321 2.48 -16.602 -6.735 -10.743z"/>
      </g>
      <path class="fil3" d="M285.183 51.729c4.703,1.451 9.83,1.943 15.381,1.475l-2.537 -19.024c0.256,-1.388 0.706,-2.388 1.352,-2.998 -14.588,2.422 -25.251,8.595 -31.989,18.521 3.695,-1.533 7.422,-1.709 11.182,-0.529 1.958,0.747 3.555,2.066 4.789,3.959l1.822 -1.404z"/>
     </g>
    </g>
   </g>
  </g>
  <g>
   <g>
    <g>
     <g>
      <path class="fil0" d="M195.564 180.874c1.186,-0.735 2.025,-1.579 2.518,-2.533l-19.193 -0.511c0.441,0.978 1.234,1.866 2.38,2.664 1.931,1.352 4.296,2.065 7.095,2.139 2.799,0.075 5.199,-0.511 7.2,-1.759z"/>
      <path class="fil2" d="M202.994 170.419c3.071,1.149 5.044,-0.333 5.921,-4.444 0.081,-1.798 0.112,-3.615 0.095,-5.449 -0.071,-2.336 -0.258,-4.708 -0.561,-7.117 -0.354,-2.978 -2.014,-4.506 -4.979,-4.585l-30.339 -0.808c-2.932,-0.078 -4.672,1.393 -5.219,4.413 -0.436,2.589 -0.739,5.199 -0.909,7.828 1.966,7.555 4.703,10.579 8.211,9.072 0.775,-0.28 1.565,-0.525 2.371,-0.737 3.325,-0.912 7.037,-1.313 11.135,-1.204 5.465,0.145 10.223,1.156 14.274,3.031z"/>
      <path class="fil1" d="M208.061 173.605c0.434,-2.523 0.718,-5.066 0.854,-7.63 -0.877,4.111 -2.85,5.593 -5.921,4.444 -4.051,-1.875 -8.809,-2.886 -14.274,-3.031 -4.098,-0.109 -7.81,0.292 -11.135,1.204 -0.806,0.212 -1.596,0.457 -2.371,0.737 -3.508,1.507 -6.245,-1.517 -8.211,-9.072 -0.279,4.227 -0.159,8.482 0.36,12.764 0.057,0.368 0.131,0.704 0.224,1.006 0.087,0.469 0.243,0.89 0.466,1.263 0.793,1.522 2.223,2.31 4.288,2.365l6.548 0.175 19.193 0.511 4.598 0.122c2.799,0.075 4.517,-1.213 5.155,-3.864 0.038,-0.199 0.076,-0.381 0.114,-0.547 0.038,-0.166 0.075,-0.314 0.112,-0.447z"/>
     </g>
    </g>
   </g>
   <g>
    <g>
     <g>
      <g>
       <path class="fil3" d="M195.923 156.126l0.113 3.254 8.556 -2.023c-2.319,-1.795 -5.209,-2.206 -8.669,-1.231l0 0zm-9.834 1.138l0.288 -3.293c-3.403,-1.191 -6.311,-0.935 -8.724,0.768l8.436 2.525z"/>
      </g>
      <path class="fil4" d="M196.849 172.056c0.269,-0.093 0.473,-0.254 0.613,-0.484 0.106,-0.23 0.129,-0.48 0.07,-0.749 -0.093,-0.269 -0.255,-0.456 -0.485,-0.562 -0.23,-0.14 -0.479,-0.18 -0.748,-0.12 -3.595,1.037 -6.686,0.672 -9.273,-1.098 -0.229,-0.172 -0.478,-0.229 -0.746,-0.17 -0.268,0.027 -0.471,0.154 -0.611,0.384 -0.172,0.229 -0.229,0.478 -0.169,0.746 0.026,0.268 0.153,0.488 0.382,0.66 3.044,2.149 6.699,2.613 10.967,1.393z"/>
      <g>
       <path class="fil5" d="M184.419 159.871c-0.647,-0.751 -1.487,-1.14 -2.52,-1.168 -1.033,-0.027 -1.925,0.316 -2.678,1.029 -0.687,0.749 -1.044,1.64 -1.072,2.673 -0.027,1.033 0.283,1.924 0.93,2.675 0.712,0.786 1.585,1.193 2.618,1.221 1.033,0.027 1.893,-0.333 2.58,-1.082 0.752,-0.714 1.142,-1.587 1.17,-2.62 0.027,-1.033 -0.315,-1.942 -1.028,-2.728l0 0zm18.593 0.495c-0.647,-0.751 -1.487,-1.14 -2.52,-1.167 -1.033,-0.028 -1.926,0.315 -2.678,1.029 -0.687,0.748 -1.044,1.639 -1.072,2.672 -0.027,1.033 0.283,1.925 0.929,2.676 0.713,0.785 1.586,1.192 2.619,1.22 1.033,0.027 1.893,-0.333 2.579,-1.082 0.753,-0.714 1.143,-1.587 1.171,-2.62 0.027,-1.033 -0.315,-1.942 -1.028,-2.728z"/>
      </g>
     </g>
    </g>
   </g>
   <g>
    <g>
     <g>
      <g>
       <path class="fil4" d="M183.989 164.761c0.449,-0.588 0.685,-1.316 0.708,-2.182 0.023,-0.866 -0.173,-1.622 -0.59,-2.266 -0.384,-0.611 -0.876,-0.924 -1.475,-0.94 -0.6,-0.016 -1.125,0.27 -1.574,0.858 -0.416,0.623 -0.636,1.367 -0.659,2.234 -0.024,0.866 0.157,1.604 0.541,2.215 0.416,0.645 0.924,0.975 1.524,0.991 0.6,0.016 1.108,-0.287 1.525,-0.91l0 0zm16.843 0.449c0.45,-0.588 0.685,-1.316 0.708,-2.182 0.024,-0.866 -0.173,-1.622 -0.589,-2.267 -0.384,-0.61 -0.876,-0.923 -1.476,-0.939 -0.599,-0.016 -1.124,0.27 -1.573,0.858 -0.417,0.622 -0.637,1.367 -0.66,2.233 -0.023,0.867 0.158,1.605 0.541,2.215 0.417,0.645 0.925,0.975 1.525,0.991 0.599,0.016 1.108,-0.287 1.524,-0.909z"/>
      </g>
     </g>
    </g>
   </g>
   <g>
    <g>
     <g>
      <g>
       <path class="fil6" d="M204.461 130.395c0.414,-0.417 0.921,-0.67 1.52,-0.76 -5.709,-0.985 -12.383,-0.146 -20.024,2.518 -0.167,0.029 -0.335,0.074 -0.503,0.136 -3.829,1.032 -8.222,2.616 -13.181,4.751l-1.332 3.065 -3.063 -1.432 -3.178 6.668c-1.999,4.948 -1.177,11.639 2.466,20.072l6.394 -14.734c6.171,-10.287 16.471,-17.048 30.901,-20.284l0 0zm-1.183 3.069l3.6 18.852 2.181 8.211 1.546 -16.714 -7.327 -10.349z"/>
      </g>
      <path class="fil3" d="M191.439 151.705c4.777,1.185 9.923,1.389 15.439,0.611l-3.6 -18.852c0.178,-1.4 0.572,-2.423 1.183,-3.069 -14.43,3.236 -24.73,9.997 -30.901,20.284 3.603,-1.737 7.314,-2.122 11.135,-1.154 1.996,0.635 3.664,1.863 5.003,3.684l1.741 -1.504z"/>
     </g>
    </g>
   </g>
  </g>
  <g>
   <g>
    <g>
     <g>
      <path class="fil0" d="M520.414 178.324c1.186,-0.735 2.026,-1.579 2.518,-2.533l-19.193 -0.511c0.441,0.978 1.234,1.866 2.38,2.664 1.932,1.352 4.297,2.065 7.096,2.139 2.798,0.075 5.198,-0.511 7.199,-1.759z"/>
      <path class="fil2" d="M527.844 167.869c3.071,1.149 5.045,-0.333 5.921,-4.444 0.081,-1.798 0.113,-3.615 0.095,-5.449 -0.071,-2.336 -0.258,-4.708 -0.561,-7.118 -0.354,-2.977 -2.014,-4.504 -4.979,-4.583l-30.339 -0.809c-2.932,-0.078 -4.672,1.393 -5.219,4.413 -0.436,2.589 -0.738,5.199 -0.909,7.828 1.967,7.555 4.704,10.579 8.212,9.072 0.774,-0.28 1.564,-0.525 2.37,-0.737 3.325,-0.912 7.037,-1.313 11.136,-1.204 5.464,0.145 10.222,1.156 14.273,3.031z"/>
      <path class="fil1" d="M532.911 171.055c0.435,-2.523 0.719,-5.066 0.854,-7.63 -0.877,4.111 -2.85,5.593 -5.921,4.444 -4.051,-1.875 -8.809,-2.886 -14.273,-3.031 -4.099,-0.109 -7.811,0.292 -11.136,1.204 -0.806,0.212 -1.596,0.457 -2.37,0.737 -3.508,1.507 -6.245,-1.517 -8.212,-9.072 -0.279,4.227 -0.159,8.482 0.361,12.764 0.056,0.368 0.131,0.704 0.223,1.006 0.087,0.469 0.243,0.89 0.466,1.263 0.793,1.522 2.223,2.31 4.289,2.365l6.547 0.175 19.193 0.511 4.598 0.122c2.799,0.075 4.517,-1.213 5.155,-3.864 0.038,-0.199 0.077,-0.381 0.114,-0.547 0.038,-0.166 0.076,-0.315 0.112,-0.447z"/>
     </g>
    </g>
   </g>
   <g>
    <g>
     <g>
      <g>
       <path class="fil3" d="M520.773 153.576l0.113 3.254 8.557 -2.023c-2.32,-1.795 -5.21,-2.206 -8.67,-1.231l0 0zm-9.834 1.138l0.288 -3.293c-3.403,-1.191 -6.31,-0.935 -8.723,0.768l8.435 2.525z"/>
      </g>
      <path class="fil4" d="M521.699 169.506c0.269,-0.093 0.474,-0.254 0.613,-0.484 0.106,-0.23 0.13,-0.48 0.07,-0.748 -0.093,-0.27 -0.254,-0.457 -0.485,-0.563 -0.23,-0.14 -0.479,-0.18 -0.747,-0.121 -3.596,1.038 -6.687,0.673 -9.274,-1.097 -0.229,-0.172 -0.477,-0.229 -0.746,-0.17 -0.267,0.027 -0.471,0.154 -0.61,0.384 -0.173,0.229 -0.23,0.478 -0.17,0.746 0.026,0.267 0.154,0.487 0.383,0.661 3.043,2.148 6.699,2.612 10.966,1.392z"/>
      <g>
       <path class="fil5" d="M509.27 157.321c-0.647,-0.751 -1.487,-1.14 -2.52,-1.168 -1.033,-0.027 -1.926,0.316 -2.679,1.029 -0.687,0.749 -1.044,1.64 -1.071,2.673 -0.028,1.033 0.282,1.924 0.929,2.675 0.713,0.786 1.585,1.193 2.618,1.22 1.033,0.028 1.893,-0.333 2.58,-1.081 0.753,-0.714 1.143,-1.587 1.17,-2.62 0.028,-1.033 -0.315,-1.942 -1.027,-2.728l0 0zm18.592 0.495c-0.646,-0.751 -1.487,-1.14 -2.52,-1.167 -1.033,-0.028 -1.925,0.315 -2.678,1.029 -0.687,0.748 -1.044,1.639 -1.071,2.672 -0.028,1.033 0.282,1.925 0.929,2.676 0.713,0.786 1.585,1.192 2.618,1.22 1.033,0.027 1.893,-0.333 2.58,-1.082 0.752,-0.713 1.143,-1.587 1.17,-2.62 0.027,-1.033 -0.315,-1.942 -1.028,-2.728z"/>
      </g>
     </g>
    </g>
   </g>
   <g>
    <g>
     <g>
      <g>
       <path class="fil4" d="M508.839 162.211c0.449,-0.588 0.685,-1.316 0.708,-2.182 0.023,-0.866 -0.173,-1.622 -0.59,-2.266 -0.383,-0.611 -0.875,-0.924 -1.475,-0.94 -0.6,-0.016 -1.124,0.27 -1.573,0.859 -0.417,0.622 -0.637,1.366 -0.66,2.233 -0.023,0.866 0.158,1.604 0.541,2.215 0.417,0.645 0.925,0.975 1.524,0.991 0.6,0.016 1.108,-0.287 1.525,-0.91l0 0zm16.844 0.449c0.449,-0.588 0.685,-1.316 0.708,-2.182 0.023,-0.866 -0.174,-1.622 -0.59,-2.267 -0.384,-0.61 -0.875,-0.923 -1.475,-0.939 -0.6,-0.016 -1.125,0.27 -1.574,0.858 -0.417,0.623 -0.636,1.367 -0.659,2.233 -0.023,0.867 0.157,1.605 0.541,2.215 0.416,0.645 0.924,0.976 1.524,0.991 0.6,0.016 1.108,-0.287 1.525,-0.909z"/>
      </g>
     </g>
    </g>
   </g>
   <g>
    <g>
     <g>
      <g>
       <path class="fil6" d="M529.311 127.845c0.414,-0.417 0.921,-0.67 1.52,-0.76 -5.709,-0.985 -12.383,-0.146 -20.023,2.518 -0.168,0.029 -0.335,0.074 -0.504,0.136 -3.829,1.032 -8.222,2.616 -13.181,4.751l-1.332 3.065 -3.063 -1.431 -3.178 6.667c-1.999,4.948 -1.177,11.639 2.466,20.072l6.395 -14.734c6.17,-10.287 16.471,-17.048 30.9,-20.284l0 0zm-1.182 3.069l3.599 18.853 2.182 8.21 1.546 -16.714 -7.327 -10.349z"/>
      </g>
      <path class="fil3" d="M516.289 149.155c4.777,1.185 9.923,1.389 15.439,0.612l-3.599 -18.853c0.178,-1.4 0.572,-2.423 1.182,-3.069 -14.429,3.236 -24.73,9.997 -30.9,20.284 3.602,-1.737 7.314,-2.122 11.134,-1.154 1.997,0.635 3.665,1.863 5.003,3.684l1.741 -1.504z"/>
     </g>
    </g>
   </g>
  </g>
  <g>
   <g>
    <g>
     <g>
      <path class="fil0" d="M605.564 173.324c1.186,-0.735 2.026,-1.579 2.518,-2.533l-19.192 -0.511c0.44,0.978 1.234,1.866 2.379,2.664 1.931,1.352 4.297,2.065 7.096,2.139 2.799,0.075 5.198,-0.511 7.199,-1.759z"/>
      <path class="fil2" d="M612.995 162.869c3.07,1.149 5.043,-0.333 5.92,-4.444 0.081,-1.798 0.113,-3.615 0.095,-5.449 -0.071,-2.336 -0.258,-4.708 -0.561,-7.117 -0.354,-2.978 -2.013,-4.506 -4.979,-4.585l-30.339 -0.808c-2.932,-0.078 -4.671,1.393 -5.219,4.413 -0.435,2.589 -0.739,5.199 -0.909,7.828 1.966,7.555 4.704,10.579 8.212,9.072 0.774,-0.28 1.564,-0.525 2.37,-0.737 3.325,-0.912 7.037,-1.313 11.136,-1.204 5.464,0.145 10.222,1.156 14.274,3.031z"/>
      <path class="fil1" d="M618.061 166.055c0.434,-2.523 0.719,-5.066 0.854,-7.63 -0.877,4.111 -2.85,5.593 -5.92,4.444 -4.052,-1.875 -8.81,-2.886 -14.274,-3.031 -4.099,-0.109 -7.811,0.292 -11.136,1.204 -0.806,0.212 -1.596,0.457 -2.37,0.737 -3.508,1.507 -6.245,-1.517 -8.212,-9.072 -0.279,4.227 -0.159,8.482 0.361,12.764 0.057,0.368 0.131,0.704 0.223,1.006 0.088,0.469 0.243,0.89 0.467,1.263 0.793,1.522 2.222,2.31 4.288,2.365l6.548 0.175 19.192 0.511 4.599 0.122c2.798,0.075 4.516,-1.213 5.154,-3.864 0.039,-0.199 0.077,-0.381 0.115,-0.547 0.037,-0.166 0.075,-0.315 0.111,-0.447z"/>
     </g>
    </g>
   </g>
   <g>
    <g>
     <g>
      <g>
       <path class="fil3" d="M605.923 148.576l0.114 3.254 8.556 -2.023c-2.319,-1.795 -5.21,-2.206 -8.67,-1.231l0 0zm-9.833 1.138l0.287 -3.293c-3.403,-1.191 -6.31,-0.935 -8.723,0.768l8.436 2.525z"/>
      </g>
      <path class="fil4" d="M606.849 164.506c0.269,-0.093 0.474,-0.254 0.613,-0.484 0.106,-0.231 0.13,-0.48 0.07,-0.749 -0.093,-0.269 -0.254,-0.456 -0.485,-0.563 -0.23,-0.139 -0.479,-0.179 -0.747,-0.119 -3.595,1.037 -6.687,0.672 -9.274,-1.098 -0.229,-0.172 -0.477,-0.229 -0.746,-0.17 -0.267,0.027 -0.47,0.154 -0.61,0.384 -0.173,0.229 -0.229,0.478 -0.17,0.746 0.026,0.268 0.154,0.488 0.382,0.66 3.044,2.149 6.7,2.613 10.967,1.393z"/>
      <g>
       <path class="fil5" d="M594.419 152.321c-0.646,-0.751 -1.486,-1.14 -2.519,-1.168 -1.033,-0.027 -1.926,0.316 -2.679,1.029 -0.686,0.749 -1.044,1.64 -1.071,2.673 -0.028,1.033 0.282,1.925 0.929,2.675 0.713,0.786 1.585,1.193 2.618,1.221 1.033,0.027 1.893,-0.333 2.58,-1.082 0.752,-0.714 1.143,-1.587 1.17,-2.62 0.028,-1.033 -0.315,-1.942 -1.028,-2.728l0 0zm18.593 0.495c-0.647,-0.751 -1.486,-1.14 -2.519,-1.167 -1.033,-0.028 -1.926,0.315 -2.679,1.029 -0.686,0.748 -1.043,1.639 -1.071,2.672 -0.028,1.033 0.282,1.925 0.929,2.676 0.713,0.785 1.585,1.192 2.618,1.22 1.033,0.027 1.893,-0.333 2.58,-1.082 0.752,-0.714 1.142,-1.587 1.17,-2.62 0.028,-1.033 -0.315,-1.942 -1.028,-2.728z"/>
      </g>
     </g>
    </g>
   </g>
   <g>
    <g>
     <g>
      <g>
       <path class="fil4" d="M593.989 157.211c0.449,-0.588 0.686,-1.316 0.709,-2.182 0.023,-0.866 -0.174,-1.622 -0.59,-2.266 -0.384,-0.611 -0.876,-0.924 -1.476,-0.94 -0.6,-0.016 -1.124,0.27 -1.573,0.858 -0.417,0.623 -0.637,1.367 -0.66,2.234 -0.023,0.866 0.157,1.604 0.541,2.215 0.416,0.644 0.925,0.975 1.524,0.991 0.6,0.016 1.108,-0.287 1.525,-0.91l0 0zm16.844 0.449c0.449,-0.589 0.685,-1.316 0.708,-2.182 0.023,-0.866 -0.173,-1.622 -0.59,-2.267 -0.384,-0.61 -0.876,-0.923 -1.475,-0.939 -0.6,-0.016 -1.124,0.27 -1.574,0.858 -0.416,0.622 -0.636,1.367 -0.659,2.233 -0.023,0.867 0.157,1.605 0.541,2.215 0.416,0.645 0.924,0.975 1.524,0.991 0.6,0.016 1.108,-0.287 1.525,-0.909z"/>
      </g>
     </g>
    </g>
   </g>
   <g>
    <g>
     <g>
      <g>
       <path class="fil6" d="M614.461 122.845c0.414,-0.417 0.921,-0.67 1.521,-0.76 -5.709,-0.986 -12.384,-0.146 -20.024,2.518 -0.167,0.029 -0.335,0.074 -0.504,0.136 -3.828,1.032 -8.222,2.616 -13.181,4.751l-1.332 3.065 -3.062 -1.432 -3.179 6.668c-1.999,4.948 -1.177,11.639 2.466,20.072l6.395 -14.734c6.171,-10.287 16.471,-17.049 30.9,-20.284l0 0zm-1.182 3.069l3.599 18.852 2.182 8.211 1.546 -16.714 -7.327 -10.349z"/>
      </g>
      <path class="fil3" d="M601.439 144.155c4.777,1.185 9.923,1.389 15.439,0.611l-3.599 -18.852c0.178,-1.4 0.572,-2.423 1.182,-3.069 -14.429,3.236 -24.729,9.997 -30.9,20.284 3.602,-1.737 7.314,-2.122 11.134,-1.154 1.997,0.635 3.665,1.863 5.004,3.684l1.74 -1.504z"/>
     </g>
    </g>
   </g>
  </g>
  <g>
   <g>
    <g>
     <g>
      <path class="fil0" d="M686.039 173.068c1.157,-0.781 1.963,-1.658 2.417,-2.63l-19.198 0.238c0.479,0.961 1.306,1.817 2.482,2.569 1.983,1.276 4.374,1.896 7.174,1.861 2.799,-0.034 5.174,-0.714 7.125,-2.038z"/>
      <path class="fil2" d="M693.056 162.33c3.113,1.028 5.027,-0.529 5.742,-4.671 0.011,-1.801 -0.028,-3.617 -0.118,-5.449 -0.162,-2.332 -0.441,-4.695 -0.838,-7.09 -0.47,-2.961 -2.188,-4.423 -5.154,-4.386l-30.347 0.376c-2.933,0.037 -4.614,1.574 -5.043,4.613 -0.335,2.605 -0.536,5.224 -0.603,7.858 2.26,7.472 5.113,10.387 8.559,8.744 0.763,-0.309 1.543,-0.586 2.34,-0.829 3.287,-1.041 6.981,-1.587 11.08,-1.637 5.467,-0.068 10.26,0.756 14.382,2.471z"/>
      <path class="fil1" d="M698.243 165.316c0.335,-2.538 0.52,-5.09 0.555,-7.657 -0.715,4.142 -2.629,5.699 -5.742,4.671 -4.122,-1.715 -8.915,-2.539 -14.382,-2.471 -4.099,0.05 -7.793,0.596 -11.08,1.637 -0.797,0.243 -1.577,0.52 -2.34,0.829 -3.446,1.643 -6.299,-1.272 -8.559,-8.744 -0.114,4.235 0.172,8.482 0.858,12.74 0.072,0.366 0.159,0.698 0.263,0.997 0.106,0.465 0.278,0.88 0.515,1.243 0.852,1.49 2.311,2.222 4.378,2.196l6.549 -0.081 19.198 -0.238 4.6 -0.057c2.8,-0.035 4.466,-1.389 5,-4.063 0.03,-0.2 0.061,-0.384 0.093,-0.551 0.031,-0.167 0.062,-0.318 0.094,-0.451z"/>
     </g>
    </g>
   </g>
   <g>
    <g>
     <g>
      <g>
       <path class="fil3" d="M685.431 148.324l0.241 3.247 8.471 -2.355c-2.388,-1.704 -5.292,-2.001 -8.712,-0.892l0 0zm-9.781 1.522l0.159 -3.303c-3.447,-1.057 -6.342,-0.687 -8.687,1.109l8.528 2.194z"/>
      </g>
      <path class="fil4" d="M686.979 164.206c0.265,-0.104 0.463,-0.273 0.593,-0.508 0.098,-0.234 0.111,-0.485 0.041,-0.75 -0.103,-0.266 -0.272,-0.447 -0.507,-0.544 -0.235,-0.131 -0.485,-0.161 -0.751,-0.091 -3.552,1.178 -6.655,0.933 -9.309,-0.734 -0.236,-0.164 -0.486,-0.211 -0.752,-0.141 -0.266,0.037 -0.465,0.173 -0.595,0.408 -0.164,0.235 -0.211,0.486 -0.141,0.751 0.037,0.266 0.173,0.481 0.408,0.646 3.125,2.027 6.797,2.348 11.013,0.963z"/>
      <g>
       <path class="fil5" d="M674.083 152.515c-0.676,-0.725 -1.53,-1.081 -2.563,-1.068 -1.034,0.013 -1.912,0.39 -2.637,1.133 -0.657,0.774 -0.979,1.679 -0.966,2.712 0.013,1.033 0.357,1.912 1.033,2.637 0.743,0.758 1.631,1.13 2.664,1.117 1.033,-0.013 1.878,-0.407 2.535,-1.181 0.725,-0.743 1.08,-1.631 1.067,-2.664 -0.013,-1.033 -0.39,-1.928 -1.133,-2.686l0 0zm18.598 -0.231c-0.676,-0.725 -1.53,-1.081 -2.563,-1.068 -1.034,0.013 -1.913,0.39 -2.637,1.133 -0.657,0.775 -0.979,1.679 -0.966,2.712 0.013,1.033 0.357,1.912 1.033,2.637 0.742,0.758 1.631,1.13 2.664,1.117 1.033,-0.013 1.878,-0.407 2.535,-1.181 0.724,-0.743 1.08,-1.63 1.067,-2.664 -0.013,-1.033 -0.39,-1.928 -1.133,-2.686z"/>
      </g>
     </g>
    </g>
   </g>
   <g>
    <g>
     <g>
      <g>
       <path class="fil4" d="M673.844 157.418c0.426,-0.605 0.633,-1.341 0.622,-2.207 -0.01,-0.867 -0.237,-1.614 -0.678,-2.242 -0.407,-0.595 -0.91,-0.889 -1.511,-0.881 -0.599,0.007 -1.112,0.313 -1.538,0.919 -0.392,0.638 -0.583,1.39 -0.572,2.257 0.01,0.867 0.22,1.597 0.627,2.192 0.441,0.628 0.962,0.938 1.562,0.931 0.6,-0.008 1.096,-0.33 1.488,-0.969l0 0zm16.848 -0.209c0.426,-0.605 0.633,-1.341 0.622,-2.208 -0.01,-0.866 -0.236,-1.614 -0.677,-2.241 -0.408,-0.595 -0.911,-0.889 -1.511,-0.882 -0.6,0.008 -1.113,0.314 -1.539,0.919 -0.392,0.639 -0.583,1.391 -0.572,2.258 0.011,0.866 0.22,1.597 0.627,2.192 0.441,0.628 0.962,0.938 1.562,0.931 0.6,-0.008 1.096,-0.331 1.488,-0.969z"/>
      </g>
     </g>
    </g>
   </g>
   <g>
    <g>
     <g>
      <g>
       <path class="fil6" d="M692.958 122.279c0.398,-0.432 0.895,-0.705 1.49,-0.818 -5.743,-0.762 -12.38,0.337 -19.91,3.297 -0.166,0.036 -0.332,0.087 -0.498,0.156 -3.785,1.181 -8.114,2.935 -12.985,5.262l-1.212 3.115 -3.116 -1.311 -2.916 6.786c-1.804,5.023 -0.722,11.676 3.248,19.961l5.815 -14.973c5.764,-10.52 15.792,-17.678 30.084,-21.475l0 0zm-1.061 3.114l4.332 18.697 2.501 8.119 0.892 -16.762 -7.725 -10.054z"/>
      </g>
      <path class="fil3" d="M680.778 144.082c4.82,0.997 9.97,1 15.451,0.008l-4.332 -18.697c0.123,-1.407 0.477,-2.444 1.061,-3.114 -14.292,3.797 -24.32,10.955 -30.084,21.475 3.532,-1.876 7.225,-2.406 11.08,-1.588 2.021,0.557 3.735,1.719 5.144,3.487l1.68 -1.571z"/>
     </g>
    </g>
   </g>
  </g>
  <g>
   <g>
    <g>
     <g>
      <path class="fil0" d="M446.464 290.225c1.186,-0.736 2.026,-1.58 2.518,-2.534l-19.193 -0.511c0.441,0.978 1.234,1.866 2.38,2.664 1.931,1.352 4.297,2.065 7.095,2.14 2.799,0.074 5.199,-0.512 7.2,-1.759z"/>
      <path class="fil2" d="M453.895 279.769c3.07,1.149 5.043,-0.332 5.92,-4.444 0.081,-1.798 0.113,-3.614 0.095,-5.449 -0.071,-2.336 -0.258,-4.708 -0.561,-7.117 -0.354,-2.977 -2.014,-4.506 -4.979,-4.584l-30.339 -0.809c-2.932,-0.078 -4.672,1.393 -5.219,4.413 -0.436,2.589 -0.739,5.199 -0.909,7.828 1.966,7.555 4.703,10.579 8.212,9.072 0.774,-0.279 1.564,-0.525 2.37,-0.737 3.325,-0.912 7.037,-1.313 11.136,-1.204 5.464,0.146 10.222,1.156 14.274,3.031z"/>
      <path class="fil1" d="M458.961 282.955c0.434,-2.522 0.719,-5.066 0.854,-7.63 -0.877,4.112 -2.85,5.593 -5.92,4.444 -4.052,-1.875 -8.81,-2.885 -14.274,-3.031 -4.099,-0.109 -7.811,0.292 -11.136,1.204 -0.806,0.212 -1.596,0.458 -2.37,0.737 -3.509,1.507 -6.246,-1.517 -8.212,-9.072 -0.279,4.228 -0.159,8.482 0.36,12.764 0.057,0.369 0.132,0.704 0.224,1.007 0.087,0.469 0.243,0.89 0.467,1.262 0.792,1.522 2.222,2.31 4.288,2.365l6.547 0.175 19.193 0.511 4.598 0.122c2.799,0.075 4.517,-1.213 5.155,-3.864 0.039,-0.199 0.077,-0.381 0.114,-0.547 0.038,-0.165 0.075,-0.315 0.112,-0.447z"/>
     </g>
    </g>
   </g>
   <g>
    <g>
     <g>
      <g>
       <path class="fil3" d="M446.823 265.476l0.113 3.254 8.557 -2.023c-2.32,-1.795 -5.21,-2.206 -8.67,-1.231l0 0zm-9.834 1.139l0.288 -3.294c-3.403,-1.191 -6.311,-0.935 -8.723,0.768l8.435 2.526z"/>
      </g>
      <path class="fil4" d="M447.749 281.406c0.269,-0.093 0.474,-0.254 0.613,-0.484 0.106,-0.231 0.13,-0.48 0.07,-0.748 -0.093,-0.269 -0.255,-0.457 -0.485,-0.564 -0.23,-0.139 -0.479,-0.179 -0.747,-0.119 -3.596,1.038 -6.687,0.672 -9.274,-1.098 -0.229,-0.172 -0.477,-0.229 -0.746,-0.17 -0.267,0.027 -0.471,0.155 -0.61,0.384 -0.173,0.229 -0.23,0.478 -0.17,0.746 0.026,0.268 0.154,0.488 0.382,0.66 3.044,2.149 6.7,2.613 10.967,1.393z"/>
      <g>
       <path class="fil5" d="M435.319 269.221c-0.646,-0.751 -1.487,-1.14 -2.52,-1.168 -1.032,-0.027 -1.925,0.316 -2.678,1.03 -0.686,0.748 -1.044,1.639 -1.071,2.672 -0.028,1.033 0.282,1.925 0.929,2.676 0.713,0.785 1.585,1.192 2.618,1.22 1.033,0.027 1.893,-0.333 2.58,-1.082 0.752,-0.714 1.142,-1.587 1.17,-2.62 0.028,-1.033 -0.315,-1.942 -1.028,-2.728l0 0zm18.593 0.495c-0.647,-0.751 -1.487,-1.14 -2.52,-1.167 -1.032,-0.028 -1.925,0.315 -2.678,1.029 -0.686,0.748 -1.044,1.639 -1.071,2.672 -0.028,1.033 0.282,1.925 0.929,2.676 0.712,0.786 1.585,1.192 2.618,1.22 1.033,0.027 1.893,-0.333 2.58,-1.082 0.752,-0.713 1.142,-1.587 1.17,-2.619 0.028,-1.033 -0.315,-1.943 -1.028,-2.729z"/>
      </g>
     </g>
    </g>
   </g>
   <g>
    <g>
     <g>
      <g>
       <path class="fil4" d="M434.889 274.111c0.449,-0.588 0.685,-1.315 0.708,-2.182 0.023,-0.866 -0.173,-1.621 -0.59,-2.266 -0.384,-0.611 -0.875,-0.924 -1.475,-0.94 -0.6,-0.016 -1.124,0.27 -1.573,0.859 -0.417,0.622 -0.637,1.367 -0.66,2.233 -0.023,0.866 0.157,1.605 0.541,2.215 0.416,0.644 0.924,0.975 1.524,0.991 0.6,0.016 1.108,-0.287 1.525,-0.91l0 0zm16.844 0.449c0.449,-0.589 0.685,-1.316 0.708,-2.182 0.023,-0.866 -0.174,-1.622 -0.59,-2.267 -0.384,-0.61 -0.876,-0.923 -1.476,-0.939 -0.599,-0.016 -1.124,0.27 -1.573,0.858 -0.417,0.623 -0.636,1.367 -0.66,2.233 -0.023,0.867 0.158,1.605 0.542,2.216 0.416,0.644 0.924,0.974 1.524,0.991 0.6,0.016 1.108,-0.288 1.525,-0.91z"/>
      </g>
     </g>
    </g>
   </g>
   <g>
    <g>
     <g>
      <g>
       <path class="fil6" d="M455.361 239.745c0.414,-0.416 0.921,-0.67 1.52,-0.76 -5.708,-0.986 -12.383,-0.146 -20.023,2.518 -0.168,0.029 -0.335,0.074 -0.504,0.136 -3.829,1.032 -8.222,2.616 -13.181,4.751l-1.332 3.066 -3.063 -1.433 -3.178 6.668c-1.999,4.948 -1.177,11.639 2.466,20.072l6.395 -14.734c6.171,-10.287 16.47,-17.049 30.9,-20.284l0 0zm-1.182 3.069l3.599 18.852 2.182 8.211 1.545 -16.714 -7.326 -10.349z"/>
      </g>
      <path class="fil3" d="M442.339 261.055c4.777,1.185 9.923,1.389 15.439,0.611l-3.599 -18.852c0.177,-1.4 0.572,-2.423 1.182,-3.069 -14.429,3.236 -24.729,9.997 -30.9,20.284 3.602,-1.737 7.314,-2.122 11.134,-1.154 1.997,0.635 3.665,1.864 5.004,3.685l1.74 -1.505z"/>
     </g>
    </g>
   </g>
  </g>
  <g>
   <g>
    <g>
     <g>
      <path class="fil0" d="M210.162 280.639c1.053,-0.916 1.747,-1.885 2.08,-2.905l-19.027 2.569c0.592,0.896 1.517,1.646 2.776,2.249 2.123,1.025 4.572,1.35 7.346,0.976 2.775,-0.375 5.05,-1.338 6.825,-2.889z"/>
      <path class="fil2" d="M215.822 269.128c3.215,0.642 4.925,-1.136 5.132,-5.335 -0.208,-1.788 -0.467,-3.586 -0.779,-5.394 -0.444,-2.294 -1.009,-4.606 -1.693,-6.935 -0.827,-2.882 -2.71,-4.125 -5.65,-3.728l-30.075 4.062c-2.907,0.392 -4.389,2.123 -4.446,5.191 -0.015,2.626 0.104,5.25 0.357,7.873 3.151,7.142 6.337,9.688 9.558,7.639 0.72,-0.4 1.46,-0.769 2.222,-1.107 3.136,-1.433 6.736,-2.423 10.799,-2.972 5.417,-0.731 10.276,-0.496 14.575,0.706z"/>
      <path class="fil1" d="M221.334 271.461c0.024,-2.559 -0.103,-5.116 -0.38,-7.668 -0.207,4.199 -1.917,5.977 -5.132,5.335 -4.299,-1.202 -9.158,-1.437 -14.575,-0.706 -4.063,0.549 -7.663,1.539 -10.799,2.972 -0.762,0.338 -1.502,0.707 -2.222,1.107 -3.221,2.049 -6.407,-0.497 -9.558,-7.639 0.402,4.217 1.201,8.398 2.4,12.541 0.115,0.354 0.243,0.674 0.382,0.958 0.161,0.449 0.382,0.839 0.663,1.171 1.026,1.375 2.563,1.924 4.611,1.648l6.491 -0.877 19.027 -2.569 4.558 -0.615c2.775,-0.375 4.264,-1.922 4.469,-4.64 0.007,-0.203 0.015,-0.389 0.026,-0.559 0.011,-0.169 0.023,-0.322 0.039,-0.459z"/>
     </g>
    </g>
   </g>
   <g>
    <g>
     <g>
      <g>
       <path class="fil3" d="M206.553 256.152l0.633 3.194 8.122 -3.367c-2.577,-1.401 -5.496,-1.343 -8.755,0.173l0 0zm-9.525 2.699l-0.243 -3.297c-3.55,-0.631 -6.379,0.088 -8.488,2.155l8.731 1.142z"/>
      </g>
      <path class="fil4" d="M210.018 271.728c0.251,-0.135 0.427,-0.327 0.528,-0.576 0.068,-0.245 0.051,-0.494 -0.051,-0.75 -0.135,-0.251 -0.325,-0.41 -0.569,-0.478 -0.249,-0.101 -0.501,-0.101 -0.757,0.001 -3.383,1.601 -6.493,1.735 -9.33,0.403 -0.253,-0.134 -0.508,-0.15 -0.763,-0.049 -0.26,0.069 -0.44,0.228 -0.541,0.477 -0.134,0.253 -0.15,0.508 -0.048,0.763 0.068,0.26 0.229,0.457 0.483,0.591 3.349,1.633 7.031,1.506 11.048,-0.382z"/>
      <g>
       <path class="fil5" d="M195.797 261.691c-0.758,-0.638 -1.65,-0.887 -2.674,-0.749 -1.024,0.139 -1.85,0.62 -2.479,1.445 -0.558,0.849 -0.768,1.785 -0.629,2.809 0.138,1.024 0.586,1.855 1.345,2.493 0.83,0.661 1.756,0.923 2.78,0.785 1.024,-0.139 1.815,-0.632 2.373,-1.481 0.629,-0.825 0.874,-1.75 0.736,-2.774 -0.138,-1.023 -0.622,-1.866 -1.452,-2.528l0 0zm18.433 -2.489c-0.759,-0.637 -1.651,-0.887 -2.675,-0.749 -1.024,0.138 -1.85,0.62 -2.478,1.445 -0.559,0.849 -0.768,1.785 -0.63,2.809 0.138,1.024 0.586,1.855 1.345,2.493 0.83,0.661 1.756,0.923 2.78,0.785 1.024,-0.139 1.815,-0.632 2.373,-1.481 0.629,-0.825 0.874,-1.749 0.736,-2.774 -0.138,-1.024 -0.622,-1.866 -1.451,-2.528z"/>
      </g>
     </g>
    </g>
   </g>
   <g>
    <g>
     <g>
      <g>
       <path class="fil4" d="M196.156 266.587c0.349,-0.653 0.465,-1.408 0.349,-2.267 -0.116,-0.859 -0.43,-1.573 -0.945,-2.143 -0.476,-0.541 -1.012,-0.771 -1.607,-0.691 -0.594,0.08 -1.066,0.447 -1.415,1.099 -0.312,0.681 -0.41,1.452 -0.294,2.31 0.116,0.859 0.413,1.559 0.889,2.1 0.514,0.57 1.069,0.814 1.663,0.734 0.595,-0.08 1.048,-0.461 1.36,-1.142l0 0zm16.698 -2.255c0.349,-0.653 0.465,-1.408 0.349,-2.267 -0.116,-0.859 -0.431,-1.573 -0.945,-2.143 -0.476,-0.541 -1.012,-0.771 -1.607,-0.691 -0.594,0.08 -1.066,0.447 -1.415,1.099 -0.312,0.681 -0.41,1.452 -0.294,2.31 0.116,0.859 0.412,1.559 0.889,2.1 0.514,0.57 1.069,0.814 1.663,0.734 0.595,-0.08 1.048,-0.461 1.36,-1.142z"/>
      </g>
     </g>
    </g>
   </g>
   <g>
    <g>
     <g>
      <g>
       <path class="fil6" d="M210.859 229.386c0.342,-0.477 0.802,-0.808 1.379,-0.993 -5.793,-0.059 -12.247,1.838 -19.361,5.692 -0.161,0.055 -0.32,0.127 -0.476,0.215 -3.614,1.632 -7.697,3.899 -12.249,6.8l-0.824 3.24 -3.253 -0.923 -2.07 7.09c-1.18,5.205 0.703,11.678 5.65,19.418l3.952 -15.568c4.443,-11.143 13.527,-19.466 27.252,-24.971l0 0zm-0.675 3.219l6.572 18.032 3.469 7.756 -1.152 -16.746 -8.889 -9.042z"/>
      </g>
      <path class="fil3" d="M201.418 252.507c4.905,0.404 10.018,-0.219 15.338,-1.87l-6.572 -18.032c-0.049,-1.411 0.176,-2.484 0.675,-3.219 -13.725,5.505 -22.809,13.828 -27.252,24.971 3.278,-2.292 6.879,-3.266 10.805,-2.923 2.073,0.308 3.916,1.253 5.529,2.836l1.477 -1.763z"/>
     </g>
    </g>
   </g>
  </g>
  <g>
   <g>
    <g>
     <g>
      <path class="fil0" d="M118.735 296.945c1.021,-0.953 1.68,-1.944 1.978,-2.975l-18.926 3.23c0.623,0.874 1.574,1.591 2.853,2.151 2.157,0.95 4.616,1.19 7.375,0.719 2.761,-0.471 5,-1.513 6.72,-3.125z"/>
      <path class="fil2" d="M123.991 285.244c3.236,0.53 4.883,-1.307 4.944,-5.51 -0.27,-1.78 -0.593,-3.568 -0.967,-5.364 -0.524,-2.277 -1.168,-4.568 -1.933,-6.872 -0.927,-2.851 -2.852,-4.028 -5.776,-3.528l-29.916 5.106c-2.892,0.493 -4.312,2.274 -4.262,5.343 0.076,2.624 0.286,5.243 0.631,7.855 3.397,7.029 6.67,9.462 9.818,7.302 0.705,-0.424 1.432,-0.819 2.182,-1.184 3.084,-1.541 6.647,-2.656 10.689,-3.346 5.388,-0.92 10.252,-0.854 14.59,0.198z"/>
      <path class="fil1" d="M129.581 287.384c-0.065,-2.559 -0.281,-5.109 -0.646,-7.65 -0.061,4.203 -1.708,6.04 -4.944,5.51 -4.338,-1.052 -9.202,-1.118 -14.59,-0.198 -4.042,0.69 -7.605,1.805 -10.689,3.346 -0.75,0.365 -1.477,0.76 -2.182,1.184 -3.148,2.16 -6.421,-0.273 -9.818,-7.302 0.548,4.201 1.493,8.351 2.835,12.45 0.127,0.35 0.266,0.665 0.415,0.944 0.176,0.443 0.411,0.826 0.703,1.148 1.073,1.338 2.629,1.834 4.666,1.486l6.456 -1.102 18.926 -3.23 4.534 -0.774c2.76,-0.471 4.195,-2.069 4.305,-4.793 -0.001,-0.202 0.001,-0.389 0.006,-0.559 0.005,-0.169 0.012,-0.323 0.023,-0.46z"/>
     </g>
    </g>
   </g>
   <g>
    <g>
     <g>
      <g>
       <path class="fil3" d="M114.276 272.599l0.743 3.17 8.001 -3.648c-2.625,-1.31 -5.54,-1.151 -8.744,0.478l0 0zm-9.425 3.029l-0.358 -3.287c-3.569,-0.507 -6.371,0.31 -8.407,2.45l8.765 0.837z"/>
      </g>
      <path class="fil4" d="M118.281 288.045c0.246,-0.144 0.416,-0.342 0.508,-0.594 0.059,-0.247 0.033,-0.496 -0.077,-0.748 -0.144,-0.246 -0.339,-0.399 -0.586,-0.458 -0.252,-0.092 -0.504,-0.083 -0.756,0.028 -3.325,1.717 -6.428,1.959 -9.31,0.726 -0.258,-0.125 -0.513,-0.132 -0.764,-0.021 -0.257,0.077 -0.432,0.243 -0.524,0.495 -0.125,0.258 -0.133,0.513 -0.022,0.765 0.078,0.257 0.246,0.448 0.504,0.573 3.403,1.516 7.079,1.26 11.027,-0.766z"/>
      <g>
       <path class="fil5" d="M103.72 278.509c-0.781,-0.611 -1.68,-0.829 -2.699,-0.655 -1.018,0.174 -1.827,0.684 -2.427,1.53 -0.528,0.868 -0.705,1.811 -0.531,2.829 0.174,1.019 0.651,1.834 1.431,2.444 0.852,0.633 1.788,0.862 2.806,0.688 1.019,-0.174 1.792,-0.694 2.32,-1.562 0.6,-0.847 0.812,-1.779 0.638,-2.798 -0.173,-1.018 -0.686,-1.844 -1.538,-2.476l0 0zm18.334 -3.129c-0.781,-0.611 -1.68,-0.83 -2.699,-0.656 -1.018,0.174 -1.827,0.684 -2.426,1.531 -0.529,0.867 -0.706,1.811 -0.532,2.829 0.174,1.019 0.651,1.833 1.431,2.444 0.852,0.633 1.787,0.862 2.806,0.688 1.019,-0.174 1.792,-0.695 2.32,-1.563 0.6,-0.846 0.812,-1.778 0.639,-2.797 -0.174,-1.019 -0.687,-1.844 -1.539,-2.476z"/>
      </g>
     </g>
    </g>
   </g>
   <g>
    <g>
     <g>
      <g>
       <path class="fil4" d="M104.249 283.39c0.326,-0.665 0.416,-1.424 0.27,-2.278 -0.146,-0.855 -0.486,-1.557 -1.019,-2.109 -0.495,-0.524 -1.038,-0.736 -1.63,-0.635 -0.591,0.101 -1.05,0.484 -1.376,1.148 -0.288,0.692 -0.359,1.465 -0.213,2.319 0.146,0.854 0.466,1.544 0.961,2.068 0.534,0.551 1.096,0.776 1.688,0.675 0.591,-0.101 1.031,-0.497 1.319,-1.188l0 0zm16.609 -2.835c0.326,-0.665 0.416,-1.424 0.27,-2.278 -0.146,-0.854 -0.485,-1.557 -1.019,-2.109 -0.495,-0.524 -1.039,-0.735 -1.63,-0.634 -0.591,0.1 -1.05,0.483 -1.376,1.147 -0.288,0.692 -0.359,1.465 -0.213,2.319 0.146,0.854 0.466,1.544 0.961,2.068 0.534,0.551 1.097,0.776 1.688,0.675 0.592,-0.101 1.031,-0.497 1.319,-1.188z"/>
      </g>
     </g>
    </g>
   </g>
   <g>
    <g>
     <g>
      <g>
       <path class="fil6" d="M117.647 245.699c0.326,-0.489 0.774,-0.836 1.344,-1.04 -5.791,0.142 -12.175,2.263 -19.151,6.362 -0.159,0.061 -0.315,0.138 -0.468,0.232 -3.555,1.757 -7.557,4.164 -12.005,7.223l-0.711 3.266 -3.283 -0.809 -1.821 7.158c-0.999,5.242 1.109,11.646 6.322,19.209l3.407 -15.696c4.053,-11.291 12.842,-19.925 26.366,-25.905l0 0zm-0.562 3.241l7.196 17.792 3.737 7.63 -1.734 -16.696 -9.199 -8.726z"/>
      </g>
      <path class="fil3" d="M109.018 269.134c4.916,0.234 10.003,-0.567 15.263,-2.402l-7.196 -17.792c-0.098,-1.408 0.09,-2.488 0.562,-3.241 -13.524,5.98 -22.313,14.614 -26.366,25.905 3.197,-2.404 6.762,-3.503 10.698,-3.297 2.082,0.235 3.957,1.115 5.624,2.641l1.415 -1.814z"/>
     </g>
    </g>
   </g>
  </g>
  <g>
   <g>
    <g>
     <g>
      <path class="fil0" d="M353.25 289.35c1.967,1.3 4.35,1.95 7.15,1.95 2.8,0 5.184,-0.65 7.15,-1.95 1.167,-0.767 1.983,-1.633 2.45,-2.6l-19.2 0c0.467,0.967 1.283,1.833 2.45,2.6z"/>
      <path class="fil2" d="M379.75 282.2c1.033,-6.733 1.017,-13.617 -0.05,-20.65 -0.433,-2.967 -2.133,-4.45 -5.1,-4.45l-30.35 0c-2.933,0 -4.633,1.517 -5.1,4.55 -1,6.867 -1,13.733 0,20.6 0.467,3 2.167,4.5 5.1,4.5l6.55 0 19.2 0 4.6 0c2.967,0 4.683,-1.517 5.15,-4.55z"/>
     </g>
    </g>
   </g>
   <g>
    <g>
     <g>
      <g>
       <path class="fil6" d="M360.6 281.3l19.8 -6.85c-13.867,3.717 -27.733,4.017 -41.6,0.9l21.8 5.95 0 0zm14.15 -41.2c0.403,-0.427 0.903,-0.694 1.5,-0.8 -5.733,-0.833 -12.383,0.183 -19.95,3.05 -0.167,0.033 -0.334,0.084 -0.5,0.15 -3.8,1.134 -8.15,2.834 -13.05,5.1l-1.25 3.1 -3.1 -1.35 -3 6.75c-1.792,4.801 -0.942,11.135 2.55,19 0.146,0.336 0.296,0.669 0.45,1l0.3 -0.8 5.7 -14.1c5.895,-10.448 16.012,-17.481 30.35,-21.1l0 0zm-1.1 3.1l4.1 18.75 3.5 6.4 0 -15 -7.6 -10.15z"/>
      </g>
      <path class="fil3" d="M373.65 243.2c0.14,-1.405 0.507,-2.438 1.1,-3.1 -14.338,3.619 -24.455,10.652 -30.35,21.1l-5.7 14.1 0.1 0.05c13.867,3.117 27.733,2.817 41.6,-0.9l0.85 -6.1 -3.5 -6.4 -4.1 -18.75z"/>
     </g>
    </g>
   </g>
  </g>
  <g>
   <g>
    <g>
     <g>
      <path class="fil0" d="M431.716 64.901c2.067,1.133 4.496,1.584 7.286,1.353 2.791,-0.231 5.112,-1.076 6.965,-2.534 1.099,-0.86 1.841,-1.792 2.226,-2.794l-19.134 1.586c0.545,0.925 1.431,1.722 2.657,2.389z"/>
      <path class="fil2" d="M457.534 55.587c0.474,-6.796 -0.111,-13.654 -1.755,-20.575 -0.677,-2.921 -2.494,-4.259 -5.45,-4.014l-30.246 2.507c-2.923,0.242 -4.492,1.894 -4.707,4.956 -0.429,6.926 0.138,13.769 1.702,20.529 0.713,2.951 2.531,4.306 5.454,4.064l6.527 -0.542 19.134 -1.586 4.585 -0.379c2.956,-0.245 4.542,-1.898 4.756,-4.96z"/>
     </g>
    </g>
   </g>
   <g>
    <g>
     <g>
      <g>
       <path class="fil6" d="M438.376 56.272l19.166 -8.462c-13.512,4.849 -27.307,6.293 -41.383,4.333l22.217 4.129 0 0zm10.698 -42.228c0.367,-0.459 0.843,-0.766 1.429,-0.921 -5.783,-0.357 -12.326,1.206 -19.63,4.688 -0.163,0.047 -0.325,0.11 -0.486,0.19 -3.693,1.444 -7.888,3.497 -12.584,6.161l-0.989 3.192 -3.201 -1.089 -2.432 6.974c-1.39,4.934 -0.02,11.175 4.11,18.725 0.174,0.322 0.351,0.642 0.531,0.959l0.233 -0.822 4.516 -14.522c5.012,-10.899 14.513,-18.744 28.503,-23.535l0 0zm-0.84 3.18l5.634 18.347 4.017 6.09 -1.239 -14.949 -8.412 -9.488z"/>
      </g>
      <path class="fil3" d="M448.234 17.224c0.024,-1.411 0.304,-2.471 0.84,-3.18 -13.99,4.791 -23.491,12.636 -28.503,23.535l-4.516 14.522 0.104 0.042c14.076,1.96 27.871,0.516 41.383,-4.333l0.343 -6.149 -4.017 -6.09 -5.634 -18.347z"/>
     </g>
    </g>
   </g>
  </g>
 </g>
</svg>
